  0
SECTION
  2
HEADER
  9
$ACADVER
  1
AC1009
  9
$DWGCODEPAGE
  3
ansi_1252
  9
$INSBASE
 10
0.0
 20
0.0
 30
0.0
  9
$EXTMIN
 10
-49.9990234375
 20
-1424.99974714
 30
0.0
  9
$EXTMAX
 10
3949.9987793
 20
467.8739013669999
 30
0.0
  9
$LIMMIN
 10
0.0
 20
0.0
  9
$LIMMAX
 10
12.0
 20
9.0
  9
$ORTHOMODE
 70
     0
  9
$REGENMODE
 70
     1
  9
$FILLMODE
 70
     1
  9
$QTEXTMODE
 70
     0
  9
$MIRRTEXT
 70
     1
  9
$DRAGMODE
 70
     2
  9
$LTSCALE
 40
1.0
  9
$OSMODE
 70
   255
  9
$ATTMODE
 70
     1
  9
$TEXTSIZE
 40
1.0
  9
$TRACEWID
 40
0.05
  9
$TEXTSTYLE
  7
STANDARD
  9
$CLAYER
  8
0
  9
$CELTYPE
  6
BYBLOCK
  9
$CECOLOR
 62
   256
  9
$DIMSCALE
 40
1.0
  9
$DIMASZ
 40
0.18
  9
$DIMEXO
 40
0.0625
  9
$DIMDLI
 40
0.38
  9
$DIMRND
 40
0.0
  9
$DIMDLE
 40
0.0
  9
$DIMEXE
 40
0.18
  9
$DIMTP
 40
0.0
  9
$DIMTM
 40
0.0
  9
$DIMTXT
 40
0.18
  9
$DIMCEN
 40
0.09
  9
$DIMTSZ
 40
0.0
  9
$DIMTOL
 70
     0
  9
$DIMLIM
 70
     0
  9
$DIMTIH
 70
     1
  9
$DIMTOH
 70
     1
  9
$DIMSE1
 70
     0
  9
$DIMSE2
 70
     0
  9
$DIMTAD
 70
     0
  9
$DIMZIN
 70
     0
  9
$DIMBLK
  1

  9
$DIMASO
 70
     1
  9
$DIMSHO
 70
     1
  9
$DIMPOST
  1

  9
$DIMAPOST
  1

  9
$DIMALT
 70
     0
  9
$DIMALTD
 70
     2
  9
$DIMALTF
 40
25.4
  9
$DIMLFAC
 40
1.0
  9
$DIMTOFL
 70
     0
  9
$DIMTVP
 40
0.0
  9
$DIMTIX
 70
     0
  9
$DIMSOXD
 70
     0
  9
$DIMSAH
 70
     0
  9
$DIMBLK1
  1

  9
$DIMBLK2
  1

  9
$DIMSTYLE
  2
STANDARD
  9
$DIMCLRD
 70
     0
  9
$DIMCLRE
 70
     0
  9
$DIMCLRT
 70
     0
  9
$DIMTFAC
 40
1.0
  9
$DIMGAP
 40
0.09
  9
$LUNITS
 70
     2
  9
$LUPREC
 70
     4
  9
$SKETCHINC
 40
0.1
  9
$FILLETRAD
 40
0.5
  9
$AUNITS
 70
     0
  9
$AUPREC
 70
     0
  9
$MENU
  1
.
  9
$ELEVATION
 40
0.0
  9
$PELEVATION
 40
0.0
  9
$THICKNESS
 40
0.0
  9
$LIMCHECK
 70
     0
  9
$CHAMFERA
 40
0.0
  9
$CHAMFERB
 40
0.0
  9
$SKPOLY
 70
     0
  9
$TDCREATE
 40
2457893.869085417
  9
$TDUPDATE
 40
2457893.875931227
  9
$TDINDWG
 40
0.0000008565
  9
$TDUSRTIMER
 40
2457894.000097431
  9
$USRTIMER
 70
     1
  9
$ANGBASE
 50
0.0
  9
$ANGDIR
 70
     0
  9
$PDMODE
 70
     0
  9
$PDSIZE
 40
0.0
  9
$PLINEWID
 40
0.0
  9
$COORDS
 70
     1
  9
$SPLFRAME
 70
     0
  9
$SPLINETYPE
 70
     6
  9
$SPLINESEGS
 70
     8
  9
$ATTDIA
 70
     0
  9
$ATTREQ
 70
     1
  9
$HANDLING
 70
     1
  9
$HANDSEED
  5
10A1
  9
$SURFTAB1
 70
     6
  9
$SURFTAB2
 70
     6
  9
$SURFTYPE
 70
     6
  9
$SURFU
 70
     6
  9
$SURFV
 70
     6
  9
$UCSNAME
  2

  9
$UCSORG
 10
0.0
 20
0.0
 30
0.0
  9
$UCSXDIR
 10
1.0
 20
0.0
 30
0.0
  9
$UCSYDIR
 10
0.0
 20
1.0
 30
0.0
  9
$PUCSNAME
  2

  9
$PUCSORG
 10
0.0
 20
0.0
 30
0.0
  9
$PUCSXDIR
 10
1.0
 20
0.0
 30
0.0
  9
$PUCSYDIR
 10
0.0
 20
1.0
 30
0.0
  9
$USERI1
 70
     0
  9
$USERI2
 70
     0
  9
$USERI3
 70
     0
  9
$USERI4
 70
     0
  9
$USERI5
 70
     0
  9
$USERR1
 40
0.0
  9
$USERR2
 40
0.0
  9
$USERR3
 40
0.0
  9
$USERR4
 40
0.0
  9
$USERR5
 40
0.0
  9
$WORLDVIEW
 70
     1
  9
$SHADEDGE
 70
     3
  9
$SHADEDIF
 70
    70
  9
$TILEMODE
 70
     1
  9
$MAXACTVP
 70
    64
  9
$PLIMCHECK
 70
     0
  9
$PEXTMIN
 10
1.000000000000000E+20
 20
1.000000000000000E+20
 30
1.000000000000000E+20
  9
$PEXTMAX
 10
-1.000000000000000E+20
 20
-1.000000000000000E+20
 30
-1.000000000000000E+20
  9
$PLIMMIN
 10
0.0
 20
0.0
  9
$PLIMMAX
 10
0.0
 20
0.0
  9
$UNITMODE
 70
     0
  9
$VISRETAIN
 70
     1
  9
$PLINEGEN
 70
     0
  9
$PSLTSCALE
 70
     1
  0
ENDSEC
  0
SECTION
  2
TABLES
  0
TABLE
  2
VPORT
 70
     1
  0
VPORT
  2
*ACTIVE
 70
     0
 10
0.0
 20
0.0
 11
1.0
 21
1.0
 12
2302.805133749948
 22
-503.1726279546046
 13
0.0
 23
0.0
 14
0.5
 24
0.5
 15
0.5
 25
0.5
 16
0.0
 26
0.0
 36
1.0
 17
0.0
 27
0.0
 37
0.0
 40
3207.247308839943
 41
1.987684729064039
 42
50.0
 43
0.0
 44
0.0
 50
0.0
 51
0.0
 71
    16
 72
   100
 73
     1
 74
     3
 75
     0
 76
     0
 77
     0
 78
     0
  0
ENDTAB
  0
TABLE
  2
LTYPE
 70
     1
  0
LTYPE
  2
CONTINUOUS
 70
     0
  3
Solid line
 72
    65
 73
     0
 40
0.0
  0
ENDTAB
  0
TABLE
  2
LAYER
 70
     3
  0
LAYER
  2
0
 70
     0
 62
     7
  6
CONTINUOUS
  0
LAYER
  2
CUTS
 70
     0
 62
     7
  6
CONTINUOUS
  0
LAYER
  2
OUTLINES
 70
     0
 62
     7
  6
CONTINUOUS
  0
ENDTAB
  0
TABLE
  2
STYLE
 70
     1
  0
STYLE
  2
STANDARD
 70
     0
 40
0.0
 41
1.0
 50
0.0
 71
     0
 42
1.0
  3
ARIAL.TTF
  4

  0
ENDTAB
  0
TABLE
  2
VIEW
 70
     0
  0
ENDTAB
  0
TABLE
  2
UCS
 70
     0
  0
ENDTAB
  0
TABLE
  2
APPID
 70
     1
  0
APPID
  2
ACAD
 70
     0
  0
ENDTAB
  0
TABLE
  2
DIMSTYLE
 70
     1
  0
DIMSTYLE
  2
STANDARD
 70
     0
  3

  4

  5

  6

  7

 40
1.0
 41
0.18
 42
0.0625
 43
0.38
 44
0.18
 45
0.0
 46
0.0
 47
0.0
 48
0.0
140
0.18
141
0.09
142
0.0
143
25.4
144
1.0
145
0.0
146
1.0
147
0.09
 71
     0
 72
     0
 73
     1
 74
     1
 75
     0
 76
     0
 77
     0
 78
     0
170
     0
171
     2
172
     0
173
     0
174
     0
175
     0
176
     0
177
     0
178
     0
  0
ENDTAB
  0
ENDSEC
  0
SECTION
  2
BLOCKS
  0
BLOCK
  8
0
  2
$MODEL_SPACE
 70
     0
 10
0.0
 20
0.0
 30
0.0
  3
$MODEL_SPACE
  1

  0
ENDBLK
  5
428
  8
0
  0
BLOCK
 67
     1
  8
0
  2
$PAPER_SPACE
 70
     0
 10
0.0
 20
0.0
 30
0.0
  3
$PAPER_SPACE
  1

  0
ENDBLK
  5
42A
 67
     1
  8
0
  0
ENDSEC
  0
SECTION
  2
ENTITIES
  0
POLYLINE
  5
29
  8
OUTLINES
 62
     5
 66
     1
 10
0.0
 20
0.0
 30
0.0
 70
     1
  0
VERTEX
  5
BA0
  8
OUTLINES
 62
     5
 10
2232.00054932
 20
-178.499694824
 30
0.0
  0
VERTEX
  5
BA1
  8
OUTLINES
 62
     5
 10
2157.00067139
 20
-178.499694824
 30
0.0
  0
VERTEX
  5
BA2
  8
OUTLINES
 62
     5
 10
2157.00067139
 20
-183.499572754
 30
0.0
  0
VERTEX
  5
BA3
  8
OUTLINES
 62
     5
 10
2147.0007019
 20
-183.499572754
 30
0.0
  0
VERTEX
  5
BA4
  8
OUTLINES
 62
     5
 10
2147.0007019
 20
-160.499572754
 30
0.0
  0
VERTEX
  5
BA5
  8
OUTLINES
 62
     5
 10
1967.00109863
 20
-160.499572754
 30
0.0
  0
VERTEX
  5
BA6
  8
OUTLINES
 62
     5
 10
1967.00109863
 20
-183.499572754
 30
0.0
  0
VERTEX
  5
BA7
  8
OUTLINES
 62
     5
 10
1957.0010376
 20
-183.499572754
 30
0.0
  0
VERTEX
  5
BA8
  8
OUTLINES
 62
     5
 10
1957.0010376
 20
-178.499694824
 30
0.0
  0
VERTEX
  5
BA9
  8
OUTLINES
 62
     5
 10
1900.0
 20
-178.499694824
 30
0.0
  0
VERTEX
  5
BAA
  8
OUTLINES
 62
     5
 10
1900.0
 20
-428.499206543
 30
0.0
  0
VERTEX
  5
BAB
  8
OUTLINES
 62
     5
 10
1957.0010376
 20
-428.499206543
 30
0.0
  0
VERTEX
  5
BAC
  8
OUTLINES
 62
     5
 10
1957.0010376
 20
-423.498962402
 30
0.0
  0
VERTEX
  5
BAD
  8
OUTLINES
 62
     5
 10
1967.00109863
 20
-423.498962402
 30
0.0
  0
VERTEX
  5
BAE
  8
OUTLINES
 62
     5
 10
1967.00109863
 20
-446.498962402
 30
0.0
  0
VERTEX
  5
BAF
  8
OUTLINES
 62
     5
 10
2147.0007019
 20
-446.498962402
 30
0.0
  0
VERTEX
  5
BB0
  8
OUTLINES
 62
     5
 10
2147.0007019
 20
-423.498962402
 30
0.0
  0
VERTEX
  5
BB1
  8
OUTLINES
 62
     5
 10
2157.00067139
 20
-423.498962402
 30
0.0
  0
VERTEX
  5
BB2
  8
OUTLINES
 62
     5
 10
2157.00067139
 20
-428.499206543
 30
0.0
  0
VERTEX
  5
BB3
  8
OUTLINES
 62
     5
 10
2257.00048828
 20
-428.499206543
 30
0.0
  0
VERTEX
  5
BB4
  8
OUTLINES
 62
     5
 10
2257.00048828
 20
-423.498962402
 30
0.0
  0
VERTEX
  5
BB5
  8
OUTLINES
 62
     5
 10
2267.00047302
 20
-423.498962402
 30
0.0
  0
VERTEX
  5
BB6
  8
OUTLINES
 62
     5
 10
2267.00047302
 20
-446.498962402
 30
0.0
  0
VERTEX
  5
BB7
  8
OUTLINES
 62
     5
 10
2447.00010681
 20
-446.498962402
 30
0.0
  0
VERTEX
  5
BB8
  8
OUTLINES
 62
     5
 10
2447.00010681
 20
-423.498962402
 30
0.0
  0
VERTEX
  5
BB9
  8
OUTLINES
 62
     5
 10
2457.00009918
 20
-423.498962402
 30
0.0
  0
VERTEX
  5
BBA
  8
OUTLINES
 62
     5
 10
2457.00009918
 20
-428.499206543
 30
0.0
  0
VERTEX
  5
BBB
  8
OUTLINES
 62
     5
 10
2482.00003815
 20
-428.499206543
 30
0.0
  0
VERTEX
  5
BBC
  8
OUTLINES
 62
     5
 10
2482.00003815
 20
-384.499084473
 30
0.0
  0
VERTEX
  5
BBD
  8
OUTLINES
 62
     5
 10
2477.00004578
 20
-384.499084473
 30
0.0
  0
VERTEX
  5
BBE
  8
OUTLINES
 62
     5
 10
2477.00004578
 20
-374.499206543
 30
0.0
  0
VERTEX
  5
BBF
  8
OUTLINES
 62
     5
 10
2500.0
 20
-374.499206543
 30
0.0
  0
VERTEX
  5
BC0
  8
OUTLINES
 62
     5
 10
2500.0
 20
-344.499206543
 30
0.0
  0
VERTEX
  5
BC1
  8
OUTLINES
 62
     5
 10
2456.00009155
 20
-344.499206543
 30
0.0
  0
VERTEX
  5
BC2
  8
OUTLINES
 62
     5
 10
2456.00009155
 20
-349.499328613
 30
0.0
  0
VERTEX
  5
BC3
  8
OUTLINES
 62
     5
 10
2446.00010681
 20
-349.499328613
 30
0.0
  0
VERTEX
  5
BC4
  8
OUTLINES
 62
     5
 10
2446.00010681
 20
-257.499572754
 30
0.0
  0
VERTEX
  5
BC5
  8
OUTLINES
 62
     5
 10
2456.00009155
 20
-257.499572754
 30
0.0
  0
VERTEX
  5
BC6
  8
OUTLINES
 62
     5
 10
2456.00009155
 20
-262.499450684
 30
0.0
  0
VERTEX
  5
BC7
  8
OUTLINES
 62
     5
 10
2482.00003815
 20
-262.499450684
 30
0.0
  0
VERTEX
  5
BC8
  8
OUTLINES
 62
     5
 10
2482.00003815
 20
-103.499816895
 30
0.0
  0
VERTEX
  5
BC9
  8
OUTLINES
 62
     5
 10
2477.00004578
 20
-103.499816895
 30
0.0
  0
VERTEX
  5
BCA
  8
OUTLINES
 62
     5
 10
2477.00004578
 20
-93.4998168945
 30
0.0
  0
VERTEX
  5
BCB
  8
OUTLINES
 62
     5
 10
2500.0
 20
-93.4998168945
 30
0.0
  0
VERTEX
  5
BCC
  8
OUTLINES
 62
     5
 10
2500.0
 20
86.4998168945
 30
0.0
  0
VERTEX
  5
BCD
  8
OUTLINES
 62
     5
 10
2477.00004578
 20
86.4998168945
 30
0.0
  0
VERTEX
  5
BCE
  8
OUTLINES
 62
     5
 10
2477.00004578
 20
96.4998168945
 30
0.0
  0
VERTEX
  5
BCF
  8
OUTLINES
 62
     5
 10
2482.00003815
 20
96.4998168945
 30
0.0
  0
VERTEX
  5
BD0
  8
OUTLINES
 62
     5
 10
2482.00003815
 20
196.499572754
 30
0.0
  0
VERTEX
  5
BD1
  8
OUTLINES
 62
     5
 10
2477.00004578
 20
196.499572754
 30
0.0
  0
VERTEX
  5
BD2
  8
OUTLINES
 62
     5
 10
2477.00004578
 20
206.499572754
 30
0.0
  0
VERTEX
  5
BD3
  8
OUTLINES
 62
     5
 10
2500.0
 20
206.499572754
 30
0.0
  0
VERTEX
  5
BD4
  8
OUTLINES
 62
     5
 10
2500.0
 20
386.499206543
 30
0.0
  0
VERTEX
  5
BD5
  8
OUTLINES
 62
     5
 10
2477.00004578
 20
386.499206543
 30
0.0
  0
VERTEX
  5
BD6
  8
OUTLINES
 62
     5
 10
2477.00004578
 20
396.499206543
 30
0.0
  0
VERTEX
  5
BD7
  8
OUTLINES
 62
     5
 10
2482.00003815
 20
396.499206543
 30
0.0
  0
VERTEX
  5
BD8
  8
OUTLINES
 62
     5
 10
2482.00003815
 20
446.498962402
 30
0.0
  0
VERTEX
  5
BD9
  8
OUTLINES
 62
     5
 10
2232.00054932
 20
446.498962402
 30
0.0
  0
VERTEX
  5
BDA
  8
OUTLINES
 62
     5
 10
2232.00054932
 20
396.499206543
 30
0.0
  0
VERTEX
  5
BDB
  8
OUTLINES
 62
     5
 10
2237.00054932
 20
396.499206543
 30
0.0
  0
VERTEX
  5
BDC
  8
OUTLINES
 62
     5
 10
2237.00054932
 20
386.499206543
 30
0.0
  0
VERTEX
  5
BDD
  8
OUTLINES
 62
     5
 10
2214.00057983
 20
386.499206543
 30
0.0
  0
VERTEX
  5
BDE
  8
OUTLINES
 62
     5
 10
2214.00057983
 20
206.499572754
 30
0.0
  0
VERTEX
  5
BDF
  8
OUTLINES
 62
     5
 10
2237.00054932
 20
206.499572754
 30
0.0
  0
VERTEX
  5
BE0
  8
OUTLINES
 62
     5
 10
2237.00054932
 20
196.499572754
 30
0.0
  0
VERTEX
  5
BE1
  8
OUTLINES
 62
     5
 10
2232.00054932
 20
196.499572754
 30
0.0
  0
VERTEX
  5
BE2
  8
OUTLINES
 62
     5
 10
2232.00054932
 20
96.4998168945
 30
0.0
  0
VERTEX
  5
BE3
  8
OUTLINES
 62
     5
 10
2237.00054932
 20
96.4998168945
 30
0.0
  0
VERTEX
  5
BE4
  8
OUTLINES
 62
     5
 10
2237.00054932
 20
86.4998168945
 30
0.0
  0
VERTEX
  5
BE5
  8
OUTLINES
 62
     5
 10
2214.00057983
 20
86.4998168945
 30
0.0
  0
VERTEX
  5
BE6
  8
OUTLINES
 62
     5
 10
2214.00057983
 20
-93.4998168945
 30
0.0
  0
VERTEX
  5
BE7
  8
OUTLINES
 62
     5
 10
2237.00054932
 20
-93.4998168945
 30
0.0
  0
VERTEX
  5
BE8
  8
OUTLINES
 62
     5
 10
2237.00054932
 20
-103.499816895
 30
0.0
  0
VERTEX
  5
BE9
  8
OUTLINES
 62
     5
 10
2232.00054932
 20
-103.499816895
 30
0.0
  0
VERTEX
  5
BEA
  8
OUTLINES
 62
     5
 10
2232.00054932
 20
-170.4996948239998
 30
0.0
  0
VERTEX
  5
BEB
  8
OUTLINES
 62
     5
 10
2238.00054932
 20
-170.4996948239999
 30
0.0
  0
VERTEX
  5
BEC
  8
OUTLINES
 62
     5
 10
2238.00054932
 20
-178.4996948239999
 30
0.0
  0
SEQEND
  5
1064
  8
OUTLINES
 62
     5
  0
POLYLINE
  5
B3
  8
CUTS
 62
     4
 66
     1
 10
0.0
 20
0.0
 30
0.0
 70
     1
  0
VERTEX
  5
BED
  8
CUTS
 62
     4
 10
2321.00036621
 20
-17.5000610352
 30
0.0
  0
VERTEX
  5
BEE
  8
CUTS
 62
     4
 10
2321.00036621
 20
10.5000610352
 30
0.0
  0
VERTEX
  5
BEF
  8
CUTS
 62
     4
 10
2331.00033569
 20
10.5000610352
 30
0.0
  0
VERTEX
  5
BF0
  8
CUTS
 62
     4
 10
2331.00033569
 20
5.49993896484
 30
0.0
  0
VERTEX
  5
BF1
  8
CUTS
 62
     4
 10
2383.00023651
 20
5.49993896484
 30
0.0
  0
VERTEX
  5
BF2
  8
CUTS
 62
     4
 10
2383.00023651
 20
10.5000610352
 30
0.0
  0
VERTEX
  5
BF3
  8
CUTS
 62
     4
 10
2393.00021362
 20
10.5000610352
 30
0.0
  0
VERTEX
  5
BF4
  8
CUTS
 62
     4
 10
2393.00021362
 20
-17.5000610352
 30
0.0
  0
VERTEX
  5
BF5
  8
CUTS
 62
     4
 10
2383.00023651
 20
-17.5000610352
 30
0.0
  0
VERTEX
  5
BF6
  8
CUTS
 62
     4
 10
2383.00023651
 20
-12.4999389648
 30
0.0
  0
VERTEX
  5
BF7
  8
CUTS
 62
     4
 10
2331.00033569
 20
-12.4999389648
 30
0.0
  0
VERTEX
  5
BF8
  8
CUTS
 62
     4
 10
2331.00033569
 20
-17.5000610352
 30
0.0
  0
SEQEND
  5
1065
  8
CUTS
 62
     4
  0
POLYLINE
  5
C7
  8
OUTLINES
 62
     5
 66
     1
 10
0.0
 20
0.0
 30
0.0
 70
     1
  0
VERTEX
  5
BF9
  8
OUTLINES
 62
     5
 10
3815.55117798
 20
-1287.81244278
 30
0.0
  0
VERTEX
  5
BFA
  8
OUTLINES
 62
     5
 10
3784.44882202
 20
-1287.81244278
 30
0.0
  0
VERTEX
  5
BFB
  8
OUTLINES
 62
     5
 10
3777.59848022
 20
-1360.18757248
 30
0.0
  0
VERTEX
  5
BFC
  8
OUTLINES
 62
     5
 10
3743.49984741
 20
-1360.18757248
 30
0.0
  0
VERTEX
  5
BFD
  8
OUTLINES
 62
     5
 10
3743.49984741
 20
-1274.81244278
 30
0.0
  0
VERTEX
  5
BFE
  8
OUTLINES
 62
     5
 10
3684.99984741
 20
-1274.81244278
 30
0.0
  0
VERTEX
  5
BFF
  8
OUTLINES
 62
     5
 10
3684.99984741
 20
-1239.81242752
 30
0.0
  0
VERTEX
  5
C00
  8
OUTLINES
 62
     5
 10
3915.00015259
 20
-1239.81242752
 30
0.0
  0
VERTEX
  5
C01
  8
OUTLINES
 62
     5
 10
3915.00015259
 20
-1274.81244278
 30
0.0
  0
VERTEX
  5
C02
  8
OUTLINES
 62
     5
 10
3856.50015259
 20
-1274.81244278
 30
0.0
  0
VERTEX
  5
C03
  8
OUTLINES
 62
     5
 10
3856.50015259
 20
-1360.18757248
 30
0.0
  0
VERTEX
  5
C04
  8
OUTLINES
 62
     5
 10
3822.40151978
 20
-1360.18757248
 30
0.0
  0
SEQEND
  5
1066
  8
OUTLINES
 62
     5
  0
POLYLINE
  5
D5
  8
OUTLINES
 62
     5
 66
     1
 10
0.0
 20
0.0
 30
0.0
 70
     1
  0
VERTEX
  5
C05
  8
OUTLINES
 62
     5
 10
3132.0005248
 20
-245.4961784019999
 30
0.0
  0
VERTEX
  5
C06
  8
OUTLINES
 62
     5
 10
3132.0005248
 20
-178.496666683
 30
0.0
  0
VERTEX
  5
C07
  8
OUTLINES
 62
     5
 10
3137.0005248
 20
-178.496666683
 30
0.0
  0
VERTEX
  5
C08
  8
OUTLINES
 62
     5
 10
3137.0005248
 20
-168.496666683
 30
0.0
  0
VERTEX
  5
C09
  8
OUTLINES
 62
     5
 10
3114.00055532
 20
-168.496666683
 30
0.0
  0
VERTEX
  5
C0A
  8
OUTLINES
 62
     5
 10
3114.00055532
 20
11.5029671063
 30
0.0
  0
VERTEX
  5
C0B
  8
OUTLINES
 62
     5
 10
3137.0005248
 20
11.5029671063
 30
0.0
  0
VERTEX
  5
C0C
  8
OUTLINES
 62
     5
 10
3137.0005248
 20
21.5029671063
 30
0.0
  0
VERTEX
  5
C0D
  8
OUTLINES
 62
     5
 10
3132.0005248
 20
21.5029671063
 30
0.0
  0
VERTEX
  5
C0E
  8
OUTLINES
 62
     5
 10
3132.0005248
 20
71.5028450359
 30
0.0
  0
VERTEX
  5
C0F
  8
OUTLINES
 62
     5
 10
3132.00055531
 20
121.49569012
 30
0.0
  0
VERTEX
  5
C10
  8
OUTLINES
 62
     5
 10
3382.00003842
 20
121.49569012
 30
0.0
  0
VERTEX
  5
C11
  8
OUTLINES
 62
     5
 10
3382.00002698
 20
71.5028450359
 30
0.0
  0
VERTEX
  5
C12
  8
OUTLINES
 62
     5
 10
3382.00002698
 20
21.5029671063
 30
0.0
  0
VERTEX
  5
C13
  8
OUTLINES
 62
     5
 10
3377.00004224
 20
21.5029671063
 30
0.0
  0
VERTEX
  5
C14
  8
OUTLINES
 62
     5
 10
3377.00004224
 20
11.5029671063
 30
0.0
  0
VERTEX
  5
C15
  8
OUTLINES
 62
     5
 10
3399.999994
 20
11.5029671063
 30
0.0
  0
VERTEX
  5
C16
  8
OUTLINES
 62
     5
 10
3399.999994
 20
-168.496666683
 30
0.0
  0
VERTEX
  5
C17
  8
OUTLINES
 62
     5
 10
3377.00004224
 20
-168.496666683
 30
0.0
  0
VERTEX
  5
C18
  8
OUTLINES
 62
     5
 10
3377.00004224
 20
-178.496666683
 30
0.0
  0
VERTEX
  5
C19
  8
OUTLINES
 62
     5
 10
3382.00002698
 20
-178.496666683
 30
0.0
  0
VERTEX
  5
C1A
  8
OUTLINES
 62
     5
 10
3382.00002698
 20
-337.496178402
 30
0.0
  0
VERTEX
  5
C1B
  8
OUTLINES
 62
     5
 10
3356.00008611
 20
-337.496178402
 30
0.0
  0
VERTEX
  5
C1C
  8
OUTLINES
 62
     5
 10
3356.00008611
 20
-332.496056331
 30
0.0
  0
VERTEX
  5
C1D
  8
OUTLINES
 62
     5
 10
3346.00010518
 20
-332.496056331
 30
0.0
  0
VERTEX
  5
C1E
  8
OUTLINES
 62
     5
 10
3346.00010518
 20
-424.495812191
 30
0.0
  0
VERTEX
  5
C1F
  8
OUTLINES
 62
     5
 10
3356.00008611
 20
-424.495812191
 30
0.0
  0
VERTEX
  5
C20
  8
OUTLINES
 62
     5
 10
3356.00008611
 20
-419.495934261
 30
0.0
  0
VERTEX
  5
C21
  8
OUTLINES
 62
     5
 10
3399.999994
 20
-419.495934261
 30
0.0
  0
VERTEX
  5
C22
  8
OUTLINES
 62
     5
 10
3399.999994
 20
-449.495812191
 30
0.0
  0
VERTEX
  5
C23
  8
OUTLINES
 62
     5
 10
3377.00004224
 20
-449.495812191
 30
0.0
  0
VERTEX
  5
C24
  8
OUTLINES
 62
     5
 10
3377.00004224
 20
-459.495812191
 30
0.0
  0
VERTEX
  5
C25
  8
OUTLINES
 62
     5
 10
3382.00002698
 20
-459.495812191
 30
0.0
  0
VERTEX
  5
C26
  8
OUTLINES
 62
     5
 10
3382.00002698
 20
-503.49569012
 30
0.0
  0
VERTEX
  5
C27
  8
OUTLINES
 62
     5
 10
3357.00008229
 20
-503.49569012
 30
0.0
  0
VERTEX
  5
C28
  8
OUTLINES
 62
     5
 10
3357.00008229
 20
-498.49569012
 30
0.0
  0
VERTEX
  5
C29
  8
OUTLINES
 62
     5
 10
3347.00010518
 20
-498.49569012
 30
0.0
  0
VERTEX
  5
C2A
  8
OUTLINES
 62
     5
 10
3347.00010518
 20
-521.49569012
 30
0.0
  0
VERTEX
  5
C2B
  8
OUTLINES
 62
     5
 10
3167.00047902
 20
-521.49569012
 30
0.0
  0
VERTEX
  5
C2C
  8
OUTLINES
 62
     5
 10
3167.00047902
 20
-498.49569012
 30
0.0
  0
VERTEX
  5
C2D
  8
OUTLINES
 62
     5
 10
3157.00049428
 20
-498.49569012
 30
0.0
  0
VERTEX
  5
C2E
  8
OUTLINES
 62
     5
 10
3157.00049428
 20
-503.49569012
 30
0.0
  0
VERTEX
  5
C2F
  8
OUTLINES
 62
     5
 10
3057.0007079
 20
-503.49569012
 30
0.0
  0
VERTEX
  5
C30
  8
OUTLINES
 62
     5
 10
3057.0007079
 20
-498.49569012
 30
0.0
  0
VERTEX
  5
C31
  8
OUTLINES
 62
     5
 10
3047.00073842
 20
-498.49569012
 30
0.0
  0
VERTEX
  5
C32
  8
OUTLINES
 62
     5
 10
3047.00073842
 20
-521.49569012
 30
0.0
  0
VERTEX
  5
C33
  8
OUTLINES
 62
     5
 10
2867.00110463
 20
-521.49569012
 30
0.0
  0
VERTEX
  5
C34
  8
OUTLINES
 62
     5
 10
2867.00110463
 20
-498.49569012
 30
0.0
  0
VERTEX
  5
C35
  8
OUTLINES
 62
     5
 10
2857.00110463
 20
-498.49569012
 30
0.0
  0
VERTEX
  5
C36
  8
OUTLINES
 62
     5
 10
2857.00110463
 20
-503.49569012
 30
0.0
  0
VERTEX
  5
C37
  8
OUTLINES
 62
     5
 10
2807.0012267
 20
-503.49544598
 30
0.0
  0
VERTEX
  5
C38
  8
OUTLINES
 62
     5
 10
2800.000006
 20
-503.49544598
 30
0.0
  0
VERTEX
  5
C39
  8
OUTLINES
 62
     5
 10
2800.000006
 20
-253.495934261
 30
0.0
  0
VERTEX
  5
C3A
  8
OUTLINES
 62
     5
 10
2807.0012267
 20
-253.495934261
 30
0.0
  0
VERTEX
  5
C3B
  8
OUTLINES
 62
     5
 10
2857.00110463
 20
-253.496178402
 30
0.0
  0
VERTEX
  5
C3C
  8
OUTLINES
 62
     5
 10
2857.00110463
 20
-258.496300472
 30
0.0
  0
VERTEX
  5
C3D
  8
OUTLINES
 62
     5
 10
2867.00110463
 20
-258.496300472
 30
0.0
  0
VERTEX
  5
C3E
  8
OUTLINES
 62
     5
 10
2867.00110463
 20
-235.496422542
 30
0.0
  0
VERTEX
  5
C3F
  8
OUTLINES
 62
     5
 10
3047.00073842
 20
-235.496422542
 30
0.0
  0
VERTEX
  5
C40
  8
OUTLINES
 62
     5
 10
3047.00073842
 20
-258.496300472
 30
0.0
  0
VERTEX
  5
C41
  8
OUTLINES
 62
     5
 10
3057.0007079
 20
-258.496300472
 30
0.0
  0
VERTEX
  5
C42
  8
OUTLINES
 62
     5
 10
3057.0007079
 20
-253.496178402
 30
0.0
  0
VERTEX
  5
C43
  8
OUTLINES
 62
     5
 10
3132.0005248
 20
-253.496178402
 30
0.0
  0
VERTEX
  5
C44
  8
OUTLINES
 62
     5
 10
3138.0005248
 20
-253.4961784019999
 30
0.0
  0
VERTEX
  5
C45
  8
OUTLINES
 62
     5
 10
3138.0005248
 20
-245.4961784019999
 30
0.0
  0
SEQEND
  5
1067
  8
OUTLINES
 62
     5
  0
POLYLINE
  5
127
  8
CUTS
 62
     4
 66
     1
 10
0.0
 20
0.0
 30
0.0
 70
     1
  0
VERTEX
  5
C46
  8
CUTS
 62
     4
 10
3271.00025014
 20
-342.495934261
 30
0.0
  0
VERTEX
  5
C47
  8
CUTS
 62
     4
 10
3243.00031118
 20
-342.495934261
 30
0.0
  0
VERTEX
  5
C48
  8
CUTS
 62
     4
 10
3243.00031118
 20
-352.495934261
 30
0.0
  0
VERTEX
  5
C49
  8
CUTS
 62
     4
 10
3248.00029592
 20
-352.495934261
 30
0.0
  0
VERTEX
  5
C4A
  8
CUTS
 62
     4
 10
3248.00029592
 20
-404.495934261
 30
0.0
  0
VERTEX
  5
C4B
  8
CUTS
 62
     4
 10
3243.00031118
 20
-404.495934261
 30
0.0
  0
VERTEX
  5
C4C
  8
CUTS
 62
     4
 10
3243.00031118
 20
-414.495812191
 30
0.0
  0
VERTEX
  5
C4D
  8
CUTS
 62
     4
 10
3271.00025014
 20
-414.495812191
 30
0.0
  0
VERTEX
  5
C4E
  8
CUTS
 62
     4
 10
3271.00025014
 20
-404.495934261
 30
0.0
  0
VERTEX
  5
C4F
  8
CUTS
 62
     4
 10
3266.0002654
 20
-404.495934261
 30
0.0
  0
VERTEX
  5
C50
  8
CUTS
 62
     4
 10
3266.0002654
 20
-352.495934261
 30
0.0
  0
VERTEX
  5
C51
  8
CUTS
 62
     4
 10
3271.00025014
 20
-352.495934261
 30
0.0
  0
SEQEND
  5
1068
  8
CUTS
 62
     4
  0
POLYLINE
  5
13B
  8
CUTS
 62
     4
 66
     1
 10
0.0
 20
0.0
 30
0.0
 70
     1
  0
VERTEX
  5
C52
  8
CUTS
 62
     4
 10
3293.00021962
 20
-64.4967887531
 30
0.0
  0
VERTEX
  5
C53
  8
CUTS
 62
     4
 10
3283.00023488
 20
-64.4967887531
 30
0.0
  0
VERTEX
  5
C54
  8
CUTS
 62
     4
 10
3283.00023488
 20
-69.4969108234
 30
0.0
  0
VERTEX
  5
C55
  8
CUTS
 62
     4
 10
3231.00034169
 20
-69.4969108234
 30
0.0
  0
VERTEX
  5
C56
  8
CUTS
 62
     4
 10
3231.00034169
 20
-64.4967887531
 30
0.0
  0
VERTEX
  5
C57
  8
CUTS
 62
     4
 10
3221.00035695
 20
-64.4967887531
 30
0.0
  0
VERTEX
  5
C58
  8
CUTS
 62
     4
 10
3221.00035695
 20
-92.4967887531
 30
0.0
  0
VERTEX
  5
C59
  8
CUTS
 62
     4
 10
3231.00034169
 20
-92.4967887531
 30
0.0
  0
VERTEX
  5
C5A
  8
CUTS
 62
     4
 10
3231.00034169
 20
-87.4967887531
 30
0.0
  0
VERTEX
  5
C5B
  8
CUTS
 62
     4
 10
3283.00023488
 20
-87.4967887531
 30
0.0
  0
VERTEX
  5
C5C
  8
CUTS
 62
     4
 10
3283.00023488
 20
-92.4967887531
 30
0.0
  0
VERTEX
  5
C5D
  8
CUTS
 62
     4
 10
3293.00021962
 20
-92.4967887531
 30
0.0
  0
SEQEND
  5
1069
  8
CUTS
 62
     4
  0
POLYLINE
  5
155
  8
OUTLINES
 62
     5
 66
     1
 10
0.0
 20
0.0
 30
0.0
 70
     1
  0
VERTEX
  5
C5E
  8
OUTLINES
 62
     5
 10
3225.00085449
 20
-666.000305176
 30
0.0
  0
VERTEX
  5
C5F
  8
OUTLINES
 62
     5
 10
3449.99902344
 20
-666.000305176
 30
0.0
  0
VERTEX
  5
C60
  8
OUTLINES
 62
     5
 10
3449.99902344
 20
-915.999694824
 30
0.0
  0
VERTEX
  5
C61
  8
OUTLINES
 62
     5
 10
3265.00073242
 20
-915.999694824
 30
0.0
  0
VERTEX
  5
C62
  8
OUTLINES
 62
     5
 10
3265.00073242
 20
-910.999694824
 30
0.0
  0
VERTEX
  5
C63
  8
OUTLINES
 62
     5
 10
3255.00076294
 20
-910.999694824
 30
0.0
  0
VERTEX
  5
C64
  8
OUTLINES
 62
     5
 10
3255.00076294
 20
-933.999694824
 30
0.0
  0
VERTEX
  5
C65
  8
OUTLINES
 62
     5
 10
3225.00085449
 20
-933.999694824
 30
0.0
  0
VERTEX
  5
C66
  8
OUTLINES
 62
     5
 10
3225.00085449
 20
-836.999938965
 30
0.0
  0
VERTEX
  5
C67
  8
OUTLINES
 62
     5
 10
3230.00079346
 20
-836.999938965
 30
0.0
  0
VERTEX
  5
C68
  8
OUTLINES
 62
     5
 10
3230.00079346
 20
-826.999938965
 30
0.0
  0
VERTEX
  5
C69
  8
OUTLINES
 62
     5
 10
3150.00097656
 20
-826.999938965
 30
0.0
  0
VERTEX
  5
C6A
  8
OUTLINES
 62
     5
 10
3150.00097656
 20
-755.000183105
 30
0.0
  0
VERTEX
  5
C6B
  8
OUTLINES
 62
     5
 10
3230.00079346
 20
-755.000183105
 30
0.0
  0
VERTEX
  5
C6C
  8
OUTLINES
 62
     5
 10
3230.00079346
 20
-745.000183105
 30
0.0
  0
VERTEX
  5
C6D
  8
OUTLINES
 62
     5
 10
3225.00085449
 20
-745.000183105
 30
0.0
  0
SEQEND
  5
106A
  8
OUTLINES
 62
     5
  0
POLYLINE
  5
167
  8
CUTS
 62
     4
 66
     1
 10
0.0
 20
0.0
 30
0.0
 70
     1
  0
VERTEX
  5
C6E
  8
CUTS
 62
     4
 10
3197.00085449
 20
-800.000061035
 30
0.0
  0
VERTEX
  5
C6F
  8
CUTS
 62
     4
 10
3197.00085449
 20
-805.000061035
 30
0.0
  0
VERTEX
  5
C70
  8
CUTS
 62
     4
 10
3207.00085449
 20
-805.000061035
 30
0.0
  0
VERTEX
  5
C71
  8
CUTS
 62
     4
 10
3207.00085449
 20
-777.000061035
 30
0.0
  0
VERTEX
  5
C72
  8
CUTS
 62
     4
 10
3197.00085449
 20
-777.000061035
 30
0.0
  0
VERTEX
  5
C73
  8
CUTS
 62
     4
 10
3197.00085449
 20
-782.000061035
 30
0.0
  0
VERTEX
  5
C74
  8
CUTS
 62
     4
 10
3178.00091553
 20
-782.000061035
 30
0.0
  0
VERTEX
  5
C75
  8
CUTS
 62
     4
 10
3178.00091553
 20
-777.000061035
 30
0.0
  0
VERTEX
  5
C76
  8
CUTS
 62
     4
 10
3168.00091553
 20
-777.000061035
 30
0.0
  0
VERTEX
  5
C77
  8
CUTS
 62
     4
 10
3168.00091553
 20
-805.000061035
 30
0.0
  0
VERTEX
  5
C78
  8
CUTS
 62
     4
 10
3178.00091553
 20
-805.000061035
 30
0.0
  0
VERTEX
  5
C79
  8
CUTS
 62
     4
 10
3178.00091553
 20
-800.000061035
 30
0.0
  0
SEQEND
  5
106B
  8
CUTS
 62
     4
  0
POLYLINE
  5
175
  8
OUTLINES
 62
     5
 66
     1
 10
0.0
 20
0.0
 30
0.0
 70
     1
  0
VERTEX
  5
C7A
  8
OUTLINES
 62
     5
 10
2624.99975586
 20
-870.50443195
 30
0.0
  0
VERTEX
  5
C7B
  8
OUTLINES
 62
     5
 10
2375.00024414
 20
-870.50443195
 30
0.0
  0
VERTEX
  5
C7C
  8
OUTLINES
 62
     5
 10
2375.00024414
 20
-1329.49556805
 30
0.0
  0
VERTEX
  5
C7D
  8
OUTLINES
 62
     5
 10
2624.99975586
 20
-1329.49556805
 30
0.0
  0
SEQEND
  5
106C
  8
OUTLINES
 62
     5
  0
POLYLINE
  5
17B
  8
CUTS
 62
     4
 66
     1
 10
0.0
 20
0.0
 30
0.0
 70
     1
  0
VERTEX
  5
C7E
  8
CUTS
 62
     4
 10
2533.99993896
 20
-990.496300472
 30
0.0
  0
VERTEX
  5
C7F
  8
CUTS
 62
     4
 10
2533.99993896
 20
-980.496300472
 30
0.0
  0
VERTEX
  5
C80
  8
CUTS
 62
     4
 10
2579.99981689
 20
-980.496300472
 30
0.0
  0
VERTEX
  5
C81
  8
CUTS
 62
     4
 10
2579.99981689
 20
-990.496300472
 30
0.0
  0
VERTEX
  5
C82
  8
CUTS
 62
     4
 10
2574.99987793
 20
-990.496300472
 30
0.0
  0
VERTEX
  5
C83
  8
CUTS
 62
     4
 10
2574.99987793
 20
-1150.49593426
 30
0.0
  0
VERTEX
  5
C84
  8
CUTS
 62
     4
 10
2579.99981689
 20
-1150.49593426
 30
0.0
  0
VERTEX
  5
C85
  8
CUTS
 62
     4
 10
2579.99981689
 20
-1160.49593426
 30
0.0
  0
VERTEX
  5
C86
  8
CUTS
 62
     4
 10
2533.99993896
 20
-1160.49593426
 30
0.0
  0
VERTEX
  5
C87
  8
CUTS
 62
     4
 10
2533.99993896
 20
-1150.49593426
 30
0.0
  0
VERTEX
  5
C88
  8
CUTS
 62
     4
 10
2538.99993896
 20
-1150.49593426
 30
0.0
  0
VERTEX
  5
C89
  8
CUTS
 62
     4
 10
2538.99993896
 20
-990.496300472
 30
0.0
  0
SEQEND
  5
106D
  8
CUTS
 62
     4
  0
POLYLINE
  5
189
  8
CUTS
 62
     4
 66
     1
 10
0.0
 20
0.0
 30
0.0
 70
     1
  0
VERTEX
  5
C8A
  8
CUTS
 62
     4
 10
2466.00006104
 20
-990.496300472
 30
0.0
  0
VERTEX
  5
C8B
  8
CUTS
 62
     4
 10
2461.00006104
 20
-990.496300472
 30
0.0
  0
VERTEX
  5
C8C
  8
CUTS
 62
     4
 10
2461.00006104
 20
-1150.49593426
 30
0.0
  0
VERTEX
  5
C8D
  8
CUTS
 62
     4
 10
2466.00006104
 20
-1150.49593426
 30
0.0
  0
VERTEX
  5
C8E
  8
CUTS
 62
     4
 10
2466.00006104
 20
-1160.49593426
 30
0.0
  0
VERTEX
  5
C8F
  8
CUTS
 62
     4
 10
2420.00018311
 20
-1160.49593426
 30
0.0
  0
VERTEX
  5
C90
  8
CUTS
 62
     4
 10
2420.00018311
 20
-1150.49593426
 30
0.0
  0
VERTEX
  5
C91
  8
CUTS
 62
     4
 10
2425.00012207
 20
-1150.49593426
 30
0.0
  0
VERTEX
  5
C92
  8
CUTS
 62
     4
 10
2425.00012207
 20
-990.496300472
 30
0.0
  0
VERTEX
  5
C93
  8
CUTS
 62
     4
 10
2420.00018311
 20
-990.496300472
 30
0.0
  0
VERTEX
  5
C94
  8
CUTS
 62
     4
 10
2420.00018311
 20
-980.496300472
 30
0.0
  0
VERTEX
  5
C95
  8
CUTS
 62
     4
 10
2466.00006104
 20
-980.496300472
 30
0.0
  0
SEQEND
  5
106E
  8
CUTS
 62
     4
  0
POLYLINE
  5
197
  8
OUTLINES
 62
     5
 66
     1
 10
0.0
 20
0.0
 30
0.0
 70
     1
  0
VERTEX
  5
C96
  8
OUTLINES
 62
     5
 10
3738.99993896
 20
-285.996483577
 30
0.0
  0
VERTEX
  5
C97
  8
OUTLINES
 62
     5
 10
3733.99993896
 20
-285.996483577
 30
0.0
  0
VERTEX
  5
C98
  8
OUTLINES
 62
     5
 10
3733.99993896
 20
-295.996483577
 30
0.0
  0
VERTEX
  5
C99
  8
OUTLINES
 62
     5
 10
3771.99987793
 20
-295.996483577
 30
0.0
  0
VERTEX
  5
C9A
  8
OUTLINES
 62
     5
 10
3774.99981689
 20
-298.996483577
 30
0.0
  0
VERTEX
  5
C9B
  8
OUTLINES
 62
     5
 10
3774.99981689
 20
-352.996483577
 30
0.0
  0
VERTEX
  5
C9C
  8
OUTLINES
 62
     5
 10
3771.99987793
 20
-355.996483577
 30
0.0
  0
VERTEX
  5
C9D
  8
OUTLINES
 62
     5
 10
3733.99993896
 20
-355.996483577
 30
0.0
  0
VERTEX
  5
C9E
  8
OUTLINES
 62
     5
 10
3733.99993896
 20
-365.996361507
 30
0.0
  0
VERTEX
  5
C9F
  8
OUTLINES
 62
     5
 10
3738.99993896
 20
-365.996361507
 30
0.0
  0
VERTEX
  5
CA0
  8
OUTLINES
 62
     5
 10
3738.99993896
 20
-473.996239437
 30
0.0
  0
VERTEX
  5
CA1
  8
OUTLINES
 62
     5
 10
3661.00006104
 20
-473.996239437
 30
0.0
  0
VERTEX
  5
CA2
  8
OUTLINES
 62
     5
 10
3661.00006104
 20
-365.996361507
 30
0.0
  0
VERTEX
  5
CA3
  8
OUTLINES
 62
     5
 10
3666.00006104
 20
-365.996361507
 30
0.0
  0
VERTEX
  5
CA4
  8
OUTLINES
 62
     5
 10
3666.00006104
 20
-355.996483577
 30
0.0
  0
VERTEX
  5
CA5
  8
OUTLINES
 62
     5
 10
3628.00012207
 20
-355.996483577
 30
0.0
  0
VERTEX
  5
CA6
  8
OUTLINES
 62
     5
 10
3625.00018311
 20
-352.996483577
 30
0.0
  0
VERTEX
  5
CA7
  8
OUTLINES
 62
     5
 10
3625.00018311
 20
-298.996483577
 30
0.0
  0
VERTEX
  5
CA8
  8
OUTLINES
 62
     5
 10
3628.00012207
 20
-295.996483577
 30
0.0
  0
VERTEX
  5
CA9
  8
OUTLINES
 62
     5
 10
3666.00006104
 20
-295.996483577
 30
0.0
  0
VERTEX
  5
CAA
  8
OUTLINES
 62
     5
 10
3666.00006104
 20
-285.996483577
 30
0.0
  0
VERTEX
  5
CAB
  8
OUTLINES
 62
     5
 10
3661.00006104
 20
-285.996483577
 30
0.0
  0
VERTEX
  5
CAC
  8
OUTLINES
 62
     5
 10
3661.00006104
 20
-126.003760563
 30
0.0
  0
VERTEX
  5
CAD
  8
OUTLINES
 62
     5
 10
3738.99993896
 20
-126.003760563
 30
0.0
  0
SEQEND
  5
106F
  8
OUTLINES
 62
     5
  0
POLYLINE
  5
1B1
  8
OUTLINES
 62
     5
 66
     1
 10
0.0
 20
0.0
 30
0.0
 70
     1
  0
VERTEX
  5
CAE
  8
OUTLINES
 62
     5
 10
832.000518799
 20
-191.874389648
 30
0.0
  0
VERTEX
  5
CAF
  8
OUTLINES
 62
     5
 10
832.000518799
 20
-124.87487793
 30
0.0
  0
VERTEX
  5
CB0
  8
OUTLINES
 62
     5
 10
837.000518799
 20
-124.87487793
 30
0.0
  0
VERTEX
  5
CB1
  8
OUTLINES
 62
     5
 10
837.000518799
 20
-114.87487793
 30
0.0
  0
VERTEX
  5
CB2
  8
OUTLINES
 62
     5
 10
814.000549316
 20
-114.87487793
 30
0.0
  0
VERTEX
  5
CB3
  8
OUTLINES
 62
     5
 10
814.000549316
 20
65.1247558594
 30
0.0
  0
VERTEX
  5
CB4
  8
OUTLINES
 62
     5
 10
837.000518799
 20
65.1247558594
 30
0.0
  0
VERTEX
  5
CB5
  8
OUTLINES
 62
     5
 10
837.000518799
 20
75.1247558594
 30
0.0
  0
VERTEX
  5
CB6
  8
OUTLINES
 62
     5
 10
832.000518799
 20
75.1247558594
 30
0.0
  0
VERTEX
  5
CB7
  8
OUTLINES
 62
     5
 10
832.000518799
 20
125.124633789
 30
0.0
  0
VERTEX
  5
CB8
  8
OUTLINES
 62
     5
 10
832.000549316
 20
175.124389648
 30
0.0
  0
VERTEX
  5
CB9
  8
OUTLINES
 62
     5
 10
837.000518799
 20
175.124389648
 30
0.0
  0
VERTEX
  5
CBA
  8
OUTLINES
 62
     5
 10
837.000518799
 20
185.124389648
 30
0.0
  0
VERTEX
  5
CBB
  8
OUTLINES
 62
     5
 10
814.000579834
 20
185.124389648
 30
0.0
  0
VERTEX
  5
CBC
  8
OUTLINES
 62
     5
 10
814.000579834
 20
365.124023438
 30
0.0
  0
VERTEX
  5
CBD
  8
OUTLINES
 62
     5
 10
837.000518799
 20
365.124023438
 30
0.0
  0
VERTEX
  5
CBE
  8
OUTLINES
 62
     5
 10
837.000518799
 20
375.124023438
 30
0.0
  0
VERTEX
  5
CBF
  8
OUTLINES
 62
     5
 10
832.000549316
 20
375.124023438
 30
0.0
  0
VERTEX
  5
CC0
  8
OUTLINES
 62
     5
 10
832.000549316
 20
467.873901367
 30
0.0
  0
VERTEX
  5
CC1
  8
OUTLINES
 62
     5
 10
872.250457764
 20
467.873901367
 30
0.0
  0
VERTEX
  5
CC2
  8
OUTLINES
 62
     5
 10
875.931381226
 20
467.17175293
 30
0.0
  0
VERTEX
  5
CC3
  8
OUTLINES
 62
     5
 10
879.321517944
 20
464.944946289
 30
0.0
  0
VERTEX
  5
CC4
  8
OUTLINES
 62
     5
 10
881.548324585
 20
461.55480957
 30
0.0
  0
VERTEX
  5
CC5
  8
OUTLINES
 62
     5
 10
882.250427246
 20
457.873901367
 30
0.0
  0
VERTEX
  5
CC6
  8
OUTLINES
 62
     5
 10
882.250427246
 20
392.874023438
 30
0.0
  0
VERTEX
  5
CC7
  8
OUTLINES
 62
     5
 10
882.952575684
 20
389.193115234
 30
0.0
  0
VERTEX
  5
CC8
  8
OUTLINES
 62
     5
 10
885.179367065
 20
385.803100586
 30
0.0
  0
VERTEX
  5
CC9
  8
OUTLINES
 62
     5
 10
888.569503784
 20
383.576293945
 30
0.0
  0
VERTEX
  5
CCA
  8
OUTLINES
 62
     5
 10
892.250427246
 20
382.874023438
 30
0.0
  0
VERTEX
  5
CCB
  8
OUTLINES
 62
     5
 10
921.750366211
 20
382.874023438
 30
0.0
  0
VERTEX
  5
CCC
  8
OUTLINES
 62
     5
 10
925.431289673
 20
383.576293945
 30
0.0
  0
VERTEX
  5
CCD
  8
OUTLINES
 62
     5
 10
928.821395874
 20
385.803100586
 30
0.0
  0
VERTEX
  5
CCE
  8
OUTLINES
 62
     5
 10
931.048217773
 20
389.193115234
 30
0.0
  0
VERTEX
  5
CCF
  8
OUTLINES
 62
     5
 10
931.750320435
 20
392.874023438
 30
0.0
  0
VERTEX
  5
CD0
  8
OUTLINES
 62
     5
 10
931.750320435
 20
457.873901367
 30
0.0
  0
VERTEX
  5
CD1
  8
OUTLINES
 62
     5
 10
932.452468872
 20
461.55480957
 30
0.0
  0
VERTEX
  5
CD2
  8
OUTLINES
 62
     5
 10
934.679275513
 20
464.944946289
 30
0.0
  0
VERTEX
  5
CD3
  8
OUTLINES
 62
     5
 10
938.069396973
 20
467.17175293
 30
0.0
  0
VERTEX
  5
CD4
  8
OUTLINES
 62
     5
 10
941.750305176
 20
467.873901367
 30
0.0
  0
VERTEX
  5
CD5
  8
OUTLINES
 62
     5
 10
972.250267029
 20
467.873901367
 30
0.0
  0
VERTEX
  5
CD6
  8
OUTLINES
 62
     5
 10
975.931182861
 20
467.17175293
 30
0.0
  0
VERTEX
  5
CD7
  8
OUTLINES
 62
     5
 10
979.321296692
 20
464.944946289
 30
0.0
  0
VERTEX
  5
CD8
  8
OUTLINES
 62
     5
 10
981.548126221
 20
461.55480957
 30
0.0
  0
VERTEX
  5
CD9
  8
OUTLINES
 62
     5
 10
982.25025177
 20
457.873901367
 30
0.0
  0
VERTEX
  5
CDA
  8
OUTLINES
 62
     5
 10
982.25025177
 20
392.874023438
 30
0.0
  0
VERTEX
  5
CDB
  8
OUTLINES
 62
     5
 10
982.952362061
 20
389.193115234
 30
0.0
  0
VERTEX
  5
CDC
  8
OUTLINES
 62
     5
 10
985.179176331
 20
385.803100586
 30
0.0
  0
VERTEX
  5
CDD
  8
OUTLINES
 62
     5
 10
988.569290161
 20
383.576293945
 30
0.0
  0
VERTEX
  5
CDE
  8
OUTLINES
 62
     5
 10
992.250205994
 20
382.874023438
 30
0.0
  0
VERTEX
  5
CDF
  8
OUTLINES
 62
     5
 10
1021.75014496
 20
382.874023438
 30
0.0
  0
VERTEX
  5
CE0
  8
OUTLINES
 62
     5
 10
1025.43108368
 20
383.576293945
 30
0.0
  0
VERTEX
  5
CE1
  8
OUTLINES
 62
     5
 10
1028.82119751
 20
385.803100586
 30
0.0
  0
VERTEX
  5
CE2
  8
OUTLINES
 62
     5
 10
1031.04801941
 20
389.193115234
 30
0.0
  0
VERTEX
  5
CE3
  8
OUTLINES
 62
     5
 10
1031.75015259
 20
392.874023438
 30
0.0
  0
VERTEX
  5
CE4
  8
OUTLINES
 62
     5
 10
1031.75015259
 20
457.873901367
 30
0.0
  0
VERTEX
  5
CE5
  8
OUTLINES
 62
     5
 10
1032.45225525
 20
461.55480957
 30
0.0
  0
VERTEX
  5
CE6
  8
OUTLINES
 62
     5
 10
1034.67907715
 20
464.944946289
 30
0.0
  0
VERTEX
  5
CE7
  8
OUTLINES
 62
     5
 10
1038.06918716
 20
467.17175293
 30
0.0
  0
VERTEX
  5
CE8
  8
OUTLINES
 62
     5
 10
1041.750103
 20
467.873901367
 30
0.0
  0
VERTEX
  5
CE9
  8
OUTLINES
 62
     5
 10
1082.00003242
 20
467.873901367
 30
0.0
  0
VERTEX
  5
CEA
  8
OUTLINES
 62
     5
 10
1082.00003242
 20
375.124023438
 30
0.0
  0
VERTEX
  5
CEB
  8
OUTLINES
 62
     5
 10
1077.00004959
 20
375.124023438
 30
0.0
  0
VERTEX
  5
CEC
  8
OUTLINES
 62
     5
 10
1077.00004959
 20
365.124023438
 30
0.0
  0
VERTEX
  5
CED
  8
OUTLINES
 62
     5
 10
1100.0
 20
365.124023438
 30
0.0
  0
VERTEX
  5
CEE
  8
OUTLINES
 62
     5
 10
1100.0
 20
185.124389648
 30
0.0
  0
VERTEX
  5
CEF
  8
OUTLINES
 62
     5
 10
1077.00004959
 20
185.124389648
 30
0.0
  0
VERTEX
  5
CF0
  8
OUTLINES
 62
     5
 10
1077.00004959
 20
175.124389648
 30
0.0
  0
VERTEX
  5
CF1
  8
OUTLINES
 62
     5
 10
1082.00003242
 20
175.124389648
 30
0.0
  0
VERTEX
  5
CF2
  8
OUTLINES
 62
     5
 10
1082.00002098
 20
125.124633789
 30
0.0
  0
VERTEX
  5
CF3
  8
OUTLINES
 62
     5
 10
1082.00002098
 20
75.1247558594
 30
0.0
  0
VERTEX
  5
CF4
  8
OUTLINES
 62
     5
 10
1077.00003624
 20
75.1247558594
 30
0.0
  0
VERTEX
  5
CF5
  8
OUTLINES
 62
     5
 10
1077.00003624
 20
65.1247558594
 30
0.0
  0
VERTEX
  5
CF6
  8
OUTLINES
 62
     5
 10
1099.999988
 20
65.1247558594
 30
0.0
  0
VERTEX
  5
CF7
  8
OUTLINES
 62
     5
 10
1099.999988
 20
-114.87487793
 30
0.0
  0
VERTEX
  5
CF8
  8
OUTLINES
 62
     5
 10
1077.00003624
 20
-114.87487793
 30
0.0
  0
VERTEX
  5
CF9
  8
OUTLINES
 62
     5
 10
1077.00003624
 20
-124.87487793
 30
0.0
  0
VERTEX
  5
CFA
  8
OUTLINES
 62
     5
 10
1082.00002098
 20
-124.87487793
 30
0.0
  0
VERTEX
  5
CFB
  8
OUTLINES
 62
     5
 10
1082.00002098
 20
-283.874389648
 30
0.0
  0
VERTEX
  5
CFC
  8
OUTLINES
 62
     5
 10
1056.00008011
 20
-283.874389648
 30
0.0
  0
VERTEX
  5
CFD
  8
OUTLINES
 62
     5
 10
1056.00008011
 20
-278.874267578
 30
0.0
  0
VERTEX
  5
CFE
  8
OUTLINES
 62
     5
 10
1046.00009918
 20
-278.874267578
 30
0.0
  0
VERTEX
  5
CFF
  8
OUTLINES
 62
     5
 10
1046.00009918
 20
-370.874023438
 30
0.0
  0
VERTEX
  5
D00
  8
OUTLINES
 62
     5
 10
1056.00008011
 20
-370.874023438
 30
0.0
  0
VERTEX
  5
D01
  8
OUTLINES
 62
     5
 10
1056.00008011
 20
-365.874145508
 30
0.0
  0
VERTEX
  5
D02
  8
OUTLINES
 62
     5
 10
1099.999988
 20
-365.874145508
 30
0.0
  0
VERTEX
  5
D03
  8
OUTLINES
 62
     5
 10
1099.999988
 20
-395.874023438
 30
0.0
  0
VERTEX
  5
D04
  8
OUTLINES
 62
     5
 10
1077.00003624
 20
-395.874023438
 30
0.0
  0
VERTEX
  5
D05
  8
OUTLINES
 62
     5
 10
1077.00003624
 20
-405.874023438
 30
0.0
  0
VERTEX
  5
D06
  8
OUTLINES
 62
     5
 10
1082.00002098
 20
-405.874023438
 30
0.0
  0
VERTEX
  5
D07
  8
OUTLINES
 62
     5
 10
1082.00002098
 20
-449.873901367
 30
0.0
  0
VERTEX
  5
D08
  8
OUTLINES
 62
     5
 10
1057.00007629
 20
-449.873901367
 30
0.0
  0
VERTEX
  5
D09
  8
OUTLINES
 62
     5
 10
1057.00007629
 20
-444.873901367
 30
0.0
  0
VERTEX
  5
D0A
  8
OUTLINES
 62
     5
 10
1047.00009918
 20
-444.873901367
 30
0.0
  0
VERTEX
  5
D0B
  8
OUTLINES
 62
     5
 10
1047.00009918
 20
-467.873901367
 30
0.0
  0
VERTEX
  5
D0C
  8
OUTLINES
 62
     5
 10
867.000473022
 20
-467.873901367
 30
0.0
  0
VERTEX
  5
D0D
  8
OUTLINES
 62
     5
 10
867.000473022
 20
-444.873901367
 30
0.0
  0
VERTEX
  5
D0E
  8
OUTLINES
 62
     5
 10
857.000488281
 20
-444.873901367
 30
0.0
  0
VERTEX
  5
D0F
  8
OUTLINES
 62
     5
 10
857.000488281
 20
-449.873901367
 30
0.0
  0
VERTEX
  5
D10
  8
OUTLINES
 62
     5
 10
757.000701904
 20
-449.873901367
 30
0.0
  0
VERTEX
  5
D11
  8
OUTLINES
 62
     5
 10
757.000701904
 20
-444.873901367
 30
0.0
  0
VERTEX
  5
D12
  8
OUTLINES
 62
     5
 10
747.000732422
 20
-444.873901367
 30
0.0
  0
VERTEX
  5
D13
  8
OUTLINES
 62
     5
 10
747.000732422
 20
-467.873901367
 30
0.0
  0
VERTEX
  5
D14
  8
OUTLINES
 62
     5
 10
567.001098633
 20
-467.873901367
 30
0.0
  0
VERTEX
  5
D15
  8
OUTLINES
 62
     5
 10
567.001098633
 20
-444.873901367
 30
0.0
  0
VERTEX
  5
D16
  8
OUTLINES
 62
     5
 10
557.001098633
 20
-444.873901367
 30
0.0
  0
VERTEX
  5
D17
  8
OUTLINES
 62
     5
 10
557.001098633
 20
-449.873901367
 30
0.0
  0
VERTEX
  5
D18
  8
OUTLINES
 62
     5
 10
507.001220703
 20
-449.873657227
 30
0.0
  0
VERTEX
  5
D19
  8
OUTLINES
 62
     5
 10
500.0
 20
-449.873657227
 30
0.0
  0
VERTEX
  5
D1A
  8
OUTLINES
 62
     5
 10
500.0
 20
-199.874145508
 30
0.0
  0
VERTEX
  5
D1B
  8
OUTLINES
 62
     5
 10
507.001220703
 20
-199.874145508
 30
0.0
  0
VERTEX
  5
D1C
  8
OUTLINES
 62
     5
 10
557.001098633
 20
-199.874389648
 30
0.0
  0
VERTEX
  5
D1D
  8
OUTLINES
 62
     5
 10
557.001098633
 20
-204.874511719
 30
0.0
  0
VERTEX
  5
D1E
  8
OUTLINES
 62
     5
 10
567.001098633
 20
-204.874511719
 30
0.0
  0
VERTEX
  5
D1F
  8
OUTLINES
 62
     5
 10
567.001098633
 20
-181.874633789
 30
0.0
  0
VERTEX
  5
D20
  8
OUTLINES
 62
     5
 10
747.000732422
 20
-181.874633789
 30
0.0
  0
VERTEX
  5
D21
  8
OUTLINES
 62
     5
 10
747.000732422
 20
-204.874511719
 30
0.0
  0
VERTEX
  5
D22
  8
OUTLINES
 62
     5
 10
757.000701904
 20
-204.874511719
 30
0.0
  0
VERTEX
  5
D23
  8
OUTLINES
 62
     5
 10
757.000701904
 20
-199.874389648
 30
0.0
  0
VERTEX
  5
D24
  8
OUTLINES
 62
     5
 10
832.000518799
 20
-199.874389648
 30
0.0
  0
VERTEX
  5
D25
  8
OUTLINES
 62
     5
 10
838.000518799
 20
-199.8743896479999
 30
0.0
  0
VERTEX
  5
D26
  8
OUTLINES
 62
     5
 10
838.000518799
 20
-191.8743896479999
 30
0.0
  0
SEQEND
  5
1070
  8
OUTLINES
 62
     5
  0
POLYLINE
  5
241
  8
CUTS
 62
     4
 66
     1
 10
0.0
 20
0.0
 30
0.0
 70
     1
  0
VERTEX
  5
D27
  8
CUTS
 62
     4
 10
993.000213623
 20
-10.875
 30
0.0
  0
VERTEX
  5
D28
  8
CUTS
 62
     4
 10
983.000228882
 20
-10.875
 30
0.0
  0
VERTEX
  5
D29
  8
CUTS
 62
     4
 10
983.000228882
 20
-15.8751220703
 30
0.0
  0
VERTEX
  5
D2A
  8
CUTS
 62
     4
 10
931.000335693
 20
-15.8751220703
 30
0.0
  0
VERTEX
  5
D2B
  8
CUTS
 62
     4
 10
931.000335693
 20
-10.875
 30
0.0
  0
VERTEX
  5
D2C
  8
CUTS
 62
     4
 10
921.000350952
 20
-10.875
 30
0.0
  0
VERTEX
  5
D2D
  8
CUTS
 62
     4
 10
921.000350952
 20
-38.875
 30
0.0
  0
VERTEX
  5
D2E
  8
CUTS
 62
     4
 10
931.000335693
 20
-38.875
 30
0.0
  0
VERTEX
  5
D2F
  8
CUTS
 62
     4
 10
931.000335693
 20
-33.875
 30
0.0
  0
VERTEX
  5
D30
  8
CUTS
 62
     4
 10
983.000228882
 20
-33.875
 30
0.0
  0
VERTEX
  5
D31
  8
CUTS
 62
     4
 10
983.000228882
 20
-38.875
 30
0.0
  0
VERTEX
  5
D32
  8
CUTS
 62
     4
 10
993.000213623
 20
-38.875
 30
0.0
  0
SEQEND
  5
1071
  8
CUTS
 62
     4
  0
POLYLINE
  5
261
  8
CUTS
 62
     4
 66
     1
 10
0.0
 20
0.0
 30
0.0
 70
     1
  0
VERTEX
  5
D33
  8
CUTS
 62
     4
 10
971.000244141
 20
-288.874145508
 30
0.0
  0
VERTEX
  5
D34
  8
CUTS
 62
     4
 10
943.000305176
 20
-288.874145508
 30
0.0
  0
VERTEX
  5
D35
  8
CUTS
 62
     4
 10
943.000305176
 20
-298.874145508
 30
0.0
  0
VERTEX
  5
D36
  8
CUTS
 62
     4
 10
948.000289917
 20
-298.874145508
 30
0.0
  0
VERTEX
  5
D37
  8
CUTS
 62
     4
 10
948.000289917
 20
-350.874145508
 30
0.0
  0
VERTEX
  5
D38
  8
CUTS
 62
     4
 10
943.000305176
 20
-350.874145508
 30
0.0
  0
VERTEX
  5
D39
  8
CUTS
 62
     4
 10
943.000305176
 20
-360.874023438
 30
0.0
  0
VERTEX
  5
D3A
  8
CUTS
 62
     4
 10
971.000244141
 20
-360.874023438
 30
0.0
  0
VERTEX
  5
D3B
  8
CUTS
 62
     4
 10
971.000244141
 20
-350.874145508
 30
0.0
  0
VERTEX
  5
D3C
  8
CUTS
 62
     4
 10
966.000259399
 20
-350.874145508
 30
0.0
  0
VERTEX
  5
D3D
  8
CUTS
 62
     4
 10
966.000259399
 20
-298.874145508
 30
0.0
  0
VERTEX
  5
D3E
  8
CUTS
 62
     4
 10
971.000244141
 20
-298.874145508
 30
0.0
  0
SEQEND
  5
1072
  8
CUTS
 62
     4
  0
POLYLINE
  5
275
  8
OUTLINES
 62
     5
 66
     1
 10
0.0
 20
0.0
 30
0.0
 70
     1
  0
VERTEX
  5
D3F
  8
OUTLINES
 62
     5
 10
1532.00054932
 20
-178.499694824
 30
0.0
  0
VERTEX
  5
D40
  8
OUTLINES
 62
     5
 10
1457.00067139
 20
-178.499694824
 30
0.0
  0
VERTEX
  5
D41
  8
OUTLINES
 62
     5
 10
1457.00067139
 20
-183.499572754
 30
0.0
  0
VERTEX
  5
D42
  8
OUTLINES
 62
     5
 10
1447.0007019
 20
-183.499572754
 30
0.0
  0
VERTEX
  5
D43
  8
OUTLINES
 62
     5
 10
1447.0007019
 20
-160.499572754
 30
0.0
  0
VERTEX
  5
D44
  8
OUTLINES
 62
     5
 10
1267.00109863
 20
-160.499572754
 30
0.0
  0
VERTEX
  5
D45
  8
OUTLINES
 62
     5
 10
1267.00109863
 20
-183.499572754
 30
0.0
  0
VERTEX
  5
D46
  8
OUTLINES
 62
     5
 10
1257.0010376
 20
-183.499572754
 30
0.0
  0
VERTEX
  5
D47
  8
OUTLINES
 62
     5
 10
1257.0010376
 20
-178.499694824
 30
0.0
  0
VERTEX
  5
D48
  8
OUTLINES
 62
     5
 10
1200.0
 20
-178.499694824
 30
0.0
  0
VERTEX
  5
D49
  8
OUTLINES
 62
     5
 10
1200.0
 20
-428.499206543
 30
0.0
  0
VERTEX
  5
D4A
  8
OUTLINES
 62
     5
 10
1257.0010376
 20
-428.499206543
 30
0.0
  0
VERTEX
  5
D4B
  8
OUTLINES
 62
     5
 10
1257.0010376
 20
-423.498962402
 30
0.0
  0
VERTEX
  5
D4C
  8
OUTLINES
 62
     5
 10
1267.00109863
 20
-423.498962402
 30
0.0
  0
VERTEX
  5
D4D
  8
OUTLINES
 62
     5
 10
1267.00109863
 20
-446.498962402
 30
0.0
  0
VERTEX
  5
D4E
  8
OUTLINES
 62
     5
 10
1447.0007019
 20
-446.498962402
 30
0.0
  0
VERTEX
  5
D4F
  8
OUTLINES
 62
     5
 10
1447.0007019
 20
-423.498962402
 30
0.0
  0
VERTEX
  5
D50
  8
OUTLINES
 62
     5
 10
1457.00067139
 20
-423.498962402
 30
0.0
  0
VERTEX
  5
D51
  8
OUTLINES
 62
     5
 10
1457.00067139
 20
-428.499206543
 30
0.0
  0
VERTEX
  5
D52
  8
OUTLINES
 62
     5
 10
1557.00048828
 20
-428.499206543
 30
0.0
  0
VERTEX
  5
D53
  8
OUTLINES
 62
     5
 10
1557.00048828
 20
-423.498962402
 30
0.0
  0
VERTEX
  5
D54
  8
OUTLINES
 62
     5
 10
1567.00047302
 20
-423.498962402
 30
0.0
  0
VERTEX
  5
D55
  8
OUTLINES
 62
     5
 10
1567.00047302
 20
-446.498962402
 30
0.0
  0
VERTEX
  5
D56
  8
OUTLINES
 62
     5
 10
1747.00010681
 20
-446.498962402
 30
0.0
  0
VERTEX
  5
D57
  8
OUTLINES
 62
     5
 10
1747.00010681
 20
-423.498962402
 30
0.0
  0
VERTEX
  5
D58
  8
OUTLINES
 62
     5
 10
1757.00009918
 20
-423.498962402
 30
0.0
  0
VERTEX
  5
D59
  8
OUTLINES
 62
     5
 10
1757.00009918
 20
-428.499206543
 30
0.0
  0
VERTEX
  5
D5A
  8
OUTLINES
 62
     5
 10
1782.00003815
 20
-428.499206543
 30
0.0
  0
VERTEX
  5
D5B
  8
OUTLINES
 62
     5
 10
1782.00003815
 20
-384.499084473
 30
0.0
  0
VERTEX
  5
D5C
  8
OUTLINES
 62
     5
 10
1777.00004578
 20
-384.499084473
 30
0.0
  0
VERTEX
  5
D5D
  8
OUTLINES
 62
     5
 10
1777.00004578
 20
-374.499206543
 30
0.0
  0
VERTEX
  5
D5E
  8
OUTLINES
 62
     5
 10
1800.0
 20
-374.499206543
 30
0.0
  0
VERTEX
  5
D5F
  8
OUTLINES
 62
     5
 10
1800.0
 20
-344.499206543
 30
0.0
  0
VERTEX
  5
D60
  8
OUTLINES
 62
     5
 10
1756.00009155
 20
-344.499206543
 30
0.0
  0
VERTEX
  5
D61
  8
OUTLINES
 62
     5
 10
1756.00009155
 20
-349.499328613
 30
0.0
  0
VERTEX
  5
D62
  8
OUTLINES
 62
     5
 10
1746.00010681
 20
-349.499328613
 30
0.0
  0
VERTEX
  5
D63
  8
OUTLINES
 62
     5
 10
1746.00010681
 20
-257.499572754
 30
0.0
  0
VERTEX
  5
D64
  8
OUTLINES
 62
     5
 10
1756.00009155
 20
-257.499572754
 30
0.0
  0
VERTEX
  5
D65
  8
OUTLINES
 62
     5
 10
1756.00009155
 20
-262.499450684
 30
0.0
  0
VERTEX
  5
D66
  8
OUTLINES
 62
     5
 10
1782.00003815
 20
-262.499450684
 30
0.0
  0
VERTEX
  5
D67
  8
OUTLINES
 62
     5
 10
1782.00003815
 20
-103.499816895
 30
0.0
  0
VERTEX
  5
D68
  8
OUTLINES
 62
     5
 10
1777.00004578
 20
-103.499816895
 30
0.0
  0
VERTEX
  5
D69
  8
OUTLINES
 62
     5
 10
1777.00004578
 20
-93.4998168945
 30
0.0
  0
VERTEX
  5
D6A
  8
OUTLINES
 62
     5
 10
1800.0
 20
-93.4998168945
 30
0.0
  0
VERTEX
  5
D6B
  8
OUTLINES
 62
     5
 10
1800.0
 20
86.4998168945
 30
0.0
  0
VERTEX
  5
D6C
  8
OUTLINES
 62
     5
 10
1777.00004578
 20
86.4998168945
 30
0.0
  0
VERTEX
  5
D6D
  8
OUTLINES
 62
     5
 10
1777.00004578
 20
96.4998168945
 30
0.0
  0
VERTEX
  5
D6E
  8
OUTLINES
 62
     5
 10
1782.00003815
 20
96.4998168945
 30
0.0
  0
VERTEX
  5
D6F
  8
OUTLINES
 62
     5
 10
1782.00003815
 20
196.499572754
 30
0.0
  0
VERTEX
  5
D70
  8
OUTLINES
 62
     5
 10
1777.00004578
 20
196.499572754
 30
0.0
  0
VERTEX
  5
D71
  8
OUTLINES
 62
     5
 10
1777.00004578
 20
206.499572754
 30
0.0
  0
VERTEX
  5
D72
  8
OUTLINES
 62
     5
 10
1800.0
 20
206.499572754
 30
0.0
  0
VERTEX
  5
D73
  8
OUTLINES
 62
     5
 10
1800.0
 20
386.499206543
 30
0.0
  0
VERTEX
  5
D74
  8
OUTLINES
 62
     5
 10
1777.00004578
 20
386.499206543
 30
0.0
  0
VERTEX
  5
D75
  8
OUTLINES
 62
     5
 10
1777.00004578
 20
396.499206543
 30
0.0
  0
VERTEX
  5
D76
  8
OUTLINES
 62
     5
 10
1782.00003815
 20
396.499206543
 30
0.0
  0
VERTEX
  5
D77
  8
OUTLINES
 62
     5
 10
1782.00003815
 20
446.498962402
 30
0.0
  0
VERTEX
  5
D78
  8
OUTLINES
 62
     5
 10
1532.00054932
 20
446.498962402
 30
0.0
  0
VERTEX
  5
D79
  8
OUTLINES
 62
     5
 10
1532.00054932
 20
396.499206543
 30
0.0
  0
VERTEX
  5
D7A
  8
OUTLINES
 62
     5
 10
1537.00054932
 20
396.499206543
 30
0.0
  0
VERTEX
  5
D7B
  8
OUTLINES
 62
     5
 10
1537.00054932
 20
386.499206543
 30
0.0
  0
VERTEX
  5
D7C
  8
OUTLINES
 62
     5
 10
1514.00057983
 20
386.499206543
 30
0.0
  0
VERTEX
  5
D7D
  8
OUTLINES
 62
     5
 10
1514.00057983
 20
206.499572754
 30
0.0
  0
VERTEX
  5
D7E
  8
OUTLINES
 62
     5
 10
1537.00054932
 20
206.499572754
 30
0.0
  0
VERTEX
  5
D7F
  8
OUTLINES
 62
     5
 10
1537.00054932
 20
196.499572754
 30
0.0
  0
VERTEX
  5
D80
  8
OUTLINES
 62
     5
 10
1532.00054932
 20
196.499572754
 30
0.0
  0
VERTEX
  5
D81
  8
OUTLINES
 62
     5
 10
1532.00054932
 20
96.4998168945
 30
0.0
  0
VERTEX
  5
D82
  8
OUTLINES
 62
     5
 10
1537.00054932
 20
96.4998168945
 30
0.0
  0
VERTEX
  5
D83
  8
OUTLINES
 62
     5
 10
1537.00054932
 20
86.4998168945
 30
0.0
  0
VERTEX
  5
D84
  8
OUTLINES
 62
     5
 10
1514.00057983
 20
86.4998168945
 30
0.0
  0
VERTEX
  5
D85
  8
OUTLINES
 62
     5
 10
1514.00057983
 20
-93.4998168945
 30
0.0
  0
VERTEX
  5
D86
  8
OUTLINES
 62
     5
 10
1537.00054932
 20
-93.4998168945
 30
0.0
  0
VERTEX
  5
D87
  8
OUTLINES
 62
     5
 10
1537.00054932
 20
-103.499816895
 30
0.0
  0
VERTEX
  5
D88
  8
OUTLINES
 62
     5
 10
1532.00054932
 20
-103.499816895
 30
0.0
  0
VERTEX
  5
D89
  8
OUTLINES
 62
     5
 10
1532.00054932
 20
-170.4996948239998
 30
0.0
  0
VERTEX
  5
D8A
  8
OUTLINES
 62
     5
 10
1538.00054932
 20
-170.4996948239999
 30
0.0
  0
VERTEX
  5
D8B
  8
OUTLINES
 62
     5
 10
1538.00054932
 20
-178.4996948239999
 30
0.0
  0
SEQEND
  5
1073
  8
OUTLINES
 62
     5
  0
POLYLINE
  5
2FF
  8
CUTS
 62
     4
 66
     1
 10
0.0
 20
0.0
 30
0.0
 70
     1
  0
VERTEX
  5
D8C
  8
CUTS
 62
     4
 10
1621.00036621
 20
-17.5000610352
 30
0.0
  0
VERTEX
  5
D8D
  8
CUTS
 62
     4
 10
1621.00036621
 20
10.5000610352
 30
0.0
  0
VERTEX
  5
D8E
  8
CUTS
 62
     4
 10
1631.00033569
 20
10.5000610352
 30
0.0
  0
VERTEX
  5
D8F
  8
CUTS
 62
     4
 10
1631.00033569
 20
5.49993896484
 30
0.0
  0
VERTEX
  5
D90
  8
CUTS
 62
     4
 10
1683.00023651
 20
5.49993896484
 30
0.0
  0
VERTEX
  5
D91
  8
CUTS
 62
     4
 10
1683.00023651
 20
10.5000610352
 30
0.0
  0
VERTEX
  5
D92
  8
CUTS
 62
     4
 10
1693.00021362
 20
10.5000610352
 30
0.0
  0
VERTEX
  5
D93
  8
CUTS
 62
     4
 10
1693.00021362
 20
-17.5000610352
 30
0.0
  0
VERTEX
  5
D94
  8
CUTS
 62
     4
 10
1683.00023651
 20
-17.5000610352
 30
0.0
  0
VERTEX
  5
D95
  8
CUTS
 62
     4
 10
1683.00023651
 20
-12.4999389648
 30
0.0
  0
VERTEX
  5
D96
  8
CUTS
 62
     4
 10
1631.00033569
 20
-12.4999389648
 30
0.0
  0
VERTEX
  5
D97
  8
CUTS
 62
     4
 10
1631.00033569
 20
-17.5000610352
 30
0.0
  0
SEQEND
  5
1074
  8
CUTS
 62
     4
  0
POLYLINE
  5
313
  8
OUTLINES
 62
     5
 66
     1
 10
0.0
 20
0.0
 30
0.0
 70
     1
  0
VERTEX
  5
D98
  8
OUTLINES
 62
     5
 10
949.999023438
 20
-842.999710083
 30
0.0
  0
VERTEX
  5
D99
  8
OUTLINES
 62
     5
 10
650.000976562
 20
-842.999710083
 30
0.0
  0
VERTEX
  5
D9A
  8
OUTLINES
 62
     5
 10
650.000976562
 20
-1157.00028992
 30
0.0
  0
VERTEX
  5
D9B
  8
OUTLINES
 62
     5
 10
949.999023438
 20
-1157.00028992
 30
0.0
  0
SEQEND
  5
1075
  8
OUTLINES
 62
     5
  0
POLYLINE
  5
319
  8
CUTS
 62
     4
 66
     1
 10
0.0
 20
0.0
 30
0.0
 70
     1
  0
VERTEX
  5
D9C
  8
CUTS
 62
     4
 10
725.000854492
 20
-1079.99925232
 30
0.0
  0
VERTEX
  5
D9D
  8
CUTS
 62
     4
 10
730.000793457
 20
-1079.99925232
 30
0.0
  0
VERTEX
  5
D9E
  8
CUTS
 62
     4
 10
730.000793457
 20
-1089.99919128
 30
0.0
  0
VERTEX
  5
D9F
  8
CUTS
 62
     4
 10
684.000915527
 20
-1089.99919128
 30
0.0
  0
VERTEX
  5
DA0
  8
CUTS
 62
     4
 10
684.000915527
 20
-1079.99925232
 30
0.0
  0
VERTEX
  5
DA1
  8
CUTS
 62
     4
 10
689.000915527
 20
-1079.99925232
 30
0.0
  0
VERTEX
  5
DA2
  8
CUTS
 62
     4
 10
689.000915527
 20
-919.999557495
 30
0.0
  0
VERTEX
  5
DA3
  8
CUTS
 62
     4
 10
684.000915527
 20
-919.999557495
 30
0.0
  0
VERTEX
  5
DA4
  8
CUTS
 62
     4
 10
684.000915527
 20
-909.999588013
 30
0.0
  0
VERTEX
  5
DA5
  8
CUTS
 62
     4
 10
730.000793457
 20
-909.999588013
 30
0.0
  0
VERTEX
  5
DA6
  8
CUTS
 62
     4
 10
730.000793457
 20
-919.999557495
 30
0.0
  0
VERTEX
  5
DA7
  8
CUTS
 62
     4
 10
725.000854492
 20
-919.999557495
 30
0.0
  0
SEQEND
  5
1076
  8
CUTS
 62
     4
  0
POLYLINE
  5
327
  8
OUTLINES
 62
     5
 66
     1
 10
0.0
 20
0.0
 30
0.0
 70
     1
  0
VERTEX
  5
DA8
  8
OUTLINES
 62
     5
 10
2750.00097656
 20
-808.999980927
 30
0.0
  0
VERTEX
  5
DA9
  8
OUTLINES
 62
     5
 10
2750.00097656
 20
-1391.00001907
 30
0.0
  0
VERTEX
  5
DAA
  8
OUTLINES
 62
     5
 10
3049.99902344
 20
-1391.00001907
 30
0.0
  0
VERTEX
  5
DAB
  8
OUTLINES
 62
     5
 10
3049.99902344
 20
-808.999980927
 30
0.0
  0
SEQEND
  5
1077
  8
OUTLINES
 62
     5
  0
POLYLINE
  5
32D
  8
CUTS
 62
     4
 66
     1
 10
0.0
 20
0.0
 30
0.0
 70
     1
  0
VERTEX
  5
DAC
  8
CUTS
 62
     4
 10
2784.00091553
 20
-1313.99898148
 30
0.0
  0
VERTEX
  5
DAD
  8
CUTS
 62
     4
 10
2784.00091553
 20
-1323.99892044
 30
0.0
  0
VERTEX
  5
DAE
  8
CUTS
 62
     4
 10
2830.00079346
 20
-1323.99892044
 30
0.0
  0
VERTEX
  5
DAF
  8
CUTS
 62
     4
 10
2830.00079346
 20
-1313.99898148
 30
0.0
  0
VERTEX
  5
DB0
  8
CUTS
 62
     4
 10
2825.00085449
 20
-1313.99898148
 30
0.0
  0
VERTEX
  5
DB1
  8
CUTS
 62
     4
 10
2825.00085449
 20
-1153.99928665
 30
0.0
  0
VERTEX
  5
DB2
  8
CUTS
 62
     4
 10
2830.00079346
 20
-1153.99928665
 30
0.0
  0
VERTEX
  5
DB3
  8
CUTS
 62
     4
 10
2830.00079346
 20
-1143.99931717
 30
0.0
  0
VERTEX
  5
DB4
  8
CUTS
 62
     4
 10
2784.00091553
 20
-1143.99931717
 30
0.0
  0
VERTEX
  5
DB5
  8
CUTS
 62
     4
 10
2784.00091553
 20
-1153.99928665
 30
0.0
  0
VERTEX
  5
DB6
  8
CUTS
 62
     4
 10
2789.00091553
 20
-1153.99928665
 30
0.0
  0
VERTEX
  5
DB7
  8
CUTS
 62
     4
 10
2789.00091553
 20
-1313.99898148
 30
0.0
  0
SEQEND
  5
1078
  8
CUTS
 62
     4
  0
POLYLINE
  5
33B
  8
CUTS
 62
     4
 66
     1
 10
0.0
 20
0.0
 30
0.0
 70
     1
  0
VERTEX
  5
DB8
  8
CUTS
 62
     4
 10
2825.00085449
 20
-853.999889374
 30
0.0
  0
VERTEX
  5
DB9
  8
CUTS
 62
     4
 10
2830.00079346
 20
-853.999889374
 30
0.0
  0
VERTEX
  5
DBA
  8
CUTS
 62
     4
 10
2830.00079346
 20
-843.999912262
 30
0.0
  0
VERTEX
  5
DBB
  8
CUTS
 62
     4
 10
2784.00091553
 20
-843.999912262
 30
0.0
  0
VERTEX
  5
DBC
  8
CUTS
 62
     4
 10
2784.00091553
 20
-853.999889374
 30
0.0
  0
VERTEX
  5
DBD
  8
CUTS
 62
     4
 10
2789.00091553
 20
-853.999889374
 30
0.0
  0
VERTEX
  5
DBE
  8
CUTS
 62
     4
 10
2789.00091553
 20
-1013.99956131
 30
0.0
  0
VERTEX
  5
DBF
  8
CUTS
 62
     4
 10
2784.00091553
 20
-1013.99956131
 30
0.0
  0
VERTEX
  5
DC0
  8
CUTS
 62
     4
 10
2784.00091553
 20
-1023.99954605
 30
0.0
  0
VERTEX
  5
DC1
  8
CUTS
 62
     4
 10
2830.00079346
 20
-1023.99954605
 30
0.0
  0
VERTEX
  5
DC2
  8
CUTS
 62
     4
 10
2830.00079346
 20
-1013.99956131
 30
0.0
  0
VERTEX
  5
DC3
  8
CUTS
 62
     4
 10
2825.00085449
 20
-1013.99956131
 30
0.0
  0
VERTEX
  5
DC4
  8
CUTS
 62
     4
 10
2825.00085449
 20
-942.999713898
 30
0.0
  0
VERTEX
  5
DC5
  8
CUTS
 62
     4
 10
2845.00079346
 20
-942.999713898
 30
0.0
  0
VERTEX
  5
DC6
  8
CUTS
 62
     4
 10
2845.00079346
 20
-947.999698639
 30
0.0
  0
VERTEX
  5
DC7
  8
CUTS
 62
     4
 10
2855.00076294
 20
-947.999698639
 30
0.0
  0
VERTEX
  5
DC8
  8
CUTS
 62
     4
 10
2855.00076294
 20
-919.999759674
 30
0.0
  0
VERTEX
  5
DC9
  8
CUTS
 62
     4
 10
2845.00079346
 20
-919.999759674
 30
0.0
  0
VERTEX
  5
DCA
  8
CUTS
 62
     4
 10
2845.00079346
 20
-924.999744415
 30
0.0
  0
VERTEX
  5
DCB
  8
CUTS
 62
     4
 10
2825.00085449
 20
-924.999744415
 30
0.0
  0
SEQEND
  5
1079
  8
CUTS
 62
     4
  0
POLYLINE
  5
351
  8
OUTLINES
 62
     5
 66
     1
 10
0.0
 20
0.0
 30
0.0
 70
     1
  0
VERTEX
  5
DCC
  8
OUTLINES
 62
     5
 10
2138.99993896
 20
-1384.25003052
 30
0.0
  0
VERTEX
  5
DCD
  8
OUTLINES
 62
     5
 10
2061.00006104
 20
-1384.25003052
 30
0.0
  0
VERTEX
  5
DCE
  8
OUTLINES
 62
     5
 10
2061.00006104
 20
-1267.24905396
 30
0.0
  0
VERTEX
  5
DCF
  8
OUTLINES
 62
     5
 10
2066.00006104
 20
-1267.24905396
 30
0.0
  0
VERTEX
  5
DD0
  8
OUTLINES
 62
     5
 10
2066.00006104
 20
-1257.24905396
 30
0.0
  0
VERTEX
  5
DD1
  8
OUTLINES
 62
     5
 10
2028.00012207
 20
-1257.24905396
 30
0.0
  0
VERTEX
  5
DD2
  8
OUTLINES
 62
     5
 10
2025.00018311
 20
-1254.24905396
 30
0.0
  0
VERTEX
  5
DD3
  8
OUTLINES
 62
     5
 10
2025.00018311
 20
-1200.24917603
 30
0.0
  0
VERTEX
  5
DD4
  8
OUTLINES
 62
     5
 10
2028.00012207
 20
-1197.24917603
 30
0.0
  0
VERTEX
  5
DD5
  8
OUTLINES
 62
     5
 10
2066.00006104
 20
-1197.24917603
 30
0.0
  0
VERTEX
  5
DD6
  8
OUTLINES
 62
     5
 10
2066.00006104
 20
-1187.24917603
 30
0.0
  0
VERTEX
  5
DD7
  8
OUTLINES
 62
     5
 10
2061.00006104
 20
-1187.24917603
 30
0.0
  0
VERTEX
  5
DD8
  8
OUTLINES
 62
     5
 10
2061.00006104
 20
-815.749969482
 30
0.0
  0
VERTEX
  5
DD9
  8
OUTLINES
 62
     5
 10
2138.99993896
 20
-815.749969482
 30
0.0
  0
VERTEX
  5
DDA
  8
OUTLINES
 62
     5
 10
2138.99993896
 20
-1187.24917603
 30
0.0
  0
VERTEX
  5
DDB
  8
OUTLINES
 62
     5
 10
2133.99993896
 20
-1187.24917603
 30
0.0
  0
VERTEX
  5
DDC
  8
OUTLINES
 62
     5
 10
2133.99993896
 20
-1197.24917603
 30
0.0
  0
VERTEX
  5
DDD
  8
OUTLINES
 62
     5
 10
2171.99987793
 20
-1197.24917603
 30
0.0
  0
VERTEX
  5
DDE
  8
OUTLINES
 62
     5
 10
2174.99981689
 20
-1200.24917603
 30
0.0
  0
VERTEX
  5
DDF
  8
OUTLINES
 62
     5
 10
2174.99981689
 20
-1254.24905396
 30
0.0
  0
VERTEX
  5
DE0
  8
OUTLINES
 62
     5
 10
2171.99987793
 20
-1257.24905396
 30
0.0
  0
VERTEX
  5
DE1
  8
OUTLINES
 62
     5
 10
2133.99993896
 20
-1257.24905396
 30
0.0
  0
VERTEX
  5
DE2
  8
OUTLINES
 62
     5
 10
2133.99993896
 20
-1267.24905396
 30
0.0
  0
VERTEX
  5
DE3
  8
OUTLINES
 62
     5
 10
2138.99993896
 20
-1267.24905396
 30
0.0
  0
SEQEND
  5
107A
  8
OUTLINES
 62
     5
  0
POLYLINE
  5
36B
  8
OUTLINES
 62
     5
 66
     1
 10
0.0
 20
0.0
 30
0.0
 70
     1
  0
VERTEX
  5
DE4
  8
OUTLINES
 62
     5
 10
25.0008544922
 20
-866.000305176
 30
0.0
  0
VERTEX
  5
DE5
  8
OUTLINES
 62
     5
 10
249.999023438
 20
-866.000305176
 30
0.0
  0
VERTEX
  5
DE6
  8
OUTLINES
 62
     5
 10
249.999023438
 20
-1115.99969482
 30
0.0
  0
VERTEX
  5
DE7
  8
OUTLINES
 62
     5
 10
65.0007324219
 20
-1115.99969482
 30
0.0
  0
VERTEX
  5
DE8
  8
OUTLINES
 62
     5
 10
65.0007324219
 20
-1110.99969482
 30
0.0
  0
VERTEX
  5
DE9
  8
OUTLINES
 62
     5
 10
55.0007629395
 20
-1110.99969482
 30
0.0
  0
VERTEX
  5
DEA
  8
OUTLINES
 62
     5
 10
55.0007629395
 20
-1133.99969482
 30
0.0
  0
VERTEX
  5
DEB
  8
OUTLINES
 62
     5
 10
25.0008544922
 20
-1133.99969482
 30
0.0
  0
VERTEX
  5
DEC
  8
OUTLINES
 62
     5
 10
25.0008544922
 20
-1036.99993896
 30
0.0
  0
VERTEX
  5
DED
  8
OUTLINES
 62
     5
 10
30.000793457
 20
-1036.99993896
 30
0.0
  0
VERTEX
  5
DEE
  8
OUTLINES
 62
     5
 10
30.000793457
 20
-1026.99993896
 30
0.0
  0
VERTEX
  5
DEF
  8
OUTLINES
 62
     5
 10
-49.9990234375
 20
-1026.99993896
 30
0.0
  0
VERTEX
  5
DF0
  8
OUTLINES
 62
     5
 10
-49.9990234375
 20
-955.000183105
 30
0.0
  0
VERTEX
  5
DF1
  8
OUTLINES
 62
     5
 10
30.000793457
 20
-955.000183105
 30
0.0
  0
VERTEX
  5
DF2
  8
OUTLINES
 62
     5
 10
30.000793457
 20
-945.000183105
 30
0.0
  0
VERTEX
  5
DF3
  8
OUTLINES
 62
     5
 10
25.0008544922
 20
-945.000183105
 30
0.0
  0
SEQEND
  5
107B
  8
OUTLINES
 62
     5
  0
POLYLINE
  5
37D
  8
CUTS
 62
     4
 66
     1
 10
0.0
 20
0.0
 30
0.0
 70
     1
  0
VERTEX
  5
DF4
  8
CUTS
 62
     4
 10
-2.99914550781
 20
-1000.00006104
 30
0.0
  0
VERTEX
  5
DF5
  8
CUTS
 62
     4
 10
-2.99914550781
 20
-1005.00006104
 30
0.0
  0
VERTEX
  5
DF6
  8
CUTS
 62
     4
 10
7.00085449219
 20
-1005.00006104
 30
0.0
  0
VERTEX
  5
DF7
  8
CUTS
 62
     4
 10
7.00085449219
 20
-977.000061035
 30
0.0
  0
VERTEX
  5
DF8
  8
CUTS
 62
     4
 10
-2.99914550781
 20
-977.000061035
 30
0.0
  0
VERTEX
  5
DF9
  8
CUTS
 62
     4
 10
-2.99914550781
 20
-982.000061035
 30
0.0
  0
VERTEX
  5
DFA
  8
CUTS
 62
     4
 10
-21.9990844727
 20
-982.000061035
 30
0.0
  0
VERTEX
  5
DFB
  8
CUTS
 62
     4
 10
-21.9990844727
 20
-977.000061035
 30
0.0
  0
VERTEX
  5
DFC
  8
CUTS
 62
     4
 10
-31.9990844727
 20
-977.000061035
 30
0.0
  0
VERTEX
  5
DFD
  8
CUTS
 62
     4
 10
-31.9990844727
 20
-1005.00006104
 30
0.0
  0
VERTEX
  5
DFE
  8
CUTS
 62
     4
 10
-21.9990844727
 20
-1005.00006104
 30
0.0
  0
VERTEX
  5
DFF
  8
CUTS
 62
     4
 10
-21.9990844727
 20
-1000.00006104
 30
0.0
  0
SEQEND
  5
107C
  8
CUTS
 62
     4
  0
POLYLINE
  5
38B
  8
OUTLINES
 62
     5
 66
     1
 10
0.0
 20
0.0
 30
0.0
 70
     1
  0
VERTEX
  5
E00
  8
OUTLINES
 62
     5
 10
3724.99987793
 20
-649.50402832
 30
0.0
  0
VERTEX
  5
E01
  8
OUTLINES
 62
     5
 10
3949.9987793
 20
-649.50402832
 30
0.0
  0
VERTEX
  5
E02
  8
OUTLINES
 62
     5
 10
3949.9987793
 20
-750.49597168
 30
0.0
  0
VERTEX
  5
E03
  8
OUTLINES
 62
     5
 10
3650.0012207
 20
-750.49597168
 30
0.0
  0
VERTEX
  5
E04
  8
OUTLINES
 62
     5
 10
3650.0012207
 20
-649.50402832
 30
0.0
  0
VERTEX
  5
E05
  8
OUTLINES
 62
     5
 10
3688.99993896
 20
-649.50402832
 30
0.0
  0
VERTEX
  5
E06
  8
OUTLINES
 62
     5
 10
3688.99993896
 20
-668.49609375
 30
0.0
  0
VERTEX
  5
E07
  8
OUTLINES
 62
     5
 10
3684.0
 20
-668.49609375
 30
0.0
  0
VERTEX
  5
E08
  8
OUTLINES
 62
     5
 10
3684.0
 20
-678.49609375
 30
0.0
  0
VERTEX
  5
E09
  8
OUTLINES
 62
     5
 10
3729.99987793
 20
-678.49609375
 30
0.0
  0
VERTEX
  5
E0A
  8
OUTLINES
 62
     5
 10
3729.99987793
 20
-668.49609375
 30
0.0
  0
VERTEX
  5
E0B
  8
OUTLINES
 62
     5
 10
3724.99987793
 20
-668.49609375
 30
0.0
  0
SEQEND
  5
107D
  8
OUTLINES
 62
     5
  0
POLYLINE
  5
399
  8
OUTLINES
 62
     5
 66
     1
 10
0.0
 20
0.0
 30
0.0
 70
     1
  0
VERTEX
  5
E0C
  8
OUTLINES
 62
     5
 10
3412.49996948
 20
-1424.99966867
 30
0.0
  0
VERTEX
  5
E0D
  8
OUTLINES
 62
     5
 10
3187.50003052
 20
-1424.99974714
 30
0.0
  0
VERTEX
  5
E0E
  8
OUTLINES
 62
     5
 10
3187.50003052
 20
-1175.00035749
 30
0.0
  0
VERTEX
  5
E0F
  8
OUTLINES
 62
     5
 10
3412.49996948
 20
-1175.00025286
 30
0.0
  0
SEQEND
  5
107E
  8
OUTLINES
 62
     5
  0
POLYLINE
  5
39F
  8
OUTLINES
 62
     5
 66
     1
 10
0.0
 20
0.0
 30
0.0
 70
     1
  0
VERTEX
  5
E10
  8
OUTLINES
 62
     5
 10
1733.99993896
 20
-1160.49906921
 30
0.0
  0
VERTEX
  5
E11
  8
OUTLINES
 62
     5
 10
1733.99993896
 20
-1150.49906921
 30
0.0
  0
VERTEX
  5
E12
  8
OUTLINES
 62
     5
 10
1771.99987793
 20
-1150.49906921
 30
0.0
  0
VERTEX
  5
E13
  8
OUTLINES
 62
     5
 10
1774.99981689
 20
-1147.49906921
 30
0.0
  0
VERTEX
  5
E14
  8
OUTLINES
 62
     5
 10
1774.99981689
 20
-1093.49919128
 30
0.0
  0
VERTEX
  5
E15
  8
OUTLINES
 62
     5
 10
1771.99987793
 20
-1090.49919128
 30
0.0
  0
VERTEX
  5
E16
  8
OUTLINES
 62
     5
 10
1733.99993896
 20
-1090.49919128
 30
0.0
  0
VERTEX
  5
E17
  8
OUTLINES
 62
     5
 10
1733.99993896
 20
-1080.49919128
 30
0.0
  0
VERTEX
  5
E18
  8
OUTLINES
 62
     5
 10
1738.99993896
 20
-1080.49919128
 30
0.0
  0
VERTEX
  5
E19
  8
OUTLINES
 62
     5
 10
1738.99993896
 20
-860.499679565
 30
0.0
  0
VERTEX
  5
E1A
  8
OUTLINES
 62
     5
 10
1733.99993896
 20
-860.499679565
 30
0.0
  0
VERTEX
  5
E1B
  8
OUTLINES
 62
     5
 10
1733.99993896
 20
-850.499694824
 30
0.0
  0
VERTEX
  5
E1C
  8
OUTLINES
 62
     5
 10
1771.99987793
 20
-850.499694824
 30
0.0
  0
VERTEX
  5
E1D
  8
OUTLINES
 62
     5
 10
1774.99981689
 20
-847.499694824
 30
0.0
  0
VERTEX
  5
E1E
  8
OUTLINES
 62
     5
 10
1774.99981689
 20
-793.499809265
 30
0.0
  0
VERTEX
  5
E1F
  8
OUTLINES
 62
     5
 10
1771.99987793
 20
-790.499816895
 30
0.0
  0
VERTEX
  5
E20
  8
OUTLINES
 62
     5
 10
1733.99993896
 20
-790.499816895
 30
0.0
  0
VERTEX
  5
E21
  8
OUTLINES
 62
     5
 10
1733.99993896
 20
-780.499832153
 30
0.0
  0
VERTEX
  5
E22
  8
OUTLINES
 62
     5
 10
1738.99993896
 20
-780.499832153
 30
0.0
  0
VERTEX
  5
E23
  8
OUTLINES
 62
     5
 10
1738.99993896
 20
-722.499954224
 30
0.0
  0
VERTEX
  5
E24
  8
OUTLINES
 62
     5
 10
1661.00006104
 20
-722.499954224
 30
0.0
  0
VERTEX
  5
E25
  8
OUTLINES
 62
     5
 10
1661.00006104
 20
-780.499832153
 30
0.0
  0
VERTEX
  5
E26
  8
OUTLINES
 62
     5
 10
1666.00006104
 20
-780.499832153
 30
0.0
  0
VERTEX
  5
E27
  8
OUTLINES
 62
     5
 10
1666.00006104
 20
-790.499816895
 30
0.0
  0
VERTEX
  5
E28
  8
OUTLINES
 62
     5
 10
1628.00012207
 20
-790.499816895
 30
0.0
  0
VERTEX
  5
E29
  8
OUTLINES
 62
     5
 10
1625.00018311
 20
-793.499809265
 30
0.0
  0
VERTEX
  5
E2A
  8
OUTLINES
 62
     5
 10
1625.00018311
 20
-847.499694824
 30
0.0
  0
VERTEX
  5
E2B
  8
OUTLINES
 62
     5
 10
1628.00012207
 20
-850.499694824
 30
0.0
  0
VERTEX
  5
E2C
  8
OUTLINES
 62
     5
 10
1666.00006104
 20
-850.499694824
 30
0.0
  0
VERTEX
  5
E2D
  8
OUTLINES
 62
     5
 10
1666.00006104
 20
-860.499679565
 30
0.0
  0
VERTEX
  5
E2E
  8
OUTLINES
 62
     5
 10
1661.00006104
 20
-860.499679565
 30
0.0
  0
VERTEX
  5
E2F
  8
OUTLINES
 62
     5
 10
1661.00006104
 20
-1080.49919128
 30
0.0
  0
VERTEX
  5
E30
  8
OUTLINES
 62
     5
 10
1666.00006104
 20
-1080.49919128
 30
0.0
  0
VERTEX
  5
E31
  8
OUTLINES
 62
     5
 10
1666.00006104
 20
-1090.49919128
 30
0.0
  0
VERTEX
  5
E32
  8
OUTLINES
 62
     5
 10
1628.00012207
 20
-1090.49919128
 30
0.0
  0
VERTEX
  5
E33
  8
OUTLINES
 62
     5
 10
1625.00018311
 20
-1093.49919128
 30
0.0
  0
VERTEX
  5
E34
  8
OUTLINES
 62
     5
 10
1625.00018311
 20
-1147.49906921
 30
0.0
  0
VERTEX
  5
E35
  8
OUTLINES
 62
     5
 10
1628.00012207
 20
-1150.49906921
 30
0.0
  0
VERTEX
  5
E36
  8
OUTLINES
 62
     5
 10
1666.00006104
 20
-1150.49906921
 30
0.0
  0
VERTEX
  5
E37
  8
OUTLINES
 62
     5
 10
1666.00006104
 20
-1160.49906921
 30
0.0
  0
VERTEX
  5
E38
  8
OUTLINES
 62
     5
 10
1661.00006104
 20
-1160.49906921
 30
0.0
  0
VERTEX
  5
E39
  8
OUTLINES
 62
     5
 10
1661.00006104
 20
-1277.50004578
 30
0.0
  0
VERTEX
  5
E3A
  8
OUTLINES
 62
     5
 10
1738.99993896
 20
-1277.50004578
 30
0.0
  0
VERTEX
  5
E3B
  8
OUTLINES
 62
     5
 10
1738.99993896
 20
-1160.49906921
 30
0.0
  0
SEQEND
  5
107F
  8
OUTLINES
 62
     5
  0
POLYLINE
  5
3CD
  8
OUTLINES
 62
     5
 66
     1
 10
0.0
 20
0.0
 30
0.0
 70
     1
  0
VERTEX
  5
E3C
  8
OUTLINES
 62
     5
 10
538.999938965
 20
-979.246544612
 30
0.0
  0
VERTEX
  5
E3D
  8
OUTLINES
 62
     5
 10
533.999938965
 20
-979.246544612
 30
0.0
  0
VERTEX
  5
E3E
  8
OUTLINES
 62
     5
 10
533.999938965
 20
-989.246544612
 30
0.0
  0
VERTEX
  5
E3F
  8
OUTLINES
 62
     5
 10
571.99987793
 20
-989.246544612
 30
0.0
  0
VERTEX
  5
E40
  8
OUTLINES
 62
     5
 10
574.999816895
 20
-992.246544612
 30
0.0
  0
VERTEX
  5
E41
  8
OUTLINES
 62
     5
 10
574.999816895
 20
-1046.24654461
 30
0.0
  0
VERTEX
  5
E42
  8
OUTLINES
 62
     5
 10
571.99987793
 20
-1049.24654461
 30
0.0
  0
VERTEX
  5
E43
  8
OUTLINES
 62
     5
 10
533.999938965
 20
-1049.24654461
 30
0.0
  0
VERTEX
  5
E44
  8
OUTLINES
 62
     5
 10
533.999938965
 20
-1059.24642254
 30
0.0
  0
VERTEX
  5
E45
  8
OUTLINES
 62
     5
 10
538.999938965
 20
-1059.24642254
 30
0.0
  0
VERTEX
  5
E46
  8
OUTLINES
 62
     5
 10
538.999938965
 20
-1180.7461784
 30
0.0
  0
VERTEX
  5
E47
  8
OUTLINES
 62
     5
 10
461.000061035
 20
-1180.7461784
 30
0.0
  0
VERTEX
  5
E48
  8
OUTLINES
 62
     5
 10
461.000061035
 20
-1059.24642254
 30
0.0
  0
VERTEX
  5
E49
  8
OUTLINES
 62
     5
 10
466.000061035
 20
-1059.24642254
 30
0.0
  0
VERTEX
  5
E4A
  8
OUTLINES
 62
     5
 10
466.000061035
 20
-1049.24654461
 30
0.0
  0
VERTEX
  5
E4B
  8
OUTLINES
 62
     5
 10
428.00012207
 20
-1049.24654461
 30
0.0
  0
VERTEX
  5
E4C
  8
OUTLINES
 62
     5
 10
425.000183105
 20
-1046.24654461
 30
0.0
  0
VERTEX
  5
E4D
  8
OUTLINES
 62
     5
 10
425.000183105
 20
-992.246544612
 30
0.0
  0
VERTEX
  5
E4E
  8
OUTLINES
 62
     5
 10
428.00012207
 20
-989.246544612
 30
0.0
  0
VERTEX
  5
E4F
  8
OUTLINES
 62
     5
 10
466.000061035
 20
-989.246544612
 30
0.0
  0
VERTEX
  5
E50
  8
OUTLINES
 62
     5
 10
466.000061035
 20
-979.246544612
 30
0.0
  0
VERTEX
  5
E51
  8
OUTLINES
 62
     5
 10
461.000061035
 20
-979.246544612
 30
0.0
  0
VERTEX
  5
E52
  8
OUTLINES
 62
     5
 10
461.000061035
 20
-819.253821598
 30
0.0
  0
VERTEX
  5
E53
  8
OUTLINES
 62
     5
 10
538.999938965
 20
-819.253821598
 30
0.0
  0
SEQEND
  5
1080
  8
OUTLINES
 62
     5
  0
POLYLINE
  5
3E7
  8
OUTLINES
 62
     5
 66
     1
 10
0.0
 20
0.0
 30
0.0
 70
     1
  0
VERTEX
  5
E54
  8
OUTLINES
 62
     5
 10
1449.99902344
 20
-812.50430988
 30
0.0
  0
VERTEX
  5
E55
  8
OUTLINES
 62
     5
 10
1449.99902344
 20
-1187.49569012
 30
0.0
  0
VERTEX
  5
E56
  8
OUTLINES
 62
     5
 10
1150.00097656
 20
-1187.49569012
 30
0.0
  0
VERTEX
  5
E57
  8
OUTLINES
 62
     5
 10
1150.00097656
 20
-812.50430988
 30
0.0
  0
SEQEND
  5
1081
  8
OUTLINES
 62
     5
  0
POLYLINE
  5
3ED
  8
CUTS
 62
     4
 66
     1
 10
0.0
 20
0.0
 30
0.0
 70
     1
  0
VERTEX
  5
E58
  8
CUTS
 62
     4
 10
1225.00085449
 20
-932.496178402
 30
0.0
  0
VERTEX
  5
E59
  8
CUTS
 62
     4
 10
1230.00079346
 20
-932.496178402
 30
0.0
  0
VERTEX
  5
E5A
  8
CUTS
 62
     4
 10
1230.00079346
 20
-922.496178402
 30
0.0
  0
VERTEX
  5
E5B
  8
CUTS
 62
     4
 10
1184.00091553
 20
-922.496178402
 30
0.0
  0
VERTEX
  5
E5C
  8
CUTS
 62
     4
 10
1184.00091553
 20
-932.496178402
 30
0.0
  0
VERTEX
  5
E5D
  8
CUTS
 62
     4
 10
1189.00091553
 20
-932.496178402
 30
0.0
  0
VERTEX
  5
E5E
  8
CUTS
 62
     4
 10
1189.00091553
 20
-1092.49581219
 30
0.0
  0
VERTEX
  5
E5F
  8
CUTS
 62
     4
 10
1184.00091553
 20
-1092.49581219
 30
0.0
  0
VERTEX
  5
E60
  8
CUTS
 62
     4
 10
1184.00091553
 20
-1102.49581219
 30
0.0
  0
VERTEX
  5
E61
  8
CUTS
 62
     4
 10
1230.00079346
 20
-1102.49581219
 30
0.0
  0
VERTEX
  5
E62
  8
CUTS
 62
     4
 10
1230.00079346
 20
-1092.49581219
 30
0.0
  0
VERTEX
  5
E63
  8
CUTS
 62
     4
 10
1225.00085449
 20
-1092.49581219
 30
0.0
  0
VERTEX
  5
E64
  8
CUTS
 62
     4
 10
1225.00085449
 20
-1021.49593426
 30
0.0
  0
VERTEX
  5
E65
  8
CUTS
 62
     4
 10
1245.00079346
 20
-1021.49593426
 30
0.0
  0
VERTEX
  5
E66
  8
CUTS
 62
     4
 10
1245.00079346
 20
-1026.49605633
 30
0.0
  0
VERTEX
  5
E67
  8
CUTS
 62
     4
 10
1255.00076294
 20
-1026.49605633
 30
0.0
  0
VERTEX
  5
E68
  8
CUTS
 62
     4
 10
1255.00076294
 20
-998.495934261
 30
0.0
  0
VERTEX
  5
E69
  8
CUTS
 62
     4
 10
1245.00079346
 20
-998.495934261
 30
0.0
  0
VERTEX
  5
E6A
  8
CUTS
 62
     4
 10
1245.00079346
 20
-1003.49605633
 30
0.0
  0
VERTEX
  5
E6B
  8
CUTS
 62
     4
 10
1225.00085449
 20
-1003.49605633
 30
0.0
  0
SEQEND
  5
1082
  8
CUTS
 62
     4
  0
POLYLINE
  5
44C
  8
CUTS
  6
BYBLOCK
 62
     4
 66
     1
 10
0.0
 20
0.0
 30
0.0
 70
     1
  0
VERTEX
  5
E6C
  8
CUTS
  6
BYBLOCK
 62
     4
 10
627.000976562
 20
-449.873901367
 30
0.0
  0
VERTEX
  5
E6D
  8
CUTS
  6
BYBLOCK
 62
     4
 10
621.000976562
 20
-449.873901367
 30
0.0
  0
VERTEX
  5
E6E
  8
CUTS
  6
BYBLOCK
 62
     4
 10
621.000976562
 20
-441.873901367
 30
0.0
  0
VERTEX
  5
E6F
  8
CUTS
  6
BYBLOCK
 62
     4
 10
627.000976562
 20
-441.873901367
 30
0.0
  0
VERTEX
  5
E70
  8
CUTS
  6
BYBLOCK
 62
     4
 10
627.000976562
 20
-431.873901367
 30
0.0
  0
VERTEX
  5
E71
  8
CUTS
  6
BYBLOCK
 62
     4
 10
627.000976562
 20
-425.873901367
 30
0.0
  0
VERTEX
  5
E72
  8
CUTS
  6
BYBLOCK
 62
     4
 10
635.000976562
 20
-425.873901367
 30
0.0
  0
VERTEX
  5
E73
  8
CUTS
  6
BYBLOCK
 62
     4
 10
635.000976562
 20
-431.873901367
 30
0.0
  0
VERTEX
  5
E74
  8
CUTS
  6
BYBLOCK
 62
     4
 10
679.000854492
 20
-431.873901367
 30
0.0
  0
VERTEX
  5
E75
  8
CUTS
  6
BYBLOCK
 62
     4
 10
679.000854492
 20
-425.873901367
 30
0.0
  0
VERTEX
  5
E76
  8
CUTS
  6
BYBLOCK
 62
     4
 10
687.000854492
 20
-425.873901367
 30
0.0
  0
VERTEX
  5
E77
  8
CUTS
  6
BYBLOCK
 62
     4
 10
687.000854492
 20
-431.873901367
 30
0.0
  0
VERTEX
  5
E78
  8
CUTS
  6
BYBLOCK
 62
     4
 10
687.000854492
 20
-441.873901367
 30
0.0
  0
VERTEX
  5
E79
  8
CUTS
  6
BYBLOCK
 62
     4
 10
693.000854492
 20
-441.873901367
 30
0.0
  0
VERTEX
  5
E7A
  8
CUTS
  6
BYBLOCK
 62
     4
 10
693.000854492
 20
-449.873901367
 30
0.0
  0
VERTEX
  5
E7B
  8
CUTS
  6
BYBLOCK
 62
     4
 10
687.000854492
 20
-449.873901367
 30
0.0
  0
SEQEND
  5
1083
  8
CUTS
  6
BYBLOCK
 62
     4
  0
POLYLINE
  5
467
  8
CUTS
  6
BYBLOCK
 62
     4
 66
     1
 10
0.0
 20
0.0
 30
0.0
 70
     1
  0
VERTEX
  5
E7C
  8
CUTS
  6
BYBLOCK
 62
     4
 10
627.000976562
 20
-199.8743896490001
 30
0.0
  0
VERTEX
  5
E7D
  8
CUTS
  6
BYBLOCK
 62
     4
 10
621.000976562
 20
-199.8743896490001
 30
0.0
  0
VERTEX
  5
E7E
  8
CUTS
  6
BYBLOCK
 62
     4
 10
621.000976562
 20
-207.8743896490001
 30
0.0
  0
VERTEX
  5
E7F
  8
CUTS
  6
BYBLOCK
 62
     4
 10
627.000976562
 20
-207.8743896490001
 30
0.0
  0
VERTEX
  5
E80
  8
CUTS
  6
BYBLOCK
 62
     4
 10
627.000976562
 20
-217.8743896490001
 30
0.0
  0
VERTEX
  5
E81
  8
CUTS
  6
BYBLOCK
 62
     4
 10
627.000976562
 20
-223.8743896490001
 30
0.0
  0
VERTEX
  5
E82
  8
CUTS
  6
BYBLOCK
 62
     4
 10
635.000976562
 20
-223.8743896490001
 30
0.0
  0
VERTEX
  5
E83
  8
CUTS
  6
BYBLOCK
 62
     4
 10
635.000976562
 20
-217.8743896490001
 30
0.0
  0
VERTEX
  5
E84
  8
CUTS
  6
BYBLOCK
 62
     4
 10
679.000854492
 20
-217.8743896490001
 30
0.0
  0
VERTEX
  5
E85
  8
CUTS
  6
BYBLOCK
 62
     4
 10
679.000854492
 20
-223.8743896490001
 30
0.0
  0
VERTEX
  5
E86
  8
CUTS
  6
BYBLOCK
 62
     4
 10
687.000854492
 20
-223.8743896490001
 30
0.0
  0
VERTEX
  5
E87
  8
CUTS
  6
BYBLOCK
 62
     4
 10
687.000854492
 20
-217.8743896490001
 30
0.0
  0
VERTEX
  5
E88
  8
CUTS
  6
BYBLOCK
 62
     4
 10
687.000854492
 20
-207.8743896490001
 30
0.0
  0
VERTEX
  5
E89
  8
CUTS
  6
BYBLOCK
 62
     4
 10
693.000854492
 20
-207.8743896490001
 30
0.0
  0
VERTEX
  5
E8A
  8
CUTS
  6
BYBLOCK
 62
     4
 10
693.000854492
 20
-199.8743896490001
 30
0.0
  0
VERTEX
  5
E8B
  8
CUTS
  6
BYBLOCK
 62
     4
 10
687.000854492
 20
-199.8743896490001
 30
0.0
  0
SEQEND
  5
1084
  8
CUTS
  6
BYBLOCK
 62
     4
  0
POLYLINE
  5
468
  8
CUTS
  6
BYBLOCK
 62
     4
 66
     1
 10
0.0
 20
0.0
 30
0.0
 70
     1
  0
VERTEX
  5
E8C
  8
CUTS
  6
BYBLOCK
 62
     4
 10
927.000335693
 20
-449.873901367
 30
0.0
  0
VERTEX
  5
E8D
  8
CUTS
  6
BYBLOCK
 62
     4
 10
921.000335693
 20
-449.873901367
 30
0.0
  0
VERTEX
  5
E8E
  8
CUTS
  6
BYBLOCK
 62
     4
 10
921.000335693
 20
-441.873901367
 30
0.0
  0
VERTEX
  5
E8F
  8
CUTS
  6
BYBLOCK
 62
     4
 10
927.000335693
 20
-441.873901367
 30
0.0
  0
VERTEX
  5
E90
  8
CUTS
  6
BYBLOCK
 62
     4
 10
927.000335693
 20
-431.873901367
 30
0.0
  0
VERTEX
  5
E91
  8
CUTS
  6
BYBLOCK
 62
     4
 10
927.000335693
 20
-425.873901367
 30
0.0
  0
VERTEX
  5
E92
  8
CUTS
  6
BYBLOCK
 62
     4
 10
935.000335693
 20
-425.873901367
 30
0.0
  0
VERTEX
  5
E93
  8
CUTS
  6
BYBLOCK
 62
     4
 10
935.000335693
 20
-431.873901367
 30
0.0
  0
VERTEX
  5
E94
  8
CUTS
  6
BYBLOCK
 62
     4
 10
979.000213623
 20
-431.873901367
 30
0.0
  0
VERTEX
  5
E95
  8
CUTS
  6
BYBLOCK
 62
     4
 10
979.000213623
 20
-425.873901367
 30
0.0
  0
VERTEX
  5
E96
  8
CUTS
  6
BYBLOCK
 62
     4
 10
987.000213623
 20
-425.873901367
 30
0.0
  0
VERTEX
  5
E97
  8
CUTS
  6
BYBLOCK
 62
     4
 10
987.000213623
 20
-431.873901367
 30
0.0
  0
VERTEX
  5
E98
  8
CUTS
  6
BYBLOCK
 62
     4
 10
987.000213623
 20
-441.873901367
 30
0.0
  0
VERTEX
  5
E99
  8
CUTS
  6
BYBLOCK
 62
     4
 10
993.000213623
 20
-441.873901367
 30
0.0
  0
VERTEX
  5
E9A
  8
CUTS
  6
BYBLOCK
 62
     4
 10
993.000213623
 20
-449.873901367
 30
0.0
  0
VERTEX
  5
E9B
  8
CUTS
  6
BYBLOCK
 62
     4
 10
987.000213623
 20
-449.873901367
 30
0.0
  0
SEQEND
  5
1085
  8
CUTS
  6
BYBLOCK
 62
     4
  0
POLYLINE
  5
46A
  8
CUTS
  6
BYBLOCK
 62
     4
 66
     1
 10
0.0
 20
0.0
 30
0.0
 70
     1
  0
VERTEX
  5
E9C
  8
CUTS
  6
BYBLOCK
 62
     4
 10
934.000320435
 20
-315.874145508
 30
0.0
  0
VERTEX
  5
E9D
  8
CUTS
  6
BYBLOCK
 62
     4
 10
934.000320435
 20
-309.874145508
 30
0.0
  0
VERTEX
  5
E9E
  8
CUTS
  6
BYBLOCK
 62
     4
 10
926.000320435
 20
-309.874145508
 30
0.0
  0
VERTEX
  5
E9F
  8
CUTS
  6
BYBLOCK
 62
     4
 10
926.000320435
 20
-315.874145508
 30
0.0
  0
VERTEX
  5
EA0
  8
CUTS
  6
BYBLOCK
 62
     4
 10
807.000610352
 20
-315.874145508
 30
0.0
  0
VERTEX
  5
EA1
  8
CUTS
  6
BYBLOCK
 62
     4
 10
807.000610352
 20
-309.874145508
 30
0.0
  0
VERTEX
  5
EA2
  8
CUTS
  6
BYBLOCK
 62
     4
 10
799.000610352
 20
-309.874145508
 30
0.0
  0
VERTEX
  5
EA3
  8
CUTS
  6
BYBLOCK
 62
     4
 10
799.000610352
 20
-315.874145508
 30
0.0
  0
VERTEX
  5
EA4
  8
CUTS
  6
BYBLOCK
 62
     4
 10
799.000610352
 20
-333.874145508
 30
0.0
  0
VERTEX
  5
EA5
  8
CUTS
  6
BYBLOCK
 62
     4
 10
799.000610352
 20
-339.874145508
 30
0.0
  0
VERTEX
  5
EA6
  8
CUTS
  6
BYBLOCK
 62
     4
 10
807.000610352
 20
-339.874145508
 30
0.0
  0
VERTEX
  5
EA7
  8
CUTS
  6
BYBLOCK
 62
     4
 10
807.000610352
 20
-333.874145508
 30
0.0
  0
VERTEX
  5
EA8
  8
CUTS
  6
BYBLOCK
 62
     4
 10
926.000320435
 20
-333.874145508
 30
0.0
  0
VERTEX
  5
EA9
  8
CUTS
  6
BYBLOCK
 62
     4
 10
926.000320435
 20
-339.874145508
 30
0.0
  0
VERTEX
  5
EAA
  8
CUTS
  6
BYBLOCK
 62
     4
 10
934.000320435
 20
-339.874145508
 30
0.0
  0
VERTEX
  5
EAB
  8
CUTS
  6
BYBLOCK
 62
     4
 10
934.000320435
 20
-333.874145508
 30
0.0
  0
SEQEND
  5
1086
  8
CUTS
  6
BYBLOCK
 62
     4
  0
POLYLINE
  5
4AE
  8
CUTS
  6
BYBLOCK
 62
     4
 66
     1
 10
0.0
 20
0.0
 30
0.0
 70
     1
  0
VERTEX
  5
EAC
  8
CUTS
  6
BYBLOCK
 62
     4
 10
1327.00097656
 20
-178.499694824
 30
0.0
  0
VERTEX
  5
EAD
  8
CUTS
  6
BYBLOCK
 62
     4
 10
1321.00097656
 20
-178.499694824
 30
0.0
  0
VERTEX
  5
EAE
  8
CUTS
  6
BYBLOCK
 62
     4
 10
1321.00097656
 20
-186.499694824
 30
0.0
  0
VERTEX
  5
EAF
  8
CUTS
  6
BYBLOCK
 62
     4
 10
1327.00097656
 20
-186.499694824
 30
0.0
  0
VERTEX
  5
EB0
  8
CUTS
  6
BYBLOCK
 62
     4
 10
1327.00097656
 20
-196.499694824
 30
0.0
  0
VERTEX
  5
EB1
  8
CUTS
  6
BYBLOCK
 62
     4
 10
1327.00097656
 20
-202.499694824
 30
0.0
  0
VERTEX
  5
EB2
  8
CUTS
  6
BYBLOCK
 62
     4
 10
1335.00097656
 20
-202.499694824
 30
0.0
  0
VERTEX
  5
EB3
  8
CUTS
  6
BYBLOCK
 62
     4
 10
1335.00097656
 20
-196.499694824
 30
0.0
  0
VERTEX
  5
EB4
  8
CUTS
  6
BYBLOCK
 62
     4
 10
1379.00085449
 20
-196.499694824
 30
0.0
  0
VERTEX
  5
EB5
  8
CUTS
  6
BYBLOCK
 62
     4
 10
1379.00085449
 20
-202.499694824
 30
0.0
  0
VERTEX
  5
EB6
  8
CUTS
  6
BYBLOCK
 62
     4
 10
1387.00085449
 20
-202.499694824
 30
0.0
  0
VERTEX
  5
EB7
  8
CUTS
  6
BYBLOCK
 62
     4
 10
1387.00085449
 20
-196.499694824
 30
0.0
  0
VERTEX
  5
EB8
  8
CUTS
  6
BYBLOCK
 62
     4
 10
1387.00085449
 20
-186.499694824
 30
0.0
  0
VERTEX
  5
EB9
  8
CUTS
  6
BYBLOCK
 62
     4
 10
1393.00085449
 20
-186.499694824
 30
0.0
  0
VERTEX
  5
EBA
  8
CUTS
  6
BYBLOCK
 62
     4
 10
1393.00085449
 20
-178.499694824
 30
0.0
  0
VERTEX
  5
EBB
  8
CUTS
  6
BYBLOCK
 62
     4
 10
1387.00085449
 20
-178.499694824
 30
0.0
  0
SEQEND
  5
1087
  8
CUTS
  6
BYBLOCK
 62
     4
  0
POLYLINE
  5
4AF
  8
CUTS
  6
BYBLOCK
 62
     4
 66
     1
 10
0.0
 20
0.0
 30
0.0
 70
     1
  0
VERTEX
  5
EBC
  8
CUTS
  6
BYBLOCK
 62
     4
 10
2027.00097656
 20
-178.499694824
 30
0.0
  0
VERTEX
  5
EBD
  8
CUTS
  6
BYBLOCK
 62
     4
 10
2021.00097656
 20
-178.499694824
 30
0.0
  0
VERTEX
  5
EBE
  8
CUTS
  6
BYBLOCK
 62
     4
 10
2021.00097656
 20
-186.499694824
 30
0.0
  0
VERTEX
  5
EBF
  8
CUTS
  6
BYBLOCK
 62
     4
 10
2027.00097656
 20
-186.499694824
 30
0.0
  0
VERTEX
  5
EC0
  8
CUTS
  6
BYBLOCK
 62
     4
 10
2027.00097656
 20
-196.499694824
 30
0.0
  0
VERTEX
  5
EC1
  8
CUTS
  6
BYBLOCK
 62
     4
 10
2027.00097656
 20
-202.499694824
 30
0.0
  0
VERTEX
  5
EC2
  8
CUTS
  6
BYBLOCK
 62
     4
 10
2035.00097656
 20
-202.499694824
 30
0.0
  0
VERTEX
  5
EC3
  8
CUTS
  6
BYBLOCK
 62
     4
 10
2035.00097656
 20
-196.499694824
 30
0.0
  0
VERTEX
  5
EC4
  8
CUTS
  6
BYBLOCK
 62
     4
 10
2079.00085449
 20
-196.499694824
 30
0.0
  0
VERTEX
  5
EC5
  8
CUTS
  6
BYBLOCK
 62
     4
 10
2079.00085449
 20
-202.499694824
 30
0.0
  0
VERTEX
  5
EC6
  8
CUTS
  6
BYBLOCK
 62
     4
 10
2087.00085449
 20
-202.499694824
 30
0.0
  0
VERTEX
  5
EC7
  8
CUTS
  6
BYBLOCK
 62
     4
 10
2087.00085449
 20
-196.499694824
 30
0.0
  0
VERTEX
  5
EC8
  8
CUTS
  6
BYBLOCK
 62
     4
 10
2087.00085449
 20
-186.499694824
 30
0.0
  0
VERTEX
  5
EC9
  8
CUTS
  6
BYBLOCK
 62
     4
 10
2093.00085449
 20
-186.499694824
 30
0.0
  0
VERTEX
  5
ECA
  8
CUTS
  6
BYBLOCK
 62
     4
 10
2093.00085449
 20
-178.499694824
 30
0.0
  0
VERTEX
  5
ECB
  8
CUTS
  6
BYBLOCK
 62
     4
 10
2087.00085449
 20
-178.499694824
 30
0.0
  0
SEQEND
  5
1088
  8
CUTS
  6
BYBLOCK
 62
     4
  0
POLYLINE
  5
4B0
  8
CUTS
  6
BYBLOCK
 62
     4
 66
     1
 10
0.0
 20
0.0
 30
0.0
 70
     1
  0
VERTEX
  5
ECC
  8
CUTS
  6
BYBLOCK
 62
     4
 10
2927.00098256
 20
-253.496178402
 30
0.0
  0
VERTEX
  5
ECD
  8
CUTS
  6
BYBLOCK
 62
     4
 10
2921.00098256
 20
-253.496178402
 30
0.0
  0
VERTEX
  5
ECE
  8
CUTS
  6
BYBLOCK
 62
     4
 10
2921.00098256
 20
-261.496178402
 30
0.0
  0
VERTEX
  5
ECF
  8
CUTS
  6
BYBLOCK
 62
     4
 10
2927.00098256
 20
-261.496178402
 30
0.0
  0
VERTEX
  5
ED0
  8
CUTS
  6
BYBLOCK
 62
     4
 10
2927.00098256
 20
-271.496178402
 30
0.0
  0
VERTEX
  5
ED1
  8
CUTS
  6
BYBLOCK
 62
     4
 10
2927.00098256
 20
-277.496178402
 30
0.0
  0
VERTEX
  5
ED2
  8
CUTS
  6
BYBLOCK
 62
     4
 10
2935.00098256
 20
-277.496178402
 30
0.0
  0
VERTEX
  5
ED3
  8
CUTS
  6
BYBLOCK
 62
     4
 10
2935.00098256
 20
-271.496178402
 30
0.0
  0
VERTEX
  5
ED4
  8
CUTS
  6
BYBLOCK
 62
     4
 10
2979.00086049
 20
-271.496178402
 30
0.0
  0
VERTEX
  5
ED5
  8
CUTS
  6
BYBLOCK
 62
     4
 10
2979.00086049
 20
-277.496178402
 30
0.0
  0
VERTEX
  5
ED6
  8
CUTS
  6
BYBLOCK
 62
     4
 10
2987.00086049
 20
-277.496178402
 30
0.0
  0
VERTEX
  5
ED7
  8
CUTS
  6
BYBLOCK
 62
     4
 10
2987.00086049
 20
-271.496178402
 30
0.0
  0
VERTEX
  5
ED8
  8
CUTS
  6
BYBLOCK
 62
     4
 10
2987.00086049
 20
-261.496178402
 30
0.0
  0
VERTEX
  5
ED9
  8
CUTS
  6
BYBLOCK
 62
     4
 10
2993.00086049
 20
-261.496178402
 30
0.0
  0
VERTEX
  5
EDA
  8
CUTS
  6
BYBLOCK
 62
     4
 10
2993.00086049
 20
-253.496178402
 30
0.0
  0
VERTEX
  5
EDB
  8
CUTS
  6
BYBLOCK
 62
     4
 10
2987.00086049
 20
-253.496178402
 30
0.0
  0
SEQEND
  5
1089
  8
CUTS
  6
BYBLOCK
 62
     4
  0
POLYLINE
  5
4B1
  8
CUTS
  6
BYBLOCK
 62
     4
 66
     1
 10
0.0
 20
0.0
 30
0.0
 70
     1
  0
VERTEX
  5
EDC
  8
CUTS
  6
BYBLOCK
 62
     4
 10
1327.00097656
 20
-428.499206543
 30
0.0
  0
VERTEX
  5
EDD
  8
CUTS
  6
BYBLOCK
 62
     4
 10
1321.00097656
 20
-428.499206543
 30
0.0
  0
VERTEX
  5
EDE
  8
CUTS
  6
BYBLOCK
 62
     4
 10
1321.00097656
 20
-420.499206543
 30
0.0
  0
VERTEX
  5
EDF
  8
CUTS
  6
BYBLOCK
 62
     4
 10
1327.00097656
 20
-420.499206543
 30
0.0
  0
VERTEX
  5
EE0
  8
CUTS
  6
BYBLOCK
 62
     4
 10
1327.00097656
 20
-410.499206543
 30
0.0
  0
VERTEX
  5
EE1
  8
CUTS
  6
BYBLOCK
 62
     4
 10
1327.00097656
 20
-404.499206543
 30
0.0
  0
VERTEX
  5
EE2
  8
CUTS
  6
BYBLOCK
 62
     4
 10
1335.00097656
 20
-404.499206543
 30
0.0
  0
VERTEX
  5
EE3
  8
CUTS
  6
BYBLOCK
 62
     4
 10
1335.00097656
 20
-410.499206543
 30
0.0
  0
VERTEX
  5
EE4
  8
CUTS
  6
BYBLOCK
 62
     4
 10
1379.00085449
 20
-410.499206543
 30
0.0
  0
VERTEX
  5
EE5
  8
CUTS
  6
BYBLOCK
 62
     4
 10
1379.00085449
 20
-404.499206543
 30
0.0
  0
VERTEX
  5
EE6
  8
CUTS
  6
BYBLOCK
 62
     4
 10
1387.00085449
 20
-404.499206543
 30
0.0
  0
VERTEX
  5
EE7
  8
CUTS
  6
BYBLOCK
 62
     4
 10
1387.00085449
 20
-410.499206543
 30
0.0
  0
VERTEX
  5
EE8
  8
CUTS
  6
BYBLOCK
 62
     4
 10
1387.00085449
 20
-420.499206543
 30
0.0
  0
VERTEX
  5
EE9
  8
CUTS
  6
BYBLOCK
 62
     4
 10
1393.00085449
 20
-420.499206543
 30
0.0
  0
VERTEX
  5
EEA
  8
CUTS
  6
BYBLOCK
 62
     4
 10
1393.00085449
 20
-428.499206543
 30
0.0
  0
VERTEX
  5
EEB
  8
CUTS
  6
BYBLOCK
 62
     4
 10
1387.00085449
 20
-428.499206543
 30
0.0
  0
SEQEND
  5
108A
  8
CUTS
  6
BYBLOCK
 62
     4
  0
POLYLINE
  5
4B2
  8
CUTS
  6
BYBLOCK
 62
     4
 66
     1
 10
0.0
 20
0.0
 30
0.0
 70
     1
  0
VERTEX
  5
EEC
  8
CUTS
  6
BYBLOCK
 62
     4
 10
1627.00035095
 20
-428.499206543
 30
0.0
  0
VERTEX
  5
EED
  8
CUTS
  6
BYBLOCK
 62
     4
 10
1621.00035095
 20
-428.499206543
 30
0.0
  0
VERTEX
  5
EEE
  8
CUTS
  6
BYBLOCK
 62
     4
 10
1621.00035095
 20
-420.499206543
 30
0.0
  0
VERTEX
  5
EEF
  8
CUTS
  6
BYBLOCK
 62
     4
 10
1627.00035095
 20
-420.499206543
 30
0.0
  0
VERTEX
  5
EF0
  8
CUTS
  6
BYBLOCK
 62
     4
 10
1627.00035095
 20
-410.499206543
 30
0.0
  0
VERTEX
  5
EF1
  8
CUTS
  6
BYBLOCK
 62
     4
 10
1627.00035095
 20
-404.499206543
 30
0.0
  0
VERTEX
  5
EF2
  8
CUTS
  6
BYBLOCK
 62
     4
 10
1635.00035095
 20
-404.499206543
 30
0.0
  0
VERTEX
  5
EF3
  8
CUTS
  6
BYBLOCK
 62
     4
 10
1635.00035095
 20
-410.499206543
 30
0.0
  0
VERTEX
  5
EF4
  8
CUTS
  6
BYBLOCK
 62
     4
 10
1679.00022888
 20
-410.499206543
 30
0.0
  0
VERTEX
  5
EF5
  8
CUTS
  6
BYBLOCK
 62
     4
 10
1679.00022888
 20
-404.499206543
 30
0.0
  0
VERTEX
  5
EF6
  8
CUTS
  6
BYBLOCK
 62
     4
 10
1687.00022888
 20
-404.499206543
 30
0.0
  0
VERTEX
  5
EF7
  8
CUTS
  6
BYBLOCK
 62
     4
 10
1687.00022888
 20
-410.499206543
 30
0.0
  0
VERTEX
  5
EF8
  8
CUTS
  6
BYBLOCK
 62
     4
 10
1687.00022888
 20
-420.499206543
 30
0.0
  0
VERTEX
  5
EF9
  8
CUTS
  6
BYBLOCK
 62
     4
 10
1693.00022888
 20
-420.499206543
 30
0.0
  0
VERTEX
  5
EFA
  8
CUTS
  6
BYBLOCK
 62
     4
 10
1693.00022888
 20
-428.499206543
 30
0.0
  0
VERTEX
  5
EFB
  8
CUTS
  6
BYBLOCK
 62
     4
 10
1687.00022888
 20
-428.499206543
 30
0.0
  0
SEQEND
  5
108B
  8
CUTS
  6
BYBLOCK
 62
     4
  0
POLYLINE
  5
4B3
  8
CUTS
  6
BYBLOCK
 62
     4
 66
     1
 10
0.0
 20
0.0
 30
0.0
 70
     1
  0
VERTEX
  5
EFC
  8
CUTS
  6
BYBLOCK
 62
     4
 10
2027.00097656
 20
-428.499206543
 30
0.0
  0
VERTEX
  5
EFD
  8
CUTS
  6
BYBLOCK
 62
     4
 10
2021.00097656
 20
-428.499206543
 30
0.0
  0
VERTEX
  5
EFE
  8
CUTS
  6
BYBLOCK
 62
     4
 10
2021.00097656
 20
-420.499206543
 30
0.0
  0
VERTEX
  5
EFF
  8
CUTS
  6
BYBLOCK
 62
     4
 10
2027.00097656
 20
-420.499206543
 30
0.0
  0
VERTEX
  5
F00
  8
CUTS
  6
BYBLOCK
 62
     4
 10
2027.00097656
 20
-410.499206543
 30
0.0
  0
VERTEX
  5
F01
  8
CUTS
  6
BYBLOCK
 62
     4
 10
2027.00097656
 20
-404.499206543
 30
0.0
  0
VERTEX
  5
F02
  8
CUTS
  6
BYBLOCK
 62
     4
 10
2035.00097656
 20
-404.499206543
 30
0.0
  0
VERTEX
  5
F03
  8
CUTS
  6
BYBLOCK
 62
     4
 10
2035.00097656
 20
-410.499206543
 30
0.0
  0
VERTEX
  5
F04
  8
CUTS
  6
BYBLOCK
 62
     4
 10
2079.00085449
 20
-410.499206543
 30
0.0
  0
VERTEX
  5
F05
  8
CUTS
  6
BYBLOCK
 62
     4
 10
2079.00085449
 20
-404.499206543
 30
0.0
  0
VERTEX
  5
F06
  8
CUTS
  6
BYBLOCK
 62
     4
 10
2087.00085449
 20
-404.499206543
 30
0.0
  0
VERTEX
  5
F07
  8
CUTS
  6
BYBLOCK
 62
     4
 10
2087.00085449
 20
-410.499206543
 30
0.0
  0
VERTEX
  5
F08
  8
CUTS
  6
BYBLOCK
 62
     4
 10
2087.00085449
 20
-420.499206543
 30
0.0
  0
VERTEX
  5
F09
  8
CUTS
  6
BYBLOCK
 62
     4
 10
2093.00085449
 20
-420.499206543
 30
0.0
  0
VERTEX
  5
F0A
  8
CUTS
  6
BYBLOCK
 62
     4
 10
2093.00085449
 20
-428.499206543
 30
0.0
  0
VERTEX
  5
F0B
  8
CUTS
  6
BYBLOCK
 62
     4
 10
2087.00085449
 20
-428.499206543
 30
0.0
  0
SEQEND
  5
108C
  8
CUTS
  6
BYBLOCK
 62
     4
  0
POLYLINE
  5
4B4
  8
CUTS
  6
BYBLOCK
 62
     4
 66
     1
 10
0.0
 20
0.0
 30
0.0
 70
     1
  0
VERTEX
  5
F0C
  8
CUTS
  6
BYBLOCK
 62
     4
 10
2327.00035095
 20
-428.499206543
 30
0.0
  0
VERTEX
  5
F0D
  8
CUTS
  6
BYBLOCK
 62
     4
 10
2321.00035095
 20
-428.499206543
 30
0.0
  0
VERTEX
  5
F0E
  8
CUTS
  6
BYBLOCK
 62
     4
 10
2321.00035095
 20
-420.499206543
 30
0.0
  0
VERTEX
  5
F0F
  8
CUTS
  6
BYBLOCK
 62
     4
 10
2327.00035095
 20
-420.499206543
 30
0.0
  0
VERTEX
  5
F10
  8
CUTS
  6
BYBLOCK
 62
     4
 10
2327.00035095
 20
-410.499206543
 30
0.0
  0
VERTEX
  5
F11
  8
CUTS
  6
BYBLOCK
 62
     4
 10
2327.00035095
 20
-404.499206543
 30
0.0
  0
VERTEX
  5
F12
  8
CUTS
  6
BYBLOCK
 62
     4
 10
2335.00035095
 20
-404.499206543
 30
0.0
  0
VERTEX
  5
F13
  8
CUTS
  6
BYBLOCK
 62
     4
 10
2335.00035095
 20
-410.499206543
 30
0.0
  0
VERTEX
  5
F14
  8
CUTS
  6
BYBLOCK
 62
     4
 10
2379.000228880001
 20
-410.499206543
 30
0.0
  0
VERTEX
  5
F15
  8
CUTS
  6
BYBLOCK
 62
     4
 10
2379.000228880001
 20
-404.499206543
 30
0.0
  0
VERTEX
  5
F16
  8
CUTS
  6
BYBLOCK
 62
     4
 10
2387.000228880001
 20
-404.499206543
 30
0.0
  0
VERTEX
  5
F17
  8
CUTS
  6
BYBLOCK
 62
     4
 10
2387.000228880001
 20
-410.499206543
 30
0.0
  0
VERTEX
  5
F18
  8
CUTS
  6
BYBLOCK
 62
     4
 10
2387.000228880001
 20
-420.499206543
 30
0.0
  0
VERTEX
  5
F19
  8
CUTS
  6
BYBLOCK
 62
     4
 10
2393.000228880001
 20
-420.499206543
 30
0.0
  0
VERTEX
  5
F1A
  8
CUTS
  6
BYBLOCK
 62
     4
 10
2393.000228880001
 20
-428.499206543
 30
0.0
  0
VERTEX
  5
F1B
  8
CUTS
  6
BYBLOCK
 62
     4
 10
2387.000228880001
 20
-428.499206543
 30
0.0
  0
SEQEND
  5
108D
  8
CUTS
  6
BYBLOCK
 62
     4
  0
POLYLINE
  5
4B5
  8
CUTS
  6
BYBLOCK
 62
     4
 66
     1
 10
0.0
 20
0.0
 30
0.0
 70
     1
  0
VERTEX
  5
F1C
  8
CUTS
  6
BYBLOCK
 62
     4
 10
2927.00098256
 20
-503.49569012
 30
0.0
  0
VERTEX
  5
F1D
  8
CUTS
  6
BYBLOCK
 62
     4
 10
2921.00098256
 20
-503.49569012
 30
0.0
  0
VERTEX
  5
F1E
  8
CUTS
  6
BYBLOCK
 62
     4
 10
2921.00098256
 20
-495.49569012
 30
0.0
  0
VERTEX
  5
F1F
  8
CUTS
  6
BYBLOCK
 62
     4
 10
2927.00098256
 20
-495.49569012
 30
0.0
  0
VERTEX
  5
F20
  8
CUTS
  6
BYBLOCK
 62
     4
 10
2927.00098256
 20
-485.49569012
 30
0.0
  0
VERTEX
  5
F21
  8
CUTS
  6
BYBLOCK
 62
     4
 10
2927.00098256
 20
-479.49569012
 30
0.0
  0
VERTEX
  5
F22
  8
CUTS
  6
BYBLOCK
 62
     4
 10
2935.00098256
 20
-479.49569012
 30
0.0
  0
VERTEX
  5
F23
  8
CUTS
  6
BYBLOCK
 62
     4
 10
2935.00098256
 20
-485.49569012
 30
0.0
  0
VERTEX
  5
F24
  8
CUTS
  6
BYBLOCK
 62
     4
 10
2979.00086049
 20
-485.49569012
 30
0.0
  0
VERTEX
  5
F25
  8
CUTS
  6
BYBLOCK
 62
     4
 10
2979.00086049
 20
-479.49569012
 30
0.0
  0
VERTEX
  5
F26
  8
CUTS
  6
BYBLOCK
 62
     4
 10
2987.00086049
 20
-479.49569012
 30
0.0
  0
VERTEX
  5
F27
  8
CUTS
  6
BYBLOCK
 62
     4
 10
2987.00086049
 20
-485.49569012
 30
0.0
  0
VERTEX
  5
F28
  8
CUTS
  6
BYBLOCK
 62
     4
 10
2987.00086049
 20
-495.49569012
 30
0.0
  0
VERTEX
  5
F29
  8
CUTS
  6
BYBLOCK
 62
     4
 10
2993.00086049
 20
-495.49569012
 30
0.0
  0
VERTEX
  5
F2A
  8
CUTS
  6
BYBLOCK
 62
     4
 10
2993.00086049
 20
-503.49569012
 30
0.0
  0
VERTEX
  5
F2B
  8
CUTS
  6
BYBLOCK
 62
     4
 10
2987.00086049
 20
-503.49569012
 30
0.0
  0
SEQEND
  5
108E
  8
CUTS
  6
BYBLOCK
 62
     4
  0
POLYLINE
  5
4B6
  8
CUTS
  6
BYBLOCK
 62
     4
 66
     1
 10
0.0
 20
0.0
 30
0.0
 70
     1
  0
VERTEX
  5
F2C
  8
CUTS
  6
BYBLOCK
 62
     4
 10
3227.00034169
 20
-503.49569012
 30
0.0
  0
VERTEX
  5
F2D
  8
CUTS
  6
BYBLOCK
 62
     4
 10
3221.00034169
 20
-503.49569012
 30
0.0
  0
VERTEX
  5
F2E
  8
CUTS
  6
BYBLOCK
 62
     4
 10
3221.00034169
 20
-495.49569012
 30
0.0
  0
VERTEX
  5
F2F
  8
CUTS
  6
BYBLOCK
 62
     4
 10
3227.00034169
 20
-495.49569012
 30
0.0
  0
VERTEX
  5
F30
  8
CUTS
  6
BYBLOCK
 62
     4
 10
3227.00034169
 20
-485.49569012
 30
0.0
  0
VERTEX
  5
F31
  8
CUTS
  6
BYBLOCK
 62
     4
 10
3227.00034169
 20
-479.49569012
 30
0.0
  0
VERTEX
  5
F32
  8
CUTS
  6
BYBLOCK
 62
     4
 10
3235.00034169
 20
-479.49569012
 30
0.0
  0
VERTEX
  5
F33
  8
CUTS
  6
BYBLOCK
 62
     4
 10
3235.00034169
 20
-485.49569012
 30
0.0
  0
VERTEX
  5
F34
  8
CUTS
  6
BYBLOCK
 62
     4
 10
3279.00021962
 20
-485.49569012
 30
0.0
  0
VERTEX
  5
F35
  8
CUTS
  6
BYBLOCK
 62
     4
 10
3279.00021962
 20
-479.49569012
 30
0.0
  0
VERTEX
  5
F36
  8
CUTS
  6
BYBLOCK
 62
     4
 10
3287.00021962
 20
-479.49569012
 30
0.0
  0
VERTEX
  5
F37
  8
CUTS
  6
BYBLOCK
 62
     4
 10
3287.00021962
 20
-485.49569012
 30
0.0
  0
VERTEX
  5
F38
  8
CUTS
  6
BYBLOCK
 62
     4
 10
3287.00021962
 20
-495.49569012
 30
0.0
  0
VERTEX
  5
F39
  8
CUTS
  6
BYBLOCK
 62
     4
 10
3293.00021962
 20
-495.49569012
 30
0.0
  0
VERTEX
  5
F3A
  8
CUTS
  6
BYBLOCK
 62
     4
 10
3293.00021962
 20
-503.49569012
 30
0.0
  0
VERTEX
  5
F3B
  8
CUTS
  6
BYBLOCK
 62
     4
 10
3287.00021962
 20
-503.49569012
 30
0.0
  0
SEQEND
  5
108F
  8
CUTS
  6
BYBLOCK
 62
     4
  0
POLYLINE
  5
4B7
  8
CUTS
  6
BYBLOCK
 62
     4
 66
     1
 10
0.0
 20
0.0
 30
0.0
 70
     1
  0
VERTEX
  5
F3C
  8
CUTS
  6
BYBLOCK
 62
     4
 10
832.000518799
 20
-54.87493896500496
 30
0.0
  0
VERTEX
  5
F3D
  8
CUTS
  6
BYBLOCK
 62
     4
 10
832.000518799
 20
-60.87493896500496
 30
0.0
  0
VERTEX
  5
F3E
  8
CUTS
  6
BYBLOCK
 62
     4
 10
840.000518799
 20
-60.87493896500496
 30
0.0
  0
VERTEX
  5
F3F
  8
CUTS
  6
BYBLOCK
 62
     4
 10
840.000518799
 20
-54.87493896500496
 30
0.0
  0
VERTEX
  5
F40
  8
CUTS
  6
BYBLOCK
 62
     4
 10
850.000518799
 20
-54.87493896500496
 30
0.0
  0
VERTEX
  5
F41
  8
CUTS
  6
BYBLOCK
 62
     4
 10
856.000518799
 20
-54.87493896500496
 30
0.0
  0
VERTEX
  5
F42
  8
CUTS
  6
BYBLOCK
 62
     4
 10
856.000518799
 20
-46.87493896500496
 30
0.0
  0
VERTEX
  5
F43
  8
CUTS
  6
BYBLOCK
 62
     4
 10
850.000518799
 20
-46.87493896500496
 30
0.0
  0
VERTEX
  5
F44
  8
CUTS
  6
BYBLOCK
 62
     4
 10
850.000518799
 20
-2.875061035004933
 30
0.0
  0
VERTEX
  5
F45
  8
CUTS
  6
BYBLOCK
 62
     4
 10
856.000518799
 20
-2.875061035004933
 30
0.0
  0
VERTEX
  5
F46
  8
CUTS
  6
BYBLOCK
 62
     4
 10
856.000518799
 20
5.124938964995067
 30
0.0
  0
VERTEX
  5
F47
  8
CUTS
  6
BYBLOCK
 62
     4
 10
850.000518799
 20
5.124938964995067
 30
0.0
  0
VERTEX
  5
F48
  8
CUTS
  6
BYBLOCK
 62
     4
 10
840.000518799
 20
5.124938964995067
 30
0.0
  0
VERTEX
  5
F49
  8
CUTS
  6
BYBLOCK
 62
     4
 10
840.000518799
 20
11.12493896499507
 30
0.0
  0
VERTEX
  5
F4A
  8
CUTS
  6
BYBLOCK
 62
     4
 10
832.000518799
 20
11.12493896499507
 30
0.0
  0
VERTEX
  5
F4B
  8
CUTS
  6
BYBLOCK
 62
     4
 10
832.000518799
 20
5.124938964995067
 30
0.0
  0
SEQEND
  5
1090
  8
CUTS
  6
BYBLOCK
 62
     4
  0
POLYLINE
  5
4B8
  8
CUTS
  6
BYBLOCK
 62
     4
 66
     1
 10
0.0
 20
0.0
 30
0.0
 70
     1
  0
VERTEX
  5
F4C
  8
CUTS
  6
BYBLOCK
 62
     4
 10
1082.000045776
 20
-54.87493896500496
 30
0.0
  0
VERTEX
  5
F4D
  8
CUTS
  6
BYBLOCK
 62
     4
 10
1082.000045776
 20
-60.87493896500496
 30
0.0
  0
VERTEX
  5
F4E
  8
CUTS
  6
BYBLOCK
 62
     4
 10
1074.000045776
 20
-60.87493896500496
 30
0.0
  0
VERTEX
  5
F4F
  8
CUTS
  6
BYBLOCK
 62
     4
 10
1074.000045776
 20
-54.87493896500496
 30
0.0
  0
VERTEX
  5
F50
  8
CUTS
  6
BYBLOCK
 62
     4
 10
1064.000045776
 20
-54.87493896500496
 30
0.0
  0
VERTEX
  5
F51
  8
CUTS
  6
BYBLOCK
 62
     4
 10
1058.000045776
 20
-54.87493896500496
 30
0.0
  0
VERTEX
  5
F52
  8
CUTS
  6
BYBLOCK
 62
     4
 10
1058.000045776
 20
-46.87493896500496
 30
0.0
  0
VERTEX
  5
F53
  8
CUTS
  6
BYBLOCK
 62
     4
 10
1064.000045776
 20
-46.87493896500496
 30
0.0
  0
VERTEX
  5
F54
  8
CUTS
  6
BYBLOCK
 62
     4
 10
1064.000045776
 20
-2.875061035004933
 30
0.0
  0
VERTEX
  5
F55
  8
CUTS
  6
BYBLOCK
 62
     4
 10
1058.000045776
 20
-2.875061035004933
 30
0.0
  0
VERTEX
  5
F56
  8
CUTS
  6
BYBLOCK
 62
     4
 10
1058.000045776
 20
5.124938964995067
 30
0.0
  0
VERTEX
  5
F57
  8
CUTS
  6
BYBLOCK
 62
     4
 10
1064.000045776
 20
5.124938964995067
 30
0.0
  0
VERTEX
  5
F58
  8
CUTS
  6
BYBLOCK
 62
     4
 10
1074.000045776
 20
5.124938964995067
 30
0.0
  0
VERTEX
  5
F59
  8
CUTS
  6
BYBLOCK
 62
     4
 10
1074.000045776
 20
11.12493896499507
 30
0.0
  0
VERTEX
  5
F5A
  8
CUTS
  6
BYBLOCK
 62
     4
 10
1082.000045776
 20
11.12493896499507
 30
0.0
  0
VERTEX
  5
F5B
  8
CUTS
  6
BYBLOCK
 62
     4
 10
1082.000045776
 20
5.124938964995067
 30
0.0
  0
SEQEND
  5
1091
  8
CUTS
  6
BYBLOCK
 62
     4
  0
POLYLINE
  5
4B9
  8
CUTS
  6
BYBLOCK
 62
     4
 66
     1
 10
0.0
 20
0.0
 30
0.0
 70
     1
  0
VERTEX
  5
F5C
  8
CUTS
  6
BYBLOCK
 62
     4
 10
832.000549316
 20
245.124389648
 30
0.0
  0
VERTEX
  5
F5D
  8
CUTS
  6
BYBLOCK
 62
     4
 10
832.000549316
 20
239.124389648
 30
0.0
  0
VERTEX
  5
F5E
  8
CUTS
  6
BYBLOCK
 62
     4
 10
840.000549316
 20
239.124389648
 30
0.0
  0
VERTEX
  5
F5F
  8
CUTS
  6
BYBLOCK
 62
     4
 10
840.000549316
 20
245.124389648
 30
0.0
  0
VERTEX
  5
F60
  8
CUTS
  6
BYBLOCK
 62
     4
 10
850.000549316
 20
245.124389648
 30
0.0
  0
VERTEX
  5
F61
  8
CUTS
  6
BYBLOCK
 62
     4
 10
856.000549316
 20
245.124389648
 30
0.0
  0
VERTEX
  5
F62
  8
CUTS
  6
BYBLOCK
 62
     4
 10
856.000549316
 20
253.124389648
 30
0.0
  0
VERTEX
  5
F63
  8
CUTS
  6
BYBLOCK
 62
     4
 10
850.000549316
 20
253.124389648
 30
0.0
  0
VERTEX
  5
F64
  8
CUTS
  6
BYBLOCK
 62
     4
 10
850.000549316
 20
297.124267578
 30
0.0
  0
VERTEX
  5
F65
  8
CUTS
  6
BYBLOCK
 62
     4
 10
856.000549316
 20
297.124267578
 30
0.0
  0
VERTEX
  5
F66
  8
CUTS
  6
BYBLOCK
 62
     4
 10
856.000549316
 20
305.124267578
 30
0.0
  0
VERTEX
  5
F67
  8
CUTS
  6
BYBLOCK
 62
     4
 10
850.000549316
 20
305.124267578
 30
0.0
  0
VERTEX
  5
F68
  8
CUTS
  6
BYBLOCK
 62
     4
 10
840.000549316
 20
305.124267578
 30
0.0
  0
VERTEX
  5
F69
  8
CUTS
  6
BYBLOCK
 62
     4
 10
840.000549316
 20
311.124267578
 30
0.0
  0
VERTEX
  5
F6A
  8
CUTS
  6
BYBLOCK
 62
     4
 10
832.000549316
 20
311.124267578
 30
0.0
  0
VERTEX
  5
F6B
  8
CUTS
  6
BYBLOCK
 62
     4
 10
832.000549316
 20
305.124267578
 30
0.0
  0
SEQEND
  5
1092
  8
CUTS
  6
BYBLOCK
 62
     4
  0
POLYLINE
  5
4BA
  8
CUTS
  6
BYBLOCK
 62
     4
 66
     1
 10
0.0
 20
0.0
 30
0.0
 70
     1
  0
VERTEX
  5
F6C
  8
CUTS
  6
BYBLOCK
 62
     4
 10
1532.00054932
 20
266.4994506835
 30
0.0
  0
VERTEX
  5
F6D
  8
CUTS
  6
BYBLOCK
 62
     4
 10
1532.00054932
 20
260.4994506835
 30
0.0
  0
VERTEX
  5
F6E
  8
CUTS
  6
BYBLOCK
 62
     4
 10
1540.00054932
 20
260.4994506835
 30
0.0
  0
VERTEX
  5
F6F
  8
CUTS
  6
BYBLOCK
 62
     4
 10
1540.00054932
 20
266.4994506835
 30
0.0
  0
VERTEX
  5
F70
  8
CUTS
  6
BYBLOCK
 62
     4
 10
1550.00054932
 20
266.4994506835
 30
0.0
  0
VERTEX
  5
F71
  8
CUTS
  6
BYBLOCK
 62
     4
 10
1556.00054932
 20
266.4994506835
 30
0.0
  0
VERTEX
  5
F72
  8
CUTS
  6
BYBLOCK
 62
     4
 10
1556.00054932
 20
274.4994506835
 30
0.0
  0
VERTEX
  5
F73
  8
CUTS
  6
BYBLOCK
 62
     4
 10
1550.00054932
 20
274.4994506835
 30
0.0
  0
VERTEX
  5
F74
  8
CUTS
  6
BYBLOCK
 62
     4
 10
1550.00054932
 20
318.4993286135
 30
0.0
  0
VERTEX
  5
F75
  8
CUTS
  6
BYBLOCK
 62
     4
 10
1556.00054932
 20
318.4993286135
 30
0.0
  0
VERTEX
  5
F76
  8
CUTS
  6
BYBLOCK
 62
     4
 10
1556.00054932
 20
326.4993286135
 30
0.0
  0
VERTEX
  5
F77
  8
CUTS
  6
BYBLOCK
 62
     4
 10
1550.00054932
 20
326.4993286135
 30
0.0
  0
VERTEX
  5
F78
  8
CUTS
  6
BYBLOCK
 62
     4
 10
1540.00054932
 20
326.4993286135
 30
0.0
  0
VERTEX
  5
F79
  8
CUTS
  6
BYBLOCK
 62
     4
 10
1540.00054932
 20
332.4993286135
 30
0.0
  0
VERTEX
  5
F7A
  8
CUTS
  6
BYBLOCK
 62
     4
 10
1532.00054932
 20
332.4993286135
 30
0.0
  0
VERTEX
  5
F7B
  8
CUTS
  6
BYBLOCK
 62
     4
 10
1532.00054932
 20
326.4993286135
 30
0.0
  0
SEQEND
  5
1093
  8
CUTS
  6
BYBLOCK
 62
     4
  0
POLYLINE
  5
4BB
  8
CUTS
  6
BYBLOCK
 62
     4
 66
     1
 10
0.0
 20
0.0
 30
0.0
 70
     1
  0
VERTEX
  5
F7C
  8
CUTS
  6
BYBLOCK
 62
     4
 10
1532.00054932
 20
-33.50000000020001
 30
0.0
  0
VERTEX
  5
F7D
  8
CUTS
  6
BYBLOCK
 62
     4
 10
1532.00054932
 20
-39.50000000020001
 30
0.0
  0
VERTEX
  5
F7E
  8
CUTS
  6
BYBLOCK
 62
     4
 10
1540.00054932
 20
-39.50000000020001
 30
0.0
  0
VERTEX
  5
F7F
  8
CUTS
  6
BYBLOCK
 62
     4
 10
1540.00054932
 20
-33.50000000020001
 30
0.0
  0
VERTEX
  5
F80
  8
CUTS
  6
BYBLOCK
 62
     4
 10
1550.00054932
 20
-33.50000000020001
 30
0.0
  0
VERTEX
  5
F81
  8
CUTS
  6
BYBLOCK
 62
     4
 10
1556.00054932
 20
-33.50000000020001
 30
0.0
  0
VERTEX
  5
F82
  8
CUTS
  6
BYBLOCK
 62
     4
 10
1556.00054932
 20
-25.50000000020001
 30
0.0
  0
VERTEX
  5
F83
  8
CUTS
  6
BYBLOCK
 62
     4
 10
1550.00054932
 20
-25.50000000020001
 30
0.0
  0
VERTEX
  5
F84
  8
CUTS
  6
BYBLOCK
 62
     4
 10
1550.00054932
 20
18.49987792980001
 30
0.0
  0
VERTEX
  5
F85
  8
CUTS
  6
BYBLOCK
 62
     4
 10
1556.00054932
 20
18.49987792980001
 30
0.0
  0
VERTEX
  5
F86
  8
CUTS
  6
BYBLOCK
 62
     4
 10
1556.00054932
 20
26.49987792980001
 30
0.0
  0
VERTEX
  5
F87
  8
CUTS
  6
BYBLOCK
 62
     4
 10
1550.00054932
 20
26.49987792980001
 30
0.0
  0
VERTEX
  5
F88
  8
CUTS
  6
BYBLOCK
 62
     4
 10
1540.00054932
 20
26.49987792980001
 30
0.0
  0
VERTEX
  5
F89
  8
CUTS
  6
BYBLOCK
 62
     4
 10
1540.00054932
 20
32.49987792980001
 30
0.0
  0
VERTEX
  5
F8A
  8
CUTS
  6
BYBLOCK
 62
     4
 10
1532.00054932
 20
32.49987792980001
 30
0.0
  0
VERTEX
  5
F8B
  8
CUTS
  6
BYBLOCK
 62
     4
 10
1532.00054932
 20
26.49987792980001
 30
0.0
  0
SEQEND
  5
1094
  8
CUTS
  6
BYBLOCK
 62
     4
  0
POLYLINE
  5
4BC
  8
CUTS
  6
BYBLOCK
 62
     4
 66
     1
 10
0.0
 20
0.0
 30
0.0
 70
     1
  0
VERTEX
  5
F8C
  8
CUTS
  6
BYBLOCK
 62
     4
 10
2232.00054932
 20
266.4994506835
 30
0.0
  0
VERTEX
  5
F8D
  8
CUTS
  6
BYBLOCK
 62
     4
 10
2232.00054932
 20
260.4994506835
 30
0.0
  0
VERTEX
  5
F8E
  8
CUTS
  6
BYBLOCK
 62
     4
 10
2240.00054932
 20
260.4994506835
 30
0.0
  0
VERTEX
  5
F8F
  8
CUTS
  6
BYBLOCK
 62
     4
 10
2240.00054932
 20
266.4994506835
 30
0.0
  0
VERTEX
  5
F90
  8
CUTS
  6
BYBLOCK
 62
     4
 10
2250.00054932
 20
266.4994506835
 30
0.0
  0
VERTEX
  5
F91
  8
CUTS
  6
BYBLOCK
 62
     4
 10
2256.00054932
 20
266.4994506835
 30
0.0
  0
VERTEX
  5
F92
  8
CUTS
  6
BYBLOCK
 62
     4
 10
2256.00054932
 20
274.4994506835
 30
0.0
  0
VERTEX
  5
F93
  8
CUTS
  6
BYBLOCK
 62
     4
 10
2250.00054932
 20
274.4994506835
 30
0.0
  0
VERTEX
  5
F94
  8
CUTS
  6
BYBLOCK
 62
     4
 10
2250.00054932
 20
318.4993286135
 30
0.0
  0
VERTEX
  5
F95
  8
CUTS
  6
BYBLOCK
 62
     4
 10
2256.00054932
 20
318.4993286135
 30
0.0
  0
VERTEX
  5
F96
  8
CUTS
  6
BYBLOCK
 62
     4
 10
2256.00054932
 20
326.4993286135
 30
0.0
  0
VERTEX
  5
F97
  8
CUTS
  6
BYBLOCK
 62
     4
 10
2250.00054932
 20
326.4993286135
 30
0.0
  0
VERTEX
  5
F98
  8
CUTS
  6
BYBLOCK
 62
     4
 10
2240.00054932
 20
326.4993286135
 30
0.0
  0
VERTEX
  5
F99
  8
CUTS
  6
BYBLOCK
 62
     4
 10
2240.00054932
 20
332.4993286135
 30
0.0
  0
VERTEX
  5
F9A
  8
CUTS
  6
BYBLOCK
 62
     4
 10
2232.00054932
 20
332.4993286135
 30
0.0
  0
VERTEX
  5
F9B
  8
CUTS
  6
BYBLOCK
 62
     4
 10
2232.00054932
 20
326.4993286135
 30
0.0
  0
SEQEND
  5
1095
  8
CUTS
  6
BYBLOCK
 62
     4
  0
POLYLINE
  5
4BD
  8
CUTS
  6
BYBLOCK
 62
     4
 66
     1
 10
0.0
 20
0.0
 30
0.0
 70
     1
  0
VERTEX
  5
F9C
  8
CUTS
  6
BYBLOCK
 62
     4
 10
2232.00054932
 20
-33.50000000020001
 30
0.0
  0
VERTEX
  5
F9D
  8
CUTS
  6
BYBLOCK
 62
     4
 10
2232.00054932
 20
-39.50000000020001
 30
0.0
  0
VERTEX
  5
F9E
  8
CUTS
  6
BYBLOCK
 62
     4
 10
2240.00054932
 20
-39.50000000020001
 30
0.0
  0
VERTEX
  5
F9F
  8
CUTS
  6
BYBLOCK
 62
     4
 10
2240.00054932
 20
-33.50000000020001
 30
0.0
  0
VERTEX
  5
FA0
  8
CUTS
  6
BYBLOCK
 62
     4
 10
2250.00054932
 20
-33.50000000020001
 30
0.0
  0
VERTEX
  5
FA1
  8
CUTS
  6
BYBLOCK
 62
     4
 10
2256.00054932
 20
-33.50000000020001
 30
0.0
  0
VERTEX
  5
FA2
  8
CUTS
  6
BYBLOCK
 62
     4
 10
2256.00054932
 20
-25.50000000020001
 30
0.0
  0
VERTEX
  5
FA3
  8
CUTS
  6
BYBLOCK
 62
     4
 10
2250.00054932
 20
-25.50000000020001
 30
0.0
  0
VERTEX
  5
FA4
  8
CUTS
  6
BYBLOCK
 62
     4
 10
2250.00054932
 20
18.49987792980001
 30
0.0
  0
VERTEX
  5
FA5
  8
CUTS
  6
BYBLOCK
 62
     4
 10
2256.00054932
 20
18.49987792980001
 30
0.0
  0
VERTEX
  5
FA6
  8
CUTS
  6
BYBLOCK
 62
     4
 10
2256.00054932
 20
26.49987792980001
 30
0.0
  0
VERTEX
  5
FA7
  8
CUTS
  6
BYBLOCK
 62
     4
 10
2250.00054932
 20
26.49987792980001
 30
0.0
  0
VERTEX
  5
FA8
  8
CUTS
  6
BYBLOCK
 62
     4
 10
2240.00054932
 20
26.49987792980001
 30
0.0
  0
VERTEX
  5
FA9
  8
CUTS
  6
BYBLOCK
 62
     4
 10
2240.00054932
 20
32.49987792980001
 30
0.0
  0
VERTEX
  5
FAA
  8
CUTS
  6
BYBLOCK
 62
     4
 10
2232.00054932
 20
32.49987792980001
 30
0.0
  0
VERTEX
  5
FAB
  8
CUTS
  6
BYBLOCK
 62
     4
 10
2232.00054932
 20
26.49987792980001
 30
0.0
  0
SEQEND
  5
1096
  8
CUTS
  6
BYBLOCK
 62
     4
  0
POLYLINE
  5
4BE
  8
CUTS
  6
BYBLOCK
 62
     4
 66
     1
 10
0.0
 20
0.0
 30
0.0
 70
     1
  0
VERTEX
  5
FAC
  8
CUTS
  6
BYBLOCK
 62
     4
 10
3132.0005248
 20
-108.4967277182
 30
0.0
  0
VERTEX
  5
FAD
  8
CUTS
  6
BYBLOCK
 62
     4
 10
3132.0005248
 20
-114.4967277182
 30
0.0
  0
VERTEX
  5
FAE
  8
CUTS
  6
BYBLOCK
 62
     4
 10
3140.0005248
 20
-114.4967277182
 30
0.0
  0
VERTEX
  5
FAF
  8
CUTS
  6
BYBLOCK
 62
     4
 10
3140.0005248
 20
-108.4967277182
 30
0.0
  0
VERTEX
  5
FB0
  8
CUTS
  6
BYBLOCK
 62
     4
 10
3150.0005248
 20
-108.4967277182
 30
0.0
  0
VERTEX
  5
FB1
  8
CUTS
  6
BYBLOCK
 62
     4
 10
3156.0005248
 20
-108.4967277182
 30
0.0
  0
VERTEX
  5
FB2
  8
CUTS
  6
BYBLOCK
 62
     4
 10
3156.0005248
 20
-100.4967277182
 30
0.0
  0
VERTEX
  5
FB3
  8
CUTS
  6
BYBLOCK
 62
     4
 10
3150.0005248
 20
-100.4967277182
 30
0.0
  0
VERTEX
  5
FB4
  8
CUTS
  6
BYBLOCK
 62
     4
 10
3150.0005248
 20
-56.4968497882
 30
0.0
  0
VERTEX
  5
FB5
  8
CUTS
  6
BYBLOCK
 62
     4
 10
3156.0005248
 20
-56.4968497882
 30
0.0
  0
VERTEX
  5
FB6
  8
CUTS
  6
BYBLOCK
 62
     4
 10
3156.0005248
 20
-48.4968497882
 30
0.0
  0
VERTEX
  5
FB7
  8
CUTS
  6
BYBLOCK
 62
     4
 10
3150.0005248
 20
-48.4968497882
 30
0.0
  0
VERTEX
  5
FB8
  8
CUTS
  6
BYBLOCK
 62
     4
 10
3140.0005248
 20
-48.4968497882
 30
0.0
  0
VERTEX
  5
FB9
  8
CUTS
  6
BYBLOCK
 62
     4
 10
3140.0005248
 20
-42.4968497882
 30
0.0
  0
VERTEX
  5
FBA
  8
CUTS
  6
BYBLOCK
 62
     4
 10
3132.0005248
 20
-42.4968497882
 30
0.0
  0
VERTEX
  5
FBB
  8
CUTS
  6
BYBLOCK
 62
     4
 10
3132.0005248
 20
-48.4968497882
 30
0.0
  0
SEQEND
  5
1097
  8
CUTS
  6
BYBLOCK
 62
     4
  0
POLYLINE
  5
4BF
  8
CUTS
  6
BYBLOCK
 62
     4
 66
     1
 10
0.0
 20
0.0
 30
0.0
 70
     1
  0
VERTEX
  5
FBC
  8
CUTS
  6
BYBLOCK
 62
     4
 10
1082.00003242
 20
245.124389648
 30
0.0
  0
VERTEX
  5
FBD
  8
CUTS
  6
BYBLOCK
 62
     4
 10
1082.00003242
 20
239.124389648
 30
0.0
  0
VERTEX
  5
FBE
  8
CUTS
  6
BYBLOCK
 62
     4
 10
1074.00003242
 20
239.124389648
 30
0.0
  0
VERTEX
  5
FBF
  8
CUTS
  6
BYBLOCK
 62
     4
 10
1074.00003242
 20
245.124389648
 30
0.0
  0
VERTEX
  5
FC0
  8
CUTS
  6
BYBLOCK
 62
     4
 10
1064.00003242
 20
245.124389648
 30
0.0
  0
VERTEX
  5
FC1
  8
CUTS
  6
BYBLOCK
 62
     4
 10
1058.00003242
 20
245.124389648
 30
0.0
  0
VERTEX
  5
FC2
  8
CUTS
  6
BYBLOCK
 62
     4
 10
1058.00003242
 20
253.124389648
 30
0.0
  0
VERTEX
  5
FC3
  8
CUTS
  6
BYBLOCK
 62
     4
 10
1064.00003242
 20
253.124389648
 30
0.0
  0
VERTEX
  5
FC4
  8
CUTS
  6
BYBLOCK
 62
     4
 10
1064.00003242
 20
297.124267578
 30
0.0
  0
VERTEX
  5
FC5
  8
CUTS
  6
BYBLOCK
 62
     4
 10
1058.00003242
 20
297.124267578
 30
0.0
  0
VERTEX
  5
FC6
  8
CUTS
  6
BYBLOCK
 62
     4
 10
1058.00003242
 20
305.124267578
 30
0.0
  0
VERTEX
  5
FC7
  8
CUTS
  6
BYBLOCK
 62
     4
 10
1064.00003242
 20
305.124267578
 30
0.0
  0
VERTEX
  5
FC8
  8
CUTS
  6
BYBLOCK
 62
     4
 10
1074.00003242
 20
305.124267578
 30
0.0
  0
VERTEX
  5
FC9
  8
CUTS
  6
BYBLOCK
 62
     4
 10
1074.00003242
 20
311.124267578
 30
0.0
  0
VERTEX
  5
FCA
  8
CUTS
  6
BYBLOCK
 62
     4
 10
1082.00003242
 20
311.124267578
 30
0.0
  0
VERTEX
  5
FCB
  8
CUTS
  6
BYBLOCK
 62
     4
 10
1082.00003242
 20
305.124267578
 30
0.0
  0
SEQEND
  5
1098
  8
CUTS
  6
BYBLOCK
 62
     4
  0
POLYLINE
  5
4C0
  8
CUTS
  6
BYBLOCK
 62
     4
 66
     1
 10
0.0
 20
0.0
 30
0.0
 70
     1
  0
VERTEX
  5
FCC
  8
CUTS
  6
BYBLOCK
 62
     4
 10
1782.00003815
 20
266.4994506835
 30
0.0
  0
VERTEX
  5
FCD
  8
CUTS
  6
BYBLOCK
 62
     4
 10
1782.00003815
 20
260.4994506835
 30
0.0
  0
VERTEX
  5
FCE
  8
CUTS
  6
BYBLOCK
 62
     4
 10
1774.00003815
 20
260.4994506835
 30
0.0
  0
VERTEX
  5
FCF
  8
CUTS
  6
BYBLOCK
 62
     4
 10
1774.00003815
 20
266.4994506835
 30
0.0
  0
VERTEX
  5
FD0
  8
CUTS
  6
BYBLOCK
 62
     4
 10
1764.00003815
 20
266.4994506835
 30
0.0
  0
VERTEX
  5
FD1
  8
CUTS
  6
BYBLOCK
 62
     4
 10
1758.00003815
 20
266.4994506835
 30
0.0
  0
VERTEX
  5
FD2
  8
CUTS
  6
BYBLOCK
 62
     4
 10
1758.00003815
 20
274.4994506835
 30
0.0
  0
VERTEX
  5
FD3
  8
CUTS
  6
BYBLOCK
 62
     4
 10
1764.00003815
 20
274.4994506835
 30
0.0
  0
VERTEX
  5
FD4
  8
CUTS
  6
BYBLOCK
 62
     4
 10
1764.00003815
 20
318.4993286135
 30
0.0
  0
VERTEX
  5
FD5
  8
CUTS
  6
BYBLOCK
 62
     4
 10
1758.00003815
 20
318.4993286135
 30
0.0
  0
VERTEX
  5
FD6
  8
CUTS
  6
BYBLOCK
 62
     4
 10
1758.00003815
 20
326.4993286135
 30
0.0
  0
VERTEX
  5
FD7
  8
CUTS
  6
BYBLOCK
 62
     4
 10
1764.00003815
 20
326.4993286135
 30
0.0
  0
VERTEX
  5
FD8
  8
CUTS
  6
BYBLOCK
 62
     4
 10
1774.00003815
 20
326.4993286135
 30
0.0
  0
VERTEX
  5
FD9
  8
CUTS
  6
BYBLOCK
 62
     4
 10
1774.00003815
 20
332.4993286135
 30
0.0
  0
VERTEX
  5
FDA
  8
CUTS
  6
BYBLOCK
 62
     4
 10
1782.00003815
 20
332.4993286135
 30
0.0
  0
VERTEX
  5
FDB
  8
CUTS
  6
BYBLOCK
 62
     4
 10
1782.00003815
 20
326.4993286135
 30
0.0
  0
SEQEND
  5
1099
  8
CUTS
  6
BYBLOCK
 62
     4
  0
POLYLINE
  5
4C1
  8
CUTS
  6
BYBLOCK
 62
     4
 66
     1
 10
0.0
 20
0.0
 30
0.0
 70
     1
  0
VERTEX
  5
FDC
  8
CUTS
  6
BYBLOCK
 62
     4
 10
1782.00003815
 20
-33.50000000020002
 30
0.0
  0
VERTEX
  5
FDD
  8
CUTS
  6
BYBLOCK
 62
     4
 10
1782.00003815
 20
-39.50000000020002
 30
0.0
  0
VERTEX
  5
FDE
  8
CUTS
  6
BYBLOCK
 62
     4
 10
1774.00003815
 20
-39.50000000020002
 30
0.0
  0
VERTEX
  5
FDF
  8
CUTS
  6
BYBLOCK
 62
     4
 10
1774.00003815
 20
-33.50000000020002
 30
0.0
  0
VERTEX
  5
FE0
  8
CUTS
  6
BYBLOCK
 62
     4
 10
1764.00003815
 20
-33.50000000020002
 30
0.0
  0
VERTEX
  5
FE1
  8
CUTS
  6
BYBLOCK
 62
     4
 10
1758.00003815
 20
-33.50000000020002
 30
0.0
  0
VERTEX
  5
FE2
  8
CUTS
  6
BYBLOCK
 62
     4
 10
1758.00003815
 20
-25.50000000020001
 30
0.0
  0
VERTEX
  5
FE3
  8
CUTS
  6
BYBLOCK
 62
     4
 10
1764.00003815
 20
-25.50000000020001
 30
0.0
  0
VERTEX
  5
FE4
  8
CUTS
  6
BYBLOCK
 62
     4
 10
1764.00003815
 20
18.49987792980001
 30
0.0
  0
VERTEX
  5
FE5
  8
CUTS
  6
BYBLOCK
 62
     4
 10
1758.00003815
 20
18.49987792980001
 30
0.0
  0
VERTEX
  5
FE6
  8
CUTS
  6
BYBLOCK
 62
     4
 10
1758.00003815
 20
26.49987792980001
 30
0.0
  0
VERTEX
  5
FE7
  8
CUTS
  6
BYBLOCK
 62
     4
 10
1764.00003815
 20
26.49987792980001
 30
0.0
  0
VERTEX
  5
FE8
  8
CUTS
  6
BYBLOCK
 62
     4
 10
1774.00003815
 20
26.49987792980001
 30
0.0
  0
VERTEX
  5
FE9
  8
CUTS
  6
BYBLOCK
 62
     4
 10
1774.00003815
 20
32.49987792980001
 30
0.0
  0
VERTEX
  5
FEA
  8
CUTS
  6
BYBLOCK
 62
     4
 10
1782.00003815
 20
32.49987792980001
 30
0.0
  0
VERTEX
  5
FEB
  8
CUTS
  6
BYBLOCK
 62
     4
 10
1782.00003815
 20
26.49987792980001
 30
0.0
  0
SEQEND
  5
109A
  8
CUTS
  6
BYBLOCK
 62
     4
  0
POLYLINE
  5
4C2
  8
CUTS
  6
BYBLOCK
 62
     4
 66
     1
 10
0.0
 20
0.0
 30
0.0
 70
     1
  0
VERTEX
  5
FEC
  8
CUTS
  6
BYBLOCK
 62
     4
 10
2482.00003815
 20
-33.50000000020002
 30
0.0
  0
VERTEX
  5
FED
  8
CUTS
  6
BYBLOCK
 62
     4
 10
2482.00003815
 20
-39.50000000020002
 30
0.0
  0
VERTEX
  5
FEE
  8
CUTS
  6
BYBLOCK
 62
     4
 10
2474.00003815
 20
-39.50000000020002
 30
0.0
  0
VERTEX
  5
FEF
  8
CUTS
  6
BYBLOCK
 62
     4
 10
2474.00003815
 20
-33.50000000020002
 30
0.0
  0
VERTEX
  5
FF0
  8
CUTS
  6
BYBLOCK
 62
     4
 10
2464.00003815
 20
-33.50000000020002
 30
0.0
  0
VERTEX
  5
FF1
  8
CUTS
  6
BYBLOCK
 62
     4
 10
2458.00003815
 20
-33.50000000020002
 30
0.0
  0
VERTEX
  5
FF2
  8
CUTS
  6
BYBLOCK
 62
     4
 10
2458.00003815
 20
-25.50000000020001
 30
0.0
  0
VERTEX
  5
FF3
  8
CUTS
  6
BYBLOCK
 62
     4
 10
2464.00003815
 20
-25.50000000020001
 30
0.0
  0
VERTEX
  5
FF4
  8
CUTS
  6
BYBLOCK
 62
     4
 10
2464.00003815
 20
18.49987792980001
 30
0.0
  0
VERTEX
  5
FF5
  8
CUTS
  6
BYBLOCK
 62
     4
 10
2458.00003815
 20
18.49987792980001
 30
0.0
  0
VERTEX
  5
FF6
  8
CUTS
  6
BYBLOCK
 62
     4
 10
2458.00003815
 20
26.49987792980001
 30
0.0
  0
VERTEX
  5
FF7
  8
CUTS
  6
BYBLOCK
 62
     4
 10
2464.00003815
 20
26.49987792980001
 30
0.0
  0
VERTEX
  5
FF8
  8
CUTS
  6
BYBLOCK
 62
     4
 10
2474.00003815
 20
26.49987792980001
 30
0.0
  0
VERTEX
  5
FF9
  8
CUTS
  6
BYBLOCK
 62
     4
 10
2474.00003815
 20
32.49987792980001
 30
0.0
  0
VERTEX
  5
FFA
  8
CUTS
  6
BYBLOCK
 62
     4
 10
2482.00003815
 20
32.49987792980001
 30
0.0
  0
VERTEX
  5
FFB
  8
CUTS
  6
BYBLOCK
 62
     4
 10
2482.00003815
 20
26.49987792980001
 30
0.0
  0
SEQEND
  5
109B
  8
CUTS
  6
BYBLOCK
 62
     4
  0
POLYLINE
  5
4C3
  8
CUTS
  6
BYBLOCK
 62
     4
 66
     1
 10
0.0
 20
0.0
 30
0.0
 70
     1
  0
VERTEX
  5
FFC
  8
CUTS
  6
BYBLOCK
 62
     4
 10
2482.00003815
 20
266.4994506835
 30
0.0
  0
VERTEX
  5
FFD
  8
CUTS
  6
BYBLOCK
 62
     4
 10
2482.00003815
 20
260.4994506835
 30
0.0
  0
VERTEX
  5
FFE
  8
CUTS
  6
BYBLOCK
 62
     4
 10
2474.00003815
 20
260.4994506835
 30
0.0
  0
VERTEX
  5
FFF
  8
CUTS
  6
BYBLOCK
 62
     4
 10
2474.00003815
 20
266.4994506835
 30
0.0
  0
VERTEX
  5
1000
  8
CUTS
  6
BYBLOCK
 62
     4
 10
2464.00003815
 20
266.4994506835
 30
0.0
  0
VERTEX
  5
1001
  8
CUTS
  6
BYBLOCK
 62
     4
 10
2458.00003815
 20
266.4994506835
 30
0.0
  0
VERTEX
  5
1002
  8
CUTS
  6
BYBLOCK
 62
     4
 10
2458.00003815
 20
274.4994506835
 30
0.0
  0
VERTEX
  5
1003
  8
CUTS
  6
BYBLOCK
 62
     4
 10
2464.00003815
 20
274.4994506835
 30
0.0
  0
VERTEX
  5
1004
  8
CUTS
  6
BYBLOCK
 62
     4
 10
2464.00003815
 20
318.4993286135
 30
0.0
  0
VERTEX
  5
1005
  8
CUTS
  6
BYBLOCK
 62
     4
 10
2458.00003815
 20
318.4993286135
 30
0.0
  0
VERTEX
  5
1006
  8
CUTS
  6
BYBLOCK
 62
     4
 10
2458.00003815
 20
326.4993286135
 30
0.0
  0
VERTEX
  5
1007
  8
CUTS
  6
BYBLOCK
 62
     4
 10
2464.00003815
 20
326.4993286135
 30
0.0
  0
VERTEX
  5
1008
  8
CUTS
  6
BYBLOCK
 62
     4
 10
2474.00003815
 20
326.4993286135
 30
0.0
  0
VERTEX
  5
1009
  8
CUTS
  6
BYBLOCK
 62
     4
 10
2474.00003815
 20
332.4993286135
 30
0.0
  0
VERTEX
  5
100A
  8
CUTS
  6
BYBLOCK
 62
     4
 10
2482.00003815
 20
332.4993286135
 30
0.0
  0
VERTEX
  5
100B
  8
CUTS
  6
BYBLOCK
 62
     4
 10
2482.00003815
 20
326.4993286135
 30
0.0
  0
SEQEND
  5
109C
  8
CUTS
  6
BYBLOCK
 62
     4
  0
POLYLINE
  5
4C4
  8
CUTS
  6
BYBLOCK
 62
     4
 66
     1
 10
0.0
 20
0.0
 30
0.0
 70
     1
  0
VERTEX
  5
100C
  8
CUTS
  6
BYBLOCK
 62
     4
 10
3382.000026979999
 20
-108.4967277182
 30
0.0
  0
VERTEX
  5
100D
  8
CUTS
  6
BYBLOCK
 62
     4
 10
3382.000026979999
 20
-114.4967277182
 30
0.0
  0
VERTEX
  5
100E
  8
CUTS
  6
BYBLOCK
 62
     4
 10
3374.000026979999
 20
-114.4967277182
 30
0.0
  0
VERTEX
  5
100F
  8
CUTS
  6
BYBLOCK
 62
     4
 10
3374.000026979999
 20
-108.4967277182
 30
0.0
  0
VERTEX
  5
1010
  8
CUTS
  6
BYBLOCK
 62
     4
 10
3364.000026979999
 20
-108.4967277182
 30
0.0
  0
VERTEX
  5
1011
  8
CUTS
  6
BYBLOCK
 62
     4
 10
3358.000026979999
 20
-108.4967277182
 30
0.0
  0
VERTEX
  5
1012
  8
CUTS
  6
BYBLOCK
 62
     4
 10
3358.000026979999
 20
-100.4967277182
 30
0.0
  0
VERTEX
  5
1013
  8
CUTS
  6
BYBLOCK
 62
     4
 10
3364.000026979999
 20
-100.4967277182
 30
0.0
  0
VERTEX
  5
1014
  8
CUTS
  6
BYBLOCK
 62
     4
 10
3364.000026979999
 20
-56.4968497882
 30
0.0
  0
VERTEX
  5
1015
  8
CUTS
  6
BYBLOCK
 62
     4
 10
3358.000026979999
 20
-56.4968497882
 30
0.0
  0
VERTEX
  5
1016
  8
CUTS
  6
BYBLOCK
 62
     4
 10
3358.000026979999
 20
-48.4968497882
 30
0.0
  0
VERTEX
  5
1017
  8
CUTS
  6
BYBLOCK
 62
     4
 10
3364.000026979999
 20
-48.4968497882
 30
0.0
  0
VERTEX
  5
1018
  8
CUTS
  6
BYBLOCK
 62
     4
 10
3374.000026979999
 20
-48.4968497882
 30
0.0
  0
VERTEX
  5
1019
  8
CUTS
  6
BYBLOCK
 62
     4
 10
3374.000026979999
 20
-42.4968497882
 30
0.0
  0
VERTEX
  5
101A
  8
CUTS
  6
BYBLOCK
 62
     4
 10
3382.000026979999
 20
-42.4968497882
 30
0.0
  0
VERTEX
  5
101B
  8
CUTS
  6
BYBLOCK
 62
     4
 10
3382.000026979999
 20
-48.4968497882
 30
0.0
  0
SEQEND
  5
109D
  8
CUTS
  6
BYBLOCK
 62
     4
  0
POLYLINE
  5
4C5
  8
CUTS
  6
BYBLOCK
 62
     4
 66
     1
 10
0.0
 20
0.0
 30
0.0
 70
     1
  0
VERTEX
  5
101C
  8
CUTS
  6
BYBLOCK
 62
     4
 10
3234.0003264315
 20
-369.495934261
 30
0.0
  0
VERTEX
  5
101D
  8
CUTS
  6
BYBLOCK
 62
     4
 10
3234.0003264315
 20
-363.495934261
 30
0.0
  0
VERTEX
  5
101E
  8
CUTS
  6
BYBLOCK
 62
     4
 10
3226.0003264315
 20
-363.495934261
 30
0.0
  0
VERTEX
  5
101F
  8
CUTS
  6
BYBLOCK
 62
     4
 10
3226.0003264315
 20
-369.495934261
 30
0.0
  0
VERTEX
  5
1020
  8
CUTS
  6
BYBLOCK
 62
     4
 10
3107.0006163485
 20
-369.495934261
 30
0.0
  0
VERTEX
  5
1021
  8
CUTS
  6
BYBLOCK
 62
     4
 10
3107.0006163485
 20
-363.495934261
 30
0.0
  0
VERTEX
  5
1022
  8
CUTS
  6
BYBLOCK
 62
     4
 10
3099.0006163485
 20
-363.495934261
 30
0.0
  0
VERTEX
  5
1023
  8
CUTS
  6
BYBLOCK
 62
     4
 10
3099.0006163485
 20
-369.495934261
 30
0.0
  0
VERTEX
  5
1024
  8
CUTS
  6
BYBLOCK
 62
     4
 10
3099.0006163485
 20
-387.495934261
 30
0.0
  0
VERTEX
  5
1025
  8
CUTS
  6
BYBLOCK
 62
     4
 10
3099.0006163485
 20
-393.495934261
 30
0.0
  0
VERTEX
  5
1026
  8
CUTS
  6
BYBLOCK
 62
     4
 10
3107.0006163485
 20
-393.495934261
 30
0.0
  0
VERTEX
  5
1027
  8
CUTS
  6
BYBLOCK
 62
     4
 10
3107.0006163485
 20
-387.495934261
 30
0.0
  0
VERTEX
  5
1028
  8
CUTS
  6
BYBLOCK
 62
     4
 10
3226.0003264315
 20
-387.495934261
 30
0.0
  0
VERTEX
  5
1029
  8
CUTS
  6
BYBLOCK
 62
     4
 10
3226.0003264315
 20
-393.495934261
 30
0.0
  0
VERTEX
  5
102A
  8
CUTS
  6
BYBLOCK
 62
     4
 10
3234.0003264315
 20
-393.495934261
 30
0.0
  0
VERTEX
  5
102B
  8
CUTS
  6
BYBLOCK
 62
     4
 10
3234.0003264315
 20
-387.495934261
 30
0.0
  0
SEQEND
  5
109E
  8
CUTS
  6
BYBLOCK
 62
     4
  0
POLYLINE
  5
4C7
  8
CUTS
  6
BYBLOCK
 62
     4
 66
     1
 10
0.0
 20
0.0
 30
0.0
 70
     1
  0
VERTEX
  5
102C
  8
CUTS
  6
BYBLOCK
 62
     4
 10
1507.00061035
 20
-312.499328613
 30
0.0
  0
VERTEX
  5
102D
  8
CUTS
  6
BYBLOCK
 62
     4
 10
1507.00061035
 20
-318.499328613
 30
0.0
  0
VERTEX
  5
102E
  8
CUTS
  6
BYBLOCK
 62
     4
 10
1499.00061035
 20
-318.499328613
 30
0.0
  0
VERTEX
  5
102F
  8
CUTS
  6
BYBLOCK
 62
     4
 10
1499.00061035
 20
-288.499328613
 30
0.0
  0
VERTEX
  5
1030
  8
CUTS
  6
BYBLOCK
 62
     4
 10
1507.00061035
 20
-288.499328613
 30
0.0
  0
VERTEX
  5
1031
  8
CUTS
  6
BYBLOCK
 62
     4
 10
1507.00061035
 20
-294.499328613
 30
0.0
  0
VERTEX
  5
1032
  8
CUTS
  6
BYBLOCK
 62
     4
 10
1648.00030518
 20
-294.499328613
 30
0.0
  0
VERTEX
  5
1033
  8
CUTS
  6
BYBLOCK
 62
     4
 10
1648.00030518
 20
-277.499450684
 30
0.0
  0
VERTEX
  5
1034
  8
CUTS
  6
BYBLOCK
 62
     4
 10
1643.00032043
 20
-277.499450684
 30
0.0
  0
VERTEX
  5
1035
  8
CUTS
  6
BYBLOCK
 62
     4
 10
1643.00032043
 20
-267.499450684
 30
0.0
  0
VERTEX
  5
1036
  8
CUTS
  6
BYBLOCK
 62
     4
 10
1671.0002594
 20
-267.499450684
 30
0.0
  0
VERTEX
  5
1037
  8
CUTS
  6
BYBLOCK
 62
     4
 10
1671.0002594
 20
-277.499450684
 30
0.0
  0
VERTEX
  5
1038
  8
CUTS
  6
BYBLOCK
 62
     4
 10
1666.00027466
 20
-277.499450684
 30
0.0
  0
VERTEX
  5
1039
  8
CUTS
  6
BYBLOCK
 62
     4
 10
1666.00027466
 20
-294.499328613
 30
0.0
  0
VERTEX
  5
103A
  8
CUTS
  6
BYBLOCK
 62
     4
 10
1717.00016785
 20
-294.499328613
 30
0.0
  0
VERTEX
  5
103B
  8
CUTS
  6
BYBLOCK
 62
     4
 10
1717.00016785
 20
-289.499450684
 30
0.0
  0
VERTEX
  5
103C
  8
CUTS
  6
BYBLOCK
 62
     4
 10
1727.00014496
 20
-289.499450684
 30
0.0
  0
VERTEX
  5
103D
  8
CUTS
  6
BYBLOCK
 62
     4
 10
1727.00014496
 20
-317.499328613
 30
0.0
  0
VERTEX
  5
103E
  8
CUTS
  6
BYBLOCK
 62
     4
 10
1717.00016785
 20
-317.499328613
 30
0.0
  0
VERTEX
  5
103F
  8
CUTS
  6
BYBLOCK
 62
     4
 10
1717.00016785
 20
-312.499450684
 30
0.0
  0
VERTEX
  5
1040
  8
CUTS
  6
BYBLOCK
 62
     4
 10
1666.00027466
 20
-312.499450684
 30
0.0
  0
VERTEX
  5
1041
  8
CUTS
  6
BYBLOCK
 62
     4
 10
1666.00027466
 20
-329.499328613
 30
0.0
  0
VERTEX
  5
1042
  8
CUTS
  6
BYBLOCK
 62
     4
 10
1671.0002594
 20
-329.499328613
 30
0.0
  0
VERTEX
  5
1043
  8
CUTS
  6
BYBLOCK
 62
     4
 10
1671.0002594
 20
-339.499328613
 30
0.0
  0
VERTEX
  5
1044
  8
CUTS
  6
BYBLOCK
 62
     4
 10
1643.00032043
 20
-339.499328613
 30
0.0
  0
VERTEX
  5
1045
  8
CUTS
  6
BYBLOCK
 62
     4
 10
1643.00032043
 20
-329.499328613
 30
0.0
  0
VERTEX
  5
1046
  8
CUTS
  6
BYBLOCK
 62
     4
 10
1648.00030518
 20
-329.499328613
 30
0.0
  0
VERTEX
  5
1047
  8
CUTS
  6
BYBLOCK
 62
     4
 10
1648.00030518
 20
-312.499450684
 30
0.0
  0
SEQEND
  5
109F
  8
CUTS
  6
BYBLOCK
 62
     4
  0
POLYLINE
  5
4C8
  8
CUTS
  6
BYBLOCK
 62
     4
 66
     1
 10
0.0
 20
0.0
 30
0.0
 70
     1
  0
VERTEX
  5
1048
  8
CUTS
  6
BYBLOCK
 62
     4
 10
2207.00061035
 20
-312.4993896485
 30
0.0
  0
VERTEX
  5
1049
  8
CUTS
  6
BYBLOCK
 62
     4
 10
2207.00061035
 20
-318.4993896485
 30
0.0
  0
VERTEX
  5
104A
  8
CUTS
  6
BYBLOCK
 62
     4
 10
2199.00061035
 20
-318.4993896485
 30
0.0
  0
VERTEX
  5
104B
  8
CUTS
  6
BYBLOCK
 62
     4
 10
2199.00061035
 20
-288.4993896485
 30
0.0
  0
VERTEX
  5
104C
  8
CUTS
  6
BYBLOCK
 62
     4
 10
2207.00061035
 20
-288.4993896485
 30
0.0
  0
VERTEX
  5
104D
  8
CUTS
  6
BYBLOCK
 62
     4
 10
2207.00061035
 20
-294.4993896485
 30
0.0
  0
VERTEX
  5
104E
  8
CUTS
  6
BYBLOCK
 62
     4
 10
2348.00030518
 20
-294.4993896485
 30
0.0
  0
VERTEX
  5
104F
  8
CUTS
  6
BYBLOCK
 62
     4
 10
2348.00030518
 20
-277.4995117195
 30
0.0
  0
VERTEX
  5
1050
  8
CUTS
  6
BYBLOCK
 62
     4
 10
2343.00032043
 20
-277.4995117195
 30
0.0
  0
VERTEX
  5
1051
  8
CUTS
  6
BYBLOCK
 62
     4
 10
2343.00032043
 20
-267.4995117195
 30
0.0
  0
VERTEX
  5
1052
  8
CUTS
  6
BYBLOCK
 62
     4
 10
2371.0002594
 20
-267.4995117195
 30
0.0
  0
VERTEX
  5
1053
  8
CUTS
  6
BYBLOCK
 62
     4
 10
2371.0002594
 20
-277.4995117195
 30
0.0
  0
VERTEX
  5
1054
  8
CUTS
  6
BYBLOCK
 62
     4
 10
2366.00027466
 20
-277.4995117195
 30
0.0
  0
VERTEX
  5
1055
  8
CUTS
  6
BYBLOCK
 62
     4
 10
2366.00027466
 20
-294.4993896485
 30
0.0
  0
VERTEX
  5
1056
  8
CUTS
  6
BYBLOCK
 62
     4
 10
2417.00016785
 20
-294.4993896485
 30
0.0
  0
VERTEX
  5
1057
  8
CUTS
  6
BYBLOCK
 62
     4
 10
2417.00016785
 20
-289.4995117195
 30
0.0
  0
VERTEX
  5
1058
  8
CUTS
  6
BYBLOCK
 62
     4
 10
2427.00014496
 20
-289.4995117195
 30
0.0
  0
VERTEX
  5
1059
  8
CUTS
  6
BYBLOCK
 62
     4
 10
2427.00014496
 20
-317.4993896485
 30
0.0
  0
VERTEX
  5
105A
  8
CUTS
  6
BYBLOCK
 62
     4
 10
2417.00016785
 20
-317.4993896485
 30
0.0
  0
VERTEX
  5
105B
  8
CUTS
  6
BYBLOCK
 62
     4
 10
2417.00016785
 20
-312.4995117195
 30
0.0
  0
VERTEX
  5
105C
  8
CUTS
  6
BYBLOCK
 62
     4
 10
2366.00027466
 20
-312.4995117195
 30
0.0
  0
VERTEX
  5
105D
  8
CUTS
  6
BYBLOCK
 62
     4
 10
2366.00027466
 20
-329.4993896485
 30
0.0
  0
VERTEX
  5
105E
  8
CUTS
  6
BYBLOCK
 62
     4
 10
2371.0002594
 20
-329.4993896485
 30
0.0
  0
VERTEX
  5
105F
  8
CUTS
  6
BYBLOCK
 62
     4
 10
2371.0002594
 20
-339.4993896485
 30
0.0
  0
VERTEX
  5
1060
  8
CUTS
  6
BYBLOCK
 62
     4
 10
2343.00032043
 20
-339.4993896485
 30
0.0
  0
VERTEX
  5
1061
  8
CUTS
  6
BYBLOCK
 62
     4
 10
2343.00032043
 20
-329.4993896485
 30
0.0
  0
VERTEX
  5
1062
  8
CUTS
  6
BYBLOCK
 62
     4
 10
2348.00030518
 20
-329.4993896485
 30
0.0
  0
VERTEX
  5
1063
  8
CUTS
  6
BYBLOCK
 62
     4
 10
2348.00030518
 20
-312.4995117195
 30
0.0
  0
SEQEND
  5
10A0
  8
CUTS
  6
BYBLOCK
 62
     4
  0
ENDSEC
  0
EOF
