  0
SECTION
  2
HEADER
  9
$ACADVER
  1
AC1009
  9
$DWGCODEPAGE
  3
ansi_1252
  9
$INSBASE
 10
0.0
 20
0.0
 30
0.0
  9
$EXTMIN
 10
3.888837054836898
 20
-28.81974446452216
 30
0.0
  9
$EXTMAX
 10
244.5129875477413
 20
171.2679724340084
 30
0.0
  9
$LIMMIN
 10
0.0
 20
0.0
  9
$LIMMAX
 10
420.0
 20
297.0
  9
$ORTHOMODE
 70
     0
  9
$REGENMODE
 70
     1
  9
$FILLMODE
 70
     1
  9
$QTEXTMODE
 70
     0
  9
$MIRRTEXT
 70
     0
  9
$DRAGMODE
 70
     2
  9
$LTSCALE
 40
1.0
  9
$OSMODE
 70
   239
  9
$ATTMODE
 70
     1
  9
$TEXTSIZE
 40
2.5
  9
$TRACEWID
 40
1.0
  9
$TEXTSTYLE
  7
STANDARD
  9
$CLAYER
  8
NEW
  9
$CELTYPE
  6
BYLAYER
  9
$CECOLOR
 62
   256
  9
$DIMSCALE
 40
1.0
  9
$DIMASZ
 40
2.5
  9
$DIMEXO
 40
0.625
  9
$DIMDLI
 40
3.75
  9
$DIMRND
 40
0.0
  9
$DIMDLE
 40
0.0
  9
$DIMEXE
 40
1.25
  9
$DIMTP
 40
0.0
  9
$DIMTM
 40
0.0
  9
$DIMTXT
 40
2.5
  9
$DIMCEN
 40
2.5
  9
$DIMTSZ
 40
0.0
  9
$DIMTOL
 70
     0
  9
$DIMLIM
 70
     0
  9
$DIMTIH
 70
     0
  9
$DIMTOH
 70
     0
  9
$DIMSE1
 70
     0
  9
$DIMSE2
 70
     0
  9
$DIMTAD
 70
     1
  9
$DIMZIN
 70
     8
  9
$DIMBLK
  1

  9
$DIMASO
 70
     1
  9
$DIMSHO
 70
     1
  9
$DIMPOST
  1

  9
$DIMAPOST
  1

  9
$DIMALT
 70
     0
  9
$DIMALTD
 70
     3
  9
$DIMALTF
 40
0.03937007874016
  9
$DIMLFAC
 40
1.0
  9
$DIMTOFL
 70
     1
  9
$DIMTVP
 40
0.0
  9
$DIMTIX
 70
     0
  9
$DIMSOXD
 70
     0
  9
$DIMSAH
 70
     0
  9
$DIMBLK1
  1

  9
$DIMBLK2
  1

  9
$DIMSTYLE
  2
ISO-25
  9
$DIMCLRD
 70
     0
  9
$DIMCLRE
 70
     0
  9
$DIMCLRT
 70
     0
  9
$DIMTFAC
 40
1.0
  9
$DIMGAP
 40
0.625
  9
$LUNITS
 70
     2
  9
$LUPREC
 70
     3
  9
$SKETCHINC
 40
1.0
  9
$FILLETRAD
 40
0.0
  9
$AUNITS
 70
     0
  9
$AUPREC
 70
     0
  9
$MENU
  1
.
  9
$ELEVATION
 40
0.0
  9
$PELEVATION
 40
0.0
  9
$THICKNESS
 40
0.0
  9
$LIMCHECK
 70
     0
  9
$CHAMFERA
 40
10.0
  9
$CHAMFERB
 40
10.0
  9
$SKPOLY
 70
     0
  9
$TDCREATE
 40
2455022.720692836
  9
$TDUPDATE
 40
2457886.78488485
  9
$TDINDWG
 40
0.0318310069
  9
$TDUSRTIMER
 40
2457886.902125961
  9
$USRTIMER
 70
     1
  9
$ANGBASE
 50
0.0
  9
$ANGDIR
 70
     0
  9
$PDMODE
 70
    35
  9
$PDSIZE
 40
-5.0
  9
$PLINEWID
 40
0.0
  9
$COORDS
 70
     1
  9
$SPLFRAME
 70
     0
  9
$SPLINETYPE
 70
     6
  9
$SPLINESEGS
 70
     8
  9
$ATTDIA
 70
     0
  9
$ATTREQ
 70
     1
  9
$HANDLING
 70
     1
  9
$HANDSEED
  5
D5F
  9
$SURFTAB1
 70
     6
  9
$SURFTAB2
 70
     6
  9
$SURFTYPE
 70
     6
  9
$SURFU
 70
     6
  9
$SURFV
 70
     6
  9
$UCSNAME
  2

  9
$UCSORG
 10
0.0
 20
0.0
 30
0.0
  9
$UCSXDIR
 10
1.0
 20
0.0
 30
0.0
  9
$UCSYDIR
 10
0.0
 20
1.0
 30
0.0
  9
$PUCSNAME
  2

  9
$PUCSORG
 10
0.0
 20
0.0
 30
0.0
  9
$PUCSXDIR
 10
1.0
 20
0.0
 30
0.0
  9
$PUCSYDIR
 10
0.0
 20
1.0
 30
0.0
  9
$USERI1
 70
     0
  9
$USERI2
 70
     0
  9
$USERI3
 70
     0
  9
$USERI4
 70
     0
  9
$USERI5
 70
     0
  9
$USERR1
 40
0.0
  9
$USERR2
 40
0.0
  9
$USERR3
 40
0.0
  9
$USERR4
 40
0.0
  9
$USERR5
 40
0.0
  9
$WORLDVIEW
 70
     1
  9
$SHADEDGE
 70
     3
  9
$SHADEDIF
 70
    70
  9
$TILEMODE
 70
     1
  9
$MAXACTVP
 70
    64
  9
$PLIMCHECK
 70
     0
  9
$PEXTMIN
 10
1.000000000000000E+20
 20
1.000000000000000E+20
 30
1.000000000000000E+20
  9
$PEXTMAX
 10
-1.000000000000000E+20
 20
-1.000000000000000E+20
 30
-1.000000000000000E+20
  9
$PLIMMIN
 10
0.0
 20
0.0
  9
$PLIMMAX
 10
0.0
 20
0.0
  9
$UNITMODE
 70
     0
  9
$VISRETAIN
 70
     1
  9
$PLINEGEN
 70
     0
  9
$PSLTSCALE
 70
     1
  0
ENDSEC
  0
SECTION
  2
TABLES
  0
TABLE
  2
VPORT
 70
     1
  0
VPORT
  2
*ACTIVE
 70
     0
 10
0.0
 20
0.0
 11
1.0
 21
1.0
 12
302.302909714977
 22
109.8463913542756
 13
0.0
 23
0.0
 14
10.0
 24
10.0
 15
10.0
 25
10.0
 16
0.0
 26
0.0
 36
1.0
 17
-134.1869158878495
 27
0.0
 37
0.0
 40
422.9801121876594
 41
1.947368421052632
 42
50.0
 43
0.0
 44
0.0
 50
0.0
 51
0.0
 71
    16
 72
  1000
 73
     1
 74
     3
 75
     0
 76
     0
 77
     0
 78
     0
  0
ENDTAB
  0
TABLE
  2
LTYPE
 70
     1
  0
LTYPE
  2
CONTINUOUS
 70
     0
  3
Solid line
 72
    65
 73
     0
 40
0.0
  0
ENDTAB
  0
TABLE
  2
LAYER
 70
     4
  0
LAYER
  2
0
 70
     0
 62
     7
  6
CONTINUOUS
  0
LAYER
  2
DEFPOINTS
 70
     0
 62
     7
  6
CONTINUOUS
  0
LAYER
  2
NEW
 70
     0
 62
    20
  6
CONTINUOUS
  0
LAYER
  2
CAIXILHOS
 70
     0
 62
     2
  6
CONTINUOUS
  0
ENDTAB
  0
TABLE
  2
STYLE
 70
     1
  0
STYLE
  2
STANDARD
 70
     0
 40
0.0
 41
1.0
 50
0.0
 71
     0
 42
2.5
  3
arial.ttf
  4

  0
ENDTAB
  0
TABLE
  2
VIEW
 70
     0
  0
ENDTAB
  0
TABLE
  2
UCS
 70
     0
  0
ENDTAB
  0
TABLE
  2
APPID
 70
     3
  0
APPID
  2
ACAD
 70
     0
  0
APPID
  2
ACAECLAYERSTANDARD
 70
     0
  0
APPID
  2
ACLAYERTOOLS
 70
     0
  0
ENDTAB
  0
TABLE
  2
DIMSTYLE
 70
     2
  0
DIMSTYLE
  2
ISO-25
 70
     0
  3

  4

  5

  6

  7

 40
1.0
 41
2.5
 42
0.625
 43
3.75
 44
1.25
 45
0.0
 46
0.0
 47
0.0
 48
0.0
140
2.5
141
2.5
142
0.0
143
0.03937007874016
144
1.0
145
0.0
146
1.0
147
0.625
 71
     0
 72
     0
 73
     0
 74
     0
 75
     0
 76
     0
 77
     1
 78
     8
170
     0
171
     3
172
     1
173
     0
174
     0
175
     0
176
     0
177
     0
178
     0
  0
DIMSTYLE
  2
STANDARD
 70
     0
  3

  4

  5

  6

  7

 40
1.0
 41
0.18
 42
0.0625
 43
0.38
 44
0.18
 45
0.0
 46
0.0
 47
0.0
 48
0.0
140
0.18
141
0.09
142
0.0
143
25.4
144
1.0
145
0.0
146
1.0
147
0.09
 71
     0
 72
     0
 73
     1
 74
     1
 75
     0
 76
     0
 77
     0
 78
     0
170
     0
171
     2
172
     0
173
     0
174
     0
175
     0
176
     0
177
     0
178
     0
  0
ENDTAB
  0
ENDSEC
  0
SECTION
  2
BLOCKS
  0
BLOCK
  8
0
  2
$MODEL_SPACE
 70
     0
 10
0.0
 20
0.0
 30
0.0
  3
$MODEL_SPACE
  1

  0
ENDBLK
  5
21
  8
0
  0
BLOCK
 67
     1
  8
0
  2
$PAPER_SPACE
 70
     0
 10
0.0
 20
0.0
 30
0.0
  3
$PAPER_SPACE
  1

  0
ENDBLK
  5
1D
 67
     1
  8
0
  0
BLOCK
  8
0
  2
*D0
 70
     1
 10
0.0
 20
0.0
 30
0.0
  3
*D0
  1

  0
LINE
  5
434
  8
0
 62
     0
 10
91.23305326102782
 20
143.6146226415095
 30
0.0
 11
91.23305326102782
 21
140.7675007106906
 31
0.0
  0
LINE
  5
435
  8
0
 62
     0
 10
94.43305326102782
 20
143.6146226415095
 30
0.0
 11
94.43305326102782
 21
140.7675007106906
 31
0.0
  0
LINE
  5
436
  8
0
 62
     0
 10
91.23305326102782
 20
142.0175007106906
 30
0.0
 11
94.43305326102782
 21
142.0175007106906
 31
0.0
  0
LINE
  5
437
  8
0
 62
     0
 10
88.73305326102782
 20
142.0175007106906
 30
0.0
 11
86.23305326102782
 21
142.0175007106906
 31
0.0
  0
LINE
  5
438
  8
0
 62
     0
 10
96.93305326102782
 20
142.0175007106906
 30
0.0
 11
99.43305326102782
 21
142.0175007106906
 31
0.0
  0
SOLID
  5
439
  8
0
 62
     0
 10
88.73305326102782
 20
141.600834044024
 30
0.0
 11
88.73305326102782
 21
142.4341673773573
 31
0.0
 12
91.23305326102782
 22
142.0175007106906
 32
0.0
 13
91.23305326102782
 23
142.0175007106906
 33
0.0
  0
SOLID
  5
43A
  8
0
 62
     0
 10
96.93305326102782
 20
142.4341673773573
 30
0.0
 11
96.93305326102782
 21
141.600834044024
 31
0.0
 12
94.43305326102782
 22
142.0175007106906
 32
0.0
 13
94.43305326102782
 23
142.0175007106906
 33
0.0
  0
TEXT
  5
43B
  8
0
  6
CONTINUOUS
 62
     0
 10
90.42428791314242
 20
134.7651985278803
 30
0.0
 40
2.5
  1
3.2
  0
POINT
  5
43C
  8
DEFPOINTS
 62
     0
 10
91.23305326102782
 20
144.2396226415095
 30
0.0
  0
POINT
  5
43D
  8
DEFPOINTS
 62
     0
 10
94.43305326102782
 20
144.2396226415095
 30
0.0
  0
POINT
  5
43E
  8
DEFPOINTS
 62
     0
 10
94.43305326102782
 20
142.0175007106906
 30
0.0
  0
ENDBLK
  5
433
  8
0
  0
BLOCK
  8
CAIXILHOS
  2
COMPONENT016
 70
     0
 10
0.0
 20
0.0
 30
0.0
  3
COMPONENT016
  1

  0
LINE
  5
470
  8
CAIXILHOS
 62
     0
 10
2859.02832031
 20
-999.05480957
 30
0.0
 11
2473.92138672
 21
-999.191589355
 31
0.0
  0
LINE
  5
471
  8
CAIXILHOS
 62
     0
 10
2473.92138672
 20
-999.191589355
 30
0.0
 11
285.995361328
 21
-999.191589355
 31
0.0
  0
LINE
  5
472
  8
CAIXILHOS
 62
     0
 10
285.995361328
 20
-1806.97253418
 30
0.0
 11
285.995361328
 21
-999.191589355
 31
0.0
  0
LINE
  5
473
  8
CAIXILHOS
 62
     0
 10
2472.54931641
 20
-1806.97253418
 30
0.0
 11
285.995361328
 21
-1806.97253418
 31
0.0
  0
LINE
  5
474
  8
CAIXILHOS
 62
     0
 10
3049.80761719
 20
-1056.53747559
 30
0.0
 11
2472.54931641
 21
-1806.97253418
 31
0.0
  0
LINE
  5
475
  8
CAIXILHOS
 62
     0
 10
3072.16918945
 20
-1027.4675293
 30
0.0
 11
3049.80761719
 21
-1056.53747559
 31
0.0
  0
LINE
  5
476
  8
CAIXILHOS
 62
     0
 10
3862.52832031
 20
-0.0000614672899246
 30
0.0
 11
3072.16918945
 21
-1027.4675293
 31
0.0
  0
LINE
  5
477
  8
CAIXILHOS
 62
     0
 10
3059.84130859
 20
1043.49450684
 30
0.0
 11
3862.52832031
 21
-0.0000614672899246
 31
0.0
  0
LINE
  5
478
  8
CAIXILHOS
 62
     0
 10
3033.76831055
 20
1077.3885498
 30
0.0
 11
3059.84130859
 21
1043.49450684
 31
0.0
  0
LINE
  5
479
  8
CAIXILHOS
 62
     0
 10
2472.54931641
 20
1806.97253418
 30
0.0
 11
3033.76831055
 21
1077.3885498
 31
0.0
  0
LINE
  5
47A
  8
CAIXILHOS
 62
     0
 10
285.995361328
 20
1806.97253418
 30
0.0
 11
2472.54931641
 21
1806.97253418
 31
0.0
  0
LINE
  5
47B
  8
CAIXILHOS
 62
     0
 10
285.995361328
 20
1806.97253418
 30
0.0
 11
285.995361328
 21
1030.80847168
 31
0.0
  0
LINE
  5
47C
  8
CAIXILHOS
 62
     0
 10
2859.02832031
 20
1030.80847168
 30
0.0
 11
285.995361328
 21
1030.80847168
 31
0.0
  0
LINE
  5
47D
  8
CAIXILHOS
 62
     0
 10
2858.98730469
 20
1009.88446045
 30
0.0
 11
2859.02832031
 21
1030.80847168
 31
0.0
  0
LINE
  5
47E
  8
CAIXILHOS
 62
     0
 10
2859.02441406
 20
-975.718383789
 30
0.0
 11
2858.98730469
 21
1009.88446045
 31
0.0
  0
LINE
  5
47F
  8
CAIXILHOS
 62
     0
 10
2859.02832031
 20
-999.05480957
 30
0.0
 11
2859.02441406
 21
-975.718383789
 31
0.0
  0
LINE
  5
480
  8
CAIXILHOS
 62
     0
 10
2889.02856445
 20
-999.05480957
 30
0.0
 11
2889.02416992
 21
-975.718383789
 31
0.0
  0
LINE
  5
481
  8
CAIXILHOS
 62
     0
 10
2889.02416992
 20
-975.718383789
 30
0.0
 11
2888.98754883
 21
1009.88446045
 31
0.0
  0
LINE
  5
482
  8
CAIXILHOS
 62
     0
 10
2888.98754883
 20
1009.88446045
 30
0.0
 11
2889.02856445
 21
1030.80847168
 31
0.0
  0
LINE
  5
483
  8
CAIXILHOS
 62
     0
 10
2909.02856445
 20
1030.80847168
 30
0.0
 11
2889.02856445
 21
1030.80847168
 31
0.0
  0
LINE
  5
484
  8
CAIXILHOS
 62
     0
 10
3014.52929688
 20
1030.58740234
 30
0.0
 11
2909.02856445
 21
1030.80847168
 31
0.0
  0
LINE
  5
485
  8
CAIXILHOS
 62
     0
 10
3014.52929688
 20
1030.58740234
 30
0.0
 11
3807.28857422
 21
-0.0000614672899246
 31
0.0
  0
LINE
  5
486
  8
CAIXILHOS
 62
     0
 10
3807.28857422
 20
-0.0000614672899246
 30
0.0
 11
3038.80541992
 21
-999.028564453
 31
0.0
  0
LINE
  5
487
  8
CAIXILHOS
 62
     0
 10
3038.80541992
 20
-999.028564453
 30
0.0
 11
2909.02856445
 21
-999.05480957
 31
0.0
  0
LINE
  5
488
  8
CAIXILHOS
 62
     0
 10
2909.02856445
 20
-999.05480957
 30
0.0
 11
2889.02856445
 21
-999.05480957
 31
0.0
  0
LINE
  5
489
  8
CAIXILHOS
 62
     0
 10
2397.48046875
 20
-1025.67150879
 30
0.0
 11
2397.48046875
 21
-1751.15551758
 31
0.0
  0
LINE
  5
48A
  8
CAIXILHOS
 62
     0
 10
353.280975342
 20
-1751.15551758
 30
0.0
 11
2397.48046875
 21
-1751.15551758
 31
0.0
  0
LINE
  5
48B
  8
CAIXILHOS
 62
     0
 10
353.280975342
 20
-1025.67150879
 30
0.0
 11
353.280975342
 21
-1751.15551758
 31
0.0
  0
LINE
  5
48C
  8
CAIXILHOS
 62
     0
 10
353.280975342
 20
-1025.67150879
 30
0.0
 11
2397.48046875
 21
-1025.67150879
 31
0.0
  0
LINE
  5
48D
  8
CAIXILHOS
 62
     0
 10
353.280975342
 20
1062.68640137
 30
0.0
 11
2397.48046875
 21
1062.68640137
 31
0.0
  0
LINE
  5
48E
  8
CAIXILHOS
 62
     0
 10
353.280975342
 20
1062.68640137
 30
0.0
 11
353.280975342
 21
1751.15551758
 31
0.0
  0
LINE
  5
48F
  8
CAIXILHOS
 62
     0
 10
2397.48046875
 20
1751.15551758
 30
0.0
 11
353.280975342
 21
1751.15551758
 31
0.0
  0
LINE
  5
490
  8
CAIXILHOS
 62
     0
 10
2397.48046875
 20
1062.68640137
 30
0.0
 11
2397.48046875
 21
1751.15551758
 31
0.0
  0
LINE
  5
491
  8
CAIXILHOS
 62
     0
 10
2859.02832031
 20
-1026.04248047
 30
0.0
 11
2473.92138672
 21
-1025.67150879
 31
0.0
  0
LINE
  5
492
  8
CAIXILHOS
 62
     0
 10
2889.02856445
 20
-1026.13061523
 30
0.0
 11
2859.02832031
 21
-1026.04248047
 31
0.0
  0
LINE
  5
493
  8
CAIXILHOS
 62
     0
 10
2909.02856445
 20
-1026.13061523
 30
0.0
 11
2889.02856445
 21
-1026.13061523
 31
0.0
  0
LINE
  5
494
  8
CAIXILHOS
 62
     0
 10
3017.89038086
 20
-1026.21850586
 30
0.0
 11
2909.02856445
 21
-1026.13061523
 31
0.0
  0
LINE
  5
495
  8
CAIXILHOS
 62
     0
 10
3017.89038086
 20
-1026.21850586
 30
0.0
 11
2460.24658203
 21
-1751.15551758
 31
0.0
  0
LINE
  5
496
  8
CAIXILHOS
 62
     0
 10
2460.24658203
 20
-1025.67150879
 30
0.0
 11
2460.24658203
 21
-1751.15551758
 31
0.0
  0
LINE
  5
497
  8
CAIXILHOS
 62
     0
 10
2473.92138672
 20
-1025.67150879
 30
0.0
 11
2460.24658203
 21
-1025.67150879
 31
0.0
  0
LINE
  5
498
  8
CAIXILHOS
 62
     0
 10
2989.78320312
 20
1062.75744629
 30
0.0
 11
2909.02856445
 21
1062.68640137
 31
0.0
  0
LINE
  5
499
  8
CAIXILHOS
 62
     0
 10
2909.02856445
 20
1062.68640137
 30
0.0
 11
2460.24658203
 21
1062.68640137
 31
0.0
  0
LINE
  5
49A
  8
CAIXILHOS
 62
     0
 10
2460.24658203
 20
1062.68640137
 30
0.0
 11
2460.24658203
 21
1751.15551758
 31
0.0
  0
LINE
  5
49B
  8
CAIXILHOS
 62
     0
 10
2460.24658203
 20
1751.15551758
 30
0.0
 11
2989.78320312
 21
1062.75744629
 31
0.0
  0
LINE
  5
49C
  8
CAIXILHOS
 62
     0
 10
2473.921469
 20
-1043.65344241
 30
0.0
 11
2883.34267807
 21
-1043.78657599
 31
0.0
  0
LINE
  5
49D
  8
CAIXILHOS
 62
     0
 10
2898.49732259
 20
-1043.79150391
 30
0.0
 11
2981.46044922
 21
-1043.81848145
 31
0.0
  0
LINE
  5
49E
  8
CAIXILHOS
 62
     0
 10
2507.54773183
 20
-1043.66322716
 30
0.0
 11
2881.21962837
 21
-1043.78473596
 31
0.0
  0
LINE
  5
49F
  8
CAIXILHOS
 62
     0
 10
2902.0328565
 20
-1043.79150391
 30
0.0
 11
2957.14378322
 21
-1043.80942461
 31
0.0
  0
LINE
  5
4A0
  8
CAIXILHOS
 62
     0
 10
2981.46044922
 20
-1043.81848145
 30
0.0
 11
2473.92138672
 21
-1703.61950684
 31
0.0
  0
LINE
  5
4A1
  8
CAIXILHOS
 62
     0
 10
2473.92138672
 20
-1703.61950684
 30
0.0
 11
2473.92138672
 21
-1043.65344238
 31
0.0
  0
LINE
  5
4A2
  8
CAIXILHOS
 62
     0
 10
376.546966553
 20
1736.43652344
 30
0.0
 11
376.546966553
 21
1084.1595459
 31
0.0
  0
LINE
  5
4A3
  8
CAIXILHOS
 62
     0
 10
376.546966553
 20
1084.1595459
 30
0.0
 11
2374.21435547
 21
1084.1595459
 31
0.0
  0
LINE
  5
4A4
  8
CAIXILHOS
 62
     0
 10
2374.21435547
 20
1084.1595459
 30
0.0
 11
2374.21435547
 21
1736.43652344
 31
0.0
  0
LINE
  5
4A5
  8
CAIXILHOS
 62
     0
 10
2374.21435547
 20
1736.43652344
 30
0.0
 11
376.546966553
 21
1736.43652344
 31
0.0
  0
LINE
  5
4A6
  8
CAIXILHOS
 62
     0
 10
2397.48046875
 20
-1751.15551758
 30
0.0
 11
2397.48046875
 21
-1025.67150879
 31
0.0
  0
LINE
  5
4A7
  8
CAIXILHOS
 62
     0
 10
353.280975342
 20
-1025.67150879
 30
0.0
 11
2397.48046875
 21
-1025.67150879
 31
0.0
  0
LINE
  5
4A8
  8
CAIXILHOS
 62
     0
 10
353.280975342
 20
-1751.15551758
 30
0.0
 11
353.280975342
 21
-1025.67150879
 31
0.0
  0
LINE
  5
4A9
  8
CAIXILHOS
 62
     0
 10
2397.48046875
 20
-1751.15551758
 30
0.0
 11
353.280975342
 21
-1751.15551758
 31
0.0
  0
LINE
  5
4AA
  8
CAIXILHOS
 62
     0
 10
2379.00732422
 20
-1737.57751465
 30
0.0
 11
371.753692627
 21
-1737.57751465
 31
0.0
  0
LINE
  5
4AB
  8
CAIXILHOS
 62
     0
 10
371.753692627
 20
-1737.57751465
 30
0.0
 11
371.753692627
 21
-1043.65344238
 31
0.0
  0
LINE
  5
4AC
  8
CAIXILHOS
 62
     0
 10
371.753692627
 20
-1043.65344238
 30
0.0
 11
2379.00732422
 21
-1043.65344238
 31
0.0
  0
LINE
  5
4AD
  8
CAIXILHOS
 62
     0
 10
2379.00732422
 20
-1043.65344238
 30
0.0
 11
2379.00732422
 21
-1737.57751465
 31
0.0
  0
LINE
  5
4AE
  8
CAIXILHOS
 62
     0
 10
3017.8894043
 20
-1026.21850586
 30
0.0
 11
2909.02856445
 21
-1026.13061523
 31
0.0
  0
LINE
  5
4AF
  8
CAIXILHOS
 62
     0
 10
2859.02832031
 20
-1026.04248047
 30
0.0
 11
2473.92138672
 21
-1025.67150879
 31
0.0
  0
LINE
  5
4B0
  8
CAIXILHOS
 62
     0
 10
2473.92138672
 20
-1025.67150879
 30
0.0
 11
2460.24658203
 21
-1025.67150879
 31
0.0
  0
LINE
  5
4B1
  8
CAIXILHOS
 62
     0
 10
2460.24658203
 20
-1025.67150879
 30
0.0
 11
2460.24658203
 21
-1751.15551758
 31
0.0
  0
LINE
  5
4B2
  8
CAIXILHOS
 62
     0
 10
2460.24658203
 20
-1751.15551758
 30
0.0
 11
3017.8894043
 21
-1026.21850586
 31
0.0
  0
LINE
  5
4B3
  8
CAIXILHOS
 62
     0
 10
2981.46044922
 20
-1043.81848145
 30
0.0
 11
2909.02856445
 21
-1043.79150391
 31
0.0
  0
LINE
  5
4B4
  8
CAIXILHOS
 62
     0
 10
2981.46044922
 20
-1043.81848145
 30
0.0
 11
2473.92138672
 21
-1703.61950684
 31
0.0
  0
LINE
  5
4B5
  8
CAIXILHOS
 62
     0
 10
2473.92138672
 20
-1703.61950684
 30
0.0
 11
2473.92138672
 21
-1043.65344238
 31
0.0
  0
LINE
  5
4B6
  8
CAIXILHOS
 62
     0
 10
2859.02832031
 20
-1043.76550293
 30
0.0
 11
2473.92138672
 21
-1043.65344238
 31
0.0
  0
LINE
  5
4B7
  8
CAIXILHOS
 62
     0
 10
2889.02856445
 20
-1043.79150391
 30
0.0
 11
2859.02832031
 21
-1043.76550293
 31
0.0
  0
LINE
  5
4B8
  8
CAIXILHOS
 62
     0
 10
2909.02856445
 20
-1043.79150391
 30
0.0
 11
2889.02856445
 21
-1043.79150391
 31
0.0
  0
LINE
  5
4B9
  8
CAIXILHOS
 62
     0
 10
2397.48046875
 20
1062.68640137
 30
0.0
 11
2397.48046875
 21
1751.15551758
 31
0.0
  0
LINE
  5
4BA
  8
CAIXILHOS
 62
     0
 10
353.280975342
 20
1751.15551758
 30
0.0
 11
2397.48046875
 21
1751.15551758
 31
0.0
  0
LINE
  5
4BB
  8
CAIXILHOS
 62
     0
 10
353.280975342
 20
1062.68640137
 30
0.0
 11
2397.48046875
 21
1062.68640137
 31
0.0
  0
LINE
  5
4BC
  8
CAIXILHOS
 62
     0
 10
376.546966553
 20
1084.1595459
 30
0.0
 11
2374.21435547
 21
1084.1595459
 31
0.0
  0
LINE
  5
4BD
  8
CAIXILHOS
 62
     0
 10
376.546966553
 20
1736.43652344
 30
0.0
 11
376.546966553
 21
1084.1595459
 31
0.0
  0
LINE
  5
4BE
  8
CAIXILHOS
 62
     0
 10
376.546966553
 20
1736.43652344
 30
0.0
 11
2374.21435547
 21
1736.43652344
 31
0.0
  0
LINE
  5
4BF
  8
CAIXILHOS
 62
     0
 10
2374.21435547
 20
1736.43652344
 30
0.0
 11
2374.21435547
 21
1084.1595459
 31
0.0
  0
LINE
  5
4C0
  8
CAIXILHOS
 62
     0
 10
2889.02856463
 20
1030.80847168
 30
0.0
 11
3014.52929688
 21
1030.58740234
 31
0.0
  0
LINE
  5
4C1
  8
CAIXILHOS
 62
     0
 10
2889.02856445
 20
-999.054792975
 30
0.0
 11
2889.02856445
 21
1030.80847009
 31
0.0
  0
LINE
  5
4C2
  8
CAIXILHOS
 62
     0
 10
3014.52929688
 20
1030.58740234
 30
0.0
 11
3807.28857422
 21
-0.0000614672899246
 31
0.0
  0
LINE
  5
4C3
  8
CAIXILHOS
 62
     0
 10
3038.80541992
 20
-999.028564453
 30
0.0
 11
2889.02856445
 21
-999.05480957
 31
0.0
  0
LINE
  5
4C4
  8
CAIXILHOS
 62
     0
 10
3807.28857422
 20
-0.0000614672899246
 30
0.0
 11
3038.80541992
 21
-999.028564453
 31
0.0
  0
LINE
  5
4C5
  8
CAIXILHOS
 62
     0
 10
3775.86376953
 20
-7.10742807388
 30
0.0
 11
3030.79833984
 21
-975.692138672
 31
0.0
  0
LINE
  5
4C6
  8
CAIXILHOS
 62
     0
 10
3030.79833984
 20
-975.692138672
 30
0.0
 11
2909.02416992
 21
-975.718383789
 31
0.0
  0
LINE
  5
4C7
  8
CAIXILHOS
 62
     0
 10
2909.02416992
 20
-975.718383789
 30
0.0
 11
2908.98632812
 21
1009.88446045
 31
0.0
  0
LINE
  5
4C8
  8
CAIXILHOS
 62
     0
 10
2908.98632812
 20
1009.88446045
 30
0.0
 11
2993.73242188
 21
1009.66345215
 31
0.0
  0
LINE
  5
4C9
  8
CAIXILHOS
 62
     0
 10
2993.73242188
 20
1009.66345215
 30
0.0
 11
3775.86376953
 21
-7.10742807388
 31
0.0
  0
LINE
  5
4CA
  8
CAIXILHOS
 62
     0
 10
2460.24658203
 20
1751.15551758
 30
0.0
 11
2989.78320312
 21
1062.75744629
 31
0.0
  0
LINE
  5
4CB
  8
CAIXILHOS
 62
     0
 10
2460.24658203
 20
1062.68640137
 30
0.0
 11
2460.24658203
 21
1751.15551758
 31
0.0
  0
LINE
  5
4CC
  8
CAIXILHOS
 62
     0
 10
2989.78320312
 20
1062.75744629
 30
0.0
 11
2460.24658203
 21
1062.68640137
 31
0.0
  0
LINE
  5
4CD
  8
CAIXILHOS
 62
     0
 10
2480.98754883
 20
1702.84448242
 30
0.0
 11
2956.89871777
 21
1084.1595459
 31
0.0
  0
LINE
  5
4CE
  8
CAIXILHOS
 62
     0
 10
2956.89871777
 20
1084.1595459
 30
0.0
 11
2480.98754883
 21
1084.1595459
 31
0.0
  0
LINE
  5
4CF
  8
CAIXILHOS
 62
     0
 10
2480.98754883
 20
1084.1595459
 30
0.0
 11
2480.98754883
 21
1702.84448242
 31
0.0
  0
LINE
  5
4D0
  8
CAIXILHOS
 62
     0
 10
2908.98632812
 20
1009.88446045
 30
0.0
 11
2993.73242188
 21
1009.66345215
 31
0.0
  0
LINE
  5
4D1
  8
CAIXILHOS
 62
     0
 10
2993.73242188
 20
1009.66345215
 30
0.0
 11
3775.86376953
 21
-7.10742807388
 31
0.0
  0
LINE
  5
4D2
  8
CAIXILHOS
 62
     0
 10
3775.86376953
 20
-7.10742807388
 30
0.0
 11
3030.79833984
 21
-975.692138672
 31
0.0
  0
LINE
  5
4D3
  8
CAIXILHOS
 62
     0
 10
3030.79833984
 20
-975.692138672
 30
0.0
 11
2909.02416992
 21
-975.718383789
 31
0.0
  0
LINE
  5
4D4
  8
CAIXILHOS
 62
     0
 10
2909.02416992
 20
-975.718383789
 30
0.0
 11
2908.98632812
 21
1009.88446045
 31
0.0
  0
LINE
  5
4D5
  8
CAIXILHOS
 62
     0
 10
371.753692627
 20
-1043.65344238
 30
0.0
 11
371.753692627
 21
-1737.57751465
 31
0.0
  0
LINE
  5
4D6
  8
CAIXILHOS
 62
     0
 10
371.753692627
 20
-1737.57751465
 30
0.0
 11
2379.00732422
 21
-1737.57751465
 31
0.0
  0
LINE
  5
4D7
  8
CAIXILHOS
 62
     0
 10
2379.00732422
 20
-1737.57751465
 30
0.0
 11
2379.00732422
 21
-1043.65344238
 31
0.0
  0
LINE
  5
4D8
  8
CAIXILHOS
 62
     0
 10
2379.00732422
 20
-1043.65344238
 30
0.0
 11
371.753692627
 21
-1043.65344238
 31
0.0
  0
LINE
  5
4D9
  8
CAIXILHOS
 62
     0
 10
2480.98754883
 20
1702.84448242
 30
0.0
 11
2956.89871777
 21
1084.1595459
 31
0.0
  0
LINE
  5
4DA
  8
CAIXILHOS
 62
     0
 10
2956.89871777
 20
1084.1595459
 30
0.0
 11
2480.98754883
 21
1084.1595459
 31
0.0
  0
LINE
  5
4DB
  8
CAIXILHOS
 62
     0
 10
2480.98754883
 20
1084.1595459
 30
0.0
 11
2480.98754883
 21
1702.84448242
 31
0.0
  0
ENDBLK
  5
4DC
  8
0
  0
BLOCK
  8
0
  2
*D2
 70
     1
 10
0.0
 20
0.0
 30
0.0
  3
*D2
  1

  0
LINE
  5
532
  8
NEW
 62
     0
 10
-297.7113902298935
 20
116.8146226415095
 30
0.0
 11
-297.7113902298935
 21
110.9602093552894
 31
0.0
  0
LINE
  5
533
  8
NEW
 62
     0
 10
-247.7113902298935
 20
116.8146226415095
 30
0.0
 11
-247.7113902298935
 21
110.9602093552894
 31
0.0
  0
LINE
  5
534
  8
NEW
 62
     0
 10
-295.2113902298935
 20
112.2102093552894
 30
0.0
 11
-250.2113902298935
 21
112.2102093552894
 31
0.0
  0
SOLID
  5
535
  8
NEW
 62
     0
 10
-295.2113902298935
 20
112.6268760219561
 30
0.0
 11
-295.2113902298935
 21
111.7935426886228
 31
0.0
 12
-297.7113902298935
 22
112.2102093552894
 32
0.0
 13
-297.7113902298935
 23
112.2102093552894
 33
0.0
  0
SOLID
  5
536
  8
NEW
 62
     0
 10
-250.2113902298935
 20
111.7935426886228
 30
0.0
 11
-250.2113902298935
 21
112.6268760219561
 31
0.0
 12
-247.7113902298935
 22
112.2102093552894
 32
0.0
 13
-247.7113902298935
 23
112.2102093552894
 33
0.0
  0
TEXT
  5
537
  8
NEW
  6
CONTINUOUS
 62
     0
 10
-274.6426658097025
 20
112.8778423702962
 30
0.0
 40
2.5
  1
50
  0
POINT
  5
538
  8
DEFPOINTS
 62
     0
 10
-297.7113902298935
 20
117.4396226415095
 30
0.0
  0
POINT
  5
539
  8
DEFPOINTS
 62
     0
 10
-247.7113902298935
 20
117.4396226415095
 30
0.0
  0
POINT
  5
53A
  8
DEFPOINTS
 62
     0
 10
-247.7113902298935
 20
112.2102093552894
 30
0.0
  0
ENDBLK
  5
531
  8
0
  0
BLOCK
  8
0
  2
*D3
 70
     1
 10
0.0
 20
0.0
 30
0.0
  3
*D3
  1

  0
LINE
  5
542
  8
NEW
 62
     0
 10
-297.7113902298935
 20
116.8146226415095
 30
0.0
 11
-297.7113902298935
 21
107.5998881519846
 31
0.0
  0
LINE
  5
543
  8
NEW
 62
     0
 10
-247.7113902298935
 20
116.8146226415095
 30
0.0
 11
-247.7113902298935
 21
107.5998881519846
 31
0.0
  0
LINE
  5
544
  8
NEW
 62
     0
 10
-295.2113902298935
 20
108.8498881519846
 30
0.0
 11
-250.2113902298935
 21
108.8498881519846
 31
0.0
  0
SOLID
  5
545
  8
NEW
 62
     0
 10
-295.2113902298935
 20
109.2665548186513
 30
0.0
 11
-295.2113902298935
 21
108.4332214853179
 31
0.0
 12
-297.7113902298935
 22
108.8498881519846
 32
0.0
 13
-297.7113902298935
 23
108.8498881519846
 33
0.0
  0
SOLID
  5
546
  8
NEW
 62
     0
 10
-250.2113902298935
 20
108.4332214853179
 30
0.0
 11
-250.2113902298935
 21
109.2665548186513
 31
0.0
 12
-247.7113902298935
 22
108.8498881519846
 32
0.0
 13
-247.7113902298935
 23
108.8498881519846
 33
0.0
  0
TEXT
  5
547
  8
NEW
  6
CONTINUOUS
 62
     0
 10
-274.6426658097025
 20
109.5175211669914
 30
0.0
 40
2.5
  1
50
  0
POINT
  5
548
  8
DEFPOINTS
 62
     0
 10
-297.7113902298935
 20
117.4396226415095
 30
0.0
  0
POINT
  5
549
  8
DEFPOINTS
 62
     0
 10
-247.7113902298935
 20
117.4396226415095
 30
0.0
  0
POINT
  5
54A
  8
DEFPOINTS
 62
     0
 10
-247.7113902298935
 20
108.8498881519846
 30
0.0
  0
ENDBLK
  5
541
  8
0
  0
BLOCK
  8
0
  2
*D4
 70
     1
 10
0.0
 20
0.0
 30
0.0
  3
*D4
  1

  0
LINE
  5
551
  8
NEW
 62
     0
 10
-298.3363902298935
 20
117.4396226415095
 30
0.0
 11
-317.9507263834779
 21
117.4396226415095
 31
0.0
  0
LINE
  5
552
  8
NEW
 62
     0
 10
-273.3363894219597
 20
167.8254922010526
 30
0.0
 11
-317.9507263834779
 21
167.8254922010526
 31
0.0
  0
LINE
  5
553
  8
NEW
 62
     0
 10
-316.7007263834779
 20
119.9396226415095
 30
0.0
 11
-316.7007263834779
 21
165.3254922010526
 31
0.0
  0
SOLID
  5
554
  8
NEW
 62
     0
 10
-317.1173930501446
 20
119.9396226415095
 30
0.0
 11
-316.2840597168112
 21
119.9396226415095
 31
0.0
 12
-316.7007263834779
 22
117.4396226415095
 32
0.0
 13
-316.7007263834779
 23
117.4396226415095
 33
0.0
  0
SOLID
  5
555
  8
NEW
 62
     0
 10
-316.2840597168112
 20
165.3254922010526
 30
0.0
 11
-317.1173930501446
 21
165.3254922010526
 31
0.0
 12
-316.7007263834779
 22
167.8254922010526
 32
0.0
 13
-316.7007263834779
 23
167.8254922010526
 33
0.0
  0
TEXT
  5
556
  8
NEW
  6
CONTINUOUS
 62
     0
 10
-317.370064719085
 20
138.2669366845825
 30
0.0
 40
2.5
  1
50.39
 50
90.0
  0
POINT
  5
557
  8
DEFPOINTS
 62
     0
 10
-297.7113902298935
 20
117.4396226415095
 30
0.0
  0
POINT
  5
558
  8
DEFPOINTS
 62
     0
 10
-272.7113894219597
 20
167.8254922010526
 30
0.0
  0
POINT
  5
559
  8
DEFPOINTS
 62
     0
 10
-316.7007263834779
 20
167.8254922010526
 30
0.0
  0
ENDBLK
  5
550
  8
0
  0
BLOCK
  8
0
  2
*D5
 70
     1
 10
0.0
 20
0.0
 30
0.0
  3
*D5
  1

  0
LINE
  5
586
  8
NEW
 62
     0
 10
-245.044468639969
 20
116.8146226415095
 30
0.0
 11
-245.044468639969
 21
107.5998881519846
 31
0.0
  0
LINE
  5
587
  8
NEW
 62
     0
 10
-140.044468639969
 20
116.8146226415095
 30
0.0
 11
-140.044468639969
 21
107.5998881519846
 31
0.0
  0
LINE
  5
588
  8
NEW
 62
     0
 10
-242.544468639969
 20
108.8498881519846
 30
0.0
 11
-142.544468639969
 21
108.8498881519846
 31
0.0
  0
SOLID
  5
589
  8
NEW
 62
     0
 10
-242.544468639969
 20
109.2665548186513
 30
0.0
 11
-242.544468639969
 21
108.4332214853179
 31
0.0
 12
-245.044468639969
 22
108.8498881519846
 32
0.0
 13
-245.044468639969
 23
108.8498881519846
 33
0.0
  0
SOLID
  5
58A
  8
NEW
 62
     0
 10
-142.544468639969
 20
108.4332214853179
 30
0.0
 11
-142.544468639969
 21
109.2665548186513
 31
0.0
 12
-140.044468639969
 22
108.8498881519846
 32
0.0
 13
-140.044468639969
 23
108.8498881519846
 33
0.0
  0
TEXT
  5
58B
  8
NEW
  6
CONTINUOUS
 62
     0
 10
-195.5782339878544
 20
109.5175211669914
 30
0.0
 40
2.5
  1
105
  0
POINT
  5
58C
  8
DEFPOINTS
 62
     0
 10
-245.044468639969
 20
117.4396226415095
 30
0.0
  0
POINT
  5
58D
  8
DEFPOINTS
 62
     0
 10
-140.044468639969
 20
117.4396226415095
 30
0.0
  0
POINT
  5
58E
  8
DEFPOINTS
 62
     0
 10
-140.044468639969
 20
108.8498881519846
 30
0.0
  0
ENDBLK
  5
585
  8
0
  0
BLOCK
  8
0
  2
*D6
 70
     1
 10
0.0
 20
0.0
 30
0.0
  3
*D6
  1

  0
LINE
  5
595
  8
NEW
 62
     0
 10
-225.9850473810026
 20
117.4396226415095
 30
0.0
 11
-233.7271222138061
 21
117.4396226415095
 31
0.0
  0
LINE
  5
596
  8
NEW
 62
     0
 10
-225.9850473810026
 20
148.5947211189002
 30
0.0
 11
-233.7271222138061
 21
148.5947211189002
 31
0.0
  0
LINE
  5
597
  8
NEW
 62
     0
 10
-232.4771222138061
 20
119.9396226415095
 30
0.0
 11
-232.4771222138061
 21
146.0947211189002
 31
0.0
  0
SOLID
  5
598
  8
NEW
 62
     0
 10
-232.8937888804728
 20
119.9396226415095
 30
0.0
 11
-232.0604555471394
 21
119.9396226415095
 31
0.0
 12
-232.4771222138061
 22
117.4396226415095
 32
0.0
 13
-232.4771222138061
 23
117.4396226415095
 33
0.0
  0
SOLID
  5
599
  8
NEW
 62
     0
 10
-232.0604555471394
 20
146.0947211189002
 30
0.0
 11
-232.8937888804728
 21
146.0947211189002
 31
0.0
 12
-232.4771222138061
 22
148.5947211189002
 32
0.0
 13
-232.4771222138061
 23
148.5947211189002
 33
0.0
  0
TEXT
  5
59A
  8
NEW
  6
CONTINUOUS
 62
     0
 10
-233.1464605494132
 20
128.6541091244067
 30
0.0
 40
2.5
  1
31.16
 50
90.0
  0
POINT
  5
59B
  8
DEFPOINTS
 62
     0
 10
-225.3600473810026
 20
117.4396226415095
 30
0.0
  0
POINT
  5
59C
  8
DEFPOINTS
 62
     0
 10
-225.3600473810026
 20
148.5947211189002
 30
0.0
  0
POINT
  5
59D
  8
DEFPOINTS
 62
     0
 10
-232.4771222138061
 20
148.5947211189002
 30
0.0
  0
ENDBLK
  5
594
  8
0
  0
BLOCK
  8
0
  2
*D7
 70
     1
 10
0.0
 20
0.0
 30
0.0
  3
*D7
  1

  0
LINE
  5
5B4
  8
0
 62
     0
 10
-245.044468639969
 20
144.683324476224
 30
0.0
 11
-245.044468639969
 21
153.5022135850824
 31
0.0
  0
LINE
  5
5B5
  8
0
 62
     0
 10
-238.644468639969
 20
144.683324476224
 30
0.0
 11
-238.644468639969
 21
153.5022135850824
 31
0.0
  0
LINE
  5
5B6
  8
0
 62
     0
 10
-242.544468639969
 20
152.2522135850824
 30
0.0
 11
-241.144468639969
 21
152.2522135850824
 31
0.0
  0
SOLID
  5
5B7
  8
0
 62
     0
 10
-242.544468639969
 20
152.668880251749
 30
0.0
 11
-242.544468639969
 21
151.8355469184157
 31
0.0
 12
-245.044468639969
 22
152.2522135850824
 32
0.0
 13
-245.044468639969
 23
152.2522135850824
 33
0.0
  0
SOLID
  5
5B8
  8
0
 62
     0
 10
-241.144468639969
 20
151.8355469184157
 30
0.0
 11
-241.144468639969
 21
152.668880251749
 31
0.0
 12
-238.644468639969
 22
152.2522135850824
 32
0.0
 13
-238.644468639969
 23
152.2522135850824
 33
0.0
  0
TEXT
  5
5B9
  8
0
  6
CONTINUOUS
 62
     0
 10
-244.2532339878544
 20
152.9198466000892
 30
0.0
 40
2.5
  1
6.4
  0
POINT
  5
5BA
  8
DEFPOINTS
 62
     0
 10
-245.044468639969
 20
144.058324476224
 30
0.0
  0
POINT
  5
5BB
  8
DEFPOINTS
 62
     0
 10
-238.644468639969
 20
144.058324476224
 30
0.0
  0
POINT
  5
5BC
  8
DEFPOINTS
 62
     0
 10
-238.644468639969
 20
152.2522135850824
 30
0.0
  0
ENDBLK
  5
5B3
  8
0
  0
BLOCK
  8
0
  2
*D8
 70
     1
 10
0.0
 20
0.0
 30
0.0
  3
*D8
  1

  0
LINE
  5
5EE
  8
NEW
 62
     0
 10
-242.0241992259256
 20
163.428310424042
 30
0.0
 11
-240.944929233774
 21
164.8313612334219
 31
0.0
  0
LINE
  5
5EF
  8
NEW
 62
     0
 10
-240.4389518757547
 20
162.2088892286445
 30
0.0
 11
-239.3596818836031
 21
163.6119400380244
 31
0.0
  0
LINE
  5
5F0
  8
NEW
 62
     0
 10
-241.7070677464067
 20
163.8405812944031
 30
0.0
 11
-240.1218203962358
 21
162.6211600990056
 31
0.0
  0
LINE
  5
5F1
  8
NEW
 62
     0
 10
-243.6886276244442
 20
165.3648583196684
 30
0.0
 11
-245.6701875024818
 21
166.8891353449338
 31
0.0
  0
LINE
  5
5F2
  8
NEW
 62
     0
 10
-238.1402605181982
 20
161.0968830737402
 30
0.0
 11
-236.1587006401606
 21
159.5726060484749
 31
0.0
  0
SOLID
  5
5F3
  8
NEW
 62
     0
 10
-243.9426737953218
 20
165.0345983399955
 30
0.0
 11
-243.4345814535667
 21
165.6951182993413
 31
0.0
 12
-241.7070677464067
 22
163.8405812944031
 32
0.0
 13
-241.7070677464067
 23
163.8405812944031
 33
0.0
  0
SOLID
  5
5F4
  8
NEW
 62
     0
 10
-237.8862143473206
 20
161.4271430534131
 30
0.0
 11
-238.3943066890758
 21
160.7666230940673
 31
0.0
 12
-240.1218203962358
 22
162.6211600990056
 32
0.0
 13
-240.1218203962358
 23
162.6211600990056
 33
0.0
  0
TEXT
  5
5F5
  8
NEW
  6
CONTINUOUS
 62
     0
 10
-240.3180419971809
 20
165.5319205267418
 30
0.0
 40
2.5
  1
2
 50
322.4314044106109
  0
POINT
  5
5F6
  8
DEFPOINTS
 62
     0
 10
-242.405268482242
 20
162.9329204545326
 30
0.0
  0
POINT
  5
5F7
  8
DEFPOINTS
 62
     0
 10
-240.8200211320711
 20
161.7134992591351
 30
0.0
  0
POINT
  5
5F8
  8
DEFPOINTS
 62
     0
 10
-240.1218203962358
 20
162.6211600990056
 30
0.0
  0
ENDBLK
  5
5ED
  8
0
  0
BLOCK
  8
0
  2
*D9
 70
     1
 10
0.0
 20
0.0
 30
0.0
  3
*D9
  1

  0
LINE
  5
7AF
  8
NEW
 62
     0
 10
-224.044468639969
 20
116.8146226415095
 30
0.0
 11
-224.044468639969
 21
112.4924372075945
 31
0.0
  0
LINE
  5
7B0
  8
NEW
 62
     0
 10
-215.144468639969
 20
116.8146226415095
 30
0.0
 11
-215.144468639969
 21
112.4924372075945
 31
0.0
  0
LINE
  5
7B1
  8
NEW
 62
     0
 10
-221.544468639969
 20
113.7424372075945
 30
0.0
 11
-217.644468639969
 21
113.7424372075945
 31
0.0
  0
SOLID
  5
7B2
  8
NEW
 62
     0
 10
-221.544468639969
 20
114.1591038742611
 30
0.0
 11
-221.544468639969
 21
113.3257705409278
 31
0.0
 12
-224.044468639969
 22
113.7424372075945
 32
0.0
 13
-224.044468639969
 23
113.7424372075945
 33
0.0
  0
SOLID
  5
7B3
  8
NEW
 62
     0
 10
-217.644468639969
 20
113.3257705409278
 30
0.0
 11
-217.644468639969
 21
114.1591038742611
 31
0.0
 12
-215.144468639969
 22
113.7424372075945
 32
0.0
 13
-215.144468639969
 23
113.7424372075945
 33
0.0
  0
TEXT
  5
7B4
  8
NEW
  6
CONTINUOUS
 62
     0
 10
-222.0160238923564
 20
114.4100702226013
 30
0.0
 40
2.5
  1
8.9
  0
POINT
  5
7B5
  8
DEFPOINTS
 62
     0
 10
-224.044468639969
 20
117.4396226415095
 30
0.0
  0
POINT
  5
7B6
  8
DEFPOINTS
 62
     0
 10
-215.144468639969
 20
117.4396226415095
 30
0.0
  0
POINT
  5
7B7
  8
DEFPOINTS
 62
     0
 10
-215.144468639969
 20
113.7424372075945
 30
0.0
  0
ENDBLK
  5
7AE
  8
0
  0
BLOCK
  8
0
  2
*D10
 70
     1
 10
0.0
 20
0.0
 30
0.0
  3
*D10
  1

  0
LINE
  5
7BE
  8
NEW
 62
     0
 10
-224.669468639969
 20
117.4396226415095
 30
0.0
 11
-229.0305698527747
 21
117.4396226415095
 31
0.0
  0
LINE
  5
7BF
  8
NEW
 62
     0
 10
-224.669468639969
 20
139.6218741704383
 30
0.0
 11
-229.0305698527747
 21
139.6218741704383
 31
0.0
  0
LINE
  5
7C0
  8
NEW
 62
     0
 10
-227.7805698527747
 20
119.9396226415095
 30
0.0
 11
-227.7805698527747
 21
137.1218741704383
 31
0.0
  0
SOLID
  5
7C1
  8
NEW
 62
     0
 10
-228.1972365194414
 20
119.9396226415095
 30
0.0
 11
-227.363903186108
 21
119.9396226415095
 31
0.0
 12
-227.7805698527747
 22
117.4396226415095
 32
0.0
 13
-227.7805698527747
 23
117.4396226415095
 33
0.0
  0
SOLID
  5
7C2
  8
NEW
 62
     0
 10
-227.363903186108
 20
137.1218741704383
 30
0.0
 11
-228.1972365194414
 21
137.1218741704383
 31
0.0
 12
-227.7805698527747
 22
139.6218741704383
 32
0.0
 13
-227.7805698527747
 23
139.6218741704383
 33
0.0
  0
TEXT
  5
7C3
  8
NEW
  6
CONTINUOUS
 62
     0
 10
-228.4482028677816
 20
124.1864441767788
 30
0.0
 40
2.5
  1
22.18
 50
90.0
  0
POINT
  5
7C4
  8
DEFPOINTS
 62
     0
 10
-224.044468639969
 20
117.4396226415095
 30
0.0
  0
POINT
  5
7C5
  8
DEFPOINTS
 62
     0
 10
-224.044468639969
 20
139.6218741704383
 30
0.0
  0
POINT
  5
7C6
  8
DEFPOINTS
 62
     0
 10
-227.7805698527747
 20
139.6218741704383
 30
0.0
  0
ENDBLK
  5
7BD
  8
0
  0
BLOCK
  8
0
  2
*D11
 70
     1
 10
0.0
 20
0.0
 30
0.0
  3
*D11
  1

  0
LINE
  5
7D5
  8
NEW
 62
     0
 10
-3.396641589432853
 20
217.649527524018
 30
0.0
 11
-29.75252265833905
 21
217.649527524018
 31
0.0
  0
LINE
  5
7D6
  8
NEW
 62
     0
 10
-3.396641589432853
 20
306.7533674515652
 30
0.0
 11
-29.75252265833905
 21
306.7533674515652
 31
0.0
  0
LINE
  5
7D7
  8
NEW
 62
     0
 10
-28.50252265833905
 20
220.149527524018
 30
0.0
 11
-28.50252265833905
 21
304.2533674515652
 31
0.0
  0
SOLID
  5
7D8
  8
NEW
 62
     0
 10
-28.91918932500572
 20
220.149527524018
 30
0.0
 11
-28.08585599167239
 21
220.149527524018
 31
0.0
 12
-28.50252265833905
 22
217.649527524018
 32
0.0
 13
-28.50252265833905
 23
217.649527524018
 33
0.0
  0
SOLID
  5
7D9
  8
NEW
 62
     0
 10
-28.08585599167238
 20
304.2533674515652
 30
0.0
 11
-28.91918932500571
 21
304.2533674515652
 31
0.0
 12
-28.50252265833905
 22
306.7533674515652
 32
0.0
 13
-28.50252265833905
 23
306.7533674515652
 33
0.0
  0
TEXT
  5
7DA
  8
NEW
  6
CONTINUOUS
 62
     0
 10
-29.17015567334585
 20
259.0525729993878
 30
0.0
 40
2.5
  1
89.1
 50
90.0
  0
POINT
  5
7DB
  8
DEFPOINTS
 62
     0
 10
-2.771641589432853
 20
217.649527524018
 30
0.0
  0
POINT
  5
7DC
  8
DEFPOINTS
 62
     0
 10
-2.771641589432853
 20
306.7533674515652
 30
0.0
  0
POINT
  5
7DD
  8
DEFPOINTS
 62
     0
 10
-28.50252265833905
 20
306.7533674515652
 30
0.0
  0
ENDBLK
  5
7D4
  8
0
  0
BLOCK
  8
0
  2
*D12
 70
     1
 10
0.0
 20
0.0
 30
0.0
  3
*D12
  1

  0
LINE
  5
7E4
  8
NEW
 62
     0
 10
-2.771641589432846
 20
307.3783674515652
 30
0.0
 11
-2.771641589432846
 21
319.1946015702273
 31
0.0
  0
LINE
  5
7E5
  8
NEW
 62
     0
 10
208.9860907692906
 20
307.3783674515652
 30
0.0
 11
208.9860907692906
 21
319.1946015702273
 31
0.0
  0
LINE
  5
7E6
  8
NEW
 62
     0
 10
-0.2716415894328463
 20
317.9446015702273
 30
0.0
 11
206.4860907692906
 21
317.9446015702273
 31
0.0
  0
SOLID
  5
7E7
  8
NEW
 62
     0
 10
-0.2716415894328463
 20
318.361268236894
 30
0.0
 11
-0.2716415894328463
 21
317.5279349035607
 31
0.0
 12
-2.771641589432846
 22
317.9446015702273
 32
0.0
 13
-2.771641589432846
 23
317.9446015702273
 33
0.0
  0
SOLID
  5
7E8
  8
NEW
 62
     0
 10
206.4860907692906
 20
317.5279349035607
 30
0.0
 11
206.4860907692906
 21
318.361268236894
 31
0.0
 12
208.9860907692906
 22
317.9446015702273
 32
0.0
 13
208.9860907692906
 23
317.9446015702273
 33
0.0
  0
TEXT
  5
7E9
  8
NEW
  6
CONTINUOUS
 62
     0
 10
97.79515092007895
 20
318.6122345852341
 30
0.0
 40
2.5
  1
211.76
  0
POINT
  5
7EA
  8
DEFPOINTS
 62
     0
 10
-2.771641589432846
 20
306.7533674515652
 30
0.0
  0
POINT
  5
7EB
  8
DEFPOINTS
 62
     0
 10
208.9860907692906
 20
306.7533674515652
 30
0.0
  0
POINT
  5
7EC
  8
DEFPOINTS
 62
     0
 10
208.9860907692906
 20
317.9446015702273
 30
0.0
  0
ENDBLK
  5
7E3
  8
0
  0
BLOCK
  8
0
  2
*D13
 70
     1
 10
0.0
 20
0.0
 30
0.0
  3
*D13
  1

  0
LINE
  5
A90
  8
NEW
 62
     0
 10
127.4420588520783
 20
-10.69894324137908
 30
0.0
 11
127.4420588520783
 21
-14.51044836360414
 31
0.0
  0
LINE
  5
A91
  8
NEW
 62
     0
 10
130.6420588520783
 20
-10.69894324137908
 30
0.0
 11
130.6420588520783
 21
-14.51044836360414
 31
0.0
  0
LINE
  5
A92
  8
NEW
 62
     0
 10
127.4420588520783
 20
-13.26044836360414
 30
0.0
 11
130.6420588520783
 21
-13.26044836360414
 31
0.0
  0
LINE
  5
A93
  8
NEW
 62
     0
 10
124.9420588520783
 20
-13.26044836360414
 30
0.0
 11
122.4420588520783
 21
-13.26044836360414
 31
0.0
  0
LINE
  5
A94
  8
NEW
 62
     0
 10
133.1420588520783
 20
-13.26044836360414
 30
0.0
 11
135.6420588520783
 21
-13.26044836360414
 31
0.0
  0
SOLID
  5
A95
  8
NEW
 62
     0
 10
124.9420588520783
 20
-13.67711503027081
 30
0.0
 11
124.9420588520783
 21
-12.84378169693748
 31
0.0
 12
127.4420588520783
 22
-13.26044836360414
 32
0.0
 13
127.4420588520783
 23
-13.26044836360414
 33
0.0
  0
SOLID
  5
A96
  8
NEW
 62
     0
 10
133.1420588520783
 20
-12.84378169693748
 30
0.0
 11
133.1420588520783
 21
-13.67711503027081
 31
0.0
 12
130.6420588520783
 22
-13.26044836360414
 32
0.0
 13
130.6420588520783
 23
-13.26044836360414
 33
0.0
  0
TEXT
  5
A97
  8
NEW
  6
CONTINUOUS
 62
     0
 10
126.6332935041929
 20
-20.50763458461369
 30
0.0
 40
2.5
  1
3.2
  0
POINT
  5
A98
  8
DEFPOINTS
 62
     0
 10
127.4420588520783
 20
-10.07394324137908
 30
0.0
  0
POINT
  5
A99
  8
DEFPOINTS
 62
     0
 10
130.6420588520783
 20
-10.07394324137908
 30
0.0
  0
POINT
  5
A9A
  8
DEFPOINTS
 62
     0
 10
130.6420588520783
 20
-13.26044836360414
 30
0.0
  0
ENDBLK
  5
A8F
  8
0
  0
BLOCK
  8
0
  2
*D14
 70
     1
 10
0.0
 20
0.0
 30
0.0
  3
*D14
  1

  0
LINE
  5
AA1
  8
NEW
 62
     0
 10
127.4420588520783
 20
-10.69894324137908
 30
0.0
 11
127.4420588520783
 21
-15.35942284221218
 31
0.0
  0
LINE
  5
AA2
  8
NEW
 62
     0
 10
130.6420588520783
 20
-10.69894324137908
 30
0.0
 11
130.6420588520783
 21
-15.35942284221218
 31
0.0
  0
LINE
  5
AA3
  8
NEW
 62
     0
 10
127.4420588520783
 20
-14.10942284221218
 30
0.0
 11
130.6420588520783
 21
-14.10942284221218
 31
0.0
  0
LINE
  5
AA4
  8
NEW
 62
     0
 10
124.9420588520783
 20
-14.10942284221218
 30
0.0
 11
122.4420588520783
 21
-14.10942284221218
 31
0.0
  0
LINE
  5
AA5
  8
NEW
 62
     0
 10
133.1420588520783
 20
-14.10942284221218
 30
0.0
 11
135.6420588520783
 21
-14.10942284221218
 31
0.0
  0
SOLID
  5
AA6
  8
NEW
 62
     0
 10
124.9420588520783
 20
-14.52608950887884
 30
0.0
 11
124.9420588520783
 21
-13.69275617554551
 31
0.0
 12
127.4420588520783
 22
-14.10942284221218
 32
0.0
 13
127.4420588520783
 23
-14.10942284221218
 33
0.0
  0
SOLID
  5
AA7
  8
NEW
 62
     0
 10
133.1420588520783
 20
-13.69275617554551
 30
0.0
 11
133.1420588520783
 21
-14.52608950887884
 31
0.0
 12
130.6420588520783
 22
-14.10942284221218
 32
0.0
 13
130.6420588520783
 23
-14.10942284221218
 33
0.0
  0
TEXT
  5
AA8
  8
NEW
  6
CONTINUOUS
 62
     0
 10
126.6332935041929
 20
-21.35660906322173
 30
0.0
 40
2.5
  1
3.2
  0
POINT
  5
AA9
  8
DEFPOINTS
 62
     0
 10
127.4420588520783
 20
-10.07394324137908
 30
0.0
  0
POINT
  5
AAA
  8
DEFPOINTS
 62
     0
 10
130.6420588520783
 20
-10.07394324137908
 30
0.0
  0
POINT
  5
AAB
  8
DEFPOINTS
 62
     0
 10
130.6420588520783
 20
-14.10942284221218
 30
0.0
  0
ENDBLK
  5
AA0
  8
0
  0
BLOCK
  8
0
  2
*D15
 70
     1
 10
0.0
 20
0.0
 30
0.0
  3
*D15
  1

  0
LINE
  5
AB2
  8
NEW
 62
     0
 10
76.5420588520783
 20
-28.44474446452216
 30
0.0
 11
76.5420588520783
 21
-38.77797105039748
 31
0.0
  0
LINE
  5
AB3
  8
NEW
 62
     0
 10
181.5420588520783
 20
-28.44474446452216
 30
0.0
 11
181.5420588520783
 21
-38.77797105039748
 31
0.0
  0
LINE
  5
AB4
  8
NEW
 62
     0
 10
79.0420588520783
 20
-37.52797105039748
 30
0.0
 11
179.0420588520783
 21
-37.52797105039748
 31
0.0
  0
SOLID
  5
AB5
  8
NEW
 62
     0
 10
79.0420588520783
 20
-37.11130438373082
 30
0.0
 11
79.0420588520783
 21
-37.94463771706415
 31
0.0
 12
76.5420588520783
 22
-37.52797105039748
 32
0.0
 13
76.5420588520783
 23
-37.52797105039748
 33
0.0
  0
SOLID
  5
AB6
  8
NEW
 62
     0
 10
179.0420588520783
 20
-37.94463771706415
 30
0.0
 11
179.0420588520783
 21
-37.11130438373082
 31
0.0
 12
181.5420588520783
 22
-37.52797105039748
 32
0.0
 13
181.5420588520783
 23
-37.52797105039748
 33
0.0
  0
TEXT
  5
AB7
  8
NEW
  6
CONTINUOUS
 62
     0
 10
126.0082935041929
 20
-36.85522207358984
 30
0.0
 40
2.5
  1
105
  0
POINT
  5
AB8
  8
DEFPOINTS
 62
     0
 10
76.5420588520783
 20
-27.81974446452216
 30
0.0
  0
POINT
  5
AB9
  8
DEFPOINTS
 62
     0
 10
181.5420588520783
 20
-27.81974446452216
 30
0.0
  0
POINT
  5
ABA
  8
DEFPOINTS
 62
     0
 10
181.5420588520783
 20
-37.52797105039748
 30
0.0
  0
ENDBLK
  5
AB1
  8
0
  0
BLOCK
  8
0
  2
*D16
 70
     1
 10
0.0
 20
0.0
 30
0.0
  3
*D16
  1

  0
LINE
  5
AD2
  8
NEW
 62
     0
 10
243.0129875477414
 20
-27.94474446452216
 30
0.0
 11
243.0129875477414
 21
-40.50886927550128
 31
0.0
  0
LINE
  5
AD3
  8
NEW
 62
     0
 10
85.51298754774137
 20
-27.94474446452216
 30
0.0
 11
85.51298754774137
 21
-40.50886927550128
 31
0.0
  0
LINE
  5
AD4
  8
NEW
 62
     0
 10
240.5129875477414
 20
-39.25886927550128
 30
0.0
 11
88.01298754774137
 21
-39.25886927550128
 31
0.0
  0
SOLID
  5
AD5
  8
NEW
 62
     0
 10
240.5129875477414
 20
-39.67553594216795
 30
0.0
 11
240.5129875477414
 21
-38.84220260883462
 31
0.0
 12
243.0129875477414
 22
-39.25886927550128
 32
0.0
 13
243.0129875477414
 23
-39.25886927550128
 33
0.0
  0
SOLID
  5
AD6
  8
NEW
 62
     0
 10
88.01298754774137
 20
-38.84220260883462
 30
0.0
 11
88.01298754774137
 21
-39.67553594216795
 31
0.0
 12
85.51298754774137
 22
-39.25886927550128
 32
0.0
 13
85.51298754774137
 23
-39.25886927550128
 33
0.0
  0
TEXT
  5
AD7
  8
NEW
  6
CONTINUOUS
 62
     0
 10
159.772878407223
 20
-38.58612029869364
 30
0.0
 40
2.5
  1
157.5
  0
POINT
  5
AD8
  8
DEFPOINTS
 62
     0
 10
243.0129875477414
 20
-27.31974446452216
 30
0.0
  0
POINT
  5
AD9
  8
DEFPOINTS
 62
     0
 10
85.51298754774137
 20
-27.31974446452216
 30
0.0
  0
POINT
  5
ADA
  8
DEFPOINTS
 62
     0
 10
85.51298754774137
 20
-39.25886927550128
 30
0.0
  0
ENDBLK
  5
AD1
  8
0
  0
BLOCK
  8
0
  2
*D17
 70
     1
 10
0.0
 20
0.0
 30
0.0
  3
*D17
  1

  0
LINE
  5
AE1
  8
NEW
 62
     0
 10
122.4686697506991
 20
-1.326042629807541
 30
0.0
 11
122.4686697506991
 21
-4.577481960437446
 31
0.0
  0
LINE
  5
AE2
  8
NEW
 62
     0
 10
127.268669750699
 20
-1.326042629807541
 30
0.0
 11
127.268669750699
 21
-4.577481960437446
 31
0.0
  0
LINE
  5
AE3
  8
NEW
 62
     0
 10
122.4686697506991
 20
-3.327481960437446
 30
0.0
 11
127.268669750699
 21
-3.327481960437446
 31
0.0
  0
LINE
  5
AE4
  8
NEW
 62
     0
 10
119.9686697506991
 20
-3.327481960437446
 30
0.0
 11
117.4686697506991
 21
-3.327481960437446
 31
0.0
  0
LINE
  5
AE5
  8
NEW
 62
     0
 10
129.768669750699
 20
-3.327481960437446
 30
0.0
 11
132.268669750699
 21
-3.327481960437446
 31
0.0
  0
SOLID
  5
AE6
  8
NEW
 62
     0
 10
119.9686697506991
 20
-3.744148627104112
 30
0.0
 11
119.9686697506991
 21
-2.910815293770779
 31
0.0
 12
122.4686697506991
 22
-3.327481960437446
 32
0.0
 13
122.4686697506991
 23
-3.327481960437446
 33
0.0
  0
SOLID
  5
AE7
  8
NEW
 62
     0
 10
129.768669750699
 20
-2.910815293770779
 30
0.0
 11
129.768669750699
 21
-3.744148627104112
 31
0.0
 12
127.268669750699
 22
-3.327481960437446
 32
0.0
 13
127.268669750699
 23
-3.327481960437446
 33
0.0
  0
TEXT
  5
AE8
  8
NEW
  6
CONTINUOUS
 62
     0
 10
122.4957161354194
 20
-10.57296286084672
 30
0.0
 40
2.5
  1
4.8
  0
POINT
  5
AE9
  8
DEFPOINTS
 62
     0
 10
122.4686697506991
 20
-0.7010426298075405
 30
0.0
  0
POINT
  5
AEA
  8
DEFPOINTS
 62
     0
 10
127.268669750699
 20
-0.7010426298075405
 30
0.0
  0
POINT
  5
AEB
  8
DEFPOINTS
 62
     0
 10
127.268669750699
 20
-3.327481960437446
 30
0.0
  0
ENDBLK
  5
AE0
  8
0
  0
BLOCK
  8
0
  2
*D18
 70
     1
 10
0.0
 20
0.0
 30
0.0
  3
*D18
  1

  0
LINE
  5
AF2
  8
NEW
 62
     0
 10
95.1129875477414
 20
-13.38539354716485
 30
0.0
 11
95.1129875477414
 21
-9.62566109956212
 31
0.0
  0
LINE
  5
AF3
  8
NEW
 62
     0
 10
98.11298754774131
 20
-13.38539354716485
 30
0.0
 11
98.11298754774131
 21
-9.62566109956212
 31
0.0
  0
LINE
  5
AF4
  8
NEW
 62
     0
 10
95.1129875477414
 20
-10.87566109956212
 30
0.0
 11
98.11298754774131
 21
-10.87566109956212
 31
0.0
  0
LINE
  5
AF5
  8
NEW
 62
     0
 10
92.6129875477414
 20
-10.87566109956212
 30
0.0
 11
90.1129875477414
 21
-10.87566109956212
 31
0.0
  0
LINE
  5
AF6
  8
NEW
 62
     0
 10
100.6129875477413
 20
-10.87566109956212
 30
0.0
 11
103.1129875477413
 21
-10.87566109956212
 31
0.0
  0
SOLID
  5
AF7
  8
NEW
 62
     0
 10
92.6129875477414
 20
-11.29232776622879
 30
0.0
 11
92.6129875477414
 21
-10.45899443289545
 31
0.0
 12
95.1129875477414
 22
-10.87566109956212
 32
0.0
 13
95.1129875477414
 23
-10.87566109956212
 33
0.0
  0
SOLID
  5
AF8
  8
NEW
 62
     0
 10
100.6129875477413
 20
-10.45899443289545
 30
0.0
 11
100.6129875477413
 21
-11.29232776622879
 31
0.0
 12
98.11298754774131
 22
-10.87566109956212
 32
0.0
 13
98.11298754774131
 23
-10.87566109956212
 33
0.0
  0
TEXT
  5
AF9
  8
NEW
  6
CONTINUOUS
 62
     0
 10
95.64777608798693
 20
-10.20120680215421
 30
0.0
 40
2.5
  1
3
  0
POINT
  5
AFA
  8
DEFPOINTS
 62
     0
 10
95.1129875477414
 20
-14.01039354716485
 30
0.0
  0
POINT
  5
AFB
  8
DEFPOINTS
 62
     0
 10
98.11298754774131
 20
-14.01039354716485
 30
0.0
  0
POINT
  5
AFC
  8
DEFPOINTS
 62
     0
 10
98.11298754774131
 20
-10.87566109956212
 30
0.0
  0
ENDBLK
  5
AF1
  8
0
  0
BLOCK
  8
0
  2
*D19
 70
     1
 10
0.0
 20
0.0
 30
0.0
  3
*D19
  1

  0
LINE
  5
B03
  8
NEW
 62
     0
 10
230.4129875477414
 20
-13.38539354716485
 30
0.0
 11
230.4129875477414
 21
-9.27288319886149
 31
0.0
  0
LINE
  5
B04
  8
NEW
 62
     0
 10
233.4129875477414
 20
-13.38539354716485
 30
0.0
 11
233.4129875477414
 21
-9.27288319886149
 31
0.0
  0
LINE
  5
B05
  8
NEW
 62
     0
 10
230.4129875477414
 20
-10.52288319886149
 30
0.0
 11
233.4129875477414
 21
-10.52288319886149
 31
0.0
  0
LINE
  5
B06
  8
NEW
 62
     0
 10
227.9129875477414
 20
-10.52288319886149
 30
0.0
 11
225.4129875477414
 21
-10.52288319886149
 31
0.0
  0
LINE
  5
B07
  8
NEW
 62
     0
 10
235.9129875477414
 20
-10.52288319886149
 30
0.0
 11
238.4129875477414
 21
-10.52288319886149
 31
0.0
  0
SOLID
  5
B08
  8
NEW
 62
     0
 10
227.9129875477414
 20
-10.93954986552816
 30
0.0
 11
227.9129875477414
 21
-10.10621653219482
 31
0.0
 12
230.4129875477414
 22
-10.52288319886149
 32
0.0
 13
230.4129875477414
 23
-10.52288319886149
 33
0.0
  0
SOLID
  5
B09
  8
NEW
 62
     0
 10
235.9129875477414
 20
-10.10621653219482
 30
0.0
 11
235.9129875477414
 21
-10.93954986552816
 31
0.0
 12
233.4129875477414
 22
-10.52288319886149
 32
0.0
 13
233.4129875477414
 23
-10.52288319886149
 33
0.0
  0
TEXT
  5
B0A
  8
NEW
  6
CONTINUOUS
 62
     0
 10
230.947776087987
 20
-9.848428901453577
 30
0.0
 40
2.5
  1
3
  0
POINT
  5
B0B
  8
DEFPOINTS
 62
     0
 10
230.4129875477414
 20
-14.01039354716485
 30
0.0
  0
POINT
  5
B0C
  8
DEFPOINTS
 62
     0
 10
233.4129875477414
 20
-14.01039354716485
 30
0.0
  0
POINT
  5
B0D
  8
DEFPOINTS
 62
     0
 10
233.4129875477414
 20
-10.52288319886149
 30
0.0
  0
ENDBLK
  5
B02
  8
0
  0
BLOCK
  8
0
  2
*D20
 70
     1
 10
0.0
 20
0.0
 30
0.0
  3
*D20
  1

  0
LINE
  5
B14
  8
NEW
 62
     0
 10
116.3879875477414
 20
120.0353247179223
 30
0.0
 11
112.1571447829886
 21
120.0353247179223
 31
0.0
  0
LINE
  5
B15
  8
NEW
 62
     0
 10
116.3879875477415
 20
115.395919400917
 30
0.0
 11
112.1571447829886
 21
115.395919400917
 31
0.0
  0
LINE
  5
B16
  8
NEW
 62
     0
 10
113.4071447829886
 20
120.0353247179223
 30
0.0
 11
113.4071447829886
 21
115.395919400917
 31
0.0
  0
LINE
  5
B17
  8
NEW
 62
     0
 10
113.4071447829886
 20
122.5353247179223
 30
0.0
 11
113.4071447829886
 21
125.0353247179223
 31
0.0
  0
LINE
  5
B18
  8
NEW
 62
     0
 10
113.4071447829886
 20
112.895919400917
 30
0.0
 11
113.4071447829886
 21
110.395919400917
 31
0.0
  0
SOLID
  5
B19
  8
NEW
 62
     0
 10
112.990478116322
 20
122.5353247179223
 30
0.0
 11
113.8238114496553
 21
122.5353247179223
 31
0.0
 12
113.4071447829886
 22
120.0353247179223
 32
0.0
 13
113.4071447829886
 23
120.0353247179223
 33
0.0
  0
SOLID
  5
B1A
  8
NEW
 62
     0
 10
113.8238114496553
 20
112.895919400917
 30
0.0
 11
112.990478116322
 21
112.895919400917
 31
0.0
 12
113.4071447829886
 22
115.395919400917
 32
0.0
 13
113.4071447829886
 23
115.395919400917
 33
0.0
  0
TEXT
  5
B1B
  8
NEW
  6
CONTINUOUS
 62
     0
 10
108.615620226372
 20
113.4003082804292
 30
0.0
 40
2.5
  1
4.639
 50
90.0
  0
POINT
  5
B1C
  8
DEFPOINTS
 62
     0
 10
117.0129875477414
 20
120.0353247179223
 30
0.0
  0
POINT
  5
B1D
  8
DEFPOINTS
 62
     0
 10
117.0129875477415
 20
115.395919400917
 30
0.0
  0
POINT
  5
B1E
  8
DEFPOINTS
 62
     0
 10
113.4071447829886
 20
115.395919400917
 30
0.0
  0
ENDBLK
  5
B13
  8
0
  0
ENDSEC
  0
SECTION
  2
ENTITIES
  0
POLYLINE
  5
610
  8
NEW
 66
     1
 10
0.0
 20
0.0
 30
0.0
 70
     1
  0
VERTEX
  5
C54
  8
NEW
 10
20.31260516285457
 20
-18.31974446452216
 30
0.0
  0
VERTEX
  5
C55
  8
NEW
 10
20.31260516285457
 20
12.61776293567473
 30
0.0
  0
VERTEX
  5
C56
  8
NEW
 10
44.01260608853819
 20
30.84853398248756
 30
0.0
  0
VERTEX
  5
C57
  8
NEW
 10
67.7126051628546
 20
12.61776311950123
 30
0.0
  0
VERTEX
  5
C58
  8
NEW
 10
67.71260516285452
 20
-18.31974446452216
 30
0.0
  0
SEQEND
  5
D47
  8
NEW
  0
POLYLINE
  5
611
  8
NEW
 66
     1
 10
0.0
 20
0.0
 30
0.0
 70
     1
  0
VERTEX
  5
C59
  8
NEW
 10
6.512605162854584
 20
-27.31974446452216
 30
0.0
  0
VERTEX
  5
C5A
  8
NEW
 10
81.51260516285454
 20
-27.31974446452216
 30
0.0
  0
VERTEX
  5
C5B
  8
NEW
 10
81.51260516285454
 20
-14.01039354716485
 30
0.0
  0
VERTEX
  5
C5C
  8
NEW
 10
76.71260516285456
 20
-14.01039354716485
 30
0.0
  0
VERTEX
  5
C5D
  8
NEW
 10
76.71260516285456
 20
-0.7010426298075405
 30
0.0
  0
VERTEX
  5
C5E
  8
NEW
 10
81.51260516285458
 20
-0.7010426298075405
 30
0.0
  0
VERTEX
  5
C5F
  8
NEW
 10
81.51260516285458
 20
12.60830828754968
 30
0.0
  0
VERTEX
  5
C60
  8
NEW
 10
76.7126051628546
 20
12.60830828754968
 30
0.0
  0
VERTEX
  5
C61
  8
NEW
 10
76.7126051628546
 20
17.04937624910738
 30
0.0
  0
VERTEX
  5
C62
  8
NEW
 10
71.76578637848978
 20
20.85462195716326
 30
0.0
  0
VERTEX
  5
C63
  8
NEW
 10
74.69239814190936
 20
24.6592170192184
 30
0.0
  0
VERTEX
  5
C64
  8
NEW
 10
66.95976701280853
 20
30.60739557570633
 30
0.0
  0
VERTEX
  5
C65
  8
NEW
 10
64.03315524938891
 20
26.80280051365128
 30
0.0
  0
VERTEX
  5
C66
  8
NEW
 10
56.30052412028806
 20
32.75097907013921
 30
0.0
  0
VERTEX
  5
C67
  8
NEW
 10
59.2271358837076
 20
36.55557413219435
 30
0.0
  0
VERTEX
  5
C68
  8
NEW
 10
51.49450475460692
 20
42.5037526886822
 30
0.0
  0
VERTEX
  5
C69
  8
NEW
 10
48.56789299118732
 20
38.69915762662713
 30
0.0
  0
VERTEX
  5
C6A
  8
NEW
 10
44.01260627520153
 20
42.20322478181694
 30
0.0
  0
VERTEX
  5
C6B
  8
NEW
 10
39.45731920946332
 20
38.69915759598047
 30
0.0
  0
VERTEX
  5
C6C
  8
NEW
 10
36.53070744604379
 20
42.50375265803561
 30
0.0
  0
VERTEX
  5
C6D
  8
NEW
 10
28.79807612137509
 20
36.55557435578596
 30
0.0
  0
VERTEX
  5
C6E
  8
NEW
 10
31.72468788479472
 20
32.75097929373089
 30
0.0
  0
VERTEX
  5
C6F
  8
NEW
 10
23.99205656012595
 20
26.80280099148123
 30
0.0
  0
VERTEX
  5
C70
  8
NEW
 10
21.06544479670632
 20
30.60739605353628
 30
0.0
  0
VERTEX
  5
C71
  8
NEW
 10
13.33281347203755
 20
24.65921775128663
 30
0.0
  0
VERTEX
  5
C72
  8
NEW
 10
16.25942523545718
 20
20.85462268923149
 30
0.0
  0
VERTEX
  5
C73
  8
NEW
 10
11.31260516285457
 20
17.04937624910738
 30
0.0
  0
VERTEX
  5
C74
  8
NEW
 10
11.31260516285457
 20
12.60830828754968
 30
0.0
  0
VERTEX
  5
C75
  8
NEW
 10
6.512605162854584
 20
12.60830828754968
 30
0.0
  0
VERTEX
  5
C76
  8
NEW
 10
6.512605162854584
 20
-0.7010426298075405
 30
0.0
  0
VERTEX
  5
C77
  8
NEW
 10
11.31260516285457
 20
-0.7010426298075405
 30
0.0
  0
VERTEX
  5
C78
  8
NEW
 10
11.31260516285457
 20
-14.01039354716485
 30
0.0
  0
VERTEX
  5
C79
  8
NEW
 10
6.512605162854584
 20
-14.01039354716485
 30
0.0
  0
SEQEND
  5
D48
  8
NEW
  0
POLYLINE
  5
613
  8
NEW
 66
     1
 10
0.0
 20
0.0
 30
0.0
 70
     1
  0
VERTEX
  5
C7A
  8
NEW
 10
233.4129875477414
 20
12.60830828754968
 30
0.0
  0
VERTEX
  5
C7B
  8
NEW
 10
233.4129875477414
 20
-0.7010426298075405
 30
0.0
  0
VERTEX
  5
C7C
  8
NEW
 10
230.4129875477414
 20
-0.7010426298075405
 30
0.0
  0
VERTEX
  5
C7D
  8
NEW
 10
230.4129875477414
 20
12.60830828754968
 30
0.0
  0
SEQEND
  5
D49
  8
NEW
  0
POLYLINE
  5
615
  8
NEW
 66
     1
 10
0.0
 20
0.0
 30
0.0
 70
     1
  0
VERTEX
  5
C7E
  8
NEW
 10
98.11298754774131
 20
12.60830828754968
 30
0.0
  0
VERTEX
  5
C7F
  8
NEW
 10
98.11298754774131
 20
-0.7010426298075405
 30
0.0
  0
VERTEX
  5
C80
  8
NEW
 10
95.1129875477414
 20
-0.7010426298075405
 30
0.0
  0
VERTEX
  5
C81
  8
NEW
 10
95.1129875477414
 20
12.60830828754968
 30
0.0
  0
SEQEND
  5
D4A
  8
NEW
  0
POLYLINE
  5
616
  8
NEW
 66
     1
 10
0.0
 20
0.0
 30
0.0
 70
     1
  0
VERTEX
  5
C82
  8
NEW
 10
85.51298754774133
 20
26.21749821739616
 30
0.0
  0
VERTEX
  5
C83
  8
NEW
 10
85.51298754774142
 20
69.72411398474318
 30
0.0
  0
VERTEX
  5
C84
  8
NEW
 10
117.0129875477414
 20
69.72411398474313
 30
0.0
  0
VERTEX
  5
C85
  8
NEW
 10
117.0129875477414
 20
65.08470866773776
 30
0.0
  0
VERTEX
  5
C86
  8
NEW
 10
148.5129875477415
 20
65.08470866773776
 30
0.0
  0
VERTEX
  5
C87
  8
NEW
 10
148.5129875477415
 20
69.72411398474311
 30
0.0
  0
VERTEX
  5
C88
  8
NEW
 10
180.0129875477415
 20
69.72411398474311
 30
0.0
  0
VERTEX
  5
C89
  8
NEW
 10
180.0129875477413
 20
65.08470866773776
 30
0.0
  0
VERTEX
  5
C8A
  8
NEW
 10
211.5129875477413
 20
65.08470866773766
 30
0.0
  0
VERTEX
  5
C8B
  8
NEW
 10
211.5129875477415
 20
69.72411398474301
 30
0.0
  0
VERTEX
  5
C8C
  8
NEW
 10
243.0129875477415
 20
69.72411398474301
 30
0.0
  0
VERTEX
  5
C8D
  8
NEW
 10
243.0129875477413
 20
26.21749821739607
 30
0.0
  0
VERTEX
  5
C8E
  8
NEW
 10
211.5129875477413
 20
26.21749821739607
 30
0.0
  0
VERTEX
  5
C8F
  8
NEW
 10
211.5129875477413
 20
22.4129032515639
 30
0.0
  0
VERTEX
  5
C90
  8
NEW
 10
180.0129875477413
 20
22.4129032515639
 30
0.0
  0
VERTEX
  5
C91
  8
NEW
 10
180.0129875477413
 20
26.21749821739607
 30
0.0
  0
VERTEX
  5
C92
  8
NEW
 10
148.5129875477413
 20
26.21749821739616
 30
0.0
  0
VERTEX
  5
C93
  8
NEW
 10
148.5129875477413
 20
22.41290325156399
 30
0.0
  0
VERTEX
  5
C94
  8
NEW
 10
117.0129875477413
 20
22.41290325156399
 30
0.0
  0
VERTEX
  5
C95
  8
NEW
 10
117.0129875477413
 20
26.21749821739616
 30
0.0
  0
SEQEND
  5
D4B
  8
NEW
  0
POLYLINE
  5
617
  8
NEW
 66
     1
 10
0.0
 20
0.0
 30
0.0
 70
     1
  0
VERTEX
  5
C96
  8
NEW
 10
230.4129875477414
 20
100.8401827157903
 30
0.0
  0
VERTEX
  5
C97
  8
NEW
 10
233.4129875477413
 20
100.8401825579729
 30
0.0
  0
VERTEX
  5
C98
  8
NEW
 10
233.4129875477413
 20
110.5959199631411
 30
0.0
  0
VERTEX
  5
C99
  8
NEW
 10
230.4129875477414
 20
110.5959201209585
 30
0.0
  0
SEQEND
  5
D4C
  8
NEW
  0
POLYLINE
  5
618
  8
NEW
 66
     1
 10
0.0
 20
0.0
 30
0.0
 70
     1
  0
VERTEX
  5
C9A
  8
NEW
 10
243.0129875477415
 20
76.52870895057526
 30
0.0
  0
VERTEX
  5
C9B
  8
NEW
 10
243.0129875477413
 20
115.3959194009169
 30
0.0
  0
VERTEX
  5
C9C
  8
NEW
 10
211.5129875477413
 20
115.3959194009169
 30
0.0
  0
VERTEX
  5
C9D
  8
NEW
 10
211.5129875477415
 20
120.0353247179223
 30
0.0
  0
VERTEX
  5
C9E
  8
NEW
 10
180.0129875477415
 20
120.0353247179223
 30
0.0
  0
VERTEX
  5
C9F
  8
NEW
 10
180.0129875477415
 20
115.3959194009169
 30
0.0
  0
VERTEX
  5
CA0
  8
NEW
 10
148.5129875477415
 20
115.395919400917
 30
0.0
  0
VERTEX
  5
CA1
  8
NEW
 10
148.5129875477415
 20
120.0353247179223
 30
0.0
  0
VERTEX
  5
CA2
  8
NEW
 10
117.0129875477414
 20
120.0353247179223
 30
0.0
  0
VERTEX
  5
CA3
  8
NEW
 10
117.0129875477415
 20
115.395919400917
 30
0.0
  0
VERTEX
  5
CA4
  8
NEW
 10
85.51298754774145
 20
115.395919400917
 30
0.0
  0
VERTEX
  5
CA5
  8
NEW
 10
85.51298754774137
 20
76.52870895057539
 30
0.0
  0
VERTEX
  5
CA6
  8
NEW
 10
117.0129875477415
 20
76.52870895057539
 30
0.0
  0
VERTEX
  5
CA7
  8
NEW
 10
117.0129875477414
 20
72.72411398474313
 30
0.0
  0
VERTEX
  5
CA8
  8
NEW
 10
148.5129875477415
 20
72.72411398474311
 30
0.0
  0
VERTEX
  5
CA9
  8
NEW
 10
148.5129875477415
 20
76.52870895057532
 30
0.0
  0
VERTEX
  5
CAA
  8
NEW
 10
180.0129875477413
 20
76.52870895057532
 30
0.0
  0
VERTEX
  5
CAB
  8
NEW
 10
180.0129875477413
 20
72.72411398474311
 30
0.0
  0
VERTEX
  5
CAC
  8
NEW
 10
211.5129875477413
 20
72.72411398474311
 30
0.0
  0
VERTEX
  5
CAD
  8
NEW
 10
211.5129875477415
 20
76.52870895057532
 30
0.0
  0
SEQEND
  5
D4D
  8
NEW
  0
POLYLINE
  5
619
  8
NEW
 66
     1
 10
0.0
 20
0.0
 30
0.0
 70
     1
  0
VERTEX
  5
CAE
  8
NEW
 10
230.4129875477414
 20
81.32870790545363
 30
0.0
  0
VERTEX
  5
CAF
  8
NEW
 10
233.4129875477413
 20
81.32870774763619
 30
0.0
  0
VERTEX
  5
CB0
  8
NEW
 10
233.4129875477413
 20
91.08444515280445
 30
0.0
  0
VERTEX
  5
CB1
  8
NEW
 10
230.4129875477414
 20
91.08444531062185
 30
0.0
  0
SEQEND
  5
D4E
  8
NEW
  0
POLYLINE
  5
61C
  8
NEW
 66
     1
 10
0.0
 20
0.0
 30
0.0
 70
     1
  0
VERTEX
  5
CB2
  8
NEW
 10
95.11298754774143
 20
100.8401871050857
 30
0.0
  0
VERTEX
  5
CB3
  8
NEW
 10
98.11298754774144
 20
100.8401869472684
 30
0.0
  0
VERTEX
  5
CB4
  8
NEW
 10
98.11298754774141
 20
110.5959243524366
 30
0.0
  0
VERTEX
  5
CB5
  8
NEW
 10
95.11298754774143
 20
110.595924510254
 30
0.0
  0
SEQEND
  5
D4F
  8
NEW
  0
POLYLINE
  5
61D
  8
NEW
 66
     1
 10
0.0
 20
0.0
 30
0.0
 70
     1
  0
VERTEX
  5
CB6
  8
NEW
 10
95.11298754774141
 20
81.32871229474878
 30
0.0
  0
VERTEX
  5
CB7
  8
NEW
 10
98.11298754774144
 20
81.32871213693147
 30
0.0
  0
VERTEX
  5
CB8
  8
NEW
 10
98.11298754774138
 20
91.08444954209969
 30
0.0
  0
VERTEX
  5
CB9
  8
NEW
 10
95.11298754774143
 20
91.08444969991713
 30
0.0
  0
SEQEND
  5
D50
  8
NEW
  0
POLYLINE
  5
61E
  8
NEW
 66
     1
 10
0.0
 20
0.0
 30
0.0
 70
     1
  0
VERTEX
  5
CBA
  8
NEW
 10
233.4129875477413
 20
31.01750156156951
 30
0.0
  0
VERTEX
  5
CBB
  8
NEW
 10
230.4129875477414
 20
31.01750140375211
 30
0.0
  0
VERTEX
  5
CBC
  8
NEW
 10
230.4129875477415
 20
40.77323880892033
 30
0.0
  0
VERTEX
  5
CBD
  8
NEW
 10
233.4129875477413
 20
40.77323896673781
 30
0.0
  0
SEQEND
  5
D51
  8
NEW
  0
POLYLINE
  5
61F
  8
NEW
 66
     1
 10
0.0
 20
0.0
 30
0.0
 70
     1
  0
VERTEX
  5
CBE
  8
NEW
 10
233.4129875477413
 20
50.52897637190636
 30
0.0
  0
VERTEX
  5
CBF
  8
NEW
 10
230.4129875477414
 20
50.52897621408905
 30
0.0
  0
VERTEX
  5
CC0
  8
NEW
 10
230.4129875477415
 20
60.28471361925728
 30
0.0
  0
VERTEX
  5
CC1
  8
NEW
 10
233.4129875477413
 20
60.28471377707466
 30
0.0
  0
SEQEND
  5
D52
  8
NEW
  0
POLYLINE
  5
622
  8
NEW
 66
     1
 10
0.0
 20
0.0
 30
0.0
 70
     1
  0
VERTEX
  5
CC2
  8
NEW
 10
98.11298754774141
 20
50.52897198261113
 30
0.0
  0
VERTEX
  5
CC3
  8
NEW
 10
95.11298754774143
 20
50.52897182479382
 30
0.0
  0
VERTEX
  5
CC4
  8
NEW
 10
95.11298754774147
 20
60.28470922996203
 30
0.0
  0
VERTEX
  5
CC5
  8
NEW
 10
98.11298754774144
 20
60.28470938777946
 30
0.0
  0
SEQEND
  5
D53
  8
NEW
  0
POLYLINE
  5
623
  8
NEW
 66
     1
 10
0.0
 20
0.0
 30
0.0
 70
     1
  0
VERTEX
  5
CC6
  8
NEW
 10
98.11298754774144
 20
31.01749717227452
 30
0.0
  0
VERTEX
  5
CC7
  8
NEW
 10
95.11298754774138
 20
31.01749701445712
 30
0.0
  0
VERTEX
  5
CC8
  8
NEW
 10
95.11298754774147
 20
40.77323441962533
 30
0.0
  0
VERTEX
  5
CC9
  8
NEW
 10
98.11298754774141
 20
40.77323457744274
 30
0.0
  0
SEQEND
  5
D54
  8
NEW
  0
POLYLINE
  5
626
  8
NEW
 66
     1
 10
0.0
 20
0.0
 30
0.0
 70
     1
  0
VERTEX
  5
CCA
  8
NEW
 10
6.512605162854634
 20
169.7679724340084
 30
0.0
  0
VERTEX
  5
CCB
  8
NEW
 10
81.51260516285458
 20
169.7679724340084
 30
0.0
  0
VERTEX
  5
CCC
  8
NEW
 10
81.51260516285458
 20
156.4586215166512
 30
0.0
  0
VERTEX
  5
CCD
  8
NEW
 10
76.7126051628546
 20
156.4586215166512
 30
0.0
  0
VERTEX
  5
CCE
  8
NEW
 10
76.7126051628546
 20
143.1492705992939
 30
0.0
  0
VERTEX
  5
CCF
  8
NEW
 10
81.51260516285463
 20
143.1492705992939
 30
0.0
  0
VERTEX
  5
CD0
  8
NEW
 10
81.51260516285463
 20
129.8399196819366
 30
0.0
  0
VERTEX
  5
CD1
  8
NEW
 10
76.71260516285464
 20
129.8399196819366
 30
0.0
  0
VERTEX
  5
CD2
  8
NEW
 10
76.71260516285464
 20
125.3988517203789
 30
0.0
  0
VERTEX
  5
CD3
  8
NEW
 10
71.76578637848982
 20
121.5936060123231
 30
0.0
  0
VERTEX
  5
CD4
  8
NEW
 10
74.69239814190941
 20
117.7890109502679
 30
0.0
  0
VERTEX
  5
CD5
  8
NEW
 10
66.95976701280857
 20
111.84083239378
 30
0.0
  0
VERTEX
  5
CD6
  8
NEW
 10
64.03315524938895
 20
115.645427455835
 30
0.0
  0
VERTEX
  5
CD7
  8
NEW
 10
56.30052412028812
 20
109.6972488993471
 30
0.0
  0
VERTEX
  5
CD8
  8
NEW
 10
59.22713588370767
 20
105.892653837292
 30
0.0
  0
VERTEX
  5
CD9
  8
NEW
 10
51.49450475460699
 20
99.94447528080413
 30
0.0
  0
VERTEX
  5
CDA
  8
NEW
 10
48.56789299118735
 20
103.7490703428592
 30
0.0
  0
VERTEX
  5
CDB
  8
NEW
 10
44.01260627520158
 20
100.2450031876694
 30
0.0
  0
VERTEX
  5
CDC
  8
NEW
 10
39.45731920946338
 20
103.7490703735059
 30
0.0
  0
VERTEX
  5
CDD
  8
NEW
 10
36.53070744604381
 20
99.94447531145072
 30
0.0
  0
VERTEX
  5
CDE
  8
NEW
 10
28.79807612137513
 20
105.8926536137004
 30
0.0
  0
VERTEX
  5
CDF
  8
NEW
 10
31.72468788479476
 20
109.6972486757554
 30
0.0
  0
VERTEX
  5
CE0
  8
NEW
 10
23.992056560126
 20
115.6454269780051
 30
0.0
  0
VERTEX
  5
CE1
  8
NEW
 10
21.06544479670637
 20
111.84083191595
 30
0.0
  0
VERTEX
  5
CE2
  8
NEW
 10
13.33281347203758
 20
117.7890102181997
 30
0.0
  0
VERTEX
  5
CE3
  8
NEW
 10
16.25942523545721
 20
121.5936052802548
 30
0.0
  0
VERTEX
  5
CE4
  8
NEW
 10
11.31260516285462
 20
125.3988517203789
 30
0.0
  0
VERTEX
  5
CE5
  8
NEW
 10
11.31260516285462
 20
129.8399196819366
 30
0.0
  0
VERTEX
  5
CE6
  8
NEW
 10
6.512605162854634
 20
129.8399196819366
 30
0.0
  0
VERTEX
  5
CE7
  8
NEW
 10
6.512605162854634
 20
143.1492705992939
 30
0.0
  0
VERTEX
  5
CE8
  8
NEW
 10
11.31260516285462
 20
143.1492705992939
 30
0.0
  0
VERTEX
  5
CE9
  8
NEW
 10
11.31260516285462
 20
156.4586215166512
 30
0.0
  0
VERTEX
  5
CEA
  8
NEW
 10
6.512605162854634
 20
156.4586215166512
 30
0.0
  0
SEQEND
  5
D55
  8
NEW
  0
POLYLINE
  5
628
  8
NEW
 66
     1
 10
0.0
 20
0.0
 30
0.0
 70
     1
  0
VERTEX
  5
CEB
  8
NEW
 10
95.11298754774135
 20
129.8399196819366
 30
0.0
  0
VERTEX
  5
CEC
  8
NEW
 10
95.11298754774135
 20
143.1492705992939
 30
0.0
  0
VERTEX
  5
CED
  8
NEW
 10
98.11298754774133
 20
143.1492705992939
 30
0.0
  0
VERTEX
  5
CEE
  8
NEW
 10
98.11298754774133
 20
129.8399196819366
 30
0.0
  0
SEQEND
  5
D56
  8
NEW
  0
POLYLINE
  5
62A
  8
NEW
 66
     1
 10
0.0
 20
0.0
 30
0.0
 70
     1
  0
VERTEX
  5
CEF
  8
NEW
 10
230.4129875477414
 20
129.8399196819366
 30
0.0
  0
VERTEX
  5
CF0
  8
NEW
 10
230.4129875477414
 20
143.1492705992939
 30
0.0
  0
VERTEX
  5
CF1
  8
NEW
 10
233.4129875477413
 20
143.1492705992939
 30
0.0
  0
VERTEX
  5
CF2
  8
NEW
 10
233.4129875477413
 20
129.8399196819366
 30
0.0
  0
SEQEND
  5
D57
  8
NEW
  0
POLYLINE
  5
7C7
  8
NEW
 66
     1
 10
0.0
 20
0.0
 30
0.0
 70
     1
  0
VERTEX
  5
CF3
  8
NEW
 10
180.0129875477415
 20
-27.31974446452216
 30
0.0
  0
VERTEX
  5
CF4
  8
NEW
 10
193.3629875477415
 20
-27.31974446452216
 30
0.0
  0
VERTEX
  5
CF5
  8
NEW
 10
193.3629875477413
 20
-27.31974446452216
 30
0.0
  0
VERTEX
  5
CF6
  8
NEW
 10
198.1629875477413
 20
-27.31974446452216
 30
0.0
  0
VERTEX
  5
CF7
  8
NEW
 10
198.1629875477415
 20
-27.31974446452216
 30
0.0
  0
VERTEX
  5
CF8
  8
NEW
 10
211.5129875477415
 20
-27.31974446452216
 30
0.0
  0
VERTEX
  5
CF9
  8
NEW
 10
211.5129875477413
 20
-27.31974446452216
 30
0.0
  0
VERTEX
  5
CFA
  8
NEW
 10
230.4129875477414
 20
-27.31974446452216
 30
0.0
  0
VERTEX
  5
CFB
  8
NEW
 10
230.4129875477414
 20
-14.01039354716485
 30
0.0
  0
VERTEX
  5
CFC
  8
NEW
 10
233.4129875477414
 20
-14.01039354716485
 30
0.0
  0
VERTEX
  5
CFD
  8
NEW
 10
233.4129875477414
 20
-27.31974446452216
 30
0.0
  0
VERTEX
  5
CFE
  8
NEW
 10
243.0129875477414
 20
-27.31974446452216
 30
0.0
  0
VERTEX
  5
CFF
  8
NEW
 10
243.0129875477414
 20
19.41290325156399
 30
0.0
  0
VERTEX
  5
D00
  8
NEW
 10
211.5129875477413
 20
19.41290325156399
 30
0.0
  0
VERTEX
  5
D01
  8
NEW
 10
211.5129875477413
 20
15.60830828573182
 30
0.0
  0
VERTEX
  5
D02
  8
NEW
 10
180.0129875477413
 20
15.60830828573182
 30
0.0
  0
VERTEX
  5
D03
  8
NEW
 10
180.0129875477413
 20
19.41290325156399
 30
0.0
  0
VERTEX
  5
D04
  8
NEW
 10
148.5129875477413
 20
19.41290325156399
 30
0.0
  0
VERTEX
  5
D05
  8
NEW
 10
148.5129875477413
 20
15.60830828573182
 30
0.0
  0
VERTEX
  5
D06
  8
NEW
 10
117.0129875477413
 20
15.60830828573182
 30
0.0
  0
VERTEX
  5
D07
  8
NEW
 10
117.0129875477413
 20
19.41290325156399
 30
0.0
  0
VERTEX
  5
D08
  8
NEW
 10
85.51298754774137
 20
19.41290325156399
 30
0.0
  0
VERTEX
  5
D09
  8
NEW
 10
85.51298754774137
 20
-27.31974446452216
 30
0.0
  0
VERTEX
  5
D0A
  8
NEW
 10
95.1129875477414
 20
-27.31974446452216
 30
0.0
  0
VERTEX
  5
D0B
  8
NEW
 10
95.1129875477414
 20
-14.01039354716485
 30
0.0
  0
VERTEX
  5
D0C
  8
NEW
 10
98.11298754774131
 20
-14.01039354716485
 30
0.0
  0
VERTEX
  5
D0D
  8
NEW
 10
98.11298754774131
 20
-27.31974446452216
 30
0.0
  0
VERTEX
  5
D0E
  8
NEW
 10
161.8629875477414
 20
-27.31974446452216
 30
0.0
  0
VERTEX
  5
D0F
  8
NEW
 10
161.8629875477414
 20
-27.31974446452216
 30
0.0
  0
VERTEX
  5
D10
  8
NEW
 10
166.6629875477413
 20
-27.31974446452216
 30
0.0
  0
VERTEX
  5
D11
  8
NEW
 10
166.6629875477413
 20
-27.31974446452216
 30
0.0
  0
VERTEX
  5
D12
  8
NEW
 10
180.0129875477415
 20
-27.31974446452216
 30
0.0
  0
SEQEND
  5
D58
  8
NEW
  0
POLYLINE
  5
7C8
  8
NEW
 66
     1
 10
0.0
 20
0.0
 30
0.0
 70
     1
  0
VERTEX
  5
D13
  8
NEW
 10
148.5129875477414
 20
169.7679724340084
 30
0.0
  0
VERTEX
  5
D14
  8
NEW
 10
135.1629875477414
 20
169.7679724340084
 30
0.0
  0
VERTEX
  5
D15
  8
NEW
 10
135.1629875477414
 20
169.7679724340084
 30
0.0
  0
VERTEX
  5
D16
  8
NEW
 10
130.3629875477414
 20
169.7679724340084
 30
0.0
  0
VERTEX
  5
D17
  8
NEW
 10
130.3629875477414
 20
169.7679724340084
 30
0.0
  0
VERTEX
  5
D18
  8
NEW
 10
117.0129875477415
 20
169.7679724340084
 30
0.0
  0
VERTEX
  5
D19
  8
NEW
 10
117.0129875477415
 20
169.7679724340084
 30
0.0
  0
VERTEX
  5
D1A
  8
NEW
 10
98.11298754774133
 20
169.7679724340084
 30
0.0
  0
VERTEX
  5
D1B
  8
NEW
 10
98.11298754774133
 20
156.4586215166512
 30
0.0
  0
VERTEX
  5
D1C
  8
NEW
 10
95.11298754774135
 20
156.4586215166512
 30
0.0
  0
VERTEX
  5
D1D
  8
NEW
 10
95.11298754774135
 20
169.7679724340084
 30
0.0
  0
VERTEX
  5
D1E
  8
NEW
 10
85.51298754774139
 20
169.7679724340084
 30
0.0
  0
VERTEX
  5
D1F
  8
NEW
 10
85.51298754774139
 20
123.0353247179223
 30
0.0
  0
VERTEX
  5
D20
  8
NEW
 10
117.0129875477414
 20
123.0353247179223
 30
0.0
  0
VERTEX
  5
D21
  8
NEW
 10
117.0129875477414
 20
126.8399196837545
 30
0.0
  0
VERTEX
  5
D22
  8
NEW
 10
148.5129875477413
 20
126.8399196837545
 30
0.0
  0
VERTEX
  5
D23
  8
NEW
 10
148.5129875477413
 20
123.0353247179223
 30
0.0
  0
VERTEX
  5
D24
  8
NEW
 10
180.0129875477415
 20
123.0353247179223
 30
0.0
  0
VERTEX
  5
D25
  8
NEW
 10
180.0129875477415
 20
126.8399196837545
 30
0.0
  0
VERTEX
  5
D26
  8
NEW
 10
211.5129875477415
 20
126.8399196837545
 30
0.0
  0
VERTEX
  5
D27
  8
NEW
 10
211.5129875477415
 20
123.0353247179223
 30
0.0
  0
VERTEX
  5
D28
  8
NEW
 10
243.0129875477415
 20
123.0353247179223
 30
0.0
  0
VERTEX
  5
D29
  8
NEW
 10
243.0129875477415
 20
169.7679724340084
 30
0.0
  0
VERTEX
  5
D2A
  8
NEW
 10
233.4129875477413
 20
169.7679724340084
 30
0.0
  0
VERTEX
  5
D2B
  8
NEW
 10
233.4129875477413
 20
156.4586215166512
 30
0.0
  0
VERTEX
  5
D2C
  8
NEW
 10
230.4129875477415
 20
156.4586215166512
 30
0.0
  0
VERTEX
  5
D2D
  8
NEW
 10
230.4129875477414
 20
169.7679724340084
 30
0.0
  0
VERTEX
  5
D2E
  8
NEW
 10
166.6629875477413
 20
169.7679724340084
 30
0.0
  0
VERTEX
  5
D2F
  8
NEW
 10
166.6629875477413
 20
169.7679724340084
 30
0.0
  0
VERTEX
  5
D30
  8
NEW
 10
161.8629875477414
 20
169.7679724340084
 30
0.0
  0
VERTEX
  5
D31
  8
NEW
 10
161.8629875477414
 20
169.7679724340084
 30
0.0
  0
VERTEX
  5
D32
  8
NEW
 10
148.5129875477413
 20
169.7679724340084
 30
0.0
  0
SEQEND
  5
D59
  8
NEW
  0
POLYLINE
  5
7CE
  8
NEW
 66
     1
 10
0.0
 20
0.0
 30
0.0
 70
     1
  0
VERTEX
  5
D33
  8
NEW
 10
3.888837054836898
 20
-28.81974446452216
 30
0.0
  0
VERTEX
  5
D34
  8
NEW
 10
3.888837054836898
 20
171.2679724340084
 30
0.0
  0
VERTEX
  5
D35
  8
NEW
 10
244.5129875477413
 20
171.2679724340084
 30
0.0
  0
VERTEX
  5
D36
  8
NEW
 10
244.5129875477413
 20
-28.81974446452216
 30
0.0
  0
SEQEND
  5
D5A
  8
NEW
  0
POLYLINE
  5
B22
  8
NEW
 66
     1
 10
0.0
 20
0.0
 30
0.0
 70
     1
  0
VERTEX
  5
D37
  8
NEW
 10
180.0129875477413
 20
5.953632828871065
 30
0.0
  0
VERTEX
  5
D38
  8
NEW
 10
180.0129875477413
 20
-18.31974446452217
 30
0.0
  0
VERTEX
  5
D39
  8
NEW
 10
193.3629875477413
 20
-18.31974446452217
 30
0.0
  0
VERTEX
  5
D3A
  8
NEW
 10
193.3629875477413
 20
5.953632828871065
 30
0.0
  0
SEQEND
  5
D5B
  8
NEW
  0
POLYLINE
  5
B23
  8
NEW
 66
     1
 10
0.0
 20
0.0
 30
0.0
 70
     1
  0
VERTEX
  5
D3B
  8
NEW
 10
198.1629875477413
 20
5.953632828871065
 30
0.0
  0
VERTEX
  5
D3C
  8
NEW
 10
198.1629875477413
 20
-18.31974446452217
 30
0.0
  0
VERTEX
  5
D3D
  8
NEW
 10
211.5129875477413
 20
-18.31974446452217
 30
0.0
  0
VERTEX
  5
D3E
  8
NEW
 10
211.5129875477413
 20
5.953632828871065
 30
0.0
  0
SEQEND
  5
D5C
  8
NEW
  0
POLYLINE
  5
B24
  8
NEW
 66
     1
 10
0.0
 20
0.0
 30
0.0
 70
     1
  0
VERTEX
  5
D3F
  8
NEW
 10
117.0129875477414
 20
160.7679724340085
 30
0.0
  0
VERTEX
  5
D40
  8
NEW
 10
117.0129875477414
 20
136.4945951406153
 30
0.0
  0
VERTEX
  5
D41
  8
NEW
 10
130.3629875477414
 20
136.4945951406153
 30
0.0
  0
VERTEX
  5
D42
  8
NEW
 10
130.3629875477414
 20
160.7679724340085
 30
0.0
  0
SEQEND
  5
D5D
  8
NEW
  0
POLYLINE
  5
B25
  8
NEW
 66
     1
 10
0.0
 20
0.0
 30
0.0
 70
     1
  0
VERTEX
  5
D43
  8
NEW
 10
135.1629875477414
 20
160.7679724340085
 30
0.0
  0
VERTEX
  5
D44
  8
NEW
 10
135.1629875477414
 20
136.4945951406153
 30
0.0
  0
VERTEX
  5
D45
  8
NEW
 10
148.5129875477414
 20
136.4945951406153
 30
0.0
  0
VERTEX
  5
D46
  8
NEW
 10
148.5129875477414
 20
160.7679724340085
 30
0.0
  0
SEQEND
  5
D5E
  8
NEW
  0
ENDSEC
  0
EOF
