  0
SECTION
  2
HEADER
  9
$ACADVER
  1
AC1009
  9
$DWGCODEPAGE
  3
ansi_1252
  9
$INSBASE
 10
0.0
 20
0.0
 30
0.0
  9
$EXTMIN
 10
-332.4827571011887
 20
-28.81974446452216
 30
0.0
  9
$EXTMAX
 10
208.9860907692906
 20
208.3643331010527
 30
0.0
  9
$LIMMIN
 10
0.0
 20
0.0
  9
$LIMMAX
 10
420.0
 20
297.0
  9
$ORTHOMODE
 70
     0
  9
$REGENMODE
 70
     1
  9
$FILLMODE
 70
     1
  9
$QTEXTMODE
 70
     0
  9
$MIRRTEXT
 70
     0
  9
$DRAGMODE
 70
     2
  9
$LTSCALE
 40
1.0
  9
$OSMODE
 70
   255
  9
$ATTMODE
 70
     1
  9
$TEXTSIZE
 40
2.5
  9
$TRACEWID
 40
1.0
  9
$TEXTSTYLE
  7
STANDARD
  9
$CLAYER
  8
NEW
  9
$CELTYPE
  6
BYLAYER
  9
$CECOLOR
 62
   256
  9
$DIMSCALE
 40
1.0
  9
$DIMASZ
 40
2.5
  9
$DIMEXO
 40
0.625
  9
$DIMDLI
 40
3.75
  9
$DIMRND
 40
0.0
  9
$DIMDLE
 40
0.0
  9
$DIMEXE
 40
1.25
  9
$DIMTP
 40
0.0
  9
$DIMTM
 40
0.0
  9
$DIMTXT
 40
2.5
  9
$DIMCEN
 40
2.5
  9
$DIMTSZ
 40
0.0
  9
$DIMTOL
 70
     0
  9
$DIMLIM
 70
     0
  9
$DIMTIH
 70
     0
  9
$DIMTOH
 70
     0
  9
$DIMSE1
 70
     0
  9
$DIMSE2
 70
     0
  9
$DIMTAD
 70
     1
  9
$DIMZIN
 70
     8
  9
$DIMBLK
  1

  9
$DIMASO
 70
     1
  9
$DIMSHO
 70
     1
  9
$DIMPOST
  1

  9
$DIMAPOST
  1

  9
$DIMALT
 70
     0
  9
$DIMALTD
 70
     3
  9
$DIMALTF
 40
0.03937007874016
  9
$DIMLFAC
 40
1.0
  9
$DIMTOFL
 70
     1
  9
$DIMTVP
 40
0.0
  9
$DIMTIX
 70
     0
  9
$DIMSOXD
 70
     0
  9
$DIMSAH
 70
     0
  9
$DIMBLK1
  1

  9
$DIMBLK2
  1

  9
$DIMSTYLE
  2
ISO-25
  9
$DIMCLRD
 70
     0
  9
$DIMCLRE
 70
     0
  9
$DIMCLRT
 70
     0
  9
$DIMTFAC
 40
1.0
  9
$DIMGAP
 40
0.625
  9
$LUNITS
 70
     2
  9
$LUPREC
 70
     3
  9
$SKETCHINC
 40
1.0
  9
$FILLETRAD
 40
0.0
  9
$AUNITS
 70
     0
  9
$AUPREC
 70
     0
  9
$MENU
  1
.
  9
$ELEVATION
 40
0.0
  9
$PELEVATION
 40
0.0
  9
$THICKNESS
 40
0.0
  9
$LIMCHECK
 70
     0
  9
$CHAMFERA
 40
10.0
  9
$CHAMFERB
 40
10.0
  9
$SKPOLY
 70
     0
  9
$TDCREATE
 40
2455022.720692847
  9
$TDUPDATE
 40
2457863.945617222
  9
$TDINDWG
 40
0.0318308565
  9
$TDUSRTIMER
 40
2457864.036663947
  9
$USRTIMER
 70
     1
  9
$ANGBASE
 50
0.0
  9
$ANGDIR
 70
     0
  9
$PDMODE
 70
    35
  9
$PDSIZE
 40
-5.0
  9
$PLINEWID
 40
0.0
  9
$COORDS
 70
     1
  9
$SPLFRAME
 70
     0
  9
$SPLINETYPE
 70
     6
  9
$SPLINESEGS
 70
     8
  9
$ATTDIA
 70
     0
  9
$ATTREQ
 70
     1
  9
$HANDLING
 70
     1
  9
$HANDSEED
  5
9FA
  9
$SURFTAB1
 70
     6
  9
$SURFTAB2
 70
     6
  9
$SURFTYPE
 70
     6
  9
$SURFU
 70
     6
  9
$SURFV
 70
     6
  9
$UCSNAME
  2

  9
$UCSORG
 10
0.0
 20
0.0
 30
0.0
  9
$UCSXDIR
 10
1.0
 20
0.0
 30
0.0
  9
$UCSYDIR
 10
0.0
 20
1.0
 30
0.0
  9
$PUCSNAME
  2

  9
$PUCSORG
 10
0.0
 20
0.0
 30
0.0
  9
$PUCSXDIR
 10
1.0
 20
0.0
 30
0.0
  9
$PUCSYDIR
 10
0.0
 20
1.0
 30
0.0
  9
$USERI1
 70
     0
  9
$USERI2
 70
     0
  9
$USERI3
 70
     0
  9
$USERI4
 70
     0
  9
$USERI5
 70
     0
  9
$USERR1
 40
0.0
  9
$USERR2
 40
0.0
  9
$USERR3
 40
0.0
  9
$USERR4
 40
0.0
  9
$USERR5
 40
0.0
  9
$WORLDVIEW
 70
     1
  9
$SHADEDGE
 70
     3
  9
$SHADEDIF
 70
    70
  9
$TILEMODE
 70
     1
  9
$MAXACTVP
 70
    64
  9
$PLIMCHECK
 70
     0
  9
$PEXTMIN
 10
1.000000000000000E+20
 20
1.000000000000000E+20
 30
1.000000000000000E+20
  9
$PEXTMAX
 10
-1.000000000000000E+20
 20
-1.000000000000000E+20
 30
-1.000000000000000E+20
  9
$PLIMMIN
 10
0.0
 20
0.0
  9
$PLIMMAX
 10
0.0
 20
0.0
  9
$UNITMODE
 70
     0
  9
$VISRETAIN
 70
     1
  9
$PLINEGEN
 70
     0
  9
$PSLTSCALE
 70
     1
  0
ENDSEC
  0
SECTION
  2
TABLES
  0
TABLE
  2
VPORT
 70
     1
  0
VPORT
  2
*ACTIVE
 70
     0
 10
0.0
 20
0.0
 11
1.0
 21
1.0
 12
45.90165749443858
 22
87.12464542024024
 13
0.0
 23
0.0
 14
10.0
 24
10.0
 15
10.0
 25
10.0
 16
0.0
 26
0.0
 36
1.0
 17
-134.1869158878504
 27
0.0
 37
0.0
 40
412.3658057337659
 41
1.99749373433584
 42
50.0
 43
0.0
 44
0.0
 50
0.0
 51
0.0
 71
    16
 72
  1000
 73
     1
 74
     3
 75
     0
 76
     0
 77
     0
 78
     0
  0
ENDTAB
  0
TABLE
  2
LTYPE
 70
     1
  0
LTYPE
  2
CONTINUOUS
 70
     0
  3
Solid line
 72
    65
 73
     0
 40
0.0
  0
ENDTAB
  0
TABLE
  2
LAYER
 70
     4
  0
LAYER
  2
0
 70
     0
 62
     7
  6
CONTINUOUS
  0
LAYER
  2
DEFPOINTS
 70
     0
 62
     7
  6
CONTINUOUS
  0
LAYER
  2
NEW
 70
     0
 62
    20
  6
CONTINUOUS
  0
LAYER
  2
CAIXILHOS
 70
     0
 62
     7
  6
CONTINUOUS
  0
ENDTAB
  0
TABLE
  2
STYLE
 70
     1
  0
STYLE
  2
STANDARD
 70
     0
 40
0.0
 41
1.0
 50
0.0
 71
     0
 42
2.5
  3
arial.ttf
  4

  0
ENDTAB
  0
TABLE
  2
VIEW
 70
     0
  0
ENDTAB
  0
TABLE
  2
UCS
 70
     0
  0
ENDTAB
  0
TABLE
  2
APPID
 70
     3
  0
APPID
  2
ACAD
 70
     0
  0
APPID
  2
ACAECLAYERSTANDARD
 70
     0
  0
APPID
  2
ACLAYERTOOLS
 70
     0
  0
ENDTAB
  0
TABLE
  2
DIMSTYLE
 70
     2
  0
DIMSTYLE
  2
ISO-25
 70
     0
  3

  4

  5

  6

  7

 40
1.0
 41
2.5
 42
0.625
 43
3.75
 44
1.25
 45
0.0
 46
0.0
 47
0.0
 48
0.0
140
2.5
141
2.5
142
0.0
143
0.03937007874016
144
1.0
145
0.0
146
1.0
147
0.625
 71
     0
 72
     0
 73
     0
 74
     0
 75
     0
 76
     0
 77
     1
 78
     8
170
     0
171
     3
172
     1
173
     0
174
     0
175
     0
176
     0
177
     0
178
     0
  0
DIMSTYLE
  2
STANDARD
 70
     0
  3

  4

  5

  6

  7

 40
1.0
 41
0.18
 42
0.0625
 43
0.38
 44
0.18
 45
0.0
 46
0.0
 47
0.0
 48
0.0
140
0.18
141
0.09
142
0.0
143
25.4
144
1.0
145
0.0
146
1.0
147
0.09
 71
     0
 72
     0
 73
     1
 74
     1
 75
     0
 76
     0
 77
     0
 78
     0
170
     0
171
     2
172
     0
173
     0
174
     0
175
     0
176
     0
177
     0
178
     0
  0
ENDTAB
  0
ENDSEC
  0
SECTION
  2
BLOCKS
  0
BLOCK
  8
0
  2
$MODEL_SPACE
 70
     0
 10
0.0
 20
0.0
 30
0.0
  3
$MODEL_SPACE
  1

  0
ENDBLK
  5
21
  8
0
  0
BLOCK
 67
     1
  8
0
  2
$PAPER_SPACE
 70
     0
 10
0.0
 20
0.0
 30
0.0
  3
$PAPER_SPACE
  1

  0
ENDBLK
  5
1D
 67
     1
  8
0
  0
BLOCK
  8
0
  2
*D1
 70
     1
 10
0.0
 20
0.0
 30
0.0
  3
*D1
  1

  0
LINE
  5
434
  8
0
 62
     0
 10
91.23305326102782
 20
143.6146226415095
 30
0.0
 11
91.23305326102782
 21
140.7675007106906
 31
0.0
  0
LINE
  5
435
  8
0
 62
     0
 10
94.43305326102782
 20
143.6146226415095
 30
0.0
 11
94.43305326102782
 21
140.7675007106906
 31
0.0
  0
LINE
  5
436
  8
0
 62
     0
 10
91.23305326102782
 20
142.0175007106906
 30
0.0
 11
94.43305326102782
 21
142.0175007106906
 31
0.0
  0
LINE
  5
437
  8
0
 62
     0
 10
88.73305326102782
 20
142.0175007106906
 30
0.0
 11
86.23305326102782
 21
142.0175007106906
 31
0.0
  0
LINE
  5
438
  8
0
 62
     0
 10
96.93305326102782
 20
142.0175007106906
 30
0.0
 11
99.43305326102782
 21
142.0175007106906
 31
0.0
  0
SOLID
  5
439
  8
0
 62
     0
 10
88.73305326102782
 20
141.600834044024
 30
0.0
 11
88.73305326102782
 21
142.4341673773573
 31
0.0
 12
91.23305326102782
 22
142.0175007106906
 32
0.0
 13
91.23305326102782
 23
142.0175007106906
 33
0.0
  0
SOLID
  5
43A
  8
0
 62
     0
 10
96.93305326102782
 20
142.4341673773573
 30
0.0
 11
96.93305326102782
 21
141.600834044024
 31
0.0
 12
94.43305326102782
 22
142.0175007106906
 32
0.0
 13
94.43305326102782
 23
142.0175007106906
 33
0.0
  0
TEXT
  5
43B
  8
0
  6
CONTINUOUS
 62
     0
 10
90.42428791314242
 20
134.7651985278803
 30
0.0
 40
2.5
  1
3.2
  0
POINT
  5
43C
  8
DEFPOINTS
 62
     0
 10
91.23305326102782
 20
144.2396226415095
 30
0.0
  0
POINT
  5
43D
  8
DEFPOINTS
 62
     0
 10
94.43305326102782
 20
144.2396226415095
 30
0.0
  0
POINT
  5
43E
  8
DEFPOINTS
 62
     0
 10
94.43305326102782
 20
142.0175007106906
 30
0.0
  0
ENDBLK
  5
433
  8
0
  0
BLOCK
  8
CAIXILHOS
  2
COMPONENT016
 70
     0
 10
0.0
 20
0.0
 30
0.0
  3
COMPONENT016
  1

  0
LINE
  5
470
  8
CAIXILHOS
 62
     0
 10
2859.02832031
 20
-999.05480957
 30
0.0
 11
2473.92138672
 21
-999.191589355
 31
0.0
  0
LINE
  5
471
  8
CAIXILHOS
 62
     0
 10
2473.92138672
 20
-999.191589355
 30
0.0
 11
285.995361328
 21
-999.191589355
 31
0.0
  0
LINE
  5
472
  8
CAIXILHOS
 62
     0
 10
285.995361328
 20
-1806.97253418
 30
0.0
 11
285.995361328
 21
-999.191589355
 31
0.0
  0
LINE
  5
473
  8
CAIXILHOS
 62
     0
 10
2472.54931641
 20
-1806.97253418
 30
0.0
 11
285.995361328
 21
-1806.97253418
 31
0.0
  0
LINE
  5
474
  8
CAIXILHOS
 62
     0
 10
3049.80761719
 20
-1056.53747559
 30
0.0
 11
2472.54931641
 21
-1806.97253418
 31
0.0
  0
LINE
  5
475
  8
CAIXILHOS
 62
     0
 10
3072.16918945
 20
-1027.4675293
 30
0.0
 11
3049.80761719
 21
-1056.53747559
 31
0.0
  0
LINE
  5
476
  8
CAIXILHOS
 62
     0
 10
3862.52832031
 20
-0.0000614672899246
 30
0.0
 11
3072.16918945
 21
-1027.4675293
 31
0.0
  0
LINE
  5
477
  8
CAIXILHOS
 62
     0
 10
3059.84130859
 20
1043.49450684
 30
0.0
 11
3862.52832031
 21
-0.0000614672899246
 31
0.0
  0
LINE
  5
478
  8
CAIXILHOS
 62
     0
 10
3033.76831055
 20
1077.3885498
 30
0.0
 11
3059.84130859
 21
1043.49450684
 31
0.0
  0
LINE
  5
479
  8
CAIXILHOS
 62
     0
 10
2472.54931641
 20
1806.97253418
 30
0.0
 11
3033.76831055
 21
1077.3885498
 31
0.0
  0
LINE
  5
47A
  8
CAIXILHOS
 62
     0
 10
285.995361328
 20
1806.97253418
 30
0.0
 11
2472.54931641
 21
1806.97253418
 31
0.0
  0
LINE
  5
47B
  8
CAIXILHOS
 62
     0
 10
285.995361328
 20
1806.97253418
 30
0.0
 11
285.995361328
 21
1030.80847168
 31
0.0
  0
LINE
  5
47C
  8
CAIXILHOS
 62
     0
 10
2859.02832031
 20
1030.80847168
 30
0.0
 11
285.995361328
 21
1030.80847168
 31
0.0
  0
LINE
  5
47D
  8
CAIXILHOS
 62
     0
 10
2858.98730469
 20
1009.88446045
 30
0.0
 11
2859.02832031
 21
1030.80847168
 31
0.0
  0
LINE
  5
47E
  8
CAIXILHOS
 62
     0
 10
2859.02441406
 20
-975.718383789
 30
0.0
 11
2858.98730469
 21
1009.88446045
 31
0.0
  0
LINE
  5
47F
  8
CAIXILHOS
 62
     0
 10
2859.02832031
 20
-999.05480957
 30
0.0
 11
2859.02441406
 21
-975.718383789
 31
0.0
  0
LINE
  5
480
  8
CAIXILHOS
 62
     0
 10
2889.02856445
 20
-999.05480957
 30
0.0
 11
2889.02416992
 21
-975.718383789
 31
0.0
  0
LINE
  5
481
  8
CAIXILHOS
 62
     0
 10
2889.02416992
 20
-975.718383789
 30
0.0
 11
2888.98754883
 21
1009.88446045
 31
0.0
  0
LINE
  5
482
  8
CAIXILHOS
 62
     0
 10
2888.98754883
 20
1009.88446045
 30
0.0
 11
2889.02856445
 21
1030.80847168
 31
0.0
  0
LINE
  5
483
  8
CAIXILHOS
 62
     0
 10
2909.02856445
 20
1030.80847168
 30
0.0
 11
2889.02856445
 21
1030.80847168
 31
0.0
  0
LINE
  5
484
  8
CAIXILHOS
 62
     0
 10
3014.52929688
 20
1030.58740234
 30
0.0
 11
2909.02856445
 21
1030.80847168
 31
0.0
  0
LINE
  5
485
  8
CAIXILHOS
 62
     0
 10
3014.52929688
 20
1030.58740234
 30
0.0
 11
3807.28857422
 21
-0.0000614672899246
 31
0.0
  0
LINE
  5
486
  8
CAIXILHOS
 62
     0
 10
3807.28857422
 20
-0.0000614672899246
 30
0.0
 11
3038.80541992
 21
-999.028564453
 31
0.0
  0
LINE
  5
487
  8
CAIXILHOS
 62
     0
 10
3038.80541992
 20
-999.028564453
 30
0.0
 11
2909.02856445
 21
-999.05480957
 31
0.0
  0
LINE
  5
488
  8
CAIXILHOS
 62
     0
 10
2909.02856445
 20
-999.05480957
 30
0.0
 11
2889.02856445
 21
-999.05480957
 31
0.0
  0
LINE
  5
489
  8
CAIXILHOS
 62
     0
 10
2397.48046875
 20
-1025.67150879
 30
0.0
 11
2397.48046875
 21
-1751.15551758
 31
0.0
  0
LINE
  5
48A
  8
CAIXILHOS
 62
     0
 10
353.280975342
 20
-1751.15551758
 30
0.0
 11
2397.48046875
 21
-1751.15551758
 31
0.0
  0
LINE
  5
48B
  8
CAIXILHOS
 62
     0
 10
353.280975342
 20
-1025.67150879
 30
0.0
 11
353.280975342
 21
-1751.15551758
 31
0.0
  0
LINE
  5
48C
  8
CAIXILHOS
 62
     0
 10
353.280975342
 20
-1025.67150879
 30
0.0
 11
2397.48046875
 21
-1025.67150879
 31
0.0
  0
LINE
  5
48D
  8
CAIXILHOS
 62
     0
 10
353.280975342
 20
1062.68640137
 30
0.0
 11
2397.48046875
 21
1062.68640137
 31
0.0
  0
LINE
  5
48E
  8
CAIXILHOS
 62
     0
 10
353.280975342
 20
1062.68640137
 30
0.0
 11
353.280975342
 21
1751.15551758
 31
0.0
  0
LINE
  5
48F
  8
CAIXILHOS
 62
     0
 10
2397.48046875
 20
1751.15551758
 30
0.0
 11
353.280975342
 21
1751.15551758
 31
0.0
  0
LINE
  5
490
  8
CAIXILHOS
 62
     0
 10
2397.48046875
 20
1062.68640137
 30
0.0
 11
2397.48046875
 21
1751.15551758
 31
0.0
  0
LINE
  5
491
  8
CAIXILHOS
 62
     0
 10
2859.02832031
 20
-1026.04248047
 30
0.0
 11
2473.92138672
 21
-1025.67150879
 31
0.0
  0
LINE
  5
492
  8
CAIXILHOS
 62
     0
 10
2889.02856445
 20
-1026.13061523
 30
0.0
 11
2859.02832031
 21
-1026.04248047
 31
0.0
  0
LINE
  5
493
  8
CAIXILHOS
 62
     0
 10
2909.02856445
 20
-1026.13061523
 30
0.0
 11
2889.02856445
 21
-1026.13061523
 31
0.0
  0
LINE
  5
494
  8
CAIXILHOS
 62
     0
 10
3017.89038086
 20
-1026.21850586
 30
0.0
 11
2909.02856445
 21
-1026.13061523
 31
0.0
  0
LINE
  5
495
  8
CAIXILHOS
 62
     0
 10
3017.89038086
 20
-1026.21850586
 30
0.0
 11
2460.24658203
 21
-1751.15551758
 31
0.0
  0
LINE
  5
496
  8
CAIXILHOS
 62
     0
 10
2460.24658203
 20
-1025.67150879
 30
0.0
 11
2460.24658203
 21
-1751.15551758
 31
0.0
  0
LINE
  5
497
  8
CAIXILHOS
 62
     0
 10
2473.92138672
 20
-1025.67150879
 30
0.0
 11
2460.24658203
 21
-1025.67150879
 31
0.0
  0
LINE
  5
498
  8
CAIXILHOS
 62
     0
 10
2989.78320312
 20
1062.75744629
 30
0.0
 11
2909.02856445
 21
1062.68640137
 31
0.0
  0
LINE
  5
499
  8
CAIXILHOS
 62
     0
 10
2909.02856445
 20
1062.68640137
 30
0.0
 11
2460.24658203
 21
1062.68640137
 31
0.0
  0
LINE
  5
49A
  8
CAIXILHOS
 62
     0
 10
2460.24658203
 20
1062.68640137
 30
0.0
 11
2460.24658203
 21
1751.15551758
 31
0.0
  0
LINE
  5
49B
  8
CAIXILHOS
 62
     0
 10
2460.24658203
 20
1751.15551758
 30
0.0
 11
2989.78320312
 21
1062.75744629
 31
0.0
  0
LINE
  5
49C
  8
CAIXILHOS
 62
     0
 10
2473.921469
 20
-1043.65344241
 30
0.0
 11
2883.34267807
 21
-1043.78657599
 31
0.0
  0
LINE
  5
49D
  8
CAIXILHOS
 62
     0
 10
2898.49732259
 20
-1043.79150391
 30
0.0
 11
2981.46044922
 21
-1043.81848145
 31
0.0
  0
LINE
  5
49E
  8
CAIXILHOS
 62
     0
 10
2507.54773183
 20
-1043.66322716
 30
0.0
 11
2881.21962837
 21
-1043.78473596
 31
0.0
  0
LINE
  5
49F
  8
CAIXILHOS
 62
     0
 10
2902.0328565
 20
-1043.79150391
 30
0.0
 11
2957.14378322
 21
-1043.80942461
 31
0.0
  0
LINE
  5
4A0
  8
CAIXILHOS
 62
     0
 10
2981.46044922
 20
-1043.81848145
 30
0.0
 11
2473.92138672
 21
-1703.61950684
 31
0.0
  0
LINE
  5
4A1
  8
CAIXILHOS
 62
     0
 10
2473.92138672
 20
-1703.61950684
 30
0.0
 11
2473.92138672
 21
-1043.65344238
 31
0.0
  0
LINE
  5
4A2
  8
CAIXILHOS
 62
     0
 10
376.546966553
 20
1736.43652344
 30
0.0
 11
376.546966553
 21
1084.1595459
 31
0.0
  0
LINE
  5
4A3
  8
CAIXILHOS
 62
     0
 10
376.546966553
 20
1084.1595459
 30
0.0
 11
2374.21435547
 21
1084.1595459
 31
0.0
  0
LINE
  5
4A4
  8
CAIXILHOS
 62
     0
 10
2374.21435547
 20
1084.1595459
 30
0.0
 11
2374.21435547
 21
1736.43652344
 31
0.0
  0
LINE
  5
4A5
  8
CAIXILHOS
 62
     0
 10
2374.21435547
 20
1736.43652344
 30
0.0
 11
376.546966553
 21
1736.43652344
 31
0.0
  0
LINE
  5
4A6
  8
CAIXILHOS
 62
     0
 10
2397.48046875
 20
-1751.15551758
 30
0.0
 11
2397.48046875
 21
-1025.67150879
 31
0.0
  0
LINE
  5
4A7
  8
CAIXILHOS
 62
     0
 10
353.280975342
 20
-1025.67150879
 30
0.0
 11
2397.48046875
 21
-1025.67150879
 31
0.0
  0
LINE
  5
4A8
  8
CAIXILHOS
 62
     0
 10
353.280975342
 20
-1751.15551758
 30
0.0
 11
353.280975342
 21
-1025.67150879
 31
0.0
  0
LINE
  5
4A9
  8
CAIXILHOS
 62
     0
 10
2397.48046875
 20
-1751.15551758
 30
0.0
 11
353.280975342
 21
-1751.15551758
 31
0.0
  0
LINE
  5
4AA
  8
CAIXILHOS
 62
     0
 10
2379.00732422
 20
-1737.57751465
 30
0.0
 11
371.753692627
 21
-1737.57751465
 31
0.0
  0
LINE
  5
4AB
  8
CAIXILHOS
 62
     0
 10
371.753692627
 20
-1737.57751465
 30
0.0
 11
371.753692627
 21
-1043.65344238
 31
0.0
  0
LINE
  5
4AC
  8
CAIXILHOS
 62
     0
 10
371.753692627
 20
-1043.65344238
 30
0.0
 11
2379.00732422
 21
-1043.65344238
 31
0.0
  0
LINE
  5
4AD
  8
CAIXILHOS
 62
     0
 10
2379.00732422
 20
-1043.65344238
 30
0.0
 11
2379.00732422
 21
-1737.57751465
 31
0.0
  0
LINE
  5
4AE
  8
CAIXILHOS
 62
     0
 10
3017.8894043
 20
-1026.21850586
 30
0.0
 11
2909.02856445
 21
-1026.13061523
 31
0.0
  0
LINE
  5
4AF
  8
CAIXILHOS
 62
     0
 10
2859.02832031
 20
-1026.04248047
 30
0.0
 11
2473.92138672
 21
-1025.67150879
 31
0.0
  0
LINE
  5
4B0
  8
CAIXILHOS
 62
     0
 10
2473.92138672
 20
-1025.67150879
 30
0.0
 11
2460.24658203
 21
-1025.67150879
 31
0.0
  0
LINE
  5
4B1
  8
CAIXILHOS
 62
     0
 10
2460.24658203
 20
-1025.67150879
 30
0.0
 11
2460.24658203
 21
-1751.15551758
 31
0.0
  0
LINE
  5
4B2
  8
CAIXILHOS
 62
     0
 10
2460.24658203
 20
-1751.15551758
 30
0.0
 11
3017.8894043
 21
-1026.21850586
 31
0.0
  0
LINE
  5
4B3
  8
CAIXILHOS
 62
     0
 10
2981.46044922
 20
-1043.81848145
 30
0.0
 11
2909.02856445
 21
-1043.79150391
 31
0.0
  0
LINE
  5
4B4
  8
CAIXILHOS
 62
     0
 10
2981.46044922
 20
-1043.81848145
 30
0.0
 11
2473.92138672
 21
-1703.61950684
 31
0.0
  0
LINE
  5
4B5
  8
CAIXILHOS
 62
     0
 10
2473.92138672
 20
-1703.61950684
 30
0.0
 11
2473.92138672
 21
-1043.65344238
 31
0.0
  0
LINE
  5
4B6
  8
CAIXILHOS
 62
     0
 10
2859.02832031
 20
-1043.76550293
 30
0.0
 11
2473.92138672
 21
-1043.65344238
 31
0.0
  0
LINE
  5
4B7
  8
CAIXILHOS
 62
     0
 10
2889.02856445
 20
-1043.79150391
 30
0.0
 11
2859.02832031
 21
-1043.76550293
 31
0.0
  0
LINE
  5
4B8
  8
CAIXILHOS
 62
     0
 10
2909.02856445
 20
-1043.79150391
 30
0.0
 11
2889.02856445
 21
-1043.79150391
 31
0.0
  0
LINE
  5
4B9
  8
CAIXILHOS
 62
     0
 10
2397.48046875
 20
1062.68640137
 30
0.0
 11
2397.48046875
 21
1751.15551758
 31
0.0
  0
LINE
  5
4BA
  8
CAIXILHOS
 62
     0
 10
353.280975342
 20
1751.15551758
 30
0.0
 11
2397.48046875
 21
1751.15551758
 31
0.0
  0
LINE
  5
4BB
  8
CAIXILHOS
 62
     0
 10
353.280975342
 20
1062.68640137
 30
0.0
 11
2397.48046875
 21
1062.68640137
 31
0.0
  0
LINE
  5
4BC
  8
CAIXILHOS
 62
     0
 10
376.546966553
 20
1084.1595459
 30
0.0
 11
2374.21435547
 21
1084.1595459
 31
0.0
  0
LINE
  5
4BD
  8
CAIXILHOS
 62
     0
 10
376.546966553
 20
1736.43652344
 30
0.0
 11
376.546966553
 21
1084.1595459
 31
0.0
  0
LINE
  5
4BE
  8
CAIXILHOS
 62
     0
 10
376.546966553
 20
1736.43652344
 30
0.0
 11
2374.21435547
 21
1736.43652344
 31
0.0
  0
LINE
  5
4BF
  8
CAIXILHOS
 62
     0
 10
2374.21435547
 20
1736.43652344
 30
0.0
 11
2374.21435547
 21
1084.1595459
 31
0.0
  0
LINE
  5
4C0
  8
CAIXILHOS
 62
     0
 10
2889.02856463
 20
1030.80847168
 30
0.0
 11
3014.52929688
 21
1030.58740234
 31
0.0
  0
LINE
  5
4C1
  8
CAIXILHOS
 62
     0
 10
2889.02856445
 20
-999.054792975
 30
0.0
 11
2889.02856445
 21
1030.80847009
 31
0.0
  0
LINE
  5
4C2
  8
CAIXILHOS
 62
     0
 10
3014.52929688
 20
1030.58740234
 30
0.0
 11
3807.28857422
 21
-0.0000614672899246
 31
0.0
  0
LINE
  5
4C3
  8
CAIXILHOS
 62
     0
 10
3038.80541992
 20
-999.028564453
 30
0.0
 11
2889.02856445
 21
-999.05480957
 31
0.0
  0
LINE
  5
4C4
  8
CAIXILHOS
 62
     0
 10
3807.28857422
 20
-0.0000614672899246
 30
0.0
 11
3038.80541992
 21
-999.028564453
 31
0.0
  0
LINE
  5
4C5
  8
CAIXILHOS
 62
     0
 10
3775.86376953
 20
-7.10742807388
 30
0.0
 11
3030.79833984
 21
-975.692138672
 31
0.0
  0
LINE
  5
4C6
  8
CAIXILHOS
 62
     0
 10
3030.79833984
 20
-975.692138672
 30
0.0
 11
2909.02416992
 21
-975.718383789
 31
0.0
  0
LINE
  5
4C7
  8
CAIXILHOS
 62
     0
 10
2909.02416992
 20
-975.718383789
 30
0.0
 11
2908.98632812
 21
1009.88446045
 31
0.0
  0
LINE
  5
4C8
  8
CAIXILHOS
 62
     0
 10
2908.98632812
 20
1009.88446045
 30
0.0
 11
2993.73242188
 21
1009.66345215
 31
0.0
  0
LINE
  5
4C9
  8
CAIXILHOS
 62
     0
 10
2993.73242188
 20
1009.66345215
 30
0.0
 11
3775.86376953
 21
-7.10742807388
 31
0.0
  0
LINE
  5
4CA
  8
CAIXILHOS
 62
     0
 10
2460.24658203
 20
1751.15551758
 30
0.0
 11
2989.78320312
 21
1062.75744629
 31
0.0
  0
LINE
  5
4CB
  8
CAIXILHOS
 62
     0
 10
2460.24658203
 20
1062.68640137
 30
0.0
 11
2460.24658203
 21
1751.15551758
 31
0.0
  0
LINE
  5
4CC
  8
CAIXILHOS
 62
     0
 10
2989.78320312
 20
1062.75744629
 30
0.0
 11
2460.24658203
 21
1062.68640137
 31
0.0
  0
LINE
  5
4CD
  8
CAIXILHOS
 62
     0
 10
2480.98754883
 20
1702.84448242
 30
0.0
 11
2956.89871777
 21
1084.1595459
 31
0.0
  0
LINE
  5
4CE
  8
CAIXILHOS
 62
     0
 10
2956.89871777
 20
1084.1595459
 30
0.0
 11
2480.98754883
 21
1084.1595459
 31
0.0
  0
LINE
  5
4CF
  8
CAIXILHOS
 62
     0
 10
2480.98754883
 20
1084.1595459
 30
0.0
 11
2480.98754883
 21
1702.84448242
 31
0.0
  0
LINE
  5
4D0
  8
CAIXILHOS
 62
     0
 10
2908.98632812
 20
1009.88446045
 30
0.0
 11
2993.73242188
 21
1009.66345215
 31
0.0
  0
LINE
  5
4D1
  8
CAIXILHOS
 62
     0
 10
2993.73242188
 20
1009.66345215
 30
0.0
 11
3775.86376953
 21
-7.10742807388
 31
0.0
  0
LINE
  5
4D2
  8
CAIXILHOS
 62
     0
 10
3775.86376953
 20
-7.10742807388
 30
0.0
 11
3030.79833984
 21
-975.692138672
 31
0.0
  0
LINE
  5
4D3
  8
CAIXILHOS
 62
     0
 10
3030.79833984
 20
-975.692138672
 30
0.0
 11
2909.02416992
 21
-975.718383789
 31
0.0
  0
LINE
  5
4D4
  8
CAIXILHOS
 62
     0
 10
2909.02416992
 20
-975.718383789
 30
0.0
 11
2908.98632812
 21
1009.88446045
 31
0.0
  0
LINE
  5
4D5
  8
CAIXILHOS
 62
     0
 10
371.753692627
 20
-1043.65344238
 30
0.0
 11
371.753692627
 21
-1737.57751465
 31
0.0
  0
LINE
  5
4D6
  8
CAIXILHOS
 62
     0
 10
371.753692627
 20
-1737.57751465
 30
0.0
 11
2379.00732422
 21
-1737.57751465
 31
0.0
  0
LINE
  5
4D7
  8
CAIXILHOS
 62
     0
 10
2379.00732422
 20
-1737.57751465
 30
0.0
 11
2379.00732422
 21
-1043.65344238
 31
0.0
  0
LINE
  5
4D8
  8
CAIXILHOS
 62
     0
 10
2379.00732422
 20
-1043.65344238
 30
0.0
 11
371.753692627
 21
-1043.65344238
 31
0.0
  0
LINE
  5
4D9
  8
CAIXILHOS
 62
     0
 10
2480.98754883
 20
1702.84448242
 30
0.0
 11
2956.89871777
 21
1084.1595459
 31
0.0
  0
LINE
  5
4DA
  8
CAIXILHOS
 62
     0
 10
2956.89871777
 20
1084.1595459
 30
0.0
 11
2480.98754883
 21
1084.1595459
 31
0.0
  0
LINE
  5
4DB
  8
CAIXILHOS
 62
     0
 10
2480.98754883
 20
1084.1595459
 30
0.0
 11
2480.98754883
 21
1702.84448242
 31
0.0
  0
ENDBLK
  5
4DC
  8
0
  0
BLOCK
  8
0
  2
*D4
 70
     1
 10
0.0
 20
0.0
 30
0.0
  3
*D4
  1

  0
LINE
  5
532
  8
NEW
 62
     0
 10
-297.7113902298935
 20
116.8146226415095
 30
0.0
 11
-297.7113902298935
 21
110.9602093552894
 31
0.0
  0
LINE
  5
533
  8
NEW
 62
     0
 10
-247.7113902298935
 20
116.8146226415095
 30
0.0
 11
-247.7113902298935
 21
110.9602093552894
 31
0.0
  0
LINE
  5
534
  8
NEW
 62
     0
 10
-295.2113902298935
 20
112.2102093552894
 30
0.0
 11
-250.2113902298935
 21
112.2102093552894
 31
0.0
  0
SOLID
  5
535
  8
NEW
 62
     0
 10
-295.2113902298935
 20
112.6268760219561
 30
0.0
 11
-295.2113902298935
 21
111.7935426886228
 31
0.0
 12
-297.7113902298935
 22
112.2102093552894
 32
0.0
 13
-297.7113902298935
 23
112.2102093552894
 33
0.0
  0
SOLID
  5
536
  8
NEW
 62
     0
 10
-250.2113902298935
 20
111.7935426886228
 30
0.0
 11
-250.2113902298935
 21
112.6268760219561
 31
0.0
 12
-247.7113902298935
 22
112.2102093552894
 32
0.0
 13
-247.7113902298935
 23
112.2102093552894
 33
0.0
  0
TEXT
  5
537
  8
NEW
  6
CONTINUOUS
 62
     0
 10
-274.6426658097025
 20
112.8778423702962
 30
0.0
 40
2.5
  1
50
  0
POINT
  5
538
  8
DEFPOINTS
 62
     0
 10
-297.7113902298935
 20
117.4396226415095
 30
0.0
  0
POINT
  5
539
  8
DEFPOINTS
 62
     0
 10
-247.7113902298935
 20
117.4396226415095
 30
0.0
  0
POINT
  5
53A
  8
DEFPOINTS
 62
     0
 10
-247.7113902298935
 20
112.2102093552894
 30
0.0
  0
ENDBLK
  5
531
  8
0
  0
BLOCK
  8
0
  2
*D5
 70
     1
 10
0.0
 20
0.0
 30
0.0
  3
*D5
  1

  0
LINE
  5
542
  8
NEW
 62
     0
 10
-297.7113902298935
 20
116.8146226415095
 30
0.0
 11
-297.7113902298935
 21
107.5998881519846
 31
0.0
  0
LINE
  5
543
  8
NEW
 62
     0
 10
-247.7113902298935
 20
116.8146226415095
 30
0.0
 11
-247.7113902298935
 21
107.5998881519846
 31
0.0
  0
LINE
  5
544
  8
NEW
 62
     0
 10
-295.2113902298935
 20
108.8498881519846
 30
0.0
 11
-250.2113902298935
 21
108.8498881519846
 31
0.0
  0
SOLID
  5
545
  8
NEW
 62
     0
 10
-295.2113902298935
 20
109.2665548186513
 30
0.0
 11
-295.2113902298935
 21
108.4332214853179
 31
0.0
 12
-297.7113902298935
 22
108.8498881519846
 32
0.0
 13
-297.7113902298935
 23
108.8498881519846
 33
0.0
  0
SOLID
  5
546
  8
NEW
 62
     0
 10
-250.2113902298935
 20
108.4332214853179
 30
0.0
 11
-250.2113902298935
 21
109.2665548186513
 31
0.0
 12
-247.7113902298935
 22
108.8498881519846
 32
0.0
 13
-247.7113902298935
 23
108.8498881519846
 33
0.0
  0
TEXT
  5
547
  8
NEW
  6
CONTINUOUS
 62
     0
 10
-274.6426658097025
 20
109.5175211669914
 30
0.0
 40
2.5
  1
50
  0
POINT
  5
548
  8
DEFPOINTS
 62
     0
 10
-297.7113902298935
 20
117.4396226415095
 30
0.0
  0
POINT
  5
549
  8
DEFPOINTS
 62
     0
 10
-247.7113902298935
 20
117.4396226415095
 30
0.0
  0
POINT
  5
54A
  8
DEFPOINTS
 62
     0
 10
-247.7113902298935
 20
108.8498881519846
 30
0.0
  0
ENDBLK
  5
541
  8
0
  0
BLOCK
  8
0
  2
*D6
 70
     1
 10
0.0
 20
0.0
 30
0.0
  3
*D6
  1

  0
LINE
  5
551
  8
NEW
 62
     0
 10
-298.3363902298935
 20
117.4396226415095
 30
0.0
 11
-317.9507263834779
 21
117.4396226415095
 31
0.0
  0
LINE
  5
552
  8
NEW
 62
     0
 10
-273.3363894219597
 20
167.8254922010526
 30
0.0
 11
-317.9507263834779
 21
167.8254922010526
 31
0.0
  0
LINE
  5
553
  8
NEW
 62
     0
 10
-316.7007263834779
 20
119.9396226415095
 30
0.0
 11
-316.7007263834779
 21
165.3254922010526
 31
0.0
  0
SOLID
  5
554
  8
NEW
 62
     0
 10
-317.1173930501446
 20
119.9396226415095
 30
0.0
 11
-316.2840597168112
 21
119.9396226415095
 31
0.0
 12
-316.7007263834779
 22
117.4396226415095
 32
0.0
 13
-316.7007263834779
 23
117.4396226415095
 33
0.0
  0
SOLID
  5
555
  8
NEW
 62
     0
 10
-316.2840597168112
 20
165.3254922010526
 30
0.0
 11
-317.1173930501446
 21
165.3254922010526
 31
0.0
 12
-316.7007263834779
 22
167.8254922010526
 32
0.0
 13
-316.7007263834779
 23
167.8254922010526
 33
0.0
  0
TEXT
  5
556
  8
NEW
  6
CONTINUOUS
 62
     0
 10
-317.370064719085
 20
138.2669366845825
 30
0.0
 40
2.5
  1
50.39
 50
90.0
  0
POINT
  5
557
  8
DEFPOINTS
 62
     0
 10
-297.7113902298935
 20
117.4396226415095
 30
0.0
  0
POINT
  5
558
  8
DEFPOINTS
 62
     0
 10
-272.7113894219597
 20
167.8254922010526
 30
0.0
  0
POINT
  5
559
  8
DEFPOINTS
 62
     0
 10
-316.7007263834779
 20
167.8254922010526
 30
0.0
  0
ENDBLK
  5
550
  8
0
  0
BLOCK
  8
0
  2
*D7
 70
     1
 10
0.0
 20
0.0
 30
0.0
  3
*D7
  1

  0
LINE
  5
586
  8
NEW
 62
     0
 10
-245.044468639969
 20
116.8146226415095
 30
0.0
 11
-245.044468639969
 21
107.5998881519846
 31
0.0
  0
LINE
  5
587
  8
NEW
 62
     0
 10
-140.044468639969
 20
116.8146226415095
 30
0.0
 11
-140.044468639969
 21
107.5998881519846
 31
0.0
  0
LINE
  5
588
  8
NEW
 62
     0
 10
-242.544468639969
 20
108.8498881519846
 30
0.0
 11
-142.544468639969
 21
108.8498881519846
 31
0.0
  0
SOLID
  5
589
  8
NEW
 62
     0
 10
-242.544468639969
 20
109.2665548186513
 30
0.0
 11
-242.544468639969
 21
108.4332214853179
 31
0.0
 12
-245.044468639969
 22
108.8498881519846
 32
0.0
 13
-245.044468639969
 23
108.8498881519846
 33
0.0
  0
SOLID
  5
58A
  8
NEW
 62
     0
 10
-142.544468639969
 20
108.4332214853179
 30
0.0
 11
-142.544468639969
 21
109.2665548186513
 31
0.0
 12
-140.044468639969
 22
108.8498881519846
 32
0.0
 13
-140.044468639969
 23
108.8498881519846
 33
0.0
  0
TEXT
  5
58B
  8
NEW
  6
CONTINUOUS
 62
     0
 10
-195.5782339878544
 20
109.5175211669914
 30
0.0
 40
2.5
  1
105
  0
POINT
  5
58C
  8
DEFPOINTS
 62
     0
 10
-245.044468639969
 20
117.4396226415095
 30
0.0
  0
POINT
  5
58D
  8
DEFPOINTS
 62
     0
 10
-140.044468639969
 20
117.4396226415095
 30
0.0
  0
POINT
  5
58E
  8
DEFPOINTS
 62
     0
 10
-140.044468639969
 20
108.8498881519846
 30
0.0
  0
ENDBLK
  5
585
  8
0
  0
BLOCK
  8
0
  2
*D8
 70
     1
 10
0.0
 20
0.0
 30
0.0
  3
*D8
  1

  0
LINE
  5
595
  8
NEW
 62
     0
 10
-225.9850473810026
 20
117.4396226415095
 30
0.0
 11
-233.7271222138061
 21
117.4396226415095
 31
0.0
  0
LINE
  5
596
  8
NEW
 62
     0
 10
-225.9850473810026
 20
148.5947211189002
 30
0.0
 11
-233.7271222138061
 21
148.5947211189002
 31
0.0
  0
LINE
  5
597
  8
NEW
 62
     0
 10
-232.4771222138061
 20
119.9396226415095
 30
0.0
 11
-232.4771222138061
 21
146.0947211189002
 31
0.0
  0
SOLID
  5
598
  8
NEW
 62
     0
 10
-232.8937888804728
 20
119.9396226415095
 30
0.0
 11
-232.0604555471394
 21
119.9396226415095
 31
0.0
 12
-232.4771222138061
 22
117.4396226415095
 32
0.0
 13
-232.4771222138061
 23
117.4396226415095
 33
0.0
  0
SOLID
  5
599
  8
NEW
 62
     0
 10
-232.0604555471394
 20
146.0947211189002
 30
0.0
 11
-232.8937888804728
 21
146.0947211189002
 31
0.0
 12
-232.4771222138061
 22
148.5947211189002
 32
0.0
 13
-232.4771222138061
 23
148.5947211189002
 33
0.0
  0
TEXT
  5
59A
  8
NEW
  6
CONTINUOUS
 62
     0
 10
-233.1464605494132
 20
128.6541091244067
 30
0.0
 40
2.5
  1
31.16
 50
90.0
  0
POINT
  5
59B
  8
DEFPOINTS
 62
     0
 10
-225.3600473810026
 20
117.4396226415095
 30
0.0
  0
POINT
  5
59C
  8
DEFPOINTS
 62
     0
 10
-225.3600473810026
 20
148.5947211189002
 30
0.0
  0
POINT
  5
59D
  8
DEFPOINTS
 62
     0
 10
-232.4771222138061
 20
148.5947211189002
 30
0.0
  0
ENDBLK
  5
594
  8
0
  0
BLOCK
  8
0
  2
*D9
 70
     1
 10
0.0
 20
0.0
 30
0.0
  3
*D9
  1

  0
LINE
  5
5B4
  8
0
 62
     0
 10
-245.044468639969
 20
144.683324476224
 30
0.0
 11
-245.044468639969
 21
153.5022135850824
 31
0.0
  0
LINE
  5
5B5
  8
0
 62
     0
 10
-238.644468639969
 20
144.683324476224
 30
0.0
 11
-238.644468639969
 21
153.5022135850824
 31
0.0
  0
LINE
  5
5B6
  8
0
 62
     0
 10
-242.544468639969
 20
152.2522135850824
 30
0.0
 11
-241.144468639969
 21
152.2522135850824
 31
0.0
  0
SOLID
  5
5B7
  8
0
 62
     0
 10
-242.544468639969
 20
152.668880251749
 30
0.0
 11
-242.544468639969
 21
151.8355469184157
 31
0.0
 12
-245.044468639969
 22
152.2522135850824
 32
0.0
 13
-245.044468639969
 23
152.2522135850824
 33
0.0
  0
SOLID
  5
5B8
  8
0
 62
     0
 10
-241.144468639969
 20
151.8355469184157
 30
0.0
 11
-241.144468639969
 21
152.668880251749
 31
0.0
 12
-238.644468639969
 22
152.2522135850824
 32
0.0
 13
-238.644468639969
 23
152.2522135850824
 33
0.0
  0
TEXT
  5
5B9
  8
0
  6
CONTINUOUS
 62
     0
 10
-244.2532339878544
 20
152.9198466000892
 30
0.0
 40
2.5
  1
6.4
  0
POINT
  5
5BA
  8
DEFPOINTS
 62
     0
 10
-245.044468639969
 20
144.058324476224
 30
0.0
  0
POINT
  5
5BB
  8
DEFPOINTS
 62
     0
 10
-238.644468639969
 20
144.058324476224
 30
0.0
  0
POINT
  5
5BC
  8
DEFPOINTS
 62
     0
 10
-238.644468639969
 20
152.2522135850824
 30
0.0
  0
ENDBLK
  5
5B3
  8
0
  0
BLOCK
  8
0
  2
*D10
 70
     1
 10
0.0
 20
0.0
 30
0.0
  3
*D10
  1

  0
LINE
  5
5EE
  8
NEW
 62
     0
 10
-242.0241992259256
 20
163.428310424042
 30
0.0
 11
-240.944929233774
 21
164.8313612334219
 31
0.0
  0
LINE
  5
5EF
  8
NEW
 62
     0
 10
-240.4389518757547
 20
162.2088892286445
 30
0.0
 11
-239.3596818836031
 21
163.6119400380244
 31
0.0
  0
LINE
  5
5F0
  8
NEW
 62
     0
 10
-241.7070677464067
 20
163.8405812944031
 30
0.0
 11
-240.1218203962358
 21
162.6211600990056
 31
0.0
  0
LINE
  5
5F1
  8
NEW
 62
     0
 10
-243.6886276244442
 20
165.3648583196684
 30
0.0
 11
-245.6701875024818
 21
166.8891353449338
 31
0.0
  0
LINE
  5
5F2
  8
NEW
 62
     0
 10
-238.1402605181982
 20
161.0968830737402
 30
0.0
 11
-236.1587006401606
 21
159.5726060484749
 31
0.0
  0
SOLID
  5
5F3
  8
NEW
 62
     0
 10
-243.9426737953218
 20
165.0345983399955
 30
0.0
 11
-243.4345814535667
 21
165.6951182993413
 31
0.0
 12
-241.7070677464067
 22
163.8405812944031
 32
0.0
 13
-241.7070677464067
 23
163.8405812944031
 33
0.0
  0
SOLID
  5
5F4
  8
NEW
 62
     0
 10
-237.8862143473206
 20
161.4271430534131
 30
0.0
 11
-238.3943066890758
 21
160.7666230940673
 31
0.0
 12
-240.1218203962358
 22
162.6211600990056
 32
0.0
 13
-240.1218203962358
 23
162.6211600990056
 33
0.0
  0
TEXT
  5
5F5
  8
NEW
  6
CONTINUOUS
 62
     0
 10
-240.3180419971809
 20
165.5319205267418
 30
0.0
 40
2.5
  1
2
 50
322.4314044106108
  0
POINT
  5
5F6
  8
DEFPOINTS
 62
     0
 10
-242.405268482242
 20
162.9329204545326
 30
0.0
  0
POINT
  5
5F7
  8
DEFPOINTS
 62
     0
 10
-240.8200211320711
 20
161.7134992591351
 30
0.0
  0
POINT
  5
5F8
  8
DEFPOINTS
 62
     0
 10
-240.1218203962358
 20
162.6211600990056
 30
0.0
  0
ENDBLK
  5
5ED
  8
0
  0
BLOCK
  8
0
  2
*D11
 70
     1
 10
0.0
 20
0.0
 30
0.0
  3
*D11
  1

  0
LINE
  5
7AF
  8
NEW
 62
     0
 10
-224.044468639969
 20
116.8146226415095
 30
0.0
 11
-224.044468639969
 21
112.4924372075945
 31
0.0
  0
LINE
  5
7B0
  8
NEW
 62
     0
 10
-215.144468639969
 20
116.8146226415095
 30
0.0
 11
-215.144468639969
 21
112.4924372075945
 31
0.0
  0
LINE
  5
7B1
  8
NEW
 62
     0
 10
-221.544468639969
 20
113.7424372075945
 30
0.0
 11
-217.644468639969
 21
113.7424372075945
 31
0.0
  0
SOLID
  5
7B2
  8
NEW
 62
     0
 10
-221.544468639969
 20
114.1591038742611
 30
0.0
 11
-221.544468639969
 21
113.3257705409278
 31
0.0
 12
-224.044468639969
 22
113.7424372075945
 32
0.0
 13
-224.044468639969
 23
113.7424372075945
 33
0.0
  0
SOLID
  5
7B3
  8
NEW
 62
     0
 10
-217.644468639969
 20
113.3257705409278
 30
0.0
 11
-217.644468639969
 21
114.1591038742611
 31
0.0
 12
-215.144468639969
 22
113.7424372075945
 32
0.0
 13
-215.144468639969
 23
113.7424372075945
 33
0.0
  0
TEXT
  5
7B4
  8
NEW
  6
CONTINUOUS
 62
     0
 10
-222.0160238923564
 20
114.4100702226013
 30
0.0
 40
2.5
  1
8.9
  0
POINT
  5
7B5
  8
DEFPOINTS
 62
     0
 10
-224.044468639969
 20
117.4396226415095
 30
0.0
  0
POINT
  5
7B6
  8
DEFPOINTS
 62
     0
 10
-215.144468639969
 20
117.4396226415095
 30
0.0
  0
POINT
  5
7B7
  8
DEFPOINTS
 62
     0
 10
-215.144468639969
 20
113.7424372075945
 30
0.0
  0
ENDBLK
  5
7AE
  8
0
  0
BLOCK
  8
0
  2
*D12
 70
     1
 10
0.0
 20
0.0
 30
0.0
  3
*D12
  1

  0
LINE
  5
7BE
  8
NEW
 62
     0
 10
-224.669468639969
 20
117.4396226415095
 30
0.0
 11
-229.0305698527747
 21
117.4396226415095
 31
0.0
  0
LINE
  5
7BF
  8
NEW
 62
     0
 10
-224.669468639969
 20
139.6218741704383
 30
0.0
 11
-229.0305698527747
 21
139.6218741704383
 31
0.0
  0
LINE
  5
7C0
  8
NEW
 62
     0
 10
-227.7805698527747
 20
119.9396226415095
 30
0.0
 11
-227.7805698527747
 21
137.1218741704383
 31
0.0
  0
SOLID
  5
7C1
  8
NEW
 62
     0
 10
-228.1972365194414
 20
119.9396226415095
 30
0.0
 11
-227.363903186108
 21
119.9396226415095
 31
0.0
 12
-227.7805698527747
 22
117.4396226415095
 32
0.0
 13
-227.7805698527747
 23
117.4396226415095
 33
0.0
  0
SOLID
  5
7C2
  8
NEW
 62
     0
 10
-227.363903186108
 20
137.1218741704383
 30
0.0
 11
-228.1972365194414
 21
137.1218741704383
 31
0.0
 12
-227.7805698527747
 22
139.6218741704383
 32
0.0
 13
-227.7805698527747
 23
139.6218741704383
 33
0.0
  0
TEXT
  5
7C3
  8
NEW
  6
CONTINUOUS
 62
     0
 10
-228.4482028677816
 20
124.1864441767788
 30
0.0
 40
2.5
  1
22.18
 50
90.0
  0
POINT
  5
7C4
  8
DEFPOINTS
 62
     0
 10
-224.044468639969
 20
117.4396226415095
 30
0.0
  0
POINT
  5
7C5
  8
DEFPOINTS
 62
     0
 10
-224.044468639969
 20
139.6218741704383
 30
0.0
  0
POINT
  5
7C6
  8
DEFPOINTS
 62
     0
 10
-227.7805698527747
 20
139.6218741704383
 30
0.0
  0
ENDBLK
  5
7BD
  8
0
  0
BLOCK
  8
0
  2
*D13
 70
     1
 10
0.0
 20
0.0
 30
0.0
  3
*D13
  1

  0
LINE
  5
7D5
  8
NEW
 62
     0
 10
-3.396641589432853
 20
217.649527524018
 30
0.0
 11
-29.75252265833905
 21
217.649527524018
 31
0.0
  0
LINE
  5
7D6
  8
NEW
 62
     0
 10
-3.396641589432853
 20
306.7533674515652
 30
0.0
 11
-29.75252265833905
 21
306.7533674515652
 31
0.0
  0
LINE
  5
7D7
  8
NEW
 62
     0
 10
-28.50252265833905
 20
220.149527524018
 30
0.0
 11
-28.50252265833905
 21
304.2533674515652
 31
0.0
  0
SOLID
  5
7D8
  8
NEW
 62
     0
 10
-28.91918932500572
 20
220.149527524018
 30
0.0
 11
-28.08585599167239
 21
220.149527524018
 31
0.0
 12
-28.50252265833905
 22
217.649527524018
 32
0.0
 13
-28.50252265833905
 23
217.649527524018
 33
0.0
  0
SOLID
  5
7D9
  8
NEW
 62
     0
 10
-28.08585599167238
 20
304.2533674515652
 30
0.0
 11
-28.91918932500571
 21
304.2533674515652
 31
0.0
 12
-28.50252265833905
 22
306.7533674515652
 32
0.0
 13
-28.50252265833905
 23
306.7533674515652
 33
0.0
  0
TEXT
  5
7DA
  8
NEW
  6
CONTINUOUS
 62
     0
 10
-29.17015567334585
 20
259.0525729993878
 30
0.0
 40
2.5
  1
89.1
 50
90.0
  0
POINT
  5
7DB
  8
DEFPOINTS
 62
     0
 10
-2.771641589432853
 20
217.649527524018
 30
0.0
  0
POINT
  5
7DC
  8
DEFPOINTS
 62
     0
 10
-2.771641589432853
 20
306.7533674515652
 30
0.0
  0
POINT
  5
7DD
  8
DEFPOINTS
 62
     0
 10
-28.50252265833905
 20
306.7533674515652
 30
0.0
  0
ENDBLK
  5
7D4
  8
0
  0
BLOCK
  8
0
  2
*D14
 70
     1
 10
0.0
 20
0.0
 30
0.0
  3
*D14
  1

  0
LINE
  5
7E4
  8
NEW
 62
     0
 10
-2.771641589432846
 20
307.3783674515652
 30
0.0
 11
-2.771641589432846
 21
319.1946015702273
 31
0.0
  0
LINE
  5
7E5
  8
NEW
 62
     0
 10
208.9860907692906
 20
307.3783674515652
 30
0.0
 11
208.9860907692906
 21
319.1946015702273
 31
0.0
  0
LINE
  5
7E6
  8
NEW
 62
     0
 10
-0.2716415894328463
 20
317.9446015702273
 30
0.0
 11
206.4860907692906
 21
317.9446015702273
 31
0.0
  0
SOLID
  5
7E7
  8
NEW
 62
     0
 10
-0.2716415894328463
 20
318.361268236894
 30
0.0
 11
-0.2716415894328463
 21
317.5279349035607
 31
0.0
 12
-2.771641589432846
 22
317.9446015702273
 32
0.0
 13
-2.771641589432846
 23
317.9446015702273
 33
0.0
  0
SOLID
  5
7E8
  8
NEW
 62
     0
 10
206.4860907692906
 20
317.5279349035607
 30
0.0
 11
206.4860907692906
 21
318.361268236894
 31
0.0
 12
208.9860907692906
 22
317.9446015702273
 32
0.0
 13
208.9860907692906
 23
317.9446015702273
 33
0.0
  0
TEXT
  5
7E9
  8
NEW
  6
CONTINUOUS
 62
     0
 10
97.79515092007895
 20
318.6122345852341
 30
0.0
 40
2.5
  1
211.76
  0
POINT
  5
7EA
  8
DEFPOINTS
 62
     0
 10
-2.771641589432846
 20
306.7533674515652
 30
0.0
  0
POINT
  5
7EB
  8
DEFPOINTS
 62
     0
 10
208.9860907692906
 20
306.7533674515652
 30
0.0
  0
POINT
  5
7EC
  8
DEFPOINTS
 62
     0
 10
208.9860907692906
 20
317.9446015702273
 30
0.0
  0
ENDBLK
  5
7E3
  8
0
  0
ENDSEC
  0
SECTION
  2
ENTITIES
  0
LINE
  5
B7
  8
0
 10
47.63305326102783
 20
120.6396226415094
 30
0.0
 11
91.23305326102782
 21
120.6396226415094
 31
0.0
  0
LINE
  5
C2
  8
0
 10
53.39751935509508
 20
159.6040887355767
 30
0.0
 11
44.43305326102782
 21
150.6396226415094
 31
0.0
  0
LINE
  5
C3
  8
0
 10
78.39751935509508
 20
166.6751565474422
 30
0.0
 11
69.43305326102782
 21
175.6396226415094
 31
0.0
  0
LINE
  5
C5
  8
0
 10
64.43305326102782
 20
143.233891864151
 30
0.0
 11
74.43305326102782
 21
143.233891864151
 31
0.0
  0
LINE
  5
C6
  8
0
 10
74.43305326102782
 20
143.233891864151
 30
0.0
 11
74.43305326102782
 21
133.233891864151
 31
0.0
  0
LINE
  5
C7
  8
0
 10
74.43305326102782
 20
133.233891864151
 30
0.0
 11
64.43305326102782
 21
133.233891864151
 31
0.0
  0
LINE
  5
C8
  8
0
 10
64.43305326102782
 20
133.233891864151
 30
0.0
 11
64.43305326102782
 21
143.233891864151
 31
0.0
  0
LINE
  5
CC
  8
0
 10
91.23305326102782
 20
150.6396226415094
 30
0.0
 11
161.2330532610278
 21
150.6396226415094
 31
0.0
  0
LINE
  5
CE
  8
0
 10
161.2330532610278
 20
120.6396226415094
 30
0.0
 11
91.23305326102782
 21
120.6396226415094
 31
0.0
  0
LINE
  5
D1
  8
0
 10
106.2330532610278
 20
143.233891864151
 30
0.0
 11
116.2330532610278
 21
143.233891864151
 31
0.0
  0
LINE
  5
D2
  8
0
 10
116.2330532610278
 20
143.233891864151
 30
0.0
 11
116.2330532610278
 21
140.0628033147314
 31
0.0
  0
LINE
  5
D3
  8
0
 10
106.2330532610278
 20
143.233891864151
 30
0.0
 11
106.2330532610278
 21
140.0628033147314
 31
0.0
  0
LINE
  5
D5
  8
0
 10
146.2330532610278
 20
143.233891864151
 30
0.0
 11
146.2330532610278
 21
133.233891864151
 31
0.0
  0
LINE
  5
D7
  8
0
 10
146.2330532610278
 20
143.233891864151
 30
0.0
 11
136.2330532610278
 21
143.233891864151
 31
0.0
  0
LINE
  5
D8
  8
0
 10
136.2330532610278
 20
143.233891864151
 30
0.0
 11
136.2330532610278
 21
133.233891864151
 31
0.0
  0
LINE
  5
D9
  8
0
 10
136.2330532610278
 20
133.233891864151
 30
0.0
 11
146.2330532610278
 21
133.233891864151
 31
0.0
  0
LINE
  5
DA
  8
0
 10
91.23305326102782
 20
150.6396226415094
 30
0.0
 11
91.23305326102782
 21
147.4396226415095
 31
0.0
  0
LINE
  5
DB
  8
0
 10
91.23305326102782
 20
147.4396226415095
 30
0.0
 11
94.43305326102782
 21
147.4396226415095
 31
0.0
  0
LINE
  5
DC
  8
0
 10
94.43305326102782
 20
147.4396226415095
 30
0.0
 11
94.43305326102782
 21
144.2396226415095
 31
0.0
  0
LINE
  5
DD
  8
0
 10
94.43305326102782
 20
144.2396226415095
 30
0.0
 11
91.23305326102782
 21
144.2396226415095
 31
0.0
  0
LINE
  5
DE
  8
0
 10
91.23305326102782
 20
144.2396226415095
 30
0.0
 11
91.23305326102782
 21
141.0396226415095
 31
0.0
  0
LINE
  5
DF
  8
0
 10
91.23305326102782
 20
141.0396226415095
 30
0.0
 11
94.43305326102782
 21
141.0396226415095
 31
0.0
  0
LINE
  5
E0
  8
0
 10
94.43305326102782
 20
141.0396226415095
 30
0.0
 11
94.43305326102782
 21
140.0628033147314
 31
0.0
  0
LINE
  5
E1
  8
0
 10
94.43305326102782
 20
137.8396226415095
 30
0.0
 11
91.23305326102782
 21
137.8396226415095
 31
0.0
  0
LINE
  5
E2
  8
0
 10
91.23305326102782
 20
137.8396226415095
 30
0.0
 11
91.23305326102782
 21
134.6396226415095
 31
0.0
  0
LINE
  5
E3
  8
0
 10
91.23305326102782
 20
134.6396226415095
 30
0.0
 11
94.43305326102782
 21
134.6396226415095
 31
0.0
  0
LINE
  5
E4
  8
0
 10
94.43305326102782
 20
134.6396226415095
 30
0.0
 11
94.43305326102782
 21
131.4396226415095
 31
0.0
  0
LINE
  5
E5
  8
0
 10
94.43305326102782
 20
131.4396226415095
 30
0.0
 11
91.23305326102782
 21
131.4396226415095
 31
0.0
  0
LINE
  5
E6
  8
0
 10
91.23305326102782
 20
131.4396226415095
 30
0.0
 11
91.23305326102782
 21
131.4396226415095
 31
0.0
  0
LINE
  5
E7
  8
0
 10
91.23305326102782
 20
131.4396226415095
 30
0.0
 11
94.43305326102782
 21
131.4396226415095
 31
0.0
  0
LINE
  5
ED
  8
0
 10
91.23305326102782
 20
131.4396226415095
 30
0.0
 11
91.23305326102782
 21
128.2396226415095
 31
0.0
  0
LINE
  5
EE
  8
0
 10
91.23305326102782
 20
128.2396226415095
 30
0.0
 11
94.43305326102782
 21
128.2396226415095
 31
0.0
  0
LINE
  5
EF
  8
0
 10
94.43305326102782
 20
128.2396226415095
 30
0.0
 11
94.43305326102782
 21
125.0396226415095
 31
0.0
  0
LINE
  5
F0
  8
0
 10
94.43305326102782
 20
125.0396226415095
 30
0.0
 11
91.23305326102782
 21
125.0396226415095
 31
0.0
  0
LINE
  5
F1
  8
0
 10
91.23305326102782
 20
125.0396226415095
 30
0.0
 11
91.23305326102782
 21
120.6396226415094
 31
0.0
  0
LINE
  5
F3
  8
0
 10
47.63305326102783
 20
147.4396226415095
 30
0.0
 11
44.43305326102782
 21
147.4396226415095
 31
0.0
  0
LINE
  5
F4
  8
0
 10
44.43305326102782
 20
147.4396226415095
 30
0.0
 11
44.43305326102782
 21
144.2396226415095
 31
0.0
  0
LINE
  5
F5
  8
0
 10
44.43305326102782
 20
144.2396226415095
 30
0.0
 11
47.63305326102783
 21
144.2396226415095
 31
0.0
  0
LINE
  5
F6
  8
0
 10
47.63305326102783
 20
144.2396226415095
 30
0.0
 11
47.63305326102783
 21
141.0396226415095
 31
0.0
  0
LINE
  5
F7
  8
0
 10
47.63305326102783
 20
141.0396226415095
 30
0.0
 11
44.43305326102782
 21
141.0396226415095
 31
0.0
  0
LINE
  5
F8
  8
0
 10
44.43305326102782
 20
141.0396226415095
 30
0.0
 11
44.43305326102782
 21
140.0628033147314
 31
0.0
  0
LINE
  5
F9
  8
0
 10
44.43305326102782
 20
137.8396226415095
 30
0.0
 11
47.63305326102783
 21
137.8396226415095
 31
0.0
  0
LINE
  5
FA
  8
0
 10
47.63305326102783
 20
137.8396226415095
 30
0.0
 11
47.63305326102783
 21
134.6396226415095
 31
0.0
  0
LINE
  5
FB
  8
0
 10
47.63305326102783
 20
134.6396226415095
 30
0.0
 11
44.43305326102782
 21
134.6396226415095
 31
0.0
  0
LINE
  5
FC
  8
0
 10
44.43305326102782
 20
134.6396226415095
 30
0.0
 11
44.43305326102782
 21
131.4396226415095
 31
0.0
  0
LINE
  5
FD
  8
0
 10
44.43305326102782
 20
131.4396226415095
 30
0.0
 11
47.63305326102783
 21
131.4396226415095
 31
0.0
  0
LINE
  5
FE
  8
0
 10
47.63305326102783
 20
131.4396226415095
 30
0.0
 11
47.63305326102783
 21
131.4396226415095
 31
0.0
  0
LINE
  5
FF
  8
0
 10
47.63305326102783
 20
131.4396226415095
 30
0.0
 11
44.43305326102782
 21
131.4396226415095
 31
0.0
  0
LINE
  5
100
  8
0
 10
47.63305326102783
 20
131.4396226415095
 30
0.0
 11
47.63305326102783
 21
128.2396226415095
 31
0.0
  0
LINE
  5
101
  8
0
 10
47.63305326102783
 20
128.2396226415095
 30
0.0
 11
44.43305326102782
 21
128.2396226415095
 31
0.0
  0
LINE
  5
102
  8
0
 10
44.43305326102782
 20
128.2396226415095
 30
0.0
 11
44.43305326102782
 21
125.0396226415095
 31
0.0
  0
LINE
  5
103
  8
0
 10
44.43305326102782
 20
125.0396226415095
 30
0.0
 11
47.63305326102783
 21
125.0396226415095
 31
0.0
  0
LINE
  5
104
  8
0
 10
47.63305326102783
 20
125.0396226415095
 30
0.0
 11
47.63305326102783
 21
120.6396226415094
 31
0.0
  0
LINE
  5
105
  8
0
 10
47.63305326102783
 20
150.6396226415094
 30
0.0
 11
47.63305326102783
 21
147.4396226415095
 31
0.0
  0
LINE
  5
107
  8
0
 10
44.43305326102782
 20
150.6396226415094
 30
0.0
 11
47.63305326102783
 21
150.6396226415094
 31
0.0
  0
LINE
  5
152
  8
0
 10
161.2330532610278
 20
150.6396226415094
 30
0.0
 11
161.2330532610278
 21
147.4396226415095
 31
0.0
  0
LINE
  5
153
  8
0
 10
161.2330532610278
 20
147.4396226415095
 30
0.0
 11
158.0330532610278
 21
147.4396226415095
 31
0.0
  0
LINE
  5
154
  8
0
 10
158.0330532610278
 20
147.4396226415095
 30
0.0
 11
158.0330532610278
 21
144.2396226415095
 31
0.0
  0
LINE
  5
155
  8
0
 10
158.0330532610278
 20
144.2396226415095
 30
0.0
 11
161.2330532610278
 21
144.2396226415095
 31
0.0
  0
LINE
  5
156
  8
0
 10
161.2330532610278
 20
144.2396226415095
 30
0.0
 11
161.2330532610278
 21
141.0396226415095
 31
0.0
  0
LINE
  5
157
  8
0
 10
161.2330532610278
 20
141.0396226415095
 30
0.0
 11
158.0330532610278
 21
141.0396226415095
 31
0.0
  0
LINE
  5
158
  8
0
 10
158.0330532610278
 20
141.0396226415095
 30
0.0
 11
158.0330532610278
 21
140.0628033147314
 31
0.0
  0
LINE
  5
159
  8
0
 10
158.0330532610278
 20
137.8396226415095
 30
0.0
 11
161.2330532610278
 21
137.8396226415095
 31
0.0
  0
LINE
  5
15A
  8
0
 10
161.2330532610278
 20
137.8396226415095
 30
0.0
 11
161.2330532610278
 21
134.6396226415095
 31
0.0
  0
LINE
  5
15B
  8
0
 10
161.2330532610278
 20
134.6396226415095
 30
0.0
 11
158.0330532610278
 21
134.6396226415095
 31
0.0
  0
LINE
  5
15C
  8
0
 10
158.0330532610278
 20
134.6396226415095
 30
0.0
 11
158.0330532610278
 21
131.4396226415095
 31
0.0
  0
LINE
  5
15D
  8
0
 10
158.0330532610278
 20
131.4396226415095
 30
0.0
 11
161.2330532610278
 21
131.4396226415095
 31
0.0
  0
LINE
  5
15E
  8
0
 10
161.2330532610278
 20
131.4396226415095
 30
0.0
 11
161.2330532610278
 21
131.4396226415095
 31
0.0
  0
LINE
  5
15F
  8
0
 10
161.2330532610278
 20
131.4396226415095
 30
0.0
 11
158.0330532610278
 21
131.4396226415095
 31
0.0
  0
LINE
  5
160
  8
0
 10
161.2330532610278
 20
131.4396226415095
 30
0.0
 11
161.2330532610278
 21
128.2396226415095
 31
0.0
  0
LINE
  5
161
  8
0
 10
161.2330532610278
 20
128.2396226415095
 30
0.0
 11
158.0330532610278
 21
128.2396226415095
 31
0.0
  0
LINE
  5
162
  8
0
 10
158.0330532610278
 20
128.2396226415095
 30
0.0
 11
158.0330532610278
 21
125.0396226415095
 31
0.0
  0
LINE
  5
163
  8
0
 10
158.0330532610278
 20
125.0396226415095
 30
0.0
 11
161.2330532610278
 21
125.0396226415095
 31
0.0
  0
LINE
  5
164
  8
0
 10
161.2330532610278
 20
125.0396226415095
 30
0.0
 11
161.2330532610278
 21
120.6396226415094
 31
0.0
  0
LINE
  5
165
  8
0
 10
44.43305326102785
 20
176.3722916260558
 30
0.0
 11
114.4330532610279
 21
176.3722916260558
 31
0.0
  0
LINE
  5
166
  8
0
 10
114.4330532610279
 20
206.3722916260558
 30
0.0
 11
44.43305326102785
 21
206.3722916260558
 31
0.0
  0
LINE
  5
168
  8
0
 10
59.43305326102785
 20
183.7780224034142
 30
0.0
 11
69.43305326102785
 21
183.7780224034142
 31
0.0
  0
LINE
  5
169
  8
0
 10
69.43305326102785
 20
183.7780224034142
 30
0.0
 11
69.43305326102785
 21
193.7780224034142
 31
0.0
  0
LINE
  5
16A
  8
0
 10
59.43305326102785
 20
183.7780224034142
 30
0.0
 11
59.43305326102785
 21
193.7780224034142
 31
0.0
  0
LINE
  5
16B
  8
0
 10
99.43305326102785
 20
183.7780224034142
 30
0.0
 11
99.43305326102785
 21
193.7780224034142
 31
0.0
  0
LINE
  5
16C
  8
0
 10
99.43305326102785
 20
183.7780224034142
 30
0.0
 11
89.43305326102785
 21
183.7780224034142
 31
0.0
  0
LINE
  5
16D
  8
0
 10
89.43305326102785
 20
183.7780224034142
 30
0.0
 11
89.43305326102785
 21
193.7780224034142
 31
0.0
  0
LINE
  5
16E
  8
0
 10
89.43305326102785
 20
193.7780224034142
 30
0.0
 11
99.43305326102785
 21
193.7780224034142
 31
0.0
  0
LINE
  5
16F
  8
0
 10
44.43305326102785
 20
176.3722916260558
 30
0.0
 11
44.43305326102785
 21
179.5722916260558
 31
0.0
  0
LINE
  5
170
  8
0
 10
44.43305326102785
 20
179.5722916260558
 30
0.0
 11
47.63305326102784
 21
179.5722916260558
 31
0.0
  0
LINE
  5
171
  8
0
 10
47.63305326102784
 20
179.5722916260558
 30
0.0
 11
47.63305326102784
 21
182.7722916260558
 31
0.0
  0
LINE
  5
172
  8
0
 10
47.63305326102784
 20
182.7722916260558
 30
0.0
 11
44.43305326102785
 21
182.7722916260558
 31
0.0
  0
LINE
  5
173
  8
0
 10
44.43305326102785
 20
182.7722916260558
 30
0.0
 11
44.43305326102785
 21
185.9722916260557
 31
0.0
  0
LINE
  5
174
  8
0
 10
44.43305326102785
 20
185.9722916260557
 30
0.0
 11
47.63305326102784
 21
185.9722916260557
 31
0.0
  0
LINE
  5
175
  8
0
 10
47.63305326102784
 20
185.9722916260557
 30
0.0
 11
47.63305326102784
 21
189.1722916260557
 31
0.0
  0
LINE
  5
176
  8
0
 10
47.63305326102784
 20
189.1722916260557
 30
0.0
 11
44.43305326102785
 21
189.1722916260557
 31
0.0
  0
LINE
  5
177
  8
0
 10
44.43305326102785
 20
189.1722916260557
 30
0.0
 11
44.43305326102785
 21
189.6227720034144
 31
0.0
  0
LINE
  5
178
  8
0
 10
44.43305326102785
 20
192.3722916260557
 30
0.0
 11
47.63305326102784
 21
192.3722916260557
 31
0.0
  0
LINE
  5
179
  8
0
 10
47.63305326102784
 20
192.3722916260557
 30
0.0
 11
47.63305326102784
 21
195.5722916260557
 31
0.0
  0
LINE
  5
17A
  8
0
 10
47.63305326102784
 20
195.5722916260557
 30
0.0
 11
44.43305326102785
 21
195.5722916260557
 31
0.0
  0
LINE
  5
17B
  8
0
 10
44.43305326102785
 20
195.5722916260557
 30
0.0
 11
44.43305326102785
 21
195.5722916260557
 31
0.0
  0
LINE
  5
17C
  8
0
 10
44.43305326102785
 20
195.5722916260557
 30
0.0
 11
47.63305326102784
 21
195.5722916260557
 31
0.0
  0
LINE
  5
17D
  8
0
 10
44.43305326102785
 20
195.5722916260557
 30
0.0
 11
44.43305326102785
 21
198.7722916260557
 31
0.0
  0
LINE
  5
17E
  8
0
 10
44.43305326102785
 20
198.7722916260557
 30
0.0
 11
47.63305326102784
 21
198.7722916260557
 31
0.0
  0
LINE
  5
17F
  8
0
 10
47.63305326102784
 20
198.7722916260557
 30
0.0
 11
47.63305326102784
 21
201.9722916260557
 31
0.0
  0
LINE
  5
180
  8
0
 10
47.63305326102784
 20
201.9722916260557
 30
0.0
 11
44.43305326102785
 21
201.9722916260557
 31
0.0
  0
LINE
  5
181
  8
0
 10
44.43305326102785
 20
201.9722916260557
 30
0.0
 11
44.43305326102785
 21
206.3722916260558
 31
0.0
  0
LINE
  5
19A
  8
0
 10
163.6104128487237
 20
122.3266965317162
 30
0.0
 11
207.1657519080511
 21
122.3266965317162
 31
0.0
  0
LINE
  5
215
  8
0
 10
166.8104128487238
 20
202.3266965317162
 30
0.0
 11
207.1657519080512
 21
202.3266965317161
 31
0.0
  0
LINE
  5
216
  8
0
 10
207.1657519080511
 20
122.3266965317162
 30
0.0
 11
207.1657519080512
 21
139.7628033147314
 31
0.0
  0
LINE
  5
23E
  8
0
 10
163.6104128487237
 20
122.3266965317162
 30
0.0
 11
163.6104128487237
 21
127.3266965317162
 31
0.0
  0
LINE
  5
23F
  8
0
 10
163.6104128487237
 20
127.3266965317162
 30
0.0
 11
166.8104128487238
 21
127.3266965317162
 31
0.0
  0
LINE
  5
240
  8
0
 10
166.8104128487238
 20
127.3266965317162
 30
0.0
 11
166.8104128487238
 21
132.3266965317162
 31
0.0
  0
LINE
  5
241
  8
0
 10
166.8104128487238
 20
132.3266965317162
 30
0.0
 11
163.6104128487237
 21
132.3266965317162
 31
0.0
  0
LINE
  5
242
  8
0
 10
163.6104128487237
 20
132.3266965317162
 30
0.0
 11
163.6104128487237
 21
137.3266965317162
 31
0.0
  0
LINE
  5
243
  8
0
 10
163.6104128487237
 20
137.3266965317162
 30
0.0
 11
166.8104128487238
 21
137.3266965317162
 31
0.0
  0
LINE
  5
244
  8
0
 10
166.8104128487238
 20
137.3266965317162
 30
0.0
 11
166.8104128487238
 21
142.3266965317162
 31
0.0
  0
LINE
  5
245
  8
0
 10
166.8104128487238
 20
142.3266965317162
 30
0.0
 11
163.6104128487237
 21
142.3266965317162
 31
0.0
  0
LINE
  5
246
  8
0
 10
163.6104128487237
 20
142.3266965317162
 30
0.0
 11
163.6104128487237
 21
147.3266965317162
 31
0.0
  0
LINE
  5
247
  8
0
 10
163.6104128487237
 20
147.3266965317162
 30
0.0
 11
166.8104128487238
 21
147.3266965317162
 31
0.0
  0
LINE
  5
248
  8
0
 10
166.8104128487238
 20
147.3266965317162
 30
0.0
 11
166.8104128487238
 21
152.3266965317162
 31
0.0
  0
LINE
  5
249
  8
0
 10
166.8104128487238
 20
152.3266965317162
 30
0.0
 11
163.6104128487238
 21
152.3266965317162
 31
0.0
  0
LINE
  5
24A
  8
0
 10
163.6104128487238
 20
152.3266965317162
 30
0.0
 11
163.6104128487238
 21
157.3266965317162
 31
0.0
  0
LINE
  5
24B
  8
0
 10
163.6104128487238
 20
157.3266965317162
 30
0.0
 11
166.8104128487238
 21
157.3266965317162
 31
0.0
  0
LINE
  5
24C
  8
0
 10
166.8104128487238
 20
157.3266965317162
 30
0.0
 11
166.8104128487238
 21
162.3266965317162
 31
0.0
  0
LINE
  5
24D
  8
0
 10
166.8104128487238
 20
162.3266965317162
 30
0.0
 11
163.6104128487238
 21
162.3266965317162
 31
0.0
  0
LINE
  5
24E
  8
0
 10
163.6104128487238
 20
162.3266965317162
 30
0.0
 11
163.6104128487238
 21
167.3266965317162
 31
0.0
  0
LINE
  5
24F
  8
0
 10
163.6104128487238
 20
167.3266965317162
 30
0.0
 11
166.8104128487238
 21
167.3266965317162
 31
0.0
  0
LINE
  5
250
  8
0
 10
166.8104128487238
 20
167.3266965317162
 30
0.0
 11
166.8104128487238
 21
172.3266965317162
 31
0.0
  0
LINE
  5
251
  8
0
 10
166.8104128487238
 20
172.3266965317162
 30
0.0
 11
163.6104128487238
 21
172.3266965317162
 31
0.0
  0
LINE
  5
252
  8
0
 10
163.6104128487238
 20
172.3266965317162
 30
0.0
 11
163.6104128487238
 21
177.3266965317162
 31
0.0
  0
LINE
  5
253
  8
0
 10
163.6104128487238
 20
177.3266965317162
 30
0.0
 11
166.8104128487238
 21
177.3266965317162
 31
0.0
  0
LINE
  5
254
  8
0
 10
166.8104128487238
 20
177.3266965317162
 30
0.0
 11
166.8104128487238
 21
182.3266965317162
 31
0.0
  0
LINE
  5
255
  8
0
 10
166.8104128487238
 20
182.3266965317162
 30
0.0
 11
163.6104128487238
 21
182.3266965317162
 31
0.0
  0
LINE
  5
256
  8
0
 10
163.6104128487238
 20
182.3266965317162
 30
0.0
 11
163.6104128487238
 21
187.3266965317162
 31
0.0
  0
LINE
  5
257
  8
0
 10
163.6104128487238
 20
187.3266965317162
 30
0.0
 11
166.8104128487238
 21
187.3266965317162
 31
0.0
  0
LINE
  5
258
  8
0
 10
166.8104128487238
 20
187.3266965317162
 30
0.0
 11
166.8104128487238
 21
189.6227720034144
 31
0.0
  0
LINE
  5
259
  8
0
 10
166.8104128487238
 20
192.3266965317162
 30
0.0
 11
163.6104128487238
 21
192.3266965317162
 31
0.0
  0
LINE
  5
25A
  8
0
 10
163.6104128487238
 20
192.3266965317162
 30
0.0
 11
163.6104128487239
 21
197.3266965317162
 31
0.0
  0
LINE
  5
25B
  8
0
 10
163.6104128487239
 20
197.3266965317162
 30
0.0
 11
166.8104128487238
 21
197.3266965317162
 31
0.0
  0
LINE
  5
25C
  8
0
 10
166.8104128487238
 20
197.3266965317162
 30
0.0
 11
166.8104128487238
 21
202.3266965317162
 31
0.0
  0
LINE
  5
2A9
  8
0
 10
51.13477765529814
 20
161.8668304353737
 30
0.0
 11
58.20584546716361
 21
168.9378982472391
 31
0.0
  0
LINE
  5
2AA
  8
0
 10
51.13477765529814
 20
161.8668304353737
 30
0.0
 11
53.39751935509508
 21
159.6040887355767
 31
0.0
  0
LINE
  5
2AB
  8
0
 10
58.20584546716361
 20
168.9378982472391
 30
0.0
 11
60.46858716696056
 21
166.6751565474422
 31
0.0
  0
LINE
  5
2AC
  8
0
 10
87.73132886675751
 20
161.8668304353737
 30
0.0
 11
80.66026105489203
 21
168.9378982472391
 31
0.0
  0
LINE
  5
2AD
  8
0
 10
80.66026105489203
 20
168.9378982472391
 30
0.0
 11
78.39751935509508
 21
166.6751565474422
 31
0.0
  0
LINE
  5
2AE
  8
0
 10
87.73132886675751
 20
161.8668304353737
 30
0.0
 11
85.46858716696056
 21
159.6040887355767
 31
0.0
  0
LINE
  5
2B1
  8
0
 10
179.4880823783874
 20
127.3266965317162
 30
0.0
 11
189.4880823783874
 21
127.3266965317162
 31
0.0
  0
LINE
  5
2B2
  8
0
 10
189.4880823783874
 20
127.3266965317162
 30
0.0
 11
189.4880823783874
 21
130.5266965317162
 31
0.0
  0
LINE
  5
2B3
  8
0
 10
189.4880823783874
 20
130.5266965317162
 30
0.0
 11
179.4880823783874
 21
130.5266965317162
 31
0.0
  0
LINE
  5
2B4
  8
0
 10
179.4880823783874
 20
130.5266965317162
 30
0.0
 11
179.4880823783874
 21
127.3266965317162
 31
0.0
  0
LINE
  5
2B5
  8
0
 10
179.4880823783876
 20
197.3266965317161
 30
0.0
 11
189.4880823783876
 21
197.3266965317161
 31
0.0
  0
LINE
  5
2B6
  8
0
 10
189.4880823783876
 20
197.3266965317161
 30
0.0
 11
189.4880823783876
 21
194.1266965317161
 31
0.0
  0
LINE
  5
2B7
  8
0
 10
189.4880823783876
 20
194.1266965317161
 30
0.0
 11
179.4880823783876
 21
194.1266965317161
 31
0.0
  0
LINE
  5
2B8
  8
0
 10
179.4880823783876
 20
194.1266965317161
 30
0.0
 11
179.4880823783876
 21
197.3266965317161
 31
0.0
  0
LINE
  5
2B9
  8
0
 10
85.46858716696056
 20
159.6040887355767
 30
0.0
 11
94.43305326102782
 21
150.6396226415094
 31
0.0
  0
LINE
  5
2BA
  8
0
 10
60.46858716696056
 20
166.6751565474422
 30
0.0
 11
69.43305326102782
 21
175.6396226415094
 31
0.0
  0
LINE
  5
2BB
  8
0
 10
69.43305326102785
 20
193.7780224034142
 30
0.0
 11
59.43305326102785
 21
193.7780224034142
 31
0.0
  0
LINE
  5
30A
  8
0
 10
42.72387760344095
 20
202.8689321543576
 30
0.0
 11
-0.8314614558864122
 21
202.8689321543577
 31
0.0
  0
LINE
  5
30B
  8
0
 10
39.52387760344085
 20
122.8689321543577
 30
0.0
 11
-0.8314614558865827
 21
122.8689321543578
 31
0.0
  0
LINE
  5
30C
  8
0
 10
-0.8314614558864122
 20
202.8689321543577
 30
0.0
 11
-0.8314614558864398
 21
189.9227720034144
 31
0.0
  0
LINE
  5
30D
  8
0
 10
42.72387760344095
 20
202.8689321543576
 30
0.0
 11
42.72387760344095
 21
197.8689321543576
 31
0.0
  0
LINE
  5
30E
  8
0
 10
42.72387760344095
 20
197.8689321543576
 30
0.0
 11
39.52387760344091
 21
197.8689321543576
 31
0.0
  0
LINE
  5
30F
  8
0
 10
39.52387760344091
 20
197.8689321543576
 30
0.0
 11
39.52387760344091
 21
192.8689321543576
 31
0.0
  0
LINE
  5
310
  8
0
 10
39.52387760344091
 20
192.8689321543576
 30
0.0
 11
42.72387760344095
 21
192.8689321543576
 31
0.0
  0
LINE
  5
311
  8
0
 10
42.72387760344095
 20
192.8689321543576
 30
0.0
 11
42.72387760344095
 21
189.9227720034144
 31
0.0
  0
LINE
  5
312
  8
0
 10
42.72387760344095
 20
187.8689321543577
 30
0.0
 11
39.52387760344091
 21
187.8689321543577
 31
0.0
  0
LINE
  5
313
  8
0
 10
39.52387760344091
 20
187.8689321543577
 30
0.0
 11
39.52387760344091
 21
182.8689321543577
 31
0.0
  0
LINE
  5
314
  8
0
 10
39.52387760344091
 20
182.8689321543577
 30
0.0
 11
42.72387760344095
 21
182.8689321543577
 31
0.0
  0
LINE
  5
315
  8
0
 10
42.72387760344095
 20
182.8689321543577
 30
0.0
 11
42.72387760344095
 21
177.8689321543577
 31
0.0
  0
LINE
  5
316
  8
0
 10
42.72387760344095
 20
177.8689321543577
 30
0.0
 11
39.52387760344091
 21
177.8689321543577
 31
0.0
  0
LINE
  5
317
  8
0
 10
39.52387760344091
 20
177.8689321543577
 30
0.0
 11
39.52387760344091
 21
172.8689321543577
 31
0.0
  0
LINE
  5
318
  8
0
 10
39.52387760344091
 20
172.8689321543577
 30
0.0
 11
42.72387760344084
 21
172.8689321543577
 31
0.0
  0
LINE
  5
319
  8
0
 10
42.72387760344084
 20
172.8689321543577
 30
0.0
 11
42.72387760344084
 21
167.8689321543577
 31
0.0
  0
LINE
  5
31A
  8
0
 10
42.72387760344084
 20
167.8689321543577
 30
0.0
 11
39.52387760344091
 21
167.8689321543577
 31
0.0
  0
LINE
  5
31B
  8
0
 10
39.52387760344091
 20
167.8689321543577
 30
0.0
 11
39.52387760344091
 21
162.8689321543577
 31
0.0
  0
LINE
  5
31C
  8
0
 10
39.52387760344091
 20
162.8689321543577
 30
0.0
 11
42.72387760344084
 21
162.8689321543577
 31
0.0
  0
LINE
  5
31D
  8
0
 10
42.72387760344084
 20
162.8689321543577
 30
0.0
 11
42.72387760344084
 21
157.8689321543577
 31
0.0
  0
LINE
  5
31E
  8
0
 10
42.72387760344084
 20
157.8689321543577
 30
0.0
 11
39.52387760344091
 21
157.8689321543577
 31
0.0
  0
LINE
  5
31F
  8
0
 10
39.52387760344091
 20
157.8689321543577
 30
0.0
 11
39.52387760344091
 21
152.8689321543577
 31
0.0
  0
LINE
  5
320
  8
0
 10
39.52387760344091
 20
152.8689321543577
 30
0.0
 11
42.72387760344084
 21
152.8689321543576
 31
0.0
  0
LINE
  5
321
  8
0
 10
42.72387760344084
 20
152.8689321543576
 30
0.0
 11
42.72387760344084
 21
147.8689321543577
 31
0.0
  0
LINE
  5
322
  8
0
 10
42.72387760344084
 20
147.8689321543577
 30
0.0
 11
39.52387760344091
 21
147.8689321543577
 31
0.0
  0
LINE
  5
323
  8
0
 10
39.52387760344091
 20
147.8689321543577
 30
0.0
 11
39.52387760344085
 21
142.8689321543577
 31
0.0
  0
LINE
  5
324
  8
0
 10
39.52387760344085
 20
142.8689321543577
 30
0.0
 11
42.72387760344084
 21
142.8689321543576
 31
0.0
  0
LINE
  5
325
  8
0
 10
42.72387760344084
 20
142.8689321543576
 30
0.0
 11
42.72387760344084
 21
140.0628033147314
 31
0.0
  0
LINE
  5
326
  8
0
 10
42.72387760344084
 20
137.8689321543576
 30
0.0
 11
39.52387760344085
 21
137.8689321543577
 31
0.0
  0
LINE
  5
327
  8
0
 10
39.52387760344085
 20
137.8689321543577
 30
0.0
 11
39.52387760344085
 21
132.8689321543576
 31
0.0
  0
LINE
  5
328
  8
0
 10
39.52387760344085
 20
132.8689321543576
 30
0.0
 11
42.72387760344084
 21
132.8689321543576
 31
0.0
  0
LINE
  5
329
  8
0
 10
42.72387760344084
 20
132.8689321543576
 30
0.0
 11
42.72387760344078
 21
127.8689321543577
 31
0.0
  0
LINE
  5
32A
  8
0
 10
42.72387760344078
 20
127.8689321543577
 30
0.0
 11
39.52387760344085
 21
127.8689321543577
 31
0.0
  0
LINE
  5
32B
  8
0
 10
39.52387760344085
 20
127.8689321543577
 30
0.0
 11
39.52387760344085
 21
122.8689321543577
 31
0.0
  0
LINE
  5
32C
  8
0
 10
26.84620807377725
 20
197.8689321543577
 30
0.0
 11
16.84620807377725
 21
197.8689321543577
 31
0.0
  0
LINE
  5
32D
  8
0
 10
16.84620807377725
 20
197.8689321543577
 30
0.0
 11
16.84620807377725
 21
194.6689321543576
 31
0.0
  0
LINE
  5
32E
  8
0
 10
16.84620807377725
 20
194.6689321543576
 30
0.0
 11
26.84620807377725
 21
194.6689321543576
 31
0.0
  0
LINE
  5
32F
  8
0
 10
26.84620807377725
 20
194.6689321543576
 30
0.0
 11
26.84620807377725
 21
197.8689321543577
 31
0.0
  0
LINE
  5
330
  8
0
 10
26.84620807377708
 20
127.8689321543577
 30
0.0
 11
16.84620807377708
 21
127.8689321543577
 31
0.0
  0
LINE
  5
331
  8
0
 10
16.84620807377708
 20
127.8689321543577
 30
0.0
 11
16.84620807377708
 21
131.0689321543578
 31
0.0
  0
LINE
  5
332
  8
0
 10
16.84620807377708
 20
131.0689321543578
 30
0.0
 11
26.84620807377708
 21
131.0689321543577
 31
0.0
  0
LINE
  5
333
  8
0
 10
26.84620807377708
 20
131.0689321543577
 30
0.0
 11
26.84620807377708
 21
127.8689321543577
 31
0.0
  0
LINE
  5
38F
  8
0
 10
158.0330532610278
 20
206.3722916260558
 30
0.0
 11
114.4330532610278
 21
206.3722916260558
 31
0.0
  0
LINE
  5
390
  8
0
 10
152.2685871669606
 20
167.4078255319885
 30
0.0
 11
161.2330532610278
 21
176.3722916260558
 31
0.0
  0
LINE
  5
391
  8
0
 10
127.2685871669606
 20
160.336757720123
 30
0.0
 11
136.2330532610278
 21
151.3722916260558
 31
0.0
  0
LINE
  5
392
  8
0
 10
141.2330532610278
 20
183.7780224034142
 30
0.0
 11
131.2330532610278
 21
183.7780224034142
 31
0.0
  0
LINE
  5
393
  8
0
 10
131.2330532610278
 20
183.7780224034142
 30
0.0
 11
131.2330532610278
 21
193.7780224034142
 31
0.0
  0
LINE
  5
394
  8
0
 10
131.2330532610278
 20
193.7780224034142
 30
0.0
 11
141.2330532610278
 21
193.7780224034142
 31
0.0
  0
LINE
  5
395
  8
0
 10
141.2330532610278
 20
193.7780224034142
 30
0.0
 11
141.2330532610278
 21
183.7780224034142
 31
0.0
  0
LINE
  5
397
  8
0
 10
114.4330532610278
 20
176.3722916260558
 30
0.0
 11
114.4330532610278
 21
179.5722916260557
 31
0.0
  0
LINE
  5
398
  8
0
 10
114.4330532610278
 20
179.5722916260557
 30
0.0
 11
111.2330532610278
 21
179.5722916260557
 31
0.0
  0
LINE
  5
399
  8
0
 10
111.2330532610278
 20
179.5722916260557
 30
0.0
 11
111.2330532610278
 21
182.7722916260557
 31
0.0
  0
LINE
  5
39A
  8
0
 10
111.2330532610278
 20
182.7722916260557
 30
0.0
 11
114.4330532610278
 21
182.7722916260557
 31
0.0
  0
LINE
  5
39B
  8
0
 10
114.4330532610278
 20
182.7722916260557
 30
0.0
 11
114.4330532610278
 21
185.9722916260557
 31
0.0
  0
LINE
  5
39C
  8
0
 10
114.4330532610278
 20
185.9722916260557
 30
0.0
 11
111.2330532610278
 21
185.9722916260557
 31
0.0
  0
LINE
  5
39D
  8
0
 10
111.2330532610278
 20
185.9722916260557
 30
0.0
 11
111.2330532610278
 21
189.1722916260557
 31
0.0
  0
LINE
  5
39E
  8
0
 10
111.2330532610278
 20
189.1722916260557
 30
0.0
 11
114.4330532610278
 21
189.1722916260557
 31
0.0
  0
LINE
  5
39F
  8
0
 10
114.4330532610278
 20
189.1722916260557
 30
0.0
 11
114.4330532610278
 21
189.6227720034144
 31
0.0
  0
LINE
  5
3A0
  8
0
 10
114.4330532610278
 20
192.3722916260557
 30
0.0
 11
111.2330532610278
 21
192.3722916260557
 31
0.0
  0
LINE
  5
3A1
  8
0
 10
111.2330532610278
 20
192.3722916260557
 30
0.0
 11
111.2330532610278
 21
195.5722916260557
 31
0.0
  0
LINE
  5
3A2
  8
0
 10
111.2330532610278
 20
195.5722916260557
 30
0.0
 11
114.4330532610278
 21
195.5722916260557
 31
0.0
  0
LINE
  5
3A3
  8
0
 10
114.4330532610278
 20
195.5722916260557
 30
0.0
 11
114.4330532610278
 21
195.5722916260557
 31
0.0
  0
LINE
  5
3A4
  8
0
 10
114.4330532610278
 20
195.5722916260557
 30
0.0
 11
111.2330532610278
 21
195.5722916260557
 31
0.0
  0
LINE
  5
3A5
  8
0
 10
114.4330532610278
 20
195.5722916260557
 30
0.0
 11
114.4330532610278
 21
198.7722916260557
 31
0.0
  0
LINE
  5
3A6
  8
0
 10
114.4330532610278
 20
198.7722916260557
 30
0.0
 11
111.2330532610278
 21
198.7722916260557
 31
0.0
  0
LINE
  5
3A7
  8
0
 10
111.2330532610278
 20
198.7722916260557
 30
0.0
 11
111.2330532610278
 21
201.9722916260557
 31
0.0
  0
LINE
  5
3A8
  8
0
 10
111.2330532610278
 20
201.9722916260557
 30
0.0
 11
114.4330532610278
 21
201.9722916260557
 31
0.0
  0
LINE
  5
3A9
  8
0
 10
114.4330532610278
 20
201.9722916260557
 30
0.0
 11
114.4330532610278
 21
206.3722916260558
 31
0.0
  0
LINE
  5
3AA
  8
0
 10
158.0330532610278
 20
179.5722916260557
 30
0.0
 11
161.2330532610278
 21
179.5722916260557
 31
0.0
  0
LINE
  5
3AB
  8
0
 10
161.2330532610278
 20
179.5722916260557
 30
0.0
 11
161.2330532610278
 21
182.7722916260557
 31
0.0
  0
LINE
  5
3AC
  8
0
 10
161.2330532610278
 20
182.7722916260557
 30
0.0
 11
158.0330532610278
 21
182.7722916260557
 31
0.0
  0
LINE
  5
3AD
  8
0
 10
158.0330532610278
 20
182.7722916260557
 30
0.0
 11
158.0330532610278
 21
185.9722916260557
 31
0.0
  0
LINE
  5
3AE
  8
0
 10
158.0330532610278
 20
185.9722916260557
 30
0.0
 11
161.2330532610278
 21
185.9722916260557
 31
0.0
  0
LINE
  5
3AF
  8
0
 10
161.2330532610278
 20
185.9722916260557
 30
0.0
 11
161.2330532610278
 21
189.1722916260557
 31
0.0
  0
LINE
  5
3B0
  8
0
 10
161.2330532610278
 20
189.1722916260557
 30
0.0
 11
158.0330532610278
 21
189.1722916260557
 31
0.0
  0
LINE
  5
3B1
  8
0
 10
158.0330532610278
 20
189.1722916260557
 30
0.0
 11
158.0330532610278
 21
189.6227720034144
 31
0.0
  0
LINE
  5
3B2
  8
0
 10
158.0330532610278
 20
192.3722916260557
 30
0.0
 11
161.2330532610278
 21
192.3722916260557
 31
0.0
  0
LINE
  5
3B3
  8
0
 10
161.2330532610278
 20
192.3722916260557
 30
0.0
 11
161.2330532610278
 21
195.5722916260557
 31
0.0
  0
LINE
  5
3B4
  8
0
 10
161.2330532610278
 20
195.5722916260557
 30
0.0
 11
158.0330532610278
 21
195.5722916260557
 31
0.0
  0
LINE
  5
3B5
  8
0
 10
158.0330532610278
 20
195.5722916260557
 30
0.0
 11
158.0330532610278
 21
195.5722916260557
 31
0.0
  0
LINE
  5
3B6
  8
0
 10
158.0330532610278
 20
195.5722916260557
 30
0.0
 11
161.2330532610278
 21
195.5722916260557
 31
0.0
  0
LINE
  5
3B7
  8
0
 10
158.0330532610278
 20
195.5722916260557
 30
0.0
 11
158.0330532610278
 21
198.7722916260557
 31
0.0
  0
LINE
  5
3B8
  8
0
 10
158.0330532610278
 20
198.7722916260557
 30
0.0
 11
161.2330532610278
 21
198.7722916260557
 31
0.0
  0
LINE
  5
3B9
  8
0
 10
161.2330532610278
 20
198.7722916260557
 30
0.0
 11
161.2330532610278
 21
201.9722916260557
 31
0.0
  0
LINE
  5
3BA
  8
0
 10
161.2330532610278
 20
201.9722916260557
 30
0.0
 11
158.0330532610278
 21
201.9722916260557
 31
0.0
  0
LINE
  5
3BB
  8
0
 10
158.0330532610278
 20
201.9722916260557
 30
0.0
 11
158.0330532610278
 21
206.3722916260558
 31
0.0
  0
LINE
  5
3BC
  8
0
 10
158.0330532610278
 20
176.3722916260558
 30
0.0
 11
158.0330532610278
 21
179.5722916260557
 31
0.0
  0
LINE
  5
3BD
  8
0
 10
161.2330532610278
 20
176.3722916260558
 30
0.0
 11
158.0330532610278
 21
176.3722916260558
 31
0.0
  0
LINE
  5
3BE
  8
0
 10
154.5313288667575
 20
165.1450838321915
 30
0.0
 11
147.460261054892
 21
158.0740160203261
 31
0.0
  0
LINE
  5
3BF
  8
0
 10
154.5313288667575
 20
165.1450838321915
 30
0.0
 11
152.2685871669606
 21
167.4078255319885
 31
0.0
  0
LINE
  5
3C0
  8
0
 10
147.460261054892
 20
158.0740160203261
 30
0.0
 11
145.1975193550951
 21
160.336757720123
 31
0.0
  0
LINE
  5
3C1
  8
0
 10
117.9347776552981
 20
165.1450838321915
 30
0.0
 11
125.0058454671636
 21
158.0740160203261
 31
0.0
  0
LINE
  5
3C2
  8
0
 10
125.0058454671636
 20
158.0740160203261
 30
0.0
 11
127.2685871669606
 21
160.336757720123
 31
0.0
  0
LINE
  5
3C3
  8
0
 10
117.9347776552981
 20
165.1450838321915
 30
0.0
 11
120.1975193550951
 21
167.4078255319885
 31
0.0
  0
LINE
  5
3C4
  8
0
 10
120.1975193550951
 20
167.4078255319885
 30
0.0
 11
111.2330532610278
 21
176.3722916260558
 31
0.0
  0
LINE
  5
3C5
  8
0
 10
145.1975193550951
 20
160.336757720123
 30
0.0
 11
136.2330532610278
 21
151.3722916260558
 31
0.0
  0
LINE
  5
3CE
  8
0
 10
42.72387760344095
 20
189.6227720034144
 30
0.0
 11
42.72387760344095
 21
187.8689321543577
 31
0.0
  0
LINE
  5
3CF
  8
0
 10
44.43305326102785
 20
189.9227720034144
 30
0.0
 11
44.43305326102785
 21
192.3722916260557
 31
0.0
  0
LINE
  5
3D0
  8
0
 10
-0.8314614558864404
 20
189.6227720034144
 30
0.0
 11
-0.8314614558865827
 21
122.8689321543578
 31
0.0
  0
LINE
  5
3D1
  8
0
 10
114.4330532610278
 20
189.9227720034144
 30
0.0
 11
114.4330532610278
 21
192.3722916260557
 31
0.0
  0
LINE
  5
3D2
  8
0
 10
158.0330532610278
 20
189.9227720034144
 30
0.0
 11
158.0330532610278
 21
192.3722916260557
 31
0.0
  0
LINE
  5
3D3
  8
0
 10
166.8104128487238
 20
189.9227720034144
 30
0.0
 11
166.8104128487238
 21
192.3266965317162
 31
0.0
  0
LINE
  5
3D4
  8
0
 10
207.1657519080512
 20
189.9227720034144
 30
0.0
 11
207.1657519080512
 21
202.3266965317161
 31
0.0
  0
LINE
  5
3D5
  8
0
 10
44.43305326102782
 20
139.7628033147314
 30
0.0
 11
44.43305326102782
 21
137.8396226415095
 31
0.0
  0
LINE
  5
3D6
  8
0
 10
94.43305326102782
 20
139.7628033147314
 30
0.0
 11
94.43305326102782
 21
137.8396226415095
 31
0.0
  0
LINE
  5
3D7
  8
0
 10
158.0330532610278
 20
139.7628033147314
 30
0.0
 11
158.0330532610278
 21
137.8396226415095
 31
0.0
  0
LINE
  5
3D8
  8
0
 10
116.2330532610278
 20
139.7628033147314
 30
0.0
 11
116.2330532610278
 21
120.6396226415094
 31
0.0
  0
LINE
  5
3D9
  8
0
 10
106.2330532610278
 20
139.7628033147314
 30
0.0
 11
106.2330532610278
 21
120.6396226415094
 31
0.0
  0
LINE
  5
3DA
  8
0
 10
207.1657519080512
 20
140.0628033147314
 30
0.0
 11
207.1657519080512
 21
189.6227720034144
 31
0.0
  0
LINE
  5
3DB
  8
0
 10
42.72387760344084
 20
139.7628033147314
 30
0.0
 11
42.72387760344084
 21
137.8689321543576
 31
0.0
  0
LINE
  5
3DE
  8
0
 10
-2.771641589432861
 20
208.3643331010527
 30
0.0
 11
208.9860907692907
 21
208.3643331010527
 31
0.0
  0
LINE
  5
3DF
  8
0
 10
208.9860907692907
 20
208.3643331010527
 30
0.0
 11
208.9860907692907
 21
119.2604931735056
 31
0.0
  0
LINE
  5
3E0
  8
0
 10
208.9860907692907
 20
119.2604931735056
 30
0.0
 11
-2.771641589432875
 21
119.2604931735056
 31
0.0
  0
LINE
  5
3E1
  8
0
 10
-2.771641589432861
 20
208.3643331010527
 30
0.0
 11
-2.771641589432875
 21
119.2604931735056
 31
0.0
  0
POLYLINE
  5
448
  8
0
 66
     1
 10
0.0
 20
0.0
 30
0.0
 70
     1
  0
VERTEX
  5
7ED
  8
0
 10
-262.2145696053818
 20
19.90322435548404
 30
0.0
  0
VERTEX
  5
7EE
  8
0
 10
-262.2145696053818
 20
49.48263816457037
 30
0.0
  0
VERTEX
  5
7EF
  8
0
 10
-240.4145688638171
 20
66.25187051971008
 30
0.0
  0
VERTEX
  5
7F0
  8
0
 10
-218.6145696053817
 20
49.48263816457037
 30
0.0
  0
VERTEX
  5
7F1
  8
0
 10
-218.6145696053818
 20
19.90322435548404
 30
0.0
  0
SEQEND
  5
9C7
  8
0
  0
POLYLINE
  5
4E1
  8
NEW
 66
     1
 10
0.0
 20
0.0
 30
0.0
 70
     1
  0
VERTEX
  5
7F2
  8
NEW
 10
-256.2145696053818
 20
25.90322435548404
 30
0.0
  0
VERTEX
  5
7F3
  8
NEW
 10
-256.2145696053818
 20
46.52822928894861
 30
0.0
  0
VERTEX
  5
7F4
  8
NEW
 10
-240.4145689882594
 20
58.6820766534905
 30
0.0
  0
VERTEX
  5
7F5
  8
NEW
 10
-224.6145696053817
 20
46.52822941149961
 30
0.0
  0
VERTEX
  5
7F6
  8
NEW
 10
-224.6145696053818
 20
25.90322435548404
 30
0.0
  0
SEQEND
  5
9C8
  8
NEW
  0
POLYLINE
  5
4E2
  8
0
 66
     1
 10
0.0
 20
0.0
 30
0.0
 70
     1
  0
VERTEX
  5
7F7
  8
0
 10
-265.4145696053818
 20
19.90322435548404
 30
0.0
  0
VERTEX
  5
7F8
  8
0
 10
-265.4145696053818
 20
51.05832289823533
 30
0.0
  0
VERTEX
  5
7F9
  8
0
 10
-240.4145687974479
 20
70.28909391502717
 30
0.0
  0
VERTEX
  5
7FA
  8
0
 10
-215.4145696053818
 20
51.05832283287478
 30
0.0
  0
VERTEX
  5
7FB
  8
0
 10
-215.4145696053818
 20
19.90322435548404
 30
0.0
  0
SEQEND
  5
9C9
  8
0
  0
LINE
  5
4F6
  8
0
 10
-212.1201171321392
 20
19.90322435548404
 30
0.0
 11
-272.2473305469775
 21
19.90322435548406
 31
0.0
  0
LINE
  5
506
  8
0
 10
-265.4145696053818
 20
51.05832289823533
 30
0.0
 11
-240.4145687974479
 21
70.28909391502717
 31
0.0
  0
LINE
  5
507
  8
0
 10
-263.4634950964354
 20
48.5219261901986
 30
0.0
 11
-238.4634942885016
 21
67.75269720699043
 31
0.0
  0
LINE
  5
508
  8
0
 10
-263.4634950964354
 20
48.5219261901986
 30
0.0
 11
-265.4145696053818
 21
51.05832289823533
 31
0.0
  0
LINE
  5
509
  8
0
 10
-240.4145687974479
 20
70.28909391502717
 30
0.0
 11
-238.4634942885016
 21
67.75269720699043
 31
0.0
  0
LINE
  5
50A
  8
0
 10
-215.4145696053818
 20
51.05832283287478
 30
0.0
 11
-240.4145687974479
 21
70.28909391502717
 31
0.0
  0
LINE
  5
50B
  8
0
 10
-217.3656441977214
 20
48.5219261889867
 30
0.0
 11
-242.3656433897876
 21
67.75269727113908
 31
0.0
  0
LINE
  5
50C
  8
0
 10
-217.3656441977214
 20
48.5219261889867
 30
0.0
 11
-215.4145696053818
 21
51.05832283287478
 31
0.0
  0
LINE
  5
511
  8
0
 10
-242.3656433897876
 20
67.75269727113908
 30
0.0
 11
-240.4145687974479
 21
70.28909391502717
 31
0.0
  0
LINE
  5
512
  8
0
 10
-265.4145696053818
 20
51.05832289823533
 30
0.0
 11
-262.2145696053818
 21
51.05832289823533
 31
0.0
  0
LINE
  5
513
  8
0
 10
-262.2145696053818
 20
19.90322435548404
 30
0.0
 11
-262.2145696053818
 21
51.05832289823533
 31
0.0
  0
LINE
  5
514
  8
0
 10
-218.6145696053817
 20
51.05832283287478
 30
0.0
 11
-215.4145696053818
 21
51.05832283287478
 31
0.0
  0
LINE
  5
515
  8
0
 10
-218.6145696053817
 20
51.05832283287478
 30
0.0
 11
-218.6145696053818
 21
19.90322435548404
 31
0.0
  0
LINE
  5
518
  8
0
 10
-272.566587456711
 20
46.5219261901986
 30
0.0
 11
-205.0161349117589
 21
46.5219261901986
 31
0.0
  0
LINE
  5
51C
  8
0
 10
-272.2473305469775
 20
37.64902557862709
 30
0.0
 11
-202.8487319688361
 21
37.64902557862709
 31
0.0
  0
LINE
  5
51D
  8
0
 10
-272.2473305469775
 20
28.77612496705557
 30
0.0
 11
-203.607322998859
 21
28.77612496705557
 31
0.0
  0
POLYLINE
  5
52B
  8
NEW
 66
     1
 10
0.0
 20
0.0
 30
0.0
 70
     1
  0
VERTEX
  5
7FC
  8
NEW
 10
-265.4145696053818
 20
19.90322435548404
 30
0.0
  0
VERTEX
  5
7FD
  8
NEW
 10
-215.4145696053818
 20
19.90322435548404
 30
0.0
  0
VERTEX
  5
7FE
  8
NEW
 10
-215.4145696053818
 20
28.77612496705557
 30
0.0
  0
VERTEX
  5
7FF
  8
NEW
 10
-218.6145696053818
 20
28.77612496705557
 30
0.0
  0
VERTEX
  5
800
  8
NEW
 10
-218.6145696053818
 20
37.64902557862709
 30
0.0
  0
VERTEX
  5
801
  8
NEW
 10
-215.4145696053818
 20
37.64902557862709
 30
0.0
  0
VERTEX
  5
802
  8
NEW
 10
-215.4145696053818
 20
46.5219261901986
 30
0.0
  0
VERTEX
  5
803
  8
NEW
 10
-218.6145696053817
 20
46.5219261901986
 30
0.0
  0
VERTEX
  5
804
  8
NEW
 10
-218.6145696053817
 20
49.48263816457037
 30
0.0
  0
VERTEX
  5
805
  8
NEW
 10
-221.9124487949583
 20
52.01946863660766
 30
0.0
  0
VERTEX
  5
806
  8
NEW
 10
-219.9613742860119
 20
54.55586534464439
 30
0.0
  0
VERTEX
  5
807
  8
NEW
 10
-225.1164617054125
 20
58.52131771563634
 30
0.0
  0
VERTEX
  5
808
  8
NEW
 10
-227.0675362143589
 20
55.98492100759964
 30
0.0
  0
VERTEX
  5
809
  8
NEW
 10
-232.2226236337594
 20
59.95037337859159
 30
0.0
  0
VERTEX
  5
80A
  8
NEW
 10
-230.2715491248131
 20
62.48677008662833
 30
0.0
  0
VERTEX
  5
80B
  8
NEW
 10
-235.4266365442135
 20
66.45222245762022
 30
0.0
  0
VERTEX
  5
80C
  8
NEW
 10
-237.3777110531599
 20
63.91582574958352
 30
0.0
  0
VERTEX
  5
80D
  8
NEW
 10
-240.4145688638171
 20
66.25187051971008
 30
0.0
  0
VERTEX
  5
80E
  8
NEW
 10
-243.4514269076426
 20
63.91582572915246
 30
0.0
  0
VERTEX
  5
80F
  8
NEW
 10
-245.402501416589
 20
66.45222243718919
 30
0.0
  0
VERTEX
  5
810
  8
NEW
 10
-250.5575889663681
 20
62.48677023568945
 30
0.0
  0
VERTEX
  5
811
  8
NEW
 10
-248.6065144574217
 20
59.95037352765274
 30
0.0
  0
VERTEX
  5
812
  8
NEW
 10
-253.7616020072008
 20
55.98492132615294
 30
0.0
  0
VERTEX
  5
813
  8
NEW
 10
-255.7126765161473
 20
58.52131803418965
 30
0.0
  0
VERTEX
  5
814
  8
NEW
 10
-260.8677640659265
 20
54.55586583268985
 30
0.0
  0
VERTEX
  5
815
  8
NEW
 10
-258.91668955698
 20
52.01946912465311
 30
0.0
  0
VERTEX
  5
816
  8
NEW
 10
-262.2145696053818
 20
49.48263816457037
 30
0.0
  0
VERTEX
  5
817
  8
NEW
 10
-262.2145696053818
 20
46.5219261901986
 30
0.0
  0
VERTEX
  5
818
  8
NEW
 10
-265.4145696053818
 20
46.5219261901986
 30
0.0
  0
VERTEX
  5
819
  8
NEW
 10
-265.4145696053818
 20
37.64902557862709
 30
0.0
  0
VERTEX
  5
81A
  8
NEW
 10
-262.2145696053818
 20
37.64902557862709
 30
0.0
  0
VERTEX
  5
81B
  8
NEW
 10
-262.2145696053818
 20
28.77612496705557
 30
0.0
  0
VERTEX
  5
81C
  8
NEW
 10
-265.4145696053818
 20
28.77612496705557
 30
0.0
  0
SEQEND
  5
9CA
  8
NEW
  0
LINE
  5
53B
  8
0
 10
-212.7476480154573
 20
62.62029758859208
 30
0.0
 11
-212.7476480154573
 21
9.687937658767083
 31
0.0
  0
LINE
  5
55B
  8
0
 10
-107.7476480154573
 20
59.40305884519111
 30
0.0
 11
-107.7476480154573
 21
9.687937658767083
 31
0.0
  0
LINE
  5
55C
  8
0
 10
-212.1201171321392
 20
19.90322435548404
 30
0.0
 11
-73.03872843305038
 21
19.90322435548404
 31
0.0
  0
LINE
  5
55D
  8
0
 10
-215.4145696053818
 20
51.05832283287478
 30
0.0
 11
-61.186905316919
 21
51.05832283287478
 31
0.0
  0
LINE
  5
55E
  8
0
 10
-206.3476480154573
 20
54.71581529905691
 30
0.0
 11
-206.3476480154573
 21
9.687937658767083
 31
0.0
  0
LINE
  5
55F
  8
0
 10
-203.1476480154573
 20
54.71581529905691
 30
0.0
 11
-203.1476480154573
 21
9.687937658767083
 31
0.0
  0
LINE
  5
560
  8
0
 10
-114.1476480154573
 20
54.71581529905691
 30
0.0
 11
-114.1476480154573
 21
9.687937658767083
 31
0.0
  0
LINE
  5
561
  8
0
 10
-117.3476480154573
 20
54.71581529905691
 30
0.0
 11
-117.3476480154573
 21
9.687937658767083
 31
0.0
  0
LINE
  5
562
  8
0
 10
-205.0161349117589
 20
46.5219261901986
 30
0.0
 11
-51.76311596617444
 21
46.5219261901986
 31
0.0
  0
LINE
  5
563
  8
0
 10
-202.8487319688361
 20
37.64902557862709
 30
0.0
 11
-49.59571302325168
 21
37.64902557862709
 31
0.0
  0
LINE
  5
564
  8
0
 10
-203.607322998859
 20
28.77612496705557
 30
0.0
 11
-50.35430405327463
 21
28.77612496705557
 31
0.0
  0
LINE
  5
569
  8
0
 10
-161.8476480154573
 20
9.687937658767083
 30
0.0
 11
-161.8476480154573
 21
56.06571549964823
 31
0.0
  0
LINE
  5
56A
  8
0
 10
-158.6476480154573
 20
9.687937658767083
 30
0.0
 11
-158.6476480154573
 21
56.06571549964823
 31
0.0
  0
LINE
  5
56B
  8
0
 10
-219.8727519924627
 20
48.5219261889867
 30
0.0
 11
-66.33082542035265
 21
48.5219261889867
 31
0.0
  0
LINE
  5
576
  8
0
 10
-128.7476480154573
 20
59.40305884519111
 30
0.0
 11
-128.7476480154573
 21
9.687937658767083
 31
0.0
  0
LINE
  5
577
  8
0
 10
-149.7476480154573
 20
59.40305884519111
 30
0.0
 11
-149.7476480154573
 21
9.687937658767083
 31
0.0
  0
LINE
  5
578
  8
0
 10
-170.7476480154573
 20
59.40305884519111
 30
0.0
 11
-170.7476480154573
 21
9.687937658767083
 31
0.0
  0
LINE
  5
579
  8
0
 10
-191.7476480154573
 20
59.40305884519111
 30
0.0
 11
-191.7476480154573
 21
9.687937658767083
 31
0.0
  0
POLYLINE
  5
57C
  8
NEW
 66
     1
 10
0.0
 20
0.0
 30
0.0
 70
     1
  0
VERTEX
  5
81D
  8
NEW
 10
-170.7476480154573
 20
42.08547588441283
 30
0.0
  0
VERTEX
  5
81E
  8
NEW
 10
-179.6476480154573
 20
42.08547588441283
 30
0.0
  0
VERTEX
  5
81F
  8
NEW
 10
-179.6476480154573
 20
19.90322435548404
 30
0.0
  0
VERTEX
  5
820
  8
NEW
 10
-182.8476480154573
 20
19.90322435548404
 30
0.0
  0
VERTEX
  5
821
  8
NEW
 10
-182.8476480154573
 20
42.08547588441283
 30
0.0
  0
VERTEX
  5
822
  8
NEW
 10
-191.7476480154573
 20
42.08547588441283
 30
0.0
  0
VERTEX
  5
823
  8
NEW
 10
-191.7476480154572
 20
19.90322435548404
 30
0.0
  0
VERTEX
  5
824
  8
NEW
 10
-203.1476480154573
 20
19.90322435548404
 30
0.0
  0
VERTEX
  5
825
  8
NEW
 10
-203.1476480154573
 20
28.77612496705557
 30
0.0
  0
VERTEX
  5
826
  8
NEW
 10
-206.3476480154573
 20
28.77612496705557
 30
0.0
  0
VERTEX
  5
827
  8
NEW
 10
-206.3476480154573
 20
19.90322435548404
 30
0.0
  0
VERTEX
  5
828
  8
NEW
 10
-212.7476480154573
 20
19.90322435548404
 30
0.0
  0
VERTEX
  5
829
  8
NEW
 10
-212.7476480154573
 20
51.05832283287478
 30
0.0
  0
VERTEX
  5
82A
  8
NEW
 10
-191.7476480154573
 20
51.05832283287478
 30
0.0
  0
VERTEX
  5
82B
  8
NEW
 10
-191.7476480154573
 20
48.5219261889867
 30
0.0
  0
VERTEX
  5
82C
  8
NEW
 10
-170.7476480154573
 20
48.5219261889867
 30
0.0
  0
VERTEX
  5
82D
  8
NEW
 10
-170.7476480154573
 20
51.05832283287478
 30
0.0
  0
VERTEX
  5
82E
  8
NEW
 10
-149.7476480154573
 20
51.05832283287478
 30
0.0
  0
VERTEX
  5
82F
  8
NEW
 10
-149.7476480154573
 20
48.5219261889867
 30
0.0
  0
VERTEX
  5
830
  8
NEW
 10
-128.7476480154573
 20
48.5219261889867
 30
0.0
  0
VERTEX
  5
831
  8
NEW
 10
-128.7476480154572
 20
51.05832283287478
 30
0.0
  0
VERTEX
  5
832
  8
NEW
 10
-107.7476480154572
 20
51.05832283287478
 30
0.0
  0
VERTEX
  5
833
  8
NEW
 10
-107.7476480154573
 20
19.90322435548404
 30
0.0
  0
VERTEX
  5
834
  8
NEW
 10
-114.1476480154573
 20
19.90322435548404
 30
0.0
  0
VERTEX
  5
835
  8
NEW
 10
-114.1476480154573
 20
28.77612496705557
 30
0.0
  0
VERTEX
  5
836
  8
NEW
 10
-117.3476480154572
 20
28.77612496705557
 30
0.0
  0
VERTEX
  5
837
  8
NEW
 10
-117.3476480154573
 20
19.90322435548404
 30
0.0
  0
VERTEX
  5
838
  8
NEW
 10
-158.6476480154573
 20
19.90322435548404
 30
0.0
  0
VERTEX
  5
839
  8
NEW
 10
-158.6476480154573
 20
28.77612496705557
 30
0.0
  0
VERTEX
  5
83A
  8
NEW
 10
-161.8476480154573
 20
28.77612496705557
 30
0.0
  0
VERTEX
  5
83B
  8
NEW
 10
-161.8476480154573
 20
19.90322435548404
 30
0.0
  0
VERTEX
  5
83C
  8
NEW
 10
-170.7476480154573
 20
19.90322435548404
 30
0.0
  0
SEQEND
  5
9CB
  8
NEW
  0
POLYLINE
  5
57D
  8
NEW
 66
     1
 10
0.0
 20
0.0
 30
0.0
 70
     1
  0
VERTEX
  5
83D
  8
NEW
 10
-206.3476480154573
 20
46.5219261901986
 30
0.0
  0
VERTEX
  5
83E
  8
NEW
 10
-206.3476480154573
 20
37.64902557862709
 30
0.0
  0
VERTEX
  5
83F
  8
NEW
 10
-203.1476480154573
 20
37.64902557862709
 30
0.0
  0
VERTEX
  5
840
  8
NEW
 10
-203.1476480154573
 20
46.5219261901986
 30
0.0
  0
SEQEND
  5
9CC
  8
NEW
  0
POLYLINE
  5
57E
  8
NEW
 66
     1
 10
0.0
 20
0.0
 30
0.0
 70
     1
  0
VERTEX
  5
841
  8
NEW
 10
-161.8476480154573
 20
46.5219261901986
 30
0.0
  0
VERTEX
  5
842
  8
NEW
 10
-161.8476480154573
 20
37.64902557862709
 30
0.0
  0
VERTEX
  5
843
  8
NEW
 10
-158.6476480154572
 20
37.64902557862709
 30
0.0
  0
VERTEX
  5
844
  8
NEW
 10
-158.6476480154572
 20
46.5219261901986
 30
0.0
  0
SEQEND
  5
9CD
  8
NEW
  0
POLYLINE
  5
57F
  8
NEW
 66
     1
 10
0.0
 20
0.0
 30
0.0
 70
     1
  0
VERTEX
  5
845
  8
NEW
 10
-117.3476480154573
 20
46.5219261901986
 30
0.0
  0
VERTEX
  5
846
  8
NEW
 10
-117.3476480154573
 20
37.64902557862709
 30
0.0
  0
VERTEX
  5
847
  8
NEW
 10
-114.1476480154573
 20
37.64902557862709
 30
0.0
  0
VERTEX
  5
848
  8
NEW
 10
-114.1476480154573
 20
46.5219261901986
 30
0.0
  0
SEQEND
  5
9CE
  8
NEW
  0
LINE
  5
59E
  8
0
 10
-212.3660155548511
 20
55.02144258894992
 30
0.0
 11
-249.2553740151427
 21
83.39787582269429
 31
0.0
  0
LINE
  5
59F
  8
0
 10
-148.3463804937072
 20
138.2469574665279
 30
0.0
 11
-185.2357389539989
 21
166.6233907002723
 31
0.0
  0
LINE
  5
5A0
  8
0
 10
-215.4145696053818
 20
51.05832283287478
 30
0.0
 11
-148.3463804937072
 21
138.2469574665279
 31
0.0
  0
LINE
  5
5A1
  8
0
 10
-237.3660147469173
 20
74.25221367110231
 30
0.0
 11
-173.3463796857735
 21
157.4777285486803
 31
0.0
  0
LINE
  5
5A9
  8
0
 10
-199.5620885426223
 20
71.66654556446551
 30
0.0
 11
-236.4514470029139
 21
100.0429787982099
 31
0.0
  0
LINE
  5
5AA
  8
0
 10
-186.7581615303936
 20
88.31164853998112
 30
0.0
 11
-223.6475199906852
 21
116.6880817737255
 31
0.0
  0
LINE
  5
5AB
  8
0
 10
-173.9542345181648
 20
104.9567515154967
 30
0.0
 11
-210.8435929784564
 21
133.3331847492411
 31
0.0
  0
LINE
  5
5AC
  8
0
 10
-161.150307505936
 20
121.6018544910123
 30
0.0
 11
-198.0396659662276
 21
149.9782877247567
 31
0.0
  0
LINE
  5
5AD
  8
0
 10
-218.6145696053817
 20
51.05832283287478
 30
0.0
 11
-150.3567892234344
 21
139.7934259190235
 31
0.0
  0
LINE
  5
5BD
  8
0
 10
-208.4638663701718
 20
60.09423587672612
 30
0.0
 11
-245.3532248304634
 21
88.47066911047048
 31
0.0
  0
LINE
  5
5BE
  8
0
 10
-152.2485296783865
 20
133.1741641787517
 30
0.0
 11
-189.1378881386781
 21
161.5505974124961
 31
0.0
  0
LINE
  5
5BF
  8
0
 10
-154.1996042707261
 20
130.6377675348637
 30
0.0
 11
-191.0889627310177
 21
159.014200768608
 31
0.0
  0
LINE
  5
5C0
  8
0
 10
-206.5127917778322
 20
62.6306325206142
 30
0.0
 11
-243.4021502381238
 21
91.00706575435856
 31
0.0
  0
LINE
  5
5C2
  8
0
 10
-204.3806599201756
 20
117.1331694318354
 30
0.0
 11
-179.3806607281093
 21
97.90239834968298
 31
0.0
  0
LINE
  5
5C3
  8
0
 10
-206.3317345125152
 20
114.5967727879473
 30
0.0
 11
-181.331735320449
 21
95.36600170579487
 31
0.0
  0
LINE
  5
5C4
  8
0
 10
-238.4634942885016
 20
67.75269720699043
 30
0.0
 11
-170.8948438366716
 21
155.5919314991856
 31
0.0
  0
POLYLINE
  5
5CC
  8
NEW
 66
     1
 10
0.0
 20
0.0
 30
0.0
 70
     1
  0
VERTEX
  5
849
  8
NEW
 10
-214.3764242845782
 20
56.5679110414454
 30
0.0
  0
VERTEX
  5
84A
  8
NEW
 10
-237.3660147469173
 20
74.25221367110231
 30
0.0
  0
VERTEX
  5
84B
  8
NEW
 10
-224.5620877346885
 20
90.8973166466179
 30
0.0
  0
VERTEX
  5
84C
  8
NEW
 10
-222.1105518855867
 20
89.0115195971232
 30
0.0
  0
VERTEX
  5
84D
  8
NEW
 10
-209.3066248733579
 20
105.6566225726388
 30
0.0
  0
VERTEX
  5
84E
  8
NEW
 10
-211.7581607224598
 20
107.5424196221335
 30
0.0
  0
VERTEX
  5
84F
  8
NEW
 10
-198.954233710231
 20
124.1875225976491
 30
0.0
  0
VERTEX
  5
850
  8
NEW
 10
-196.5026978611291
 20
122.3017255481544
 30
0.0
  0
VERTEX
  5
851
  8
NEW
 10
-183.6987708489004
 20
138.94682852367
 30
0.0
  0
VERTEX
  5
852
  8
NEW
 10
-186.1503066980022
 20
140.8326255731647
 30
0.0
  0
VERTEX
  5
853
  8
NEW
 10
-173.3463796857735
 20
157.4777285486803
 30
0.0
  0
VERTEX
  5
854
  8
NEW
 10
-150.3567892234344
 20
139.7934259190235
 30
0.0
  0
VERTEX
  5
855
  8
NEW
 10
-163.1607162356632
 20
123.1483229435078
 30
0.0
  0
VERTEX
  5
856
  8
NEW
 10
-161.150307505936
 20
121.6018544910123
 30
0.0
  0
VERTEX
  5
857
  8
NEW
 10
-173.9542345181648
 20
104.9567515154967
 30
0.0
  0
VERTEX
  5
858
  8
NEW
 10
-175.9646432478919
 20
106.5032199679922
 30
0.0
  0
VERTEX
  5
859
  8
NEW
 10
-188.7685702601207
 20
89.85811699247662
 30
0.0
  0
VERTEX
  5
85A
  8
NEW
 10
-186.7581615303936
 20
88.31164853998112
 30
0.0
  0
VERTEX
  5
85B
  8
NEW
 10
-199.5620885426223
 20
71.66654556446551
 30
0.0
  0
VERTEX
  5
85C
  8
NEW
 10
-201.5724972723495
 20
73.21301401696101
 30
0.0
  0
SEQEND
  5
9CF
  8
NEW
  0
LINE
  5
5CE
  8
0
 10
-322.7808623662533
 20
145.7099543595472
 30
0.0
 11
-246.4094512307076
 21
46.42712589549194
 31
0.0
  0
LINE
  5
5CF
  8
0
 10
-317.6257749628899
 20
149.6754067513874
 30
0.0
 11
-241.2543636809283
 21
50.39257809699166
 31
0.0
  0
LINE
  5
5D1
  8
0
 10
-268.4631220400448
 20
55.02144258894992
 30
0.0
 11
-231.5737635797532
 21
83.39787582269429
 31
0.0
  0
LINE
  5
5D2
  8
0
 10
-332.4827571011887
 20
138.2469574665279
 30
0.0
 11
-295.593398640897
 21
166.6233907002723
 31
0.0
  0
LINE
  5
5D3
  8
0
 10
-265.4145679895141
 20
51.05832283287478
 30
0.0
 11
-332.4827571011887
 21
138.2469574665279
 31
0.0
  0
LINE
  5
5D4
  8
0
 10
-281.2670490522736
 20
71.66654556446551
 30
0.0
 11
-244.3776905919819
 21
100.0429787982099
 31
0.0
  0
LINE
  5
5D5
  8
0
 10
-294.0709760645024
 20
88.31164853998112
 30
0.0
 11
-257.1816176042107
 21
116.6880817737255
 31
0.0
  0
LINE
  5
5D6
  8
0
 10
-306.8749030767311
 20
104.9567515154967
 30
0.0
 11
-269.9855446164395
 21
133.3331847492411
 31
0.0
  0
LINE
  5
5D7
  8
0
 10
-319.6788300889599
 20
121.6018544910123
 30
0.0
 11
-282.7894716286683
 21
149.9782877247567
 31
0.0
  0
LINE
  5
5D8
  8
0
 10
-262.2145679895141
 20
51.05832283287478
 30
0.0
 11
-330.4723483714615
 21
139.7934259190235
 31
0.0
  0
LINE
  5
5D9
  8
0
 10
-272.365271224724
 20
60.09423587672612
 30
0.0
 11
-235.4759127644325
 21
88.47066911047048
 31
0.0
  0
LINE
  5
5DA
  8
0
 10
-328.5806079165094
 20
133.1741641787517
 30
0.0
 11
-291.6912494562177
 21
161.5505974124961
 31
0.0
  0
LINE
  5
5DB
  8
0
 10
-326.6295333241698
 20
130.6377675348637
 30
0.0
 11
-289.7401748638782
 21
159.014200768608
 31
0.0
  0
LINE
  5
5DC
  8
0
 10
-274.3163458170637
 20
62.6306325206142
 30
0.0
 11
-237.4269873567721
 21
91.00706575435856
 31
0.0
  0
LINE
  5
5DD
  8
0
 10
-243.4631228479786
 20
74.25221367110231
 30
0.0
 11
-307.4827579091224
 21
157.4777285486803
 31
0.0
  0
LINE
  5
5DE
  8
0
 10
-276.4484776747203
 20
117.1331694318354
 30
0.0
 11
-301.4484768667866
 21
97.90239834968298
 31
0.0
  0
LINE
  5
5DF
  8
0
 10
-274.4974030823807
 20
114.5967727879473
 30
0.0
 11
-299.4974022744469
 21
95.36600170579487
 31
0.0
  0
LINE
  5
5E0
  8
0
 10
-242.3656433063943
 20
67.75269720699043
 30
0.0
 11
-309.9342937582243
 21
155.5919314991856
 31
0.0
  0
POLYLINE
  5
5E2
  8
NEW
 66
     1
 10
0.0
 20
0.0
 30
0.0
 70
     1
  0
VERTEX
  5
85D
  8
NEW
 10
-259.4593661569064
 20
74.0590798826185
 30
0.0
  0
VERTEX
  5
85E
  8
NEW
 10
-257.50829164796
 20
71.52268317458177
 30
0.0
  0
VERTEX
  5
85F
  8
NEW
 10
-252.3532042285595
 20
75.48813554557367
 30
0.0
  0
VERTEX
  5
860
  8
NEW
 10
-254.3042787375059
 20
78.0245322536104
 30
0.0
  0
SEQEND
  5
9D0
  8
NEW
  0
POLYLINE
  5
5E7
  8
NEW
 66
     1
 10
0.0
 20
0.0
 30
0.0
 70
     1
  0
VERTEX
  5
861
  8
NEW
 10
-266.4527133103177
 20
56.5679110414454
 30
0.0
  0
VERTEX
  5
862
  8
NEW
 10
-245.9146586970805
 20
72.36641662160761
 30
0.0
  0
VERTEX
  5
863
  8
NEW
 10
-258.7185857093093
 20
89.01151959712323
 30
0.0
  0
VERTEX
  5
864
  8
NEW
 10
-256.2670498602074
 20
90.89731664661792
 30
0.0
  0
VERTEX
  5
865
  8
NEW
 10
-269.0709768724361
 20
107.5424196221335
 30
0.0
  0
VERTEX
  5
866
  8
NEW
 10
-271.522512721538
 20
105.6566225726388
 30
0.0
  0
VERTEX
  5
867
  8
NEW
 10
-284.3264397337667
 20
122.3017255481544
 30
0.0
  0
VERTEX
  5
868
  8
NEW
 10
-281.8749038846649
 20
124.1875225976491
 30
0.0
  0
VERTEX
  5
869
  8
NEW
 10
-294.6788308968937
 20
140.8326255731647
 30
0.0
  0
VERTEX
  5
86A
  8
NEW
 10
-297.1303667459955
 20
138.94682852367
 30
0.0
  0
VERTEX
  5
86B
  8
NEW
 10
-309.9342937582243
 20
155.5919314991856
 30
0.0
  0
VERTEX
  5
86C
  8
NEW
 10
-330.4723483714615
 20
139.7934259190235
 30
0.0
  0
VERTEX
  5
86D
  8
NEW
 10
-317.6684213592327
 20
123.1483229435078
 30
0.0
  0
VERTEX
  5
86E
  8
NEW
 10
-319.6788300889599
 20
121.6018544910123
 30
0.0
  0
VERTEX
  5
86F
  8
NEW
 10
-306.8749030767311
 20
104.9567515154967
 30
0.0
  0
VERTEX
  5
870
  8
NEW
 10
-304.864494347004
 20
106.5032199679922
 30
0.0
  0
VERTEX
  5
871
  8
NEW
 10
-292.0605673347752
 20
89.85811699247662
 30
0.0
  0
VERTEX
  5
872
  8
NEW
 10
-294.0709760645024
 20
88.31164853998112
 30
0.0
  0
VERTEX
  5
873
  8
NEW
 10
-281.2670490522736
 20
71.66654556446551
 30
0.0
  0
VERTEX
  5
874
  8
NEW
 10
-279.2566403225464
 20
73.21301401696101
 30
0.0
  0
SEQEND
  5
9D1
  8
NEW
  0
LINE
  5
5F9
  8
0
 10
-327.9359497696167
 20
141.7445019677069
 30
0.0
 11
-251.5645387804868
 21
42.46167369399214
 31
0.0
  0
LINE
  5
5FA
  8
0
 10
-312.4706875595264
 20
153.6408591432277
 30
0.0
 11
-236.0992761311493
 21
54.35803029849146
 31
0.0
  0
LINE
  5
5FE
  8
0
 10
-168.3584504169923
 20
153.6408591432277
 30
0.0
 11
-244.7298618453694
 21
54.35803029849146
 31
0.0
  0
LINE
  5
5FF
  8
0
 10
-163.2033630136289
 20
149.6754067513874
 30
0.0
 11
-239.5747742955904
 21
50.39257809699166
 31
0.0
  0
LINE
  5
600
  8
0
 10
-158.0482756102654
 20
145.7099543595472
 30
0.0
 11
-234.4196867458111
 21
46.42712589549194
 31
0.0
  0
LINE
  5
601
  8
0
 10
-152.893188206902
 20
141.7445019677069
 30
0.0
 11
-229.264599196032
 21
42.46167369399214
 31
0.0
  0
POLYLINE
  5
602
  8
NEW
 66
     1
 10
0.0
 20
0.0
 30
0.0
 70
     1
  0
VERTEX
  5
875
  8
NEW
 10
-269.7695409957075
 20
66.12817514063465
 30
0.0
  0
VERTEX
  5
876
  8
NEW
 10
-267.8184664867611
 20
63.59177843259792
 30
0.0
  0
VERTEX
  5
877
  8
NEW
 10
-262.6633790673606
 20
67.55723080358982
 30
0.0
  0
VERTEX
  5
878
  8
NEW
 10
-264.614453576307
 20
70.09362751162655
 30
0.0
  0
SEQEND
  5
9D2
  8
NEW
  0
POLYLINE
  5
603
  8
NEW
 66
     1
 10
0.0
 20
0.0
 30
0.0
 70
     1
  0
VERTEX
  5
879
  8
NEW
 10
-286.5914960469423
 20
109.3308466037542
 30
0.0
  0
VERTEX
  5
87A
  8
NEW
 10
-284.6404215379959
 20
106.7944498957175
 30
0.0
  0
VERTEX
  5
87B
  8
NEW
 10
-279.4853341185955
 20
110.7599022667094
 30
0.0
  0
VERTEX
  5
87C
  8
NEW
 10
-281.4364086275418
 20
113.2962989747461
 30
0.0
  0
SEQEND
  5
9D3
  8
NEW
  0
POLYLINE
  5
604
  8
NEW
 66
     1
 10
0.0
 20
0.0
 30
0.0
 70
     1
  0
VERTEX
  5
87D
  8
NEW
 10
-296.9016708857435
 20
101.3999418617703
 30
0.0
  0
VERTEX
  5
87E
  8
NEW
 10
-294.9505963767971
 20
98.86354515373355
 30
0.0
  0
VERTEX
  5
87F
  8
NEW
 10
-289.7955089573966
 20
102.8289975247255
 30
0.0
  0
VERTEX
  5
880
  8
NEW
 10
-291.746583466343
 20
105.3653942327622
 30
0.0
  0
SEQEND
  5
9D4
  8
NEW
  0
POLYLINE
  5
605
  8
NEW
 66
     1
 10
0.0
 20
0.0
 30
0.0
 70
     1
  0
VERTEX
  5
881
  8
NEW
 10
-313.7236259369784
 20
144.6026133248899
 30
0.0
  0
VERTEX
  5
882
  8
NEW
 10
-311.7725514280319
 20
142.0662166168532
 30
0.0
  0
VERTEX
  5
883
  8
NEW
 10
-306.6174640086315
 20
146.0316689878451
 30
0.0
  0
VERTEX
  5
884
  8
NEW
 10
-308.5685385175778
 20
148.5680656958818
 30
0.0
  0
SEQEND
  5
9D5
  8
NEW
  0
POLYLINE
  5
606
  8
NEW
 66
     1
 10
0.0
 20
0.0
 30
0.0
 70
     1
  0
VERTEX
  5
885
  8
NEW
 10
-324.0338007757795
 20
136.671708582906
 30
0.0
  0
VERTEX
  5
886
  8
NEW
 10
-322.0827262668331
 20
134.1353118748693
 30
0.0
  0
VERTEX
  5
887
  8
NEW
 10
-316.9276388474327
 20
138.1007642458612
 30
0.0
  0
VERTEX
  5
888
  8
NEW
 10
-318.878713356379
 20
140.6371609538979
 30
0.0
  0
SEQEND
  5
9D6
  8
NEW
  0
POLYLINE
  5
607
  8
NEW
 66
     1
 10
0.0
 20
0.0
 30
0.0
 70
     1
  0
VERTEX
  5
889
  8
NEW
 10
-156.7953368191164
 20
136.671708582906
 30
0.0
  0
VERTEX
  5
88A
  8
NEW
 10
-158.7464113280628
 20
134.1353118748693
 30
0.0
  0
VERTEX
  5
88B
  8
NEW
 10
-163.9014987474632
 20
138.1007642458612
 30
0.0
  0
VERTEX
  5
88C
  8
NEW
 10
-161.9504242385169
 20
140.6371609538979
 30
0.0
  0
SEQEND
  5
9D7
  8
NEW
  0
POLYLINE
  5
608
  8
NEW
 66
     1
 10
0.0
 20
0.0
 30
0.0
 70
     1
  0
VERTEX
  5
88D
  8
NEW
 10
-167.1055116579175
 20
144.6026133248899
 30
0.0
  0
VERTEX
  5
88E
  8
NEW
 10
-169.056586166864
 20
142.0662166168532
 30
0.0
  0
VERTEX
  5
88F
  8
NEW
 10
-174.2116735862644
 20
146.0316689878451
 30
0.0
  0
VERTEX
  5
890
  8
NEW
 10
-172.260599077318
 20
148.5680656958818
 30
0.0
  0
SEQEND
  5
9D8
  8
NEW
  0
POLYLINE
  5
609
  8
NEW
 66
     1
 10
0.0
 20
0.0
 30
0.0
 70
     1
  0
VERTEX
  5
891
  8
NEW
 10
-194.2376415479536
 20
109.3308466037542
 30
0.0
  0
VERTEX
  5
892
  8
NEW
 10
-196.1887160569
 20
106.7944498957175
 30
0.0
  0
VERTEX
  5
893
  8
NEW
 10
-201.3438034763004
 20
110.7599022667094
 30
0.0
  0
VERTEX
  5
894
  8
NEW
 10
-199.3927289673541
 20
113.2962989747461
 30
0.0
  0
SEQEND
  5
9D9
  8
NEW
  0
POLYLINE
  5
60A
  8
NEW
 66
     1
 10
0.0
 20
0.0
 30
0.0
 70
     1
  0
VERTEX
  5
895
  8
NEW
 10
-183.9274667091524
 20
101.3999418617703
 30
0.0
  0
VERTEX
  5
896
  8
NEW
 10
-185.8785412180988
 20
98.86354515373355
 30
0.0
  0
VERTEX
  5
897
  8
NEW
 10
-191.0336286374992
 20
102.8289975247255
 30
0.0
  0
VERTEX
  5
898
  8
NEW
 10
-189.0825541285529
 20
105.3653942327622
 30
0.0
  0
SEQEND
  5
9DA
  8
NEW
  0
POLYLINE
  5
60B
  8
NEW
 66
     1
 10
0.0
 20
0.0
 30
0.0
 70
     1
  0
VERTEX
  5
899
  8
NEW
 10
-221.3697714379895
 20
74.0590798826185
 30
0.0
  0
VERTEX
  5
89A
  8
NEW
 10
-223.3208459469359
 20
71.52268317458177
 30
0.0
  0
VERTEX
  5
89B
  8
NEW
 10
-228.4759333663363
 20
75.48813554557367
 30
0.0
  0
VERTEX
  5
89C
  8
NEW
 10
-226.52485885739
 20
78.0245322536104
 30
0.0
  0
SEQEND
  5
9DB
  8
NEW
  0
POLYLINE
  5
60C
  8
NEW
 66
     1
 10
0.0
 20
0.0
 30
0.0
 70
     1
  0
VERTEX
  5
89D
  8
NEW
 10
-211.0595965991884
 20
66.12817514063465
 30
0.0
  0
VERTEX
  5
89E
  8
NEW
 10
-213.0106711081348
 20
63.59177843259792
 30
0.0
  0
VERTEX
  5
89F
  8
NEW
 10
-218.1657585275353
 20
67.55723080358982
 30
0.0
  0
VERTEX
  5
8A0
  8
NEW
 10
-216.2146840185889
 20
70.09362751162655
 30
0.0
  0
SEQEND
  5
9DC
  8
NEW
  0
POLYLINE
  5
610
  8
NEW
 66
     1
 10
0.0
 20
0.0
 30
0.0
 70
     1
  0
VERTEX
  5
8A1
  8
NEW
 10
33.07513726215379
 20
-21.81974446452216
 30
0.0
  0
VERTEX
  5
8A2
  8
NEW
 10
33.07513726215379
 20
-1.194739531057564
 30
0.0
  0
VERTEX
  5
8A3
  8
NEW
 10
48.8751378792762
 20
10.95910783348432
 30
0.0
  0
VERTEX
  5
8A4
  8
NEW
 10
64.67513726215381
 20
-1.194739408506564
 30
0.0
  0
VERTEX
  5
8A5
  8
NEW
 10
64.67513726215375
 20
-21.81974446452216
 30
0.0
  0
SEQEND
  5
9DD
  8
NEW
  0
POLYLINE
  5
611
  8
NEW
 66
     1
 10
0.0
 20
0.0
 30
0.0
 70
     1
  0
VERTEX
  5
8A6
  8
NEW
 10
23.8751372621538
 20
-27.81974446452216
 30
0.0
  0
VERTEX
  5
8A7
  8
NEW
 10
73.87513726215377
 20
-27.81974446452216
 30
0.0
  0
VERTEX
  5
8A8
  8
NEW
 10
73.87513726215377
 20
-18.94684385295062
 30
0.0
  0
VERTEX
  5
8A9
  8
NEW
 10
70.67513726215378
 20
-18.94684385295062
 30
0.0
  0
VERTEX
  5
8AA
  8
NEW
 10
70.67513726215378
 20
-10.07394324137908
 30
0.0
  0
VERTEX
  5
8AB
  8
NEW
 10
73.8751372621538
 20
-10.07394324137908
 30
0.0
  0
VERTEX
  5
8AC
  8
NEW
 10
73.8751372621538
 20
-1.201042629807603
 30
0.0
  0
VERTEX
  5
8AD
  8
NEW
 10
70.67513726215381
 20
-1.201042629807603
 30
0.0
  0
VERTEX
  5
8AE
  8
NEW
 10
70.67513726215381
 20
1.759669344564202
 30
0.0
  0
VERTEX
  5
8AF
  8
NEW
 10
67.37725807257726
 20
4.296499816601454
 30
0.0
  0
VERTEX
  5
8B0
  8
NEW
 10
69.32833258152365
 20
6.832896524638215
 30
0.0
  0
VERTEX
  5
8B1
  8
NEW
 10
64.1732451621231
 20
10.79834889563017
 30
0.0
  0
VERTEX
  5
8B2
  8
NEW
 10
62.22217065317668
 20
8.261952187593465
 30
0.0
  0
VERTEX
  5
8B3
  8
NEW
 10
57.06708323377612
 20
12.22740455858542
 30
0.0
  0
VERTEX
  5
8B4
  8
NEW
 10
59.01815774272248
 20
14.76380126662218
 30
0.0
  0
VERTEX
  5
8B5
  8
NEW
 10
53.86307032332203
 20
18.72925363761408
 30
0.0
  0
VERTEX
  5
8B6
  8
NEW
 10
51.91199581437562
 20
16.19285692957737
 30
0.0
  0
VERTEX
  5
8B7
  8
NEW
 10
48.87513800371843
 20
18.52890169970391
 30
0.0
  0
VERTEX
  5
8B8
  8
NEW
 10
45.83827995989296
 20
16.19285690914626
 30
0.0
  0
VERTEX
  5
8B9
  8
NEW
 10
43.8872054509466
 20
18.72925361718302
 30
0.0
  0
VERTEX
  5
8BA
  8
NEW
 10
38.73211790116747
 20
14.76380141568325
 30
0.0
  0
VERTEX
  5
8BB
  8
NEW
 10
40.68319241011389
 20
12.22740470764654
 30
0.0
  0
VERTEX
  5
8BC
  8
NEW
 10
35.52810486033471
 20
8.26195250614677
 30
0.0
  0
VERTEX
  5
8BD
  8
NEW
 10
33.57703035138829
 20
10.79834921418347
 30
0.0
  0
VERTEX
  5
8BE
  8
NEW
 10
28.42194280160911
 20
6.832897012683702
 30
0.0
  0
VERTEX
  5
8BF
  8
NEW
 10
30.37301731055553
 20
4.296500304646941
 30
0.0
  0
VERTEX
  5
8C0
  8
NEW
 10
27.07513726215379
 20
1.759669344564202
 30
0.0
  0
VERTEX
  5
8C1
  8
NEW
 10
27.07513726215379
 20
-1.201042629807603
 30
0.0
  0
VERTEX
  5
8C2
  8
NEW
 10
23.8751372621538
 20
-1.201042629807603
 30
0.0
  0
VERTEX
  5
8C3
  8
NEW
 10
23.8751372621538
 20
-10.07394324137908
 30
0.0
  0
VERTEX
  5
8C4
  8
NEW
 10
27.07513726215379
 20
-10.07394324137908
 30
0.0
  0
VERTEX
  5
8C5
  8
NEW
 10
27.07513726215379
 20
-18.94684385295062
 30
0.0
  0
VERTEX
  5
8C6
  8
NEW
 10
23.8751372621538
 20
-18.94684385295062
 30
0.0
  0
SEQEND
  5
9DE
  8
NEW
  0
POLYLINE
  5
613
  8
NEW
 66
     1
 10
0.0
 20
0.0
 30
0.0
 70
     1
  0
VERTEX
  5
8C7
  8
NEW
 10
82.94205885207828
 20
-1.201042629807603
 30
0.0
  0
VERTEX
  5
8C8
  8
NEW
 10
82.94205885207828
 20
-10.07394324137908
 30
0.0
  0
VERTEX
  5
8C9
  8
NEW
 10
86.14205885207826
 20
-10.07394324137908
 30
0.0
  0
VERTEX
  5
8CA
  8
NEW
 10
86.14205885207826
 20
-1.201042629807603
 30
0.0
  0
SEQEND
  5
9DF
  8
NEW
  0
POLYLINE
  5
614
  8
NEW
 66
     1
 10
0.0
 20
0.0
 30
0.0
 70
     1
  0
VERTEX
  5
8CB
  8
NEW
 10
127.4420588520783
 20
-1.201042629807603
 30
0.0
  0
VERTEX
  5
8CC
  8
NEW
 10
127.4420588520783
 20
-10.07394324137908
 30
0.0
  0
VERTEX
  5
8CD
  8
NEW
 10
130.6420588520783
 20
-10.07394324137908
 30
0.0
  0
VERTEX
  5
8CE
  8
NEW
 10
130.6420588520783
 20
-1.201042629807603
 30
0.0
  0
SEQEND
  5
9E0
  8
NEW
  0
POLYLINE
  5
615
  8
NEW
 66
     1
 10
0.0
 20
0.0
 30
0.0
 70
     1
  0
VERTEX
  5
8CF
  8
NEW
 10
171.9420588520783
 20
-1.201042629807603
 30
0.0
  0
VERTEX
  5
8D0
  8
NEW
 10
171.9420588520783
 20
-10.07394324137908
 30
0.0
  0
VERTEX
  5
8D1
  8
NEW
 10
175.1420588520783
 20
-10.07394324137908
 30
0.0
  0
VERTEX
  5
8D2
  8
NEW
 10
175.1420588520783
 20
-1.201042629807603
 30
0.0
  0
SEQEND
  5
9E1
  8
NEW
  0
POLYLINE
  5
616
  8
NEW
 66
     1
 10
0.0
 20
0.0
 30
0.0
 70
     1
  0
VERTEX
  5
8D3
  8
NEW
 10
76.5420588520783
 20
7.871750656756717
 30
0.0
  0
VERTEX
  5
8D4
  8
NEW
 10
76.54205885207836
 20
36.8761611683214
 30
0.0
  0
VERTEX
  5
8D5
  8
NEW
 10
97.54205885207836
 20
36.87616116832137
 30
0.0
  0
VERTEX
  5
8D6
  8
NEW
 10
97.54205885207836
 20
33.78322429031778
 30
0.0
  0
VERTEX
  5
8D7
  8
NEW
 10
118.5420588520784
 20
33.78322429031778
 30
0.0
  0
VERTEX
  5
8D8
  8
NEW
 10
118.5420588520784
 20
36.87616116832135
 30
0.0
  0
VERTEX
  5
8D9
  8
NEW
 10
139.5420588520784
 20
36.87616116832135
 30
0.0
  0
VERTEX
  5
8DA
  8
NEW
 10
139.5420588520783
 20
33.78322429031778
 30
0.0
  0
VERTEX
  5
8DB
  8
NEW
 10
160.5420588520783
 20
33.78322429031772
 30
0.0
  0
VERTEX
  5
8DC
  8
NEW
 10
160.5420588520784
 20
36.87616116832129
 30
0.0
  0
VERTEX
  5
8DD
  8
NEW
 10
181.5420588520784
 20
36.87616116832129
 30
0.0
  0
VERTEX
  5
8DE
  8
NEW
 10
181.5420588520783
 20
7.87175065675666
 30
0.0
  0
VERTEX
  5
8DF
  8
NEW
 10
160.5420588520783
 20
7.87175065675666
 30
0.0
  0
VERTEX
  5
8E0
  8
NEW
 10
160.5420588520783
 20
5.335354012868549
 30
0.0
  0
VERTEX
  5
8E1
  8
NEW
 10
139.5420588520783
 20
5.335354012868549
 30
0.0
  0
VERTEX
  5
8E2
  8
NEW
 10
139.5420588520783
 20
7.87175065675666
 30
0.0
  0
VERTEX
  5
8E3
  8
NEW
 10
118.5420588520783
 20
7.871750656756717
 30
0.0
  0
VERTEX
  5
8E4
  8
NEW
 10
118.5420588520783
 20
5.335354012868606
 30
0.0
  0
VERTEX
  5
8E5
  8
NEW
 10
97.5420588520783
 20
5.335354012868606
 30
0.0
  0
VERTEX
  5
8E6
  8
NEW
 10
97.5420588520783
 20
7.871750656756717
 30
0.0
  0
SEQEND
  5
9E2
  8
NEW
  0
POLYLINE
  5
617
  8
NEW
 66
     1
 10
0.0
 20
0.0
 30
0.0
 70
     1
  0
VERTEX
  5
8E7
  8
NEW
 10
171.9420588520783
 20
57.62020698901947
 30
0.0
  0
VERTEX
  5
8E8
  8
NEW
 10
175.1420588520783
 20
57.6202068838079
 30
0.0
  0
VERTEX
  5
8E9
  8
NEW
 10
175.1420588520783
 20
64.12403182058671
 30
0.0
  0
VERTEX
  5
8EA
  8
NEW
 10
171.9420588520783
 20
64.1240319257983
 30
0.0
  0
SEQEND
  5
9E3
  8
NEW
  0
POLYLINE
  5
618
  8
NEW
 66
     1
 10
0.0
 20
0.0
 30
0.0
 70
     1
  0
VERTEX
  5
8EB
  8
NEW
 10
181.5420588520784
 20
41.41255781220946
 30
0.0
  0
VERTEX
  5
8EC
  8
NEW
 10
181.5420588520783
 20
67.32403144577052
 30
0.0
  0
VERTEX
  5
8ED
  8
NEW
 10
160.5420588520783
 20
67.32403144577054
 30
0.0
  0
VERTEX
  5
8EE
  8
NEW
 10
160.5420588520784
 20
70.41696832377414
 30
0.0
  0
VERTEX
  5
8EF
  8
NEW
 10
139.5420588520784
 20
70.41696832377414
 30
0.0
  0
VERTEX
  5
8F0
  8
NEW
 10
139.5420588520784
 20
67.32403144577054
 30
0.0
  0
VERTEX
  5
8F1
  8
NEW
 10
118.5420588520784
 20
67.3240314457706
 30
0.0
  0
VERTEX
  5
8F2
  8
NEW
 10
118.5420588520784
 20
70.41696832377417
 30
0.0
  0
VERTEX
  5
8F3
  8
NEW
 10
97.54205885207834
 20
70.41696832377417
 30
0.0
  0
VERTEX
  5
8F4
  8
NEW
 10
97.54205885207837
 20
67.32403144577063
 30
0.0
  0
VERTEX
  5
8F5
  8
NEW
 10
76.54205885207837
 20
67.32403144577063
 30
0.0
  0
VERTEX
  5
8F6
  8
NEW
 10
76.54205885207833
 20
41.41255781220954
 30
0.0
  0
VERTEX
  5
8F7
  8
NEW
 10
97.54205885207838
 20
41.41255781220954
 30
0.0
  0
VERTEX
  5
8F8
  8
NEW
 10
97.54205885207836
 20
38.87616116832137
 30
0.0
  0
VERTEX
  5
8F9
  8
NEW
 10
118.5420588520784
 20
38.87616116832135
 30
0.0
  0
VERTEX
  5
8FA
  8
NEW
 10
118.5420588520784
 20
41.41255781220949
 30
0.0
  0
VERTEX
  5
8FB
  8
NEW
 10
139.5420588520783
 20
41.41255781220949
 30
0.0
  0
VERTEX
  5
8FC
  8
NEW
 10
139.5420588520783
 20
38.87616116832135
 30
0.0
  0
VERTEX
  5
8FD
  8
NEW
 10
160.5420588520783
 20
38.87616116832135
 30
0.0
  0
VERTEX
  5
8FE
  8
NEW
 10
160.5420588520784
 20
41.41255781220949
 30
0.0
  0
SEQEND
  5
9E4
  8
NEW
  0
POLYLINE
  5
619
  8
NEW
 66
     1
 10
0.0
 20
0.0
 30
0.0
 70
     1
  0
VERTEX
  5
8FF
  8
NEW
 10
171.9420588520783
 20
44.6125571154617
 30
0.0
  0
VERTEX
  5
900
  8
NEW
 10
175.1420588520783
 20
44.61255701025007
 30
0.0
  0
VERTEX
  5
901
  8
NEW
 10
175.1420588520783
 20
51.11638194702891
 30
0.0
  0
VERTEX
  5
902
  8
NEW
 10
171.9420588520783
 20
51.11638205224051
 30
0.0
  0
SEQEND
  5
9E5
  8
NEW
  0
POLYLINE
  5
61A
  8
NEW
 66
     1
 10
0.0
 20
0.0
 30
0.0
 70
     1
  0
VERTEX
  5
903
  8
NEW
 10
127.4420588520784
 20
57.62020845211799
 30
0.0
  0
VERTEX
  5
904
  8
NEW
 10
130.6420588520784
 20
57.62020834690642
 30
0.0
  0
VERTEX
  5
905
  8
NEW
 10
130.6420588520783
 20
64.12403328368524
 30
0.0
  0
VERTEX
  5
906
  8
NEW
 10
127.4420588520784
 20
64.12403338889686
 30
0.0
  0
SEQEND
  5
9E6
  8
NEW
  0
POLYLINE
  5
61B
  8
NEW
 66
     1
 10
0.0
 20
0.0
 30
0.0
 70
     1
  0
VERTEX
  5
907
  8
NEW
 10
127.4420588520784
 20
44.61255857856005
 30
0.0
  0
VERTEX
  5
908
  8
NEW
 10
130.6420588520784
 20
44.61255847334849
 30
0.0
  0
VERTEX
  5
909
  8
NEW
 10
130.6420588520784
 20
51.1163834101273
 30
0.0
  0
VERTEX
  5
90A
  8
NEW
 10
127.4420588520784
 20
51.1163835153389
 30
0.0
  0
SEQEND
  5
9E7
  8
NEW
  0
POLYLINE
  5
61C
  8
NEW
 66
     1
 10
0.0
 20
0.0
 30
0.0
 70
     1
  0
VERTEX
  5
90B
  8
NEW
 10
82.94205885207836
 20
57.62020991521644
 30
0.0
  0
VERTEX
  5
90C
  8
NEW
 10
86.14205885207838
 20
57.62020981000487
 30
0.0
  0
VERTEX
  5
90D
  8
NEW
 10
86.14205885207835
 20
64.1240347467837
 30
0.0
  0
VERTEX
  5
90E
  8
NEW
 10
82.94205885207836
 20
64.1240348519953
 30
0.0
  0
SEQEND
  5
9E8
  8
NEW
  0
POLYLINE
  5
61D
  8
NEW
 66
     1
 10
0.0
 20
0.0
 30
0.0
 70
     1
  0
VERTEX
  5
90F
  8
NEW
 10
82.94205885207835
 20
44.61256004165847
 30
0.0
  0
VERTEX
  5
910
  8
NEW
 10
86.14205885207838
 20
44.61255993644693
 30
0.0
  0
VERTEX
  5
911
  8
NEW
 10
86.14205885207834
 20
51.11638487322574
 30
0.0
  0
VERTEX
  5
912
  8
NEW
 10
82.94205885207836
 20
51.11638497843737
 30
0.0
  0
SEQEND
  5
9E9
  8
NEW
  0
POLYLINE
  5
61E
  8
NEW
 66
     1
 10
0.0
 20
0.0
 30
0.0
 70
     1
  0
VERTEX
  5
913
  8
NEW
 10
175.1420588520783
 20
11.07175288620562
 30
0.0
  0
VERTEX
  5
914
  8
NEW
 10
171.9420588520783
 20
11.07175278099402
 30
0.0
  0
VERTEX
  5
915
  8
NEW
 10
171.9420588520784
 20
17.57557771777283
 30
0.0
  0
VERTEX
  5
916
  8
NEW
 10
175.1420588520783
 20
17.57557782298449
 30
0.0
  0
SEQEND
  5
9EA
  8
NEW
  0
POLYLINE
  5
61F
  8
NEW
 66
     1
 10
0.0
 20
0.0
 30
0.0
 70
     1
  0
VERTEX
  5
917
  8
NEW
 10
175.1420588520783
 20
24.07940275976352
 30
0.0
  0
VERTEX
  5
918
  8
NEW
 10
171.9420588520783
 20
24.07940265455198
 30
0.0
  0
VERTEX
  5
919
  8
NEW
 10
171.9420588520784
 20
30.5832275913308
 30
0.0
  0
VERTEX
  5
91A
  8
NEW
 10
175.1420588520783
 20
30.58322769654239
 30
0.0
  0
SEQEND
  5
9EB
  8
NEW
  0
POLYLINE
  5
620
  8
NEW
 66
     1
 10
0.0
 20
0.0
 30
0.0
 70
     1
  0
VERTEX
  5
91B
  8
NEW
 10
130.6420588520783
 20
24.0794012966652
 30
0.0
  0
VERTEX
  5
91C
  8
NEW
 10
127.4420588520783
 20
24.0794011914536
 30
0.0
  0
VERTEX
  5
91D
  8
NEW
 10
127.4420588520784
 20
30.58322612823244
 30
0.0
  0
VERTEX
  5
91E
  8
NEW
 10
130.6420588520783
 20
30.58322623344404
 30
0.0
  0
SEQEND
  5
9EC
  8
NEW
  0
POLYLINE
  5
621
  8
NEW
 66
     1
 10
0.0
 20
0.0
 30
0.0
 70
     1
  0
VERTEX
  5
91F
  8
NEW
 10
130.6420588520783
 20
11.07175142310723
 30
0.0
  0
VERTEX
  5
920
  8
NEW
 10
127.4420588520783
 20
11.07175131789563
 30
0.0
  0
VERTEX
  5
921
  8
NEW
 10
127.4420588520783
 20
17.5755762546745
 30
0.0
  0
VERTEX
  5
922
  8
NEW
 10
130.6420588520783
 20
17.5755763598861
 30
0.0
  0
SEQEND
  5
9ED
  8
NEW
  0
POLYLINE
  5
622
  8
NEW
 66
     1
 10
0.0
 20
0.0
 30
0.0
 70
     1
  0
VERTEX
  5
923
  8
NEW
 10
86.14205885207835
 20
24.0793998335667
 30
0.0
  0
VERTEX
  5
924
  8
NEW
 10
82.94205885207836
 20
24.07939972835516
 30
0.0
  0
VERTEX
  5
925
  8
NEW
 10
82.94205885207839
 20
30.58322466513397
 30
0.0
  0
VERTEX
  5
926
  8
NEW
 10
86.14205885207838
 20
30.58322477034559
 30
0.0
  0
SEQEND
  5
9EE
  8
NEW
  0
POLYLINE
  5
623
  8
NEW
 66
     1
 10
0.0
 20
0.0
 30
0.0
 70
     1
  0
VERTEX
  5
927
  8
NEW
 10
86.14205885207838
 20
11.07174996000896
 30
0.0
  0
VERTEX
  5
928
  8
NEW
 10
82.94205885207833
 20
11.07174985479736
 30
0.0
  0
VERTEX
  5
929
  8
NEW
 10
82.94205885207839
 20
17.57557479157617
 30
0.0
  0
VERTEX
  5
92A
  8
NEW
 10
86.14205885207835
 20
17.57557489678777
 30
0.0
  0
SEQEND
  5
9EF
  8
NEW
  0
POLYLINE
  5
625
  8
NEW
 66
     1
 10
0.0
 20
0.0
 30
0.0
 70
     1
  0
VERTEX
  5
92B
  8
NEW
 10
33.07513726215382
 20
97.57206680116494
 30
0.0
  0
VERTEX
  5
92C
  8
NEW
 10
33.07513726215382
 20
76.94706186770034
 30
0.0
  0
VERTEX
  5
92D
  8
NEW
 10
48.87513787927622
 20
64.79321450315845
 30
0.0
  0
VERTEX
  5
92E
  8
NEW
 10
64.67513726215384
 20
76.94706174514934
 30
0.0
  0
VERTEX
  5
92F
  8
NEW
 10
64.67513726215378
 20
97.57206680116494
 30
0.0
  0
SEQEND
  5
9F0
  8
NEW
  0
POLYLINE
  5
626
  8
NEW
 66
     1
 10
0.0
 20
0.0
 30
0.0
 70
     1
  0
VERTEX
  5
930
  8
NEW
 10
23.87513726215383
 20
103.5720668011649
 30
0.0
  0
VERTEX
  5
931
  8
NEW
 10
73.8751372621538
 20
103.5720668011649
 30
0.0
  0
VERTEX
  5
932
  8
NEW
 10
73.8751372621538
 20
94.6991661895934
 30
0.0
  0
VERTEX
  5
933
  8
NEW
 10
70.67513726215381
 20
94.6991661895934
 30
0.0
  0
VERTEX
  5
934
  8
NEW
 10
70.67513726215381
 20
85.82626557802186
 30
0.0
  0
VERTEX
  5
935
  8
NEW
 10
73.87513726215383
 20
85.82626557802186
 30
0.0
  0
VERTEX
  5
936
  8
NEW
 10
73.87513726215383
 20
76.95336496645038
 30
0.0
  0
VERTEX
  5
937
  8
NEW
 10
70.67513726215384
 20
76.95336496645038
 30
0.0
  0
VERTEX
  5
938
  8
NEW
 10
70.67513726215384
 20
73.99265299207858
 30
0.0
  0
VERTEX
  5
939
  8
NEW
 10
67.37725807257729
 20
71.45582252004132
 30
0.0
  0
VERTEX
  5
93A
  8
NEW
 10
69.32833258152368
 20
68.91942581200456
 30
0.0
  0
VERTEX
  5
93B
  8
NEW
 10
64.17324516212312
 20
64.95397344101261
 30
0.0
  0
VERTEX
  5
93C
  8
NEW
 10
62.22217065317671
 20
67.49037014904931
 30
0.0
  0
VERTEX
  5
93D
  8
NEW
 10
57.06708323377615
 20
63.52491777805736
 30
0.0
  0
VERTEX
  5
93E
  8
NEW
 10
59.01815774272252
 20
60.9885210700206
 30
0.0
  0
VERTEX
  5
93F
  8
NEW
 10
53.86307032332207
 20
57.0230686990287
 30
0.0
  0
VERTEX
  5
940
  8
NEW
 10
51.91199581437564
 20
59.5594654070654
 30
0.0
  0
VERTEX
  5
941
  8
NEW
 10
48.87513800371846
 20
57.22342063693887
 30
0.0
  0
VERTEX
  5
942
  8
NEW
 10
45.83827995989299
 20
59.55946542749652
 30
0.0
  0
VERTEX
  5
943
  8
NEW
 10
43.88720545094662
 20
57.02306871945976
 30
0.0
  0
VERTEX
  5
944
  8
NEW
 10
38.7321179011675
 20
60.98852092095953
 30
0.0
  0
VERTEX
  5
945
  8
NEW
 10
40.68319241011392
 20
63.52491762899623
 30
0.0
  0
VERTEX
  5
946
  8
NEW
 10
35.52810486033474
 20
67.49036983049601
 30
0.0
  0
VERTEX
  5
947
  8
NEW
 10
33.57703035138832
 20
64.9539731224593
 30
0.0
  0
VERTEX
  5
948
  8
NEW
 10
28.42194280160913
 20
68.91942532395908
 30
0.0
  0
VERTEX
  5
949
  8
NEW
 10
30.37301731055555
 20
71.45582203199584
 30
0.0
  0
VERTEX
  5
94A
  8
NEW
 10
27.07513726215382
 20
73.99265299207858
 30
0.0
  0
VERTEX
  5
94B
  8
NEW
 10
27.07513726215382
 20
76.95336496645038
 30
0.0
  0
VERTEX
  5
94C
  8
NEW
 10
23.87513726215383
 20
76.95336496645038
 30
0.0
  0
VERTEX
  5
94D
  8
NEW
 10
23.87513726215383
 20
85.82626557802186
 30
0.0
  0
VERTEX
  5
94E
  8
NEW
 10
27.07513726215382
 20
85.82626557802186
 30
0.0
  0
VERTEX
  5
94F
  8
NEW
 10
27.07513726215382
 20
94.6991661895934
 30
0.0
  0
VERTEX
  5
950
  8
NEW
 10
23.87513726215383
 20
94.6991661895934
 30
0.0
  0
SEQEND
  5
9F1
  8
NEW
  0
POLYLINE
  5
628
  8
NEW
 66
     1
 10
0.0
 20
0.0
 30
0.0
 70
     1
  0
VERTEX
  5
951
  8
NEW
 10
82.94205885207832
 20
76.95336496645038
 30
0.0
  0
VERTEX
  5
952
  8
NEW
 10
82.94205885207832
 20
85.82626557802186
 30
0.0
  0
VERTEX
  5
953
  8
NEW
 10
86.1420588520783
 20
85.82626557802186
 30
0.0
  0
VERTEX
  5
954
  8
NEW
 10
86.1420588520783
 20
76.95336496645038
 30
0.0
  0
SEQEND
  5
9F2
  8
NEW
  0
POLYLINE
  5
629
  8
NEW
 66
     1
 10
0.0
 20
0.0
 30
0.0
 70
     1
  0
VERTEX
  5
955
  8
NEW
 10
127.4420588520783
 20
76.95336496645038
 30
0.0
  0
VERTEX
  5
956
  8
NEW
 10
127.4420588520783
 20
85.82626557802186
 30
0.0
  0
VERTEX
  5
957
  8
NEW
 10
130.6420588520784
 20
85.82626557802186
 30
0.0
  0
VERTEX
  5
958
  8
NEW
 10
130.6420588520784
 20
76.95336496645038
 30
0.0
  0
SEQEND
  5
9F3
  8
NEW
  0
POLYLINE
  5
62A
  8
NEW
 66
     1
 10
0.0
 20
0.0
 30
0.0
 70
     1
  0
VERTEX
  5
959
  8
NEW
 10
171.9420588520783
 20
76.95336496645038
 30
0.0
  0
VERTEX
  5
95A
  8
NEW
 10
171.9420588520783
 20
85.82626557802186
 30
0.0
  0
VERTEX
  5
95B
  8
NEW
 10
175.1420588520783
 20
85.82626557802186
 30
0.0
  0
VERTEX
  5
95C
  8
NEW
 10
175.1420588520783
 20
76.95336496645038
 30
0.0
  0
SEQEND
  5
9F4
  8
NEW
  0
POLYLINE
  5
62B
  8
NEW
 66
     1
 10
0.0
 20
0.0
 30
0.0
 70
     1
  0
VERTEX
  5
95D
  8
NEW
 10
26.04689502725459
 20
15.0131354829922
 30
0.0
  0
VERTEX
  5
95E
  8
NEW
 10
13.47160709832455
 20
31.36100880064254
 30
0.0
  0
VERTEX
  5
95F
  8
NEW
 10
18.58473452759473
 20
50.6278703290206
 30
0.0
  0
VERTEX
  5
960
  8
NEW
 10
38.51852451546667
 20
50.62786967362501
 30
0.0
  0
VERTEX
  5
961
  8
NEW
 10
51.09381251911738
 20
34.27999625883785
 30
0.0
  0
SEQEND
  5
9F5
  8
NEW
  0
POLYLINE
  5
62C
  8
NEW
 66
     1
 10
0.0
 20
0.0
 30
0.0
 70
     1
  0
VERTEX
  5
962
  8
NEW
 10
22.41301919592355
 20
4.64805244220247
 30
0.0
  0
VERTEX
  5
963
  8
NEW
 10
62.04421775899753
 20
35.13359164448985
 30
0.0
  0
VERTEX
  5
964
  8
NEW
 10
56.63431457035624
 20
42.16646536384212
 30
0.0
  0
VERTEX
  5
965
  8
NEW
 10
54.09791786231951
 20
40.2153908548957
 30
0.0
  0
VERTEX
  5
966
  8
NEW
 10
48.68801467367824
 20
47.24826457424797
 30
0.0
  0
VERTEX
  5
967
  8
NEW
 10
51.22441138171497
 20
49.19933908319436
 30
0.0
  0
VERTEX
  5
968
  8
NEW
 10
45.81450819307373
 20
56.23221280254654
 30
0.0
  0
VERTEX
  5
969
  8
NEW
 10
43.278111485037
 20
54.28113829360015
 30
0.0
  0
VERTEX
  5
96A
  8
NEW
 10
41.47293346580913
 20
56.62786957648817
 30
0.0
  0
VERTEX
  5
96B
  8
NEW
 10
37.31222246972943
 20
56.6278697132866
 30
0.0
  0
VERTEX
  5
96C
  8
NEW
 10
37.31222246972938
 20
59.82786971328659
 30
0.0
  0
VERTEX
  5
96D
  8
NEW
 10
30.80839753295048
 20
59.82786992712346
 30
0.0
  0
VERTEX
  5
96E
  8
NEW
 10
30.80839753295042
 20
56.62786992712341
 30
0.0
  0
VERTEX
  5
96F
  8
NEW
 10
24.30457259617147
 20
56.62787014096023
 30
0.0
  0
VERTEX
  5
970
  8
NEW
 10
24.30457259617144
 20
59.82787014096021
 30
0.0
  0
VERTEX
  5
971
  8
NEW
 10
17.80074765939263
 20
59.82787035479706
 30
0.0
  0
VERTEX
  5
972
  8
NEW
 10
17.80074765939257
 20
56.62787035479707
 30
0.0
  0
VERTEX
  5
973
  8
NEW
 10
13.96934967299323
 20
56.62787048076814
 30
0.0
  0
VERTEX
  5
974
  8
NEW
 10
12.98657489095579
 20
52.92466028289516
 30
0.0
  0
VERTEX
  5
975
  8
NEW
 10
9.893638039939546
 20
53.74547794573246
 30
0.0
  0
VERTEX
  5
976
  8
NEW
 10
8.225371044905344
 20
47.45925300213179
 30
0.0
  0
VERTEX
  5
977
  8
NEW
 10
11.31830789592162
 20
46.63843533929463
 30
0.0
  0
VERTEX
  5
978
  8
NEW
 10
9.65004090088739
 20
40.35221039569399
 30
0.0
  0
VERTEX
  5
979
  8
NEW
 10
6.557104049871143
 20
41.17302805853114
 30
0.0
  0
VERTEX
  5
97A
  8
NEW
 10
4.888837054836912
 20
34.88680311493044
 30
0.0
  0
VERTEX
  5
97B
  8
NEW
 10
7.981773905853217
 20
34.06598545209323
 30
0.0
  0
VERTEX
  5
97C
  8
NEW
 10
6.914528318808593
 20
30.04447939209354
 30
0.0
  0
VERTEX
  5
97D
  8
NEW
 10
8.71970633803646
 20
27.69774810920552
 30
0.0
  0
VERTEX
  5
97E
  8
NEW
 10
6.183309629999755
 20
25.7466736002591
 30
0.0
  0
VERTEX
  5
97F
  8
NEW
 10
11.59321281864099
 20
18.71379988090695
 30
0.0
  0
VERTEX
  5
980
  8
NEW
 10
14.1296095266777
 20
20.66487438985337
 30
0.0
  0
VERTEX
  5
981
  8
NEW
 10
19.53951271531893
 20
13.63200067050104
 30
0.0
  0
VERTEX
  5
982
  8
NEW
 10
17.00311600728226
 20
11.68092616155468
 30
0.0
  0
SEQEND
  5
9F6
  8
NEW
  0
LINE
  5
777
  8
0
 10
-202.8487319688361
 20
42.08547588441283
 30
0.0
 11
-49.59571302325168
 21
42.08547588441283
 31
0.0
  0
LINE
  5
77A
  8
0
 10
-182.8476480154573
 20
9.687937658767083
 30
0.0
 11
-182.8476480154573
 21
64.51160445786368
 31
0.0
  0
LINE
  5
77B
  8
0
 10
-179.6476480154573
 20
9.687937658767083
 30
0.0
 11
-179.6476480154573
 21
64.51160445786368
 31
0.0
  0
POLYLINE
  5
7C7
  8
NEW
 66
     1
 10
0.0
 20
0.0
 30
0.0
 70
     1
  0
VERTEX
  5
983
  8
NEW
 10
118.5420588520783
 20
-5.637492935593343
 30
0.0
  0
VERTEX
  5
984
  8
NEW
 10
109.6420588520783
 20
-5.637492935593343
 30
0.0
  0
VERTEX
  5
985
  8
NEW
 10
109.6420588520783
 20
-27.81974446452216
 30
0.0
  0
VERTEX
  5
986
  8
NEW
 10
106.4420588520783
 20
-27.81974446452216
 30
0.0
  0
VERTEX
  5
987
  8
NEW
 10
106.4420588520783
 20
-5.637492935593343
 30
0.0
  0
VERTEX
  5
988
  8
NEW
 10
97.5420588520783
 20
-5.637492935593343
 30
0.0
  0
VERTEX
  5
989
  8
NEW
 10
97.54205885207833
 20
-27.81974446452216
 30
0.0
  0
VERTEX
  5
98A
  8
NEW
 10
86.14205885207826
 20
-27.81974446452216
 30
0.0
  0
VERTEX
  5
98B
  8
NEW
 10
86.14205885207826
 20
-18.94684385295062
 30
0.0
  0
VERTEX
  5
98C
  8
NEW
 10
82.94205885207828
 20
-18.94684385295062
 30
0.0
  0
VERTEX
  5
98D
  8
NEW
 10
82.94205885207828
 20
-27.81974446452216
 30
0.0
  0
VERTEX
  5
98E
  8
NEW
 10
76.5420588520783
 20
-27.81974446452216
 30
0.0
  0
VERTEX
  5
98F
  8
NEW
 10
76.5420588520783
 20
3.335354012868606
 30
0.0
  0
VERTEX
  5
990
  8
NEW
 10
97.5420588520783
 20
3.335354012868606
 30
0.0
  0
VERTEX
  5
991
  8
NEW
 10
97.5420588520783
 20
0.7989573689804956
 30
0.0
  0
VERTEX
  5
992
  8
NEW
 10
118.5420588520783
 20
0.7989573689804956
 30
0.0
  0
VERTEX
  5
993
  8
NEW
 10
118.5420588520783
 20
3.335354012868606
 30
0.0
  0
VERTEX
  5
994
  8
NEW
 10
139.5420588520783
 20
3.335354012868606
 30
0.0
  0
VERTEX
  5
995
  8
NEW
 10
139.5420588520783
 20
0.7989573689804956
 30
0.0
  0
VERTEX
  5
996
  8
NEW
 10
160.5420588520783
 20
0.7989573689804956
 30
0.0
  0
VERTEX
  5
997
  8
NEW
 10
160.5420588520783
 20
3.335354012868606
 30
0.0
  0
VERTEX
  5
998
  8
NEW
 10
181.5420588520783
 20
3.335354012868606
 30
0.0
  0
VERTEX
  5
999
  8
NEW
 10
181.5420588520783
 20
-27.81974446452216
 30
0.0
  0
VERTEX
  5
99A
  8
NEW
 10
175.1420588520783
 20
-27.81974446452216
 30
0.0
  0
VERTEX
  5
99B
  8
NEW
 10
175.1420588520783
 20
-18.94684385295062
 30
0.0
  0
VERTEX
  5
99C
  8
NEW
 10
171.9420588520783
 20
-18.94684385295062
 30
0.0
  0
VERTEX
  5
99D
  8
NEW
 10
171.9420588520783
 20
-27.81974446452216
 30
0.0
  0
VERTEX
  5
99E
  8
NEW
 10
130.6420588520783
 20
-27.81974446452216
 30
0.0
  0
VERTEX
  5
99F
  8
NEW
 10
130.6420588520783
 20
-18.94684385295062
 30
0.0
  0
VERTEX
  5
9A0
  8
NEW
 10
127.4420588520783
 20
-18.94684385295062
 30
0.0
  0
VERTEX
  5
9A1
  8
NEW
 10
127.4420588520783
 20
-27.81974446452216
 30
0.0
  0
VERTEX
  5
9A2
  8
NEW
 10
118.5420588520782
 20
-27.81974446452216
 30
0.0
  0
SEQEND
  5
9F7
  8
NEW
  0
POLYLINE
  5
7C8
  8
NEW
 66
     1
 10
0.0
 20
0.0
 30
0.0
 70
     1
  0
VERTEX
  5
9A3
  8
NEW
 10
118.5420588520783
 20
81.38981527223612
 30
0.0
  0
VERTEX
  5
9A4
  8
NEW
 10
109.6420588520783
 20
81.38981527223612
 30
0.0
  0
VERTEX
  5
9A5
  8
NEW
 10
109.6420588520783
 20
103.5720668011649
 30
0.0
  0
VERTEX
  5
9A6
  8
NEW
 10
106.4420588520783
 20
103.5720668011649
 30
0.0
  0
VERTEX
  5
9A7
  8
NEW
 10
106.4420588520783
 20
81.38981527223612
 30
0.0
  0
VERTEX
  5
9A8
  8
NEW
 10
97.54205885207834
 20
81.38981527223612
 30
0.0
  0
VERTEX
  5
9A9
  8
NEW
 10
97.54205885207837
 20
103.5720668011649
 30
0.0
  0
VERTEX
  5
9AA
  8
NEW
 10
86.1420588520783
 20
103.5720668011649
 30
0.0
  0
VERTEX
  5
9AB
  8
NEW
 10
86.1420588520783
 20
94.6991661895934
 30
0.0
  0
VERTEX
  5
9AC
  8
NEW
 10
82.94205885207832
 20
94.6991661895934
 30
0.0
  0
VERTEX
  5
9AD
  8
NEW
 10
82.94205885207832
 20
103.5720668011649
 30
0.0
  0
VERTEX
  5
9AE
  8
NEW
 10
76.54205885207834
 20
103.5720668011649
 30
0.0
  0
VERTEX
  5
9AF
  8
NEW
 10
76.54205885207834
 20
72.41696832377417
 30
0.0
  0
VERTEX
  5
9B0
  8
NEW
 10
97.54205885207834
 20
72.41696832377417
 30
0.0
  0
VERTEX
  5
9B1
  8
NEW
 10
97.54205885207834
 20
74.95336496766228
 30
0.0
  0
VERTEX
  5
9B2
  8
NEW
 10
118.5420588520783
 20
74.95336496766228
 30
0.0
  0
VERTEX
  5
9B3
  8
NEW
 10
118.5420588520783
 20
72.41696832377417
 30
0.0
  0
VERTEX
  5
9B4
  8
NEW
 10
139.5420588520784
 20
72.41696832377417
 30
0.0
  0
VERTEX
  5
9B5
  8
NEW
 10
139.5420588520784
 20
74.95336496766228
 30
0.0
  0
VERTEX
  5
9B6
  8
NEW
 10
160.5420588520784
 20
74.95336496766228
 30
0.0
  0
VERTEX
  5
9B7
  8
NEW
 10
160.5420588520784
 20
72.41696832377417
 30
0.0
  0
VERTEX
  5
9B8
  8
NEW
 10
181.5420588520784
 20
72.41696832377417
 30
0.0
  0
VERTEX
  5
9B9
  8
NEW
 10
181.5420588520784
 20
103.5720668011649
 30
0.0
  0
VERTEX
  5
9BA
  8
NEW
 10
175.1420588520783
 20
103.5720668011649
 30
0.0
  0
VERTEX
  5
9BB
  8
NEW
 10
175.1420588520783
 20
94.6991661895934
 30
0.0
  0
VERTEX
  5
9BC
  8
NEW
 10
171.9420588520784
 20
94.6991661895934
 30
0.0
  0
VERTEX
  5
9BD
  8
NEW
 10
171.9420588520783
 20
103.5720668011649
 30
0.0
  0
VERTEX
  5
9BE
  8
NEW
 10
130.6420588520783
 20
103.5720668011649
 30
0.0
  0
VERTEX
  5
9BF
  8
NEW
 10
130.6420588520783
 20
94.6991661895934
 30
0.0
  0
VERTEX
  5
9C0
  8
NEW
 10
127.4420588520783
 20
94.6991661895934
 30
0.0
  0
VERTEX
  5
9C1
  8
NEW
 10
127.4420588520783
 20
103.5720668011649
 30
0.0
  0
VERTEX
  5
9C2
  8
NEW
 10
118.5420588520783
 20
103.5720668011649
 30
0.0
  0
SEQEND
  5
9F8
  8
NEW
  0
POLYLINE
  5
7CE
  8
NEW
 66
     1
 10
0.0
 20
0.0
 30
0.0
 70
     1
  0
VERTEX
  5
9C3
  8
NEW
 10
3.888837054836898
 20
-28.81974446452216
 30
0.0
  0
VERTEX
  5
9C4
  8
NEW
 10
3.888837054836898
 20
104.5720668011649
 30
0.0
  0
VERTEX
  5
9C5
  8
NEW
 10
182.5420588520783
 20
104.5720668011649
 30
0.0
  0
VERTEX
  5
9C6
  8
NEW
 10
182.5420588520783
 20
-28.81974446452216
 30
0.0
  0
SEQEND
  5
9F9
  8
NEW
  0
ENDSEC
  0
EOF
