  0
SECTION
  2
HEADER
  9
$ACADVER
  1
AC1009
  9
$DWGCODEPAGE
  3
ansi_1252
  9
$INSBASE
 10
0.0
 20
0.0
 30
0.0
  9
$EXTMIN
 10
-796.5220840264521
 20
-496.0545946764414
 30
0.0
  9
$EXTMAX
 10
1722.320483948984
 20
1149.995031954965
 30
0.0
  9
$LIMMIN
 10
0.0
 20
0.0
  9
$LIMMAX
 10
12.0
 20
9.0
  9
$ORTHOMODE
 70
     0
  9
$REGENMODE
 70
     1
  9
$FILLMODE
 70
     1
  9
$QTEXTMODE
 70
     0
  9
$MIRRTEXT
 70
     1
  9
$DRAGMODE
 70
     2
  9
$LTSCALE
 40
1.0
  9
$OSMODE
 70
   255
  9
$ATTMODE
 70
     1
  9
$TEXTSIZE
 40
0.2
  9
$TRACEWID
 40
0.05
  9
$TEXTSTYLE
  7
STANDARD
  9
$CLAYER
  8
1_6MMTOOL_FULLCUT_CUT_OUTS
  9
$CELTYPE
  6
BYLAYER
  9
$CECOLOR
 62
   256
  9
$DIMSCALE
 40
1.0
  9
$DIMASZ
 40
0.18
  9
$DIMEXO
 40
0.0625
  9
$DIMDLI
 40
0.38
  9
$DIMRND
 40
0.0
  9
$DIMDLE
 40
0.0
  9
$DIMEXE
 40
0.18
  9
$DIMTP
 40
0.0
  9
$DIMTM
 40
0.0
  9
$DIMTXT
 40
0.18
  9
$DIMCEN
 40
0.09
  9
$DIMTSZ
 40
0.0
  9
$DIMTOL
 70
     0
  9
$DIMLIM
 70
     0
  9
$DIMTIH
 70
     1
  9
$DIMTOH
 70
     1
  9
$DIMSE1
 70
     0
  9
$DIMSE2
 70
     0
  9
$DIMTAD
 70
     0
  9
$DIMZIN
 70
     0
  9
$DIMBLK
  1

  9
$DIMASO
 70
     1
  9
$DIMSHO
 70
     1
  9
$DIMPOST
  1

  9
$DIMAPOST
  1

  9
$DIMALT
 70
     0
  9
$DIMALTD
 70
     2
  9
$DIMALTF
 40
25.4
  9
$DIMLFAC
 40
1.0
  9
$DIMTOFL
 70
     0
  9
$DIMTVP
 40
0.0
  9
$DIMTIX
 70
     0
  9
$DIMSOXD
 70
     0
  9
$DIMSAH
 70
     0
  9
$DIMBLK1
  1

  9
$DIMBLK2
  1

  9
$DIMSTYLE
  2
STANDARD
  9
$DIMCLRD
 70
     0
  9
$DIMCLRE
 70
     0
  9
$DIMCLRT
 70
     0
  9
$DIMTFAC
 40
1.0
  9
$DIMGAP
 40
0.09
  9
$LUNITS
 70
     2
  9
$LUPREC
 70
     4
  9
$SKETCHINC
 40
0.1
  9
$FILLETRAD
 40
0.5
  9
$AUNITS
 70
     0
  9
$AUPREC
 70
     0
  9
$MENU
  1
.
  9
$ELEVATION
 40
0.0
  9
$PELEVATION
 40
0.0
  9
$THICKNESS
 40
0.0
  9
$LIMCHECK
 70
     0
  9
$CHAMFERA
 40
0.5
  9
$CHAMFERB
 40
0.5
  9
$SKPOLY
 70
     0
  9
$TDCREATE
 40
2456743.49181713
  9
$TDUPDATE
 40
2457892.806207234
  9
$TDINDWG
 40
0.0193339583
  9
$TDUSRTIMER
 40
2457892.929807836
  9
$USRTIMER
 70
     1
  9
$ANGBASE
 50
0.0
  9
$ANGDIR
 70
     0
  9
$PDMODE
 70
     0
  9
$PDSIZE
 40
0.0
  9
$PLINEWID
 40
0.0
  9
$COORDS
 70
     1
  9
$SPLFRAME
 70
     0
  9
$SPLINETYPE
 70
     6
  9
$SPLINESEGS
 70
     8
  9
$ATTDIA
 70
     0
  9
$ATTREQ
 70
     1
  9
$HANDLING
 70
     1
  9
$HANDSEED
  5
6F0
  9
$SURFTAB1
 70
     6
  9
$SURFTAB2
 70
     6
  9
$SURFTYPE
 70
     6
  9
$SURFU
 70
     6
  9
$SURFV
 70
     6
  9
$UCSNAME
  2

  9
$UCSORG
 10
0.0
 20
0.0
 30
0.0
  9
$UCSXDIR
 10
1.0
 20
0.0
 30
0.0
  9
$UCSYDIR
 10
0.0
 20
1.0
 30
0.0
  9
$PUCSNAME
  2

  9
$PUCSORG
 10
0.0
 20
0.0
 30
0.0
  9
$PUCSXDIR
 10
1.0
 20
0.0
 30
0.0
  9
$PUCSYDIR
 10
0.0
 20
1.0
 30
0.0
  9
$USERI1
 70
     0
  9
$USERI2
 70
     0
  9
$USERI3
 70
     0
  9
$USERI4
 70
     0
  9
$USERI5
 70
     0
  9
$USERR1
 40
0.0
  9
$USERR2
 40
0.0
  9
$USERR3
 40
0.0
  9
$USERR4
 40
0.0
  9
$USERR5
 40
0.0
  9
$WORLDVIEW
 70
     1
  9
$SHADEDGE
 70
     3
  9
$SHADEDIF
 70
    70
  9
$TILEMODE
 70
     1
  9
$MAXACTVP
 70
    64
  9
$PLIMCHECK
 70
     0
  9
$PEXTMIN
 10
1.000000000000000E+20
 20
1.000000000000000E+20
 30
1.000000000000000E+20
  9
$PEXTMAX
 10
-1.000000000000000E+20
 20
-1.000000000000000E+20
 30
-1.000000000000000E+20
  9
$PLIMMIN
 10
0.0
 20
0.0
  9
$PLIMMAX
 10
0.0
 20
0.0
  9
$UNITMODE
 70
     0
  9
$VISRETAIN
 70
     1
  9
$PLINEGEN
 70
     0
  9
$PSLTSCALE
 70
     1
  0
ENDSEC
  0
SECTION
  2
TABLES
  0
TABLE
  2
VPORT
 70
     1
  0
VPORT
  2
*ACTIVE
 70
     0
 10
0.0
 20
0.0
 11
1.0
 21
1.0
 12
477.0442836480945
 22
421.554725397194
 13
0.0
 23
0.0
 14
0.5
 24
0.5
 15
0.5
 25
0.5
 16
0.0
 26
0.0
 36
1.0
 17
0.0
 27
0.0
 37
-1000.0
 40
2587.148499652056
 41
1.987684729064039
 42
50.0
 43
2711.366146881166
 44
8141.131957317618
 50
0.0
 51
0.0
 71
    16
 72
   100
 73
     1
 74
     3
 75
     0
 76
     0
 77
     0
 78
     0
  0
ENDTAB
  0
TABLE
  2
LTYPE
 70
     2
  0
LTYPE
  2
CONTINUOUS
 70
     0
  3
Solid line
 72
    65
 73
     0
 40
0.0
  0
LTYPE
  2
PHANTOM2
 70
     0
  3
Phantom (.5x) ___ _ _ ___ _ _ ___ _ _ ___ _ _
 72
    65
 73
     6
 40
1.25
 49
0.625
 49
-0.125
 49
0.125
 49
-0.125
 49
0.125
 49
-0.125
  0
ENDTAB
  0
TABLE
  2
LAYER
 70
     7
  0
LAYER
  2
0
 70
     0
 62
     7
  6
CONTINUOUS
  0
LAYER
  2
1_6MMTOOL_FULLCUT_CUT_OUTS
 70
     0
 62
     5
  6
CONTINUOUS
  0
LAYER
  2
0_BOARD_18MMPLY
 70
     0
 62
     1
  6
CONTINUOUS
  0
ENDTAB
  0
TABLE
  2
STYLE
 70
     1
  0
STYLE
  2
STANDARD
 70
     0
 40
0.0
 41
1.0
 50
0.0
 71
     0
 42
0.2
  3
LH Line1 Sans Thin.ttf
  4

  0
ENDTAB
  0
TABLE
  2
VIEW
 70
     0
  0
ENDTAB
  0
TABLE
  2
UCS
 70
     0
  0
ENDTAB
  0
TABLE
  2
APPID
 70
     7
  0
APPID
  2
ACAD
 70
     0
  0
APPID
  2
ACAECLAYERSTANDARD
 70
     0
  0
APPID
  2
ACCMTRANSPARENCY
 70
     0
  0
APPID
  2
ACAD_NAV_VCDISPLAY
 70
     0
  0
APPID
  2
ACAD_EXEMPT_FROM_CAD_STAND
 70
     0
  0
APPID
  2
ACADANNOPO
 70
     0
  0
APPID
  2
ACAD_MLEADERVER
 70
     0
  0
ENDTAB
  0
TABLE
  2
DIMSTYLE
 70
     1
  0
DIMSTYLE
  2
STANDARD
 70
     0
  3

  4

  5

  6

  7

 40
1.0
 41
0.18
 42
0.0625
 43
0.38
 44
0.18
 45
0.0
 46
0.0
 47
0.0
 48
0.0
140
0.18
141
0.09
142
0.0
143
25.4
144
1.0
145
0.0
146
1.0
147
0.09
 71
     0
 72
     0
 73
     1
 74
     1
 75
     0
 76
     0
 77
     0
 78
     0
170
     0
171
     2
172
     0
173
     0
174
     0
175
     0
176
     0
177
     0
178
     0
  0
ENDTAB
  0
ENDSEC
  0
SECTION
  2
BLOCKS
  0
BLOCK
  8
0
  2
$MODEL_SPACE
 70
     0
 10
0.0
 20
0.0
 30
0.0
  3
$MODEL_SPACE
  1

  0
ENDBLK
  5
21
  8
0
  0
BLOCK
 67
     1
  8
0
  2
$PAPER_SPACE
 70
     0
 10
0.0
 20
0.0
 30
0.0
  3
$PAPER_SPACE
  1

  0
ENDBLK
  5
1D
 67
     1
  8
0
  0
BLOCK
  8
0
  2
*X1
 70
     1
 10
0.0
 20
0.0
 30
0.0
  3
*X1
  1

  0
TEXT
  5
6AC
  8
0_BOARD_18MMPLY
  6
CONTINUOUS
 10
-50.8342779557762
 20
1044.852168667414
 30
0.0
 40
100.0
  1
NOTES
  0
TEXT
  5
6AD
  8
0_BOARD_18MMPLY
  6
CONTINUOUS
 10
-50.8342779557762
 20
811.5188353340806
 30
0.0
 40
40.0
  1
TOLERANCE
  0
TEXT
  5
6AE
  8
0_BOARD_18MMPLY
  6
CONTINUOUS
 10
-50.8342779557762
 20
744.8521686674139
 30
0.0
 40
40.0
  1
Typical offsets of 0.2mm have been applied to these
  0
TEXT
  5
6AF
  8
0_BOARD_18MMPLY
  6
CONTINUOUS
 10
-50.8342779557762
 20
678.1855020007473
 30
0.0
 40
40.0
  1
cutting files.
  0
TEXT
  5
6B0
  8
0_BOARD_18MMPLY
  6
CONTINUOUS
 10
-50.8342779557762
 20
544.852168667414
 30
0.0
 40
40.0
  1
MATERIAL
  0
TEXT
  5
6B1
  8
0_BOARD_18MMPLY
  6
CONTINUOUS
 10
-50.8342779557762
 20
470.6855020007474
 30
0.0
 40
40.0
  1
Sheets of structural grade plywood (suggested: spruce):
  0
TEXT
  5
6B2
  8
0_BOARD_18MMPLY
  6
CONTINUOUS
 10
-50.8342779557762
 20
396.5188353340807
 30
0.0
 40
40.0
  1
18mm x 2400 x 1200. It is equally possible (or possibly
  0
TEXT
  5
6B3
  8
0_BOARD_18MMPLY
  6
CONTINUOUS
 10
-50.8342779557762
 20
322.352168667414
 30
0.0
 40
40.0
  1
preferable) to use 18mm x 2440 x 1220mm
  0
TEXT
  5
6B4
  8
0_BOARD_18MMPLY
  6
CONTINUOUS
 10
-50.8342779557762
 20
189.0188353340806
 30
0.0
 40
40.0
  1
Please check in workshop that sheet thicknesses are
  0
TEXT
  5
6B5
  8
0_BOARD_18MMPLY
  6
CONTINUOUS
 10
-50.8342779557762
 20
122.3521686674139
 30
0.0
 40
40.0
  1
between 17.8-18.2 mm.
  0
TEXT
  5
6B6
  8
0_BOARD_18MMPLY
  6
CONTINUOUS
 10
-50.8342779557762
 20
-10.98116466591939
 30
0.0
 40
40.0
  1
Milling tool can be more or less any size you like,. the
  0
TEXT
  5
6B7
  8
0_BOARD_18MMPLY
  6
CONTINUOUS
 10
-50.8342779557762
 20
-77.64783133258607
 30
0.0
 40
40.0
  1
dogbone rectangles allow for up to 10mm diameter.
  0
TEXT
  5
6B8
  8
0_BOARD_18MMPLY
  6
CONTINUOUS
 10
-50.8342779557762
 20
-144.3144979992528
 30
0.0
 40
40.0
  1
6mm or 9mm are often used.
  0
TEXT
  5
6B9
  8
0_BOARD_18MMPLY
  6
CONTINUOUS
 10
-50.8342779557762
 20
-277.6478313325861
 30
0.0
 40
40.0
  1
LEGAL DISCLAIMER
  0
TEXT
  5
6BA
  8
0_BOARD_18MMPLY
  6
CONTINUOUS
 10
-50.8342779557762
 20
-344.3144979992528
 30
0.0
 40
40.0
  1
You use these files entirely at your own risk. The
  0
TEXT
  5
6BB
  8
0_BOARD_18MMPLY
  6
CONTINUOUS
 10
-50.8342779557762
 20
-410.9811646659195
 30
0.0
 40
40.0
  1
authors do not accept liability for any loss or injury
  0
TEXT
  5
6BC
  8
0_BOARD_18MMPLY
  6
CONTINUOUS
 10
-50.8342779557762
 20
-477.6478313325862
 30
0.0
 40
40.0
  1
which might result from use of this information.
  0
ENDBLK
  5
6EA
  8
0
  0
ENDSEC
  0
SECTION
  2
ENTITIES
  0
INSERT
  5
28C
  8
0_BOARD_18MMPLY
  2
*X1
 10
0.0
 20
0.0
 30
0.0
  0
POLYLINE
  5
2DB
  8
0_BOARD_18MMPLY
 66
     1
 10
0.0
 20
0.0
 30
0.0
 70
     1
  0
VERTEX
  5
6BD
  8
0_BOARD_18MMPLY
 10
-796.5220840264521
 20
1149.995031954965
 30
0.0
  0
VERTEX
  5
6BE
  8
0_BOARD_18MMPLY
 10
-796.5220840264521
 20
-496.0545946764414
 30
0.0
  0
VERTEX
  5
6BF
  8
0_BOARD_18MMPLY
 10
-201.8893437972541
 20
-496.0545946764414
 30
0.0
  0
VERTEX
  5
6C0
  8
0_BOARD_18MMPLY
 10
-201.8893437972547
 20
1149.995031954965
 30
0.0
  0
SEQEND
  5
6EB
  8
0_BOARD_18MMPLY
  0
POLYLINE
  5
5F9
  8
1_6MMTOOL_FULLCUT_CUT_OUTS
 66
     1
 10
0.0
 20
0.0
 30
0.0
 70
     1
  0
VERTEX
  5
6C1
  8
1_6MMTOOL_FULLCUT_CUT_OUTS
 10
-603.1176782952025
 20
1040.6625795732
 30
0.0
  0
VERTEX
  5
6C2
  8
1_6MMTOOL_FULLCUT_CUT_OUTS
 10
-611.3339644191655
 20
1048.878865697163
 30
0.0
  0
VERTEX
  5
6C3
  8
1_6MMTOOL_FULLCUT_CUT_OUTS
 10
-694.9013921711231
 20
1048.878865697163
 30
0.0
  0
VERTEX
  5
6C4
  8
1_6MMTOOL_FULLCUT_CUT_OUTS
 10
-703.1176782952025
 20
1040.662579573083
 30
0.0
  0
VERTEX
  5
6C5
  8
1_6MMTOOL_FULLCUT_CUT_OUTS
 10
-703.1176782952025
 20
907.0951518212424
 30
0.0
  0
VERTEX
  5
6C6
  8
1_6MMTOOL_FULLCUT_CUT_OUTS
 10
-694.9013921711229
 20
898.878865697163
 30
0.0
  0
VERTEX
  5
6C7
  8
1_6MMTOOL_FULLCUT_CUT_OUTS
 10
-611.3339644191655
 20
898.878865697163
 30
0.0
  0
VERTEX
  5
6C8
  8
1_6MMTOOL_FULLCUT_CUT_OUTS
 10
-603.1176782952025
 20
907.0951518211259
 30
0.0
  0
SEQEND
  5
6EC
  8
1_6MMTOOL_FULLCUT_CUT_OUTS
  0
POLYLINE
  5
606
  8
1_6MMTOOL_FULLCUT_CUT_OUTS
 66
     1
 10
0.0
 20
0.0
 30
0.0
 70
     1
  0
VERTEX
  5
6C9
  8
1_6MMTOOL_FULLCUT_CUT_OUTS
 10
-353.1176782952025
 20
774.878865697163
 30
0.0
  0
VERTEX
  5
6CA
  8
1_6MMTOOL_FULLCUT_CUT_OUTS
 10
-603.1176782952025
 20
774.8788656971628
 30
0.0
  0
VERTEX
  5
6CB
  8
1_6MMTOOL_FULLCUT_CUT_OUTS
 10
-603.1176782952025
 20
821.6625795730833
 30
0.0
  0
VERTEX
  5
6CC
  8
1_6MMTOOL_FULLCUT_CUT_OUTS
 10
-611.3339644191655
 20
829.8788656970463
 30
0.0
  0
VERTEX
  5
6CD
  8
1_6MMTOOL_FULLCUT_CUT_OUTS
 10
-694.9013921712395
 20
829.8788656970463
 30
0.0
  0
VERTEX
  5
6CE
  8
1_6MMTOOL_FULLCUT_CUT_OUTS
 10
-703.1176782952025
 20
821.6625795730833
 30
0.0
  0
VERTEX
  5
6CF
  8
1_6MMTOOL_FULLCUT_CUT_OUTS
 10
-703.1176782952025
 20
688.095151821126
 30
0.0
  0
VERTEX
  5
6D0
  8
1_6MMTOOL_FULLCUT_CUT_OUTS
 10
-694.9013921712394
 20
679.878865697163
 30
0.0
  0
VERTEX
  5
6D1
  8
1_6MMTOOL_FULLCUT_CUT_OUTS
 10
-611.3339644191655
 20
679.878865697163
 30
0.0
  0
VERTEX
  5
6D2
  8
1_6MMTOOL_FULLCUT_CUT_OUTS
 10
-603.1176782952025
 20
688.095151821126
 30
0.0
  0
VERTEX
  5
6D3
  8
1_6MMTOOL_FULLCUT_CUT_OUTS
 10
-603.1176782952025
 20
734.8788656971628
 30
0.0
  0
VERTEX
  5
6D4
  8
1_6MMTOOL_FULLCUT_CUT_OUTS
 10
-353.1176782952025
 20
734.878865697163
 30
0.0
  0
SEQEND
  5
6ED
  8
1_6MMTOOL_FULLCUT_CUT_OUTS
  0
POLYLINE
  5
613
  8
1_6MMTOOL_FULLCUT_CUT_OUTS
 66
     1
 10
0.0
 20
0.0
 30
0.0
 70
     1
  0
VERTEX
  5
6D5
  8
1_6MMTOOL_FULLCUT_CUT_OUTS
 10
-603.1176782952025
 20
635.1410528965971
 30
0.0
  0
VERTEX
  5
6D6
  8
1_6MMTOOL_FULLCUT_CUT_OUTS
 10
-611.3339644191655
 20
643.3573390205602
 30
0.0
  0
VERTEX
  5
6D7
  8
1_6MMTOOL_FULLCUT_CUT_OUTS
 10
-694.9013921711229
 20
643.3573390205602
 30
0.0
  0
VERTEX
  5
6D8
  8
1_6MMTOOL_FULLCUT_CUT_OUTS
 10
-703.1176782952025
 20
635.1410528964808
 30
0.0
  0
VERTEX
  5
6D9
  8
1_6MMTOOL_FULLCUT_CUT_OUTS
 10
-703.1176782952025
 20
501.5736251446397
 30
0.0
  0
VERTEX
  5
6DA
  8
1_6MMTOOL_FULLCUT_CUT_OUTS
 10
-694.9013921710066
 20
493.3573390204438
 30
0.0
  0
VERTEX
  5
6DB
  8
1_6MMTOOL_FULLCUT_CUT_OUTS
 10
-611.3339644191655
 20
493.3573390204438
 30
0.0
  0
VERTEX
  5
6DC
  8
1_6MMTOOL_FULLCUT_CUT_OUTS
 10
-603.1176782952025
 20
501.5736251444069
 30
0.0
  0
VERTEX
  5
6DD
  8
1_6MMTOOL_FULLCUT_CUT_OUTS
 10
-603.1176782952025
 20
548.35733902056
 30
0.0
  0
VERTEX
  5
6DE
  8
1_6MMTOOL_FULLCUT_CUT_OUTS
 10
-353.1176782952025
 20
548.3573390205602
 30
0.0
  0
VERTEX
  5
6DF
  8
1_6MMTOOL_FULLCUT_CUT_OUTS
 10
-353.1176782952025
 20
588.3573390205603
 30
0.0
  0
VERTEX
  5
6E0
  8
1_6MMTOOL_FULLCUT_CUT_OUTS
 10
-603.1176782952025
 20
588.35733902056
 30
0.0
  0
SEQEND
  5
6EE
  8
1_6MMTOOL_FULLCUT_CUT_OUTS
  0
POLYLINE
  5
61C
  8
1_6MMTOOL_FULLCUT_CUT_OUTS
 66
     1
 10
0.0
 20
0.0
 30
0.0
 70
     1
  0
VERTEX
  5
6E1
  8
1_6MMTOOL_FULLCUT_CUT_OUTS
 10
-603.1176782952025
 20
405.1410528965972
 30
0.0
  0
VERTEX
  5
6E2
  8
1_6MMTOOL_FULLCUT_CUT_OUTS
 10
-611.3339644191655
 20
413.3573390205603
 30
0.0
  0
VERTEX
  5
6E3
  8
1_6MMTOOL_FULLCUT_CUT_OUTS
 10
-694.9013921711229
 20
413.3573390205603
 30
0.0
  0
VERTEX
  5
6E4
  8
1_6MMTOOL_FULLCUT_CUT_OUTS
 10
-703.1176782952025
 20
405.1410528964807
 30
0.0
  0
VERTEX
  5
6E5
  8
1_6MMTOOL_FULLCUT_CUT_OUTS
 10
-703.1176782952025
 20
271.5736251446398
 30
0.0
  0
VERTEX
  5
6E6
  8
1_6MMTOOL_FULLCUT_CUT_OUTS
 10
-694.9013921711229
 20
263.3573390205603
 30
0.0
  0
VERTEX
  5
6E7
  8
1_6MMTOOL_FULLCUT_CUT_OUTS
 10
-611.3339644191655
 20
263.3573390205603
 30
0.0
  0
VERTEX
  5
6E8
  8
1_6MMTOOL_FULLCUT_CUT_OUTS
 10
-603.1176782952025
 20
271.5736251445234
 30
0.0
  0
SEQEND
  5
6EF
  8
1_6MMTOOL_FULLCUT_CUT_OUTS
  0
ENDSEC
  0
EOF
