  0
SECTION
  2
HEADER
  9
$ACADVER
  1
AC1009
  9
$DWGCODEPAGE
  3
ansi_1252
  9
$INSBASE
 10
0.0
 20
0.0
 30
0.0
  9
$EXTMIN
 10
1.000000000000000E+20
 20
1.000000000000000E+20
 30
1.000000000000000E+20
  9
$EXTMAX
 10
-1.000000000000000E+20
 20
-1.000000000000000E+20
 30
-1.000000000000000E+20
  9
$LIMMIN
 10
0.0
 20
0.0
  9
$LIMMAX
 10
12.0
 20
9.0
  9
$ORTHOMODE
 70
     0
  9
$REGENMODE
 70
     1
  9
$FILLMODE
 70
     1
  9
$QTEXTMODE
 70
     0
  9
$MIRRTEXT
 70
     1
  9
$DRAGMODE
 70
     2
  9
$LTSCALE
 40
1.0
  9
$OSMODE
 70
   255
  9
$ATTMODE
 70
     1
  9
$TEXTSIZE
 40
1.0
  9
$TRACEWID
 40
0.05
  9
$TEXTSTYLE
  7
STANDARD
  9
$CLAYER
  8
0
  9
$CELTYPE
  6
BYBLOCK
  9
$CECOLOR
 62
   256
  9
$DIMSCALE
 40
1.0
  9
$DIMASZ
 40
0.18
  9
$DIMEXO
 40
0.0625
  9
$DIMDLI
 40
0.38
  9
$DIMRND
 40
0.0
  9
$DIMDLE
 40
0.0
  9
$DIMEXE
 40
0.18
  9
$DIMTP
 40
0.0
  9
$DIMTM
 40
0.0
  9
$DIMTXT
 40
0.18
  9
$DIMCEN
 40
0.09
  9
$DIMTSZ
 40
0.0
  9
$DIMTOL
 70
     0
  9
$DIMLIM
 70
     0
  9
$DIMTIH
 70
     1
  9
$DIMTOH
 70
     1
  9
$DIMSE1
 70
     0
  9
$DIMSE2
 70
     0
  9
$DIMTAD
 70
     0
  9
$DIMZIN
 70
     0
  9
$DIMBLK
  1

  9
$DIMASO
 70
     1
  9
$DIMSHO
 70
     1
  9
$DIMPOST
  1

  9
$DIMAPOST
  1

  9
$DIMALT
 70
     0
  9
$DIMALTD
 70
     2
  9
$DIMALTF
 40
25.4
  9
$DIMLFAC
 40
1.0
  9
$DIMTOFL
 70
     0
  9
$DIMTVP
 40
0.0
  9
$DIMTIX
 70
     0
  9
$DIMSOXD
 70
     0
  9
$DIMSAH
 70
     0
  9
$DIMBLK1
  1

  9
$DIMBLK2
  1

  9
$DIMSTYLE
  2
STANDARD
  9
$DIMCLRD
 70
     0
  9
$DIMCLRE
 70
     0
  9
$DIMCLRT
 70
     0
  9
$DIMTFAC
 40
1.0
  9
$DIMGAP
 40
0.09
  9
$LUNITS
 70
     2
  9
$LUPREC
 70
     4
  9
$SKETCHINC
 40
0.1
  9
$FILLETRAD
 40
0.5
  9
$AUNITS
 70
     0
  9
$AUPREC
 70
     0
  9
$MENU
  1
.
  9
$ELEVATION
 40
0.0
  9
$PELEVATION
 40
0.0
  9
$THICKNESS
 40
0.0
  9
$LIMCHECK
 70
     0
  9
$CHAMFERA
 40
0.0
  9
$CHAMFERB
 40
0.0
  9
$SKPOLY
 70
     0
  9
$TDCREATE
 40
2457934.785907674
  9
$TDUPDATE
 40
2457989.519826725
  9
$TDINDWG
 40
0.0000089815
  9
$TDUSRTIMER
 40
2457989.633734062
  9
$USRTIMER
 70
     1
  9
$ANGBASE
 50
0.0
  9
$ANGDIR
 70
     0
  9
$PDMODE
 70
     0
  9
$PDSIZE
 40
0.0
  9
$PLINEWID
 40
0.0
  9
$COORDS
 70
     1
  9
$SPLFRAME
 70
     0
  9
$SPLINETYPE
 70
     6
  9
$SPLINESEGS
 70
     8
  9
$ATTDIA
 70
     0
  9
$ATTREQ
 70
     1
  9
$HANDLING
 70
     1
  9
$HANDSEED
  5
DBB6
  9
$SURFTAB1
 70
     6
  9
$SURFTAB2
 70
     6
  9
$SURFTYPE
 70
     6
  9
$SURFU
 70
     6
  9
$SURFV
 70
     6
  9
$UCSNAME
  2

  9
$UCSORG
 10
0.0
 20
0.0
 30
0.0
  9
$UCSXDIR
 10
1.0
 20
0.0
 30
0.0
  9
$UCSYDIR
 10
0.0
 20
1.0
 30
0.0
  9
$PUCSNAME
  2

  9
$PUCSORG
 10
0.0
 20
0.0
 30
0.0
  9
$PUCSXDIR
 10
1.0
 20
0.0
 30
0.0
  9
$PUCSYDIR
 10
0.0
 20
1.0
 30
0.0
  9
$USERI1
 70
     0
  9
$USERI2
 70
     0
  9
$USERI3
 70
     0
  9
$USERI4
 70
     0
  9
$USERI5
 70
     0
  9
$USERR1
 40
0.0
  9
$USERR2
 40
0.0
  9
$USERR3
 40
0.0
  9
$USERR4
 40
0.0
  9
$USERR5
 40
0.0
  9
$WORLDVIEW
 70
     1
  9
$SHADEDGE
 70
     3
  9
$SHADEDIF
 70
    70
  9
$TILEMODE
 70
     1
  9
$MAXACTVP
 70
    64
  9
$PLIMCHECK
 70
     0
  9
$PEXTMIN
 10
1.000000000000000E+20
 20
1.000000000000000E+20
 30
1.000000000000000E+20
  9
$PEXTMAX
 10
-1.000000000000000E+20
 20
-1.000000000000000E+20
 30
-1.000000000000000E+20
  9
$PLIMMIN
 10
0.0
 20
0.0
  9
$PLIMMAX
 10
0.0
 20
0.0
  9
$UNITMODE
 70
     0
  9
$VISRETAIN
 70
     1
  9
$PLINEGEN
 70
     0
  9
$PSLTSCALE
 70
     1
  0
ENDSEC
  0
SECTION
  2
TABLES
  0
TABLE
  2
VPORT
 70
     1
  0
VPORT
  2
*ACTIVE
 70
     0
 10
0.0
 20
0.0
 11
1.0
 21
1.0
 12
834.0627561465215
 22
1200.017682480535
 13
0.0
 23
0.0
 14
0.5
 24
0.5
 15
0.5
 25
0.5
 16
0.0
 26
0.0
 36
1.0
 17
0.0
 27
0.0
 37
0.0
 40
2607.140529914508
 41
1.912322274881517
 42
50.0
 43
0.0
 44
0.0
 50
0.0
 51
0.0
 71
    16
 72
   100
 73
     1
 74
     3
 75
     0
 76
     0
 77
     0
 78
     0
  0
ENDTAB
  0
TABLE
  2
LTYPE
 70
     1
  0
LTYPE
  2
CONTINUOUS
 70
     0
  3
Solid line
 72
    65
 73
     0
 40
0.0
  0
ENDTAB
  0
TABLE
  2
LAYER
 70
     5
  0
LAYER
  2
0
 70
     0
 62
     7
  6
CONTINUOUS
  0
LAYER
  2
VIEWS_MODULE
 70
     0
 62
     7
  6
CONTINUOUS
  0
LAYER
  2
TAGS
 70
     0
 62
     7
  6
CONTINUOUS
  0
LAYER
  2
CUTS
 70
     0
 62
     7
  6
CONTINUOUS
  0
LAYER
  2
OUTLINES
 70
     0
 62
     7
  6
CONTINUOUS
  0
ENDTAB
  0
TABLE
  2
STYLE
 70
     1
  0
STYLE
  2
STANDARD
 70
     0
 40
0.0
 41
1.0
 50
0.0
 71
     0
 42
1.0
  3
ARIAL.TTF
  4

  0
ENDTAB
  0
TABLE
  2
VIEW
 70
     0
  0
ENDTAB
  0
TABLE
  2
UCS
 70
     0
  0
ENDTAB
  0
TABLE
  2
APPID
 70
     1
  0
APPID
  2
ACAD
 70
     0
  0
ENDTAB
  0
TABLE
  2
DIMSTYLE
 70
     1
  0
DIMSTYLE
  2
STANDARD
 70
     0
  3

  4

  5

  6

  7

 40
1.0
 41
0.18
 42
0.0625
 43
0.38
 44
0.18
 45
0.0
 46
0.0
 47
0.0
 48
0.0
140
0.18
141
0.09
142
0.0
143
25.4
144
1.0
145
0.0
146
1.0
147
0.09
 71
     0
 72
     0
 73
     1
 74
     1
 75
     0
 76
     0
 77
     0
 78
     0
170
     0
171
     2
172
     0
173
     0
174
     0
175
     0
176
     0
177
     0
178
     0
  0
ENDTAB
  0
ENDSEC
  0
SECTION
  2
BLOCKS
  0
BLOCK
  8
0
  2
$MODEL_SPACE
 70
     0
 10
0.0
 20
0.0
 30
0.0
  3
$MODEL_SPACE
  1

  0
ENDBLK
  5
6D4C
  8
0
  0
BLOCK
 67
     1
  8
0
  2
$PAPER_SPACE
 70
     0
 10
0.0
 20
0.0
 30
0.0
  3
$PAPER_SPACE
  1

  0
ENDBLK
  5
6D4E
 67
     1
  8
0
  0
BLOCK
  8
VIEWS_MODULE
  2
ARRAY
 70
     0
 10
0.0
 20
0.0
 30
0.0
  3
ARRAY
  1

  0
CIRCLE
  5
2B
  8
VIEWS_MODULE
 62
     0
 10
-6300.0
 20
-2400.0
 30
0.0
 40
50.0
  0
CIRCLE
  5
2C
  8
VIEWS_MODULE
 62
     0
 10
-6300.0
 20
-2200.0
 30
0.0
 40
50.0
  0
CIRCLE
  5
2D
  8
VIEWS_MODULE
 62
     0
 10
-6100.0
 20
-2400.0
 30
0.0
 40
50.0
  0
CIRCLE
  5
2E
  8
VIEWS_MODULE
 62
     0
 10
-6100.0
 20
-2200.0
 30
0.0
 40
50.0
  0
CIRCLE
  5
2F
  8
VIEWS_MODULE
 62
     0
 10
-5900.0
 20
-2400.0
 30
0.0
 40
50.0
  0
CIRCLE
  5
30
  8
VIEWS_MODULE
 62
     0
 10
-5900.0
 20
-2200.0
 30
0.0
 40
50.0
  0
CIRCLE
  5
31
  8
VIEWS_MODULE
 62
     0
 10
-5700.0
 20
-2400.0
 30
0.0
 40
50.0
  0
CIRCLE
  5
32
  8
VIEWS_MODULE
 62
     0
 10
-5700.0
 20
-2200.0
 30
0.0
 40
50.0
  0
CIRCLE
  5
33
  8
VIEWS_MODULE
 62
     0
 10
-5500.0
 20
-2400.0
 30
0.0
 40
50.0
  0
CIRCLE
  5
34
  8
VIEWS_MODULE
 62
     0
 10
-5500.0
 20
-2200.0
 30
0.0
 40
50.0
  0
CIRCLE
  5
35
  8
VIEWS_MODULE
 62
     0
 10
-5300.0
 20
-2400.0
 30
0.0
 40
50.0
  0
CIRCLE
  5
36
  8
VIEWS_MODULE
 62
     0
 10
-5300.0
 20
-2200.0
 30
0.0
 40
50.0
  0
ENDBLK
  5
37
  8
0
  0
ENDSEC
  0
SECTION
  2
ENTITIES
  0
POLYLINE
  5
5EB1
  8
OUTLINES
 62
     5
 66
     1
 10
0.0
 20
0.0
 30
0.0
 70
     1
  0
VERTEX
  5
D865
  8
OUTLINES
 62
     5
 10
284.9996337899984
 20
220.7496337909997
 30
0.0
  0
VERTEX
  5
D866
  8
OUTLINES
 62
     5
 10
261.9996337899984
 20
220.7496337909997
 30
0.0
  0
VERTEX
  5
D867
  8
OUTLINES
 62
     5
 10
261.9996337899984
 20
230.7496185319997
 30
0.0
  0
VERTEX
  5
D868
  8
OUTLINES
 62
     5
 10
266.9996337899984
 20
230.7496185319997
 30
0.0
  0
VERTEX
  5
D869
  8
OUTLINES
 62
     5
 10
266.9996337899984
 20
390.7492904680003
 30
0.0
  0
VERTEX
  5
D86A
  8
OUTLINES
 62
     5
 10
261.9996337899984
 20
390.7492904680003
 30
0.0
  0
VERTEX
  5
D86B
  8
OUTLINES
 62
     5
 10
261.9996337899984
 20
400.7492675800004
 30
0.0
  0
VERTEX
  5
D86C
  8
OUTLINES
 62
     5
 10
284.9996337899984
 20
400.7492675800004
 30
0.0
  0
VERTEX
  5
D86D
  8
OUTLINES
 62
     5
 10
284.9996337899984
 20
520.7490234389988
 30
0.0
  0
VERTEX
  5
D86E
  8
OUTLINES
 62
     5
 10
261.9996337899984
 20
520.7490234389988
 30
0.0
  0
VERTEX
  5
D86F
  8
OUTLINES
 62
     5
 10
261.9996337899984
 20
530.749000550999
 30
0.0
  0
VERTEX
  5
D870
  8
OUTLINES
 62
     5
 10
266.9996337899984
 20
530.749000550999
 30
0.0
  0
VERTEX
  5
D871
  8
OUTLINES
 62
     5
 10
266.9996337899984
 20
690.7486724869996
 30
0.0
  0
VERTEX
  5
D872
  8
OUTLINES
 62
     5
 10
261.9996337899984
 20
690.7486724869996
 30
0.0
  0
VERTEX
  5
D873
  8
OUTLINES
 62
     5
 10
261.9996337899984
 20
700.748657229
 30
0.0
  0
VERTEX
  5
D874
  8
OUTLINES
 62
     5
 10
284.9996337899984
 20
700.748657229
 30
0.0
  0
VERTEX
  5
D875
  8
OUTLINES
 62
     5
 10
284.9996337899984
 20
820.7484130880002
 30
0.0
  0
VERTEX
  5
D876
  8
OUTLINES
 62
     5
 10
261.9996337899984
 20
820.7484130880002
 30
0.0
  0
VERTEX
  5
D877
  8
OUTLINES
 62
     5
 10
261.9996337899984
 20
830.7483825700001
 30
0.0
  0
VERTEX
  5
D878
  8
OUTLINES
 62
     5
 10
266.9996337899984
 20
830.7483825700001
 30
0.0
  0
VERTEX
  5
D879
  8
OUTLINES
 62
     5
 10
266.9996337899984
 20
990.7481079119989
 30
0.0
  0
VERTEX
  5
D87A
  8
OUTLINES
 62
     5
 10
261.9996337899984
 20
990.7481079119989
 30
0.0
  0
VERTEX
  5
D87B
  8
OUTLINES
 62
     5
 10
261.9996337899984
 20
1000.748046876999
 30
0.0
  0
VERTEX
  5
D87C
  8
OUTLINES
 62
     5
 10
284.9996337899984
 20
1000.748046876999
 30
0.0
  0
VERTEX
  5
D87D
  8
OUTLINES
 62
     5
 10
284.9996337899984
 20
1120.7478027364
 30
0.0
  0
VERTEX
  5
D87E
  8
OUTLINES
 62
     5
 10
261.9996337899984
 20
1120.7478027364
 30
0.0
  0
VERTEX
  5
D87F
  8
OUTLINES
 62
     5
 10
261.9996337899984
 20
1130.7478027364
 30
0.0
  0
VERTEX
  5
D880
  8
OUTLINES
 62
     5
 10
266.9996337899984
 20
1130.7478027364
 30
0.0
  0
VERTEX
  5
D881
  8
OUTLINES
 62
     5
 10
266.9996337899984
 20
1201.7476806661
 30
0.0
  0
VERTEX
  5
D882
  8
OUTLINES
 62
     5
 10
245.9996948199987
 20
1201.7476806661
 30
0.0
  0
VERTEX
  5
D883
  8
OUTLINES
 62
     5
 10
245.9996948199987
 20
1196.7476196309
 30
0.0
  0
VERTEX
  5
D884
  8
OUTLINES
 62
     5
 10
235.9996948199987
 20
1196.7476196309
 30
0.0
  0
VERTEX
  5
D885
  8
OUTLINES
 62
     5
 10
235.9996948199987
 20
1224.7476196309
 30
0.0
  0
VERTEX
  5
D886
  8
OUTLINES
 62
     5
 10
245.9996948199987
 20
1224.7476196309
 30
0.0
  0
VERTEX
  5
D887
  8
OUTLINES
 62
     5
 10
245.9996948199987
 20
1219.7475585957
 30
0.0
  0
VERTEX
  5
D888
  8
OUTLINES
 62
     5
 10
266.9996337899984
 20
1219.7475585957
 30
0.0
  0
VERTEX
  5
D889
  8
OUTLINES
 62
     5
 10
266.9996337899984
 20
1290.74737549
 30
0.0
  0
VERTEX
  5
D88A
  8
OUTLINES
 62
     5
 10
261.9996337899984
 20
1290.74737549
 30
0.0
  0
VERTEX
  5
D88B
  8
OUTLINES
 62
     5
 10
261.9996337899984
 20
1300.747497561
 30
0.0
  0
VERTEX
  5
D88C
  8
OUTLINES
 62
     5
 10
284.9996337899984
 20
1300.747497561
 30
0.0
  0
VERTEX
  5
D88D
  8
OUTLINES
 62
     5
 10
284.9996337899984
 20
1420.747192384999
 30
0.0
  0
VERTEX
  5
D88E
  8
OUTLINES
 62
     5
 10
261.9996337899984
 20
1420.747192384999
 30
0.0
  0
VERTEX
  5
D88F
  8
OUTLINES
 62
     5
 10
261.9996337899984
 20
1430.747192384999
 30
0.0
  0
VERTEX
  5
D890
  8
OUTLINES
 62
     5
 10
266.9996337899984
 20
1430.747192384999
 30
0.0
  0
VERTEX
  5
D891
  8
OUTLINES
 62
     5
 10
266.9996337899984
 20
1590.746826174
 30
0.0
  0
VERTEX
  5
D892
  8
OUTLINES
 62
     5
 10
261.9996337899984
 20
1590.746826174
 30
0.0
  0
VERTEX
  5
D893
  8
OUTLINES
 62
     5
 10
261.9996337899984
 20
1600.746826174
 30
0.0
  0
VERTEX
  5
D894
  8
OUTLINES
 62
     5
 10
284.9996337899984
 20
1600.746826174
 30
0.0
  0
VERTEX
  5
D895
  8
OUTLINES
 62
     5
 10
284.9996337899984
 20
1720.746582033
 30
0.0
  0
VERTEX
  5
D896
  8
OUTLINES
 62
     5
 10
243.9996948199987
 20
1720.746582033
 30
0.0
  0
VERTEX
  5
D897
  8
OUTLINES
 62
     5
 10
243.9996948199987
 20
1730.746459963
 30
0.0
  0
VERTEX
  5
D898
  8
OUTLINES
 62
     5
 10
248.9996948199987
 20
1730.746459963
 30
0.0
  0
VERTEX
  5
D899
  8
OUTLINES
 62
     5
 10
248.9996948199987
 20
1890.746215821999
 30
0.0
  0
VERTEX
  5
D89A
  8
OUTLINES
 62
     5
 10
243.9996948199987
 20
1890.746215821999
 30
0.0
  0
VERTEX
  5
D89B
  8
OUTLINES
 62
     5
 10
243.9996948199987
 20
1900.746215821999
 30
0.0
  0
VERTEX
  5
D89C
  8
OUTLINES
 62
     5
 10
284.9996337899984
 20
1900.746215821999
 30
0.0
  0
VERTEX
  5
D89D
  8
OUTLINES
 62
     5
 10
284.9996337899984
 20
2020.745971681999
 30
0.0
  0
VERTEX
  5
D89E
  8
OUTLINES
 62
     5
 10
243.9996948199987
 20
2020.745971681999
 30
0.0
  0
VERTEX
  5
D89F
  8
OUTLINES
 62
     5
 10
243.9996948199987
 20
2030.745971681999
 30
0.0
  0
VERTEX
  5
D8A0
  8
OUTLINES
 62
     5
 10
248.9996948199987
 20
2030.745971681999
 30
0.0
  0
VERTEX
  5
D8A1
  8
OUTLINES
 62
     5
 10
248.9996948199987
 20
2190.74560547
 30
0.0
  0
VERTEX
  5
D8A2
  8
OUTLINES
 62
     5
 10
243.9996948199987
 20
2190.74560547
 30
0.0
  0
VERTEX
  5
D8A3
  8
OUTLINES
 62
     5
 10
243.9996948199987
 20
2200.74560547
 30
0.0
  0
VERTEX
  5
D8A4
  8
OUTLINES
 62
     5
 10
284.9996337899984
 20
2200.74560547
 30
0.0
  0
VERTEX
  5
D8A5
  8
OUTLINES
 62
     5
 10
284.9996337899975
 20
2285.7454834
 30
0.0
  0
VERTEX
  5
D8A6
  8
OUTLINES
 62
     5
 10
209.9997558599989
 20
2285.7454834
 30
0.0
  0
VERTEX
  5
D8A7
  8
OUTLINES
 62
     5
 10
209.9997558599989
 20
20.0
 30
0.0
  0
VERTEX
  5
D8A8
  8
OUTLINES
 62
     5
 10
266.9996337899984
 20
20.0
 30
0.0
  0
VERTEX
  5
D8A9
  8
OUTLINES
 62
     5
 10
266.9996337899984
 20
90.74990844999957
 30
0.0
  0
VERTEX
  5
D8AA
  8
OUTLINES
 62
     5
 10
261.9996337899984
 20
90.74990844999957
 30
0.0
  0
VERTEX
  5
D8AB
  8
OUTLINES
 62
     5
 10
261.9996337899984
 20
100.7498779300004
 30
0.0
  0
VERTEX
  5
D8AC
  8
OUTLINES
 62
     5
 10
284.9996337899984
 20
100.7498779300004
 30
0.0
  0
SEQEND
  5
DBA9
  8
OUTLINES
 62
     5
  0
POLYLINE
  5
6120
  8
OUTLINES
 62
     5
 66
     1
 10
0.0
 20
0.0
 30
0.0
 70
     1
  0
VERTEX
  5
D8AD
  8
OUTLINES
 62
     5
 10
759.9990234399975
 20
20.0
 30
0.0
  0
VERTEX
  5
D8AE
  8
OUTLINES
 62
     5
 10
684.9991455099971
 20
20.0
 30
0.0
  0
VERTEX
  5
D8AF
  8
OUTLINES
 62
     5
 10
684.9991455099971
 20
2206.582366940002
 30
0.0
  0
VERTEX
  5
D8B0
  8
OUTLINES
 62
     5
 10
759.9990234399975
 20
2206.582366940002
 30
0.0
  0
VERTEX
  5
D8B1
  8
OUTLINES
 62
     5
 10
759.9990234399975
 20
2139.582489010001
 30
0.0
  0
VERTEX
  5
D8B2
  8
OUTLINES
 62
     5
 10
718.9990844699978
 20
2139.582489010001
 30
0.0
  0
VERTEX
  5
D8B3
  8
OUTLINES
 62
     5
 10
718.9990844699978
 20
2129.58251953
 30
0.0
  0
VERTEX
  5
D8B4
  8
OUTLINES
 62
     5
 10
723.9990844699978
 20
2129.58251953
 30
0.0
  0
VERTEX
  5
D8B5
  8
OUTLINES
 62
     5
 10
723.9990844699978
 20
1969.582824705001
 30
0.0
  0
VERTEX
  5
D8B6
  8
OUTLINES
 62
     5
 10
718.9990844699978
 20
1969.582824705001
 30
0.0
  0
VERTEX
  5
D8B7
  8
OUTLINES
 62
     5
 10
718.9990844699978
 20
1959.582885741002
 30
0.0
  0
VERTEX
  5
D8B8
  8
OUTLINES
 62
     5
 10
759.9990234399975
 20
1959.582885741002
 30
0.0
  0
VERTEX
  5
D8B9
  8
OUTLINES
 62
     5
 10
759.9990234399975
 20
1839.583129881001
 30
0.0
  0
VERTEX
  5
D8BA
  8
OUTLINES
 62
     5
 10
718.9990844699978
 20
1839.583129881001
 30
0.0
  0
VERTEX
  5
D8BB
  8
OUTLINES
 62
     5
 10
718.9990844699978
 20
1829.583190916001
 30
0.0
  0
VERTEX
  5
D8BC
  8
OUTLINES
 62
     5
 10
723.9990844699978
 20
1829.583190916001
 30
0.0
  0
VERTEX
  5
D8BD
  8
OUTLINES
 62
     5
 10
723.9990844699978
 20
1669.583496092
 30
0.0
  0
VERTEX
  5
D8BE
  8
OUTLINES
 62
     5
 10
718.9990844699978
 20
1669.583496092
 30
0.0
  0
VERTEX
  5
D8BF
  8
OUTLINES
 62
     5
 10
718.9990844699978
 20
1659.583496092
 30
0.0
  0
VERTEX
  5
D8C0
  8
OUTLINES
 62
     5
 10
759.9990234399975
 20
1659.583496092
 30
0.0
  0
VERTEX
  5
D8C1
  8
OUTLINES
 62
     5
 10
759.9990234399975
 20
1539.583740233
 30
0.0
  0
VERTEX
  5
D8C2
  8
OUTLINES
 62
     5
 10
736.9990234399975
 20
1539.583740233
 30
0.0
  0
VERTEX
  5
D8C3
  8
OUTLINES
 62
     5
 10
736.9990234399975
 20
1529.583801268001
 30
0.0
  0
VERTEX
  5
D8C4
  8
OUTLINES
 62
     5
 10
741.9990234399975
 20
1529.583801268001
 30
0.0
  0
VERTEX
  5
D8C5
  8
OUTLINES
 62
     5
 10
741.9990234399975
 20
1458.583862303001
 30
0.0
  0
VERTEX
  5
D8C6
  8
OUTLINES
 62
     5
 10
720.9990844699978
 20
1458.583862303001
 30
0.0
  0
VERTEX
  5
D8C7
  8
OUTLINES
 62
     5
 10
720.9990844699978
 20
1463.583862303001
 30
0.0
  0
VERTEX
  5
D8C8
  8
OUTLINES
 62
     5
 10
710.9990844699978
 20
1463.583862303001
 30
0.0
  0
VERTEX
  5
D8C9
  8
OUTLINES
 62
     5
 10
710.9990844699978
 20
1435.583862303001
 30
0.0
  0
VERTEX
  5
D8CA
  8
OUTLINES
 62
     5
 10
720.9990844699978
 20
1435.583862303001
 30
0.0
  0
VERTEX
  5
D8CB
  8
OUTLINES
 62
     5
 10
720.9990844699978
 20
1440.583862303001
 30
0.0
  0
VERTEX
  5
D8CC
  8
OUTLINES
 62
     5
 10
741.9990234399975
 20
1440.583862303001
 30
0.0
  0
VERTEX
  5
D8CD
  8
OUTLINES
 62
     5
 10
741.9990234399975
 20
1369.584106444001
 30
0.0
  0
VERTEX
  5
D8CE
  8
OUTLINES
 62
     5
 10
736.9990234399975
 20
1369.584106444001
 30
0.0
  0
VERTEX
  5
D8CF
  8
OUTLINES
 62
     5
 10
736.9990234399975
 20
1359.584106444001
 30
0.0
  0
VERTEX
  5
D8D0
  8
OUTLINES
 62
     5
 10
759.9990234399975
 20
1359.584106444001
 30
0.0
  0
VERTEX
  5
D8D1
  8
OUTLINES
 62
     5
 10
759.9990234399975
 20
1239.584350584
 30
0.0
  0
VERTEX
  5
D8D2
  8
OUTLINES
 62
     5
 10
736.9990234399975
 20
1239.584350584
 30
0.0
  0
VERTEX
  5
D8D3
  8
OUTLINES
 62
     5
 10
736.9990234399975
 20
1229.584350584
 30
0.0
  0
VERTEX
  5
D8D4
  8
OUTLINES
 62
     5
 10
741.9990234399975
 20
1229.584350584
 30
0.0
  0
VERTEX
  5
D8D5
  8
OUTLINES
 62
     5
 10
741.9990234399975
 20
1069.5845947249
 30
0.0
  0
VERTEX
  5
D8D6
  8
OUTLINES
 62
     5
 10
736.9990234399975
 20
1069.5845947249
 30
0.0
  0
VERTEX
  5
D8D7
  8
OUTLINES
 62
     5
 10
736.9987792999973
 20
1059.5845947249
 30
0.0
  0
VERTEX
  5
D8D8
  8
OUTLINES
 62
     5
 10
759.9990234399975
 20
1059.5845947249
 30
0.0
  0
VERTEX
  5
D8D9
  8
OUTLINES
 62
     5
 10
759.9990234399975
 20
939.5848388660015
 30
0.0
  0
VERTEX
  5
D8DA
  8
OUTLINES
 62
     5
 10
736.9989013699978
 20
939.5848388660015
 30
0.0
  0
VERTEX
  5
D8DB
  8
OUTLINES
 62
     5
 10
736.9990234399975
 20
929.5849609360012
 30
0.0
  0
VERTEX
  5
D8DC
  8
OUTLINES
 62
     5
 10
741.9990234399975
 20
929.5849609360012
 30
0.0
  0
VERTEX
  5
D8DD
  8
OUTLINES
 62
     5
 10
741.9990234399975
 20
858.5850830060008
 30
0.0
  0
VERTEX
  5
D8DE
  8
OUTLINES
 62
     5
 10
720.9990844699978
 20
858.5850830060008
 30
0.0
  0
VERTEX
  5
D8DF
  8
OUTLINES
 62
     5
 10
720.9990844699978
 20
840.5850830060008
 30
0.0
  0
VERTEX
  5
D8E0
  8
OUTLINES
 62
     5
 10
741.9990234399975
 20
840.5850830060008
 30
0.0
  0
VERTEX
  5
D8E1
  8
OUTLINES
 62
     5
 10
741.9990234399975
 20
769.5853271470005
 30
0.0
  0
VERTEX
  5
D8E2
  8
OUTLINES
 62
     5
 10
736.9990234399975
 20
769.5853271470005
 30
0.0
  0
VERTEX
  5
D8E3
  8
OUTLINES
 62
     5
 10
736.9990234399975
 20
759.5853271470005
 30
0.0
  0
VERTEX
  5
D8E4
  8
OUTLINES
 62
     5
 10
759.9990234399975
 20
759.5853271470005
 30
0.0
  0
VERTEX
  5
D8E5
  8
OUTLINES
 62
     5
 10
759.9990234399975
 20
639.5854492170001
 30
0.0
  0
VERTEX
  5
D8E6
  8
OUTLINES
 62
     5
 10
718.9990844699978
 20
639.5854492170001
 30
0.0
  0
VERTEX
  5
D8E7
  8
OUTLINES
 62
     5
 10
718.9990844699978
 20
629.5854492170001
 30
0.0
  0
VERTEX
  5
D8E8
  8
OUTLINES
 62
     5
 10
723.9990844699978
 20
629.5854492170001
 30
0.0
  0
VERTEX
  5
D8E9
  8
OUTLINES
 62
     5
 10
723.9990844699978
 20
469.5859374980009
 30
0.0
  0
VERTEX
  5
D8EA
  8
OUTLINES
 62
     5
 10
718.9990844699978
 20
469.5859374980009
 30
0.0
  0
VERTEX
  5
D8EB
  8
OUTLINES
 62
     5
 10
718.9990844699978
 20
459.5858154280013
 30
0.0
  0
VERTEX
  5
D8EC
  8
OUTLINES
 62
     5
 10
759.9990234399975
 20
459.5858154280013
 30
0.0
  0
VERTEX
  5
D8ED
  8
OUTLINES
 62
     5
 10
759.9990234399975
 20
339.5861816390006
 30
0.0
  0
VERTEX
  5
D8EE
  8
OUTLINES
 62
     5
 10
718.9990844699978
 20
339.5861816390006
 30
0.0
  0
VERTEX
  5
D8EF
  8
OUTLINES
 62
     5
 10
718.9990844699978
 20
329.5861816390006
 30
0.0
  0
VERTEX
  5
D8F0
  8
OUTLINES
 62
     5
 10
723.9990844699978
 20
329.5861816390006
 30
0.0
  0
VERTEX
  5
D8F1
  8
OUTLINES
 62
     5
 10
723.9990844699978
 20
169.5864257800004
 30
0.0
  0
VERTEX
  5
D8F2
  8
OUTLINES
 62
     5
 10
718.9990844699978
 20
169.5864257800004
 30
0.0
  0
VERTEX
  5
D8F3
  8
OUTLINES
 62
     5
 10
718.9990844699978
 20
159.5864257800004
 30
0.0
  0
VERTEX
  5
D8F4
  8
OUTLINES
 62
     5
 10
759.9990234399975
 20
159.5864257800004
 30
0.0
  0
SEQEND
  5
DBAA
  8
OUTLINES
 62
     5
  0
POLYLINE
  5
D58D
  8
OUTLINES
 62
     5
 66
     1
 10
0.0
 20
0.0
 30
0.0
 70
     1
  0
VERTEX
  5
D8F5
  8
OUTLINES
 62
     5
 10
94.99987792999946
 20
119.9992041900005
 30
0.0
  0
VERTEX
  5
D8F6
  8
OUTLINES
 62
     5
 10
53.99993895999978
 20
119.9992041900005
 30
0.0
  0
VERTEX
  5
D8F7
  8
OUTLINES
 62
     5
 10
53.99993895999978
 20
129.9986327799998
 30
0.0
  0
VERTEX
  5
D8F8
  8
OUTLINES
 62
     5
 10
58.99993895999978
 20
129.9986327799998
 30
0.0
  0
VERTEX
  5
D8F9
  8
OUTLINES
 62
     5
 10
58.99993895999978
 20
289.998427605
 30
0.0
  0
VERTEX
  5
D8FA
  8
OUTLINES
 62
     5
 10
53.99993895999978
 20
289.998427605
 30
0.0
  0
VERTEX
  5
D8FB
  8
OUTLINES
 62
     5
 10
53.99993895999978
 20
299.9991837980015
 30
0.0
  0
VERTEX
  5
D8FC
  8
OUTLINES
 62
     5
 10
94.99987792999946
 20
299.9991837980015
 30
0.0
  0
VERTEX
  5
D8FD
  8
OUTLINES
 62
     5
 10
94.99987792999946
 20
419.998828148
 30
0.0
  0
VERTEX
  5
D8FE
  8
OUTLINES
 62
     5
 10
53.99993895999978
 20
419.998828148
 30
0.0
  0
VERTEX
  5
D8FF
  8
OUTLINES
 62
     5
 10
53.99993895999978
 20
429.9980436910009
 30
0.0
  0
VERTEX
  5
D900
  8
OUTLINES
 62
     5
 10
58.99993895999978
 20
429.9980436910009
 30
0.0
  0
VERTEX
  5
D901
  8
OUTLINES
 62
     5
 10
58.99993895999978
 20
589.9981785569998
 30
0.0
  0
VERTEX
  5
D902
  8
OUTLINES
 62
     5
 10
53.99993895999978
 20
589.9981785569998
 30
0.0
  0
VERTEX
  5
D903
  8
OUTLINES
 62
     5
 10
53.99993895999978
 20
599.9988138059998
 30
0.0
  0
VERTEX
  5
D904
  8
OUTLINES
 62
     5
 10
94.99987792999946
 20
599.9988138059998
 30
0.0
  0
VERTEX
  5
D905
  8
OUTLINES
 62
     5
 10
94.99987792999946
 20
719.9983781460014
 30
0.0
  0
VERTEX
  5
D906
  8
OUTLINES
 62
     5
 10
71.99987792999946
 20
719.9983781460014
 30
0.0
  0
VERTEX
  5
D907
  8
OUTLINES
 62
     5
 10
71.99987792999946
 20
729.99764951
 30
0.0
  0
VERTEX
  5
D908
  8
OUTLINES
 62
     5
 10
76.99987792999946
 20
729.99764951
 30
0.0
  0
VERTEX
  5
D909
  8
OUTLINES
 62
     5
 10
76.99987792999946
 20
800.9974070180015
 30
0.0
  0
VERTEX
  5
D90A
  8
OUTLINES
 62
     5
 10
55.99993895999978
 20
800.9974070180015
 30
0.0
  0
VERTEX
  5
D90B
  8
OUTLINES
 62
     5
 10
55.99993895999978
 20
795.9976262020009
 30
0.0
  0
VERTEX
  5
D90C
  8
OUTLINES
 62
     5
 10
45.99993895999978
 20
795.9976262020009
 30
0.0
  0
VERTEX
  5
D90D
  8
OUTLINES
 62
     5
 10
45.99993895999978
 20
823.9974094959998
 30
0.0
  0
VERTEX
  5
D90E
  8
OUTLINES
 62
     5
 10
55.99993895999978
 20
823.9974094959998
 30
0.0
  0
VERTEX
  5
D90F
  8
OUTLINES
 62
     5
 10
55.99993895999978
 20
818.9976770579997
 30
0.0
  0
VERTEX
  5
D910
  8
OUTLINES
 62
     5
 10
76.99987792999946
 20
818.9976770579997
 30
0.0
  0
VERTEX
  5
D911
  8
OUTLINES
 62
     5
 10
76.99987792999946
 20
889.9975350430013
 30
0.0
  0
VERTEX
  5
D912
  8
OUTLINES
 62
     5
 10
71.99987792999946
 20
889.9975350430013
 30
0.0
  0
VERTEX
  5
D913
  8
OUTLINES
 62
     5
 10
71.99987792999946
 20
899.9981944810006
 30
0.0
  0
VERTEX
  5
D914
  8
OUTLINES
 62
     5
 10
94.99987792999946
 20
899.9981944810006
 30
0.0
  0
VERTEX
  5
D915
  8
OUTLINES
 62
     5
 10
94.99987792999946
 20
1050.088836255001
 30
0.0
  0
VERTEX
  5
D916
  8
OUTLINES
 62
     5
 10
71.99987792999946
 20
1050.088836255001
 30
0.0
  0
VERTEX
  5
D917
  8
OUTLINES
 62
     5
 10
71.99987792999946
 20
1060.089495692901
 30
0.0
  0
VERTEX
  5
D918
  8
OUTLINES
 62
     5
 10
76.99987792999946
 20
1060.089495692901
 30
0.0
  0
VERTEX
  5
D919
  8
OUTLINES
 62
     5
 10
76.99987792999946
 20
1220.0877959192
 30
0.0
  0
VERTEX
  5
D91A
  8
OUTLINES
 62
     5
 10
71.99987792999946
 20
1220.0877959192
 30
0.0
  0
VERTEX
  5
D91B
  8
OUTLINES
 62
     5
 10
71.99987792999946
 20
1230.088697246401
 30
0.0
  0
VERTEX
  5
D91C
  8
OUTLINES
 62
     5
 10
94.99987792999946
 20
1230.088697246401
 30
0.0
  0
VERTEX
  5
D91D
  8
OUTLINES
 62
     5
 10
94.99987792999946
 20
1380.179487876001
 30
0.0
  0
VERTEX
  5
D91E
  8
OUTLINES
 62
     5
 10
71.99987792999946
 20
1380.179487876001
 30
0.0
  0
VERTEX
  5
D91F
  8
OUTLINES
 62
     5
 10
71.99987792999946
 20
1390.180195692001
 30
0.0
  0
VERTEX
  5
D920
  8
OUTLINES
 62
     5
 10
76.99987792999946
 20
1390.180195692001
 30
0.0
  0
VERTEX
  5
D921
  8
OUTLINES
 62
     5
 10
76.99987792999946
 20
1461.179956921
 30
0.0
  0
VERTEX
  5
D922
  8
OUTLINES
 62
     5
 10
55.99993895999978
 20
1461.179956921
 30
0.0
  0
VERTEX
  5
D923
  8
OUTLINES
 62
     5
 10
55.99993895999978
 20
1456.180224483001
 30
0.0
  0
VERTEX
  5
D924
  8
OUTLINES
 62
     5
 10
45.99993895999978
 20
1456.180224483001
 30
0.0
  0
VERTEX
  5
D925
  8
OUTLINES
 62
     5
 10
45.99993895999978
 20
1484.179955678001
 30
0.0
  0
VERTEX
  5
D926
  8
OUTLINES
 62
     5
 10
55.99993895999978
 20
1484.179955678001
 30
0.0
  0
VERTEX
  5
D927
  8
OUTLINES
 62
     5
 10
55.99993895999978
 20
1479.180126484001
 30
0.0
  0
VERTEX
  5
D928
  8
OUTLINES
 62
     5
 10
76.99987792999946
 20
1479.180126484001
 30
0.0
  0
VERTEX
  5
D929
  8
OUTLINES
 62
     5
 10
76.99987792999946
 20
1550.179984469001
 30
0.0
  0
VERTEX
  5
D92A
  8
OUTLINES
 62
     5
 10
71.99987792999946
 20
1550.179984469001
 30
0.0
  0
VERTEX
  5
D92B
  8
OUTLINES
 62
     5
 10
71.99987792999946
 20
1560.179203734
 30
0.0
  0
VERTEX
  5
D92C
  8
OUTLINES
 62
     5
 10
94.99987792999946
 20
1560.179203734
 30
0.0
  0
VERTEX
  5
D92D
  8
OUTLINES
 62
     5
 10
94.99987792999946
 20
1680.178602473001
 30
0.0
  0
VERTEX
  5
D92E
  8
OUTLINES
 62
     5
 10
53.99993895999978
 20
1680.178602473001
 30
0.0
  0
VERTEX
  5
D92F
  8
OUTLINES
 62
     5
 10
53.99993895999978
 20
1690.179652655001
 30
0.0
  0
VERTEX
  5
D930
  8
OUTLINES
 62
     5
 10
58.99993895999978
 20
1690.179652655001
 30
0.0
  0
VERTEX
  5
D931
  8
OUTLINES
 62
     5
 10
58.99993895999978
 20
1850.179538188
 30
0.0
  0
VERTEX
  5
D932
  8
OUTLINES
 62
     5
 10
53.99993895999978
 20
1850.179538188
 30
0.0
  0
VERTEX
  5
D933
  8
OUTLINES
 62
     5
 10
53.99993895999978
 20
1860.178660697
 30
0.0
  0
VERTEX
  5
D934
  8
OUTLINES
 62
     5
 10
94.99987792999946
 20
1860.178660697
 30
0.0
  0
VERTEX
  5
D935
  8
OUTLINES
 62
     5
 10
94.99987792999946
 20
1980.178647414001
 30
0.0
  0
VERTEX
  5
D936
  8
OUTLINES
 62
     5
 10
53.99993895999978
 20
1980.178647414001
 30
0.0
  0
VERTEX
  5
D937
  8
OUTLINES
 62
     5
 10
53.99993895999978
 20
1990.178365343001
 30
0.0
  0
VERTEX
  5
D938
  8
OUTLINES
 62
     5
 10
58.99993895999978
 20
1990.178365343001
 30
0.0
  0
VERTEX
  5
D939
  8
OUTLINES
 62
     5
 10
58.99993895999978
 20
2150.178399731001
 30
0.0
  0
VERTEX
  5
D93A
  8
OUTLINES
 62
     5
 10
53.99993895999978
 20
2150.178399731001
 30
0.0
  0
VERTEX
  5
D93B
  8
OUTLINES
 62
     5
 10
53.99993895999978
 20
2160.17816232
 30
0.0
  0
VERTEX
  5
D93C
  8
OUTLINES
 62
     5
 10
94.99987792999946
 20
2160.17816232
 30
0.0
  0
VERTEX
  5
D93D
  8
OUTLINES
 62
     5
 10
94.99987792999946
 20
2299.764273640001
 30
0.0
  0
VERTEX
  5
D93E
  8
OUTLINES
 62
     5
 10
20.0
 20
2299.764273640001
 30
0.0
  0
VERTEX
  5
D93F
  8
OUTLINES
 62
     5
 10
20.0
 20
20.0
 30
0.0
  0
VERTEX
  5
D940
  8
OUTLINES
 62
     5
 10
94.99987792999946
 20
20.0
 30
0.0
  0
SEQEND
  5
DBAB
  8
OUTLINES
 62
     5
  0
POLYLINE
  5
D71B
  8
OUTLINES
 62
     5
 66
     1
 10
0.0
 20
0.0
 30
0.0
 70
     1
  0
VERTEX
  5
D941
  8
OUTLINES
 62
     5
 10
189.9997558599989
 20
119.9992041900005
 30
0.0
  0
VERTEX
  5
D942
  8
OUTLINES
 62
     5
 10
148.9998168899992
 20
119.9992041900005
 30
0.0
  0
VERTEX
  5
D943
  8
OUTLINES
 62
     5
 10
148.9998168899992
 20
129.9986327799998
 30
0.0
  0
VERTEX
  5
D944
  8
OUTLINES
 62
     5
 10
153.9998168899992
 20
129.9986327799998
 30
0.0
  0
VERTEX
  5
D945
  8
OUTLINES
 62
     5
 10
153.9998168899992
 20
289.998427605
 30
0.0
  0
VERTEX
  5
D946
  8
OUTLINES
 62
     5
 10
148.9998168899992
 20
289.998427605
 30
0.0
  0
VERTEX
  5
D947
  8
OUTLINES
 62
     5
 10
148.9998168899992
 20
299.9991837980015
 30
0.0
  0
VERTEX
  5
D948
  8
OUTLINES
 62
     5
 10
189.9997558599989
 20
299.9991837980015
 30
0.0
  0
VERTEX
  5
D949
  8
OUTLINES
 62
     5
 10
189.9997558599989
 20
419.998828148
 30
0.0
  0
VERTEX
  5
D94A
  8
OUTLINES
 62
     5
 10
148.9998168899992
 20
419.998828148
 30
0.0
  0
VERTEX
  5
D94B
  8
OUTLINES
 62
     5
 10
148.9998168899992
 20
429.9980436910009
 30
0.0
  0
VERTEX
  5
D94C
  8
OUTLINES
 62
     5
 10
153.9998168899992
 20
429.9980436910009
 30
0.0
  0
VERTEX
  5
D94D
  8
OUTLINES
 62
     5
 10
153.9998168899992
 20
589.9981785569998
 30
0.0
  0
VERTEX
  5
D94E
  8
OUTLINES
 62
     5
 10
148.9998168899992
 20
589.9981785569998
 30
0.0
  0
VERTEX
  5
D94F
  8
OUTLINES
 62
     5
 10
148.9998168899992
 20
599.9988138059998
 30
0.0
  0
VERTEX
  5
D950
  8
OUTLINES
 62
     5
 10
189.9997558599989
 20
599.9988138059998
 30
0.0
  0
VERTEX
  5
D951
  8
OUTLINES
 62
     5
 10
189.9997558599989
 20
719.9983781460014
 30
0.0
  0
VERTEX
  5
D952
  8
OUTLINES
 62
     5
 10
166.9997558599989
 20
719.9983781460014
 30
0.0
  0
VERTEX
  5
D953
  8
OUTLINES
 62
     5
 10
166.9997558599989
 20
729.99764951
 30
0.0
  0
VERTEX
  5
D954
  8
OUTLINES
 62
     5
 10
171.9997558599989
 20
729.99764951
 30
0.0
  0
VERTEX
  5
D955
  8
OUTLINES
 62
     5
 10
171.9997558599989
 20
800.9974070180015
 30
0.0
  0
VERTEX
  5
D956
  8
OUTLINES
 62
     5
 10
150.9998168899992
 20
800.9974070180015
 30
0.0
  0
VERTEX
  5
D957
  8
OUTLINES
 62
     5
 10
150.9998168899992
 20
795.9976262020009
 30
0.0
  0
VERTEX
  5
D958
  8
OUTLINES
 62
     5
 10
140.9998168899992
 20
795.9976262020009
 30
0.0
  0
VERTEX
  5
D959
  8
OUTLINES
 62
     5
 10
140.9998168899992
 20
823.9974094959998
 30
0.0
  0
VERTEX
  5
D95A
  8
OUTLINES
 62
     5
 10
150.9998168899992
 20
823.9974094959998
 30
0.0
  0
VERTEX
  5
D95B
  8
OUTLINES
 62
     5
 10
150.9998168899992
 20
818.9976770579997
 30
0.0
  0
VERTEX
  5
D95C
  8
OUTLINES
 62
     5
 10
171.9997558599989
 20
818.9976770579997
 30
0.0
  0
VERTEX
  5
D95D
  8
OUTLINES
 62
     5
 10
171.9997558599989
 20
889.9975350430013
 30
0.0
  0
VERTEX
  5
D95E
  8
OUTLINES
 62
     5
 10
166.9997558599989
 20
889.9975350430013
 30
0.0
  0
VERTEX
  5
D95F
  8
OUTLINES
 62
     5
 10
166.9997558599989
 20
899.9981944810006
 30
0.0
  0
VERTEX
  5
D960
  8
OUTLINES
 62
     5
 10
189.9997558599989
 20
899.9981944810006
 30
0.0
  0
VERTEX
  5
D961
  8
OUTLINES
 62
     5
 10
189.9997558599989
 20
1050.088836255001
 30
0.0
  0
VERTEX
  5
D962
  8
OUTLINES
 62
     5
 10
166.9997558599989
 20
1050.088836255001
 30
0.0
  0
VERTEX
  5
D963
  8
OUTLINES
 62
     5
 10
166.9997558599989
 20
1060.089495692901
 30
0.0
  0
VERTEX
  5
D964
  8
OUTLINES
 62
     5
 10
171.9997558599989
 20
1060.089495692901
 30
0.0
  0
VERTEX
  5
D965
  8
OUTLINES
 62
     5
 10
171.9997558599989
 20
1220.0877959192
 30
0.0
  0
VERTEX
  5
D966
  8
OUTLINES
 62
     5
 10
166.9997558599989
 20
1220.0877959192
 30
0.0
  0
VERTEX
  5
D967
  8
OUTLINES
 62
     5
 10
166.9997558599989
 20
1230.088697246401
 30
0.0
  0
VERTEX
  5
D968
  8
OUTLINES
 62
     5
 10
189.9997558599989
 20
1230.088697246401
 30
0.0
  0
VERTEX
  5
D969
  8
OUTLINES
 62
     5
 10
189.9997558599989
 20
1380.179487876001
 30
0.0
  0
VERTEX
  5
D96A
  8
OUTLINES
 62
     5
 10
166.9997558599989
 20
1380.179487876001
 30
0.0
  0
VERTEX
  5
D96B
  8
OUTLINES
 62
     5
 10
166.9997558599989
 20
1390.180195692001
 30
0.0
  0
VERTEX
  5
D96C
  8
OUTLINES
 62
     5
 10
171.9997558599989
 20
1390.180195692001
 30
0.0
  0
VERTEX
  5
D96D
  8
OUTLINES
 62
     5
 10
171.9997558599989
 20
1461.179956921
 30
0.0
  0
VERTEX
  5
D96E
  8
OUTLINES
 62
     5
 10
150.9998168899992
 20
1461.179956921
 30
0.0
  0
VERTEX
  5
D96F
  8
OUTLINES
 62
     5
 10
150.9998168899992
 20
1456.180224483001
 30
0.0
  0
VERTEX
  5
D970
  8
OUTLINES
 62
     5
 10
140.9998168899992
 20
1456.180224483001
 30
0.0
  0
VERTEX
  5
D971
  8
OUTLINES
 62
     5
 10
140.9998168899992
 20
1484.179955678001
 30
0.0
  0
VERTEX
  5
D972
  8
OUTLINES
 62
     5
 10
150.9998168899992
 20
1484.179955678001
 30
0.0
  0
VERTEX
  5
D973
  8
OUTLINES
 62
     5
 10
150.9998168899992
 20
1479.180126484001
 30
0.0
  0
VERTEX
  5
D974
  8
OUTLINES
 62
     5
 10
171.9997558599989
 20
1479.180126484001
 30
0.0
  0
VERTEX
  5
D975
  8
OUTLINES
 62
     5
 10
171.9997558599989
 20
1550.179984469001
 30
0.0
  0
VERTEX
  5
D976
  8
OUTLINES
 62
     5
 10
166.9997558599989
 20
1550.179984469001
 30
0.0
  0
VERTEX
  5
D977
  8
OUTLINES
 62
     5
 10
166.9997558599989
 20
1560.179203734
 30
0.0
  0
VERTEX
  5
D978
  8
OUTLINES
 62
     5
 10
189.9997558599989
 20
1560.179203734
 30
0.0
  0
VERTEX
  5
D979
  8
OUTLINES
 62
     5
 10
189.9997558599989
 20
1680.178602473001
 30
0.0
  0
VERTEX
  5
D97A
  8
OUTLINES
 62
     5
 10
148.9998168899992
 20
1680.178602473001
 30
0.0
  0
VERTEX
  5
D97B
  8
OUTLINES
 62
     5
 10
148.9998168899992
 20
1690.179652655001
 30
0.0
  0
VERTEX
  5
D97C
  8
OUTLINES
 62
     5
 10
153.9998168899992
 20
1690.179652655001
 30
0.0
  0
VERTEX
  5
D97D
  8
OUTLINES
 62
     5
 10
153.9998168899992
 20
1850.179538188
 30
0.0
  0
VERTEX
  5
D97E
  8
OUTLINES
 62
     5
 10
148.9998168899992
 20
1850.179538188
 30
0.0
  0
VERTEX
  5
D97F
  8
OUTLINES
 62
     5
 10
148.9998168899992
 20
1860.178660697
 30
0.0
  0
VERTEX
  5
D980
  8
OUTLINES
 62
     5
 10
189.9997558599989
 20
1860.178660697
 30
0.0
  0
VERTEX
  5
D981
  8
OUTLINES
 62
     5
 10
189.9997558599989
 20
1980.178647414001
 30
0.0
  0
VERTEX
  5
D982
  8
OUTLINES
 62
     5
 10
148.9998168899992
 20
1980.178647414001
 30
0.0
  0
VERTEX
  5
D983
  8
OUTLINES
 62
     5
 10
148.9998168899992
 20
1990.178365343001
 30
0.0
  0
VERTEX
  5
D984
  8
OUTLINES
 62
     5
 10
153.9998168899992
 20
1990.178365343001
 30
0.0
  0
VERTEX
  5
D985
  8
OUTLINES
 62
     5
 10
153.9998168899992
 20
2150.178399731001
 30
0.0
  0
VERTEX
  5
D986
  8
OUTLINES
 62
     5
 10
148.9998168899992
 20
2150.178399731001
 30
0.0
  0
VERTEX
  5
D987
  8
OUTLINES
 62
     5
 10
148.9998168899992
 20
2160.17816232
 30
0.0
  0
VERTEX
  5
D988
  8
OUTLINES
 62
     5
 10
189.9997558599989
 20
2160.17816232
 30
0.0
  0
VERTEX
  5
D989
  8
OUTLINES
 62
     5
 10
189.9997558599989
 20
2299.764273640001
 30
0.0
  0
VERTEX
  5
D98A
  8
OUTLINES
 62
     5
 10
114.9998779299995
 20
2299.764273640001
 30
0.0
  0
VERTEX
  5
D98B
  8
OUTLINES
 62
     5
 10
114.9998779299995
 20
20.0
 30
0.0
  0
VERTEX
  5
D98C
  8
OUTLINES
 62
     5
 10
189.9997558599989
 20
20.0
 30
0.0
  0
SEQEND
  5
DBAC
  8
OUTLINES
 62
     5
  0
POLYLINE
  5
D71C
  8
OUTLINES
 62
     5
 66
     1
 10
0.0
 20
0.0
 30
0.0
 70
     1
  0
VERTEX
  5
D98D
  8
OUTLINES
 62
     5
 10
664.9991455099971
 20
20.0
 30
0.0
  0
VERTEX
  5
D98E
  8
OUTLINES
 62
     5
 10
589.9992675799967
 20
20.0
 30
0.0
  0
VERTEX
  5
D98F
  8
OUTLINES
 62
     5
 10
589.9992675799967
 20
2206.582366940002
 30
0.0
  0
VERTEX
  5
D990
  8
OUTLINES
 62
     5
 10
664.9991455099971
 20
2206.582366940002
 30
0.0
  0
VERTEX
  5
D991
  8
OUTLINES
 62
     5
 10
664.9991455099971
 20
2139.582489010001
 30
0.0
  0
VERTEX
  5
D992
  8
OUTLINES
 62
     5
 10
623.9992065399974
 20
2139.582489010001
 30
0.0
  0
VERTEX
  5
D993
  8
OUTLINES
 62
     5
 10
623.9992065399974
 20
2129.58251953
 30
0.0
  0
VERTEX
  5
D994
  8
OUTLINES
 62
     5
 10
628.9992065399974
 20
2129.58251953
 30
0.0
  0
VERTEX
  5
D995
  8
OUTLINES
 62
     5
 10
628.9992065399974
 20
1969.582824705001
 30
0.0
  0
VERTEX
  5
D996
  8
OUTLINES
 62
     5
 10
623.9992065399974
 20
1969.582824705001
 30
0.0
  0
VERTEX
  5
D997
  8
OUTLINES
 62
     5
 10
623.9992065399974
 20
1959.582885741002
 30
0.0
  0
VERTEX
  5
D998
  8
OUTLINES
 62
     5
 10
664.9991455099971
 20
1959.582885741002
 30
0.0
  0
VERTEX
  5
D999
  8
OUTLINES
 62
     5
 10
664.9991455099971
 20
1839.583129881001
 30
0.0
  0
VERTEX
  5
D99A
  8
OUTLINES
 62
     5
 10
623.9992065399974
 20
1839.583129881001
 30
0.0
  0
VERTEX
  5
D99B
  8
OUTLINES
 62
     5
 10
623.9992065399974
 20
1829.583190916001
 30
0.0
  0
VERTEX
  5
D99C
  8
OUTLINES
 62
     5
 10
628.9992065399974
 20
1829.583190916001
 30
0.0
  0
VERTEX
  5
D99D
  8
OUTLINES
 62
     5
 10
628.9992065399974
 20
1669.583496092
 30
0.0
  0
VERTEX
  5
D99E
  8
OUTLINES
 62
     5
 10
623.9992065399974
 20
1669.583496092
 30
0.0
  0
VERTEX
  5
D99F
  8
OUTLINES
 62
     5
 10
623.9992065399974
 20
1659.583496092
 30
0.0
  0
VERTEX
  5
D9A0
  8
OUTLINES
 62
     5
 10
664.9991455099971
 20
1659.583496092
 30
0.0
  0
VERTEX
  5
D9A1
  8
OUTLINES
 62
     5
 10
664.9991455099971
 20
1539.583740233
 30
0.0
  0
VERTEX
  5
D9A2
  8
OUTLINES
 62
     5
 10
641.9991455099971
 20
1539.583740233
 30
0.0
  0
VERTEX
  5
D9A3
  8
OUTLINES
 62
     5
 10
641.9991455099971
 20
1529.583801268001
 30
0.0
  0
VERTEX
  5
D9A4
  8
OUTLINES
 62
     5
 10
646.9991455099971
 20
1529.583801268001
 30
0.0
  0
VERTEX
  5
D9A5
  8
OUTLINES
 62
     5
 10
646.9991455099971
 20
1458.583862303001
 30
0.0
  0
VERTEX
  5
D9A6
  8
OUTLINES
 62
     5
 10
625.9992065399974
 20
1458.583862303001
 30
0.0
  0
VERTEX
  5
D9A7
  8
OUTLINES
 62
     5
 10
625.9992065399974
 20
1463.583862303001
 30
0.0
  0
VERTEX
  5
D9A8
  8
OUTLINES
 62
     5
 10
615.9992065399974
 20
1463.583862303001
 30
0.0
  0
VERTEX
  5
D9A9
  8
OUTLINES
 62
     5
 10
615.9992065399974
 20
1435.583862303001
 30
0.0
  0
VERTEX
  5
D9AA
  8
OUTLINES
 62
     5
 10
625.9992065399974
 20
1435.583862303001
 30
0.0
  0
VERTEX
  5
D9AB
  8
OUTLINES
 62
     5
 10
625.9992065399974
 20
1440.583862303001
 30
0.0
  0
VERTEX
  5
D9AC
  8
OUTLINES
 62
     5
 10
646.9991455099971
 20
1440.583862303001
 30
0.0
  0
VERTEX
  5
D9AD
  8
OUTLINES
 62
     5
 10
646.9991455099971
 20
1369.584106444001
 30
0.0
  0
VERTEX
  5
D9AE
  8
OUTLINES
 62
     5
 10
641.9991455099971
 20
1369.584106444001
 30
0.0
  0
VERTEX
  5
D9AF
  8
OUTLINES
 62
     5
 10
641.9991455099971
 20
1359.584106444001
 30
0.0
  0
VERTEX
  5
D9B0
  8
OUTLINES
 62
     5
 10
664.9991455099971
 20
1359.584106444001
 30
0.0
  0
VERTEX
  5
D9B1
  8
OUTLINES
 62
     5
 10
664.9991455099971
 20
1239.584350584
 30
0.0
  0
VERTEX
  5
D9B2
  8
OUTLINES
 62
     5
 10
641.9991455099971
 20
1239.584350584
 30
0.0
  0
VERTEX
  5
D9B3
  8
OUTLINES
 62
     5
 10
641.9991455099971
 20
1229.584350584
 30
0.0
  0
VERTEX
  5
D9B4
  8
OUTLINES
 62
     5
 10
646.9991455099971
 20
1229.584350584
 30
0.0
  0
VERTEX
  5
D9B5
  8
OUTLINES
 62
     5
 10
646.9991455099971
 20
1069.5845947249
 30
0.0
  0
VERTEX
  5
D9B6
  8
OUTLINES
 62
     5
 10
641.9991455099971
 20
1069.5845947249
 30
0.0
  0
VERTEX
  5
D9B7
  8
OUTLINES
 62
     5
 10
641.9989013699969
 20
1059.5845947249
 30
0.0
  0
VERTEX
  5
D9B8
  8
OUTLINES
 62
     5
 10
664.9991455099971
 20
1059.5845947249
 30
0.0
  0
VERTEX
  5
D9B9
  8
OUTLINES
 62
     5
 10
664.9991455099971
 20
939.5848388660015
 30
0.0
  0
VERTEX
  5
D9BA
  8
OUTLINES
 62
     5
 10
641.9990234399975
 20
939.5848388660015
 30
0.0
  0
VERTEX
  5
D9BB
  8
OUTLINES
 62
     5
 10
641.9991455099971
 20
929.5849609360012
 30
0.0
  0
VERTEX
  5
D9BC
  8
OUTLINES
 62
     5
 10
646.9991455099971
 20
929.5849609360012
 30
0.0
  0
VERTEX
  5
D9BD
  8
OUTLINES
 62
     5
 10
646.9991455099971
 20
858.5850830060008
 30
0.0
  0
VERTEX
  5
D9BE
  8
OUTLINES
 62
     5
 10
625.9992065399974
 20
858.5850830060008
 30
0.0
  0
VERTEX
  5
D9BF
  8
OUTLINES
 62
     5
 10
625.9992065399974
 20
840.5850830060008
 30
0.0
  0
VERTEX
  5
D9C0
  8
OUTLINES
 62
     5
 10
646.9991455099971
 20
840.5850830060008
 30
0.0
  0
VERTEX
  5
D9C1
  8
OUTLINES
 62
     5
 10
646.9991455099971
 20
769.5853271470005
 30
0.0
  0
VERTEX
  5
D9C2
  8
OUTLINES
 62
     5
 10
641.9991455099971
 20
769.5853271470005
 30
0.0
  0
VERTEX
  5
D9C3
  8
OUTLINES
 62
     5
 10
641.9991455099971
 20
759.5853271470005
 30
0.0
  0
VERTEX
  5
D9C4
  8
OUTLINES
 62
     5
 10
664.9991455099971
 20
759.5853271470005
 30
0.0
  0
VERTEX
  5
D9C5
  8
OUTLINES
 62
     5
 10
664.9991455099971
 20
639.5854492170001
 30
0.0
  0
VERTEX
  5
D9C6
  8
OUTLINES
 62
     5
 10
623.9992065399974
 20
639.5854492170001
 30
0.0
  0
VERTEX
  5
D9C7
  8
OUTLINES
 62
     5
 10
623.9992065399974
 20
629.5854492170001
 30
0.0
  0
VERTEX
  5
D9C8
  8
OUTLINES
 62
     5
 10
628.9992065399974
 20
629.5854492170001
 30
0.0
  0
VERTEX
  5
D9C9
  8
OUTLINES
 62
     5
 10
628.9992065399974
 20
469.5859374980009
 30
0.0
  0
VERTEX
  5
D9CA
  8
OUTLINES
 62
     5
 10
623.9992065399974
 20
469.5859374980009
 30
0.0
  0
VERTEX
  5
D9CB
  8
OUTLINES
 62
     5
 10
623.9992065399974
 20
459.5858154280013
 30
0.0
  0
VERTEX
  5
D9CC
  8
OUTLINES
 62
     5
 10
664.9991455099971
 20
459.5858154280013
 30
0.0
  0
VERTEX
  5
D9CD
  8
OUTLINES
 62
     5
 10
664.9991455099971
 20
339.5861816390006
 30
0.0
  0
VERTEX
  5
D9CE
  8
OUTLINES
 62
     5
 10
623.9992065399974
 20
339.5861816390006
 30
0.0
  0
VERTEX
  5
D9CF
  8
OUTLINES
 62
     5
 10
623.9992065399974
 20
329.5861816390006
 30
0.0
  0
VERTEX
  5
D9D0
  8
OUTLINES
 62
     5
 10
628.9992065399974
 20
329.5861816390006
 30
0.0
  0
VERTEX
  5
D9D1
  8
OUTLINES
 62
     5
 10
628.9992065399974
 20
169.5864257800004
 30
0.0
  0
VERTEX
  5
D9D2
  8
OUTLINES
 62
     5
 10
623.9992065399974
 20
169.5864257800004
 30
0.0
  0
VERTEX
  5
D9D3
  8
OUTLINES
 62
     5
 10
623.9992065399974
 20
159.5864257800004
 30
0.0
  0
VERTEX
  5
D9D4
  8
OUTLINES
 62
     5
 10
664.9991455099971
 20
159.5864257800004
 30
0.0
  0
SEQEND
  5
DBAD
  8
OUTLINES
 62
     5
  0
POLYLINE
  5
D7EA
  8
OUTLINES
 62
     5
 66
     1
 10
0.0
 20
0.0
 30
0.0
 70
     1
  0
VERTEX
  5
D9D5
  8
OUTLINES
 62
     5
 10
1044.998657229999
 20
104.9998779300004
 30
0.0
  0
VERTEX
  5
D9D6
  8
OUTLINES
 62
     5
 10
1003.998718259999
 20
104.9998779300004
 30
0.0
  0
VERTEX
  5
D9D7
  8
OUTLINES
 62
     5
 10
1003.998718259999
 20
114.9998779300004
 30
0.0
  0
VERTEX
  5
D9D8
  8
OUTLINES
 62
     5
 10
1008.998718259999
 20
114.9998779300004
 30
0.0
  0
VERTEX
  5
D9D9
  8
OUTLINES
 62
     5
 10
1008.998718259999
 20
274.9995117200015
 30
0.0
  0
VERTEX
  5
D9DA
  8
OUTLINES
 62
     5
 10
1003.998718259999
 20
274.9995117200015
 30
0.0
  0
VERTEX
  5
D9DB
  8
OUTLINES
 62
     5
 10
1003.998718259999
 20
284.9995117200015
 30
0.0
  0
VERTEX
  5
D9DC
  8
OUTLINES
 62
     5
 10
1044.998657229999
 20
284.9995117200015
 30
0.0
  0
VERTEX
  5
D9DD
  8
OUTLINES
 62
     5
 10
1044.998657229999
 20
404.9992675800004
 30
0.0
  0
VERTEX
  5
D9DE
  8
OUTLINES
 62
     5
 10
1003.998718259999
 20
404.9992675800004
 30
0.0
  0
VERTEX
  5
D9DF
  8
OUTLINES
 62
     5
 10
1003.998718259999
 20
414.9992675800004
 30
0.0
  0
VERTEX
  5
D9E0
  8
OUTLINES
 62
     5
 10
1008.998718259999
 20
414.9992675800004
 30
0.0
  0
VERTEX
  5
D9E1
  8
OUTLINES
 62
     5
 10
1008.998718259999
 20
574.9990234399993
 30
0.0
  0
VERTEX
  5
D9E2
  8
OUTLINES
 62
     5
 10
1003.998718259999
 20
574.9990234399993
 30
0.0
  0
VERTEX
  5
D9E3
  8
OUTLINES
 62
     5
 10
1003.998718259999
 20
584.9989013699997
 30
0.0
  0
VERTEX
  5
D9E4
  8
OUTLINES
 62
     5
 10
1044.998657229999
 20
584.9989013699997
 30
0.0
  0
VERTEX
  5
D9E5
  8
OUTLINES
 62
     5
 10
1044.998657229999
 20
704.9986572300004
 30
0.0
  0
VERTEX
  5
D9E6
  8
OUTLINES
 62
     5
 10
1021.998657229999
 20
704.9986572300004
 30
0.0
  0
VERTEX
  5
D9E7
  8
OUTLINES
 62
     5
 10
1021.998657229999
 20
714.9986572300004
 30
0.0
  0
VERTEX
  5
D9E8
  8
OUTLINES
 62
     5
 10
1026.998657229999
 20
714.9986572300004
 30
0.0
  0
VERTEX
  5
D9E9
  8
OUTLINES
 62
     5
 10
1026.998657229999
 20
874.9982910200015
 30
0.0
  0
VERTEX
  5
D9EA
  8
OUTLINES
 62
     5
 10
1021.998657229999
 20
874.9982910200015
 30
0.0
  0
VERTEX
  5
D9EB
  8
OUTLINES
 62
     5
 10
1021.998657229999
 20
884.9982910200015
 30
0.0
  0
VERTEX
  5
D9EC
  8
OUTLINES
 62
     5
 10
1044.998657229999
 20
884.9982910200015
 30
0.0
  0
VERTEX
  5
D9ED
  8
OUTLINES
 62
     5
 10
1044.998657229999
 20
1004.99798584
 30
0.0
  0
VERTEX
  5
D9EE
  8
OUTLINES
 62
     5
 10
1021.998657229999
 20
1004.99798584
 30
0.0
  0
VERTEX
  5
D9EF
  8
OUTLINES
 62
     5
 10
1021.998657229999
 20
1014.99810791
 30
0.0
  0
VERTEX
  5
D9F0
  8
OUTLINES
 62
     5
 10
1026.998657229999
 20
1014.99810791
 30
0.0
  0
VERTEX
  5
D9F1
  8
OUTLINES
 62
     5
 10
1026.998657229999
 20
1085.997924810001
 30
0.0
  0
VERTEX
  5
D9F2
  8
OUTLINES
 62
     5
 10
1005.998718259999
 20
1085.997924810001
 30
0.0
  0
VERTEX
  5
D9F3
  8
OUTLINES
 62
     5
 10
1005.998718259999
 20
1080.997863770001
 30
0.0
  0
VERTEX
  5
D9F4
  8
OUTLINES
 62
     5
 10
995.9987182599989
 20
1080.997863770001
 30
0.0
  0
VERTEX
  5
D9F5
  8
OUTLINES
 62
     5
 10
995.9987182599989
 20
1108.997863770001
 30
0.0
  0
VERTEX
  5
D9F6
  8
OUTLINES
 62
     5
 10
1005.998718259999
 20
1108.997863770001
 30
0.0
  0
VERTEX
  5
D9F7
  8
OUTLINES
 62
     5
 10
1005.998718259999
 20
1103.997802739999
 30
0.0
  0
VERTEX
  5
D9F8
  8
OUTLINES
 62
     5
 10
1026.998657229999
 20
1103.997802739999
 30
0.0
  0
VERTEX
  5
D9F9
  8
OUTLINES
 62
     5
 10
1026.998657229999
 20
1174.99768067
 30
0.0
  0
VERTEX
  5
D9FA
  8
OUTLINES
 62
     5
 10
1021.998657229999
 20
1174.99768067
 30
0.0
  0
VERTEX
  5
D9FB
  8
OUTLINES
 62
     5
 10
1021.998657229999
 20
1184.99768067
 30
0.0
  0
VERTEX
  5
D9FC
  8
OUTLINES
 62
     5
 10
1044.998657229999
 20
1184.99768067
 30
0.0
  0
VERTEX
  5
D9FD
  8
OUTLINES
 62
     5
 10
1044.998657229999
 20
1304.99743653
 30
0.0
  0
VERTEX
  5
D9FE
  8
OUTLINES
 62
     5
 10
1021.998657229999
 20
1304.99743653
 30
0.0
  0
VERTEX
  5
D9FF
  8
OUTLINES
 62
     5
 10
1021.998657229999
 20
1314.99737549
 30
0.0
  0
VERTEX
  5
DA00
  8
OUTLINES
 62
     5
 10
1026.998657229999
 20
1314.99737549
 30
0.0
  0
VERTEX
  5
DA01
  8
OUTLINES
 62
     5
 10
1026.998657229999
 20
1403.747314460001
 30
0.0
  0
VERTEX
  5
DA02
  8
OUTLINES
 62
     5
 10
969.9987792999982
 20
1403.747314460001
 30
0.0
  0
VERTEX
  5
DA03
  8
OUTLINES
 62
     5
 10
969.9987792999982
 20
20.0
 30
0.0
  0
VERTEX
  5
DA04
  8
OUTLINES
 62
     5
 10
1044.998657230014
 20
20.0
 30
0.0
  0
SEQEND
  5
DBAE
  8
OUTLINES
 62
     5
  0
POLYLINE
  5
D85D
  8
0
  6
BYBLOCK
 66
     1
 10
0.0
 20
0.0
 30
0.0
 70
     1
  0
VERTEX
  5
DA05
  8
0
  6
BYBLOCK
 10
0.0
 20
0.0
 30
0.0
  0
VERTEX
  5
DA06
  8
0
  6
BYBLOCK
 10
0.0
 20
2440.0
 30
0.0
  0
VERTEX
  5
DA07
  8
0
  6
BYBLOCK
 10
1220.0
 20
2440.0
 30
0.0
  0
VERTEX
  5
DA08
  8
0
  6
BYBLOCK
 10
1220.0
 20
0.0
 30
0.0
  0
SEQEND
  5
DBAF
  8
0
  6
BYBLOCK
  0
POLYLINE
  5
D85E
  8
OUTLINES
 62
     5
 66
     1
 10
0.0
 20
0.0
 30
0.0
 70
     1
  0
VERTEX
  5
DA09
  8
OUTLINES
 62
     5
 10
949.9987792999982
 20
20.0
 30
0.0
  0
VERTEX
  5
DA0A
  8
OUTLINES
 62
     5
 10
874.9989013699978
 20
20.0
 30
0.0
  0
VERTEX
  5
DA0B
  8
OUTLINES
 62
     5
 10
874.9989013699978
 20
2206.582366940002
 30
0.0
  0
VERTEX
  5
DA0C
  8
OUTLINES
 62
     5
 10
949.9987792999982
 20
2206.582366940002
 30
0.0
  0
VERTEX
  5
DA0D
  8
OUTLINES
 62
     5
 10
949.9987792999982
 20
2139.582489010001
 30
0.0
  0
VERTEX
  5
DA0E
  8
OUTLINES
 62
     5
 10
908.9988403299985
 20
2139.582489010001
 30
0.0
  0
VERTEX
  5
DA0F
  8
OUTLINES
 62
     5
 10
908.9988403299985
 20
2129.58251953
 30
0.0
  0
VERTEX
  5
DA10
  8
OUTLINES
 62
     5
 10
913.9988403299985
 20
2129.58251953
 30
0.0
  0
VERTEX
  5
DA11
  8
OUTLINES
 62
     5
 10
913.9988403299985
 20
1969.582824705001
 30
0.0
  0
VERTEX
  5
DA12
  8
OUTLINES
 62
     5
 10
908.9988403299985
 20
1969.582824705001
 30
0.0
  0
VERTEX
  5
DA13
  8
OUTLINES
 62
     5
 10
908.9988403299985
 20
1959.582885741002
 30
0.0
  0
VERTEX
  5
DA14
  8
OUTLINES
 62
     5
 10
949.9987792999982
 20
1959.582885741002
 30
0.0
  0
VERTEX
  5
DA15
  8
OUTLINES
 62
     5
 10
949.9987792999982
 20
1839.583129881001
 30
0.0
  0
VERTEX
  5
DA16
  8
OUTLINES
 62
     5
 10
908.9988403299985
 20
1839.583129881001
 30
0.0
  0
VERTEX
  5
DA17
  8
OUTLINES
 62
     5
 10
908.9988403299985
 20
1829.583190916001
 30
0.0
  0
VERTEX
  5
DA18
  8
OUTLINES
 62
     5
 10
913.9988403299985
 20
1829.583190916001
 30
0.0
  0
VERTEX
  5
DA19
  8
OUTLINES
 62
     5
 10
913.9988403299985
 20
1669.583496092
 30
0.0
  0
VERTEX
  5
DA1A
  8
OUTLINES
 62
     5
 10
908.9988403299985
 20
1669.583496092
 30
0.0
  0
VERTEX
  5
DA1B
  8
OUTLINES
 62
     5
 10
908.9988403299985
 20
1659.583496092
 30
0.0
  0
VERTEX
  5
DA1C
  8
OUTLINES
 62
     5
 10
949.9987792999982
 20
1659.583496092
 30
0.0
  0
VERTEX
  5
DA1D
  8
OUTLINES
 62
     5
 10
949.9987792999982
 20
1539.583740233
 30
0.0
  0
VERTEX
  5
DA1E
  8
OUTLINES
 62
     5
 10
926.9987792999982
 20
1539.583740233
 30
0.0
  0
VERTEX
  5
DA1F
  8
OUTLINES
 62
     5
 10
926.9987792999982
 20
1529.583801268001
 30
0.0
  0
VERTEX
  5
DA20
  8
OUTLINES
 62
     5
 10
931.9987792999982
 20
1529.583801268001
 30
0.0
  0
VERTEX
  5
DA21
  8
OUTLINES
 62
     5
 10
931.9987792999982
 20
1458.583862303001
 30
0.0
  0
VERTEX
  5
DA22
  8
OUTLINES
 62
     5
 10
910.9988403299985
 20
1458.583862303001
 30
0.0
  0
VERTEX
  5
DA23
  8
OUTLINES
 62
     5
 10
910.9988403299985
 20
1463.583862303001
 30
0.0
  0
VERTEX
  5
DA24
  8
OUTLINES
 62
     5
 10
900.9988403299985
 20
1463.583862303001
 30
0.0
  0
VERTEX
  5
DA25
  8
OUTLINES
 62
     5
 10
900.9988403299985
 20
1435.583862303001
 30
0.0
  0
VERTEX
  5
DA26
  8
OUTLINES
 62
     5
 10
910.9988403299985
 20
1435.583862303001
 30
0.0
  0
VERTEX
  5
DA27
  8
OUTLINES
 62
     5
 10
910.9988403299985
 20
1440.583862303001
 30
0.0
  0
VERTEX
  5
DA28
  8
OUTLINES
 62
     5
 10
931.9987792999982
 20
1440.583862303001
 30
0.0
  0
VERTEX
  5
DA29
  8
OUTLINES
 62
     5
 10
931.9987792999982
 20
1369.584106444001
 30
0.0
  0
VERTEX
  5
DA2A
  8
OUTLINES
 62
     5
 10
926.9987792999982
 20
1369.584106444001
 30
0.0
  0
VERTEX
  5
DA2B
  8
OUTLINES
 62
     5
 10
926.9987792999982
 20
1359.584106444001
 30
0.0
  0
VERTEX
  5
DA2C
  8
OUTLINES
 62
     5
 10
949.9987792999982
 20
1359.584106444001
 30
0.0
  0
VERTEX
  5
DA2D
  8
OUTLINES
 62
     5
 10
949.9987792999982
 20
1239.584350584
 30
0.0
  0
VERTEX
  5
DA2E
  8
OUTLINES
 62
     5
 10
926.9987792999982
 20
1239.584350584
 30
0.0
  0
VERTEX
  5
DA2F
  8
OUTLINES
 62
     5
 10
926.9987792999982
 20
1229.584350584
 30
0.0
  0
VERTEX
  5
DA30
  8
OUTLINES
 62
     5
 10
931.9987792999982
 20
1229.584350584
 30
0.0
  0
VERTEX
  5
DA31
  8
OUTLINES
 62
     5
 10
931.9987792999982
 20
1069.5845947249
 30
0.0
  0
VERTEX
  5
DA32
  8
OUTLINES
 62
     5
 10
926.9987792999982
 20
1069.5845947249
 30
0.0
  0
VERTEX
  5
DA33
  8
OUTLINES
 62
     5
 10
926.998535159998
 20
1059.5845947249
 30
0.0
  0
VERTEX
  5
DA34
  8
OUTLINES
 62
     5
 10
949.9987792999982
 20
1059.5845947249
 30
0.0
  0
VERTEX
  5
DA35
  8
OUTLINES
 62
     5
 10
949.9987792999982
 20
939.5848388660015
 30
0.0
  0
VERTEX
  5
DA36
  8
OUTLINES
 62
     5
 10
926.9986572299986
 20
939.5848388660015
 30
0.0
  0
VERTEX
  5
DA37
  8
OUTLINES
 62
     5
 10
926.9987792999982
 20
929.5849609360012
 30
0.0
  0
VERTEX
  5
DA38
  8
OUTLINES
 62
     5
 10
931.9987792999982
 20
929.5849609360012
 30
0.0
  0
VERTEX
  5
DA39
  8
OUTLINES
 62
     5
 10
931.9987792999982
 20
858.5850830060008
 30
0.0
  0
VERTEX
  5
DA3A
  8
OUTLINES
 62
     5
 10
910.9988403299985
 20
858.5850830060008
 30
0.0
  0
VERTEX
  5
DA3B
  8
OUTLINES
 62
     5
 10
910.9988403299985
 20
840.5850830060008
 30
0.0
  0
VERTEX
  5
DA3C
  8
OUTLINES
 62
     5
 10
931.9987792999982
 20
840.5850830060008
 30
0.0
  0
VERTEX
  5
DA3D
  8
OUTLINES
 62
     5
 10
931.9987792999982
 20
769.5853271470005
 30
0.0
  0
VERTEX
  5
DA3E
  8
OUTLINES
 62
     5
 10
926.9987792999982
 20
769.5853271470005
 30
0.0
  0
VERTEX
  5
DA3F
  8
OUTLINES
 62
     5
 10
926.9987792999982
 20
759.5853271470005
 30
0.0
  0
VERTEX
  5
DA40
  8
OUTLINES
 62
     5
 10
949.9987792999982
 20
759.5853271470005
 30
0.0
  0
VERTEX
  5
DA41
  8
OUTLINES
 62
     5
 10
949.9987792999982
 20
639.5854492170001
 30
0.0
  0
VERTEX
  5
DA42
  8
OUTLINES
 62
     5
 10
908.9988403299985
 20
639.5854492170001
 30
0.0
  0
VERTEX
  5
DA43
  8
OUTLINES
 62
     5
 10
908.9988403299985
 20
629.5854492170001
 30
0.0
  0
VERTEX
  5
DA44
  8
OUTLINES
 62
     5
 10
913.9988403299985
 20
629.5854492170001
 30
0.0
  0
VERTEX
  5
DA45
  8
OUTLINES
 62
     5
 10
913.9988403299985
 20
469.5859374980009
 30
0.0
  0
VERTEX
  5
DA46
  8
OUTLINES
 62
     5
 10
908.9988403299985
 20
469.5859374980009
 30
0.0
  0
VERTEX
  5
DA47
  8
OUTLINES
 62
     5
 10
908.9988403299985
 20
459.5858154280013
 30
0.0
  0
VERTEX
  5
DA48
  8
OUTLINES
 62
     5
 10
949.9987792999982
 20
459.5858154280013
 30
0.0
  0
VERTEX
  5
DA49
  8
OUTLINES
 62
     5
 10
949.9987792999982
 20
339.5861816390006
 30
0.0
  0
VERTEX
  5
DA4A
  8
OUTLINES
 62
     5
 10
908.9988403299985
 20
339.5861816390006
 30
0.0
  0
VERTEX
  5
DA4B
  8
OUTLINES
 62
     5
 10
908.9988403299985
 20
329.5861816390006
 30
0.0
  0
VERTEX
  5
DA4C
  8
OUTLINES
 62
     5
 10
913.9988403299985
 20
329.5861816390006
 30
0.0
  0
VERTEX
  5
DA4D
  8
OUTLINES
 62
     5
 10
913.9988403299985
 20
169.5864257800004
 30
0.0
  0
VERTEX
  5
DA4E
  8
OUTLINES
 62
     5
 10
908.9988403299985
 20
169.5864257800004
 30
0.0
  0
VERTEX
  5
DA4F
  8
OUTLINES
 62
     5
 10
908.9988403299985
 20
159.5864257800004
 30
0.0
  0
VERTEX
  5
DA50
  8
OUTLINES
 62
     5
 10
949.9987792999982
 20
159.5864257800004
 30
0.0
  0
SEQEND
  5
DBB0
  8
OUTLINES
 62
     5
  0
POLYLINE
  5
D85F
  8
OUTLINES
 62
     5
 66
     1
 10
0.0
 20
0.0
 30
0.0
 70
     1
  0
VERTEX
  5
DA51
  8
OUTLINES
 62
     5
 10
379.9995117199978
 20
119.9992041900005
 30
0.0
  0
VERTEX
  5
DA52
  8
OUTLINES
 62
     5
 10
338.9995727499982
 20
119.9992041900005
 30
0.0
  0
VERTEX
  5
DA53
  8
OUTLINES
 62
     5
 10
338.9995727499982
 20
129.9986327799998
 30
0.0
  0
VERTEX
  5
DA54
  8
OUTLINES
 62
     5
 10
343.9995727499982
 20
129.9986327799998
 30
0.0
  0
VERTEX
  5
DA55
  8
OUTLINES
 62
     5
 10
343.9995727499982
 20
289.998427605
 30
0.0
  0
VERTEX
  5
DA56
  8
OUTLINES
 62
     5
 10
338.9995727499982
 20
289.998427605
 30
0.0
  0
VERTEX
  5
DA57
  8
OUTLINES
 62
     5
 10
338.9995727499982
 20
299.9991837980015
 30
0.0
  0
VERTEX
  5
DA58
  8
OUTLINES
 62
     5
 10
379.9995117199978
 20
299.9991837980015
 30
0.0
  0
VERTEX
  5
DA59
  8
OUTLINES
 62
     5
 10
379.9995117199978
 20
419.998828148
 30
0.0
  0
VERTEX
  5
DA5A
  8
OUTLINES
 62
     5
 10
338.9995727499982
 20
419.998828148
 30
0.0
  0
VERTEX
  5
DA5B
  8
OUTLINES
 62
     5
 10
338.9995727499982
 20
429.9980436910009
 30
0.0
  0
VERTEX
  5
DA5C
  8
OUTLINES
 62
     5
 10
343.9995727499982
 20
429.9980436910009
 30
0.0
  0
VERTEX
  5
DA5D
  8
OUTLINES
 62
     5
 10
343.9995727499982
 20
589.9981785569998
 30
0.0
  0
VERTEX
  5
DA5E
  8
OUTLINES
 62
     5
 10
338.9995727499982
 20
589.9981785569998
 30
0.0
  0
VERTEX
  5
DA5F
  8
OUTLINES
 62
     5
 10
338.9995727499982
 20
599.9988138059998
 30
0.0
  0
VERTEX
  5
DA60
  8
OUTLINES
 62
     5
 10
379.9995117199978
 20
599.9988138059998
 30
0.0
  0
VERTEX
  5
DA61
  8
OUTLINES
 62
     5
 10
379.9995117199978
 20
719.9983781460014
 30
0.0
  0
VERTEX
  5
DA62
  8
OUTLINES
 62
     5
 10
356.9995117199978
 20
719.9983781460014
 30
0.0
  0
VERTEX
  5
DA63
  8
OUTLINES
 62
     5
 10
356.9995117199978
 20
729.99764951
 30
0.0
  0
VERTEX
  5
DA64
  8
OUTLINES
 62
     5
 10
361.9995117199978
 20
729.99764951
 30
0.0
  0
VERTEX
  5
DA65
  8
OUTLINES
 62
     5
 10
361.9995117199978
 20
800.9974070180015
 30
0.0
  0
VERTEX
  5
DA66
  8
OUTLINES
 62
     5
 10
340.9995727499982
 20
800.9974070180015
 30
0.0
  0
VERTEX
  5
DA67
  8
OUTLINES
 62
     5
 10
340.9995727499982
 20
795.9976262020009
 30
0.0
  0
VERTEX
  5
DA68
  8
OUTLINES
 62
     5
 10
330.9995727499982
 20
795.9976262020009
 30
0.0
  0
VERTEX
  5
DA69
  8
OUTLINES
 62
     5
 10
330.9995727499982
 20
823.9974094959998
 30
0.0
  0
VERTEX
  5
DA6A
  8
OUTLINES
 62
     5
 10
340.9995727499982
 20
823.9974094959998
 30
0.0
  0
VERTEX
  5
DA6B
  8
OUTLINES
 62
     5
 10
340.9995727499982
 20
818.9976770579997
 30
0.0
  0
VERTEX
  5
DA6C
  8
OUTLINES
 62
     5
 10
361.9995117199978
 20
818.9976770579997
 30
0.0
  0
VERTEX
  5
DA6D
  8
OUTLINES
 62
     5
 10
361.9995117199978
 20
889.9975350430013
 30
0.0
  0
VERTEX
  5
DA6E
  8
OUTLINES
 62
     5
 10
356.9995117199978
 20
889.9975350430013
 30
0.0
  0
VERTEX
  5
DA6F
  8
OUTLINES
 62
     5
 10
356.9995117199978
 20
899.9981944810006
 30
0.0
  0
VERTEX
  5
DA70
  8
OUTLINES
 62
     5
 10
379.9995117199978
 20
899.9981944810006
 30
0.0
  0
VERTEX
  5
DA71
  8
OUTLINES
 62
     5
 10
379.9995117199978
 20
1050.088836255001
 30
0.0
  0
VERTEX
  5
DA72
  8
OUTLINES
 62
     5
 10
356.9995117199978
 20
1050.088836255001
 30
0.0
  0
VERTEX
  5
DA73
  8
OUTLINES
 62
     5
 10
356.9995117199978
 20
1060.089495692901
 30
0.0
  0
VERTEX
  5
DA74
  8
OUTLINES
 62
     5
 10
361.9995117199978
 20
1060.089495692901
 30
0.0
  0
VERTEX
  5
DA75
  8
OUTLINES
 62
     5
 10
361.9995117199978
 20
1220.0877959192
 30
0.0
  0
VERTEX
  5
DA76
  8
OUTLINES
 62
     5
 10
356.9995117199978
 20
1220.0877959192
 30
0.0
  0
VERTEX
  5
DA77
  8
OUTLINES
 62
     5
 10
356.9995117199978
 20
1230.088697246401
 30
0.0
  0
VERTEX
  5
DA78
  8
OUTLINES
 62
     5
 10
379.9995117199978
 20
1230.088697246401
 30
0.0
  0
VERTEX
  5
DA79
  8
OUTLINES
 62
     5
 10
379.9995117199978
 20
1380.179487876001
 30
0.0
  0
VERTEX
  5
DA7A
  8
OUTLINES
 62
     5
 10
356.9995117199978
 20
1380.179487876001
 30
0.0
  0
VERTEX
  5
DA7B
  8
OUTLINES
 62
     5
 10
356.9995117199978
 20
1390.180195692001
 30
0.0
  0
VERTEX
  5
DA7C
  8
OUTLINES
 62
     5
 10
361.9995117199978
 20
1390.180195692001
 30
0.0
  0
VERTEX
  5
DA7D
  8
OUTLINES
 62
     5
 10
361.9995117199978
 20
1461.179956921
 30
0.0
  0
VERTEX
  5
DA7E
  8
OUTLINES
 62
     5
 10
340.9995727499982
 20
1461.179956921
 30
0.0
  0
VERTEX
  5
DA7F
  8
OUTLINES
 62
     5
 10
340.9995727499982
 20
1456.180224483001
 30
0.0
  0
VERTEX
  5
DA80
  8
OUTLINES
 62
     5
 10
330.9995727499982
 20
1456.180224483001
 30
0.0
  0
VERTEX
  5
DA81
  8
OUTLINES
 62
     5
 10
330.9995727499982
 20
1484.179955678001
 30
0.0
  0
VERTEX
  5
DA82
  8
OUTLINES
 62
     5
 10
340.9995727499982
 20
1484.179955678001
 30
0.0
  0
VERTEX
  5
DA83
  8
OUTLINES
 62
     5
 10
340.9995727499982
 20
1479.180126484001
 30
0.0
  0
VERTEX
  5
DA84
  8
OUTLINES
 62
     5
 10
361.9995117199978
 20
1479.180126484001
 30
0.0
  0
VERTEX
  5
DA85
  8
OUTLINES
 62
     5
 10
361.9995117199978
 20
1550.179984469001
 30
0.0
  0
VERTEX
  5
DA86
  8
OUTLINES
 62
     5
 10
356.9995117199978
 20
1550.179984469001
 30
0.0
  0
VERTEX
  5
DA87
  8
OUTLINES
 62
     5
 10
356.9995117199978
 20
1560.179203734
 30
0.0
  0
VERTEX
  5
DA88
  8
OUTLINES
 62
     5
 10
379.9995117199978
 20
1560.179203734
 30
0.0
  0
VERTEX
  5
DA89
  8
OUTLINES
 62
     5
 10
379.9995117199978
 20
1680.178602473001
 30
0.0
  0
VERTEX
  5
DA8A
  8
OUTLINES
 62
     5
 10
338.9995727499982
 20
1680.178602473001
 30
0.0
  0
VERTEX
  5
DA8B
  8
OUTLINES
 62
     5
 10
338.9995727499982
 20
1690.179652655001
 30
0.0
  0
VERTEX
  5
DA8C
  8
OUTLINES
 62
     5
 10
343.9995727499982
 20
1690.179652655001
 30
0.0
  0
VERTEX
  5
DA8D
  8
OUTLINES
 62
     5
 10
343.9995727499982
 20
1850.179538188
 30
0.0
  0
VERTEX
  5
DA8E
  8
OUTLINES
 62
     5
 10
338.9995727499982
 20
1850.179538188
 30
0.0
  0
VERTEX
  5
DA8F
  8
OUTLINES
 62
     5
 10
338.9995727499982
 20
1860.178660697
 30
0.0
  0
VERTEX
  5
DA90
  8
OUTLINES
 62
     5
 10
379.9995117199978
 20
1860.178660697
 30
0.0
  0
VERTEX
  5
DA91
  8
OUTLINES
 62
     5
 10
379.9995117199978
 20
1980.178647414001
 30
0.0
  0
VERTEX
  5
DA92
  8
OUTLINES
 62
     5
 10
338.9995727499982
 20
1980.178647414001
 30
0.0
  0
VERTEX
  5
DA93
  8
OUTLINES
 62
     5
 10
338.9995727499982
 20
1990.178365343001
 30
0.0
  0
VERTEX
  5
DA94
  8
OUTLINES
 62
     5
 10
343.9995727499982
 20
1990.178365343001
 30
0.0
  0
VERTEX
  5
DA95
  8
OUTLINES
 62
     5
 10
343.9995727499982
 20
2150.178399731001
 30
0.0
  0
VERTEX
  5
DA96
  8
OUTLINES
 62
     5
 10
338.9995727499982
 20
2150.178399731001
 30
0.0
  0
VERTEX
  5
DA97
  8
OUTLINES
 62
     5
 10
338.9995727499982
 20
2160.17816232
 30
0.0
  0
VERTEX
  5
DA98
  8
OUTLINES
 62
     5
 10
379.9995117199978
 20
2160.17816232
 30
0.0
  0
VERTEX
  5
DA99
  8
OUTLINES
 62
     5
 10
379.9995117199978
 20
2299.764273640001
 30
0.0
  0
VERTEX
  5
DA9A
  8
OUTLINES
 62
     5
 10
304.9996337899984
 20
2299.764273640001
 30
0.0
  0
VERTEX
  5
DA9B
  8
OUTLINES
 62
     5
 10
304.9996337899984
 20
20.0
 30
0.0
  0
VERTEX
  5
DA9C
  8
OUTLINES
 62
     5
 10
379.9995117199978
 20
20.0
 30
0.0
  0
SEQEND
  5
DBB1
  8
OUTLINES
 62
     5
  0
POLYLINE
  5
D860
  8
OUTLINES
 62
     5
 66
     1
 10
0.0
 20
0.0
 30
0.0
 70
     1
  0
VERTEX
  5
DA9D
  8
OUTLINES
 62
     5
 10
474.9993896499973
 20
119.9992041900005
 30
0.0
  0
VERTEX
  5
DA9E
  8
OUTLINES
 62
     5
 10
433.9994506799976
 20
119.9992041900005
 30
0.0
  0
VERTEX
  5
DA9F
  8
OUTLINES
 62
     5
 10
433.9994506799976
 20
129.9986327799998
 30
0.0
  0
VERTEX
  5
DAA0
  8
OUTLINES
 62
     5
 10
438.9994506799976
 20
129.9986327799998
 30
0.0
  0
VERTEX
  5
DAA1
  8
OUTLINES
 62
     5
 10
438.9994506799976
 20
289.998427605
 30
0.0
  0
VERTEX
  5
DAA2
  8
OUTLINES
 62
     5
 10
433.9994506799976
 20
289.998427605
 30
0.0
  0
VERTEX
  5
DAA3
  8
OUTLINES
 62
     5
 10
433.9994506799976
 20
299.9991837980015
 30
0.0
  0
VERTEX
  5
DAA4
  8
OUTLINES
 62
     5
 10
474.9993896499973
 20
299.9991837980015
 30
0.0
  0
VERTEX
  5
DAA5
  8
OUTLINES
 62
     5
 10
474.9993896499973
 20
419.998828148
 30
0.0
  0
VERTEX
  5
DAA6
  8
OUTLINES
 62
     5
 10
433.9994506799976
 20
419.998828148
 30
0.0
  0
VERTEX
  5
DAA7
  8
OUTLINES
 62
     5
 10
433.9994506799976
 20
429.9980436910009
 30
0.0
  0
VERTEX
  5
DAA8
  8
OUTLINES
 62
     5
 10
438.9994506799976
 20
429.9980436910009
 30
0.0
  0
VERTEX
  5
DAA9
  8
OUTLINES
 62
     5
 10
438.9994506799976
 20
589.9981785569998
 30
0.0
  0
VERTEX
  5
DAAA
  8
OUTLINES
 62
     5
 10
433.9994506799976
 20
589.9981785569998
 30
0.0
  0
VERTEX
  5
DAAB
  8
OUTLINES
 62
     5
 10
433.9994506799976
 20
599.9988138059998
 30
0.0
  0
VERTEX
  5
DAAC
  8
OUTLINES
 62
     5
 10
474.9993896499973
 20
599.9988138059998
 30
0.0
  0
VERTEX
  5
DAAD
  8
OUTLINES
 62
     5
 10
474.9993896499973
 20
719.9983781460014
 30
0.0
  0
VERTEX
  5
DAAE
  8
OUTLINES
 62
     5
 10
451.9993896499973
 20
719.9983781460014
 30
0.0
  0
VERTEX
  5
DAAF
  8
OUTLINES
 62
     5
 10
451.9993896499973
 20
729.99764951
 30
0.0
  0
VERTEX
  5
DAB0
  8
OUTLINES
 62
     5
 10
456.9993896499973
 20
729.99764951
 30
0.0
  0
VERTEX
  5
DAB1
  8
OUTLINES
 62
     5
 10
456.9993896499973
 20
800.9974070180015
 30
0.0
  0
VERTEX
  5
DAB2
  8
OUTLINES
 62
     5
 10
435.9994506799976
 20
800.9974070180015
 30
0.0
  0
VERTEX
  5
DAB3
  8
OUTLINES
 62
     5
 10
435.9994506799976
 20
795.9976262020009
 30
0.0
  0
VERTEX
  5
DAB4
  8
OUTLINES
 62
     5
 10
425.9994506799976
 20
795.9976262020009
 30
0.0
  0
VERTEX
  5
DAB5
  8
OUTLINES
 62
     5
 10
425.9994506799976
 20
823.9974094959998
 30
0.0
  0
VERTEX
  5
DAB6
  8
OUTLINES
 62
     5
 10
435.9994506799976
 20
823.9974094959998
 30
0.0
  0
VERTEX
  5
DAB7
  8
OUTLINES
 62
     5
 10
435.9994506799976
 20
818.9976770579997
 30
0.0
  0
VERTEX
  5
DAB8
  8
OUTLINES
 62
     5
 10
456.9993896499973
 20
818.9976770579997
 30
0.0
  0
VERTEX
  5
DAB9
  8
OUTLINES
 62
     5
 10
456.9993896499973
 20
889.9975350430013
 30
0.0
  0
VERTEX
  5
DABA
  8
OUTLINES
 62
     5
 10
451.9993896499973
 20
889.9975350430013
 30
0.0
  0
VERTEX
  5
DABB
  8
OUTLINES
 62
     5
 10
451.9993896499973
 20
899.9981944810006
 30
0.0
  0
VERTEX
  5
DABC
  8
OUTLINES
 62
     5
 10
474.9993896499973
 20
899.9981944810006
 30
0.0
  0
VERTEX
  5
DABD
  8
OUTLINES
 62
     5
 10
474.9993896499973
 20
1050.088836255001
 30
0.0
  0
VERTEX
  5
DABE
  8
OUTLINES
 62
     5
 10
451.9993896499973
 20
1050.088836255001
 30
0.0
  0
VERTEX
  5
DABF
  8
OUTLINES
 62
     5
 10
451.9993896499973
 20
1060.089495692901
 30
0.0
  0
VERTEX
  5
DAC0
  8
OUTLINES
 62
     5
 10
456.9993896499973
 20
1060.089495692901
 30
0.0
  0
VERTEX
  5
DAC1
  8
OUTLINES
 62
     5
 10
456.9993896499973
 20
1220.0877959192
 30
0.0
  0
VERTEX
  5
DAC2
  8
OUTLINES
 62
     5
 10
451.9993896499973
 20
1220.0877959192
 30
0.0
  0
VERTEX
  5
DAC3
  8
OUTLINES
 62
     5
 10
451.9993896499973
 20
1230.088697246401
 30
0.0
  0
VERTEX
  5
DAC4
  8
OUTLINES
 62
     5
 10
474.9993896499973
 20
1230.088697246401
 30
0.0
  0
VERTEX
  5
DAC5
  8
OUTLINES
 62
     5
 10
474.9993896499973
 20
1380.179487876001
 30
0.0
  0
VERTEX
  5
DAC6
  8
OUTLINES
 62
     5
 10
451.9993896499973
 20
1380.179487876001
 30
0.0
  0
VERTEX
  5
DAC7
  8
OUTLINES
 62
     5
 10
451.9993896499973
 20
1390.180195692001
 30
0.0
  0
VERTEX
  5
DAC8
  8
OUTLINES
 62
     5
 10
456.9993896499973
 20
1390.180195692001
 30
0.0
  0
VERTEX
  5
DAC9
  8
OUTLINES
 62
     5
 10
456.9993896499973
 20
1461.179956921
 30
0.0
  0
VERTEX
  5
DACA
  8
OUTLINES
 62
     5
 10
435.9994506799976
 20
1461.179956921
 30
0.0
  0
VERTEX
  5
DACB
  8
OUTLINES
 62
     5
 10
435.9994506799976
 20
1456.180224483001
 30
0.0
  0
VERTEX
  5
DACC
  8
OUTLINES
 62
     5
 10
425.9994506799976
 20
1456.180224483001
 30
0.0
  0
VERTEX
  5
DACD
  8
OUTLINES
 62
     5
 10
425.9994506799976
 20
1484.179955678001
 30
0.0
  0
VERTEX
  5
DACE
  8
OUTLINES
 62
     5
 10
435.9994506799976
 20
1484.179955678001
 30
0.0
  0
VERTEX
  5
DACF
  8
OUTLINES
 62
     5
 10
435.9994506799976
 20
1479.180126484001
 30
0.0
  0
VERTEX
  5
DAD0
  8
OUTLINES
 62
     5
 10
456.9993896499973
 20
1479.180126484001
 30
0.0
  0
VERTEX
  5
DAD1
  8
OUTLINES
 62
     5
 10
456.9993896499973
 20
1550.179984469001
 30
0.0
  0
VERTEX
  5
DAD2
  8
OUTLINES
 62
     5
 10
451.9993896499973
 20
1550.179984469001
 30
0.0
  0
VERTEX
  5
DAD3
  8
OUTLINES
 62
     5
 10
451.9993896499973
 20
1560.179203734
 30
0.0
  0
VERTEX
  5
DAD4
  8
OUTLINES
 62
     5
 10
474.9993896499973
 20
1560.179203734
 30
0.0
  0
VERTEX
  5
DAD5
  8
OUTLINES
 62
     5
 10
474.9993896499973
 20
1680.178602473001
 30
0.0
  0
VERTEX
  5
DAD6
  8
OUTLINES
 62
     5
 10
433.9994506799976
 20
1680.178602473001
 30
0.0
  0
VERTEX
  5
DAD7
  8
OUTLINES
 62
     5
 10
433.9994506799976
 20
1690.179652655001
 30
0.0
  0
VERTEX
  5
DAD8
  8
OUTLINES
 62
     5
 10
438.9994506799976
 20
1690.179652655001
 30
0.0
  0
VERTEX
  5
DAD9
  8
OUTLINES
 62
     5
 10
438.9994506799976
 20
1850.179538188
 30
0.0
  0
VERTEX
  5
DADA
  8
OUTLINES
 62
     5
 10
433.9994506799976
 20
1850.179538188
 30
0.0
  0
VERTEX
  5
DADB
  8
OUTLINES
 62
     5
 10
433.9994506799976
 20
1860.178660697
 30
0.0
  0
VERTEX
  5
DADC
  8
OUTLINES
 62
     5
 10
474.9993896499973
 20
1860.178660697
 30
0.0
  0
VERTEX
  5
DADD
  8
OUTLINES
 62
     5
 10
474.9993896499973
 20
1980.178647414001
 30
0.0
  0
VERTEX
  5
DADE
  8
OUTLINES
 62
     5
 10
433.9994506799976
 20
1980.178647414001
 30
0.0
  0
VERTEX
  5
DADF
  8
OUTLINES
 62
     5
 10
433.9994506799976
 20
1990.178365343001
 30
0.0
  0
VERTEX
  5
DAE0
  8
OUTLINES
 62
     5
 10
438.9994506799976
 20
1990.178365343001
 30
0.0
  0
VERTEX
  5
DAE1
  8
OUTLINES
 62
     5
 10
438.9994506799976
 20
2150.178399731001
 30
0.0
  0
VERTEX
  5
DAE2
  8
OUTLINES
 62
     5
 10
433.9994506799976
 20
2150.178399731001
 30
0.0
  0
VERTEX
  5
DAE3
  8
OUTLINES
 62
     5
 10
433.9994506799976
 20
2160.17816232
 30
0.0
  0
VERTEX
  5
DAE4
  8
OUTLINES
 62
     5
 10
474.9993896499973
 20
2160.17816232
 30
0.0
  0
VERTEX
  5
DAE5
  8
OUTLINES
 62
     5
 10
474.9993896499973
 20
2299.764273640001
 30
0.0
  0
VERTEX
  5
DAE6
  8
OUTLINES
 62
     5
 10
399.9995117199978
 20
2299.764273640001
 30
0.0
  0
VERTEX
  5
DAE7
  8
OUTLINES
 62
     5
 10
399.9995117199978
 20
20.0
 30
0.0
  0
VERTEX
  5
DAE8
  8
OUTLINES
 62
     5
 10
474.9993896499973
 20
20.0
 30
0.0
  0
SEQEND
  5
DBB2
  8
OUTLINES
 62
     5
  0
POLYLINE
  5
D861
  8
OUTLINES
 62
     5
 66
     1
 10
0.0
 20
0.0
 30
0.0
 70
     1
  0
VERTEX
  5
DAE9
  8
OUTLINES
 62
     5
 10
854.9989013699978
 20
20.0
 30
0.0
  0
VERTEX
  5
DAEA
  8
OUTLINES
 62
     5
 10
779.9990234399975
 20
20.0
 30
0.0
  0
VERTEX
  5
DAEB
  8
OUTLINES
 62
     5
 10
779.9990234399975
 20
2206.582366940002
 30
0.0
  0
VERTEX
  5
DAEC
  8
OUTLINES
 62
     5
 10
854.9989013699978
 20
2206.582366940002
 30
0.0
  0
VERTEX
  5
DAED
  8
OUTLINES
 62
     5
 10
854.9989013699978
 20
2139.582489010001
 30
0.0
  0
VERTEX
  5
DAEE
  8
OUTLINES
 62
     5
 10
813.9989623999982
 20
2139.582489010001
 30
0.0
  0
VERTEX
  5
DAEF
  8
OUTLINES
 62
     5
 10
813.9989623999982
 20
2129.58251953
 30
0.0
  0
VERTEX
  5
DAF0
  8
OUTLINES
 62
     5
 10
818.9989623999982
 20
2129.58251953
 30
0.0
  0
VERTEX
  5
DAF1
  8
OUTLINES
 62
     5
 10
818.9989623999982
 20
1969.582824705001
 30
0.0
  0
VERTEX
  5
DAF2
  8
OUTLINES
 62
     5
 10
813.9989623999982
 20
1969.582824705001
 30
0.0
  0
VERTEX
  5
DAF3
  8
OUTLINES
 62
     5
 10
813.9989623999982
 20
1959.582885741002
 30
0.0
  0
VERTEX
  5
DAF4
  8
OUTLINES
 62
     5
 10
854.9989013699978
 20
1959.582885741002
 30
0.0
  0
VERTEX
  5
DAF5
  8
OUTLINES
 62
     5
 10
854.9989013699978
 20
1839.583129881001
 30
0.0
  0
VERTEX
  5
DAF6
  8
OUTLINES
 62
     5
 10
813.9989623999982
 20
1839.583129881001
 30
0.0
  0
VERTEX
  5
DAF7
  8
OUTLINES
 62
     5
 10
813.9989623999982
 20
1829.583190916001
 30
0.0
  0
VERTEX
  5
DAF8
  8
OUTLINES
 62
     5
 10
818.9989623999982
 20
1829.583190916001
 30
0.0
  0
VERTEX
  5
DAF9
  8
OUTLINES
 62
     5
 10
818.9989623999982
 20
1669.583496092
 30
0.0
  0
VERTEX
  5
DAFA
  8
OUTLINES
 62
     5
 10
813.9989623999982
 20
1669.583496092
 30
0.0
  0
VERTEX
  5
DAFB
  8
OUTLINES
 62
     5
 10
813.9989623999982
 20
1659.583496092
 30
0.0
  0
VERTEX
  5
DAFC
  8
OUTLINES
 62
     5
 10
854.9989013699978
 20
1659.583496092
 30
0.0
  0
VERTEX
  5
DAFD
  8
OUTLINES
 62
     5
 10
854.9989013699978
 20
1539.583740233
 30
0.0
  0
VERTEX
  5
DAFE
  8
OUTLINES
 62
     5
 10
831.9989013699978
 20
1539.583740233
 30
0.0
  0
VERTEX
  5
DAFF
  8
OUTLINES
 62
     5
 10
831.9989013699978
 20
1529.583801268001
 30
0.0
  0
VERTEX
  5
DB00
  8
OUTLINES
 62
     5
 10
836.9989013699978
 20
1529.583801268001
 30
0.0
  0
VERTEX
  5
DB01
  8
OUTLINES
 62
     5
 10
836.9989013699978
 20
1458.583862303001
 30
0.0
  0
VERTEX
  5
DB02
  8
OUTLINES
 62
     5
 10
815.9989623999982
 20
1458.583862303001
 30
0.0
  0
VERTEX
  5
DB03
  8
OUTLINES
 62
     5
 10
815.9989623999982
 20
1463.583862303001
 30
0.0
  0
VERTEX
  5
DB04
  8
OUTLINES
 62
     5
 10
805.9989623999982
 20
1463.583862303001
 30
0.0
  0
VERTEX
  5
DB05
  8
OUTLINES
 62
     5
 10
805.9989623999982
 20
1435.583862303001
 30
0.0
  0
VERTEX
  5
DB06
  8
OUTLINES
 62
     5
 10
815.9989623999982
 20
1435.583862303001
 30
0.0
  0
VERTEX
  5
DB07
  8
OUTLINES
 62
     5
 10
815.9989623999982
 20
1440.583862303001
 30
0.0
  0
VERTEX
  5
DB08
  8
OUTLINES
 62
     5
 10
836.9989013699978
 20
1440.583862303001
 30
0.0
  0
VERTEX
  5
DB09
  8
OUTLINES
 62
     5
 10
836.9989013699978
 20
1369.584106444001
 30
0.0
  0
VERTEX
  5
DB0A
  8
OUTLINES
 62
     5
 10
831.9989013699978
 20
1369.584106444001
 30
0.0
  0
VERTEX
  5
DB0B
  8
OUTLINES
 62
     5
 10
831.9989013699978
 20
1359.584106444001
 30
0.0
  0
VERTEX
  5
DB0C
  8
OUTLINES
 62
     5
 10
854.9989013699978
 20
1359.584106444001
 30
0.0
  0
VERTEX
  5
DB0D
  8
OUTLINES
 62
     5
 10
854.9989013699978
 20
1239.584350584
 30
0.0
  0
VERTEX
  5
DB0E
  8
OUTLINES
 62
     5
 10
831.9989013699978
 20
1239.584350584
 30
0.0
  0
VERTEX
  5
DB0F
  8
OUTLINES
 62
     5
 10
831.9989013699978
 20
1229.584350584
 30
0.0
  0
VERTEX
  5
DB10
  8
OUTLINES
 62
     5
 10
836.9989013699978
 20
1229.584350584
 30
0.0
  0
VERTEX
  5
DB11
  8
OUTLINES
 62
     5
 10
836.9989013699978
 20
1069.5845947249
 30
0.0
  0
VERTEX
  5
DB12
  8
OUTLINES
 62
     5
 10
831.9989013699978
 20
1069.5845947249
 30
0.0
  0
VERTEX
  5
DB13
  8
OUTLINES
 62
     5
 10
831.9986572299977
 20
1059.5845947249
 30
0.0
  0
VERTEX
  5
DB14
  8
OUTLINES
 62
     5
 10
854.9989013699978
 20
1059.5845947249
 30
0.0
  0
VERTEX
  5
DB15
  8
OUTLINES
 62
     5
 10
854.9989013699978
 20
939.5848388660015
 30
0.0
  0
VERTEX
  5
DB16
  8
OUTLINES
 62
     5
 10
831.9987792999982
 20
939.5848388660015
 30
0.0
  0
VERTEX
  5
DB17
  8
OUTLINES
 62
     5
 10
831.9989013699978
 20
929.5849609360012
 30
0.0
  0
VERTEX
  5
DB18
  8
OUTLINES
 62
     5
 10
836.9989013699978
 20
929.5849609360012
 30
0.0
  0
VERTEX
  5
DB19
  8
OUTLINES
 62
     5
 10
836.9989013699978
 20
858.5850830060008
 30
0.0
  0
VERTEX
  5
DB1A
  8
OUTLINES
 62
     5
 10
815.9989623999982
 20
858.5850830060008
 30
0.0
  0
VERTEX
  5
DB1B
  8
OUTLINES
 62
     5
 10
815.9989623999982
 20
840.5850830060008
 30
0.0
  0
VERTEX
  5
DB1C
  8
OUTLINES
 62
     5
 10
836.9989013699978
 20
840.5850830060008
 30
0.0
  0
VERTEX
  5
DB1D
  8
OUTLINES
 62
     5
 10
836.9989013699978
 20
769.5853271470005
 30
0.0
  0
VERTEX
  5
DB1E
  8
OUTLINES
 62
     5
 10
831.9989013699978
 20
769.5853271470005
 30
0.0
  0
VERTEX
  5
DB1F
  8
OUTLINES
 62
     5
 10
831.9989013699978
 20
759.5853271470005
 30
0.0
  0
VERTEX
  5
DB20
  8
OUTLINES
 62
     5
 10
854.9989013699978
 20
759.5853271470005
 30
0.0
  0
VERTEX
  5
DB21
  8
OUTLINES
 62
     5
 10
854.9989013699978
 20
639.5854492170001
 30
0.0
  0
VERTEX
  5
DB22
  8
OUTLINES
 62
     5
 10
813.9989623999982
 20
639.5854492170001
 30
0.0
  0
VERTEX
  5
DB23
  8
OUTLINES
 62
     5
 10
813.9989623999982
 20
629.5854492170001
 30
0.0
  0
VERTEX
  5
DB24
  8
OUTLINES
 62
     5
 10
818.9989623999982
 20
629.5854492170001
 30
0.0
  0
VERTEX
  5
DB25
  8
OUTLINES
 62
     5
 10
818.9989623999982
 20
469.5859374980009
 30
0.0
  0
VERTEX
  5
DB26
  8
OUTLINES
 62
     5
 10
813.9989623999982
 20
469.5859374980009
 30
0.0
  0
VERTEX
  5
DB27
  8
OUTLINES
 62
     5
 10
813.9989623999982
 20
459.5858154280013
 30
0.0
  0
VERTEX
  5
DB28
  8
OUTLINES
 62
     5
 10
854.9989013699978
 20
459.5858154280013
 30
0.0
  0
VERTEX
  5
DB29
  8
OUTLINES
 62
     5
 10
854.9989013699978
 20
339.5861816390006
 30
0.0
  0
VERTEX
  5
DB2A
  8
OUTLINES
 62
     5
 10
813.9989623999982
 20
339.5861816390006
 30
0.0
  0
VERTEX
  5
DB2B
  8
OUTLINES
 62
     5
 10
813.9989623999982
 20
329.5861816390006
 30
0.0
  0
VERTEX
  5
DB2C
  8
OUTLINES
 62
     5
 10
818.9989623999982
 20
329.5861816390006
 30
0.0
  0
VERTEX
  5
DB2D
  8
OUTLINES
 62
     5
 10
818.9989623999982
 20
169.5864257800004
 30
0.0
  0
VERTEX
  5
DB2E
  8
OUTLINES
 62
     5
 10
813.9989623999982
 20
169.5864257800004
 30
0.0
  0
VERTEX
  5
DB2F
  8
OUTLINES
 62
     5
 10
813.9989623999982
 20
159.5864257800004
 30
0.0
  0
VERTEX
  5
DB30
  8
OUTLINES
 62
     5
 10
854.9989013699978
 20
159.5864257800004
 30
0.0
  0
SEQEND
  5
DBB3
  8
OUTLINES
 62
     5
  0
POLYLINE
  5
D862
  8
OUTLINES
 62
     5
 66
     1
 10
0.0
 20
0.0
 30
0.0
 70
     1
  0
VERTEX
  5
DB31
  8
OUTLINES
 62
     5
 10
569.9992675799967
 20
220.7496337909997
 30
0.0
  0
VERTEX
  5
DB32
  8
OUTLINES
 62
     5
 10
546.9992675799967
 20
220.7496337909997
 30
0.0
  0
VERTEX
  5
DB33
  8
OUTLINES
 62
     5
 10
546.9992675799967
 20
230.7496185319997
 30
0.0
  0
VERTEX
  5
DB34
  8
OUTLINES
 62
     5
 10
551.9992675799967
 20
230.7496185319997
 30
0.0
  0
VERTEX
  5
DB35
  8
OUTLINES
 62
     5
 10
551.9992675799967
 20
390.7492904680003
 30
0.0
  0
VERTEX
  5
DB36
  8
OUTLINES
 62
     5
 10
546.9992675799967
 20
390.7492904680003
 30
0.0
  0
VERTEX
  5
DB37
  8
OUTLINES
 62
     5
 10
546.9992675799967
 20
400.7492675800004
 30
0.0
  0
VERTEX
  5
DB38
  8
OUTLINES
 62
     5
 10
569.9992675799967
 20
400.7492675800004
 30
0.0
  0
VERTEX
  5
DB39
  8
OUTLINES
 62
     5
 10
569.9992675799967
 20
520.7490234389988
 30
0.0
  0
VERTEX
  5
DB3A
  8
OUTLINES
 62
     5
 10
546.9992675799967
 20
520.7490234389988
 30
0.0
  0
VERTEX
  5
DB3B
  8
OUTLINES
 62
     5
 10
546.9992675799967
 20
530.749000550999
 30
0.0
  0
VERTEX
  5
DB3C
  8
OUTLINES
 62
     5
 10
551.9992675799967
 20
530.749000550999
 30
0.0
  0
VERTEX
  5
DB3D
  8
OUTLINES
 62
     5
 10
551.9992675799967
 20
690.7486724869996
 30
0.0
  0
VERTEX
  5
DB3E
  8
OUTLINES
 62
     5
 10
546.9992675799967
 20
690.7486724869996
 30
0.0
  0
VERTEX
  5
DB3F
  8
OUTLINES
 62
     5
 10
546.9992675799967
 20
700.748657229
 30
0.0
  0
VERTEX
  5
DB40
  8
OUTLINES
 62
     5
 10
569.9992675799967
 20
700.748657229
 30
0.0
  0
VERTEX
  5
DB41
  8
OUTLINES
 62
     5
 10
569.9992675799967
 20
820.7484130880002
 30
0.0
  0
VERTEX
  5
DB42
  8
OUTLINES
 62
     5
 10
546.9992675799967
 20
820.7484130880002
 30
0.0
  0
VERTEX
  5
DB43
  8
OUTLINES
 62
     5
 10
546.9992675799967
 20
830.7483825700001
 30
0.0
  0
VERTEX
  5
DB44
  8
OUTLINES
 62
     5
 10
551.9992675799967
 20
830.7483825700001
 30
0.0
  0
VERTEX
  5
DB45
  8
OUTLINES
 62
     5
 10
551.9992675799967
 20
990.7481079119989
 30
0.0
  0
VERTEX
  5
DB46
  8
OUTLINES
 62
     5
 10
546.9992675799967
 20
990.7481079119989
 30
0.0
  0
VERTEX
  5
DB47
  8
OUTLINES
 62
     5
 10
546.9992675799967
 20
1000.748046876999
 30
0.0
  0
VERTEX
  5
DB48
  8
OUTLINES
 62
     5
 10
569.9992675799967
 20
1000.748046876999
 30
0.0
  0
VERTEX
  5
DB49
  8
OUTLINES
 62
     5
 10
569.9992675799967
 20
1120.7478027364
 30
0.0
  0
VERTEX
  5
DB4A
  8
OUTLINES
 62
     5
 10
546.9992675799967
 20
1120.7478027364
 30
0.0
  0
VERTEX
  5
DB4B
  8
OUTLINES
 62
     5
 10
546.9992675799967
 20
1130.7478027364
 30
0.0
  0
VERTEX
  5
DB4C
  8
OUTLINES
 62
     5
 10
551.9992675799967
 20
1130.7478027364
 30
0.0
  0
VERTEX
  5
DB4D
  8
OUTLINES
 62
     5
 10
551.9992675799967
 20
1201.7476806661
 30
0.0
  0
VERTEX
  5
DB4E
  8
OUTLINES
 62
     5
 10
530.9993286099971
 20
1201.7476806661
 30
0.0
  0
VERTEX
  5
DB4F
  8
OUTLINES
 62
     5
 10
530.9993286099971
 20
1196.7476196309
 30
0.0
  0
VERTEX
  5
DB50
  8
OUTLINES
 62
     5
 10
520.9993286099971
 20
1196.7476196309
 30
0.0
  0
VERTEX
  5
DB51
  8
OUTLINES
 62
     5
 10
520.9993286099971
 20
1224.7476196309
 30
0.0
  0
VERTEX
  5
DB52
  8
OUTLINES
 62
     5
 10
530.9993286099971
 20
1224.7476196309
 30
0.0
  0
VERTEX
  5
DB53
  8
OUTLINES
 62
     5
 10
530.9993286099971
 20
1219.7475585957
 30
0.0
  0
VERTEX
  5
DB54
  8
OUTLINES
 62
     5
 10
551.9992675799967
 20
1219.7475585957
 30
0.0
  0
VERTEX
  5
DB55
  8
OUTLINES
 62
     5
 10
551.9992675799967
 20
1290.74737549
 30
0.0
  0
VERTEX
  5
DB56
  8
OUTLINES
 62
     5
 10
546.9992675799967
 20
1290.74737549
 30
0.0
  0
VERTEX
  5
DB57
  8
OUTLINES
 62
     5
 10
546.9992675799967
 20
1300.747497561
 30
0.0
  0
VERTEX
  5
DB58
  8
OUTLINES
 62
     5
 10
569.9992675799967
 20
1300.747497561
 30
0.0
  0
VERTEX
  5
DB59
  8
OUTLINES
 62
     5
 10
569.9992675799967
 20
1420.747192384999
 30
0.0
  0
VERTEX
  5
DB5A
  8
OUTLINES
 62
     5
 10
546.9992675799967
 20
1420.747192384999
 30
0.0
  0
VERTEX
  5
DB5B
  8
OUTLINES
 62
     5
 10
546.9992675799967
 20
1430.747192384999
 30
0.0
  0
VERTEX
  5
DB5C
  8
OUTLINES
 62
     5
 10
551.9992675799967
 20
1430.747192384999
 30
0.0
  0
VERTEX
  5
DB5D
  8
OUTLINES
 62
     5
 10
551.9992675799967
 20
1590.746826174
 30
0.0
  0
VERTEX
  5
DB5E
  8
OUTLINES
 62
     5
 10
546.9992675799967
 20
1590.746826174
 30
0.0
  0
VERTEX
  5
DB5F
  8
OUTLINES
 62
     5
 10
546.9992675799967
 20
1600.746826174
 30
0.0
  0
VERTEX
  5
DB60
  8
OUTLINES
 62
     5
 10
569.9992675799967
 20
1600.746826174
 30
0.0
  0
VERTEX
  5
DB61
  8
OUTLINES
 62
     5
 10
569.9992675799967
 20
1720.746582033
 30
0.0
  0
VERTEX
  5
DB62
  8
OUTLINES
 62
     5
 10
528.9993286099971
 20
1720.746582033
 30
0.0
  0
VERTEX
  5
DB63
  8
OUTLINES
 62
     5
 10
528.9993286099971
 20
1730.746459963
 30
0.0
  0
VERTEX
  5
DB64
  8
OUTLINES
 62
     5
 10
533.9993286099971
 20
1730.746459963
 30
0.0
  0
VERTEX
  5
DB65
  8
OUTLINES
 62
     5
 10
533.9993286099971
 20
1890.746215821999
 30
0.0
  0
VERTEX
  5
DB66
  8
OUTLINES
 62
     5
 10
528.9993286099971
 20
1890.746215821999
 30
0.0
  0
VERTEX
  5
DB67
  8
OUTLINES
 62
     5
 10
528.9993286099971
 20
1900.746215821999
 30
0.0
  0
VERTEX
  5
DB68
  8
OUTLINES
 62
     5
 10
569.9992675799967
 20
1900.746215821999
 30
0.0
  0
VERTEX
  5
DB69
  8
OUTLINES
 62
     5
 10
569.9992675799967
 20
2020.745971681999
 30
0.0
  0
VERTEX
  5
DB6A
  8
OUTLINES
 62
     5
 10
528.9993286099971
 20
2020.745971681999
 30
0.0
  0
VERTEX
  5
DB6B
  8
OUTLINES
 62
     5
 10
528.9993286099971
 20
2030.745971681999
 30
0.0
  0
VERTEX
  5
DB6C
  8
OUTLINES
 62
     5
 10
533.9993286099971
 20
2030.745971681999
 30
0.0
  0
VERTEX
  5
DB6D
  8
OUTLINES
 62
     5
 10
533.9993286099971
 20
2190.74560547
 30
0.0
  0
VERTEX
  5
DB6E
  8
OUTLINES
 62
     5
 10
528.9993286099971
 20
2190.74560547
 30
0.0
  0
VERTEX
  5
DB6F
  8
OUTLINES
 62
     5
 10
528.9993286099971
 20
2200.74560547
 30
0.0
  0
VERTEX
  5
DB70
  8
OUTLINES
 62
     5
 10
569.9992675799967
 20
2200.74560547
 30
0.0
  0
VERTEX
  5
DB71
  8
OUTLINES
 62
     5
 10
569.9992675799958
 20
2285.7454834
 30
0.0
  0
VERTEX
  5
DB72
  8
OUTLINES
 62
     5
 10
494.9993896499973
 20
2285.7454834
 30
0.0
  0
VERTEX
  5
DB73
  8
OUTLINES
 62
     5
 10
494.9993896499973
 20
20.0
 30
0.0
  0
VERTEX
  5
DB74
  8
OUTLINES
 62
     5
 10
551.9992675799967
 20
20.0
 30
0.0
  0
VERTEX
  5
DB75
  8
OUTLINES
 62
     5
 10
551.9992675799967
 20
90.74990844999957
 30
0.0
  0
VERTEX
  5
DB76
  8
OUTLINES
 62
     5
 10
546.9992675799967
 20
90.74990844999957
 30
0.0
  0
VERTEX
  5
DB77
  8
OUTLINES
 62
     5
 10
546.9992675799967
 20
100.7498779300004
 30
0.0
  0
VERTEX
  5
DB78
  8
OUTLINES
 62
     5
 10
569.9992675799967
 20
100.7498779300004
 30
0.0
  0
SEQEND
  5
DBB4
  8
OUTLINES
 62
     5
  0
POLYLINE
  5
D864
  8
OUTLINES
 62
     5
 66
     1
 10
0.0
 20
0.0
 30
0.0
 70
     1
  0
VERTEX
  5
DB79
  8
OUTLINES
 62
     5
 10
1139.998535160014
 20
104.9998779300004
 30
0.0
  0
VERTEX
  5
DB7A
  8
OUTLINES
 62
     5
 10
1098.998596190015
 20
104.9998779300004
 30
0.0
  0
VERTEX
  5
DB7B
  8
OUTLINES
 62
     5
 10
1098.998596190015
 20
114.9998779300004
 30
0.0
  0
VERTEX
  5
DB7C
  8
OUTLINES
 62
     5
 10
1103.998596190015
 20
114.9998779300004
 30
0.0
  0
VERTEX
  5
DB7D
  8
OUTLINES
 62
     5
 10
1103.998596190015
 20
274.9995117200015
 30
0.0
  0
VERTEX
  5
DB7E
  8
OUTLINES
 62
     5
 10
1098.998596190015
 20
274.9995117200015
 30
0.0
  0
VERTEX
  5
DB7F
  8
OUTLINES
 62
     5
 10
1098.998596190015
 20
284.9995117200015
 30
0.0
  0
VERTEX
  5
DB80
  8
OUTLINES
 62
     5
 10
1139.998535160014
 20
284.9995117200015
 30
0.0
  0
VERTEX
  5
DB81
  8
OUTLINES
 62
     5
 10
1139.998535160014
 20
404.9992675800004
 30
0.0
  0
VERTEX
  5
DB82
  8
OUTLINES
 62
     5
 10
1098.998596190015
 20
404.9992675800004
 30
0.0
  0
VERTEX
  5
DB83
  8
OUTLINES
 62
     5
 10
1098.998596190015
 20
414.9992675800004
 30
0.0
  0
VERTEX
  5
DB84
  8
OUTLINES
 62
     5
 10
1103.998596190015
 20
414.9992675800004
 30
0.0
  0
VERTEX
  5
DB85
  8
OUTLINES
 62
     5
 10
1103.998596190015
 20
574.9990234399993
 30
0.0
  0
VERTEX
  5
DB86
  8
OUTLINES
 62
     5
 10
1098.998596190015
 20
574.9990234399993
 30
0.0
  0
VERTEX
  5
DB87
  8
OUTLINES
 62
     5
 10
1098.998596190015
 20
584.9989013699997
 30
0.0
  0
VERTEX
  5
DB88
  8
OUTLINES
 62
     5
 10
1139.998535160014
 20
584.9989013699997
 30
0.0
  0
VERTEX
  5
DB89
  8
OUTLINES
 62
     5
 10
1139.998535160014
 20
704.9986572300004
 30
0.0
  0
VERTEX
  5
DB8A
  8
OUTLINES
 62
     5
 10
1116.998535160014
 20
704.9986572300004
 30
0.0
  0
VERTEX
  5
DB8B
  8
OUTLINES
 62
     5
 10
1116.998535160014
 20
714.9986572300004
 30
0.0
  0
VERTEX
  5
DB8C
  8
OUTLINES
 62
     5
 10
1121.998535160014
 20
714.9986572300004
 30
0.0
  0
VERTEX
  5
DB8D
  8
OUTLINES
 62
     5
 10
1121.998535160014
 20
874.9982910200015
 30
0.0
  0
VERTEX
  5
DB8E
  8
OUTLINES
 62
     5
 10
1116.998535160014
 20
874.9982910200015
 30
0.0
  0
VERTEX
  5
DB8F
  8
OUTLINES
 62
     5
 10
1116.998535160014
 20
884.9982910200015
 30
0.0
  0
VERTEX
  5
DB90
  8
OUTLINES
 62
     5
 10
1139.998535160014
 20
884.9982910200015
 30
0.0
  0
VERTEX
  5
DB91
  8
OUTLINES
 62
     5
 10
1139.998535160014
 20
1004.99798584
 30
0.0
  0
VERTEX
  5
DB92
  8
OUTLINES
 62
     5
 10
1116.998535160014
 20
1004.99798584
 30
0.0
  0
VERTEX
  5
DB93
  8
OUTLINES
 62
     5
 10
1116.998535160014
 20
1014.99810791
 30
0.0
  0
VERTEX
  5
DB94
  8
OUTLINES
 62
     5
 10
1121.998535160014
 20
1014.99810791
 30
0.0
  0
VERTEX
  5
DB95
  8
OUTLINES
 62
     5
 10
1121.998535160014
 20
1085.997924810001
 30
0.0
  0
VERTEX
  5
DB96
  8
OUTLINES
 62
     5
 10
1100.998596190015
 20
1085.997924810001
 30
0.0
  0
VERTEX
  5
DB97
  8
OUTLINES
 62
     5
 10
1100.998596190015
 20
1080.997863770001
 30
0.0
  0
VERTEX
  5
DB98
  8
OUTLINES
 62
     5
 10
1090.998596190015
 20
1080.997863770001
 30
0.0
  0
VERTEX
  5
DB99
  8
OUTLINES
 62
     5
 10
1090.998596190015
 20
1108.997863770001
 30
0.0
  0
VERTEX
  5
DB9A
  8
OUTLINES
 62
     5
 10
1100.998596190015
 20
1108.997863770001
 30
0.0
  0
VERTEX
  5
DB9B
  8
OUTLINES
 62
     5
 10
1100.998596190015
 20
1103.997802739999
 30
0.0
  0
VERTEX
  5
DB9C
  8
OUTLINES
 62
     5
 10
1121.998535160014
 20
1103.997802739999
 30
0.0
  0
VERTEX
  5
DB9D
  8
OUTLINES
 62
     5
 10
1121.998535160014
 20
1174.99768067
 30
0.0
  0
VERTEX
  5
DB9E
  8
OUTLINES
 62
     5
 10
1116.998535160014
 20
1174.99768067
 30
0.0
  0
VERTEX
  5
DB9F
  8
OUTLINES
 62
     5
 10
1116.998535160014
 20
1184.99768067
 30
0.0
  0
VERTEX
  5
DBA0
  8
OUTLINES
 62
     5
 10
1139.998535160014
 20
1184.99768067
 30
0.0
  0
VERTEX
  5
DBA1
  8
OUTLINES
 62
     5
 10
1139.998535160014
 20
1304.99743653
 30
0.0
  0
VERTEX
  5
DBA2
  8
OUTLINES
 62
     5
 10
1116.998535160014
 20
1304.99743653
 30
0.0
  0
VERTEX
  5
DBA3
  8
OUTLINES
 62
     5
 10
1116.998535160014
 20
1314.99737549
 30
0.0
  0
VERTEX
  5
DBA4
  8
OUTLINES
 62
     5
 10
1121.998535160014
 20
1314.99737549
 30
0.0
  0
VERTEX
  5
DBA5
  8
OUTLINES
 62
     5
 10
1121.998535160014
 20
1403.747314460001
 30
0.0
  0
VERTEX
  5
DBA6
  8
OUTLINES
 62
     5
 10
1064.998657230014
 20
1403.747314460001
 30
0.0
  0
VERTEX
  5
DBA7
  8
OUTLINES
 62
     5
 10
1064.998657230014
 20
20.0
 30
0.0
  0
VERTEX
  5
DBA8
  8
OUTLINES
 62
     5
 10
1139.99853516003
 20
20.0
 30
0.0
  0
SEQEND
  5
DBB5
  8
OUTLINES
 62
     5
  0
ENDSEC
  0
EOF
