  0
SECTION
  2
HEADER
  9
$ACADVER
  1
AC1009
  9
$INSBASE
 10
0.0
 20
0.0
 30
0.0
  9
$EXTMIN
 10
0.0
 20
0.0
 30
0.0
  9
$EXTMAX
 10
0.0
 20
0.0
 30
0.0
  0
ENDSEC
  0
SECTION
  2
TABLES
  0
TABLE
  2
VPORT
 70
0
  0
ENDTAB
  0
TABLE
  2
LTYPE
 70
1
  0
LTYPE
  2
CONTINUOUS
 70
0
  3
Solid line
 72
65
 73
0
 40
0.0
  0
ENDTAB
  0
TABLE
  2
LAYER
 70
1
  0
LAYER
  2
0
 70
64
 62
7
  6
continuous
  0
ENDTAB
  0
TABLE
  2
STYLE
 70
1
  0
STYLE
  2
STANDARD
 70
0
 40
0
 41
1.0
 50
0.0
 71
0
 42
1
 3
ARIAL.TTF
 4

  0
ENDTAB
  0
TABLE
  2
VIEW
 70
0
  0
ENDTAB
  0
ENDSEC
  0
SECTION
  2
BLOCKS
  0
ENDSEC
  0
SECTION
  2
ENTITIES
  0
POLYLINE
  8
Outlines
 62
5
 70
1
 66
1
 10
0.0
 20
0.0
 30
0.0
  0
VERTEX
  8
Outlines
 10
1957.0010376
 20
-423.498962402
 30
1.13686837722e-13
  0
VERTEX
  8
Outlines
 10
1967.00109863
 20
-423.498962402
 30
1.13686837722e-13
  0
VERTEX
  8
Outlines
 10
1967.00109863
 20
-446.498962402
 30
1.13686837722e-13
  0
VERTEX
  8
Outlines
 10
2147.0007019
 20
-446.498962402
 30
1.13686837722e-13
  0
VERTEX
  8
Outlines
 10
2147.0007019
 20
-423.498962402
 30
1.13686837722e-13
  0
VERTEX
  8
Outlines
 10
2157.00067139
 20
-423.498962402
 30
1.13686837722e-13
  0
VERTEX
  8
Outlines
 10
2157.00067139
 20
-428.499206543
 30
1.13686837722e-13
  0
VERTEX
  8
Outlines
 10
2257.00048828
 20
-428.499206543
 30
0.0
  0
VERTEX
  8
Outlines
 10
2257.00048828
 20
-423.498962402
 30
0.0
  0
VERTEX
  8
Outlines
 10
2267.00047302
 20
-423.498962402
 30
0.0
  0
VERTEX
  8
Outlines
 10
2267.00047302
 20
-446.498962402
 30
0.0
  0
VERTEX
  8
Outlines
 10
2447.00010681
 20
-446.498962402
 30
0.0
  0
VERTEX
  8
Outlines
 10
2447.00010681
 20
-423.498962402
 30
0.0
  0
VERTEX
  8
Outlines
 10
2457.00009918
 20
-423.498962402
 30
0.0
  0
VERTEX
  8
Outlines
 10
2457.00009918
 20
-428.499206543
 30
0.0
  0
VERTEX
  8
Outlines
 10
2482.00003815
 20
-428.499206543
 30
0.0
  0
VERTEX
  8
Outlines
 10
2482.00003815
 20
-384.499084473
 30
0.0
  0
VERTEX
  8
Outlines
 10
2477.00004578
 20
-384.499084473
 30
0.0
  0
VERTEX
  8
Outlines
 10
2477.00004578
 20
-374.499206543
 30
0.0
  0
VERTEX
  8
Outlines
 10
2500.0
 20
-374.499206543
 30
0.0
  0
VERTEX
  8
Outlines
 10
2500.0
 20
-344.499206543
 30
0.0
  0
VERTEX
  8
Outlines
 10
2456.00009155
 20
-344.499206543
 30
0.0
  0
VERTEX
  8
Outlines
 10
2456.00009155
 20
-349.499328613
 30
0.0
  0
VERTEX
  8
Outlines
 10
2446.00010681
 20
-349.499328613
 30
0.0
  0
VERTEX
  8
Outlines
 10
2446.00010681
 20
-257.499572754
 30
0.0
  0
VERTEX
  8
Outlines
 10
2456.00009155
 20
-257.499572754
 30
0.0
  0
VERTEX
  8
Outlines
 10
2456.00009155
 20
-262.499450684
 30
0.0
  0
VERTEX
  8
Outlines
 10
2482.00003815
 20
-262.499450684
 30
0.0
  0
VERTEX
  8
Outlines
 10
2482.00003815
 20
-103.499816895
 30
0.0
  0
VERTEX
  8
Outlines
 10
2477.00004578
 20
-103.499816895
 30
0.0
  0
VERTEX
  8
Outlines
 10
2477.00004578
 20
-93.4998168945
 30
0.0
  0
VERTEX
  8
Outlines
 10
2500.0
 20
-93.4998168945
 30
0.0
  0
VERTEX
  8
Outlines
 10
2500.0
 20
86.4998168945
 30
0.0
  0
VERTEX
  8
Outlines
 10
2477.00004578
 20
86.4998168945
 30
0.0
  0
VERTEX
  8
Outlines
 10
2477.00004578
 20
96.4998168945
 30
0.0
  0
VERTEX
  8
Outlines
 10
2482.00003815
 20
96.4998168945
 30
0.0
  0
VERTEX
  8
Outlines
 10
2482.00003815
 20
196.499572754
 30
0.0
  0
VERTEX
  8
Outlines
 10
2477.00004578
 20
196.499572754
 30
0.0
  0
VERTEX
  8
Outlines
 10
2477.00004578
 20
206.499572754
 30
0.0
  0
VERTEX
  8
Outlines
 10
2500.0
 20
206.499572754
 30
0.0
  0
VERTEX
  8
Outlines
 10
2500.0
 20
386.499206543
 30
0.0
  0
VERTEX
  8
Outlines
 10
2477.00004578
 20
386.499206543
 30
0.0
  0
VERTEX
  8
Outlines
 10
2477.00004578
 20
396.499206543
 30
0.0
  0
VERTEX
  8
Outlines
 10
2482.00003815
 20
396.499206543
 30
0.0
  0
VERTEX
  8
Outlines
 10
2482.00003815
 20
446.498962402
 30
0.0
  0
VERTEX
  8
Outlines
 10
2232.00054932
 20
446.498962402
 30
1.13686837722e-13
  0
VERTEX
  8
Outlines
 10
2232.00054932
 20
396.499206543
 30
1.13686837722e-13
  0
VERTEX
  8
Outlines
 10
2237.00054932
 20
396.499206543
 30
1.13686837722e-13
  0
VERTEX
  8
Outlines
 10
2237.00054932
 20
386.499206543
 30
1.13686837722e-13
  0
VERTEX
  8
Outlines
 10
2214.00057983
 20
386.499206543
 30
1.13686837722e-13
  0
VERTEX
  8
Outlines
 10
2214.00057983
 20
206.499572754
 30
1.13686837722e-13
  0
VERTEX
  8
Outlines
 10
2237.00054932
 20
206.499572754
 30
1.13686837722e-13
  0
VERTEX
  8
Outlines
 10
2237.00054932
 20
196.499572754
 30
1.13686837722e-13
  0
VERTEX
  8
Outlines
 10
2232.00054932
 20
196.499572754
 30
1.13686837722e-13
  0
VERTEX
  8
Outlines
 10
2232.00054932
 20
96.4998168945
 30
1.13686837722e-13
  0
VERTEX
  8
Outlines
 10
2237.00054932
 20
96.4998168945
 30
1.13686837722e-13
  0
VERTEX
  8
Outlines
 10
2237.00054932
 20
86.4998168945
 30
1.13686837722e-13
  0
VERTEX
  8
Outlines
 10
2214.00057983
 20
86.4998168945
 30
1.13686837722e-13
  0
VERTEX
  8
Outlines
 10
2214.00057983
 20
-93.4998168945
 30
1.13686837722e-13
  0
VERTEX
  8
Outlines
 10
2237.00054932
 20
-93.4998168945
 30
1.13686837722e-13
  0
VERTEX
  8
Outlines
 10
2237.00054932
 20
-103.499816895
 30
1.13686837722e-13
  0
VERTEX
  8
Outlines
 10
2232.00054932
 20
-103.499816895
 30
1.13686837722e-13
  0
VERTEX
  8
Outlines
 10
2232.00054932
 20
-178.499694824
 30
1.13686837722e-13
  0
VERTEX
  8
Outlines
 10
2157.00067139
 20
-178.499694824
 30
1.13686837722e-13
  0
VERTEX
  8
Outlines
 10
2157.00067139
 20
-183.499572754
 30
1.13686837722e-13
  0
VERTEX
  8
Outlines
 10
2147.0007019
 20
-183.499572754
 30
1.13686837722e-13
  0
VERTEX
  8
Outlines
 10
2147.0007019
 20
-160.499572754
 30
1.13686837722e-13
  0
VERTEX
  8
Outlines
 10
1967.00109863
 20
-160.499572754
 30
1.13686837722e-13
  0
VERTEX
  8
Outlines
 10
1967.00109863
 20
-183.499572754
 30
1.13686837722e-13
  0
VERTEX
  8
Outlines
 10
1957.0010376
 20
-183.499572754
 30
1.13686837722e-13
  0
VERTEX
  8
Outlines
 10
1957.0010376
 20
-178.499694824
 30
1.13686837722e-13
  0
VERTEX
  8
Outlines
 10
1900.0
 20
-178.499694824
 30
1.13686837722e-13
  0
VERTEX
  8
Outlines
 10
1900.0
 20
-428.499206543
 30
1.13686837722e-13
  0
VERTEX
  8
Outlines
 10
1957.0010376
 20
-428.499206543
 30
1.13686837722e-13
  0
SEQEND
  8
Outlines
  0
POLYLINE
  8
Cuts
 62
4
 70
1
 66
1
 10
0.0
 20
0.0
 30
0.0
  0
VERTEX
  8
Cuts
 10
2250.0005188
 20
-33.5000610352
 30
0.0
  0
VERTEX
  8
Cuts
 10
2232.00054932
 20
-33.5000610352
 30
1.13686837722e-13
  0
VERTEX
  8
Cuts
 10
2232.00054932
 20
26.4999389648
 30
1.13686837722e-13
  0
VERTEX
  8
Cuts
 10
2250.0005188
 20
26.4999389648
 30
0.0
  0
SEQEND
  8
Cuts
  0
POLYLINE
  8
Cuts
 62
4
 70
1
 66
1
 10
0.0
 20
0.0
 30
0.0
  0
VERTEX
  8
Cuts
 10
2027.00097656
 20
-178.499694824
 30
1.13686837722e-13
  0
VERTEX
  8
Cuts
 10
2087.00085449
 20
-178.499694824
 30
1.13686837722e-13
  0
VERTEX
  8
Cuts
 10
2087.00085449
 20
-196.499572754
 30
1.13686837722e-13
  0
VERTEX
  8
Cuts
 10
2027.00097656
 20
-196.499572754
 30
1.13686837722e-13
  0
SEQEND
  8
Cuts
  0
POLYLINE
  8
Cuts
 62
4
 70
1
 66
1
 10
0.0
 20
0.0
 30
0.0
  0
VERTEX
  8
Cuts
 10
2027.00097656
 20
-410.499206543
 30
1.13686837722e-13
  0
VERTEX
  8
Cuts
 10
2087.00085449
 20
-410.499206543
 30
1.13686837722e-13
  0
VERTEX
  8
Cuts
 10
2087.00085449
 20
-428.499206543
 30
1.13686837722e-13
  0
VERTEX
  8
Cuts
 10
2027.00097656
 20
-428.499206543
 30
1.13686837722e-13
  0
SEQEND
  8
Cuts
  0
POLYLINE
  8
Cuts
 62
4
 70
1
 66
1
 10
0.0
 20
0.0
 30
0.0
  0
VERTEX
  8
Cuts
 10
2343.00032043
 20
-339.499328613
 30
0.0
  0
VERTEX
  8
Cuts
 10
2343.00032043
 20
-329.499328613
 30
0.0
  0
VERTEX
  8
Cuts
 10
2348.00030518
 20
-329.499328613
 30
0.0
  0
VERTEX
  8
Cuts
 10
2348.00030518
 20
-312.499450684
 30
0.0
  0
VERTEX
  8
Cuts
 10
2199.00061035
 20
-312.499450684
 30
1.13686837722e-13
  0
VERTEX
  8
Cuts
 10
2199.00061035
 20
-294.499328613
 30
1.13686837722e-13
  0
VERTEX
  8
Cuts
 10
2348.00030518
 20
-294.499328613
 30
0.0
  0
VERTEX
  8
Cuts
 10
2348.00030518
 20
-277.499450684
 30
0.0
  0
VERTEX
  8
Cuts
 10
2343.00032043
 20
-277.499450684
 30
0.0
  0
VERTEX
  8
Cuts
 10
2343.00032043
 20
-267.499450684
 30
0.0
  0
VERTEX
  8
Cuts
 10
2371.0002594
 20
-267.499450684
 30
0.0
  0
VERTEX
  8
Cuts
 10
2371.0002594
 20
-277.499450684
 30
0.0
  0
VERTEX
  8
Cuts
 10
2366.00027466
 20
-277.499450684
 30
0.0
  0
VERTEX
  8
Cuts
 10
2366.00027466
 20
-294.499328613
 30
0.0
  0
VERTEX
  8
Cuts
 10
2417.00016785
 20
-294.499328613
 30
0.0
  0
VERTEX
  8
Cuts
 10
2417.00016785
 20
-289.499450684
 30
0.0
  0
VERTEX
  8
Cuts
 10
2427.00014496
 20
-289.499450684
 30
0.0
  0
VERTEX
  8
Cuts
 10
2427.00014496
 20
-317.499328613
 30
0.0
  0
VERTEX
  8
Cuts
 10
2417.00016785
 20
-317.499328613
 30
0.0
  0
VERTEX
  8
Cuts
 10
2417.00016785
 20
-312.499450684
 30
0.0
  0
VERTEX
  8
Cuts
 10
2366.00027466
 20
-312.499450684
 30
0.0
  0
VERTEX
  8
Cuts
 10
2366.00027466
 20
-329.499328613
 30
0.0
  0
VERTEX
  8
Cuts
 10
2371.0002594
 20
-329.499328613
 30
0.0
  0
VERTEX
  8
Cuts
 10
2371.0002594
 20
-339.499328613
 30
0.0
  0
SEQEND
  8
Cuts
  0
POLYLINE
  8
Cuts
 62
4
 70
1
 66
1
 10
0.0
 20
0.0
 30
0.0
  0
VERTEX
  8
Cuts
 10
2387.00022888
 20
-410.499206543
 30
0.0
  0
VERTEX
  8
Cuts
 10
2387.00022888
 20
-428.499206543
 30
0.0
  0
VERTEX
  8
Cuts
 10
2327.00035095
 20
-428.499206543
 30
0.0
  0
VERTEX
  8
Cuts
 10
2327.00035095
 20
-410.499206543
 30
0.0
  0
SEQEND
  8
Cuts
  0
POLYLINE
  8
Cuts
 62
4
 70
1
 66
1
 10
0.0
 20
0.0
 30
0.0
  0
VERTEX
  8
Cuts
 10
2464.00006866
 20
326.499328613
 30
0.0
  0
VERTEX
  8
Cuts
 10
2482.00003815
 20
326.499328613
 30
0.0
  0
VERTEX
  8
Cuts
 10
2482.00003815
 20
266.499450684
 30
0.0
  0
VERTEX
  8
Cuts
 10
2464.00006866
 20
266.499450684
 30
0.0
  0
SEQEND
  8
Cuts
  0
POLYLINE
  8
Cuts
 62
4
 70
1
 66
1
 10
0.0
 20
0.0
 30
0.0
  0
VERTEX
  8
Cuts
 10
2232.00054932
 20
326.499328613
 30
1.13686837722e-13
  0
VERTEX
  8
Cuts
 10
2250.0005188
 20
326.499328613
 30
0.0
  0
VERTEX
  8
Cuts
 10
2250.0005188
 20
266.499450684
 30
0.0
  0
VERTEX
  8
Cuts
 10
2232.00054932
 20
266.499450684
 30
1.13686837722e-13
  0
SEQEND
  8
Cuts
  0
POLYLINE
  8
Cuts
 62
4
 70
1
 66
1
 10
0.0
 20
0.0
 30
0.0
  0
VERTEX
  8
Cuts
 10
2321.00036621
 20
-17.5000610352
 30
0.0
  0
VERTEX
  8
Cuts
 10
2321.00036621
 20
10.5000610352
 30
0.0
  0
VERTEX
  8
Cuts
 10
2331.00033569
 20
10.5000610352
 30
0.0
  0
VERTEX
  8
Cuts
 10
2331.00033569
 20
5.49993896484
 30
0.0
  0
VERTEX
  8
Cuts
 10
2383.00023651
 20
5.49993896484
 30
0.0
  0
VERTEX
  8
Cuts
 10
2383.00023651
 20
10.5000610352
 30
0.0
  0
VERTEX
  8
Cuts
 10
2393.00021362
 20
10.5000610352
 30
0.0
  0
VERTEX
  8
Cuts
 10
2393.00021362
 20
-17.5000610352
 30
0.0
  0
VERTEX
  8
Cuts
 10
2383.00023651
 20
-17.5000610352
 30
0.0
  0
VERTEX
  8
Cuts
 10
2383.00023651
 20
-12.4999389648
 30
0.0
  0
VERTEX
  8
Cuts
 10
2331.00033569
 20
-12.4999389648
 30
0.0
  0
VERTEX
  8
Cuts
 10
2331.00033569
 20
-17.5000610352
 30
0.0
  0
SEQEND
  8
Cuts
  0
POLYLINE
  8
Cuts
 62
4
 70
1
 66
1
 10
0.0
 20
0.0
 30
0.0
  0
VERTEX
  8
Cuts
 10
2464.00006866
 20
26.4999389648
 30
0.0
  0
VERTEX
  8
Cuts
 10
2482.00003815
 20
26.4999389648
 30
0.0
  0
VERTEX
  8
Cuts
 10
2482.00003815
 20
-33.5000610352
 30
0.0
  0
VERTEX
  8
Cuts
 10
2464.00006866
 20
-33.5000610352
 30
0.0
  0
SEQEND
  8
Cuts
  0
POLYLINE
  8
Outlines
 62
5
 70
1
 66
1
 10
0.0
 20
0.0
 30
0.0
  0
VERTEX
  8
Outlines
 10
3815.55117798
 20
-1287.81244278
 30
0.0
  0
VERTEX
  8
Outlines
 10
3784.44882202
 20
-1287.81244278
 30
0.0
  0
VERTEX
  8
Outlines
 10
3777.59848022
 20
-1360.18757248
 30
0.0
  0
VERTEX
  8
Outlines
 10
3743.49984741
 20
-1360.18757248
 30
0.0
  0
VERTEX
  8
Outlines
 10
3743.49984741
 20
-1274.81244278
 30
0.0
  0
VERTEX
  8
Outlines
 10
3684.99984741
 20
-1274.81244278
 30
0.0
  0
VERTEX
  8
Outlines
 10
3684.99984741
 20
-1239.81242752
 30
0.0
  0
VERTEX
  8
Outlines
 10
3915.00015259
 20
-1239.81242752
 30
0.0
  0
VERTEX
  8
Outlines
 10
3915.00015259
 20
-1274.81244278
 30
0.0
  0
VERTEX
  8
Outlines
 10
3856.50015259
 20
-1274.81244278
 30
0.0
  0
VERTEX
  8
Outlines
 10
3856.50015259
 20
-1360.18757248
 30
0.0
  0
VERTEX
  8
Outlines
 10
3822.40151978
 20
-1360.18757248
 30
0.0
  0
SEQEND
  8
Outlines
  0
POLYLINE
  8
Outlines
 62
5
 70
1
 66
1
 10
0.0
 20
0.0
 30
0.0
  0
VERTEX
  8
Outlines
 10
3167.00047902
 20
-521.49569012
 30
0.0
  0
VERTEX
  8
Outlines
 10
3167.00047902
 20
-498.49569012
 30
0.0
  0
VERTEX
  8
Outlines
 10
3157.00049428
 20
-498.49569012
 30
0.0
  0
VERTEX
  8
Outlines
 10
3157.00049428
 20
-503.49569012
 30
0.0
  0
VERTEX
  8
Outlines
 10
3057.0007079
 20
-503.49569012
 30
1.13686837722e-13
  0
VERTEX
  8
Outlines
 10
3057.0007079
 20
-498.49569012
 30
1.13686837722e-13
  0
VERTEX
  8
Outlines
 10
3047.00073842
 20
-498.49569012
 30
1.13686837722e-13
  0
VERTEX
  8
Outlines
 10
3047.00073842
 20
-521.49569012
 30
1.13686837722e-13
  0
VERTEX
  8
Outlines
 10
2867.00110463
 20
-521.49569012
 30
1.13686837722e-13
  0
VERTEX
  8
Outlines
 10
2867.00110463
 20
-498.49569012
 30
1.13686837722e-13
  0
VERTEX
  8
Outlines
 10
2857.00110463
 20
-498.49569012
 30
1.13686837722e-13
  0
VERTEX
  8
Outlines
 10
2857.00110463
 20
-503.49569012
 30
1.13686837722e-13
  0
VERTEX
  8
Outlines
 10
2807.0012267
 20
-503.49544598
 30
1.13686837722e-13
  0
VERTEX
  8
Outlines
 10
2800.000006
 20
-503.49544598
 30
1.13686837722e-13
  0
VERTEX
  8
Outlines
 10
2800.000006
 20
-253.495934261
 30
1.13686837722e-13
  0
VERTEX
  8
Outlines
 10
2807.0012267
 20
-253.495934261
 30
1.13686837722e-13
  0
VERTEX
  8
Outlines
 10
2857.00110463
 20
-253.496178402
 30
1.13686837722e-13
  0
VERTEX
  8
Outlines
 10
2857.00110463
 20
-258.496300472
 30
1.13686837722e-13
  0
VERTEX
  8
Outlines
 10
2867.00110463
 20
-258.496300472
 30
1.13686837722e-13
  0
VERTEX
  8
Outlines
 10
2867.00110463
 20
-235.496422542
 30
1.13686837722e-13
  0
VERTEX
  8
Outlines
 10
3047.00073842
 20
-235.496422542
 30
1.13686837722e-13
  0
VERTEX
  8
Outlines
 10
3047.00073842
 20
-258.496300472
 30
1.13686837722e-13
  0
VERTEX
  8
Outlines
 10
3057.0007079
 20
-258.496300472
 30
1.13686837722e-13
  0
VERTEX
  8
Outlines
 10
3057.0007079
 20
-253.496178402
 30
1.13686837722e-13
  0
VERTEX
  8
Outlines
 10
3132.0005248
 20
-253.496178402
 30
1.13686837722e-13
  0
VERTEX
  8
Outlines
 10
3132.0005248
 20
-178.496666683
 30
1.13686837722e-13
  0
VERTEX
  8
Outlines
 10
3137.0005248
 20
-178.496666683
 30
1.13686837722e-13
  0
VERTEX
  8
Outlines
 10
3137.0005248
 20
-168.496666683
 30
1.13686837722e-13
  0
VERTEX
  8
Outlines
 10
3114.00055532
 20
-168.496666683
 30
1.13686837722e-13
  0
VERTEX
  8
Outlines
 10
3114.00055532
 20
11.5029671063
 30
1.13686837722e-13
  0
VERTEX
  8
Outlines
 10
3137.0005248
 20
11.5029671063
 30
1.13686837722e-13
  0
VERTEX
  8
Outlines
 10
3137.0005248
 20
21.5029671063
 30
1.13686837722e-13
  0
VERTEX
  8
Outlines
 10
3132.0005248
 20
21.5029671063
 30
1.13686837722e-13
  0
VERTEX
  8
Outlines
 10
3132.0005248
 20
71.5028450359
 30
1.13686837722e-13
  0
VERTEX
  8
Outlines
 10
3132.00055531
 20
121.49569012
 30
1.13686837722e-13
  0
VERTEX
  8
Outlines
 10
3382.00003842
 20
121.49569012
 30
0.0
  0
VERTEX
  8
Outlines
 10
3382.00002698
 20
71.5028450359
 30
0.0
  0
VERTEX
  8
Outlines
 10
3382.00002698
 20
21.5029671063
 30
0.0
  0
VERTEX
  8
Outlines
 10
3377.00004224
 20
21.5029671063
 30
0.0
  0
VERTEX
  8
Outlines
 10
3377.00004224
 20
11.5029671063
 30
0.0
  0
VERTEX
  8
Outlines
 10
3399.999994
 20
11.5029671063
 30
0.0
  0
VERTEX
  8
Outlines
 10
3399.999994
 20
-168.496666683
 30
0.0
  0
VERTEX
  8
Outlines
 10
3377.00004224
 20
-168.496666683
 30
0.0
  0
VERTEX
  8
Outlines
 10
3377.00004224
 20
-178.496666683
 30
0.0
  0
VERTEX
  8
Outlines
 10
3382.00002698
 20
-178.496666683
 30
0.0
  0
VERTEX
  8
Outlines
 10
3382.00002698
 20
-337.496178402
 30
0.0
  0
VERTEX
  8
Outlines
 10
3356.00008611
 20
-337.496178402
 30
0.0
  0
VERTEX
  8
Outlines
 10
3356.00008611
 20
-332.496056331
 30
0.0
  0
VERTEX
  8
Outlines
 10
3346.00010518
 20
-332.496056331
 30
0.0
  0
VERTEX
  8
Outlines
 10
3346.00010518
 20
-424.495812191
 30
0.0
  0
VERTEX
  8
Outlines
 10
3356.00008611
 20
-424.495812191
 30
0.0
  0
VERTEX
  8
Outlines
 10
3356.00008611
 20
-419.495934261
 30
0.0
  0
VERTEX
  8
Outlines
 10
3399.999994
 20
-419.495934261
 30
0.0
  0
VERTEX
  8
Outlines
 10
3399.999994
 20
-449.495812191
 30
0.0
  0
VERTEX
  8
Outlines
 10
3377.00004224
 20
-449.495812191
 30
0.0
  0
VERTEX
  8
Outlines
 10
3377.00004224
 20
-459.495812191
 30
0.0
  0
VERTEX
  8
Outlines
 10
3382.00002698
 20
-459.495812191
 30
0.0
  0
VERTEX
  8
Outlines
 10
3382.00002698
 20
-503.49569012
 30
0.0
  0
VERTEX
  8
Outlines
 10
3357.00008229
 20
-503.49569012
 30
0.0
  0
VERTEX
  8
Outlines
 10
3357.00008229
 20
-498.49569012
 30
0.0
  0
VERTEX
  8
Outlines
 10
3347.00010518
 20
-498.49569012
 30
0.0
  0
VERTEX
  8
Outlines
 10
3347.00010518
 20
-521.49569012
 30
0.0
  0
SEQEND
  8
Outlines
  0
POLYLINE
  8
Cuts
 62
4
 70
1
 66
1
 10
0.0
 20
0.0
 30
0.0
  0
VERTEX
  8
Cuts
 10
3227.00034169
 20
-503.49569012
 30
0.0
  0
VERTEX
  8
Cuts
 10
3287.00021962
 20
-503.49569012
 30
0.0
  0
VERTEX
  8
Cuts
 10
3287.00021962
 20
-485.49569012
 30
0.0
  0
VERTEX
  8
Cuts
 10
3227.00034169
 20
-485.49569012
 30
0.0
  0
SEQEND
  8
Cuts
  0
POLYLINE
  8
Cuts
 62
4
 70
1
 66
1
 10
0.0
 20
0.0
 30
0.0
  0
VERTEX
  8
Cuts
 10
2987.00086049
 20
-485.49569012
 30
1.13686837722e-13
  0
VERTEX
  8
Cuts
 10
2927.00098256
 20
-485.49569012
 30
1.13686837722e-13
  0
VERTEX
  8
Cuts
 10
2927.00098256
 20
-503.49569012
 30
1.13686837722e-13
  0
VERTEX
  8
Cuts
 10
2987.00086049
 20
-503.49569012
 30
1.13686837722e-13
  0
SEQEND
  8
Cuts
  0
POLYLINE
  8
Cuts
 62
4
 70
1
 66
1
 10
0.0
 20
0.0
 30
0.0
  0
VERTEX
  8
Cuts
 10
2987.00086049
 20
-271.496300472
 30
1.13686837722e-13
  0
VERTEX
  8
Cuts
 10
2987.00086049
 20
-253.496178402
 30
1.13686837722e-13
  0
VERTEX
  8
Cuts
 10
2927.00098256
 20
-253.496178402
 30
1.13686837722e-13
  0
VERTEX
  8
Cuts
 10
2927.00098256
 20
-271.496300472
 30
1.13686837722e-13
  0
SEQEND
  8
Cuts
  0
POLYLINE
  8
Cuts
 62
4
 70
1
 66
1
 10
0.0
 20
0.0
 30
0.0
  0
VERTEX
  8
Cuts
 10
3271.00025014
 20
-342.495934261
 30
0.0
  0
VERTEX
  8
Cuts
 10
3243.00031118
 20
-342.495934261
 30
0.0
  0
VERTEX
  8
Cuts
 10
3243.00031118
 20
-352.495934261
 30
0.0
  0
VERTEX
  8
Cuts
 10
3248.00029592
 20
-352.495934261
 30
0.0
  0
VERTEX
  8
Cuts
 10
3248.00029592
 20
-404.495934261
 30
0.0
  0
VERTEX
  8
Cuts
 10
3243.00031118
 20
-404.495934261
 30
0.0
  0
VERTEX
  8
Cuts
 10
3243.00031118
 20
-414.495812191
 30
0.0
  0
VERTEX
  8
Cuts
 10
3271.00025014
 20
-414.495812191
 30
0.0
  0
VERTEX
  8
Cuts
 10
3271.00025014
 20
-404.495934261
 30
0.0
  0
VERTEX
  8
Cuts
 10
3266.0002654
 20
-404.495934261
 30
0.0
  0
VERTEX
  8
Cuts
 10
3266.0002654
 20
-352.495934261
 30
0.0
  0
VERTEX
  8
Cuts
 10
3271.00025014
 20
-352.495934261
 30
0.0
  0
SEQEND
  8
Cuts
  0
POLYLINE
  8
Cuts
 62
4
 70
1
 66
1
 10
0.0
 20
0.0
 30
0.0
  0
VERTEX
  8
Cuts
 10
3234.00032643
 20
-369.495934261
 30
0.0
  0
VERTEX
  8
Cuts
 10
3099.00061635
 20
-369.495934261
 30
1.13686837722e-13
  0
VERTEX
  8
Cuts
 10
3099.00061635
 20
-387.495934261
 30
1.13686837722e-13
  0
VERTEX
  8
Cuts
 10
3234.00032643
 20
-387.495934261
 30
0.0
  0
SEQEND
  8
Cuts
  0
POLYLINE
  8
Cuts
 62
4
 70
1
 66
1
 10
0.0
 20
0.0
 30
0.0
  0
VERTEX
  8
Cuts
 10
3293.00021962
 20
-64.4967887531
 30
0.0
  0
VERTEX
  8
Cuts
 10
3283.00023488
 20
-64.4967887531
 30
0.0
  0
VERTEX
  8
Cuts
 10
3283.00023488
 20
-69.4969108234
 30
0.0
  0
VERTEX
  8
Cuts
 10
3231.00034169
 20
-69.4969108234
 30
0.0
  0
VERTEX
  8
Cuts
 10
3231.00034169
 20
-64.4967887531
 30
0.0
  0
VERTEX
  8
Cuts
 10
3221.00035695
 20
-64.4967887531
 30
0.0
  0
VERTEX
  8
Cuts
 10
3221.00035695
 20
-92.4967887531
 30
0.0
  0
VERTEX
  8
Cuts
 10
3231.00034169
 20
-92.4967887531
 30
0.0
  0
VERTEX
  8
Cuts
 10
3231.00034169
 20
-87.4967887531
 30
0.0
  0
VERTEX
  8
Cuts
 10
3283.00023488
 20
-87.4967887531
 30
0.0
  0
VERTEX
  8
Cuts
 10
3283.00023488
 20
-92.4967887531
 30
0.0
  0
VERTEX
  8
Cuts
 10
3293.00021962
 20
-92.4967887531
 30
0.0
  0
SEQEND
  8
Cuts
  0
POLYLINE
  8
Cuts
 62
4
 70
1
 66
1
 10
0.0
 20
0.0
 30
0.0
  0
VERTEX
  8
Cuts
 10
3132.0005248
 20
-108.496666683
 30
1.13686837722e-13
  0
VERTEX
  8
Cuts
 10
3150.00049428
 20
-108.496666683
 30
0.0
  0
VERTEX
  8
Cuts
 10
3150.00049428
 20
-48.4969108234
 30
0.0
  0
VERTEX
  8
Cuts
 10
3132.0005248
 20
-48.4969108234
 30
1.13686837722e-13
  0
SEQEND
  8
Cuts
  0
POLYLINE
  8
Cuts
 62
4
 70
1
 66
1
 10
0.0
 20
0.0
 30
0.0
  0
VERTEX
  8
Cuts
 10
3364.00006704
 20
-48.4969108234
 30
0.0
  0
VERTEX
  8
Cuts
 10
3364.00006704
 20
-108.496666683
 30
0.0
  0
VERTEX
  8
Cuts
 10
3382.00002698
 20
-108.496666683
 30
0.0
  0
VERTEX
  8
Cuts
 10
3382.00002698
 20
-48.4969108234
 30
0.0
  0
SEQEND
  8
Cuts
  0
POLYLINE
  8
Outlines
 62
5
 70
1
 66
1
 10
0.0
 20
0.0
 30
0.0
  0
VERTEX
  8
Outlines
 10
3225.00085449
 20
-666.000305176
 30
-2.84217094304e-14
  0
VERTEX
  8
Outlines
 10
3449.99902344
 20
-666.000305176
 30
-5.68434188608e-14
  0
VERTEX
  8
Outlines
 10
3449.99902344
 20
-915.999694824
 30
-5.68434188608e-14
  0
VERTEX
  8
Outlines
 10
3265.00073242
 20
-915.999694824
 30
-2.84217094304e-14
  0
VERTEX
  8
Outlines
 10
3265.00073242
 20
-910.999694824
 30
-2.84217094304e-14
  0
VERTEX
  8
Outlines
 10
3255.00076294
 20
-910.999694824
 30
-2.84217094304e-14
  0
VERTEX
  8
Outlines
 10
3255.00076294
 20
-933.999694824
 30
-2.84217094304e-14
  0
VERTEX
  8
Outlines
 10
3225.00085449
 20
-933.999694824
 30
-2.84217094304e-14
  0
VERTEX
  8
Outlines
 10
3225.00085449
 20
-836.999938965
 30
-2.84217094304e-14
  0
VERTEX
  8
Outlines
 10
3230.00079346
 20
-836.999938965
 30
-2.84217094304e-14
  0
VERTEX
  8
Outlines
 10
3230.00079346
 20
-826.999938965
 30
-2.84217094304e-14
  0
VERTEX
  8
Outlines
 10
3150.00097656
 20
-826.999938965
 30
-2.84217094304e-14
  0
VERTEX
  8
Outlines
 10
3150.00097656
 20
-755.000183105
 30
-2.84217094304e-14
  0
VERTEX
  8
Outlines
 10
3230.00079346
 20
-755.000183105
 30
-2.84217094304e-14
  0
VERTEX
  8
Outlines
 10
3230.00079346
 20
-745.000183105
 30
-2.84217094304e-14
  0
VERTEX
  8
Outlines
 10
3225.00085449
 20
-745.000183105
 30
-2.84217094304e-14
  0
SEQEND
  8
Outlines
  0
POLYLINE
  8
Cuts
 62
4
 70
1
 66
1
 10
0.0
 20
0.0
 30
0.0
  0
VERTEX
  8
Cuts
 10
3197.00085449
 20
-800.000061035
 30
-2.84217094304e-14
  0
VERTEX
  8
Cuts
 10
3197.00085449
 20
-805.000061035
 30
-2.84217094304e-14
  0
VERTEX
  8
Cuts
 10
3207.00085449
 20
-805.000061035
 30
-2.84217094304e-14
  0
VERTEX
  8
Cuts
 10
3207.00085449
 20
-777.000061035
 30
-2.84217094304e-14
  0
VERTEX
  8
Cuts
 10
3197.00085449
 20
-777.000061035
 30
-2.84217094304e-14
  0
VERTEX
  8
Cuts
 10
3197.00085449
 20
-782.000061035
 30
-2.84217094304e-14
  0
VERTEX
  8
Cuts
 10
3178.00091553
 20
-782.000061035
 30
-2.84217094304e-14
  0
VERTEX
  8
Cuts
 10
3178.00091553
 20
-777.000061035
 30
-2.84217094304e-14
  0
VERTEX
  8
Cuts
 10
3168.00091553
 20
-777.000061035
 30
-2.84217094304e-14
  0
VERTEX
  8
Cuts
 10
3168.00091553
 20
-805.000061035
 30
-2.84217094304e-14
  0
VERTEX
  8
Cuts
 10
3178.00091553
 20
-805.000061035
 30
-2.84217094304e-14
  0
VERTEX
  8
Cuts
 10
3178.00091553
 20
-800.000061035
 30
-2.84217094304e-14
  0
SEQEND
  8
Cuts
  0
POLYLINE
  8
Outlines
 62
5
 70
1
 66
1
 10
0.0
 20
0.0
 30
0.0
  0
VERTEX
  8
Outlines
 10
2624.99975586
 20
-870.50443195
 30
0.0
  0
VERTEX
  8
Outlines
 10
2375.00024414
 20
-870.50443195
 30
0.0
  0
VERTEX
  8
Outlines
 10
2375.00024414
 20
-1329.49556805
 30
0.0
  0
VERTEX
  8
Outlines
 10
2624.99975586
 20
-1329.49556805
 30
0.0
  0
SEQEND
  8
Outlines
  0
POLYLINE
  8
Cuts
 62
4
 70
1
 66
1
 10
0.0
 20
0.0
 30
0.0
  0
VERTEX
  8
Cuts
 10
2533.99993896
 20
-990.496300472
 30
0.0
  0
VERTEX
  8
Cuts
 10
2533.99993896
 20
-980.496300472
 30
0.0
  0
VERTEX
  8
Cuts
 10
2579.99981689
 20
-980.496300472
 30
0.0
  0
VERTEX
  8
Cuts
 10
2579.99981689
 20
-990.496300472
 30
0.0
  0
VERTEX
  8
Cuts
 10
2574.99987793
 20
-990.496300472
 30
0.0
  0
VERTEX
  8
Cuts
 10
2574.99987793
 20
-1150.49593426
 30
0.0
  0
VERTEX
  8
Cuts
 10
2579.99981689
 20
-1150.49593426
 30
0.0
  0
VERTEX
  8
Cuts
 10
2579.99981689
 20
-1160.49593426
 30
0.0
  0
VERTEX
  8
Cuts
 10
2533.99993896
 20
-1160.49593426
 30
0.0
  0
VERTEX
  8
Cuts
 10
2533.99993896
 20
-1150.49593426
 30
0.0
  0
VERTEX
  8
Cuts
 10
2538.99993896
 20
-1150.49593426
 30
0.0
  0
VERTEX
  8
Cuts
 10
2538.99993896
 20
-990.496300472
 30
0.0
  0
SEQEND
  8
Cuts
  0
POLYLINE
  8
Cuts
 62
4
 70
1
 66
1
 10
0.0
 20
0.0
 30
0.0
  0
VERTEX
  8
Cuts
 10
2466.00006104
 20
-990.496300472
 30
0.0
  0
VERTEX
  8
Cuts
 10
2461.00006104
 20
-990.496300472
 30
0.0
  0
VERTEX
  8
Cuts
 10
2461.00006104
 20
-1150.49593426
 30
0.0
  0
VERTEX
  8
Cuts
 10
2466.00006104
 20
-1150.49593426
 30
0.0
  0
VERTEX
  8
Cuts
 10
2466.00006104
 20
-1160.49593426
 30
0.0
  0
VERTEX
  8
Cuts
 10
2420.00018311
 20
-1160.49593426
 30
0.0
  0
VERTEX
  8
Cuts
 10
2420.00018311
 20
-1150.49593426
 30
0.0
  0
VERTEX
  8
Cuts
 10
2425.00012207
 20
-1150.49593426
 30
0.0
  0
VERTEX
  8
Cuts
 10
2425.00012207
 20
-990.496300472
 30
0.0
  0
VERTEX
  8
Cuts
 10
2420.00018311
 20
-990.496300472
 30
0.0
  0
VERTEX
  8
Cuts
 10
2420.00018311
 20
-980.496300472
 30
0.0
  0
VERTEX
  8
Cuts
 10
2466.00006104
 20
-980.496300472
 30
0.0
  0
SEQEND
  8
Cuts
  0
POLYLINE
  8
Outlines
 62
5
 70
1
 66
1
 10
0.0
 20
0.0
 30
0.0
  0
VERTEX
  8
Outlines
 10
3738.99993896
 20
-285.996483577
 30
0.0
  0
VERTEX
  8
Outlines
 10
3733.99993896
 20
-285.996483577
 30
0.0
  0
VERTEX
  8
Outlines
 10
3733.99993896
 20
-295.996483577
 30
0.0
  0
VERTEX
  8
Outlines
 10
3771.99987793
 20
-295.996483577
 30
0.0
  0
VERTEX
  8
Outlines
 10
3774.99981689
 20
-298.996483577
 30
0.0
  0
VERTEX
  8
Outlines
 10
3774.99981689
 20
-352.996483577
 30
0.0
  0
VERTEX
  8
Outlines
 10
3771.99987793
 20
-355.996483577
 30
0.0
  0
VERTEX
  8
Outlines
 10
3733.99993896
 20
-355.996483577
 30
0.0
  0
VERTEX
  8
Outlines
 10
3733.99993896
 20
-365.996361507
 30
0.0
  0
VERTEX
  8
Outlines
 10
3738.99993896
 20
-365.996361507
 30
0.0
  0
VERTEX
  8
Outlines
 10
3738.99993896
 20
-473.996239437
 30
0.0
  0
VERTEX
  8
Outlines
 10
3661.00006104
 20
-473.996239437
 30
0.0
  0
VERTEX
  8
Outlines
 10
3661.00006104
 20
-365.996361507
 30
0.0
  0
VERTEX
  8
Outlines
 10
3666.00006104
 20
-365.996361507
 30
0.0
  0
VERTEX
  8
Outlines
 10
3666.00006104
 20
-355.996483577
 30
0.0
  0
VERTEX
  8
Outlines
 10
3628.00012207
 20
-355.996483577
 30
0.0
  0
VERTEX
  8
Outlines
 10
3625.00018311
 20
-352.996483577
 30
0.0
  0
VERTEX
  8
Outlines
 10
3625.00018311
 20
-298.996483577
 30
0.0
  0
VERTEX
  8
Outlines
 10
3628.00012207
 20
-295.996483577
 30
0.0
  0
VERTEX
  8
Outlines
 10
3666.00006104
 20
-295.996483577
 30
0.0
  0
VERTEX
  8
Outlines
 10
3666.00006104
 20
-285.996483577
 30
0.0
  0
VERTEX
  8
Outlines
 10
3661.00006104
 20
-285.996483577
 30
0.0
  0
VERTEX
  8
Outlines
 10
3661.00006104
 20
-126.003760563
 30
0.0
  0
VERTEX
  8
Outlines
 10
3738.99993896
 20
-126.003760563
 30
0.0
  0
SEQEND
  8
Outlines
  0
POLYLINE
  8
Outlines
 62
5
 70
1
 66
1
 10
0.0
 20
0.0
 30
0.0
  0
VERTEX
  8
Outlines
 10
867.000473022
 20
-467.873901367
 30
0.0
  0
VERTEX
  8
Outlines
 10
867.000473022
 20
-444.873901367
 30
0.0
  0
VERTEX
  8
Outlines
 10
857.000488281
 20
-444.873901367
 30
0.0
  0
VERTEX
  8
Outlines
 10
857.000488281
 20
-449.873901367
 30
0.0
  0
VERTEX
  8
Outlines
 10
757.000701904
 20
-449.873901367
 30
1.13686837722e-13
  0
VERTEX
  8
Outlines
 10
757.000701904
 20
-444.873901367
 30
1.13686837722e-13
  0
VERTEX
  8
Outlines
 10
747.000732422
 20
-444.873901367
 30
1.13686837722e-13
  0
VERTEX
  8
Outlines
 10
747.000732422
 20
-467.873901367
 30
1.13686837722e-13
  0
VERTEX
  8
Outlines
 10
567.001098633
 20
-467.873901367
 30
1.13686837722e-13
  0
VERTEX
  8
Outlines
 10
567.001098633
 20
-444.873901367
 30
1.13686837722e-13
  0
VERTEX
  8
Outlines
 10
557.001098633
 20
-444.873901367
 30
1.13686837722e-13
  0
VERTEX
  8
Outlines
 10
557.001098633
 20
-449.873901367
 30
1.13686837722e-13
  0
VERTEX
  8
Outlines
 10
507.001220703
 20
-449.873657227
 30
1.13686837722e-13
  0
VERTEX
  8
Outlines
 10
500.0
 20
-449.873657227
 30
1.13686837722e-13
  0
VERTEX
  8
Outlines
 10
500.0
 20
-199.874145508
 30
1.13686837722e-13
  0
VERTEX
  8
Outlines
 10
507.001220703
 20
-199.874145508
 30
1.13686837722e-13
  0
VERTEX
  8
Outlines
 10
557.001098633
 20
-199.874389648
 30
1.13686837722e-13
  0
VERTEX
  8
Outlines
 10
557.001098633
 20
-204.874511719
 30
1.13686837722e-13
  0
VERTEX
  8
Outlines
 10
567.001098633
 20
-204.874511719
 30
1.13686837722e-13
  0
VERTEX
  8
Outlines
 10
567.001098633
 20
-181.874633789
 30
1.13686837722e-13
  0
VERTEX
  8
Outlines
 10
747.000732422
 20
-181.874633789
 30
1.13686837722e-13
  0
VERTEX
  8
Outlines
 10
747.000732422
 20
-204.874511719
 30
1.13686837722e-13
  0
VERTEX
  8
Outlines
 10
757.000701904
 20
-204.874511719
 30
1.13686837722e-13
  0
VERTEX
  8
Outlines
 10
757.000701904
 20
-199.874389648
 30
1.13686837722e-13
  0
VERTEX
  8
Outlines
 10
832.000518799
 20
-199.874389648
 30
1.13686837722e-13
  0
VERTEX
  8
Outlines
 10
832.000518799
 20
-124.87487793
 30
1.13686837722e-13
  0
VERTEX
  8
Outlines
 10
837.000518799
 20
-124.87487793
 30
1.13686837722e-13
  0
VERTEX
  8
Outlines
 10
837.000518799
 20
-114.87487793
 30
1.13686837722e-13
  0
VERTEX
  8
Outlines
 10
814.000549316
 20
-114.87487793
 30
1.13686837722e-13
  0
VERTEX
  8
Outlines
 10
814.000549316
 20
65.1247558594
 30
1.13686837722e-13
  0
VERTEX
  8
Outlines
 10
837.000518799
 20
65.1247558594
 30
1.13686837722e-13
  0
VERTEX
  8
Outlines
 10
837.000518799
 20
75.1247558594
 30
1.13686837722e-13
  0
VERTEX
  8
Outlines
 10
832.000518799
 20
75.1247558594
 30
1.13686837722e-13
  0
VERTEX
  8
Outlines
 10
832.000518799
 20
125.124633789
 30
1.13686837722e-13
  0
VERTEX
  8
Outlines
 10
832.000549316
 20
175.124389648
 30
1.13686837722e-13
  0
VERTEX
  8
Outlines
 10
837.000518799
 20
175.124389648
 30
1.13686837722e-13
  0
VERTEX
  8
Outlines
 10
837.000518799
 20
185.124389648
 30
1.13686837722e-13
  0
VERTEX
  8
Outlines
 10
814.000579834
 20
185.124389648
 30
1.13686837722e-13
  0
VERTEX
  8
Outlines
 10
814.000579834
 20
365.124023438
 30
1.13686837722e-13
  0
VERTEX
  8
Outlines
 10
837.000518799
 20
365.124023438
 30
1.13686837722e-13
  0
VERTEX
  8
Outlines
 10
837.000518799
 20
375.124023438
 30
1.13686837722e-13
  0
VERTEX
  8
Outlines
 10
832.000549316
 20
375.124023438
 30
1.13686837722e-13
  0
VERTEX
  8
Outlines
 10
832.000549316
 20
467.873901367
 30
1.13686837722e-13
  0
VERTEX
  8
Outlines
 10
872.250457764
 20
467.873901367
 30
0.0
  0
VERTEX
  8
Outlines
 10
875.931381226
 20
467.17175293
 30
0.0
  0
VERTEX
  8
Outlines
 10
879.321517944
 20
464.944946289
 30
0.0
  0
VERTEX
  8
Outlines
 10
881.548324585
 20
461.55480957
 30
0.0
  0
VERTEX
  8
Outlines
 10
882.250427246
 20
457.873901367
 30
0.0
  0
VERTEX
  8
Outlines
 10
882.250427246
 20
392.874023438
 30
0.0
  0
VERTEX
  8
Outlines
 10
882.952575684
 20
389.193115234
 30
0.0
  0
VERTEX
  8
Outlines
 10
885.179367065
 20
385.803100586
 30
0.0
  0
VERTEX
  8
Outlines
 10
888.569503784
 20
383.576293945
 30
0.0
  0
VERTEX
  8
Outlines
 10
892.250427246
 20
382.874023438
 30
0.0
  0
VERTEX
  8
Outlines
 10
921.750366211
 20
382.874023438
 30
0.0
  0
VERTEX
  8
Outlines
 10
925.431289673
 20
383.576293945
 30
0.0
  0
VERTEX
  8
Outlines
 10
928.821395874
 20
385.803100586
 30
0.0
  0
VERTEX
  8
Outlines
 10
931.048217773
 20
389.193115234
 30
0.0
  0
VERTEX
  8
Outlines
 10
931.750320435
 20
392.874023438
 30
0.0
  0
VERTEX
  8
Outlines
 10
931.750320435
 20
457.873901367
 30
0.0
  0
VERTEX
  8
Outlines
 10
932.452468872
 20
461.55480957
 30
0.0
  0
VERTEX
  8
Outlines
 10
934.679275513
 20
464.944946289
 30
0.0
  0
VERTEX
  8
Outlines
 10
938.069396973
 20
467.17175293
 30
0.0
  0
VERTEX
  8
Outlines
 10
941.750305176
 20
467.873901367
 30
0.0
  0
VERTEX
  8
Outlines
 10
972.250267029
 20
467.873901367
 30
0.0
  0
VERTEX
  8
Outlines
 10
975.931182861
 20
467.17175293
 30
0.0
  0
VERTEX
  8
Outlines
 10
979.321296692
 20
464.944946289
 30
0.0
  0
VERTEX
  8
Outlines
 10
981.548126221
 20
461.55480957
 30
0.0
  0
VERTEX
  8
Outlines
 10
982.25025177
 20
457.873901367
 30
0.0
  0
VERTEX
  8
Outlines
 10
982.25025177
 20
392.874023438
 30
0.0
  0
VERTEX
  8
Outlines
 10
982.952362061
 20
389.193115234
 30
0.0
  0
VERTEX
  8
Outlines
 10
985.179176331
 20
385.803100586
 30
0.0
  0
VERTEX
  8
Outlines
 10
988.569290161
 20
383.576293945
 30
0.0
  0
VERTEX
  8
Outlines
 10
992.250205994
 20
382.874023438
 30
0.0
  0
VERTEX
  8
Outlines
 10
1021.75014496
 20
382.874023438
 30
0.0
  0
VERTEX
  8
Outlines
 10
1025.43108368
 20
383.576293945
 30
0.0
  0
VERTEX
  8
Outlines
 10
1028.82119751
 20
385.803100586
 30
0.0
  0
VERTEX
  8
Outlines
 10
1031.04801941
 20
389.193115234
 30
0.0
  0
VERTEX
  8
Outlines
 10
1031.75015259
 20
392.874023438
 30
0.0
  0
VERTEX
  8
Outlines
 10
1031.75015259
 20
457.873901367
 30
0.0
  0
VERTEX
  8
Outlines
 10
1032.45225525
 20
461.55480957
 30
0.0
  0
VERTEX
  8
Outlines
 10
1034.67907715
 20
464.944946289
 30
0.0
  0
VERTEX
  8
Outlines
 10
1038.06918716
 20
467.17175293
 30
0.0
  0
VERTEX
  8
Outlines
 10
1041.750103
 20
467.873901367
 30
0.0
  0
VERTEX
  8
Outlines
 10
1082.00003242
 20
467.873901367
 30
0.0
  0
VERTEX
  8
Outlines
 10
1082.00003242
 20
375.124023438
 30
0.0
  0
VERTEX
  8
Outlines
 10
1077.00004959
 20
375.124023438
 30
0.0
  0
VERTEX
  8
Outlines
 10
1077.00004959
 20
365.124023438
 30
0.0
  0
VERTEX
  8
Outlines
 10
1100.0
 20
365.124023438
 30
0.0
  0
VERTEX
  8
Outlines
 10
1100.0
 20
185.124389648
 30
0.0
  0
VERTEX
  8
Outlines
 10
1077.00004959
 20
185.124389648
 30
0.0
  0
VERTEX
  8
Outlines
 10
1077.00004959
 20
175.124389648
 30
0.0
  0
VERTEX
  8
Outlines
 10
1082.00003242
 20
175.124389648
 30
0.0
  0
VERTEX
  8
Outlines
 10
1082.00002098
 20
125.124633789
 30
0.0
  0
VERTEX
  8
Outlines
 10
1082.00002098
 20
75.1247558594
 30
0.0
  0
VERTEX
  8
Outlines
 10
1077.00003624
 20
75.1247558594
 30
0.0
  0
VERTEX
  8
Outlines
 10
1077.00003624
 20
65.1247558594
 30
0.0
  0
VERTEX
  8
Outlines
 10
1099.999988
 20
65.1247558594
 30
0.0
  0
VERTEX
  8
Outlines
 10
1099.999988
 20
-114.87487793
 30
0.0
  0
VERTEX
  8
Outlines
 10
1077.00003624
 20
-114.87487793
 30
0.0
  0
VERTEX
  8
Outlines
 10
1077.00003624
 20
-124.87487793
 30
0.0
  0
VERTEX
  8
Outlines
 10
1082.00002098
 20
-124.87487793
 30
0.0
  0
VERTEX
  8
Outlines
 10
1082.00002098
 20
-283.874389648
 30
0.0
  0
VERTEX
  8
Outlines
 10
1056.00008011
 20
-283.874389648
 30
0.0
  0
VERTEX
  8
Outlines
 10
1056.00008011
 20
-278.874267578
 30
0.0
  0
VERTEX
  8
Outlines
 10
1046.00009918
 20
-278.874267578
 30
0.0
  0
VERTEX
  8
Outlines
 10
1046.00009918
 20
-370.874023438
 30
0.0
  0
VERTEX
  8
Outlines
 10
1056.00008011
 20
-370.874023438
 30
0.0
  0
VERTEX
  8
Outlines
 10
1056.00008011
 20
-365.874145508
 30
0.0
  0
VERTEX
  8
Outlines
 10
1099.999988
 20
-365.874145508
 30
0.0
  0
VERTEX
  8
Outlines
 10
1099.999988
 20
-395.874023438
 30
0.0
  0
VERTEX
  8
Outlines
 10
1077.00003624
 20
-395.874023438
 30
0.0
  0
VERTEX
  8
Outlines
 10
1077.00003624
 20
-405.874023438
 30
0.0
  0
VERTEX
  8
Outlines
 10
1082.00002098
 20
-405.874023438
 30
0.0
  0
VERTEX
  8
Outlines
 10
1082.00002098
 20
-449.873901367
 30
0.0
  0
VERTEX
  8
Outlines
 10
1057.00007629
 20
-449.873901367
 30
0.0
  0
VERTEX
  8
Outlines
 10
1057.00007629
 20
-444.873901367
 30
0.0
  0
VERTEX
  8
Outlines
 10
1047.00009918
 20
-444.873901367
 30
0.0
  0
VERTEX
  8
Outlines
 10
1047.00009918
 20
-467.873901367
 30
0.0
  0
SEQEND
  8
Outlines
  0
POLYLINE
  8
Cuts
 62
4
 70
1
 66
1
 10
0.0
 20
0.0
 30
0.0
  0
VERTEX
  8
Cuts
 10
934.000320435
 20
-315.874145508
 30
0.0
  0
VERTEX
  8
Cuts
 10
799.000610352
 20
-315.874145508
 30
1.13686837722e-13
  0
VERTEX
  8
Cuts
 10
799.000610352
 20
-333.874145508
 30
1.13686837722e-13
  0
VERTEX
  8
Cuts
 10
934.000320435
 20
-333.874145508
 30
0.0
  0
SEQEND
  8
Cuts
  0
POLYLINE
  8
Cuts
 62
4
 70
1
 66
1
 10
0.0
 20
0.0
 30
0.0
  0
VERTEX
  8
Cuts
 10
927.000335693
 20
-449.873901367
 30
0.0
  0
VERTEX
  8
Cuts
 10
987.000213623
 20
-449.873901367
 30
0.0
  0
VERTEX
  8
Cuts
 10
987.000213623
 20
-431.873901367
 30
0.0
  0
VERTEX
  8
Cuts
 10
927.000335693
 20
-431.873901367
 30
0.0
  0
SEQEND
  8
Cuts
  0
POLYLINE
  8
Cuts
 62
4
 70
1
 66
1
 10
0.0
 20
0.0
 30
0.0
  0
VERTEX
  8
Cuts
 10
687.000854492
 20
-431.873901367
 30
1.13686837722e-13
  0
VERTEX
  8
Cuts
 10
627.000976562
 20
-431.873901367
 30
1.13686837722e-13
  0
VERTEX
  8
Cuts
 10
627.000976562
 20
-449.873901367
 30
1.13686837722e-13
  0
VERTEX
  8
Cuts
 10
687.000854492
 20
-449.873901367
 30
1.13686837722e-13
  0
SEQEND
  8
Cuts
  0
POLYLINE
  8
Cuts
 62
4
 70
1
 66
1
 10
0.0
 20
0.0
 30
0.0
  0
VERTEX
  8
Cuts
 10
1082.00003242
 20
245.124389648
 30
0.0
  0
VERTEX
  8
Cuts
 10
1082.00003242
 20
305.124267578
 30
0.0
  0
VERTEX
  8
Cuts
 10
1064.00007248
 20
305.124267578
 30
0.0
  0
VERTEX
  8
Cuts
 10
1064.00007248
 20
245.124389648
 30
0.0
  0
SEQEND
  8
Cuts
  0
POLYLINE
  8
Cuts
 62
4
 70
1
 66
1
 10
0.0
 20
0.0
 30
0.0
  0
VERTEX
  8
Cuts
 10
993.000213623
 20
-10.875
 30
0.0
  0
VERTEX
  8
Cuts
 10
983.000228882
 20
-10.875
 30
0.0
  0
VERTEX
  8
Cuts
 10
983.000228882
 20
-15.8751220703
 30
0.0
  0
VERTEX
  8
Cuts
 10
931.000335693
 20
-15.8751220703
 30
0.0
  0
VERTEX
  8
Cuts
 10
931.000335693
 20
-10.875
 30
0.0
  0
VERTEX
  8
Cuts
 10
921.000350952
 20
-10.875
 30
0.0
  0
VERTEX
  8
Cuts
 10
921.000350952
 20
-38.875
 30
0.0
  0
VERTEX
  8
Cuts
 10
931.000335693
 20
-38.875
 30
0.0
  0
VERTEX
  8
Cuts
 10
931.000335693
 20
-33.875
 30
0.0
  0
VERTEX
  8
Cuts
 10
983.000228882
 20
-33.875
 30
0.0
  0
VERTEX
  8
Cuts
 10
983.000228882
 20
-38.875
 30
0.0
  0
VERTEX
  8
Cuts
 10
993.000213623
 20
-38.875
 30
0.0
  0
SEQEND
  8
Cuts
  0
POLYLINE
  8
Cuts
 62
4
 70
1
 66
1
 10
0.0
 20
0.0
 30
0.0
  0
VERTEX
  8
Cuts
 10
1064.00006104
 20
5.12487792969
 30
0.0
  0
VERTEX
  8
Cuts
 10
1064.00006104
 20
-54.8748779297
 30
0.0
  0
VERTEX
  8
Cuts
 10
1082.00002098
 20
-54.8748779297
 30
0.0
  0
VERTEX
  8
Cuts
 10
1082.00002098
 20
5.12487792969
 30
0.0
  0
SEQEND
  8
Cuts
  0
POLYLINE
  8
Cuts
 62
4
 70
1
 66
1
 10
0.0
 20
0.0
 30
0.0
  0
VERTEX
  8
Cuts
 10
832.000549316
 20
305.124267578
 30
1.13686837722e-13
  0
VERTEX
  8
Cuts
 10
832.000549316
 20
245.124389648
 30
1.13686837722e-13
  0
VERTEX
  8
Cuts
 10
850.00050354
 20
245.124389648
 30
0.0
  0
VERTEX
  8
Cuts
 10
850.00050354
 20
305.124267578
 30
0.0
  0
SEQEND
  8
Cuts
  0
POLYLINE
  8
Cuts
 62
4
 70
1
 66
1
 10
0.0
 20
0.0
 30
0.0
  0
VERTEX
  8
Cuts
 10
832.000518799
 20
-54.8748779297
 30
1.13686837722e-13
  0
VERTEX
  8
Cuts
 10
850.000488281
 20
-54.8748779297
 30
0.0
  0
VERTEX
  8
Cuts
 10
850.000488281
 20
5.12487792969
 30
0.0
  0
VERTEX
  8
Cuts
 10
832.000518799
 20
5.12487792969
 30
1.13686837722e-13
  0
SEQEND
  8
Cuts
  0
POLYLINE
  8
Cuts
 62
4
 70
1
 66
1
 10
0.0
 20
0.0
 30
0.0
  0
VERTEX
  8
Cuts
 10
971.000244141
 20
-288.874145508
 30
0.0
  0
VERTEX
  8
Cuts
 10
943.000305176
 20
-288.874145508
 30
0.0
  0
VERTEX
  8
Cuts
 10
943.000305176
 20
-298.874145508
 30
0.0
  0
VERTEX
  8
Cuts
 10
948.000289917
 20
-298.874145508
 30
0.0
  0
VERTEX
  8
Cuts
 10
948.000289917
 20
-350.874145508
 30
0.0
  0
VERTEX
  8
Cuts
 10
943.000305176
 20
-350.874145508
 30
0.0
  0
VERTEX
  8
Cuts
 10
943.000305176
 20
-360.874023438
 30
0.0
  0
VERTEX
  8
Cuts
 10
971.000244141
 20
-360.874023438
 30
0.0
  0
VERTEX
  8
Cuts
 10
971.000244141
 20
-350.874145508
 30
0.0
  0
VERTEX
  8
Cuts
 10
966.000259399
 20
-350.874145508
 30
0.0
  0
VERTEX
  8
Cuts
 10
966.000259399
 20
-298.874145508
 30
0.0
  0
VERTEX
  8
Cuts
 10
971.000244141
 20
-298.874145508
 30
0.0
  0
SEQEND
  8
Cuts
  0
POLYLINE
  8
Cuts
 62
4
 70
1
 66
1
 10
0.0
 20
0.0
 30
0.0
  0
VERTEX
  8
Cuts
 10
687.000854492
 20
-217.874511719
 30
1.13686837722e-13
  0
VERTEX
  8
Cuts
 10
687.000854492
 20
-199.874389648
 30
1.13686837722e-13
  0
VERTEX
  8
Cuts
 10
627.000976562
 20
-199.874389648
 30
1.13686837722e-13
  0
VERTEX
  8
Cuts
 10
627.000976562
 20
-217.874511719
 30
1.13686837722e-13
  0
SEQEND
  8
Cuts
  0
POLYLINE
  8
Outlines
 62
5
 70
1
 66
1
 10
0.0
 20
0.0
 30
0.0
  0
VERTEX
  8
Outlines
 10
1257.0010376
 20
-423.498962402
 30
1.13686837722e-13
  0
VERTEX
  8
Outlines
 10
1267.00109863
 20
-423.498962402
 30
1.13686837722e-13
  0
VERTEX
  8
Outlines
 10
1267.00109863
 20
-446.498962402
 30
1.13686837722e-13
  0
VERTEX
  8
Outlines
 10
1447.0007019
 20
-446.498962402
 30
1.13686837722e-13
  0
VERTEX
  8
Outlines
 10
1447.0007019
 20
-423.498962402
 30
1.13686837722e-13
  0
VERTEX
  8
Outlines
 10
1457.00067139
 20
-423.498962402
 30
1.13686837722e-13
  0
VERTEX
  8
Outlines
 10
1457.00067139
 20
-428.499206543
 30
1.13686837722e-13
  0
VERTEX
  8
Outlines
 10
1557.00048828
 20
-428.499206543
 30
0.0
  0
VERTEX
  8
Outlines
 10
1557.00048828
 20
-423.498962402
 30
0.0
  0
VERTEX
  8
Outlines
 10
1567.00047302
 20
-423.498962402
 30
0.0
  0
VERTEX
  8
Outlines
 10
1567.00047302
 20
-446.498962402
 30
0.0
  0
VERTEX
  8
Outlines
 10
1747.00010681
 20
-446.498962402
 30
0.0
  0
VERTEX
  8
Outlines
 10
1747.00010681
 20
-423.498962402
 30
0.0
  0
VERTEX
  8
Outlines
 10
1757.00009918
 20
-423.498962402
 30
0.0
  0
VERTEX
  8
Outlines
 10
1757.00009918
 20
-428.499206543
 30
0.0
  0
VERTEX
  8
Outlines
 10
1782.00003815
 20
-428.499206543
 30
0.0
  0
VERTEX
  8
Outlines
 10
1782.00003815
 20
-384.499084473
 30
0.0
  0
VERTEX
  8
Outlines
 10
1777.00004578
 20
-384.499084473
 30
0.0
  0
VERTEX
  8
Outlines
 10
1777.00004578
 20
-374.499206543
 30
0.0
  0
VERTEX
  8
Outlines
 10
1800.0
 20
-374.499206543
 30
0.0
  0
VERTEX
  8
Outlines
 10
1800.0
 20
-344.499206543
 30
0.0
  0
VERTEX
  8
Outlines
 10
1756.00009155
 20
-344.499206543
 30
0.0
  0
VERTEX
  8
Outlines
 10
1756.00009155
 20
-349.499328613
 30
0.0
  0
VERTEX
  8
Outlines
 10
1746.00010681
 20
-349.499328613
 30
0.0
  0
VERTEX
  8
Outlines
 10
1746.00010681
 20
-257.499572754
 30
0.0
  0
VERTEX
  8
Outlines
 10
1756.00009155
 20
-257.499572754
 30
0.0
  0
VERTEX
  8
Outlines
 10
1756.00009155
 20
-262.499450684
 30
0.0
  0
VERTEX
  8
Outlines
 10
1782.00003815
 20
-262.499450684
 30
0.0
  0
VERTEX
  8
Outlines
 10
1782.00003815
 20
-103.499816895
 30
0.0
  0
VERTEX
  8
Outlines
 10
1777.00004578
 20
-103.499816895
 30
0.0
  0
VERTEX
  8
Outlines
 10
1777.00004578
 20
-93.4998168945
 30
0.0
  0
VERTEX
  8
Outlines
 10
1800.0
 20
-93.4998168945
 30
0.0
  0
VERTEX
  8
Outlines
 10
1800.0
 20
86.4998168945
 30
0.0
  0
VERTEX
  8
Outlines
 10
1777.00004578
 20
86.4998168945
 30
0.0
  0
VERTEX
  8
Outlines
 10
1777.00004578
 20
96.4998168945
 30
0.0
  0
VERTEX
  8
Outlines
 10
1782.00003815
 20
96.4998168945
 30
0.0
  0
VERTEX
  8
Outlines
 10
1782.00003815
 20
196.499572754
 30
0.0
  0
VERTEX
  8
Outlines
 10
1777.00004578
 20
196.499572754
 30
0.0
  0
VERTEX
  8
Outlines
 10
1777.00004578
 20
206.499572754
 30
0.0
  0
VERTEX
  8
Outlines
 10
1800.0
 20
206.499572754
 30
0.0
  0
VERTEX
  8
Outlines
 10
1800.0
 20
386.499206543
 30
0.0
  0
VERTEX
  8
Outlines
 10
1777.00004578
 20
386.499206543
 30
0.0
  0
VERTEX
  8
Outlines
 10
1777.00004578
 20
396.499206543
 30
0.0
  0
VERTEX
  8
Outlines
 10
1782.00003815
 20
396.499206543
 30
0.0
  0
VERTEX
  8
Outlines
 10
1782.00003815
 20
446.498962402
 30
0.0
  0
VERTEX
  8
Outlines
 10
1532.00054932
 20
446.498962402
 30
1.13686837722e-13
  0
VERTEX
  8
Outlines
 10
1532.00054932
 20
396.499206543
 30
1.13686837722e-13
  0
VERTEX
  8
Outlines
 10
1537.00054932
 20
396.499206543
 30
1.13686837722e-13
  0
VERTEX
  8
Outlines
 10
1537.00054932
 20
386.499206543
 30
1.13686837722e-13
  0
VERTEX
  8
Outlines
 10
1514.00057983
 20
386.499206543
 30
1.13686837722e-13
  0
VERTEX
  8
Outlines
 10
1514.00057983
 20
206.499572754
 30
1.13686837722e-13
  0
VERTEX
  8
Outlines
 10
1537.00054932
 20
206.499572754
 30
1.13686837722e-13
  0
VERTEX
  8
Outlines
 10
1537.00054932
 20
196.499572754
 30
1.13686837722e-13
  0
VERTEX
  8
Outlines
 10
1532.00054932
 20
196.499572754
 30
1.13686837722e-13
  0
VERTEX
  8
Outlines
 10
1532.00054932
 20
96.4998168945
 30
1.13686837722e-13
  0
VERTEX
  8
Outlines
 10
1537.00054932
 20
96.4998168945
 30
1.13686837722e-13
  0
VERTEX
  8
Outlines
 10
1537.00054932
 20
86.4998168945
 30
1.13686837722e-13
  0
VERTEX
  8
Outlines
 10
1514.00057983
 20
86.4998168945
 30
1.13686837722e-13
  0
VERTEX
  8
Outlines
 10
1514.00057983
 20
-93.4998168945
 30
1.13686837722e-13
  0
VERTEX
  8
Outlines
 10
1537.00054932
 20
-93.4998168945
 30
1.13686837722e-13
  0
VERTEX
  8
Outlines
 10
1537.00054932
 20
-103.499816895
 30
1.13686837722e-13
  0
VERTEX
  8
Outlines
 10
1532.00054932
 20
-103.499816895
 30
1.13686837722e-13
  0
VERTEX
  8
Outlines
 10
1532.00054932
 20
-178.499694824
 30
1.13686837722e-13
  0
VERTEX
  8
Outlines
 10
1457.00067139
 20
-178.499694824
 30
1.13686837722e-13
  0
VERTEX
  8
Outlines
 10
1457.00067139
 20
-183.499572754
 30
1.13686837722e-13
  0
VERTEX
  8
Outlines
 10
1447.0007019
 20
-183.499572754
 30
1.13686837722e-13
  0
VERTEX
  8
Outlines
 10
1447.0007019
 20
-160.499572754
 30
1.13686837722e-13
  0
VERTEX
  8
Outlines
 10
1267.00109863
 20
-160.499572754
 30
1.13686837722e-13
  0
VERTEX
  8
Outlines
 10
1267.00109863
 20
-183.499572754
 30
1.13686837722e-13
  0
VERTEX
  8
Outlines
 10
1257.0010376
 20
-183.499572754
 30
1.13686837722e-13
  0
VERTEX
  8
Outlines
 10
1257.0010376
 20
-178.499694824
 30
1.13686837722e-13
  0
VERTEX
  8
Outlines
 10
1200.0
 20
-178.499694824
 30
1.13686837722e-13
  0
VERTEX
  8
Outlines
 10
1200.0
 20
-428.499206543
 30
1.13686837722e-13
  0
VERTEX
  8
Outlines
 10
1257.0010376
 20
-428.499206543
 30
1.13686837722e-13
  0
SEQEND
  8
Outlines
  0
POLYLINE
  8
Cuts
 62
4
 70
1
 66
1
 10
0.0
 20
0.0
 30
0.0
  0
VERTEX
  8
Cuts
 10
1550.0005188
 20
-33.5000610352
 30
0.0
  0
VERTEX
  8
Cuts
 10
1532.00054932
 20
-33.5000610352
 30
1.13686837722e-13
  0
VERTEX
  8
Cuts
 10
1532.00054932
 20
26.4999389648
 30
1.13686837722e-13
  0
VERTEX
  8
Cuts
 10
1550.0005188
 20
26.4999389648
 30
0.0
  0
SEQEND
  8
Cuts
  0
POLYLINE
  8
Cuts
 62
4
 70
1
 66
1
 10
0.0
 20
0.0
 30
0.0
  0
VERTEX
  8
Cuts
 10
1327.00097656
 20
-178.499694824
 30
1.13686837722e-13
  0
VERTEX
  8
Cuts
 10
1387.00085449
 20
-178.499694824
 30
1.13686837722e-13
  0
VERTEX
  8
Cuts
 10
1387.00085449
 20
-196.499572754
 30
1.13686837722e-13
  0
VERTEX
  8
Cuts
 10
1327.00097656
 20
-196.499572754
 30
1.13686837722e-13
  0
SEQEND
  8
Cuts
  0
POLYLINE
  8
Cuts
 62
4
 70
1
 66
1
 10
0.0
 20
0.0
 30
0.0
  0
VERTEX
  8
Cuts
 10
1327.00097656
 20
-410.499206543
 30
1.13686837722e-13
  0
VERTEX
  8
Cuts
 10
1387.00085449
 20
-410.499206543
 30
1.13686837722e-13
  0
VERTEX
  8
Cuts
 10
1387.00085449
 20
-428.499206543
 30
1.13686837722e-13
  0
VERTEX
  8
Cuts
 10
1327.00097656
 20
-428.499206543
 30
1.13686837722e-13
  0
SEQEND
  8
Cuts
  0
POLYLINE
  8
Cuts
 62
4
 70
1
 66
1
 10
0.0
 20
0.0
 30
0.0
  0
VERTEX
  8
Cuts
 10
1643.00032043
 20
-339.499328613
 30
0.0
  0
VERTEX
  8
Cuts
 10
1643.00032043
 20
-329.499328613
 30
0.0
  0
VERTEX
  8
Cuts
 10
1648.00030518
 20
-329.499328613
 30
0.0
  0
VERTEX
  8
Cuts
 10
1648.00030518
 20
-312.499450684
 30
0.0
  0
VERTEX
  8
Cuts
 10
1499.00061035
 20
-312.499450684
 30
1.13686837722e-13
  0
VERTEX
  8
Cuts
 10
1499.00061035
 20
-294.499328613
 30
1.13686837722e-13
  0
VERTEX
  8
Cuts
 10
1648.00030518
 20
-294.499328613
 30
0.0
  0
VERTEX
  8
Cuts
 10
1648.00030518
 20
-277.499450684
 30
0.0
  0
VERTEX
  8
Cuts
 10
1643.00032043
 20
-277.499450684
 30
0.0
  0
VERTEX
  8
Cuts
 10
1643.00032043
 20
-267.499450684
 30
0.0
  0
VERTEX
  8
Cuts
 10
1671.0002594
 20
-267.499450684
 30
0.0
  0
VERTEX
  8
Cuts
 10
1671.0002594
 20
-277.499450684
 30
0.0
  0
VERTEX
  8
Cuts
 10
1666.00027466
 20
-277.499450684
 30
0.0
  0
VERTEX
  8
Cuts
 10
1666.00027466
 20
-294.499328613
 30
0.0
  0
VERTEX
  8
Cuts
 10
1717.00016785
 20
-294.499328613
 30
0.0
  0
VERTEX
  8
Cuts
 10
1717.00016785
 20
-289.499450684
 30
0.0
  0
VERTEX
  8
Cuts
 10
1727.00014496
 20
-289.499450684
 30
0.0
  0
VERTEX
  8
Cuts
 10
1727.00014496
 20
-317.499328613
 30
0.0
  0
VERTEX
  8
Cuts
 10
1717.00016785
 20
-317.499328613
 30
0.0
  0
VERTEX
  8
Cuts
 10
1717.00016785
 20
-312.499450684
 30
0.0
  0
VERTEX
  8
Cuts
 10
1666.00027466
 20
-312.499450684
 30
0.0
  0
VERTEX
  8
Cuts
 10
1666.00027466
 20
-329.499328613
 30
0.0
  0
VERTEX
  8
Cuts
 10
1671.0002594
 20
-329.499328613
 30
0.0
  0
VERTEX
  8
Cuts
 10
1671.0002594
 20
-339.499328613
 30
0.0
  0
SEQEND
  8
Cuts
  0
POLYLINE
  8
Cuts
 62
4
 70
1
 66
1
 10
0.0
 20
0.0
 30
0.0
  0
VERTEX
  8
Cuts
 10
1687.00022888
 20
-410.499206543
 30
0.0
  0
VERTEX
  8
Cuts
 10
1687.00022888
 20
-428.499206543
 30
0.0
  0
VERTEX
  8
Cuts
 10
1627.00035095
 20
-428.499206543
 30
0.0
  0
VERTEX
  8
Cuts
 10
1627.00035095
 20
-410.499206543
 30
0.0
  0
SEQEND
  8
Cuts
  0
POLYLINE
  8
Cuts
 62
4
 70
1
 66
1
 10
0.0
 20
0.0
 30
0.0
  0
VERTEX
  8
Cuts
 10
1764.00006866
 20
326.499328613
 30
0.0
  0
VERTEX
  8
Cuts
 10
1782.00003815
 20
326.499328613
 30
0.0
  0
VERTEX
  8
Cuts
 10
1782.00003815
 20
266.499450684
 30
0.0
  0
VERTEX
  8
Cuts
 10
1764.00006866
 20
266.499450684
 30
0.0
  0
SEQEND
  8
Cuts
  0
POLYLINE
  8
Cuts
 62
4
 70
1
 66
1
 10
0.0
 20
0.0
 30
0.0
  0
VERTEX
  8
Cuts
 10
1532.00054932
 20
326.499328613
 30
1.13686837722e-13
  0
VERTEX
  8
Cuts
 10
1550.0005188
 20
326.499328613
 30
0.0
  0
VERTEX
  8
Cuts
 10
1550.0005188
 20
266.499450684
 30
0.0
  0
VERTEX
  8
Cuts
 10
1532.00054932
 20
266.499450684
 30
1.13686837722e-13
  0
SEQEND
  8
Cuts
  0
POLYLINE
  8
Cuts
 62
4
 70
1
 66
1
 10
0.0
 20
0.0
 30
0.0
  0
VERTEX
  8
Cuts
 10
1621.00036621
 20
-17.5000610352
 30
0.0
  0
VERTEX
  8
Cuts
 10
1621.00036621
 20
10.5000610352
 30
0.0
  0
VERTEX
  8
Cuts
 10
1631.00033569
 20
10.5000610352
 30
0.0
  0
VERTEX
  8
Cuts
 10
1631.00033569
 20
5.49993896484
 30
0.0
  0
VERTEX
  8
Cuts
 10
1683.00023651
 20
5.49993896484
 30
0.0
  0
VERTEX
  8
Cuts
 10
1683.00023651
 20
10.5000610352
 30
0.0
  0
VERTEX
  8
Cuts
 10
1693.00021362
 20
10.5000610352
 30
0.0
  0
VERTEX
  8
Cuts
 10
1693.00021362
 20
-17.5000610352
 30
0.0
  0
VERTEX
  8
Cuts
 10
1683.00023651
 20
-17.5000610352
 30
0.0
  0
VERTEX
  8
Cuts
 10
1683.00023651
 20
-12.4999389648
 30
0.0
  0
VERTEX
  8
Cuts
 10
1631.00033569
 20
-12.4999389648
 30
0.0
  0
VERTEX
  8
Cuts
 10
1631.00033569
 20
-17.5000610352
 30
0.0
  0
SEQEND
  8
Cuts
  0
POLYLINE
  8
Cuts
 62
4
 70
1
 66
1
 10
0.0
 20
0.0
 30
0.0
  0
VERTEX
  8
Cuts
 10
1764.00006866
 20
26.4999389648
 30
0.0
  0
VERTEX
  8
Cuts
 10
1782.00003815
 20
26.4999389648
 30
0.0
  0
VERTEX
  8
Cuts
 10
1782.00003815
 20
-33.5000610352
 30
0.0
  0
VERTEX
  8
Cuts
 10
1764.00006866
 20
-33.5000610352
 30
0.0
  0
SEQEND
  8
Cuts
  0
POLYLINE
  8
Outlines
 62
5
 70
1
 66
1
 10
0.0
 20
0.0
 30
0.0
  0
VERTEX
  8
Outlines
 10
949.999023438
 20
-842.999710083
 30
0.0
  0
VERTEX
  8
Outlines
 10
650.000976562
 20
-842.999710083
 30
0.0
  0
VERTEX
  8
Outlines
 10
650.000976562
 20
-1157.00028992
 30
2.27373675443e-13
  0
VERTEX
  8
Outlines
 10
949.999023438
 20
-1157.00028992
 30
2.27373675443e-13
  0
SEQEND
  8
Outlines
  0
POLYLINE
  8
Cuts
 62
4
 70
1
 66
1
 10
0.0
 20
0.0
 30
0.0
  0
VERTEX
  8
Cuts
 10
725.000854492
 20
-1079.99925232
 30
2.27373675443e-13
  0
VERTEX
  8
Cuts
 10
730.000793457
 20
-1079.99925232
 30
2.27373675443e-13
  0
VERTEX
  8
Cuts
 10
730.000793457
 20
-1089.99919128
 30
2.27373675443e-13
  0
VERTEX
  8
Cuts
 10
684.000915527
 20
-1089.99919128
 30
2.27373675443e-13
  0
VERTEX
  8
Cuts
 10
684.000915527
 20
-1079.99925232
 30
2.27373675443e-13
  0
VERTEX
  8
Cuts
 10
689.000915527
 20
-1079.99925232
 30
2.27373675443e-13
  0
VERTEX
  8
Cuts
 10
689.000915527
 20
-919.999557495
 30
0.0
  0
VERTEX
  8
Cuts
 10
684.000915527
 20
-919.999557495
 30
0.0
  0
VERTEX
  8
Cuts
 10
684.000915527
 20
-909.999588013
 30
0.0
  0
VERTEX
  8
Cuts
 10
730.000793457
 20
-909.999588013
 30
0.0
  0
VERTEX
  8
Cuts
 10
730.000793457
 20
-919.999557495
 30
0.0
  0
VERTEX
  8
Cuts
 10
725.000854492
 20
-919.999557495
 30
0.0
  0
SEQEND
  8
Cuts
  0
POLYLINE
  8
Outlines
 62
5
 70
1
 66
1
 10
0.0
 20
0.0
 30
0.0
  0
VERTEX
  8
Outlines
 10
2750.00097656
 20
-808.999980927
 30
0.0
  0
VERTEX
  8
Outlines
 10
2750.00097656
 20
-1391.00001907
 30
0.0
  0
VERTEX
  8
Outlines
 10
3049.99902344
 20
-1391.00001907
 30
0.0
  0
VERTEX
  8
Outlines
 10
3049.99902344
 20
-808.999980927
 30
0.0
  0
SEQEND
  8
Outlines
  0
POLYLINE
  8
Cuts
 62
4
 70
1
 66
1
 10
0.0
 20
0.0
 30
0.0
  0
VERTEX
  8
Cuts
 10
2784.00091553
 20
-1313.99898148
 30
0.0
  0
VERTEX
  8
Cuts
 10
2784.00091553
 20
-1323.99892044
 30
0.0
  0
VERTEX
  8
Cuts
 10
2830.00079346
 20
-1323.99892044
 30
0.0
  0
VERTEX
  8
Cuts
 10
2830.00079346
 20
-1313.99898148
 30
0.0
  0
VERTEX
  8
Cuts
 10
2825.00085449
 20
-1313.99898148
 30
0.0
  0
VERTEX
  8
Cuts
 10
2825.00085449
 20
-1153.99928665
 30
0.0
  0
VERTEX
  8
Cuts
 10
2830.00079346
 20
-1153.99928665
 30
0.0
  0
VERTEX
  8
Cuts
 10
2830.00079346
 20
-1143.99931717
 30
0.0
  0
VERTEX
  8
Cuts
 10
2784.00091553
 20
-1143.99931717
 30
0.0
  0
VERTEX
  8
Cuts
 10
2784.00091553
 20
-1153.99928665
 30
0.0
  0
VERTEX
  8
Cuts
 10
2789.00091553
 20
-1153.99928665
 30
0.0
  0
VERTEX
  8
Cuts
 10
2789.00091553
 20
-1313.99898148
 30
0.0
  0
SEQEND
  8
Cuts
  0
POLYLINE
  8
Cuts
 62
4
 70
1
 66
1
 10
0.0
 20
0.0
 30
0.0
  0
VERTEX
  8
Cuts
 10
2825.00085449
 20
-853.999889374
 30
0.0
  0
VERTEX
  8
Cuts
 10
2830.00079346
 20
-853.999889374
 30
0.0
  0
VERTEX
  8
Cuts
 10
2830.00079346
 20
-843.999912262
 30
0.0
  0
VERTEX
  8
Cuts
 10
2784.00091553
 20
-843.999912262
 30
0.0
  0
VERTEX
  8
Cuts
 10
2784.00091553
 20
-853.999889374
 30
0.0
  0
VERTEX
  8
Cuts
 10
2789.00091553
 20
-853.999889374
 30
0.0
  0
VERTEX
  8
Cuts
 10
2789.00091553
 20
-1013.99956131
 30
0.0
  0
VERTEX
  8
Cuts
 10
2784.00091553
 20
-1013.99956131
 30
0.0
  0
VERTEX
  8
Cuts
 10
2784.00091553
 20
-1023.99954605
 30
0.0
  0
VERTEX
  8
Cuts
 10
2830.00079346
 20
-1023.99954605
 30
0.0
  0
VERTEX
  8
Cuts
 10
2830.00079346
 20
-1013.99956131
 30
0.0
  0
VERTEX
  8
Cuts
 10
2825.00085449
 20
-1013.99956131
 30
0.0
  0
VERTEX
  8
Cuts
 10
2825.00085449
 20
-942.999713898
 30
0.0
  0
VERTEX
  8
Cuts
 10
2845.00079346
 20
-942.999713898
 30
0.0
  0
VERTEX
  8
Cuts
 10
2845.00079346
 20
-947.999698639
 30
0.0
  0
VERTEX
  8
Cuts
 10
2855.00076294
 20
-947.999698639
 30
0.0
  0
VERTEX
  8
Cuts
 10
2855.00076294
 20
-919.999759674
 30
0.0
  0
VERTEX
  8
Cuts
 10
2845.00079346
 20
-919.999759674
 30
0.0
  0
VERTEX
  8
Cuts
 10
2845.00079346
 20
-924.999744415
 30
0.0
  0
VERTEX
  8
Cuts
 10
2825.00085449
 20
-924.999744415
 30
0.0
  0
SEQEND
  8
Cuts
  0
POLYLINE
  8
Outlines
 62
5
 70
1
 66
1
 10
0.0
 20
0.0
 30
0.0
  0
VERTEX
  8
Outlines
 10
2138.99993896
 20
-1384.25003052
 30
2.27373675443e-13
  0
VERTEX
  8
Outlines
 10
2061.00006104
 20
-1384.25003052
 30
2.27373675443e-13
  0
VERTEX
  8
Outlines
 10
2061.00006104
 20
-1267.24905396
 30
0.0
  0
VERTEX
  8
Outlines
 10
2066.00006104
 20
-1267.24905396
 30
0.0
  0
VERTEX
  8
Outlines
 10
2066.00006104
 20
-1257.24905396
 30
0.0
  0
VERTEX
  8
Outlines
 10
2028.00012207
 20
-1257.24905396
 30
0.0
  0
VERTEX
  8
Outlines
 10
2025.00018311
 20
-1254.24905396
 30
0.0
  0
VERTEX
  8
Outlines
 10
2025.00018311
 20
-1200.24917603
 30
0.0
  0
VERTEX
  8
Outlines
 10
2028.00012207
 20
-1197.24917603
 30
0.0
  0
VERTEX
  8
Outlines
 10
2066.00006104
 20
-1197.24917603
 30
0.0
  0
VERTEX
  8
Outlines
 10
2066.00006104
 20
-1187.24917603
 30
0.0
  0
VERTEX
  8
Outlines
 10
2061.00006104
 20
-1187.24917603
 30
0.0
  0
VERTEX
  8
Outlines
 10
2061.00006104
 20
-815.749969482
 30
0.0
  0
VERTEX
  8
Outlines
 10
2138.99993896
 20
-815.749969482
 30
0.0
  0
VERTEX
  8
Outlines
 10
2138.99993896
 20
-1187.24917603
 30
0.0
  0
VERTEX
  8
Outlines
 10
2133.99993896
 20
-1187.24917603
 30
0.0
  0
VERTEX
  8
Outlines
 10
2133.99993896
 20
-1197.24917603
 30
0.0
  0
VERTEX
  8
Outlines
 10
2171.99987793
 20
-1197.24917603
 30
0.0
  0
VERTEX
  8
Outlines
 10
2174.99981689
 20
-1200.24917603
 30
0.0
  0
VERTEX
  8
Outlines
 10
2174.99981689
 20
-1254.24905396
 30
0.0
  0
VERTEX
  8
Outlines
 10
2171.99987793
 20
-1257.24905396
 30
0.0
  0
VERTEX
  8
Outlines
 10
2133.99993896
 20
-1257.24905396
 30
0.0
  0
VERTEX
  8
Outlines
 10
2133.99993896
 20
-1267.24905396
 30
0.0
  0
VERTEX
  8
Outlines
 10
2138.99993896
 20
-1267.24905396
 30
0.0
  0
SEQEND
  8
Outlines
  0
POLYLINE
  8
Outlines
 62
5
 70
1
 66
1
 10
0.0
 20
0.0
 30
0.0
  0
VERTEX
  8
Outlines
 10
25.0008544922
 20
-866.000305176
 30
0.0
  0
VERTEX
  8
Outlines
 10
249.999023438
 20
-866.000305176
 30
0.0
  0
VERTEX
  8
Outlines
 10
249.999023438
 20
-1115.99969482
 30
0.0
  0
VERTEX
  8
Outlines
 10
65.0007324219
 20
-1115.99969482
 30
0.0
  0
VERTEX
  8
Outlines
 10
65.0007324219
 20
-1110.99969482
 30
0.0
  0
VERTEX
  8
Outlines
 10
55.0007629395
 20
-1110.99969482
 30
0.0
  0
VERTEX
  8
Outlines
 10
55.0007629395
 20
-1133.99969482
 30
0.0
  0
VERTEX
  8
Outlines
 10
25.0008544922
 20
-1133.99969482
 30
0.0
  0
VERTEX
  8
Outlines
 10
25.0008544922
 20
-1036.99993896
 30
0.0
  0
VERTEX
  8
Outlines
 10
30.000793457
 20
-1036.99993896
 30
0.0
  0
VERTEX
  8
Outlines
 10
30.000793457
 20
-1026.99993896
 30
0.0
  0
VERTEX
  8
Outlines
 10
-49.9990234375
 20
-1026.99993896
 30
0.0
  0
VERTEX
  8
Outlines
 10
-49.9990234375
 20
-955.000183105
 30
0.0
  0
VERTEX
  8
Outlines
 10
30.000793457
 20
-955.000183105
 30
0.0
  0
VERTEX
  8
Outlines
 10
30.000793457
 20
-945.000183105
 30
0.0
  0
VERTEX
  8
Outlines
 10
25.0008544922
 20
-945.000183105
 30
0.0
  0
SEQEND
  8
Outlines
  0
POLYLINE
  8
Cuts
 62
4
 70
1
 66
1
 10
0.0
 20
0.0
 30
0.0
  0
VERTEX
  8
Cuts
 10
-2.99914550781
 20
-1000.00006104
 30
0.0
  0
VERTEX
  8
Cuts
 10
-2.99914550781
 20
-1005.00006104
 30
0.0
  0
VERTEX
  8
Cuts
 10
7.00085449219
 20
-1005.00006104
 30
0.0
  0
VERTEX
  8
Cuts
 10
7.00085449219
 20
-977.000061035
 30
0.0
  0
VERTEX
  8
Cuts
 10
-2.99914550781
 20
-977.000061035
 30
0.0
  0
VERTEX
  8
Cuts
 10
-2.99914550781
 20
-982.000061035
 30
0.0
  0
VERTEX
  8
Cuts
 10
-21.9990844727
 20
-982.000061035
 30
0.0
  0
VERTEX
  8
Cuts
 10
-21.9990844727
 20
-977.000061035
 30
0.0
  0
VERTEX
  8
Cuts
 10
-31.9990844727
 20
-977.000061035
 30
0.0
  0
VERTEX
  8
Cuts
 10
-31.9990844727
 20
-1005.00006104
 30
0.0
  0
VERTEX
  8
Cuts
 10
-21.9990844727
 20
-1005.00006104
 30
0.0
  0
VERTEX
  8
Cuts
 10
-21.9990844727
 20
-1000.00006104
 30
0.0
  0
SEQEND
  8
Cuts
  0
POLYLINE
  8
Outlines
 62
5
 70
1
 66
1
 10
0.0
 20
0.0
 30
0.0
  0
VERTEX
  8
Outlines
 10
3724.99987793
 20
-649.50402832
 30
0.0
  0
VERTEX
  8
Outlines
 10
3949.9987793
 20
-649.50402832
 30
0.0
  0
VERTEX
  8
Outlines
 10
3949.9987793
 20
-750.49597168
 30
0.0
  0
VERTEX
  8
Outlines
 10
3650.0012207
 20
-750.49597168
 30
0.0
  0
VERTEX
  8
Outlines
 10
3650.0012207
 20
-649.50402832
 30
0.0
  0
VERTEX
  8
Outlines
 10
3688.99993896
 20
-649.50402832
 30
0.0
  0
VERTEX
  8
Outlines
 10
3688.99993896
 20
-668.49609375
 30
0.0
  0
VERTEX
  8
Outlines
 10
3684.0
 20
-668.49609375
 30
0.0
  0
VERTEX
  8
Outlines
 10
3684.0
 20
-678.49609375
 30
0.0
  0
VERTEX
  8
Outlines
 10
3729.99987793
 20
-678.49609375
 30
0.0
  0
VERTEX
  8
Outlines
 10
3729.99987793
 20
-668.49609375
 30
0.0
  0
VERTEX
  8
Outlines
 10
3724.99987793
 20
-668.49609375
 30
0.0
  0
SEQEND
  8
Outlines
  0
POLYLINE
  8
Outlines
 62
5
 70
1
 66
1
 10
0.0
 20
0.0
 30
0.0
  0
VERTEX
  8
Outlines
 10
3412.49996948
 20
-1424.99966867
 30
0.0
  0
VERTEX
  8
Outlines
 10
3187.50003052
 20
-1424.99974714
 30
0.0
  0
VERTEX
  8
Outlines
 10
3187.50003052
 20
-1175.00035749
 30
0.0
  0
VERTEX
  8
Outlines
 10
3412.49996948
 20
-1175.00025286
 30
0.0
  0
SEQEND
  8
Outlines
  0
POLYLINE
  8
Outlines
 62
5
 70
1
 66
1
 10
0.0
 20
0.0
 30
0.0
  0
VERTEX
  8
Outlines
 10
1733.99993896
 20
-1160.49906921
 30
0.0
  0
VERTEX
  8
Outlines
 10
1733.99993896
 20
-1150.49906921
 30
0.0
  0
VERTEX
  8
Outlines
 10
1771.99987793
 20
-1150.49906921
 30
0.0
  0
VERTEX
  8
Outlines
 10
1774.99981689
 20
-1147.49906921
 30
0.0
  0
VERTEX
  8
Outlines
 10
1774.99981689
 20
-1093.49919128
 30
0.0
  0
VERTEX
  8
Outlines
 10
1771.99987793
 20
-1090.49919128
 30
0.0
  0
VERTEX
  8
Outlines
 10
1733.99993896
 20
-1090.49919128
 30
0.0
  0
VERTEX
  8
Outlines
 10
1733.99993896
 20
-1080.49919128
 30
0.0
  0
VERTEX
  8
Outlines
 10
1738.99993896
 20
-1080.49919128
 30
0.0
  0
VERTEX
  8
Outlines
 10
1738.99993896
 20
-860.499679565
 30
0.0
  0
VERTEX
  8
Outlines
 10
1733.99993896
 20
-860.499679565
 30
0.0
  0
VERTEX
  8
Outlines
 10
1733.99993896
 20
-850.499694824
 30
0.0
  0
VERTEX
  8
Outlines
 10
1771.99987793
 20
-850.499694824
 30
0.0
  0
VERTEX
  8
Outlines
 10
1774.99981689
 20
-847.499694824
 30
0.0
  0
VERTEX
  8
Outlines
 10
1774.99981689
 20
-793.499809265
 30
0.0
  0
VERTEX
  8
Outlines
 10
1771.99987793
 20
-790.499816895
 30
0.0
  0
VERTEX
  8
Outlines
 10
1733.99993896
 20
-790.499816895
 30
0.0
  0
VERTEX
  8
Outlines
 10
1733.99993896
 20
-780.499832153
 30
0.0
  0
VERTEX
  8
Outlines
 10
1738.99993896
 20
-780.499832153
 30
0.0
  0
VERTEX
  8
Outlines
 10
1738.99993896
 20
-722.499954224
 30
0.0
  0
VERTEX
  8
Outlines
 10
1661.00006104
 20
-722.499954224
 30
0.0
  0
VERTEX
  8
Outlines
 10
1661.00006104
 20
-780.499832153
 30
0.0
  0
VERTEX
  8
Outlines
 10
1666.00006104
 20
-780.499832153
 30
0.0
  0
VERTEX
  8
Outlines
 10
1666.00006104
 20
-790.499816895
 30
0.0
  0
VERTEX
  8
Outlines
 10
1628.00012207
 20
-790.499816895
 30
0.0
  0
VERTEX
  8
Outlines
 10
1625.00018311
 20
-793.499809265
 30
0.0
  0
VERTEX
  8
Outlines
 10
1625.00018311
 20
-847.499694824
 30
0.0
  0
VERTEX
  8
Outlines
 10
1628.00012207
 20
-850.499694824
 30
0.0
  0
VERTEX
  8
Outlines
 10
1666.00006104
 20
-850.499694824
 30
0.0
  0
VERTEX
  8
Outlines
 10
1666.00006104
 20
-860.499679565
 30
0.0
  0
VERTEX
  8
Outlines
 10
1661.00006104
 20
-860.499679565
 30
0.0
  0
VERTEX
  8
Outlines
 10
1661.00006104
 20
-1080.49919128
 30
0.0
  0
VERTEX
  8
Outlines
 10
1666.00006104
 20
-1080.49919128
 30
0.0
  0
VERTEX
  8
Outlines
 10
1666.00006104
 20
-1090.49919128
 30
0.0
  0
VERTEX
  8
Outlines
 10
1628.00012207
 20
-1090.49919128
 30
0.0
  0
VERTEX
  8
Outlines
 10
1625.00018311
 20
-1093.49919128
 30
0.0
  0
VERTEX
  8
Outlines
 10
1625.00018311
 20
-1147.49906921
 30
0.0
  0
VERTEX
  8
Outlines
 10
1628.00012207
 20
-1150.49906921
 30
0.0
  0
VERTEX
  8
Outlines
 10
1666.00006104
 20
-1150.49906921
 30
0.0
  0
VERTEX
  8
Outlines
 10
1666.00006104
 20
-1160.49906921
 30
0.0
  0
VERTEX
  8
Outlines
 10
1661.00006104
 20
-1160.49906921
 30
0.0
  0
VERTEX
  8
Outlines
 10
1661.00006104
 20
-1277.50004578
 30
0.0
  0
VERTEX
  8
Outlines
 10
1738.99993896
 20
-1277.50004578
 30
0.0
  0
VERTEX
  8
Outlines
 10
1738.99993896
 20
-1160.49906921
 30
0.0
  0
SEQEND
  8
Outlines
  0
POLYLINE
  8
Outlines
 62
5
 70
1
 66
1
 10
0.0
 20
0.0
 30
0.0
  0
VERTEX
  8
Outlines
 10
538.999938965
 20
-979.246544612
 30
0.0
  0
VERTEX
  8
Outlines
 10
533.999938965
 20
-979.246544612
 30
0.0
  0
VERTEX
  8
Outlines
 10
533.999938965
 20
-989.246544612
 30
0.0
  0
VERTEX
  8
Outlines
 10
571.99987793
 20
-989.246544612
 30
0.0
  0
VERTEX
  8
Outlines
 10
574.999816895
 20
-992.246544612
 30
0.0
  0
VERTEX
  8
Outlines
 10
574.999816895
 20
-1046.24654461
 30
0.0
  0
VERTEX
  8
Outlines
 10
571.99987793
 20
-1049.24654461
 30
0.0
  0
VERTEX
  8
Outlines
 10
533.999938965
 20
-1049.24654461
 30
0.0
  0
VERTEX
  8
Outlines
 10
533.999938965
 20
-1059.24642254
 30
0.0
  0
VERTEX
  8
Outlines
 10
538.999938965
 20
-1059.24642254
 30
0.0
  0
VERTEX
  8
Outlines
 10
538.999938965
 20
-1180.7461784
 30
0.0
  0
VERTEX
  8
Outlines
 10
461.000061035
 20
-1180.7461784
 30
0.0
  0
VERTEX
  8
Outlines
 10
461.000061035
 20
-1059.24642254
 30
0.0
  0
VERTEX
  8
Outlines
 10
466.000061035
 20
-1059.24642254
 30
0.0
  0
VERTEX
  8
Outlines
 10
466.000061035
 20
-1049.24654461
 30
0.0
  0
VERTEX
  8
Outlines
 10
428.00012207
 20
-1049.24654461
 30
0.0
  0
VERTEX
  8
Outlines
 10
425.000183105
 20
-1046.24654461
 30
0.0
  0
VERTEX
  8
Outlines
 10
425.000183105
 20
-992.246544612
 30
0.0
  0
VERTEX
  8
Outlines
 10
428.00012207
 20
-989.246544612
 30
0.0
  0
VERTEX
  8
Outlines
 10
466.000061035
 20
-989.246544612
 30
0.0
  0
VERTEX
  8
Outlines
 10
466.000061035
 20
-979.246544612
 30
0.0
  0
VERTEX
  8
Outlines
 10
461.000061035
 20
-979.246544612
 30
0.0
  0
VERTEX
  8
Outlines
 10
461.000061035
 20
-819.253821598
 30
0.0
  0
VERTEX
  8
Outlines
 10
538.999938965
 20
-819.253821598
 30
0.0
  0
SEQEND
  8
Outlines
  0
POLYLINE
  8
Outlines
 62
5
 70
1
 66
1
 10
0.0
 20
0.0
 30
0.0
  0
VERTEX
  8
Outlines
 10
1449.99902344
 20
-812.50430988
 30
0.0
  0
VERTEX
  8
Outlines
 10
1449.99902344
 20
-1187.49569012
 30
0.0
  0
VERTEX
  8
Outlines
 10
1150.00097656
 20
-1187.49569012
 30
0.0
  0
VERTEX
  8
Outlines
 10
1150.00097656
 20
-812.50430988
 30
0.0
  0
SEQEND
  8
Outlines
  0
POLYLINE
  8
Cuts
 62
4
 70
1
 66
1
 10
0.0
 20
0.0
 30
0.0
  0
VERTEX
  8
Cuts
 10
1225.00085449
 20
-932.496178402
 30
0.0
  0
VERTEX
  8
Cuts
 10
1230.00079346
 20
-932.496178402
 30
0.0
  0
VERTEX
  8
Cuts
 10
1230.00079346
 20
-922.496178402
 30
0.0
  0
VERTEX
  8
Cuts
 10
1184.00091553
 20
-922.496178402
 30
0.0
  0
VERTEX
  8
Cuts
 10
1184.00091553
 20
-932.496178402
 30
0.0
  0
VERTEX
  8
Cuts
 10
1189.00091553
 20
-932.496178402
 30
0.0
  0
VERTEX
  8
Cuts
 10
1189.00091553
 20
-1092.49581219
 30
0.0
  0
VERTEX
  8
Cuts
 10
1184.00091553
 20
-1092.49581219
 30
0.0
  0
VERTEX
  8
Cuts
 10
1184.00091553
 20
-1102.49581219
 30
0.0
  0
VERTEX
  8
Cuts
 10
1230.00079346
 20
-1102.49581219
 30
0.0
  0
VERTEX
  8
Cuts
 10
1230.00079346
 20
-1092.49581219
 30
0.0
  0
VERTEX
  8
Cuts
 10
1225.00085449
 20
-1092.49581219
 30
0.0
  0
VERTEX
  8
Cuts
 10
1225.00085449
 20
-1021.49593426
 30
0.0
  0
VERTEX
  8
Cuts
 10
1245.00079346
 20
-1021.49593426
 30
0.0
  0
VERTEX
  8
Cuts
 10
1245.00079346
 20
-1026.49605633
 30
0.0
  0
VERTEX
  8
Cuts
 10
1255.00076294
 20
-1026.49605633
 30
0.0
  0
VERTEX
  8
Cuts
 10
1255.00076294
 20
-998.495934261
 30
0.0
  0
VERTEX
  8
Cuts
 10
1245.00079346
 20
-998.495934261
 30
0.0
  0
VERTEX
  8
Cuts
 10
1245.00079346
 20
-1003.49605633
 30
0.0
  0
VERTEX
  8
Cuts
 10
1225.00085449
 20
-1003.49605633
 30
0.0
  0
SEQEND
  8
Cuts
  0
ENDSEC
  0
EOF
