  0
SECTION
  2
HEADER
  9
$ACADVER
  1
AC1027
  9
$ACADMAINTVER
 70
   105
  9
$DWGCODEPAGE
  3
ANSI_1252
  9
$REQUIREDVERSIONS
160
                 0
  9
$LASTSAVEDBY
  1
yorik
  9
$INSBASE
 10
0.0
 20
0.0
 30
0.0
  9
$EXTMIN
 10
-12134.55611421318
 20
-1108.467820710778
 30
0.0
  9
$EXTMAX
 10
2120.168909241902
 20
9704.189164559222
 30
0.0
  9
$LIMMIN
 10
0.0
 20
0.0
  9
$LIMMAX
 10
12.0
 20
9.0
  9
$ORTHOMODE
 70
     0
  9
$REGENMODE
 70
     1
  9
$FILLMODE
 70
     1
  9
$QTEXTMODE
 70
     0
  9
$MIRRTEXT
 70
     0
  9
$LTSCALE
 40
5.0
  9
$ATTMODE
 70
     1
  9
$TEXTSIZE
 40
1.0
  9
$TRACEWID
 40
0.05
  9
$TEXTSTYLE
  7
STANDARD
  9
$CLAYER
  8
0
  9
$CELTYPE
  6
ByLayer
  9
$CECOLOR
 62
   256
  9
$CELTSCALE
 40
1.0
  9
$DISPSILH
 70
     0
  9
$DIMSCALE
 40
1.0
  9
$DIMASZ
 40
30.0
  9
$DIMEXO
 40
0.0625
  9
$DIMDLI
 40
0.38
  9
$DIMRND
 40
0.0
  9
$DIMDLE
 40
0.0
  9
$DIMEXE
 40
0.18
  9
$DIMTP
 40
0.0
  9
$DIMTM
 40
0.0
  9
$DIMTXT
 40
80.0
  9
$DIMCEN
 40
0.09
  9
$DIMTSZ
 40
0.0
  9
$DIMTOL
 70
     0
  9
$DIMLIM
 70
     0
  9
$DIMTIH
 70
     0
  9
$DIMTOH
 70
     0
  9
$DIMSE1
 70
     0
  9
$DIMSE2
 70
     0
  9
$DIMTAD
 70
     1
  9
$DIMZIN
 70
     0
  9
$DIMBLK
  1
Dot
  9
$DIMASO
 70
     1
  9
$DIMSHO
 70
     1
  9
$DIMPOST
  1

  9
$DIMAPOST
  1

  9
$DIMALT
 70
     0
  9
$DIMALTD
 70
     2
  9
$DIMALTF
 40
25.4
  9
$DIMLFAC
 40
0.001
  9
$DIMTOFL
 70
     0
  9
$DIMTVP
 40
0.0
  9
$DIMTIX
 70
     0
  9
$DIMSOXD
 70
     0
  9
$DIMSAH
 70
     0
  9
$DIMBLK1
  1

  9
$DIMBLK2
  1

  9
$DIMSTYLE
  2
Standard
  9
$DIMCLRD
 70
     8
  9
$DIMCLRE
 70
     8
  9
$DIMCLRT
 70
     0
  9
$DIMTFAC
 40
1.0
  9
$DIMGAP
 40
30.0
  9
$DIMJUST
 70
     0
  9
$DIMSD1
 70
     0
  9
$DIMSD2
 70
     0
  9
$DIMTOLJ
 70
     1
  9
$DIMTZIN
 70
     0
  9
$DIMALTZ
 70
     0
  9
$DIMALTTZ
 70
     0
  9
$DIMUPT
 70
     0
  9
$DIMDEC
 70
     2
  9
$DIMTDEC
 70
     4
  9
$DIMALTU
 70
     2
  9
$DIMALTTD
 70
     2
  9
$DIMTXSTY
  7
STANDARD
  9
$DIMAUNIT
 70
     0
  9
$DIMADEC
 70
     0
  9
$DIMALTRND
 40
0.0
  9
$DIMAZIN
 70
     0
  9
$DIMDSEP
 70
    46
  9
$DIMATFIT
 70
     3
  9
$DIMFRAC
 70
     0
  9
$DIMLDRBLK
  1
Dot
  9
$DIMLUNIT
 70
     2
  9
$DIMLWD
 70
    -2
  9
$DIMLWE
 70
    -2
  9
$DIMTMOVE
 70
     2
  9
$DIMFXL
 40
300.0
  9
$DIMFXLON
 70
     1
  9
$DIMJOGANG
 40
0.7853981633974483
  9
$DIMTFILL
 70
     0
  9
$DIMTFILLCLR
 70
     0
  9
$DIMARCSYM
 70
     0
  9
$DIMLTYPE
  6

  9
$DIMLTEX1
  6

  9
$DIMLTEX2
  6

  9
$DIMTXTDIRECTION
 70
     0
  9
$LUNITS
 70
     2
  9
$LUPREC
 70
     4
  9
$SKETCHINC
 40
0.1
  9
$FILLETRAD
 40
0.0
  9
$AUNITS
 70
     0
  9
$AUPREC
 70
     0
  9
$MENU
  1
.
  9
$ELEVATION
 40
0.0
  9
$PELEVATION
 40
0.0
  9
$THICKNESS
 40
0.0
  9
$LIMCHECK
 70
     0
  9
$CHAMFERA
 40
0.0
  9
$CHAMFERB
 40
0.0
  9
$CHAMFERC
 40
0.0
  9
$CHAMFERD
 40
0.0
  9
$SKPOLY
 70
     0
  9
$TDCREATE
 40
2457932.820277373
  9
$TDUCREATE
 40
2457932.945277373
  9
$TDUPDATE
 40
2457974.718322188
  9
$TDUUPDATE
 40
2457974.843322188
  9
$TDINDWG
 40
49.7102598843
  9
$TDUSRTIMER
 40
2457974.826036111
  9
$USRTIMER
 70
     1
  9
$ANGBASE
 50
0.0
  9
$ANGDIR
 70
     0
  9
$PDMODE
 70
     0
  9
$PDSIZE
 40
0.0
  9
$PLINEWID
 40
0.0
  9
$SPLFRAME
 70
     0
  9
$SPLINETYPE
 70
     6
  9
$SPLINESEGS
 70
     8
  9
$HANDSEED
  5
38EDB
  9
$SURFTAB1
 70
     6
  9
$SURFTAB2
 70
     6
  9
$SURFTYPE
 70
     6
  9
$SURFU
 70
     6
  9
$SURFV
 70
     6
  9
$UCSBASE
  2

  9
$UCSNAME
  2

  9
$UCSORG
 10
0.0
 20
0.0
 30
0.0
  9
$UCSXDIR
 10
1.0
 20
0.0
 30
0.0
  9
$UCSYDIR
 10
0.0
 20
1.0
 30
0.0
  9
$UCSORTHOREF
  2

  9
$UCSORTHOVIEW
 70
     0
  9
$UCSORGTOP
 10
0.0
 20
0.0
 30
0.0
  9
$UCSORGBOTTOM
 10
0.0
 20
0.0
 30
0.0
  9
$UCSORGLEFT
 10
0.0
 20
0.0
 30
0.0
  9
$UCSORGRIGHT
 10
0.0
 20
0.0
 30
0.0
  9
$UCSORGFRONT
 10
0.0
 20
0.0
 30
0.0
  9
$UCSORGBACK
 10
0.0
 20
0.0
 30
0.0
  9
$PUCSBASE
  2

  9
$PUCSNAME
  2

  9
$PUCSORG
 10
0.0
 20
0.0
 30
0.0
  9
$PUCSXDIR
 10
1.0
 20
0.0
 30
0.0
  9
$PUCSYDIR
 10
0.0
 20
1.0
 30
0.0
  9
$PUCSORTHOREF
  2

  9
$PUCSORTHOVIEW
 70
     0
  9
$PUCSORGTOP
 10
0.0
 20
0.0
 30
0.0
  9
$PUCSORGBOTTOM
 10
0.0
 20
0.0
 30
0.0
  9
$PUCSORGLEFT
 10
0.0
 20
0.0
 30
0.0
  9
$PUCSORGRIGHT
 10
0.0
 20
0.0
 30
0.0
  9
$PUCSORGFRONT
 10
0.0
 20
0.0
 30
0.0
  9
$PUCSORGBACK
 10
0.0
 20
0.0
 30
0.0
  9
$USERI1
 70
     0
  9
$USERI2
 70
     0
  9
$USERI3
 70
     0
  9
$USERI4
 70
     0
  9
$USERI5
 70
     0
  9
$USERR1
 40
0.0
  9
$USERR2
 40
0.0
  9
$USERR3
 40
0.0
  9
$USERR4
 40
0.0
  9
$USERR5
 40
0.0
  9
$WORLDVIEW
 70
     1
  9
$SHADEDGE
 70
     3
  9
$SHADEDIF
 70
    70
  9
$TILEMODE
 70
     1
  9
$MAXACTVP
 70
    64
  9
$PINSBASE
 10
0.0
 20
0.0
 30
0.0
  9
$PLIMCHECK
 70
     0
  9
$PEXTMIN
 10
5.078034576804043
 20
13.06073360574408
 30
0.0
  9
$PEXTMAX
 10
292.2341725403516
 20
386.3580144600678
 30
0.0
  9
$PLIMMIN
 10
0.0
 20
0.0
  9
$PLIMMAX
 10
0.0
 20
0.0
  9
$UNITMODE
 70
     0
  9
$VISRETAIN
 70
     1
  9
$PLINEGEN
 70
     0
  9
$PSLTSCALE
 70
     1
  9
$TREEDEPTH
 70
  3020
  9
$CMLSTYLE
  2
Standard
  9
$CMLJUST
 70
     0
  9
$CMLSCALE
 40
1.0
  9
$PROXYGRAPHICS
 70
     1
  9
$MEASUREMENT
 70
     0
  9
$CELWEIGHT
370
    -1
  9
$ENDCAPS
280
     0
  9
$JOINSTYLE
280
     0
  9
$LWDISPLAY
290
     1
  9
$INSUNITS
 70
     0
  9
$HYPERLINKBASE
  1

  9
$STYLESHEET
  1

  9
$XEDIT
290
     1
  9
$CEPSNTYPE
380
     0
  9
$PSTYLEMODE
290
     1
  9
$FINGERPRINTGUID
  2
{7f9c372b-cbcf-4828-9525-476b32f6689b}
  9
$VERSIONGUID
  2
{FAEB1C32-E019-11D5-929B-00C0DF256EC4}
  9
$EXTNAMES
290
     1
  9
$PSVPSCALE
 40
0.0
  9
$OLESTARTUP
290
     0
  9
$SORTENTS
280
   127
  9
$INDEXCTL
280
     0
  9
$HIDETEXT
280
     1
  9
$XCLIPFRAME
280
     2
  9
$HALOGAP
280
     0
  9
$OBSCOLOR
 70
   257
  9
$OBSLTYPE
280
     0
  9
$INTERSECTIONDISPLAY
280
     0
  9
$INTERSECTIONCOLOR
 70
   257
  9
$DIMASSOC
280
     2
  9
$PROJECTNAME
  1

  9
$CAMERADISPLAY
290
     0
  9
$LENSLENGTH
 40
50.0
  9
$CAMERAHEIGHT
 40
0.0
  9
$STEPSPERSEC
 40
2.0
  9
$STEPSIZE
 40
6.0
  9
$3DDWFPREC
 40
2.0
  9
$PSOLWIDTH
 40
0.25
  9
$PSOLHEIGHT
 40
4.0
  9
$LOFTANG1
 40
1.570796326794897
  9
$LOFTANG2
 40
1.570796326794897
  9
$LOFTMAG1
 40
0.0
  9
$LOFTMAG2
 40
0.0
  9
$LOFTPARAM
 70
     7
  9
$LOFTNORMALS
280
     1
  9
$LATITUDE
 40
37.795
  9
$LONGITUDE
 40
-122.394
  9
$NORTHDIRECTION
 40
0.0
  9
$TIMEZONE
 70
 -8000
  9
$LIGHTGLYPHDISPLAY
280
     1
  9
$TILEMODELIGHTSYNCH
280
     1
  9
$SOLIDHIST
280
     0
  9
$SHOWHIST
280
     1
  9
$DWFFRAME
280
     2
  9
$DGNFRAME
280
     2
  9
$REALWORLDSCALE
290
     1
  9
$INTERFERECOLOR
 62
   256
  9
$CSHADOW
280
     0
  9
$SHADOWPLANELOCATION
 40
0.0
  0
ENDSEC
  0
SECTION
  2
CLASSES
  0
CLASS
  1
ACDBDICTIONARYWDFLT
  2
AcDbDictionaryWithDefault
  3
ObjectDBX Classes
 90
        0
 91
        4
280
     0
281
     0
  0
CLASS
  1
MATERIAL
  2
AcDbMaterial
  3
ObjectDBX Classes
 90
     1153
 91
        4
280
     0
281
     0
  0
CLASS
  1
SCALE
  2
AcDbScale
  3
ObjectDBX Classes
 90
     1153
 91
        4
280
     0
281
     0
  0
CLASS
  1
VISUALSTYLE
  2
AcDbVisualStyle
  3
ObjectDBX Classes
 90
     4095
 91
        4
280
     0
281
     0
  0
CLASS
  1
TABLESTYLE
  2
AcDbTableStyle
  3
ObjectDBX Classes
 90
     4095
 91
        4
280
     0
281
     0
  0
CLASS
  1
MLEADERSTYLE
  2
AcDbMLeaderStyle
  3
ACDB_MLEADERSTYLE_CLASS
 90
     4095
 91
        4
280
     0
281
     0
  0
CLASS
  1
SUN
  2
AcDbSun
  3
SCENEOE
 90
     1153
 91
        4
280
     0
281
     0
  0
CLASS
  1
RASTERVARIABLES
  2
AcDbRasterVariables
  3
ISM
 90
        0
 91
        4
280
     0
281
     0
  0
CLASS
  1
SORTENTSTABLE
  2
AcDbSortentsTable
  3
ObjectDBX Classes
 90
        0
 91
        4
280
     0
281
     0
  0
CLASS
  1
DICTIONARYVAR
  2
AcDbDictionaryVar
  3
ObjectDBX Classes
 90
        0
 91
        4
280
     0
281
     0
  0
CLASS
  1
CELLSTYLEMAP
  2
AcDbCellStyleMap
  3
ObjectDBX Classes
 90
     1152
 91
        4
280
     0
281
     0
  0
CLASS
  1
DIMASSOC
  2
AcDbDimAssoc
  3
"AcDbDimAssoc|Product Desc:     AcDim ARX App For Dimension|Company:          Autodesk, Inc.|WEB Address:      www.autodesk.com"
 90
        0
 91
        4
280
     0
281
     0
  0
CLASS
  1
IMAGEDEF
  2
AcDbRasterImageDef
  3
ISM
 90
        0
 91
        4
280
     0
281
     0
  0
CLASS
  1
IMAGE
  2
AcDbRasterImage
  3
ISM
 90
      127
 91
        5
280
     0
281
     1
  0
CLASS
  1
IMAGEDEF_REACTOR
  2
AcDbRasterImageDefReactor
  3
ISM
 90
        1
 91
        4
280
     0
281
     0
  0
ENDSEC
  0
SECTION
  2
TABLES
  0
TABLE
  2
VPORT
  5
8
330
0
100
AcDbSymbolTable
 70
     1
  0
VPORT
  5
28
330
8
100
AcDbSymbolTableRecord
100
AcDbViewportTableRecord
  2
*Active
 70
     0
 10
0.0
 20
0.0
 11
1.0
 21
1.0
 12
-4367.880982180648
 22
4170.882782715004
 13
0.0
 23
0.0
 14
0.5
 24
0.5
 15
0.5
 25
0.5
 16
0.0
 26
0.0
 36
1.0
 17
0.0
 27
0.0
 37
0.0
 40
12387.40269314796
 41
1.912322274881516
 42
50.0
 43
0.0
 44
0.0
 50
0.0
 51
0.0
 71
    16
 72
   100
 73
     1
 74
     3
 75
     0
 76
     0
 77
     0
 78
     0
281
     0
 65
     1
110
0.0
120
0.0
130
0.0
111
1.0
121
0.0
131
0.0
112
0.0
122
1.0
132
0.0
 79
     0
146
0.0
348
15E9D
 60
     3
 61
     5
292
     1
282
     1
141
0.0
142
0.0
 63
   250
361
15EB6
  0
ENDTAB
  0
TABLE
  2
LTYPE
  5
5
330
0
100
AcDbSymbolTable
 70
     2
  0
LTYPE
  5
14
330
5
100
AcDbSymbolTableRecord
100
AcDbLinetypeTableRecord
  2
ByBlock
 70
     0
  3

 72
    65
 73
     0
 40
0.0
  0
LTYPE
  5
15
330
5
100
AcDbSymbolTableRecord
100
AcDbLinetypeTableRecord
  2
ByLayer
 70
     0
  3
Solid line
 72
    65
 73
     0
 40
0.0
  0
LTYPE
  5
16
330
5
100
AcDbSymbolTableRecord
100
AcDbLinetypeTableRecord
  2
CONTINUOUS
 70
     0
  3
Solid line
 72
    65
 73
     0
 40
0.0
  0
LTYPE
  5
36DCC
330
5
100
AcDbSymbolTableRecord
100
AcDbLinetypeTableRecord
  2
HIDDEN
 70
     0
  3
 Hidden _ _ _ _ _ _ _ _ _ _ _ _ _ _ _ _ _ _ _ _
 72
    65
 73
     2
 40
0.375
 49
0.25
 74
     0
 49
-0.125
 74
     0
  0
ENDTAB
  0
TABLE
  2
LAYER
  5
2
102
{ACAD_XDICTIONARY
360
15EB8
102
}
330
0
100
AcDbSymbolTable
 70
     8
  0
LAYER
  5
10
330
2
100
AcDbSymbolTableRecord
100
AcDbLayerTableRecord
  2
0
 70
     0
 62
     7
  6
CONTINUOUS
370
    13
390
F
347
25
348
0
  0
ENDTAB
  0
TABLE
  2
STYLE
  5
3
330
0
100
AcDbSymbolTable
 70
     1
  0
STYLE
  5
11
330
3
100
AcDbSymbolTableRecord
100
AcDbTextStyleTableRecord
  2
STANDARD
 70
     0
 40
0.0
 41
1.0
 50
0.0
 71
     0
 42
1.0
  3
ARIAL.TTF
  4

  0
ENDTAB
  0
TABLE
  2
VIEW
  5
6
330
0
100
AcDbSymbolTable
 70
     0
  0
ENDTAB
  0
TABLE
  2
UCS
  5
7
330
0
100
AcDbSymbolTable
 70
     0
  0
ENDTAB
  0
TABLE
  2
APPID
  5
9
330
0
100
AcDbSymbolTable
 70
     3
  0
APPID
  5
12
330
9
100
AcDbSymbolTableRecord
100
AcDbRegAppTableRecord
  2
ACAD
 70
     0
  0
APPID
  5
15EBC
330
9
100
AcDbSymbolTableRecord
100
AcDbRegAppTableRecord
  2
AcAecLayerStandard
 70
     0
  0
APPID
  5
383AA
330
9
100
AcDbSymbolTableRecord
100
AcDbRegAppTableRecord
  2
PLOTTRANSPARENCY
 70
     0
  0
ENDTAB
  0
TABLE
  2
DIMSTYLE
  5
A
330
0
100
AcDbSymbolTable
 70
     2
100
AcDbDimStyleTable
  0
DIMSTYLE
105
27
330
A
100
AcDbSymbolTableRecord
100
AcDbDimStyleTableRecord
  2
Standard
 70
     0
 41
30.0
 49
300.0
290
     1
 73
     0
 74
     0
 77
     1
140
80.0
144
0.001
147
30.0
176
     8
177
     8
178
     0
271
     2
279
     2
340
11
341
2FCC0
342
2FCC0
  0
ENDTAB
  0
TABLE
  2
BLOCK_RECORD
  5
1
330
0
100
AcDbSymbolTable
 70
    94
  0
BLOCK_RECORD
  5
1D
102
{ACAD_XDICTIONARY
360
15EBF
102
}
330
1
100
AcDbSymbolTableRecord
100
AcDbBlockTableRecord
  2
*Model_Space
340
1E
 70
     0
280
     1
281
     0
  0
BLOCK_RECORD
  5
38798
330
1
100
AcDbSymbolTableRecord
100
AcDbBlockTableRecord
  2
*Paper_Space
340
38799
 70
     0
280
     1
281
     0
  0
BLOCK_RECORD
  5
2FCC0
330
1
100
AcDbSymbolTableRecord
100
AcDbBlockTableRecord
  2
_Dot
340
0
102
{BLKREFS
331
2FCB9
331
2FCBA
331
2FD16
331
2FD17
331
2FD26
331
2FD27
331
2FD50
331
2FD51
331
2FD6E
331
2FD6F
331
2FD7D
331
2FD7E
331
2FDA1
331
2FDA2
331
2FDB0
331
2FDB1
331
2FDBF
331
2FDC0
331
2FDCE
331
2FDCF
331
2FDDD
331
2FDDE
331
2FDEC
331
2FDED
331
2FDFB
331
2FDFC
331
2FE0A
331
2FE0B
331
2FE19
331
2FE1A
331
2FE28
331
2FE29
331
2FE37
331
2FE38
331
2FE5A
331
2FE5B
331
2FE69
331
2FE6A
331
2FE78
331
2FE79
331
2FE87
331
2FE88
331
2FE96
331
2FE97
331
2FEA8
331
2FEA9
331
2FEB7
331
2FEB8
331
2FEC6
331
2FEC7
331
2FED5
331
2FED6
331
2FEE4
331
2FEE5
331
2FEF3
331
2FEF4
331
30CB7
331
30CB8
331
30CC6
331
30CC7
331
30CD5
331
30CD6
331
30CE4
331
30CE5
331
30CF3
331
30CF4
331
30D02
331
30D03
331
30D11
331
30D12
331
32283
331
32284
331
3229B
331
3229C
331
354DE
331
354DF
331
354ED
331
354EE
331
354FC
331
354FD
331
3550B
331
3550C
331
3551A
331
3551B
331
35529
331
3552A
331
35538
331
35539
331
35548
331
35549
331
35558
331
35559
331
35567
331
35568
331
35577
331
35578
331
35586
331
35587
331
35595
331
35596
331
355A5
331
355A6
331
355BB
331
355BC
331
355CA
331
355CB
331
355D9
331
355DA
331
355E8
331
355E9
331
355F7
331
355F8
331
35606
331
35607
331
35615
331
35616
331
35624
331
35625
331
35633
331
35634
331
36D5A
331
36D5B
331
36D69
331
36D6A
331
36D79
331
36D7A
331
36D88
331
36D89
331
36D97
331
36D98
331
36DA6
331
36DA7
331
36DB5
331
36DB6
331
36DC4
331
36DC5
331
3832B
331
3832C
331
3833A
331
3833B
331
38349
331
3834A
331
38358
331
38359
331
38367
331
38368
331
38376
331
38377
331
38385
331
38386
331
38394
331
38395
331
383DA
331
383DB
331
383E9
331
383EA
331
383F8
331
383F9
331
38677
331
38678
331
38E16
331
38E15
331
38E25
331
38E24
331
38E50
331
38E4F
331
38E61
331
38E60
331
38E74
331
38E73
102
}
 70
     0
280
     1
281
     0
  0
ENDTAB
  0
ENDSEC
  0
SECTION
  2
BLOCKS
  0
BLOCK
  5
15E94
330
1D
100
AcDbEntity
  8
0
100
AcDbBlockBegin
  2
*Model_Space
 70
     0
 10
0.0
 20
0.0
 30
0.0
  3
*Model_Space
  1

  0
ENDBLK
  5
15E95
330
1D
100
AcDbEntity
  8
0
100
AcDbBlockEnd
  0
BLOCK
  5
3879A
330
38798
100
AcDbEntity
 67
     1
  8
0
100
AcDbBlockBegin
  2
*Paper_Space
 70
     0
 10
0.0
 20
0.0
 30
0.0
  3
*Paper_Space
  1

  0
ENDBLK
  5
3879B
330
38798
100
AcDbEntity
 67
     1
  8
0
100
AcDbBlockEnd
  0
BLOCK
  5
2FD8E
330
2FCC0
100
AcDbEntity
  8
0
100
AcDbBlockBegin
  2
_Dot
 70
     0
 10
0.0
 20
0.0
 30
0.0
  3
_Dot
  1

  0
LWPOLYLINE
  5
2FD90
330
2FCC0
100
AcDbEntity
  8
0
  6
ByBlock
 62
     0
100
AcDbPolyline
 90
        2
 70
     1
 43
0.5
 10
-0.25
 20
0.0
 42
1.0
 10
0.25
 20
0.0
 42
1.0
  0
LINE
  5
2FD91
330
2FCC0
100
AcDbEntity
  8
0
  6
ByBlock
 62
     0
370
    -2
100
AcDbLine
 10
-0.5
 20
0.0
 30
0.0
 11
-1.0
 21
0.0
 31
0.0
  0
ENDBLK
  5
2FD92
330
2FCC0
100
AcDbEntity
  8
0
100
AcDbBlockEnd
  0
ENDSEC
  0
SECTION
  2
ENTITIES
  0
LINE
  5
355AB
330
1D
100
AcDbEntity
  8
0
100
AcDbLine
 10
-10900.94657344278
 20
-842.2852826707768
 30
0.0
 11
-12134.55611421318
 21
-842.2852826707767
 31
0.0
  0
LINE
  5
355AC
330
1D
100
AcDbEntity
  8
0
100
AcDbLine
 10
-6990.051675982771
 20
-842.2852826707771
 30
0.0
 11
-10710.9465734428
 21
-842.2852826707768
 31
0.0
  0
LINE
  5
355AE
330
1D
100
AcDbEntity
  8
0
100
AcDbLine
 10
-5484.196668276289
 20
-842.2852826707771
 30
0.0
 11
-6790.131807066718
 21
-842.2852826707771
 31
0.0
  0
LINE
  5
3870C
330
1D
100
AcDbEntity
  8
0
100
AcDbLine
 10
-6800.051687406713
 20
-650.575361950775
 30
0.0
 11
-6800.051664166715
 21
-1040.575361950775
 31
0.0
  0
LINE
  5
3870D
330
1D
100
AcDbEntity
  8
0
100
AcDbLine
 10
-6800.051687406713
 20
-650.575361950775
 30
0.0
 11
-6990.051687406713
 21
-650.5753732807771
 31
0.0
  0
LINE
  5
3870E
330
1D
100
AcDbEntity
  8
0
100
AcDbLine
 10
-6800.051664166715
 20
-1040.575361950775
 30
0.0
 11
-6990.051664166715
 21
-1040.575373280777
 31
0.0
  0
LINE
  5
3870F
330
1D
100
AcDbEntity
  8
0
100
AcDbLine
 10
-6990.051687406713
 20
-650.5753732807771
 30
0.0
 11
-6990.051664166715
 21
-1040.575373280777
 31
0.0
  0
LINE
  5
38710
330
1D
100
AcDbEntity
  8
0
100
AcDbLine
 10
-10900.94656162672
 20
-1040.575606390777
 30
0.0
 11
-10900.94658486672
 21
-650.5756063907775
 31
0.0
  0
LINE
  5
38711
330
1D
100
AcDbEntity
  8
0
100
AcDbLine
 10
-10710.94656162672
 20
-1040.575595060777
 30
0.0
 11
-10900.94656162672
 21
-1040.575606390777
 31
0.0
  0
LINE
  5
38712
330
1D
100
AcDbEntity
  8
0
100
AcDbLine
 10
-10710.94658486672
 20
-650.5755950607772
 30
0.0
 11
-10900.94658486672
 21
-650.5756063907775
 31
0.0
  0
LINE
  5
38713
330
1D
100
AcDbEntity
  8
0
100
AcDbLine
 10
-10710.94656162672
 20
-1040.575595060777
 30
0.0
 11
-10710.94658486672
 21
-650.5755950607772
 31
0.0
  0
LINE
  5
38714
330
1D
100
AcDbEntity
  8
0
100
AcDbLine
 10
-10660.44025613672
 20
-1043.788421210777
 30
0.0
 11
-10948.67513353672
 21
-1043.788438390778
 31
0.0
  0
LINE
  5
38715
330
1D
100
AcDbEntity
  8
0
100
AcDbLine
 10
-10660.44025227672
 20
-1108.467803530777
 30
0.0
 11
-10660.44025613672
 21
-1043.788421210777
 31
0.0
  0
LINE
  5
38716
330
1D
100
AcDbEntity
  8
0
100
AcDbLine
 10
-10948.67513353672
 20
-1043.788438390778
 30
0.0
 11
-10948.67512967672
 21
-1108.467820710777
 31
0.0
  0
LINE
  5
38717
330
1D
100
AcDbEntity
  8
0
100
AcDbLine
 10
-10948.67512967672
 20
-1108.467820710777
 30
0.0
 11
-10660.44025227672
 21
-1108.467803530777
 31
0.0
  0
LINE
  5
38718
330
1D
100
AcDbEntity
  8
0
100
AcDbLine
 10
-6744.072350326715
 20
-1043.788187780778
 30
0.0
 11
-7032.307321566715
 21
-1043.788204960777
 31
0.0
  0
LINE
  5
38719
330
1D
100
AcDbEntity
  8
0
100
AcDbLine
 10
-6744.072346476716
 20
-1108.467570100777
 30
0.0
 11
-6744.072350326715
 21
-1043.788187780778
 31
0.0
  0
LINE
  5
3871A
330
1D
100
AcDbEntity
  8
0
100
AcDbLine
 10
-7032.307321566715
 20
-1043.788204960777
 30
0.0
 11
-7032.307317706715
 21
-1108.467587280777
 31
0.0
  0
LINE
  5
3871B
330
1D
100
AcDbEntity
  8
0
100
AcDbLine
 10
-7032.307317706715
 20
-1108.467587280777
 30
0.0
 11
-6744.072346476716
 21
-1108.467570100777
 31
0.0
  0
LINE
  5
3871C
330
1D
100
AcDbEntity
  8
0
100
AcDbLine
 10
-7032.307317706714
 20
-1108.467587280777
 30
0.0
 11
-6744.072346476716
 21
-1108.467570100776
 31
0.0
  0
LINE
  5
3871D
330
1D
100
AcDbEntity
  8
0
100
AcDbLine
 10
-7032.307321566715
 20
-1043.788204960776
 30
0.0
 11
-7032.307317706714
 21
-1108.467587280777
 31
0.0
  0
LINE
  5
3871E
330
1D
100
AcDbEntity
  8
0
100
AcDbLine
 10
-6744.072346476716
 20
-1108.467570100776
 30
0.0
 11
-6744.072350326715
 21
-1043.788187780778
 31
0.0
  0
LINE
  5
3871F
330
1D
100
AcDbEntity
  8
0
100
AcDbLine
 10
-6744.072350326715
 20
-1043.788187780778
 30
0.0
 11
-7032.307321566715
 21
-1043.788204960776
 31
0.0
  0
LINE
  5
38720
330
1D
100
AcDbEntity
  8
0
100
AcDbLine
 10
-10660.44025613672
 20
-1043.788421210777
 30
0.0
 11
-10948.67513353672
 21
-1043.788438390778
 31
0.0
  0
LINE
  5
38721
330
1D
100
AcDbEntity
  8
0
100
AcDbLine
 10
-10660.44025227672
 20
-1108.467803530777
 30
0.0
 11
-10660.44025613672
 21
-1043.788421210777
 31
0.0
  0
LINE
  5
38722
330
1D
100
AcDbEntity
  8
0
100
AcDbLine
 10
-10948.67513353672
 20
-1043.788438390778
 30
0.0
 11
-10948.67512967672
 21
-1108.467820710777
 31
0.0
  0
LINE
  5
38723
330
1D
100
AcDbEntity
  8
0
100
AcDbLine
 10
-10948.67512967672
 20
-1108.467820710777
 30
0.0
 11
-10660.44025227672
 21
-1108.467803530777
 31
0.0
  0
LINE
  5
38724
330
1D
100
AcDbEntity
  8
0
100
AcDbLine
 10
-11028.50933860672
 20
-489.6044473807769
 30
0.0
 11
-11028.50933681671
 21
-519.604447380777
 31
0.0
  0
LINE
  5
38725
330
1D
100
AcDbEntity
  8
0
100
AcDbLine
 10
-10998.50933860672
 20
-489.6044455907777
 30
0.0
 11
-11028.50933860672
 21
-489.6044473807769
 31
0.0
  0
LINE
  5
38726
330
1D
100
AcDbEntity
  8
0
100
AcDbLine
 10
-11028.50933681671
 20
-519.604447380777
 30
0.0
 11
-10998.50933681671
 21
-519.6044455907777
 31
0.0
  0
LINE
  5
38727
330
1D
100
AcDbEntity
  8
0
100
AcDbLine
 10
-10998.50933681671
 20
-519.6044455907777
 30
0.0
 11
-10998.50933860672
 21
-489.6044455907777
 31
0.0
  0
LINE
  5
38728
330
1D
100
AcDbEntity
  8
0
100
AcDbLine
 10
-11028.50938927671
 20
360.3955526192231
 30
0.0
 11
-11028.50938748672
 21
330.3955526192231
 31
0.0
  0
LINE
  5
38729
330
1D
100
AcDbEntity
  8
0
100
AcDbLine
 10
-10998.50938927671
 20
360.3955544092223
 30
0.0
 11
-11028.50938927671
 21
360.3955526192231
 31
0.0
  0
LINE
  5
3872A
330
1D
100
AcDbEntity
  8
0
100
AcDbLine
 10
-11028.50938748672
 20
330.3955526192231
 30
0.0
 11
-10998.50938748672
 21
330.3955544092223
 31
0.0
  0
LINE
  5
3872B
330
1D
100
AcDbEntity
  8
0
100
AcDbLine
 10
-10998.50938748672
 20
330.3955544092223
 30
0.0
 11
-10998.50938927671
 21
360.3955544092223
 31
0.0
  0
LINE
  5
3872C
330
1D
100
AcDbEntity
  8
0
100
AcDbLine
 10
-11028.50943993672
 20
1210.395552619222
 30
0.0
 11
-11028.50943814672
 21
1180.395552619222
 31
0.0
  0
LINE
  5
3872D
330
1D
100
AcDbEntity
  8
0
100
AcDbLine
 10
-10998.50943993672
 20
1210.395554409222
 30
0.0
 11
-11028.50943993672
 21
1210.395552619222
 31
0.0
  0
LINE
  5
3872E
330
1D
100
AcDbEntity
  8
0
100
AcDbLine
 10
-11028.50943814672
 20
1180.395552619222
 30
0.0
 11
-10998.50943814672
 21
1180.395554409222
 31
0.0
  0
LINE
  5
3872F
330
1D
100
AcDbEntity
  8
0
100
AcDbLine
 10
-10998.50943814672
 20
1180.395554409222
 30
0.0
 11
-10998.50943993672
 21
1210.395554409222
 31
0.0
  0
LINE
  5
38730
330
1D
100
AcDbEntity
  8
0
100
AcDbLine
 10
-11028.50949059671
 20
2060.395552619222
 30
0.0
 11
-11028.50948881672
 21
2030.395552619222
 31
0.0
  0
LINE
  5
38731
330
1D
100
AcDbEntity
  8
0
100
AcDbLine
 10
-10998.50949059671
 20
2060.395554409222
 30
0.0
 11
-11028.50949059671
 21
2060.395552619222
 31
0.0
  0
LINE
  5
38732
330
1D
100
AcDbEntity
  8
0
100
AcDbLine
 10
-11028.50948881672
 20
2030.395552619222
 30
0.0
 11
-10998.50948881672
 21
2030.395554409222
 31
0.0
  0
LINE
  5
38733
330
1D
100
AcDbEntity
  8
0
100
AcDbLine
 10
-10998.50948881672
 20
2030.395554409222
 30
0.0
 11
-10998.50949059671
 21
2060.395554409222
 31
0.0
  0
LINE
  5
38734
330
1D
100
AcDbEntity
  8
0
100
AcDbLine
 10
-6692.509338606716
 20
-489.6041889307771
 30
0.0
 11
-6692.509336816715
 21
-519.6041889307771
 31
0.0
  0
LINE
  5
38735
330
1D
100
AcDbEntity
  8
0
100
AcDbLine
 10
-6662.509338606716
 20
-489.6041871507769
 30
0.0
 11
-6692.509338606716
 21
-489.6041889307771
 31
0.0
  0
LINE
  5
38736
330
1D
100
AcDbEntity
  8
0
100
AcDbLine
 10
-6692.509336816715
 20
-519.6041889307771
 30
0.0
 11
-6662.509336816715
 21
-519.6041871507769
 31
0.0
  0
LINE
  5
38737
330
1D
100
AcDbEntity
  8
0
100
AcDbLine
 10
-6662.509336816715
 20
-519.6041871507769
 30
0.0
 11
-6662.509338606716
 21
-489.6041871507769
 31
0.0
  0
LINE
  5
38738
330
1D
100
AcDbEntity
  8
0
100
AcDbLine
 10
-6692.509389276715
 20
360.3958110692229
 30
0.0
 11
-6692.509387486716
 21
330.3958110692229
 31
0.0
  0
LINE
  5
38739
330
1D
100
AcDbEntity
  8
0
100
AcDbLine
 10
-6662.509389276715
 20
360.3958128492231
 30
0.0
 11
-6692.509389276715
 21
360.3958110692229
 31
0.0
  0
LINE
  5
3873A
330
1D
100
AcDbEntity
  8
0
100
AcDbLine
 10
-6692.509387486716
 20
330.3958110692229
 30
0.0
 11
-6662.509387486716
 21
330.3958128492231
 31
0.0
  0
LINE
  5
3873B
330
1D
100
AcDbEntity
  8
0
100
AcDbLine
 10
-6662.509387486716
 20
330.3958128492231
 30
0.0
 11
-6662.509389276715
 21
360.3958128492231
 31
0.0
  0
LINE
  5
3873C
330
1D
100
AcDbEntity
  8
0
100
AcDbLine
 10
-6692.509439936715
 20
1210.395811069222
 30
0.0
 11
-6692.509438146715
 21
1180.395811069222
 31
0.0
  0
LINE
  5
3873D
330
1D
100
AcDbEntity
  8
0
100
AcDbLine
 10
-6662.509439936715
 20
1210.395812849223
 30
0.0
 11
-6692.509439936715
 21
1210.395811069222
 31
0.0
  0
LINE
  5
3873E
330
1D
100
AcDbEntity
  8
0
100
AcDbLine
 10
-6692.509438146715
 20
1180.395811069222
 30
0.0
 11
-6662.509438146715
 21
1180.395812849223
 31
0.0
  0
LINE
  5
3873F
330
1D
100
AcDbEntity
  8
0
100
AcDbLine
 10
-6662.509438146715
 20
1180.395812849223
 30
0.0
 11
-6662.509439936715
 21
1210.395812849223
 31
0.0
  0
LINE
  5
38740
330
1D
100
AcDbEntity
  8
0
100
AcDbLine
 10
-6692.509490596714
 20
2060.395811069222
 30
0.0
 11
-6692.509488816715
 21
2030.395811069222
 31
0.0
  0
LINE
  5
38741
330
1D
100
AcDbEntity
  8
0
100
AcDbLine
 10
-6662.509490596714
 20
2060.395812849223
 30
0.0
 11
-6692.509490596714
 21
2060.395811069222
 31
0.0
  0
LINE
  5
38742
330
1D
100
AcDbEntity
  8
0
100
AcDbLine
 10
-6692.509488816715
 20
2030.395811069222
 30
0.0
 11
-6662.509488816715
 21
2030.395812849223
 31
0.0
  0
LINE
  5
38743
330
1D
100
AcDbEntity
  8
0
100
AcDbLine
 10
-6662.509488816715
 20
2030.395812849223
 30
0.0
 11
-6662.509490596714
 21
2060.395812849223
 31
0.0
  0
LINE
  5
38744
330
1D
100
AcDbEntity
  8
0
100
AcDbLine
 10
-10937.64033123671
 20
2208.017600359222
 30
0.0
 11
-10961.42129384672
 21
2189.729193729223
 31
0.0
  0
LINE
  5
38745
330
1D
100
AcDbEntity
  8
0
100
AcDbLine
 10
-10919.35192459671
 20
2184.236637749224
 30
0.0
 11
-10937.64033123671
 21
2208.017600359222
 31
0.0
  0
LINE
  5
38746
330
1D
100
AcDbEntity
  8
0
100
AcDbLine
 10
-10961.42129384672
 20
2189.729193729223
 30
0.0
 11
-10943.13288721671
 21
2165.948231119222
 31
0.0
  0
LINE
  5
38747
330
1D
100
AcDbEntity
  8
0
100
AcDbLine
 10
-10943.13288721671
 20
2165.948231119222
 30
0.0
 11
-10919.35192459671
 21
2184.236637749224
 31
0.0
  0
LINE
  5
38748
330
1D
100
AcDbEntity
  8
0
100
AcDbLine
 10
-10263.84639050671
 20
2726.189121659223
 30
0.0
 11
-10287.62735311672
 21
2707.900714959223
 31
0.0
  0
LINE
  5
38749
330
1D
100
AcDbEntity
  8
0
100
AcDbLine
 10
-10245.55798387672
 20
2702.408158959222
 30
0.0
 11
-10263.84639050671
 21
2726.189121659223
 31
0.0
  0
LINE
  5
3874A
330
1D
100
AcDbEntity
  8
0
100
AcDbLine
 10
-10287.62735311672
 20
2707.900714959223
 30
0.0
 11
-10269.33894648671
 21
2684.119752359224
 31
0.0
  0
LINE
  5
3874B
330
1D
100
AcDbEntity
  8
0
100
AcDbLine
 10
-10269.33894648671
 20
2684.119752359224
 30
0.0
 11
-10245.55798387672
 21
2702.408158959222
 31
0.0
  0
LINE
  5
3874C
330
1D
100
AcDbEntity
  8
0
100
AcDbLine
 10
-9590.052449777715
 20
3244.360642859223
 30
0.0
 11
-9613.833412391716
 21
3226.072236259222
 31
0.0
  0
LINE
  5
3874D
330
1D
100
AcDbEntity
  8
0
100
AcDbLine
 10
-9571.764043144714
 20
3220.579680259223
 30
0.0
 11
-9590.052449777715
 21
3244.360642859223
 31
0.0
  0
LINE
  5
3874E
330
1D
100
AcDbEntity
  8
0
100
AcDbLine
 10
-9613.833412391716
 20
3226.072236259222
 30
0.0
 11
-9595.545005758715
 21
3202.291273659222
 31
0.0
  0
LINE
  5
3874F
330
1D
100
AcDbEntity
  8
0
100
AcDbLine
 10
-9595.545005758715
 20
3202.291273659222
 30
0.0
 11
-9571.764043144714
 21
3220.579680259223
 31
0.0
  0
LINE
  5
38750
330
1D
100
AcDbEntity
  8
0
100
AcDbLine
 10
-8916.258509049214
 20
3762.532164159224
 30
0.0
 11
-8940.039471663214
 21
3744.243757459222
 31
0.0
  0
LINE
  5
38751
330
1D
100
AcDbEntity
  8
0
100
AcDbLine
 10
-8897.970102416815
 20
3738.751201459223
 30
0.0
 11
-8916.258509049214
 21
3762.532164159224
 31
0.0
  0
LINE
  5
38752
330
1D
100
AcDbEntity
  8
0
100
AcDbLine
 10
-8940.039471663214
 20
3744.243757459222
 30
0.0
 11
-8921.751065030714
 21
3720.462794859222
 31
0.0
  0
LINE
  5
38753
330
1D
100
AcDbEntity
  8
0
100
AcDbLine
 10
-8921.751065030714
 20
3720.462794859222
 30
0.0
 11
-8897.970102416815
 21
3738.751201459223
 31
0.0
  0
LINE
  5
38754
330
1D
100
AcDbEntity
  8
0
100
AcDbLine
 10
-6771.727762196715
 20
2184.235192579223
 30
0.0
 11
-6747.946812326715
 21
2165.946769369222
 31
0.0
  0
LINE
  5
38755
330
1D
100
AcDbEntity
  8
0
100
AcDbLine
 10
-6753.439338996715
 20
2208.016142449223
 30
0.0
 11
-6771.727762196715
 21
2184.235192579223
 31
0.0
  0
LINE
  5
38756
330
1D
100
AcDbEntity
  8
0
100
AcDbLine
 10
-6747.946812326715
 20
2165.946769369222
 30
0.0
 11
-6729.658389126715
 21
2189.727719239223
 31
0.0
  0
LINE
  5
38757
330
1D
100
AcDbEntity
  8
0
100
AcDbLine
 10
-6729.658389126715
 20
2189.727719239223
 30
0.0
 11
-6753.439338996715
 21
2208.016142449223
 31
0.0
  0
LINE
  5
38758
330
1D
100
AcDbEntity
  8
0
100
AcDbLine
 10
-7445.521341826715
 20
2702.407183359222
 30
0.0
 11
-7421.740391956715
 21
2684.118760159223
 31
0.0
  0
LINE
  5
38759
330
1D
100
AcDbEntity
  8
0
100
AcDbLine
 10
-7427.232918616715
 20
2726.188133259222
 30
0.0
 11
-7445.521341826715
 21
2702.407183359222
 31
0.0
  0
LINE
  5
3875A
330
1D
100
AcDbEntity
  8
0
100
AcDbLine
 10
-7421.740391956715
 20
2684.118760159223
 30
0.0
 11
-7403.451968756715
 21
2707.899710059222
 31
0.0
  0
LINE
  5
3875B
330
1D
100
AcDbEntity
  8
0
100
AcDbLine
 10
-7403.451968756715
 20
2707.899710059222
 30
0.0
 11
-7427.232918616715
 21
2726.188133259222
 31
0.0
  0
LINE
  5
3875C
330
1D
100
AcDbEntity
  8
0
100
AcDbLine
 10
-8119.314921454715
 20
3220.579174159222
 30
0.0
 11
-8095.533971585715
 21
3202.290750959222
 31
0.0
  0
LINE
  5
3875D
330
1D
100
AcDbEntity
  8
0
100
AcDbLine
 10
-8101.026498250715
 20
3244.360124059223
 30
0.0
 11
-8119.314921454715
 21
3220.579174159222
 31
0.0
  0
LINE
  5
3875E
330
1D
100
AcDbEntity
  8
0
100
AcDbLine
 10
-8095.533971585715
 20
3202.290750959222
 30
0.0
 11
-8077.245548380715
 21
3226.071700859222
 31
0.0
  0
LINE
  5
3875F
330
1D
100
AcDbEntity
  8
0
100
AcDbLine
 10
-8077.245548380715
 20
3226.071700859222
 30
0.0
 11
-8101.026498250715
 21
3244.360124059223
 31
0.0
  0
LINE
  5
38760
330
1D
100
AcDbEntity
  8
0
100
AcDbLine
 10
-8793.108501083814
 20
3738.751164959223
 30
0.0
 11
-8769.327551214516
 21
3720.462741759222
 31
0.0
  0
LINE
  5
38761
330
1D
100
AcDbEntity
  8
0
100
AcDbLine
 10
-8774.820077879014
 20
3762.532114859223
 30
0.0
 11
-8793.108501083814
 21
3738.751164959223
 31
0.0
  0
LINE
  5
38762
330
1D
100
AcDbEntity
  8
0
100
AcDbLine
 10
-8769.327551214516
 20
3720.462741759222
 30
0.0
 11
-8751.039128009816
 21
3744.243691659223
 31
0.0
  0
LINE
  5
38763
330
1D
100
AcDbEntity
  8
0
100
AcDbLine
 10
-8751.039128009816
 20
3744.243691659223
 30
0.0
 11
-8774.820077879014
 21
3762.532114859223
 31
0.0
  0
LINE
  5
38764
330
1D
100
AcDbEntity
  8
0
100
AcDbLine
 10
-10827.49810927672
 20
-470.5749916607774
 30
0.0
 11
-10827.49809854672
 21
-650.5749916607774
 31
0.0
  0
LINE
  5
38765
330
1D
100
AcDbEntity
  8
0
100
AcDbLine
 10
-10767.49810927672
 20
-470.5749880807771
 30
0.0
 11
-10827.49810927672
 21
-470.5749916607774
 31
0.0
  0
LINE
  5
38766
330
1D
100
AcDbEntity
  8
0
100
AcDbLine
 10
-10827.49809854672
 20
-650.5749916607774
 30
0.0
 11
-10767.49809854672
 21
-650.5749880807771
 31
0.0
  0
LINE
  5
38767
330
1D
100
AcDbEntity
  8
0
100
AcDbLine
 10
-10767.49809854672
 20
-650.5749880807771
 30
0.0
 11
-10767.49810927672
 21
-470.5749880807771
 31
0.0
  0
LINE
  5
38768
330
1D
100
AcDbEntity
  8
0
100
AcDbLine
 10
-6926.122132716715
 20
-470.5747591207764
 30
0.0
 11
-6926.122121986715
 21
-650.5747591207764
 31
0.0
  0
LINE
  5
38769
330
1D
100
AcDbEntity
  8
0
100
AcDbLine
 10
-6866.122132716715
 20
-470.5747555407761
 30
0.0
 11
-6926.122132716715
 21
-470.5747591207764
 31
0.0
  0
LINE
  5
3876A
330
1D
100
AcDbEntity
  8
0
100
AcDbLine
 10
-6926.122121986715
 20
-650.5747591207764
 30
0.0
 11
-6866.122121986715
 21
-650.5747555407761
 31
0.0
  0
LINE
  5
3876B
330
1D
100
AcDbEntity
  8
0
100
AcDbLine
 10
-6866.122121986715
 20
-650.5747555407761
 30
0.0
 11
-6866.122132716715
 21
-470.5747555407761
 31
0.0
  0
LINE
  5
3876C
330
1D
100
AcDbEntity
  8
0
100
AcDbLine
 10
-11054.59513342672
 20
-603.8704458707771
 30
0.0
 11
-11054.59529361672
 21
2083.704902029223
 31
0.0
  0
LINE
  5
3876D
330
1D
100
AcDbEntity
  8
0
100
AcDbLine
 10
-8919.891359343816
 20
3793.546038559223
 30
0.0
 11
-8986.516709176714
 21
3742.271057959222
 31
0.0
  0
LINE
  5
3876E
330
1D
100
AcDbEntity
  8
0
100
AcDbLine
 10
-8986.516709176714
 20
3742.271057959222
 30
0.0
 11
-11132.41334540672
 21
2090.785408649223
 31
0.0
  0
LINE
  5
3876F
330
1D
100
AcDbEntity
  8
0
100
AcDbLine
 10
-8773.965427569115
 20
3794.844860259223
 30
0.0
 11
-8707.334941236715
 21
3743.576555659223
 31
0.0
  0
LINE
  5
38770
330
1D
100
AcDbEntity
  8
0
100
AcDbLine
 10
-8707.334941236715
 20
3743.576555659223
 30
0.0
 11
-6561.272851726715
 21
2092.306403219223
 31
0.0
  0
LINE
  5
38771
330
1D
100
AcDbEntity
  8
0
100
AcDbLine
 10
-6658.408609986715
 20
-603.870183830777
 30
0.0
 11
-6658.408770176715
 21
2083.705164069223
 31
0.0
  0
LINE
  5
38772
330
1D
100
AcDbEntity
  8
0
100
AcDbLine
 10
-8790.463833058815
 20
3846.154543759223
 30
0.0
 11
-8788.394048737215
 21
3844.561959159222
 31
0.0
  0
LINE
  5
38773
330
1D
100
AcDbEntity
  8
0
100
AcDbLine
 10
-8790.788430063214
 20
3846.384315959223
 30
0.0
 11
-8790.463833058815
 21
3846.154543759223
 31
0.0
  0
LINE
  5
38774
330
1D
100
AcDbEntity
  8
0
100
AcDbLine
 10
-8788.394048737215
 20
3844.561959159222
 30
0.0
 11
-8721.729577206715
 21
3793.267814359222
 31
0.0
  0
LINE
  5
38775
330
1D
100
AcDbEntity
  8
0
100
AcDbLine
 10
-8800.723058556514
 20
3853.442517559222
 30
0.0
 11
-8790.788430063214
 21
3846.384315959223
 31
0.0
  0
LINE
  5
38776
330
1D
100
AcDbEntity
  8
0
100
AcDbLine
 10
-8801.077529019014
 20
3853.622827059222
 30
0.0
 11
-8800.723058556514
 21
3853.442517559222
 31
0.0
  0
LINE
  5
38777
330
1D
100
AcDbEntity
  8
0
100
AcDbLine
 10
-8811.930121212914
 20
3859.165579859222
 30
0.0
 11
-8801.077529019014
 21
3853.622827059222
 31
0.0
  0
LINE
  5
38778
330
1D
100
AcDbEntity
  8
0
100
AcDbLine
 10
-8812.306980513715
 20
3859.292603759222
 30
0.0
 11
-8811.930121212914
 21
3859.165579859222
 31
0.0
  0
LINE
  5
38779
330
1D
100
AcDbEntity
  8
0
100
AcDbLine
 10
-8823.848378438015
 20
3863.204828559223
 30
0.0
 11
-8812.306980513715
 21
3859.292603759222
 31
0.0
  0
LINE
  5
3877A
330
1D
100
AcDbEntity
  8
0
100
AcDbLine
 10
-8824.239668399914
 20
3863.275890759223
 30
0.0
 11
-8823.848378438015
 21
3863.204828559223
 31
0.0
  0
LINE
  5
3877B
330
1D
100
AcDbEntity
  8
0
100
AcDbLine
 10
-8836.226150646715
 20
3865.473290559223
 30
0.0
 11
-8824.239668399914
 21
3863.275890759223
 31
0.0
  0
LINE
  5
3877C
330
1D
100
AcDbEntity
  8
0
100
AcDbLine
 10
-8836.623609573615
 20
3865.486891359224
 30
0.0
 11
-8836.226150646715
 21
3865.473290559223
 31
0.0
  0
LINE
  5
3877D
330
1D
100
AcDbEntity
  8
0
100
AcDbLine
 10
-8848.802063654395
 20
3865.924476459222
 30
0.0
 11
-8836.623609573615
 21
3865.486891359224
 31
0.0
  0
LINE
  5
3877E
330
1D
100
AcDbEntity
  8
0
100
AcDbLine
 10
-8849.197297173894
 20
3865.880336359223
 30
0.0
 11
-8848.802063654395
 21
3865.924476459222
 31
0.0
  0
LINE
  5
3877F
330
1D
100
AcDbEntity
  8
0
100
AcDbLine
 10
-8861.310548193314
 20
3864.548161559223
 30
0.0
 11
-8849.197297173894
 21
3865.880336359223
 31
0.0
  0
LINE
  5
38780
330
1D
100
AcDbEntity
  8
0
100
AcDbLine
 10
-8861.695211270215
 20
3864.447192259222
 30
0.0
 11
-8861.310548193314
 21
3864.548161559223
 31
0.0
  0
LINE
  5
38781
330
1D
100
AcDbEntity
  8
0
100
AcDbLine
 10
-8873.487453270815
 20
3861.372725159223
 30
0.0
 11
-8861.695211270215
 21
3864.447192259222
 31
0.0
  0
LINE
  5
38782
330
1D
100
AcDbEntity
  8
0
100
AcDbLine
 10
-8873.853421940115
 20
3861.217088059222
 30
0.0
 11
-8873.487453270815
 21
3861.372725159223
 31
0.0
  0
LINE
  5
38783
330
1D
100
AcDbEntity
  8
0
100
AcDbLine
 10
-8885.075670520615
 20
3856.466629459223
 30
0.0
 11
-8873.853421940115
 21
3861.217088059222
 31
0.0
  0
LINE
  5
38784
330
1D
100
AcDbEntity
  8
0
100
AcDbLine
 10
-8885.415218703314
 20
3856.259588859222
 30
0.0
 11
-8885.075670520615
 21
3856.466629459223
 31
0.0
  0
LINE
  5
38785
330
1D
100
AcDbEntity
  8
0
100
AcDbLine
 10
-8895.830490774615
 20
3849.933063659222
 30
0.0
 11
-8885.415218703314
 21
3856.259588859222
 31
0.0
  0
LINE
  5
38786
330
1D
100
AcDbEntity
  8
0
100
AcDbLine
 10
-8897.735858075916
 20
3848.486205659223
 30
0.0
 11
-8895.830490774615
 21
3849.933063659222
 31
0.0
  0
LINE
  5
38787
330
1D
100
AcDbEntity
  8
0
100
AcDbLine
 10
-8959.104737136715
 20
3801.885208259222
 30
0.0
 11
-8897.735858075916
 21
3848.486205659223
 31
0.0
  0
LINE
  5
38788
330
1D
100
AcDbEntity
  8
0
100
AcDbLine
 10
-6752.567930566714
 20
-519.6037568207748
 30
0.0
 11
-6752.568086356715
 21
2094.038410399222
 31
0.0
  0
LINE
  5
38789
330
1D
100
AcDbEntity
  8
0
100
AcDbLine
 10
-10938.51031338672
 20
-519.6040063307773
 30
0.0
 11
-10827.49810635404
 21
-519.6039997137113
 31
0.0
  0
LINE
  5
3878A
330
1D
100
AcDbEntity
  8
0
100
AcDbLine
 10
-6752.568086356715
 20
2094.038410399222
 30
0.0
 11
-8845.539328435505
 21
3704.189164559222
 31
0.0
  0
LINE
  5
3878B
330
1D
100
AcDbEntity
  8
0
100
AcDbLine
 10
-10938.51046917672
 20
2094.038160899223
 30
0.0
 11
-10938.51031338672
 21
-519.6040063307773
 31
0.0
  0
LINE
  5
3878C
330
1D
100
AcDbEntity
  8
0
100
AcDbLine
 10
-8845.539328435505
 20
3704.189164559222
 30
0.0
 11
-10938.51046917672
 21
2094.038160899223
 31
0.0
  0
LINE
  5
3878E
330
1D
100
AcDbEntity
  8
0
100
AcDbLine
 10
-7038.566246896715
 20
1952.946108209222
 30
0.0
 11
-8845.539306902447
 21
3342.924271959224
 31
0.0
  0
LINE
  5
38790
330
1D
100
AcDbEntity
  8
0
100
AcDbLine
 10
-10652.51216148671
 20
-233.6082759007777
 30
0.0
 11
-7038.566116566716
 21
-233.6080605007773
 31
0.0
  0
LINE
  5
38792
330
1D
100
AcDbEntity
  8
0
100
AcDbLine
 10
-10767.49810635404
 20
-519.6039961373126
 30
0.0
 11
-6926.122129794043
 21
-519.6037671657614
 31
0.0
  0
LINE
  5
38793
330
1D
100
AcDbEntity
  8
0
100
AcDbLine
 10
-6866.122129794043
 20
-519.6037635893626
 30
0.0
 11
-6752.567930566715
 21
-519.6037568207748
 31
0.0
  0
LINE
  5
387A0
330
1D
100
AcDbEntity
  8
0
100
AcDbLine
 10
-9752.512333081826
 20
2645.253134982891
 30
0.0
 11
-9752.512161486717
 21
-233.6082222585819
 31
0.0
  0
LINE
  5
387A2
330
1D
100
AcDbEntity
  8
0
100
AcDbLine
 10
-10652.51228665764
 20
1866.391724099218
 30
0.0
 11
-9752.512286657638
 21
1866.391777741414
 31
0.0
  0
LINE
  5
387A3
330
1D
100
AcDbEntity
  8
0
100
AcDbLine
 10
-9692.512335832833
 20
2691.406951128469
 30
0.0
 11
-9692.512161486717
 21
-233.6082186824356
 31
0.0
  0
LINE
  5
387A4
330
1D
100
AcDbEntity
  8
0
100
AcDbLine
 10
-10652.51229023395
 20
1926.391724099218
 30
0.0
 11
-9752.51229023395
 21
1926.391777741414
 31
0.0
  0
LINE
  5
387AE
330
1D
100
AcDbEntity
  8
0
100
AcDbLine
 10
-8238.566116566713
 20
-233.6081320237045
 30
0.0
 11
-8238.566241737635
 21
1866.391867976291
 31
0.0
  0
LINE
  5
387AF
330
1D
100
AcDbEntity
  8
0
100
AcDbLine
 10
-8298.566116566713
 20
-233.6081355998509
 30
0.0
 11
-8298.566241737635
 21
1866.391864400146
 31
0.0
  0
LINE
  5
387B0
330
1D
100
AcDbEntity
  8
0
100
AcDbLine
 10
-9498.566116566712
 20
-233.6082071227782
 30
0.0
 11
-9498.566241737633
 21
1866.391792877218
 31
0.0
  0
LINE
  5
387B1
330
1D
100
AcDbEntity
  8
0
100
AcDbLine
 10
-9558.566116566712
 20
-233.6082106989247
 30
0.0
 11
-9558.566241737633
 21
1866.391789301071
 31
0.0
  0
LINE
  5
387B2
330
1D
100
AcDbEntity
  8
0
100
AcDbLine
 10
-9498.566182132432
 20
866.3917928772198
 30
0.0
 11
-8298.566182132434
 21
866.3918644001473
 31
0.0
  0
LINE
  5
387B3
330
1D
100
AcDbEntity
  8
0
100
AcDbLine
 10
-9498.56617855612
 20
806.3917928772199
 30
0.0
 11
-8298.566178556122
 21
806.3918644001474
 31
0.0
  0
LINE
  5
387B4
330
1D
100
AcDbEntity
  8
0
100
AcDbLine
 10
-7938.566280723056
 20
2645.253272096274
 30
0.0
 11
-7938.566323570933
 21
1926.391885857019
 31
0.0
  0
LINE
  5
387B5
330
1D
100
AcDbEntity
  8
0
100
AcDbLine
 10
-7998.566277972049
 20
2691.407079171238
 30
0.0
 11
-7998.566323570933
 21
1926.391882280873
 31
0.0
  0
LINE
  5
387B9
330
1D
100
AcDbEntity
  8
0
100
AcDbLine
 10
-8875.539306264996
 20
3319.847363318702
 30
0.0
 11
-8875.5392677739
 21
1926.391830970536
 31
0.0
  0
LINE
  5
387BA
330
1D
100
AcDbEntity
  8
0
100
AcDbLine
 10
-8815.539306264996
 20
3319.847366873318
 30
0.0
 11
-8815.5392677739
 21
1926.391832627902
 31
0.0
  0
LINE
  5
387BE
330
1D
100
AcDbEntity
  8
0
100
AcDbLine
 10
-10652.51229181672
 20
1952.945892799218
 30
0.0
 11
-10652.51216148671
 21
-233.6082759007778
 31
0.0
  0
LINE
  5
387C2
330
1D
100
AcDbEntity
  8
0
100
AcDbLine
 10
-9692.51229023395
 20
1926.391781317561
 30
0.0
 11
-7038.566245313948
 21
1926.391939499219
 31
0.0
  0
LINE
  5
387C3
330
1D
100
AcDbEntity
  8
0
100
AcDbLine
 10
-9692.512286657638
 20
1866.391781317561
 30
0.0
 11
-7038.566241737635
 21
1866.391939499219
 31
0.0
  0
LINE
  5
387C4
330
1D
100
AcDbEntity
  8
0
100
AcDbLine
 10
-8845.539306902447
 20
3342.924271959224
 30
0.0
 11
-10652.51229181672
 21
1952.945892799218
 31
0.0
  0
LINE
  5
387C5
330
1D
100
AcDbEntity
  8
0
100
AcDbLine
 10
-7038.566116566716
 20
-233.6080605007773
 30
0.0
 11
-7038.566246896715
 21
1952.946108209222
 31
0.0
  0
LINE
  5
38A33
330
1D
100
AcDbEntity
  8
0
100
AcDbLine
 10
-3296.580995924589
 20
-842.2852826707773
 30
0.0
 11
-4530.190536694989
 21
-842.2852826707772
 31
0.0
  0
LINE
  5
38A34
330
1D
100
AcDbEntity
  8
0
100
AcDbLine
 10
614.3139015354191
 20
-842.2852826707775
 30
0.0
 11
-3106.580995924609
 21
-842.2852826707773
 31
0.0
  0
LINE
  5
38A35
330
1D
100
AcDbEntity
  8
0
100
AcDbLine
 10
2120.168909241901
 20
-842.2852826707775
 30
0.0
 11
814.2337704514721
 21
-842.2852826707775
 31
0.0
  0
LINE
  5
38A36
330
1D
100
AcDbEntity
  8
0
100
AcDbLine
 10
804.3138901114762
 20
-650.575361950775
 30
0.0
 11
804.3139133514742
 21
-1040.575361950775
 31
0.0
  0
LINE
  5
38A37
330
1D
100
AcDbEntity
  8
0
100
AcDbLine
 10
804.3138901114762
 20
-650.575361950775
 30
0.0
 11
614.3138901114762
 21
-650.5753732807771
 31
0.0
  0
LINE
  5
38A38
330
1D
100
AcDbEntity
  8
0
100
AcDbLine
 10
804.3139133514742
 20
-1040.575361950775
 30
0.0
 11
614.3139133514742
 21
-1040.575373280778
 31
0.0
  0
LINE
  5
38A39
330
1D
100
AcDbEntity
  8
0
100
AcDbLine
 10
614.3138901114762
 20
-650.5753732807771
 30
0.0
 11
614.3139133514742
 21
-1040.575373280778
 31
0.0
  0
LINE
  5
38A3A
330
1D
100
AcDbEntity
  8
0
100
AcDbLine
 10
-3296.580984108525
 20
-1040.575606390778
 30
0.0
 11
-3296.581007348525
 21
-650.5756063907781
 31
0.0
  0
LINE
  5
38A3B
330
1D
100
AcDbEntity
  8
0
100
AcDbLine
 10
-3106.580984108525
 20
-1040.575595060778
 30
0.0
 11
-3296.580984108525
 21
-1040.575606390778
 31
0.0
  0
LINE
  5
38A3C
330
1D
100
AcDbEntity
  8
0
100
AcDbLine
 10
-3106.581007348525
 20
-650.5755950607781
 30
0.0
 11
-3296.581007348525
 21
-650.5756063907781
 31
0.0
  0
LINE
  5
38A3D
330
1D
100
AcDbEntity
  8
0
100
AcDbLine
 10
-3106.580984108525
 20
-1040.575595060778
 30
0.0
 11
-3106.581007348525
 21
-650.5755950607781
 31
0.0
  0
LINE
  5
38A3E
330
1D
100
AcDbEntity
  8
0
100
AcDbLine
 10
-3056.074678618525
 20
-1043.788421210778
 30
0.0
 11
-3344.309556018525
 21
-1043.788438390778
 31
0.0
  0
LINE
  5
38A3F
330
1D
100
AcDbEntity
  8
0
100
AcDbLine
 10
-3056.074674758526
 20
-1108.467803530777
 30
0.0
 11
-3056.074678618525
 21
-1043.788421210778
 31
0.0
  0
LINE
  5
38A40
330
1D
100
AcDbEntity
  8
0
100
AcDbLine
 10
-3344.309556018525
 20
-1043.788438390778
 30
0.0
 11
-3344.309552158526
 21
-1108.467820710778
 31
0.0
  0
LINE
  5
38A41
330
1D
100
AcDbEntity
  8
0
100
AcDbLine
 10
-3344.309552158526
 20
-1108.467820710778
 30
0.0
 11
-3056.074674758526
 21
-1108.467803530777
 31
0.0
  0
LINE
  5
38A42
330
1D
100
AcDbEntity
  8
0
100
AcDbLine
 10
860.2932271914742
 20
-1043.788187780778
 30
0.0
 11
572.0582559514742
 21
-1043.788204960777
 31
0.0
  0
LINE
  5
38A43
330
1D
100
AcDbEntity
  8
0
100
AcDbLine
 10
860.293231041474
 20
-1108.467570100778
 30
0.0
 11
860.2932271914742
 21
-1043.788187780778
 31
0.0
  0
LINE
  5
38A44
330
1D
100
AcDbEntity
  8
0
100
AcDbLine
 10
572.0582559514742
 20
-1043.788204960777
 30
0.0
 11
572.0582598114752
 21
-1108.467587280778
 31
0.0
  0
LINE
  5
38A45
330
1D
100
AcDbEntity
  8
0
100
AcDbLine
 10
572.0582598114752
 20
-1108.467587280778
 30
0.0
 11
860.293231041474
 21
-1108.467570100778
 31
0.0
  0
LINE
  5
38A46
330
1D
100
AcDbEntity
  8
0
100
AcDbLine
 10
572.0582598114752
 20
-1108.467587280777
 30
0.0
 11
860.293231041474
 21
-1108.467570100777
 31
0.0
  0
LINE
  5
38A47
330
1D
100
AcDbEntity
  8
0
100
AcDbLine
 10
572.0582559514742
 20
-1043.788204960777
 30
0.0
 11
572.0582598114752
 21
-1108.467587280777
 31
0.0
  0
LINE
  5
38A48
330
1D
100
AcDbEntity
  8
0
100
AcDbLine
 10
860.293231041474
 20
-1108.467570100777
 30
0.0
 11
860.2932271914751
 21
-1043.788187780778
 31
0.0
  0
LINE
  5
38A49
330
1D
100
AcDbEntity
  8
0
100
AcDbLine
 10
860.2932271914751
 20
-1043.788187780778
 30
0.0
 11
572.0582559514742
 21
-1043.788204960777
 31
0.0
  0
LINE
  5
38A4A
330
1D
100
AcDbEntity
  8
0
100
AcDbLine
 10
-3056.074678618525
 20
-1043.788421210778
 30
0.0
 11
-3344.309556018525
 21
-1043.788438390778
 31
0.0
  0
LINE
  5
38A4B
330
1D
100
AcDbEntity
  8
0
100
AcDbLine
 10
-3056.074674758526
 20
-1108.467803530777
 30
0.0
 11
-3056.074678618525
 21
-1043.788421210778
 31
0.0
  0
LINE
  5
38A4C
330
1D
100
AcDbEntity
  8
0
100
AcDbLine
 10
-3344.309556018525
 20
-1043.788438390778
 30
0.0
 11
-3344.309552158526
 21
-1108.467820710778
 31
0.0
  0
LINE
  5
38A4D
330
1D
100
AcDbEntity
  8
0
100
AcDbLine
 10
-3344.309552158526
 20
-1108.467820710778
 30
0.0
 11
-3056.074674758526
 21
-1108.467803530777
 31
0.0
  0
LINE
  5
38A4E
330
1D
100
AcDbEntity
  8
0
100
AcDbLine
 10
-3424.143761088527
 20
-489.6044473807769
 30
0.0
 11
-3424.143759298525
 21
-519.604447380777
 31
0.0
  0
LINE
  5
38A4F
330
1D
100
AcDbEntity
  8
0
100
AcDbLine
 10
-3394.143761088526
 20
-489.6044455907781
 30
0.0
 11
-3424.143761088527
 21
-489.6044473807769
 31
0.0
  0
LINE
  5
38A50
330
1D
100
AcDbEntity
  8
0
100
AcDbLine
 10
-3424.143759298525
 20
-519.604447380777
 30
0.0
 11
-3394.143759298524
 21
-519.6044455907781
 31
0.0
  0
LINE
  5
38A51
330
1D
100
AcDbEntity
  8
0
100
AcDbLine
 10
-3394.143759298524
 20
-519.6044455907781
 30
0.0
 11
-3394.143761088526
 21
-489.6044455907781
 31
0.0
  0
LINE
  5
38A52
330
1D
100
AcDbEntity
  8
0
100
AcDbLine
 10
-3424.143811758525
 20
360.3955526192231
 30
0.0
 11
-3424.143809968526
 21
330.3955526192231
 31
0.0
  0
LINE
  5
38A53
330
1D
100
AcDbEntity
  8
0
100
AcDbLine
 10
-3394.143811758524
 20
360.3955544092219
 30
0.0
 11
-3424.143811758525
 21
360.3955526192231
 31
0.0
  0
LINE
  5
38A54
330
1D
100
AcDbEntity
  8
0
100
AcDbLine
 10
-3424.143809968526
 20
330.3955526192231
 30
0.0
 11
-3394.143809968526
 21
330.3955544092219
 31
0.0
  0
LINE
  5
38A55
330
1D
100
AcDbEntity
  8
0
100
AcDbLine
 10
-3394.143809968526
 20
330.3955544092219
 30
0.0
 11
-3394.143811758524
 21
360.3955544092219
 31
0.0
  0
LINE
  5
38A56
330
1D
100
AcDbEntity
  8
0
100
AcDbLine
 10
-3424.143862418525
 20
1210.395552619222
 30
0.0
 11
-3424.143860628525
 21
1180.395552619222
 31
0.0
  0
LINE
  5
38A57
330
1D
100
AcDbEntity
  8
0
100
AcDbLine
 10
-3394.143862418525
 20
1210.395554409222
 30
0.0
 11
-3424.143862418525
 21
1210.395552619222
 31
0.0
  0
LINE
  5
38A58
330
1D
100
AcDbEntity
  8
0
100
AcDbLine
 10
-3424.143860628525
 20
1180.395552619222
 30
0.0
 11
-3394.143860628525
 21
1180.395554409222
 31
0.0
  0
LINE
  5
38A59
330
1D
100
AcDbEntity
  8
0
100
AcDbLine
 10
-3394.143860628525
 20
1180.395554409222
 30
0.0
 11
-3394.143862418525
 21
1210.395554409222
 31
0.0
  0
LINE
  5
38A5A
330
1D
100
AcDbEntity
  8
0
100
AcDbLine
 10
-3424.143913078524
 20
2060.395552619222
 30
0.0
 11
-3424.143911298524
 21
2030.395552619222
 31
0.0
  0
LINE
  5
38A5B
330
1D
100
AcDbEntity
  8
0
100
AcDbLine
 10
-3394.143913078524
 20
2060.395554409222
 30
0.0
 11
-3424.143913078524
 21
2060.395552619222
 31
0.0
  0
LINE
  5
38A5C
330
1D
100
AcDbEntity
  8
0
100
AcDbLine
 10
-3424.143911298524
 20
2030.395552619222
 30
0.0
 11
-3394.143911298524
 21
2030.395554409222
 31
0.0
  0
LINE
  5
38A5D
330
1D
100
AcDbEntity
  8
0
100
AcDbLine
 10
-3394.143911298524
 20
2030.395554409222
 30
0.0
 11
-3394.143913078524
 21
2060.395554409222
 31
0.0
  0
LINE
  5
38A5E
330
1D
100
AcDbEntity
  8
0
100
AcDbLine
 10
911.8562389114741
 20
-489.604188930778
 30
0.0
 11
911.8562407014751
 21
-519.604188930778
 31
0.0
  0
LINE
  5
38A5F
330
1D
100
AcDbEntity
  8
0
100
AcDbLine
 10
941.8562389114741
 20
-489.6041871507771
 30
0.0
 11
911.8562389114741
 21
-489.604188930778
 31
0.0
  0
LINE
  5
38A60
330
1D
100
AcDbEntity
  8
0
100
AcDbLine
 10
911.8562407014751
 20
-519.604188930778
 30
0.0
 11
941.8562407014751
 21
-519.6041871507771
 31
0.0
  0
LINE
  5
38A61
330
1D
100
AcDbEntity
  8
0
100
AcDbLine
 10
941.8562407014751
 20
-519.6041871507771
 30
0.0
 11
941.8562389114741
 21
-489.6041871507771
 31
0.0
  0
LINE
  5
38A62
330
1D
100
AcDbEntity
  8
0
100
AcDbLine
 10
911.8561882414742
 20
360.395811069222
 30
0.0
 11
911.8561900314744
 21
330.395811069222
 31
0.0
  0
LINE
  5
38A63
330
1D
100
AcDbEntity
  8
0
100
AcDbLine
 10
941.8561882414742
 20
360.3958128492231
 30
0.0
 11
911.8561882414742
 21
360.395811069222
 31
0.0
  0
LINE
  5
38A64
330
1D
100
AcDbEntity
  8
0
100
AcDbLine
 10
911.8561900314744
 20
330.395811069222
 30
0.0
 11
941.8561900314744
 21
330.3958128492231
 31
0.0
  0
LINE
  5
38A65
330
1D
100
AcDbEntity
  8
0
100
AcDbLine
 10
941.8561900314744
 20
330.3958128492231
 30
0.0
 11
941.8561882414742
 21
360.3958128492231
 31
0.0
  0
LINE
  5
38A66
330
1D
100
AcDbEntity
  8
0
100
AcDbLine
 10
911.8561375814752
 20
1210.395811069222
 30
0.0
 11
911.8561393714754
 21
1180.395811069222
 31
0.0
  0
LINE
  5
38A67
330
1D
100
AcDbEntity
  8
0
100
AcDbLine
 10
941.8561375814752
 20
1210.395812849223
 30
0.0
 11
911.8561375814752
 21
1210.395811069222
 31
0.0
  0
LINE
  5
38A68
330
1D
100
AcDbEntity
  8
0
100
AcDbLine
 10
911.8561393714754
 20
1180.395811069222
 30
0.0
 11
941.8561393714754
 21
1180.395812849223
 31
0.0
  0
LINE
  5
38A69
330
1D
100
AcDbEntity
  8
0
100
AcDbLine
 10
941.8561393714754
 20
1180.395812849223
 30
0.0
 11
941.8561375814752
 21
1210.395812849223
 31
0.0
  0
LINE
  5
38A6A
330
1D
100
AcDbEntity
  8
0
100
AcDbLine
 10
911.8560869214762
 20
2060.395811069222
 30
0.0
 11
911.8560887014751
 21
2030.395811069222
 31
0.0
  0
LINE
  5
38A6B
330
1D
100
AcDbEntity
  8
0
100
AcDbLine
 10
941.8560869214762
 20
2060.395812849223
 30
0.0
 11
911.8560869214762
 21
2060.395811069222
 31
0.0
  0
LINE
  5
38A6C
330
1D
100
AcDbEntity
  8
0
100
AcDbLine
 10
911.8560887014751
 20
2030.395811069222
 30
0.0
 11
941.8560887014751
 21
2030.395812849223
 31
0.0
  0
LINE
  5
38A6D
330
1D
100
AcDbEntity
  8
0
100
AcDbLine
 10
941.8560887014751
 20
2030.395812849223
 30
0.0
 11
941.8560869214762
 21
2060.395812849223
 31
0.0
  0
LINE
  5
38A6E
330
1D
100
AcDbEntity
  8
0
100
AcDbLine
 10
-3333.274753718524
 20
2208.017600359222
 30
0.0
 11
-3357.055716328525
 21
2189.729193729223
 31
0.0
  0
LINE
  5
38A6F
330
1D
100
AcDbEntity
  8
0
100
AcDbLine
 10
-3314.986347078524
 20
2184.236637749223
 30
0.0
 11
-3333.274753718524
 21
2208.017600359222
 31
0.0
  0
LINE
  5
38A70
330
1D
100
AcDbEntity
  8
0
100
AcDbLine
 10
-3357.055716328525
 20
2189.729193729223
 30
0.0
 11
-3338.767309698524
 21
2165.948231119222
 31
0.0
  0
LINE
  5
38A71
330
1D
100
AcDbEntity
  8
0
100
AcDbLine
 10
-3338.767309698524
 20
2165.948231119222
 30
0.0
 11
-3314.986347078524
 21
2184.236637749223
 31
0.0
  0
LINE
  5
38A72
330
1D
100
AcDbEntity
  8
0
100
AcDbLine
 10
-2659.480812988525
 20
2726.189121659223
 30
0.0
 11
-2683.261775598525
 21
2707.900714959223
 31
0.0
  0
LINE
  5
38A73
330
1D
100
AcDbEntity
  8
0
100
AcDbLine
 10
-2641.192406358525
 20
2702.408158959222
 30
0.0
 11
-2659.480812988525
 21
2726.189121659223
 31
0.0
  0
LINE
  5
38A74
330
1D
100
AcDbEntity
  8
0
100
AcDbLine
 10
-2683.261775598525
 20
2707.900714959223
 30
0.0
 11
-2664.973368968524
 21
2684.119752359223
 31
0.0
  0
LINE
  5
38A75
330
1D
100
AcDbEntity
  8
0
100
AcDbLine
 10
-2664.973368968524
 20
2684.119752359223
 30
0.0
 11
-2641.192406358525
 21
2702.408158959222
 31
0.0
  0
LINE
  5
38A76
330
1D
100
AcDbEntity
  8
0
100
AcDbLine
 10
-1985.686872259525
 20
3244.360642859223
 30
0.0
 11
-2009.467834873526
 21
3226.072236259222
 31
0.0
  0
LINE
  5
38A77
330
1D
100
AcDbEntity
  8
0
100
AcDbLine
 10
-1967.398465626524
 20
3220.579680259223
 30
0.0
 11
-1985.686872259525
 21
3244.360642859223
 31
0.0
  0
LINE
  5
38A78
330
1D
100
AcDbEntity
  8
0
100
AcDbLine
 10
-2009.467834873526
 20
3226.072236259222
 30
0.0
 11
-1991.179428240525
 21
3202.291273659222
 31
0.0
  0
LINE
  5
38A79
330
1D
100
AcDbEntity
  8
0
100
AcDbLine
 10
-1991.179428240525
 20
3202.291273659222
 30
0.0
 11
-1967.398465626524
 21
3220.579680259223
 31
0.0
  0
LINE
  5
38A7A
330
1D
100
AcDbEntity
  8
0
100
AcDbLine
 10
-1311.892931531024
 20
3762.532164159223
 30
0.0
 11
-1335.673894145025
 21
3744.243757459222
 31
0.0
  0
LINE
  5
38A7B
330
1D
100
AcDbEntity
  8
0
100
AcDbLine
 10
-1293.604524898625
 20
3738.751201459223
 30
0.0
 11
-1311.892931531024
 21
3762.532164159223
 31
0.0
  0
LINE
  5
38A7C
330
1D
100
AcDbEntity
  8
0
100
AcDbLine
 10
-1335.673894145025
 20
3744.243757459222
 30
0.0
 11
-1317.385487512524
 21
3720.462794859222
 31
0.0
  0
LINE
  5
38A7D
330
1D
100
AcDbEntity
  8
0
100
AcDbLine
 10
-1317.385487512524
 20
3720.462794859222
 30
0.0
 11
-1293.604524898625
 21
3738.751201459223
 31
0.0
  0
LINE
  5
38A7E
330
1D
100
AcDbEntity
  8
0
100
AcDbLine
 10
832.637815321475
 20
2184.235192579222
 30
0.0
 11
856.4187651914754
 21
2165.946769369222
 31
0.0
  0
LINE
  5
38A7F
330
1D
100
AcDbEntity
  8
0
100
AcDbLine
 10
850.9262385214752
 20
2208.016142449223
 30
0.0
 11
832.637815321475
 21
2184.235192579222
 31
0.0
  0
LINE
  5
38A80
330
1D
100
AcDbEntity
  8
0
100
AcDbLine
 10
856.4187651914754
 20
2165.946769369222
 30
0.0
 11
874.707188391475
 21
2189.727719239223
 31
0.0
  0
LINE
  5
38A81
330
1D
100
AcDbEntity
  8
0
100
AcDbLine
 10
874.707188391475
 20
2189.727719239223
 30
0.0
 11
850.9262385214752
 21
2208.016142449223
 31
0.0
  0
LINE
  5
38A82
330
1D
100
AcDbEntity
  8
0
100
AcDbLine
 10
158.8442356914752
 20
2702.407183359222
 30
0.0
 11
182.6251855614751
 21
2684.118760159222
 31
0.0
  0
LINE
  5
38A83
330
1D
100
AcDbEntity
  8
0
100
AcDbLine
 10
177.1326589014752
 20
2726.188133259222
 30
0.0
 11
158.8442356914752
 21
2702.407183359222
 31
0.0
  0
LINE
  5
38A84
330
1D
100
AcDbEntity
  8
0
100
AcDbLine
 10
182.6251855614751
 20
2684.118760159222
 30
0.0
 11
200.9136087614752
 21
2707.899710059222
 31
0.0
  0
LINE
  5
38A85
330
1D
100
AcDbEntity
  8
0
100
AcDbLine
 10
200.9136087614752
 20
2707.899710059222
 30
0.0
 11
177.1326589014752
 21
2726.188133259222
 31
0.0
  0
LINE
  5
38A86
330
1D
100
AcDbEntity
  8
0
100
AcDbLine
 10
-514.9493439365249
 20
3220.579174159222
 30
0.0
 11
-491.1683940675248
 21
3202.290750959222
 31
0.0
  0
LINE
  5
38A87
330
1D
100
AcDbEntity
  8
0
100
AcDbLine
 10
-496.6609207325248
 20
3244.360124059223
 30
0.0
 11
-514.9493439365249
 21
3220.579174159222
 31
0.0
  0
LINE
  5
38A88
330
1D
100
AcDbEntity
  8
0
100
AcDbLine
 10
-491.1683940675248
 20
3202.290750959222
 30
0.0
 11
-472.8799708625247
 21
3226.071700859221
 31
0.0
  0
LINE
  5
38A89
330
1D
100
AcDbEntity
  8
0
100
AcDbLine
 10
-472.8799708625247
 20
3226.071700859221
 30
0.0
 11
-496.6609207325248
 21
3244.360124059223
 31
0.0
  0
LINE
  5
38A8A
330
1D
100
AcDbEntity
  8
0
100
AcDbLine
 10
-1188.742923565624
 20
3738.751164959223
 30
0.0
 11
-1164.961973696326
 21
3720.462741759221
 31
0.0
  0
LINE
  5
38A8B
330
1D
100
AcDbEntity
  8
0
100
AcDbLine
 10
-1170.454500360824
 20
3762.532114859223
 30
0.0
 11
-1188.742923565624
 21
3738.751164959223
 31
0.0
  0
LINE
  5
38A8C
330
1D
100
AcDbEntity
  8
0
100
AcDbLine
 10
-1164.961973696326
 20
3720.462741759221
 30
0.0
 11
-1146.673550491626
 21
3744.243691659223
 31
0.0
  0
LINE
  5
38A8D
330
1D
100
AcDbEntity
  8
0
100
AcDbLine
 10
-1146.673550491626
 20
3744.243691659223
 30
0.0
 11
-1170.454500360824
 21
3762.532114859223
 31
0.0
  0
LINE
  5
38A8E
330
1D
100
AcDbEntity
  8
0
100
AcDbLine
 10
-3223.132531758525
 20
-470.5749916607781
 30
0.0
 11
-3223.132521028525
 21
-650.5749916607781
 31
0.0
  0
LINE
  5
38A8F
330
1D
100
AcDbEntity
  8
0
100
AcDbLine
 10
-3163.132531758525
 20
-470.5749880807771
 30
0.0
 11
-3223.132531758525
 21
-470.5749916607781
 31
0.0
  0
LINE
  5
38A90
330
1D
100
AcDbEntity
  8
0
100
AcDbLine
 10
-3223.132521028525
 20
-650.5749916607781
 30
0.0
 11
-3163.132521028525
 21
-650.5749880807771
 31
0.0
  0
LINE
  5
38A91
330
1D
100
AcDbEntity
  8
0
100
AcDbLine
 10
-3163.132521028525
 20
-650.5749880807771
 30
0.0
 11
-3163.132531758525
 21
-470.5749880807771
 31
0.0
  0
LINE
  5
38A92
330
1D
100
AcDbEntity
  8
0
100
AcDbLine
 10
678.2434448014751
 20
-470.5747591207771
 30
0.0
 11
678.2434555314753
 21
-650.5747591207771
 31
0.0
  0
LINE
  5
38A93
330
1D
100
AcDbEntity
  8
0
100
AcDbLine
 10
738.2434448014751
 20
-470.574755540777
 30
0.0
 11
678.2434448014751
 21
-470.5747591207771
 31
0.0
  0
LINE
  5
38A94
330
1D
100
AcDbEntity
  8
0
100
AcDbLine
 10
678.2434555314753
 20
-650.5747591207771
 30
0.0
 11
738.2434555314753
 21
-650.574755540777
 31
0.0
  0
LINE
  5
38A95
330
1D
100
AcDbEntity
  8
0
100
AcDbLine
 10
738.2434555314753
 20
-650.574755540777
 30
0.0
 11
738.2434448014751
 21
-470.574755540777
 31
0.0
  0
LINE
  5
38A96
330
1D
100
AcDbEntity
  8
0
100
AcDbLine
 10
-3450.229555908526
 20
-603.8704458707771
 30
0.0
 11
-3450.229716098525
 21
2083.704902029223
 31
0.0
  0
LINE
  5
38A97
330
1D
100
AcDbEntity
  8
0
100
AcDbLine
 10
-1315.525781825626
 20
3793.546038559223
 30
0.0
 11
-1382.151131658524
 21
3742.271057959222
 31
0.0
  0
LINE
  5
38A98
330
1D
100
AcDbEntity
  8
0
100
AcDbLine
 10
-1382.151131658524
 20
3742.271057959222
 30
0.0
 11
-3528.047767888525
 21
2090.785408649222
 31
0.0
  0
LINE
  5
38A99
330
1D
100
AcDbEntity
  8
0
100
AcDbLine
 10
-1169.599850050926
 20
3794.844860259223
 30
0.0
 11
-1102.969363718525
 21
3743.576555659223
 31
0.0
  0
LINE
  5
38A9A
330
1D
100
AcDbEntity
  8
0
100
AcDbLine
 10
-1102.969363718525
 20
3743.576555659223
 30
0.0
 11
1043.092725791475
 21
2092.306403219223
 31
0.0
  0
LINE
  5
38A9B
330
1D
100
AcDbEntity
  8
0
100
AcDbLine
 10
945.9569675314742
 20
-603.870183830777
 30
0.0
 11
945.9568073414753
 21
2083.705164069222
 31
0.0
  0
LINE
  5
38A9C
330
1D
100
AcDbEntity
  8
0
100
AcDbLine
 10
-1186.098255540625
 20
3846.154543759223
 30
0.0
 11
-1184.028471219025
 21
3844.561959159222
 31
0.0
  0
LINE
  5
38A9D
330
1D
100
AcDbEntity
  8
0
100
AcDbLine
 10
-1186.422852545023
 20
3846.384315959223
 30
0.0
 11
-1186.098255540625
 21
3846.154543759223
 31
0.0
  0
LINE
  5
38A9E
330
1D
100
AcDbEntity
  8
0
100
AcDbLine
 10
-1184.028471219025
 20
3844.561959159222
 30
0.0
 11
-1117.363999688526
 21
3793.267814359222
 31
0.0
  0
LINE
  5
38A9F
330
1D
100
AcDbEntity
  8
0
100
AcDbLine
 10
-1196.357481038324
 20
3853.442517559222
 30
0.0
 11
-1186.422852545023
 21
3846.384315959223
 31
0.0
  0
LINE
  5
38AA0
330
1D
100
AcDbEntity
  8
0
100
AcDbLine
 10
-1196.711951500823
 20
3853.622827059221
 30
0.0
 11
-1196.357481038324
 21
3853.442517559222
 31
0.0
  0
LINE
  5
38AA1
330
1D
100
AcDbEntity
  8
0
100
AcDbLine
 10
-1207.564543694724
 20
3859.165579859221
 30
0.0
 11
-1196.711951500823
 21
3853.622827059221
 31
0.0
  0
LINE
  5
38AA2
330
1D
100
AcDbEntity
  8
0
100
AcDbLine
 10
-1207.941402995525
 20
3859.292603759222
 30
0.0
 11
-1207.564543694724
 21
3859.165579859221
 31
0.0
  0
LINE
  5
38AA3
330
1D
100
AcDbEntity
  8
0
100
AcDbLine
 10
-1219.482800919825
 20
3863.204828559222
 30
0.0
 11
-1207.941402995525
 21
3859.292603759222
 31
0.0
  0
LINE
  5
38AA4
330
1D
100
AcDbEntity
  8
0
100
AcDbLine
 10
-1219.874090881724
 20
3863.275890759223
 30
0.0
 11
-1219.482800919825
 21
3863.204828559222
 31
0.0
  0
LINE
  5
38AA5
330
1D
100
AcDbEntity
  8
0
100
AcDbLine
 10
-1231.860573128525
 20
3865.473290559222
 30
0.0
 11
-1219.874090881724
 21
3863.275890759223
 31
0.0
  0
LINE
  5
38AA6
330
1D
100
AcDbEntity
  8
0
100
AcDbLine
 10
-1232.258032055425
 20
3865.486891359223
 30
0.0
 11
-1231.860573128525
 21
3865.473290559222
 31
0.0
  0
LINE
  5
38AA7
330
1D
100
AcDbEntity
  8
0
100
AcDbLine
 10
-1244.436486136205
 20
3865.924476459222
 30
0.0
 11
-1232.258032055425
 21
3865.486891359223
 31
0.0
  0
LINE
  5
38AA8
330
1D
100
AcDbEntity
  8
0
100
AcDbLine
 10
-1244.831719655704
 20
3865.880336359223
 30
0.0
 11
-1244.436486136205
 21
3865.924476459222
 31
0.0
  0
LINE
  5
38AA9
330
1D
100
AcDbEntity
  8
0
100
AcDbLine
 10
-1256.944970675124
 20
3864.548161559223
 30
0.0
 11
-1244.831719655704
 21
3865.880336359223
 31
0.0
  0
LINE
  5
38AAA
330
1D
100
AcDbEntity
  8
0
100
AcDbLine
 10
-1257.329633752025
 20
3864.447192259222
 30
0.0
 11
-1256.944970675124
 21
3864.548161559223
 31
0.0
  0
LINE
  5
38AAB
330
1D
100
AcDbEntity
  8
0
100
AcDbLine
 10
-1269.121875752625
 20
3861.372725159222
 30
0.0
 11
-1257.329633752025
 21
3864.447192259222
 31
0.0
  0
LINE
  5
38AAC
330
1D
100
AcDbEntity
  8
0
100
AcDbLine
 10
-1269.487844421925
 20
3861.217088059222
 30
0.0
 11
-1269.121875752625
 21
3861.372725159222
 31
0.0
  0
LINE
  5
38AAD
330
1D
100
AcDbEntity
  8
0
100
AcDbLine
 10
-1280.710093002425
 20
3856.466629459222
 30
0.0
 11
-1269.487844421925
 21
3861.217088059222
 31
0.0
  0
LINE
  5
38AAE
330
1D
100
AcDbEntity
  8
0
100
AcDbLine
 10
-1281.049641185124
 20
3856.259588859222
 30
0.0
 11
-1280.710093002425
 21
3856.466629459222
 31
0.0
  0
LINE
  5
38AAF
330
1D
100
AcDbEntity
  8
0
100
AcDbLine
 10
-1291.464913256425
 20
3849.933063659222
 30
0.0
 11
-1281.049641185124
 21
3856.259588859222
 31
0.0
  0
LINE
  5
38AB0
330
1D
100
AcDbEntity
  8
0
100
AcDbLine
 10
-1293.370280557726
 20
3848.486205659222
 30
0.0
 11
-1291.464913256425
 21
3849.933063659222
 31
0.0
  0
LINE
  5
38AB1
330
1D
100
AcDbEntity
  8
0
100
AcDbLine
 10
-1354.739159618525
 20
3801.885208259222
 30
0.0
 11
-1293.370280557726
 21
3848.486205659222
 31
0.0
  0
LINE
  5
38AB2
330
1D
100
AcDbEntity
  8
0
100
AcDbLine
 10
851.7976469514751
 20
-519.6037568207751
 30
0.0
 11
851.7974911614751
 21
2094.038410399221
 31
0.0
  0
LINE
  5
38AB3
330
1D
100
AcDbEntity
  8
0
100
AcDbLine
 10
-3334.144735868525
 20
-519.604006330778
 30
0.0
 11
-3223.132528835851
 21
-519.603999713712
 31
0.0
  0
LINE
  5
38AB4
330
1D
100
AcDbEntity
  8
0
100
AcDbLine
 10
851.7974911614751
 20
2094.038410399221
 30
0.0
 11
-1241.173750917315
 21
3704.189164559222
 31
0.0
  0
LINE
  5
38AB5
330
1D
100
AcDbEntity
  8
0
100
AcDbLine
 10
-3334.144891658525
 20
2094.038160899223
 30
0.0
 11
-3334.144735868525
 21
-519.604006330778
 31
0.0
  0
LINE
  5
38AB6
330
1D
100
AcDbEntity
  8
0
100
AcDbLine
 10
-1241.173750917315
 20
3704.189164559222
 30
0.0
 11
-3334.144891658525
 21
2094.038160899223
 31
0.0
  0
LINE
  5
38AB7
330
1D
100
AcDbEntity
  8
0
100
AcDbLine
 10
-1241.173729384255
 20
3342.924271959222
 30
0.0
 11
-3048.146714298524
 21
1952.945892799222
 31
0.0
  0
LINE
  5
38ABB
102
{ACAD_REACTORS
102
}
330
1D
100
AcDbEntity
  8
0
100
AcDbLine
 10
565.7994609514762
 20
-233.6080605007781
 30
0.0
 11
565.7993306214753
 21
1952.946108209222
 31
0.0
  0
LINE
  5
38ABC
330
1D
100
AcDbEntity
  8
0
100
AcDbLine
 10
-3163.132528835851
 20
-519.6039961373131
 30
0.0
 11
678.2434477241472
 21
-519.6037671657621
 31
0.0
  0
LINE
  5
38ABD
330
1D
100
AcDbEntity
  8
0
100
AcDbLine
 10
738.2434477241472
 20
-519.6037635893631
 30
0.0
 11
851.7976469514751
 21
-519.6037568207751
 31
0.0
  0
LINE
  5
38C84
102
{ACAD_REACTORS
102
}
330
1D
100
AcDbEntity
  8
0
100
AcDbLine
 10
-400.3637002485248
 20
-233.6081180864594
 30
0.0
 11
-400.3637002485248
 21
2239.425525879221
 31
0.0
  0
LINE
  5
38C86
102
{ACAD_REACTORS
102
}
330
1D
100
AcDbEntity
  8
0
100
AcDbLine
 10
-2050.363700248525
 20
-233.6082164304844
 30
0.0
 11
-2050.363700248525
 21
2239.425525879221
 31
0.0
  0
LINE
  5
38D60
102
{ACAD_REACTORS
102
}
330
1D
100
AcDbEntity
  8
0
100
AcDbLine
 10
-2240.365228568524
 20
2239.425129149221
 30
0.0
 11
-210.3652285685248
 21
2239.425129149221
 31
0.0
  0
LINE
  5
38E2A
102
{ACAD_REACTORS
102
}
330
1D
100
AcDbEntity
  8
0
100
AcDbLine
 10
-2240.365228568524
 20
-233.6082277550389
 30
0.0
 11
-2240.365228568524
 21
2356.391772244966
 31
0.0
  0
LINE
  5
38E2B
102
{ACAD_REACTORS
102
}
330
1D
100
AcDbEntity
  8
0
100
AcDbLine
 10
-210.3652285685248
 20
-233.6081067620869
 30
0.0
 11
-210.3652285685246
 21
2356.391893237918
 31
0.0
  0
LWPOLYLINE
  5
38E2E
330
1D
100
AcDbEntity
  8
0
100
AcDbPolyline
 90
        3
 70
     1
 43
0.0
 10
-10598.82902717822
 20
1956.391727298872
 10
-9782.512329450328
 20
2584.327269148101
 10
-9782.512292022106
 20
1956.391775953341
  0
LWPOLYLINE
  5
38E30
330
1D
100
AcDbEntity
  8
0
100
AcDbPolyline
 90
        4
 70
     1
 43
0.0
 10
-9662.512334952342
 20
2676.634901439256
 10
-8905.539304582055
 20
3258.92149598502
 10
-8905.539268602583
 20
1956.391829147233
 10
-9662.512292022106
 20
1956.391783140864
  0
LWPOLYLINE
  5
38E31
330
1D
100
AcDbEntity
  8
0
100
AcDbPolyline
 90
        4
 70
     1
 43
0.0
 10
-8028.566321918668
 20
2676.634901439256
 10
-8785.539352288955
 20
3258.92149598502
 10
-8785.539388268428
 20
1956.391829147233
 10
-8028.566364848904
 20
1956.391783140864
  0
LWPOLYLINE
  5
38E32
330
1D
100
AcDbEntity
  8
0
100
AcDbPolyline
 90
        3
 70
     1
 43
0.0
 10
-7092.249629692793
 20
1956.391727298872
 10
-7908.566327420682
 20
2584.327269148101
 10
-7908.566364848904
 20
1956.391775953341
  0
LINE
  5
38E38
330
1D
100
AcDbEntity
  8
0
  6
HIDDEN
100
AcDbLine
 10
-2240.365228568524
 20
2336.391772244966
 30
0.0
 11
-210.3652285685248
 21
2336.391893237918
 31
0.0
  0
LINE
  5
38E39
330
1D
100
AcDbEntity
  8
0
100
AcDbLine
 10
-2523.666776011697
 20
2356.391755359502
 30
0.0
 11
41.31937054832633
 21
2356.391908238934
 31
0.0
  0
LINE
  5
38E3A
330
1D
100
AcDbEntity
  8
0
100
AcDbLine
 10
-2445.666722830307
 20
2416.391760008496
 30
0.0
 11
-36.68068587503376
 21
2416.391903589941
 31
0.0
  0
LINE
  5
38E3B
330
1D
100
AcDbEntity
  8
0
100
AcDbLine
 10
565.7993306214753
 20
1952.946108209222
 30
0.0
 11
-1241.173729384255
 21
3342.924271959222
 31
0.0
  0
LINE
  5
38E3F
330
1D
100
AcDbEntity
  8
0
100
AcDbLine
 10
-3048.146583968524
 20
-233.6082759007782
 30
0.0
 11
565.7994609514762
 21
-233.6080605007781
 31
0.0
  0
LINE
  5
38E55
330
1D
100
AcDbEntity
  8
0
100
AcDbLine
 10
-3048.146712715769
 20
1926.391908399661
 30
0.0
 11
-2240.365232144913
 21
1926.391956545408
 31
0.0
  0
LINE
  5
38E56
102
{ACAD_REACTORS
102
}
330
1D
100
AcDbEntity
  8
0
100
AcDbLine
 10
-3048.146709139457
 20
1866.391908399661
 30
0.0
 11
-2240.365228568525
 21
1866.391956545408
 31
0.0
  0
LINE
  5
38E67
330
1D
100
AcDbEntity
  8
0
100
AcDbLine
 10
-3048.146714298524
 20
1952.945892799223
 30
0.0
 11
-3048.146583968524
 21
-233.608275900778
 31
0.0
  0
LINE
  5
38E68
330
1D
100
AcDbEntity
  8
0
100
AcDbLine
 10
565.7993322042435
 20
1926.391910284107
 30
0.0
 11
-210.3652249921365
 21
1926.391956545408
 31
0.0
  0
LINE
  5
38E69
102
{ACAD_REACTORS
102
}
330
1D
100
AcDbEntity
  8
0
100
AcDbLine
 10
565.7993357805555
 20
1866.391910284106
 30
0.0
 11
-210.3652285685242
 21
1866.391956545408
 31
0.0
  0
LINE
  5
38E79
330
1D
100
AcDbEntity
  8
0
100
AcDbLine
 10
-150.3652285685248
 20
-233.6081031859406
 30
0.0
 11
-150.3652285685247
 21
1006.391952969261
 31
0.0
  0
LINE
  5
38E7A
330
1D
100
AcDbEntity
  8
0
100
AcDbLine
 10
-2300.365228568524
 20
-233.6082313311853
 30
0.0
 11
-2300.365228568524
 21
1006.391952969261
 31
0.0
  0
LINE
  5
38E7B
330
1D
100
AcDbEntity
  8
0
100
AcDbLine
 10
-3048.146661455296
 20
1066.391908399663
 30
0.0
 11
-2240.365192807061
 21
1066.391956545409
 31
0.0
  0
LINE
  5
38E7C
330
1D
100
AcDbEntity
  8
0
100
AcDbLine
 10
565.799383464716
 20
1066.391910284102
 30
0.0
 11
-210.365264329988
 21
1066.391956545409
 31
0.0
  0
LINE
  5
38E7F
330
1D
100
AcDbEntity
  8
0
100
AcDbLine
 10
-3048.146657878984
 20
1006.391908399663
 30
0.0
 11
-2240.365189230915
 21
1006.391956545409
 31
0.0
  0
LINE
  5
38E80
330
1D
100
AcDbEntity
  8
0
100
AcDbLine
 10
565.7993870410281
 20
1006.391910284102
 30
0.0
 11
-210.3652679061344
 21
1006.391956545409
 31
0.0
  0
LINE
  5
38E81
330
1D
100
AcDbEntity
  8
0
100
AcDbLine
 10
-2300.365228568524
 20
1926.391952969262
 30
0.0
 11
-2300.365228568524
 21
2356.391772244966
 31
0.0
  0
LINE
  5
38E82
330
1D
100
AcDbEntity
  8
0
100
AcDbLine
 10
-150.3652285685246
 20
1926.391952969262
 30
0.0
 11
-150.3652285685246
 21
2356.391893237918
 31
0.0
  0
LWPOLYLINE
  5
38E83
330
1D
100
AcDbEntity
  8
0
 62
     1
100
AcDbPolyline
 90
        4
 70
     1
 43
0.0
 10
-10938.51033043391
 20
5766.391707053033
 10
-10938.51033043391
 20
5480.396077711272
 10
-9528.56609951988
 20
5480.396077711272
 10
-9528.56609951988
 20
5766.391707053033
  0
LWPOLYLINE
  5
38E84
330
1D
100
AcDbEntity
  8
0
 62
     1
100
AcDbPolyline
 90
        4
 70
     1
 43
0.0
 10
-9528.56609951988
 20
5766.391707053033
 10
-9528.56609951988
 20
5480.396243179225
 10
-6752.567930566716
 20
5480.396243179225
 10
-6752.567930566716
 20
5766.391707053033
  0
LWPOLYLINE
  5
38E85
330
1D
100
AcDbEntity
  8
0
 62
     1
100
AcDbPolyline
 90
        4
 70
     1
 43
0.0
 10
-10938.51033043391
 20
5766.391707053033
 10
-10652.51216148671
 20
5766.391724099222
 10
-10652.51231334094
 20
8314.060409988051
 10
-10938.51046917672
 20
8094.038160899223
  0
LWPOLYLINE
  5
38E86
330
1D
100
AcDbEntity
  8
0
 62
     1
100
AcDbPolyline
 90
        4
 70
     1
 43
0.0
 10
-6752.5683264371
 20
5766.391707053033
 10
-7038.566495384301
 20
5766.391724099222
 10
-7038.566343530074
 20
8314.060409988051
 10
-6752.568187694291
 20
8094.038160899223
  0
LWPOLYLINE
  5
38E87
330
1D
100
AcDbEntity
  8
0
 62
     1
100
AcDbPolyline
 90
        4
 70
     1
 43
0.0
 10
-10652.51231334094
 20
8314.060409988051
 10
-10652.51229181671
 20
7952.945892799224
 10
-8845.539306902445
 20
9342.924271959222
 10
-8845.539328435505
 20
9704.189164559222
  0
LWPOLYLINE
  5
38E88
330
1D
100
AcDbEntity
  8
0
 62
     1
100
AcDbPolyline
 90
        4
 70
     1
 43
0.0
 10
-7038.566343530074
 20
8314.060409988051
 10
-7038.566365054299
 20
7952.945892799224
 10
-8845.539349968565
 20
9342.924271959222
 10
-8845.539328435505
 20
9704.189164559222
  0
LWPOLYLINE
  5
38E89
330
1D
100
AcDbEntity
  8
0
 62
     1
100
AcDbPolyline
 90
        4
 70
     1
 43
0.0
 10
-3334.144752915716
 20
5766.391707053032
 10
-3334.144752915716
 20
5480.396077711272
 10
-1924.200522001685
 20
5480.396077711272
 10
-1924.200522001685
 20
5766.391707053032
  0
LWPOLYLINE
  5
38E8A
330
1D
100
AcDbEntity
  8
0
 62
     1
100
AcDbPolyline
 90
        4
 70
     1
 43
0.0
 10
-1924.200522001685
 20
5766.391707053032
 10
-1924.200522001685
 20
5480.396243179224
 10
851.7976469514779
 20
5480.396243179224
 10
851.7976469514779
 20
5766.391707053032
  0
LWPOLYLINE
  5
38E8B
330
1D
100
AcDbEntity
  8
0
 62
     1
100
AcDbPolyline
 90
        4
 70
     1
 43
0.0
 10
-3334.144752915716
 20
5766.391707053032
 10
-3048.146583968515
 20
5766.391724099221
 10
-3048.146735822742
 20
8314.060409988051
 10
-3334.144891658525
 20
8094.038160899222
  0
LWPOLYLINE
  5
38E8C
330
1D
100
AcDbEntity
  8
0
 62
     1
100
AcDbPolyline
 90
        4
 70
     1
 43
0.0
 10
851.7972510810941
 20
5766.391707053032
 10
565.7990821338935
 20
5766.391724099221
 10
565.7992339881202
 20
8314.060409988051
 10
851.7973898239034
 20
8094.038160899222
  0
LWPOLYLINE
  5
38E8D
330
1D
100
AcDbEntity
  8
0
 62
     1
100
AcDbPolyline
 90
        4
 70
     1
 43
0.0
 10
-3048.146735822742
 20
8314.060409988051
 10
-3048.146714298517
 20
7952.945892799223
 10
-1241.173729384251
 20
9342.924271959222
 10
-1241.173750917311
 20
9704.189164559222
  0
LWPOLYLINE
  5
38E8E
330
1D
100
AcDbEntity
  8
0
 62
     1
100
AcDbPolyline
 90
        4
 70
     1
 43
0.0
 10
565.7992339881202
 20
8314.060409988051
 10
565.799212463895
 20
7952.945892799223
 10
-1241.173772450371
 20
9342.924271959222
 10
-1241.173750917311
 20
9704.189164559222
  0
LINE
  5
38E93
330
1D
100
AcDbEntity
  8
0
100
AcDbLine
 10
-8238.566182132434
 20
866.3918679762936
 30
0.0
 11
-7038.566182132437
 21
866.391939499221
 31
0.0
  0
LINE
  5
38E94
330
1D
100
AcDbEntity
  8
0
100
AcDbLine
 10
-8238.566178556122
 20
806.3918679762937
 30
0.0
 11
-7038.566178556124
 21
806.3919394992212
 31
0.0
  0
LWPOLYLINE
  5
38E98
330
1D
100
AcDbEntity
  8
0
100
AcDbPolyline
 90
        3
 70
     0
 43
0.0
 10
-9667.77141612644
 20
-145.1047992105213
 10
-9667.77141612644
 20
-214.4458399621777
 10
-9617.341568307053
 20
-214.4458399621777
  0
LWPOLYLINE
  5
38E99
330
1D
100
AcDbEntity
  8
0
100
AcDbPolyline
 90
        3
 70
     0
 43
0.0
 10
-9473.825371206434
 20
-145.1047876508639
 10
-9473.825371206434
 20
-214.4458284025204
 10
-9423.395523387047
 20
-214.4458284025204
  0
LWPOLYLINE
  5
38E9A
330
1D
100
AcDbEntity
  8
0
100
AcDbPolyline
 90
        3
 70
     0
 43
0.0
 10
-8213.825371206436
 20
-145.1047125517902
 10
-8213.825371206436
 20
-214.4457533034467
 10
-8163.395523387049
 20
-214.4457533034467
  0
LWPOLYLINE
  5
38E9B
330
1D
100
AcDbEntity
  8
0
100
AcDbPolyline
 90
        3
 70
     0
 43
0.0
 10
-7127.069598028038
 20
781.6511941389458
 10
-7057.728557276381
 20
781.651194138944
 10
-7057.728557276381
 20
731.221346319558
  0
LWPOLYLINE
  5
38E9C
330
1D
100
AcDbEntity
  8
0
100
AcDbPolyline
 90
        3
 70
     0
 43
0.0
 10
-8150.062759084209
 20
781.6511941389458
 10
-8219.403799835865
 20
781.651194138944
 10
-8219.403799835865
 20
731.221346319558
  0
LWPOLYLINE
  5
38E9D
330
1D
100
AcDbEntity
  8
0
100
AcDbPolyline
 90
        3
 70
     0
 43
0.0
 10
-8387.069474049218
 20
781.6511941389458
 10
-8317.728433297561
 20
781.651194138944
 10
-8317.728433297561
 20
731.221346319558
  0
LWPOLYLINE
  5
38E9E
330
1D
100
AcDbEntity
  8
0
100
AcDbPolyline
 90
        3
 70
     0
 43
0.0
 10
-9410.062883063023
 20
781.6511941389458
 10
-9479.40392381468
 20
781.651194138944
 10
-9479.40392381468
 20
731.221346319558
  0
LWPOLYLINE
  5
38E9F
330
1D
100
AcDbEntity
  8
0
100
AcDbPolyline
 90
        3
 70
     0
 43
0.0
 10
-9604.008991164541
 20
1841.651182579287
 10
-9673.350031916198
 20
1841.651182579285
 10
-9673.350031916198
 20
1791.221334759899
  0
LINE
  5
38EA0
330
1D
100
AcDbEntity
  8
0
100
AcDbLine
 10
-9524.125223428246
 20
1905.295509315434
 30
0.0
 11
-9524.125223428246
 21
1791.828351721814
 31
0.0
  0
LINE
  5
38EA1
330
1D
100
AcDbEntity
  8
0
100
AcDbLine
 10
-9650.9336366608
 20
1897.28287626835
 30
0.0
 11
-9812.309149682837
 21
1897.28287626835
 31
0.0
  0
LINE
  5
38EA2
330
1D
100
AcDbEntity
  8
0
100
AcDbLine
 10
-8271.081399231618
 20
1899.006552707489
 30
0.0
 11
-8271.081399231618
 21
1812.015065219047
 31
0.0
  0
LINE
  5
38EA3
330
1D
100
AcDbEntity
  8
0
100
AcDbLine
 10
-6983.619200050769
 20
1896.586749531445
 30
0.0
 11
-7107.723903668791
 21
1896.586749531445
 31
0.0
  0
LINE
  5
38EA4
330
1D
100
AcDbEntity
  8
0
100
AcDbLine
 10
-10592.62676537445
 20
1897.907208803571
 30
0.0
 11
-10687.1827300358
 21
1897.907208803571
 31
0.0
  0
LINE
  5
38EA6
330
1D
100
AcDbEntity
  8
0
100
AcDbLine
 10
-9633.727340558962
 20
2547.455221973361
 30
0.0
 11
-9795.102853580998
 21
2729.002674123153
 31
0.0
  0
LINE
  5
38EA7
330
1D
100
AcDbEntity
  8
0
100
AcDbLine
 10
-8063.200045516272
 20
2547.612815247796
 30
0.0
 11
-7873.10315822835
 21
2737.709702535718
 31
0.0
  0
LINE
  5
38EA8
330
1D
100
AcDbEntity
  8
0
100
AcDbLine
 10
-8894.94663345207
 20
3276.913579008094
 30
0.0
 11
-8794.971275624657
 21
3353.754143288667
 31
0.0
  0
LINE
  5
38EA9
330
1D
100
AcDbEntity
  8
0
100
AcDbLine
 10
-8788.774455924611
 20
3273.608608501403
 30
0.0
 11
-8893.294148198725
 21
3355.819749855349
 31
0.0
  0
LINE
  5
38EAB
330
1D
100
AcDbEntity
  8
0
100
AcDbLine
 10
-7968.347857889512
 20
1887.848638012405
 30
0.0
 11
-7968.347857889512
 21
1990.284266395534
 31
0.0
  0
LINE
  5
38EAC
330
1D
100
AcDbEntity
  8
0
100
AcDbLine
 10
-8846.142396495708
 20
1887.848638012405
 30
0.0
 11
-8846.142396495708
 21
1987.132400906822
 31
0.0
  0
LINE
  5
38EAE
330
1D
100
AcDbEntity
  8
0
100
AcDbLine
 10
-1271.1737287608
 20
3319.847363307934
 30
0.0
 11
-1271.17370435267
 21
2416.391830988726
 31
0.0
  0
LINE
  5
38EAF
330
1D
100
AcDbEntity
  8
0
100
AcDbLine
 10
-1211.1737287608
 20
3319.847366884081
 30
0.0
 11
-1211.17370435267
 21
2416.391832609711
 31
0.0
  0
LWPOLYLINE
  5
38EB1
330
1D
100
AcDbEntity
  8
0
100
AcDbPolyline
 90
        3
 70
     1
 43
0.0
 10
-2357.463015249906
 20
2446.391765339068
 10
-1301.173705163163
 20
2446.391829175682
 10
-1301.173727114801
 20
3258.921495945838
  0
LWPOLYLINE
  5
38EB2
330
1D
100
AcDbEntity
  8
0
100
AcDbPolyline
 90
        3
 70
     1
 43
0.0
 10
-124.8844435186033
 20
2446.391765339068
 10
-1181.173753605347
 20
2446.391829175682
 10
-1181.173731653709
 20
3258.921495945838
  0
LWPOLYLINE
  5
38EB4
330
1D
100
AcDbEntity
  8
0
100
AcDbPolyline
 90
        4
 70
     1
 43
0.0
 10
-2513.463121495693
 20
2326.391756131075
 10
-2330.365228568524
 20
2326.391769976447
 10
-2330.365228568524
 20
1956.391951181188
 10
-2994.463210069291
 20
1956.391911599329
  0
LWPOLYLINE
  5
38EB7
330
1D
100
AcDbEntity
  8
0
100
AcDbPolyline
 90
        4
 70
     1
 43
0.0
 10
-120.3652285685246
 20
2326.391895585683
 10
-120.3652285685246
 20
1956.391951181189
 10
512.1160970200721
 20
1956.391913483759
 10
31.11571966292175
 20
2326.391907440408
  0
LWPOLYLINE
  5
38EB9
330
1D
100
AcDbEntity
  8
0
 62
     1
100
AcDbPolyline
 90
        4
 70
     1
 43
0.0
 10
-8268.566116566713
 20
5766.391866188223
 10
-8268.566116566713
 20
6866.39193949922
 10
-7038.566182132437
 20
6866.39193949922
 10
-7038.566182132437
 20
5766.391866188223
  0
LWPOLYLINE
  5
38EBA
330
1D
100
AcDbEntity
  8
0
 62
     1
100
AcDbPolyline
 90
        4
 70
     1
 43
0.0
 10
-9752.512161486717
 20
5766.391777741418
 10
-9752.512161486717
 20
6866.39193949922
 10
-8268.566116566713
 20
6866.39193949922
 10
-8268.566116566713
 20
5766.391777741418
  0
LWPOLYLINE
  5
38EBB
330
1D
100
AcDbEntity
  8
0
 62
     1
100
AcDbPolyline
 90
        4
 70
     1
 43
0.0
 10
-3048.146661455296
 20
7066.391908399662
 10
-3048.146661455296
 20
5766.391772244961
 10
-2240.365228568525
 20
5766.391772244961
 10
-2240.365228568525
 20
7066.391908399662
  0
LWPOLYLINE
  5
38EBC
330
1D
100
AcDbEntity
  8
0
 62
     1
100
AcDbPolyline
 90
        4
 70
     1
 43
0.0
 10
-210.3652285685248
 20
5766.391893237913
 10
-210.3652285685248
 20
7066.391910284102
 10
565.7993834647162
 20
7066.391910284102
 10
565.7993834647162
 20
5766.391893237913
  0
LWPOLYLINE
  5
38EBE
330
1D
100
AcDbEntity
  8
0
 62
     4
100
AcDbPolyline
 90
        5
 70
     1
 43
0.0
 10
-3048.146714298524
 20
7952.945892799223
 10
-3048.146712715769
 20
7926.391908399661
 10
-2300.365228568524
 20
7926.391952969261
 10
-2300.365228568524
 20
8356.391772244966
 10
-2523.666776011697
 20
8356.391755359502
  0
LWPOLYLINE
  5
38EBF
330
1D
100
AcDbEntity
  8
0
 62
     4
100
AcDbPolyline
 90
        5
 70
     1
 43
0.0
 10
41.31937054832633
 20
8356.391908238935
 10
-150.3652285685246
 20
8356.391893237918
 10
-150.3652285685246
 20
7926.391952969262
 10
565.7993322042435
 20
7926.391910284106
 10
565.7993306214753
 20
7952.946108209222
  0
LWPOLYLINE
  5
38EC0
330
1D
100
AcDbEntity
  8
0
 62
     4
100
AcDbPolyline
 90
        3
 70
     1
 43
0.0
 10
-1271.1737287608
 20
9319.847363307934
 10
-2445.666722830307
 20
8416.391760008497
 10
-1271.17370435267
 20
8416.391830988727
  0
LWPOLYLINE
  5
38EC1
330
1D
100
AcDbEntity
  8
0
 62
     4
100
AcDbPolyline
 90
        3
 70
     1
 43
0.0
 10
-1211.1737287608
 20
9319.847366884082
 10
-1211.17370435267
 20
8416.391832609712
 10
-36.68068587503376
 20
8416.391903589942
  0
LWPOLYLINE
  5
38EC2
330
1D
100
AcDbEntity
  8
0
 62
     4
100
AcDbPolyline
 90
        4
 70
     1
 43
0.0
 10
-10652.51229023395
 20
7926.391724099219
 10
-10652.51229181672
 20
7952.945892799218
 10
-9752.512333081826
 20
8645.253134982891
 10
-9752.51229023395
 20
7926.391777741414
  0
LWPOLYLINE
  5
38EC3
330
1D
100
AcDbEntity
  8
0
 62
     4
100
AcDbPolyline
 90
        4
 70
     1
 43
0.0
 10
-9692.51229023395
 20
7926.391781317561
 10
-8875.5392677739
 20
7926.391830970536
 10
-8875.539306264996
 20
9319.847363318702
 10
-9692.512335832833
 20
8691.406951128469
  0
LWPOLYLINE
  5
38EC4
330
1D
100
AcDbEntity
  8
0
 62
     4
100
AcDbPolyline
 90
        4
 70
     1
 43
0.0
 10
-7998.566323570943
 20
7926.391781317561
 10
-8815.539346030993
 20
7926.391830970536
 10
-8815.539307539897
 20
9319.847363318702
 10
-7998.566277972061
 20
8691.406951128469
  0
LWPOLYLINE
  5
38EC5
330
1D
100
AcDbEntity
  8
0
 62
     4
100
AcDbPolyline
 90
        4
 70
     1
 43
0.0
 10
-7038.56632357094
 20
7926.391724099219
 10
-7038.566321988174
 20
7952.945892799218
 10
-7938.566280723067
 20
8645.253134982891
 10
-7938.566323570943
 20
7926.391777741414
  0
LINE
  5
38EC7
330
1D
100
AcDbEntity
  8
0
100
AcDbLine
 10
-1192.458114381678
 20
3258.034966806353
 30
0.0
 11
-1317.524136973757
 21
3383.100989398432
 31
0.0
  0
LINE
  5
38EC8
330
1D
100
AcDbEntity
  8
0
100
AcDbLine
 10
-1293.317810020451
 20
3266.103742457455
 30
0.0
 11
-1161.191608733659
 21
3398.229943744248
 31
0.0
  0
LINE
  5
38EC9
330
1D
100
AcDbEntity
  8
0
100
AcDbLine
 10
-2385.819395633618
 20
2381.368205070336
 30
0.0
 11
-2631.664903753127
 21
2381.368205070336
 31
0.0
  0
LINE
  5
38ECA
330
1D
100
AcDbEntity
  8
0
100
AcDbLine
 10
-2269.830745649029
 20
2395.236413220667
 30
0.0
 11
-2269.830745649029
 21
2301.941194754802
 31
0.0
  0
LINE
  5
38ECB
330
1D
100
AcDbEntity
  8
0
100
AcDbLine
 10
-2981.054117966641
 20
1893.007577951226
 30
0.0
 11
-3118.160266725597
 21
1893.007577951226
 31
0.0
  0
LWPOLYLINE
  5
38ECE
330
1D
100
AcDbEntity
  8
0
100
AcDbPolyline
 90
        3
 70
     0
 43
0.0
 10
-2365.046632147079
 20
987.2956370182551
 10
-2317.138276718661
 20
987.2956370182551
 10
-2317.138276718661
 20
924.2583272440219
  0
LWPOLYLINE
  5
38ECF
330
1D
100
AcDbEntity
  8
0
100
AcDbPolyline
 90
        3
 70
     0
 43
0.0
 10
-85.68382498997062
 20
987.2956370182551
 10
-133.5921804183877
 20
987.2956370182551
 10
-133.5921804183877
 20
924.2583272440219
  0
LWPOLYLINE
  5
38ED0
330
1D
100
AcDbEntity
  8
0
100
AcDbPolyline
 90
        3
 70
     0
 43
0.0
 10
496.5907767261897
 20
987.2956370182551
 10
544.4991321546067
 20
987.2956370182551
 10
544.4991321546067
 20
924.2583272440219
  0
LWPOLYLINE
  5
38ED1
330
1D
100
AcDbEntity
  8
0
100
AcDbPolyline
 90
        3
 70
     0
 43
0.0
 10
-2978.622861015275
 20
987.2956370182551
 10
-3026.531216443692
 20
987.2956370182551
 10
-3026.531216443692
 20
924.2583272440219
  0
LINE
  5
38ED2
330
1D
100
AcDbEntity
  8
0
100
AcDbLine
 10
-1245.848734302048
 20
2508.39120447709
 30
0.0
 11
-1245.848734302048
 21
2379.29079405946
 31
0.0
  0
LINE
  5
38ED3
330
1D
100
AcDbEntity
  8
0
100
AcDbLine
 10
-106.991825732129
 20
2382.528350891147
 30
0.0
 11
129.3980859212454
 21
2382.528350891147
 31
0.0
  0
LINE
  5
38ED4
330
1D
100
AcDbEntity
  8
0
100
AcDbLine
 10
-176.3328664837857
 20
2395.135812845993
 30
0.0
 11
-176.3328664837857
 21
2299.003915440288
 31
0.0
  0
LINE
  5
38ED5
330
1D
100
AcDbEntity
  8
0
100
AcDbLine
 10
-178.5687210648402
 20
1890.309150943277
 30
0.0
 11
-178.5687210648402
 21
1981.082877018173
 31
0.0
  0
LINE
  5
38ED6
330
1D
100
AcDbEntity
  8
0
100
AcDbLine
 10
-2270.194922314194
 20
1887.812282501438
 30
0.0
 11
-2270.194922314194
 21
1991.697769009375
 31
0.0
  0
LINE
  5
38ED7
330
1D
100
AcDbEntity
  8
0
100
AcDbLine
 10
626.847043305208
 20
1895.182784515071
 30
0.0
 11
485.0130963131833
 21
1895.182784515071
 31
0.0
  0
ENDSEC
  0
SECTION
  2
OBJECTS
  0
DICTIONARY
  5
C
330
0
100
AcDbDictionary
281
     1
  3
ACAD_DETAILVIEWSTYLE
350
15ED5
  3
ACAD_GROUP
350
D
  3
ACAD_IMAGE_DICT
350
383B8
  3
ACAD_IMAGE_VARS
350
15EB7
  3
ACAD_LAYOUT
350
1A
  3
ACAD_MATERIAL
350
22
  3
ACAD_MLEADERSTYLE
350
15EB3
  3
ACAD_MLINESTYLE
350
17
  3
ACAD_PLOTSETTINGS
350
19
  3
ACAD_PLOTSTYLENAME
350
E
  3
ACAD_SCALELIST
350
15E72
  3
ACAD_SECTIONVIEWSTYLE
350
15ED6
  3
ACAD_TABLESTYLE
350
15EB1
  3
ACAD_VISUALSTYLE
350
15E98
  3
AcadDim
350
3869A
  3
ACDB_RECOMPOSE_DATA
350
38EDA
  3
AcDbVariableDictionary
350
15ECD
  3
APPDATA
350
15EB5
  3
CENTERLINE
350
15EC6
  3
DimOffsetDictionary
350
15EC1
  0
SUN
  5
15EB6
330
28
100
AcDbSun
 90
        1
290
     0
 63
     7
421
 16777215
 40
1.0
291
     1
 91
  2455826
 92
 54000000
292
     0
 70
     2
 71
   256
280
     1
  0
DICTIONARY
  5
15EB8
330
2
100
AcDbDictionary
280
     1
281
     1
  3
ACAD_LAYERSTATES
360
15EB9
  3
ACLYDICTIONARY
360
387A9
  0
DICTIONARY
  5
15EBF
330
1D
100
AcDbDictionary
280
     1
281
     1
  3
ACAD_SORTENTS
360
15EC0
  0
DICTIONARY
  5
15ED5
102
{ACAD_REACTORS
330
C
102
}
330
C
100
AcDbDictionary
281
     1
  0
DICTIONARY
  5
D
102
{ACAD_REACTORS
330
C
102
}
330
C
100
AcDbDictionary
281
     1
  0
DICTIONARY
  5
383B8
102
{ACAD_REACTORS
330
C
102
}
330
C
100
AcDbDictionary
281
     1
  3
0005
350
38400
  3
0007
350
383B9
  3
0012
350
383BE
  0
RASTERVARIABLES
  5
15EB7
102
{ACAD_REACTORS
330
C
102
}
330
C
100
AcDbRasterVariables
 90
        0
 70
     0
 71
     1
 72
     0
  0
DICTIONARY
  5
1A
102
{ACAD_REACTORS
330
C
102
}
330
C
100
AcDbDictionary
281
     1
  3
Model
350
1E
  3
Sheet1
350
38799
  0
DICTIONARY
  5
22
102
{ACAD_REACTORS
330
C
102
}
330
C
100
AcDbDictionary
281
     1
  3
ByBlock
350
24
  3
ByLayer
350
23
  3
Global
350
25
  0
DICTIONARY
  5
15EB3
102
{ACAD_REACTORS
330
C
102
}
330
C
100
AcDbDictionary
281
     1
  3
Standard
350
15EB4
  0
DICTIONARY
  5
17
102
{ACAD_REACTORS
330
C
102
}
330
C
100
AcDbDictionary
281
     1
  3
Standard
350
18
  0
DICTIONARY
  5
19
102
{ACAD_REACTORS
330
C
102
}
330
C
100
AcDbDictionary
281
     1
  0
ACDBDICTIONARYWDFLT
  5
E
102
{ACAD_REACTORS
330
C
102
}
330
C
100
AcDbDictionary
281
     1
  3
Normal
350
F
100
AcDbDictionaryWithDefault
340
F
  0
DICTIONARY
  5
15E72
102
{ACAD_REACTORS
330
C
102
}
330
C
100
AcDbDictionary
281
     1
  3
A0
350
15E73
  3
A1
350
15E74
  3
A2
350
15E75
  3
A3
350
15E76
  3
A4
350
15E77
  3
A5
350
15E78
  3
A6
350
15E79
  3
A7
350
15E7A
  3
A8
350
15E7B
  3
A9
350
15E7C
  3
B0
350
15E7D
  3
B1
350
15E7E
  3
B2
350
15E7F
  3
B3
350
15E80
  3
B4
350
15E81
  3
B5
350
15E82
  3
B6
350
15E83
  3
B7
350
15E84
  3
B8
350
15E85
  3
B9
350
15E86
  3
C0
350
15E87
  3
C1
350
15E88
  3
C2
350
15E89
  3
C3
350
15E8A
  3
C4
350
15E8B
  3
C5
350
15E8C
  3
C6
350
15E8D
  3
C7
350
15E8E
  3
C8
350
15E8F
  3
C9
350
15E90
  3
D0
350
15E91
  3
D1
350
15E92
  3
D2
350
15E93
  0
DICTIONARY
  5
15ED6
102
{ACAD_REACTORS
330
C
102
}
330
C
100
AcDbDictionary
281
     1
  0
DICTIONARY
  5
15EB1
102
{ACAD_REACTORS
330
C
102
}
330
C
100
AcDbDictionary
281
     1
  3
Standard
350
15EB2
  0
DICTIONARY
  5
15E98
102
{ACAD_REACTORS
330
C
102
}
330
C
100
AcDbDictionary
281
     1
  3
2dWireframe
350
15E9D
  3
Basic
350
15EA0
  3
Brighten
350
15EA4
  3
ColorChange
350
15EA8
  3
Conceptual
350
15EA2
  3
Dim
350
15EA3
  3
EdgeColorOff
350
15EAB
  3
Facepattern
350
15EA7
  3
Flat
350
15E99
  3
FlatWithEdges
350
15E9A
  3
Gouraud
350
15E9B
  3
GouraudWithEdges
350
15E9C
  3
Hidden
350
15E9F
  3
JitterOff
350
15EA9
  3
Linepattern
350
15EA6
  3
OverhangOff
350
15EAA
  3
Realistic
350
15EA1
  3
Shaded
350
15EB0
  3
Shaded with edges
350
15EAF
  3
Shades of Gray
350
15EAC
  3
Sketchy
350
15EAD
  3
Thicken
350
15EA5
  3
Wireframe
350
15E9E
  3
X-Ray
350
15EAE
  0
XRECORD
  5
3869A
102
{ACAD_REACTORS
330
C
102
}
330
C
100
AcDbXrecord
280
     1
340
0
 72
     0
 71
     0
 70
     0
 69
     0
 68
     1
 67
     3
 66
     0
 65
     0
 64
     0
 63
     3
 62
     1
 61
     0
 60
     0
 40
0.0
  0
XRECORD
  5
38EDA
102
{ACAD_REACTORS
330
C
102
}
330
C
100
AcDbXrecord
280
     1
 90
        1
330
15EB2
  0
DICTIONARY
  5
15ECD
102
{ACAD_REACTORS
330
C
102
}
330
C
100
AcDbDictionary
281
     1
  3
CANNOSCALE
350
15ECE
  3
CMLEADERSTYLE
350
15ED3
  3
CTABLESTYLE
350
15ED2
  3
HPTRANSPARENCY
350
2FCC5
  3
MSLTSCALE
350
15ED4
  0
DICTIONARY
  5
15EB5
102
{ACAD_REACTORS
330
C
102
}
330
C
100
AcDbDictionary
281
     1
  0
DICTIONARY
  5
15EC6
102
{ACAD_REACTORS
330
C
102
}
330
C
100
AcDbDictionary
281
     1
  3
CLEXTENSION
350
2FD97
  0
DICTIONARY
  5
15EC1
102
{ACAD_REACTORS
330
C
102
}
330
C
100
AcDbDictionary
281
     1
  3
DIMRAILANGLE
350
2FD95
  3
DIMRAILFIRSTOFFSET
350
2FD93
  3
DIMRAILOFFSET
350
2FD94
  3
DIMRAILSENABLED
350
2FD96
  0
DICTIONARY
  5
15EB9
102
{ACAD_REACTORS
330
15EB8
102
}
330
15EB8
100
AcDbDictionary
281
     1
  0
DICTIONARY
  5
387A9
102
{ACAD_REACTORS
330
15EB8
102
}
330
15EB8
100
AcDbDictionary
281
     1
1001
ACAD
1000
<All
  0
SORTENTSTABLE
  5
15EC0
102
{ACAD_REACTORS
330
15EBF
102
}
330
15EBF
100
AcDbSortentsTable
330
1D
331
0
  5
15ED9
  0
IMAGEDEF
  5
38400
102
{ACAD_REACTORS
330
383B8
102
}
330
383B8
100
AcDbRasterImageDef
 90
        0
  1
/home/yorik/Dropbox/Works/wikilab UFABC/render/0005.jpg
 10
1788.0
 20
976.0
 11
0.3528581510232887
 21
0.3528581510232887
280
     1
281
     3
  0
IMAGEDEF
  5
383B9
102
{ACAD_REACTORS
330
383B8
102
}
330
383B8
100
AcDbRasterImageDef
 90
        0
  1
/home/yorik/Dropbox/Works/wikilab UFABC/render/0007.jpg
 10
1788.0
 20
976.0
 11
0.3528581510232887
 21
0.3528581510232887
280
     1
281
     3
  0
IMAGEDEF
  5
383BE
102
{ACAD_REACTORS
330
383B8
102
}
330
383B8
100
AcDbRasterImageDef
 90
        0
  1
/home/yorik/Dropbox/Works/wikilab UFABC/render/0012.jpg
 10
1304.0
 20
1366.0
 11
0.2134471718249733
 21
0.2134471718249733
280
     1
281
     3
  0
LAYOUT
  5
1E
102
{ACAD_REACTORS
330
1A
102
}
330
1A
100
AcDbPlotSettings
  1

  2
none_device
  4
Letter_(8.50_x_11.00_Inches)
  6

 40
6.35
 41
6.35
 42
6.35
 43
6.35
 44
215.9
 45
279.4
 46
0.0
 47
0.0
 48
0.0
 49
0.0
140
0.0
141
0.0
142
1.0
143
1.0
 70
  1712
 72
     0
 73
     0
 74
     0
  7

 75
     0
 76
     0
 77
     2
 78
   300
147
1.0
148
0.0
149
0.0
100
AcDbLayout
  1
Model
 70
     1
 71
     0
 10
0.0
 20
0.0
 11
12.0
 21
9.0
 12
0.0
 22
0.0
 32
0.0
 14
-12134.55611421318
 24
-1108.467820710778
 34
0.0
 15
2120.168909241902
 25
9704.189164559222
 35
0.0
146
0.0
 13
0.0
 23
0.0
 33
0.0
 16
1.0
 26
0.0
 36
0.0
 17
0.0
 27
1.0
 37
0.0
 76
     0
330
1D
331
28
  0
LAYOUT
  5
38799
102
{ACAD_REACTORS
330
1A
102
}
330
1A
100
AcDbPlotSettings
  1

  2
none_device
  4

  6

 40
0.0
 41
0.0
 42
0.0
 43
0.0
 44
0.0
 45
0.0
 46
0.0
 47
0.0
 48
0.0
 49
0.0
140
0.0
141
0.0
142
1.0
143
1.0
 70
   688
 72
     0
 73
     0
 74
     5
  7

 75
    16
 76
     0
 77
     2
 78
   300
147
1.0
148
0.0
149
0.0
100
AcDbLayout
  1
Sheet1
 70
     1
 71
     1
 10
0.0
 20
0.0
 11
0.0
 21
0.0
 12
0.0
 22
0.0
 32
0.0
 14
0.0
 24
0.0
 34
0.0
 15
0.0
 25
0.0
 35
0.0
146
0.0
 13
0.0
 23
0.0
 33
0.0
 16
1.0
 26
0.0
 36
0.0
 17
0.0
 27
1.0
 37
0.0
 76
     0
330
38798
  0
MATERIAL
  5
24
102
{ACAD_REACTORS
330
22
102
}
330
22
100
AcDbMaterial
  1
ByBlock
 72
     1
 94
      127
  0
MATERIAL
  5
23
102
{ACAD_REACTORS
330
22
102
}
330
22
100
AcDbMaterial
  1
ByLayer
 72
     1
 94
      127
  0
MATERIAL
  5
25
102
{ACAD_REACTORS
330
22
102
}
330
22
100
AcDbMaterial
  1
Global
 72
     1
 94
      127
  0
MLEADERSTYLE
  5
15EB4
102
{ACAD_REACTORS
330
15EB3
102
}
330
15EB3
100
AcDbMLeaderStyle
179
     2
170
     2
171
     1
172
     0
 90
        2
 40
0.0
 41
0.0
173
     1
 91
-1056964608
340
14
 92
       -2
290
     1
 42
0.09
291
     1
 43
0.36
  3
Standard
341
0
 44
0.18
300

342
11
174
     1
178
     1
175
     1
176
     0
 93
-1056964608
 45
0.18
292
     0
297
     0
 46
0.18
343
0
 94
-1056964608
 47
1.0
 49
1.0
140
1.0
293
     1
141
0.0
294
     1
177
     0
142
1.0
295
     0
296
     0
143
0.125
271
     0
272
     9
273
     9
298
     0
  0
MLINESTYLE
  5
18
102
{ACAD_REACTORS
330
17
102
}
330
17
100
AcDbMlineStyle
  2
Standard
 70
     0
  3

 62
   256
 51
90.0
 52
90.0
 71
     2
 49
0.5
 62
   256
  6
BYLAYER
 49
-0.5
 62
   256
  6
BYLAYER
  0
ACDBPLACEHOLDER
  5
F
102
{ACAD_REACTORS
330
E
102
}
330
E
  0
SCALE
  5
15E73
102
{ACAD_REACTORS
330
15E72
102
}
330
15E72
100
AcDbScale
 70
     0
300
1:1
140
1.0
141
1.0
290
     1
  0
SCALE
  5
15E74
102
{ACAD_REACTORS
330
15E72
102
}
330
15E72
100
AcDbScale
 70
     0
300
1:2
140
1.0
141
2.0
290
     0
  0
SCALE
  5
15E75
102
{ACAD_REACTORS
330
15E72
102
}
330
15E72
100
AcDbScale
 70
     0
300
1:4
140
1.0
141
4.0
290
     0
  0
SCALE
  5
15E76
102
{ACAD_REACTORS
330
15E72
102
}
330
15E72
100
AcDbScale
 70
     0
300
1:5
140
1.0
141
5.0
290
     0
  0
SCALE
  5
15E77
102
{ACAD_REACTORS
330
15E72
102
}
330
15E72
100
AcDbScale
 70
     0
300
1:8
140
1.0
141
8.0
290
     0
  0
SCALE
  5
15E78
102
{ACAD_REACTORS
330
15E72
102
}
330
15E72
100
AcDbScale
 70
     0
300
1:10
140
1.0
141
10.0
290
     0
  0
SCALE
  5
15E79
102
{ACAD_REACTORS
330
15E72
102
}
330
15E72
100
AcDbScale
 70
     0
300
1:16
140
1.0
141
16.0
290
     0
  0
SCALE
  5
15E7A
102
{ACAD_REACTORS
330
15E72
102
}
330
15E72
100
AcDbScale
 70
     0
300
1:20
140
1.0
141
20.0
290
     0
  0
SCALE
  5
15E7B
102
{ACAD_REACTORS
330
15E72
102
}
330
15E72
100
AcDbScale
 70
     0
300
1:30
140
1.0
141
30.0
290
     0
  0
SCALE
  5
15E7C
102
{ACAD_REACTORS
330
15E72
102
}
330
15E72
100
AcDbScale
 70
     0
300
1:40
140
1.0
141
40.0
290
     0
  0
SCALE
  5
15E7D
102
{ACAD_REACTORS
330
15E72
102
}
330
15E72
100
AcDbScale
 70
     0
300
1:50
140
1.0
141
50.0
290
     0
  0
SCALE
  5
15E7E
102
{ACAD_REACTORS
330
15E72
102
}
330
15E72
100
AcDbScale
 70
     0
300
1:100
140
1.0
141
100.0
290
     0
  0
SCALE
  5
15E7F
102
{ACAD_REACTORS
330
15E72
102
}
330
15E72
100
AcDbScale
 70
     0
300
2:1
140
2.0
141
1.0
290
     0
  0
SCALE
  5
15E80
102
{ACAD_REACTORS
330
15E72
102
}
330
15E72
100
AcDbScale
 70
     0
300
4:1
140
4.0
141
1.0
290
     0
  0
SCALE
  5
15E81
102
{ACAD_REACTORS
330
15E72
102
}
330
15E72
100
AcDbScale
 70
     0
300
8:1
140
8.0
141
1.0
290
     0
  0
SCALE
  5
15E82
102
{ACAD_REACTORS
330
15E72
102
}
330
15E72
100
AcDbScale
 70
     0
300
10:1
140
10.0
141
1.0
290
     0
  0
SCALE
  5
15E83
102
{ACAD_REACTORS
330
15E72
102
}
330
15E72
100
AcDbScale
 70
     0
300
100:1
140
100.0
141
1.0
290
     0
  0
SCALE
  5
15E84
102
{ACAD_REACTORS
330
15E72
102
}
330
15E72
100
AcDbScale
 70
     0
300
1/128" = 1'-0"
140
0.0078125
141
12.0
290
     0
  0
SCALE
  5
15E85
102
{ACAD_REACTORS
330
15E72
102
}
330
15E72
100
AcDbScale
 70
     0
300
1/64" = 1'-0"
140
0.015625
141
12.0
290
     0
  0
SCALE
  5
15E86
102
{ACAD_REACTORS
330
15E72
102
}
330
15E72
100
AcDbScale
 70
     0
300
1/32" = 1'-0"
140
0.03125
141
12.0
290
     0
  0
SCALE
  5
15E87
102
{ACAD_REACTORS
330
15E72
102
}
330
15E72
100
AcDbScale
 70
     0
300
1/16" = 1'-0"
140
0.0625
141
12.0
290
     0
  0
SCALE
  5
15E88
102
{ACAD_REACTORS
330
15E72
102
}
330
15E72
100
AcDbScale
 70
     0
300
3/32" = 1'-0"
140
0.09375
141
12.0
290
     0
  0
SCALE
  5
15E89
102
{ACAD_REACTORS
330
15E72
102
}
330
15E72
100
AcDbScale
 70
     0
300
1/8" = 1'-0"
140
0.125
141
12.0
290
     0
  0
SCALE
  5
15E8A
102
{ACAD_REACTORS
330
15E72
102
}
330
15E72
100
AcDbScale
 70
     0
300
3/16" = 1'-0"
140
0.1875
141
12.0
290
     0
  0
SCALE
  5
15E8B
102
{ACAD_REACTORS
330
15E72
102
}
330
15E72
100
AcDbScale
 70
     0
300
1/4" = 1'-0"
140
0.25
141
12.0
290
     0
  0
SCALE
  5
15E8C
102
{ACAD_REACTORS
330
15E72
102
}
330
15E72
100
AcDbScale
 70
     0
300
3/8" = 1'-0"
140
0.375
141
12.0
290
     0
  0
SCALE
  5
15E8D
102
{ACAD_REACTORS
330
15E72
102
}
330
15E72
100
AcDbScale
 70
     0
300
1/2" = 1'-0"
140
0.5
141
12.0
290
     0
  0
SCALE
  5
15E8E
102
{ACAD_REACTORS
330
15E72
102
}
330
15E72
100
AcDbScale
 70
     0
300
3/4" = 1'-0"
140
0.75
141
12.0
290
     0
  0
SCALE
  5
15E8F
102
{ACAD_REACTORS
330
15E72
102
}
330
15E72
100
AcDbScale
 70
     0
300
1" = 1'-0"
140
1.0
141
12.0
290
     0
  0
SCALE
  5
15E90
102
{ACAD_REACTORS
330
15E72
102
}
330
15E72
100
AcDbScale
 70
     0
300
1-1/2" = 1'-0"
140
1.5
141
12.0
290
     0
  0
SCALE
  5
15E91
102
{ACAD_REACTORS
330
15E72
102
}
330
15E72
100
AcDbScale
 70
     0
300
3" = 1'-0"
140
3.0
141
12.0
290
     0
  0
SCALE
  5
15E92
102
{ACAD_REACTORS
330
15E72
102
}
330
15E72
100
AcDbScale
 70
     0
300
6" = 1'-0"
140
6.0
141
12.0
290
     0
  0
SCALE
  5
15E93
102
{ACAD_REACTORS
330
15E72
102
}
330
15E72
100
AcDbScale
 70
     0
300
1'-0" = 1'-0"
140
12.0
141
12.0
290
     0
  0
TABLESTYLE
  5
15EB2
102
{ACAD_REACTORS
330
15EB1
102
}
102
{ACAD_XDICTIONARY
360
38ED8
102
}
330
15EB1
100
AcDbTableStyle
  3
Standard
 70
     0
 71
     0
 40
0.06
 41
0.06
280
     0
281
     0
  7
STANDARD
140
0.18
170
     2
 62
     0
 63
   257
283
     0
 90
        4
 91
        0
  1

274
    -2
284
     1
 64
     0
275
    -2
285
     1
 65
     0
276
    -2
286
     1
 66
     0
277
    -2
287
     1
 67
     0
278
    -2
288
     1
 68
     0
279
    -2
289
     1
 69
     0
  7
STANDARD
140
0.25
170
     5
 62
     0
 63
   257
283
     0
 90
        4
 91
        0
  1

274
    -2
284
     1
 64
     0
275
    -2
285
     1
 65
     0
276
    -2
286
     1
 66
     0
277
    -2
287
     1
 67
     0
278
    -2
288
     1
 68
     0
279
    -2
289
     1
 69
     0
  7
STANDARD
140
0.18
170
     5
 62
     0
 63
   257
283
     0
 90
        4
 91
        0
  1

274
    -2
284
     1
 64
     0
275
    -2
285
     1
 65
     0
276
    -2
286
     1
 66
     0
277
    -2
287
     1
 67
     0
278
    -2
288
     1
 68
     0
279
    -2
289
     1
 69
     0
  0
VISUALSTYLE
  5
15E9D
102
{ACAD_REACTORS
330
15E98
102
}
330
15E98
100
AcDbVisualStyle
  2
2dWireframe
 70
     4
177
     3
291
     0
 70
    58
 90
        0
176
     1
 90
        2
176
     1
 90
        0
176
     1
 90
        0
176
     1
 40
0.6
176
     1
 40
30.0
176
     1
 62
     7
420
 16777215
176
     1
 90
        1
176
     1
 90
        4
176
     1
 62
     7
176
     1
 62
   257
176
     1
 90
        1
176
     1
 90
        1
176
     1
 40
1.0
176
     1
 90
        0
176
     1
 62
   257
176
     1
 40
1.0
176
     1
 90
        1
176
     1
 90
        6
176
     1
 90
        2
176
     1
 62
     7
176
     1
 90
        5
176
     1
 90
        0
176
     1
 90
        0
176
     1
290
     0
176
     1
 90
        1
176
     1
 40
0.0
176
     1
 90
        0
176
     1
290
     1
176
     1
290
     1
176
     1
290
     0
176
     1
290
     0
176
     1
290
     0
176
     1
290
     0
176
     1
290
     0
176
     1
290
     0
176
     1
290
     0
176
     1
 90
       50
176
     1
 40
0.0
176
     1
 40
1.0
176
     1
 90
        0
176
     1
 62
   178
420
        0
176
     1
 90
       50
176
     1
 90
        3
176
     1
 62
     5
420
      255
176
     1
290
     0
176
     1
 90
       50
176
     1
 90
       50
176
     1
 90
       50
176
     1
290
     0
176
     1
 90
       50
176
     1
 62
   256
176
     0
 40
1.0
176
     0
 90
        2
176
     1
  1
strokes_ogs.tif
176
     1
290
     0
176
     1
 40
1.0
176
     1
 40
1.0
176
     1
  0
VISUALSTYLE
  5
15EA0
102
{ACAD_REACTORS
330
15E98
102
}
330
15E98
100
AcDbVisualStyle
  2
Basic
 70
     7
177
     3
291
     1
 70
    58
 90
        1
176
     1
 90
        0
176
     1
 90
        1
176
     1
 90
        0
176
     1
 40
0.6
176
     1
 40
30.0
176
     1
 62
     7
420
 16777215
176
     1
 90
        0
176
     1
 90
        4
176
     1
 62
     7
176
     1
 62
   257
176
     1
 90
        1
176
     1
 90
        1
176
     1
 40
1.0
176
     1
 90
        8
176
     1
 62
     7
176
     1
 40
1.0
176
     1
 90
        1
176
     1
 90
        6
176
     1
 90
        2
176
     1
 62
     7
176
     1
 90
        5
176
     1
 90
        0
176
     1
 90
        0
176
     1
290
     0
176
     1
 90
        1
176
     1
 40
0.0
176
     1
 90
        0
176
     1
290
     0
176
     1
290
     1
176
     1
290
     1
176
     1
290
     0
176
     1
290
     0
176
     1
290
     0
176
     1
290
     0
176
     1
290
     0
176
     1
290
     0
176
     1
 90
       50
176
     1
 40
0.0
176
     1
 40
1.0
176
     1
 90
        0
176
     1
 62
   178
420
        0
176
     1
 90
       50
176
     1
 90
        3
176
     1
 62
     5
420
      255
176
     1
290
     0
176
     1
 90
       50
176
     1
 90
       50
176
     1
 90
       50
176
     1
290
     0
176
     1
 90
       50
176
     1
 62
   256
176
     0
 40
1.0
176
     0
 90
        2
176
     1
  1
strokes_ogs.tif
176
     1
290
     0
176
     1
 40
1.0
176
     1
 40
1.0
176
     1
  0
VISUALSTYLE
  5
15EA4
102
{ACAD_REACTORS
330
15E98
102
}
330
15E98
100
AcDbVisualStyle
  2
Brighten
 70
    12
177
     3
291
     1
 70
    58
 90
        2
176
     1
 90
        2
176
     1
 90
        0
176
     1
 90
        0
176
     1
 40
0.6
176
     1
 40
30.0
176
     1
 62
     7
420
 16777215
176
     1
 90
        1
176
     1
 90
        4
176
     1
 62
     7
176
     1
 62
   257
176
     1
 90
        1
176
     1
 90
        1
176
     1
 40
1.0
176
     1
 90
        8
176
     1
 62
     7
176
     1
 40
1.0
176
     1
 90
        1
176
     1
 90
        6
176
     1
 90
        2
176
     1
 62
     7
176
     1
 90
        5
176
     1
 90
        0
176
     1
 90
        0
176
     1
290
     0
176
     1
 90
        1
176
     1
 40
50.0
176
     1
 90
        0
176
     1
290
     0
176
     1
290
     1
176
     1
290
     1
176
     1
290
     0
176
     1
290
     0
176
     1
290
     0
176
     1
290
     0
176
     1
290
     0
176
     1
290
     0
176
     1
 90
       50
176
     1
 40
0.0
176
     1
 40
1.0
176
     1
 90
        0
176
     1
 62
   178
420
        0
176
     1
 90
       50
176
     1
 90
        3
176
     1
 62
     5
420
      255
176
     1
290
     0
176
     1
 90
       50
176
     1
 90
       50
176
     1
 90
       50
176
     1
290
     0
176
     1
 90
       50
176
     1
 62
   256
176
     0
 40
1.0
176
     0
 90
        2
176
     1
  1
strokes_ogs.tif
176
     1
290
     0
176
     1
 40
1.0
176
     1
 40
1.0
176
     1
  0
VISUALSTYLE
  5
15EA8
102
{ACAD_REACTORS
330
15E98
102
}
330
15E98
100
AcDbVisualStyle
  2
ColorChange
 70
    16
177
     3
291
     1
 70
    58
 90
        2
176
     1
 90
        2
176
     1
 90
        3
176
     1
 90
        0
176
     1
 40
0.6
176
     1
 40
30.0
176
     1
 62
     8
420
  8421504
176
     1
 90
        1
176
     1
 90
        4
176
     1
 62
     7
176
     1
 62
   257
176
     1
 90
        1
176
     1
 90
        1
176
     1
 40
1.0
176
     1
 90
        8
176
     1
 62
     8
420
  8421504
176
     1
 40
1.0
176
     1
 90
        1
176
     1
 90
        6
176
     1
 90
        2
176
     1
 62
     7
176
     1
 90
        5
176
     1
 90
        0
176
     1
 90
        0
176
     1
290
     0
176
     1
 90
        1
176
     1
 40
0.0
176
     1
 90
        0
176
     1
290
     0
176
     1
290
     1
176
     1
290
     1
176
     1
290
     0
176
     1
290
     0
176
     1
290
     0
176
     1
290
     0
176
     1
290
     0
176
     1
290
     0
176
     1
 90
       50
176
     1
 40
0.0
176
     1
 40
1.0
176
     1
 90
        0
176
     1
 62
   178
420
        0
176
     1
 90
       50
176
     1
 90
        3
176
     1
 62
     5
420
      255
176
     1
290
     0
176
     1
 90
       50
176
     1
 90
       50
176
     1
 90
       50
176
     1
290
     0
176
     1
 90
       50
176
     1
 62
   256
176
     0
 40
1.0
176
     0
 90
        2
176
     1
  1
strokes_ogs.tif
176
     1
290
     0
176
     1
 40
1.0
176
     1
 40
1.0
176
     1
  0
VISUALSTYLE
  5
15EA2
102
{ACAD_REACTORS
330
15E98
102
}
330
15E98
100
AcDbVisualStyle
  2
Conceptual
 70
     9
177
     3
291
     0
 70
    58
 90
        3
176
     1
 90
        2
176
     1
 90
        0
176
     1
 90
        0
176
     1
 40
0.6
176
     1
 40
30.0
176
     1
 62
     7
420
 16777215
176
     1
 90
        2
176
     1
 90
        2
176
     1
 62
     7
176
     1
 62
   257
176
     1
 90
        1
176
     1
 90
        1
176
     1
 40
179.0
176
     1
 90
        8
176
     1
 62
     7
176
     1
 40
1.0
176
     1
 90
        1
176
     1
 90
        6
176
     1
 90
        2
176
     1
 62
     7
176
     1
 90
        3
176
     1
 90
        0
176
     1
 90
        0
176
     1
290
     0
176
     1
 90
        1
176
     1
 40
0.0
176
     1
 90
        0
176
     1
290
     0
176
     1
290
     1
176
     1
290
     1
176
     1
290
     0
176
     1
290
     0
176
     1
290
     0
176
     1
290
     0
176
     1
290
     0
176
     1
290
     0
176
     1
 90
       50
176
     1
 40
0.0
176
     1
 40
1.0
176
     1
 90
        0
176
     1
 62
   178
420
        0
176
     1
 90
       50
176
     1
 90
        3
176
     1
 62
     5
420
      255
176
     1
290
     0
176
     1
 90
       50
176
     1
 90
       50
176
     1
 90
       50
176
     1
290
     0
176
     1
 90
       50
176
     1
 62
   256
176
     0
 40
1.0
176
     0
 90
        2
176
     1
  1
strokes_ogs.tif
176
     1
290
     0
176
     1
 40
1.0
176
     1
 40
1.0
176
     1
  0
VISUALSTYLE
  5
15EA3
102
{ACAD_REACTORS
330
15E98
102
}
330
15E98
100
AcDbVisualStyle
  2
Dim
 70
    11
177
     3
291
     1
 70
    58
 90
        2
176
     1
 90
        2
176
     1
 90
        0
176
     1
 90
        0
176
     1
 40
0.6
176
     1
 40
30.0
176
     1
 62
     7
420
 16777215
176
     1
 90
        1
176
     1
 90
        4
176
     1
 62
     7
176
     1
 62
   257
176
     1
 90
        1
176
     1
 90
        1
176
     1
 40
1.0
176
     1
 90
        8
176
     1
 62
     7
176
     1
 40
1.0
176
     1
 90
        1
176
     1
 90
        6
176
     1
 90
        2
176
     1
 62
     7
176
     1
 90
        5
176
     1
 90
        0
176
     1
 90
        0
176
     1
290
     0
176
     1
 90
        1
176
     1
 40
-50.0
176
     1
 90
        0
176
     1
290
     0
176
     1
290
     1
176
     1
290
     1
176
     1
290
     0
176
     1
290
     0
176
     1
290
     0
176
     1
290
     0
176
     1
290
     0
176
     1
290
     0
176
     1
 90
       50
176
     1
 40
0.0
176
     1
 40
1.0
176
     1
 90
        0
176
     1
 62
   178
420
        0
176
     1
 90
       50
176
     1
 90
        3
176
     1
 62
     5
420
      255
176
     1
290
     0
176
     1
 90
       50
176
     1
 90
       50
176
     1
 90
       50
176
     1
290
     0
176
     1
 90
       50
176
     1
 62
   256
176
     0
 40
1.0
176
     0
 90
        2
176
     1
  1
strokes_ogs.tif
176
     1
290
     0
176
     1
 40
1.0
176
     1
 40
1.0
176
     1
  0
VISUALSTYLE
  5
15EAB
102
{ACAD_REACTORS
330
15E98
102
}
330
15E98
100
AcDbVisualStyle
  2
EdgeColorOff
 70
    22
177
     3
291
     1
 70
    58
 90
        2
176
     0
 90
        2
176
     0
 90
        0
176
     0
 90
        0
176
     0
 40
0.6
176
     0
 40
30.0
176
     0
 62
     7
420
 16777215
176
     0
 90
        1
176
     0
 90
        4
176
     0
 62
     7
176
     0
 62
   257
176
     0
 90
        1
176
     0
 90
        1
176
     0
 40
1.0
176
     0
 90
        8
176
     2
 62
     7
176
     0
 40
1.0
176
     0
 90
        1
176
     0
 90
        6
176
     0
 90
        2
176
     0
 62
     7
176
     0
 90
        5
176
     0
 90
        0
176
     0
 90
        0
176
     0
290
     0
176
     0
 90
        1
176
     0
 40
0.0
176
     0
 90
        0
176
     0
290
     0
176
     0
290
     1
176
     0
290
     1
176
     0
290
     0
176
     0
290
     0
176
     0
290
     0
176
     0
290
     0
176
     0
290
     0
176
     0
290
     0
176
     0
 90
       50
176
     0
 40
0.0
176
     0
 40
1.0
176
     0
 90
        0
176
     0
 62
   178
420
        0
176
     0
 90
       50
176
     0
 90
        3
176
     0
 62
     5
420
      255
176
     0
290
     0
176
     0
 90
       50
176
     0
 90
       50
176
     0
 90
       50
176
     0
290
     0
176
     0
 90
       50
176
     0
 62
   256
176
     0
 40
1.0
176
     0
 90
        2
176
     0
  1
strokes_ogs.tif
176
     0
290
     0
176
     0
 40
1.0
176
     0
 40
1.0
176
     0
  0
VISUALSTYLE
  5
15EA7
102
{ACAD_REACTORS
330
15E98
102
}
330
15E98
100
AcDbVisualStyle
  2
Facepattern
 70
    15
177
     3
291
     1
 70
    58
 90
        2
176
     1
 90
        2
176
     1
 90
        0
176
     1
 90
        0
176
     1
 40
0.6
176
     1
 40
30.0
176
     1
 62
     7
420
 16777215
176
     1
 90
        1
176
     1
 90
        4
176
     1
 62
     7
176
     1
 62
   257
176
     1
 90
        1
176
     1
 90
        1
176
     1
 40
1.0
176
     1
 90
        8
176
     1
 62
     7
176
     1
 40
1.0
176
     1
 90
        1
176
     1
 90
        6
176
     1
 90
        2
176
     1
 62
     7
176
     1
 90
        5
176
     1
 90
        0
176
     1
 90
        0
176
     1
290
     0
176
     1
 90
        1
176
     1
 40
0.0
176
     1
 90
        0
176
     1
290
     0
176
     1
290
     1
176
     1
290
     1
176
     1
290
     0
176
     1
290
     0
176
     1
290
     0
176
     1
290
     0
176
     1
290
     0
176
     1
290
     0
176
     1
 90
       50
176
     1
 40
0.0
176
     1
 40
1.0
176
     1
 90
        0
176
     1
 62
   178
420
        0
176
     1
 90
       50
176
     1
 90
        3
176
     1
 62
     5
420
      255
176
     1
290
     0
176
     1
 90
       50
176
     1
 90
       50
176
     1
 90
       50
176
     1
290
     0
176
     1
 90
       50
176
     1
 62
   256
176
     0
 40
1.0
176
     0
 90
        2
176
     1
  1
strokes_ogs.tif
176
     1
290
     0
176
     1
 40
1.0
176
     1
 40
1.0
176
     1
  0
VISUALSTYLE
  5
15E99
102
{ACAD_REACTORS
330
15E98
102
}
330
15E98
100
AcDbVisualStyle
  2
Flat
 70
     0
177
     3
291
     1
 70
    58
 90
        2
176
     1
 90
        1
176
     1
 90
        1
176
     1
 90
        2
176
     1
 40
0.6
176
     1
 40
30.0
176
     1
 62
     7
420
 16777215
176
     1
 90
        0
176
     1
 90
        0
176
     1
 62
     7
176
     1
 62
   257
176
     1
 90
        1
176
     1
 90
        1
176
     1
 40
1.0
176
     1
 90
        8
176
     1
 62
     7
176
     1
 40
1.0
176
     1
 90
        1
176
     1
 90
        6
176
     1
 90
        2
176
     1
 62
     7
176
     1
 90
        5
176
     1
 90
        0
176
     1
 90
        0
176
     1
290
     0
176
     1
 90
       13
176
     1
 40
0.0
176
     1
 90
        0
176
     1
290
     0
176
     1
290
     1
176
     1
290
     1
176
     1
290
     0
176
     1
290
     0
176
     1
290
     0
176
     1
290
     0
176
     1
290
     0
176
     1
290
     0
176
     1
 90
       50
176
     1
 40
0.0
176
     1
 40
1.0
176
     1
 90
        0
176
     1
 62
   178
420
        0
176
     1
 90
       50
176
     1
 90
        3
176
     1
 62
     5
420
      255
176
     1
290
     0
176
     1
 90
       50
176
     1
 90
       50
176
     1
 90
       50
176
     1
290
     0
176
     1
 90
       50
176
     1
 62
   256
176
     0
 40
1.0
176
     0
 90
        2
176
     1
  1
strokes_ogs.tif
176
     1
290
     0
176
     1
 40
1.0
176
     1
 40
1.0
176
     1
  0
VISUALSTYLE
  5
15E9A
102
{ACAD_REACTORS
330
15E98
102
}
330
15E98
100
AcDbVisualStyle
  2
FlatWithEdges
 70
     1
177
     3
291
     1
 70
    58
 90
        2
176
     1
 90
        1
176
     1
 90
        1
176
     1
 90
        2
176
     1
 40
0.6
176
     1
 40
30.0
176
     1
 62
     7
420
 16777215
176
     1
 90
        1
176
     1
 90
        0
176
     1
 62
     7
176
     1
 62
   257
176
     1
 90
        1
176
     1
 90
        1
176
     1
 40
1.0
176
     1
 90
        0
176
     1
 62
   257
176
     1
 40
1.0
176
     1
 90
        1
176
     1
 90
        6
176
     1
 90
        2
176
     1
 62
     7
176
     1
 90
        5
176
     1
 90
        0
176
     1
 90
        0
176
     1
290
     0
176
     1
 90
       13
176
     1
 40
0.0
176
     1
 90
        0
176
     1
290
     0
176
     1
290
     1
176
     1
290
     1
176
     1
290
     0
176
     1
290
     0
176
     1
290
     0
176
     1
290
     0
176
     1
290
     0
176
     1
290
     0
176
     1
 90
       50
176
     1
 40
0.0
176
     1
 40
1.0
176
     1
 90
        0
176
     1
 62
   178
420
        0
176
     1
 90
       50
176
     1
 90
        3
176
     1
 62
     5
420
      255
176
     1
290
     0
176
     1
 90
       50
176
     1
 90
       50
176
     1
 90
       50
176
     1
290
     0
176
     1
 90
       50
176
     1
 62
   256
176
     0
 40
1.0
176
     0
 90
        2
176
     1
  1
strokes_ogs.tif
176
     1
290
     0
176
     1
 40
1.0
176
     1
 40
1.0
176
     1
  0
VISUALSTYLE
  5
15E9B
102
{ACAD_REACTORS
330
15E98
102
}
330
15E98
100
AcDbVisualStyle
  2
Gouraud
 70
     2
177
     3
291
     1
 70
    58
 90
        2
176
     1
 90
        2
176
     1
 90
        1
176
     1
 90
        2
176
     1
 40
0.6
176
     1
 40
30.0
176
     1
 62
     7
420
 16777215
176
     1
 90
        0
176
     1
 90
        0
176
     1
 62
     7
176
     1
 62
   257
176
     1
 90
        1
176
     1
 90
        1
176
     1
 40
1.0
176
     1
 90
        0
176
     1
 62
     7
176
     1
 40
1.0
176
     1
 90
        1
176
     1
 90
        6
176
     1
 90
        2
176
     1
 62
     7
176
     1
 90
        5
176
     1
 90
        0
176
     1
 90
        0
176
     1
290
     0
176
     1
 90
       13
176
     1
 40
0.0
176
     1
 90
        0
176
     1
290
     0
176
     1
290
     1
176
     1
290
     1
176
     1
290
     0
176
     1
290
     0
176
     1
290
     0
176
     1
290
     0
176
     1
290
     0
176
     1
290
     0
176
     1
 90
       50
176
     1
 40
0.0
176
     1
 40
1.0
176
     1
 90
        0
176
     1
 62
   178
420
        0
176
     1
 90
       50
176
     1
 90
        3
176
     1
 62
     5
420
      255
176
     1
290
     0
176
     1
 90
       50
176
     1
 90
       50
176
     1
 90
       50
176
     1
290
     0
176
     1
 90
       50
176
     1
 62
   256
176
     0
 40
1.0
176
     0
 90
        2
176
     1
  1
strokes_ogs.tif
176
     1
290
     0
176
     1
 40
1.0
176
     1
 40
1.0
176
     1
  0
VISUALSTYLE
  5
15E9C
102
{ACAD_REACTORS
330
15E98
102
}
330
15E98
100
AcDbVisualStyle
  2
GouraudWithEdges
 70
     3
177
     3
291
     1
 70
    58
 90
        2
176
     1
 90
        2
176
     1
 90
        1
176
     1
 90
        2
176
     1
 40
0.6
176
     1
 40
30.0
176
     1
 62
     7
420
 16777215
176
     1
 90
        1
176
     1
 90
        0
176
     1
 62
     7
176
     1
 62
   257
176
     1
 90
        1
176
     1
 90
        1
176
     1
 40
1.0
176
     1
 90
        0
176
     1
 62
   257
176
     1
 40
1.0
176
     1
 90
        1
176
     1
 90
        6
176
     1
 90
        2
176
     1
 62
     7
176
     1
 90
        5
176
     1
 90
        0
176
     1
 90
        0
176
     1
290
     0
176
     1
 90
       13
176
     1
 40
0.0
176
     1
 90
        0
176
     1
290
     0
176
     1
290
     1
176
     1
290
     1
176
     1
290
     0
176
     1
290
     0
176
     1
290
     0
176
     1
290
     0
176
     1
290
     0
176
     1
290
     0
176
     1
 90
       50
176
     1
 40
0.0
176
     1
 40
1.0
176
     1
 90
        0
176
     1
 62
   178
420
        0
176
     1
 90
       50
176
     1
 90
        3
176
     1
 62
     5
420
      255
176
     1
290
     0
176
     1
 90
       50
176
     1
 90
       50
176
     1
 90
       50
176
     1
290
     0
176
     1
 90
       50
176
     1
 62
   256
176
     0
 40
1.0
176
     0
 90
        2
176
     1
  1
strokes_ogs.tif
176
     1
290
     0
176
     1
 40
1.0
176
     1
 40
1.0
176
     1
  0
VISUALSTYLE
  5
15E9F
102
{ACAD_REACTORS
330
15E98
102
}
330
15E98
100
AcDbVisualStyle
  2
Hidden
 70
     6
177
     3
291
     0
 70
    58
 90
        1
176
     1
 90
        2
176
     1
 90
        2
176
     1
 90
        0
176
     1
 40
0.6
176
     1
 40
30.0
176
     1
 62
     7
420
 16777215
176
     1
 90
        2
176
     1
 90
        2
176
     1
 62
     7
176
     1
 62
   257
176
     1
 90
        2
176
     1
 90
        1
176
     1
 40
40.0
176
     1
 90
        0
176
     1
 62
   257
176
     1
 40
1.0
176
     1
 90
        1
176
     1
 90
        6
176
     1
 90
        2
176
     1
 62
     7
176
     1
 90
        3
176
     1
 90
        0
176
     1
 90
        0
176
     1
290
     0
176
     1
 90
        1
176
     1
 40
0.0
176
     1
 90
        0
176
     1
290
     0
176
     1
290
     1
176
     1
290
     1
176
     1
290
     0
176
     1
290
     0
176
     1
290
     0
176
     1
290
     0
176
     1
290
     0
176
     1
290
     0
176
     1
 90
       50
176
     1
 40
0.0
176
     1
 40
1.0
176
     1
 90
        0
176
     1
 62
   178
420
        0
176
     1
 90
       50
176
     1
 90
        3
176
     1
 62
     5
420
      255
176
     1
290
     0
176
     1
 90
       50
176
     1
 90
       50
176
     1
 90
       50
176
     1
290
     0
176
     1
 90
       50
176
     1
 62
   256
176
     0
 40
1.0
176
     0
 90
        2
176
     1
  1
strokes_ogs.tif
176
     1
290
     0
176
     1
 40
1.0
176
     1
 40
1.0
176
     1
  0
VISUALSTYLE
  5
15EA9
102
{ACAD_REACTORS
330
15E98
102
}
330
15E98
100
AcDbVisualStyle
  2
JitterOff
 70
    20
177
     3
291
     1
 70
    58
 90
        2
176
     0
 90
        2
176
     0
 90
        0
176
     0
 90
        0
176
     0
 40
0.6
176
     0
 40
30.0
176
     0
 62
     7
420
 16777215
176
     0
 90
        1
176
     0
 90
        4
176
     0
 62
     7
176
     0
 62
   257
176
     0
 90
        1
176
     0
 90
        1
176
     0
 40
1.0
176
     0
 90
       10
176
     2
 62
     7
176
     0
 40
1.0
176
     0
 90
        1
176
     0
 90
        6
176
     0
 90
        2
176
     0
 62
     7
176
     0
 90
        5
176
     0
 90
        0
176
     0
 90
        0
176
     0
290
     0
176
     0
 90
        1
176
     0
 40
0.0
176
     0
 90
        0
176
     0
290
     0
176
     0
290
     1
176
     0
290
     1
176
     0
290
     0
176
     0
290
     0
176
     0
290
     0
176
     0
290
     0
176
     0
290
     0
176
     0
290
     0
176
     0
 90
       50
176
     0
 40
0.0
176
     0
 40
1.0
176
     0
 90
        0
176
     0
 62
   178
420
        0
176
     0
 90
       50
176
     0
 90
        3
176
     0
 62
     5
420
      255
176
     0
290
     0
176
     0
 90
       50
176
     0
 90
       50
176
     0
 90
       50
176
     0
290
     0
176
     0
 90
       50
176
     0
 62
   256
176
     0
 40
1.0
176
     0
 90
        2
176
     0
  1
strokes_ogs.tif
176
     0
290
     0
176
     0
 40
1.0
176
     0
 40
1.0
176
     0
  0
VISUALSTYLE
  5
15EA6
102
{ACAD_REACTORS
330
15E98
102
}
330
15E98
100
AcDbVisualStyle
  2
Linepattern
 70
    14
177
     3
291
     1
 70
    58
 90
        2
176
     1
 90
        2
176
     1
 90
        0
176
     1
 90
        0
176
     1
 40
0.6
176
     1
 40
30.0
176
     1
 62
     7
420
 16777215
176
     1
 90
        1
176
     1
 90
        4
176
     1
 62
     7
176
     1
 62
   257
176
     1
 90
        7
176
     1
 90
        7
176
     1
 40
1.0
176
     1
 90
        8
176
     1
 62
     7
176
     1
 40
1.0
176
     1
 90
        1
176
     1
 90
        6
176
     1
 90
        2
176
     1
 62
     7
176
     1
 90
        5
176
     1
 90
        0
176
     1
 90
        0
176
     1
290
     0
176
     1
 90
        1
176
     1
 40
0.0
176
     1
 90
        0
176
     1
290
     0
176
     1
290
     1
176
     1
290
     1
176
     1
290
     0
176
     1
290
     0
176
     1
290
     0
176
     1
290
     0
176
     1
290
     0
176
     1
290
     0
176
     1
 90
       50
176
     1
 40
0.0
176
     1
 40
1.0
176
     1
 90
        0
176
     1
 62
   178
420
        0
176
     1
 90
       50
176
     1
 90
        3
176
     1
 62
     5
420
      255
176
     1
290
     0
176
     1
 90
       50
176
     1
 90
       50
176
     1
 90
       50
176
     1
290
     0
176
     1
 90
       50
176
     1
 62
   256
176
     0
 40
1.0
176
     0
 90
        2
176
     1
  1
strokes_ogs.tif
176
     1
290
     0
176
     1
 40
1.0
176
     1
 40
1.0
176
     1
  0
VISUALSTYLE
  5
15EAA
102
{ACAD_REACTORS
330
15E98
102
}
330
15E98
100
AcDbVisualStyle
  2
OverhangOff
 70
    21
177
     3
291
     1
 70
    58
 90
        2
176
     0
 90
        2
176
     0
 90
        0
176
     0
 90
        0
176
     0
 40
0.6
176
     0
 40
30.0
176
     0
 62
     7
420
 16777215
176
     0
 90
        1
176
     0
 90
        4
176
     0
 62
     7
176
     0
 62
   257
176
     0
 90
        1
176
     0
 90
        1
176
     0
 40
1.0
176
     0
 90
        9
176
     2
 62
     7
176
     0
 40
1.0
176
     0
 90
        1
176
     0
 90
        6
176
     0
 90
        2
176
     0
 62
     7
176
     0
 90
        5
176
     0
 90
        0
176
     0
 90
        0
176
     0
290
     0
176
     0
 90
        1
176
     0
 40
0.0
176
     0
 90
        0
176
     0
290
     0
176
     0
290
     1
176
     0
290
     1
176
     0
290
     0
176
     0
290
     0
176
     0
290
     0
176
     0
290
     0
176
     0
290
     0
176
     0
290
     0
176
     0
 90
       50
176
     0
 40
0.0
176
     0
 40
1.0
176
     0
 90
        0
176
     0
 62
   178
420
        0
176
     0
 90
       50
176
     0
 90
        3
176
     0
 62
     5
420
      255
176
     0
290
     0
176
     0
 90
       50
176
     0
 90
       50
176
     0
 90
       50
176
     0
290
     0
176
     0
 90
       50
176
     0
 62
   256
176
     0
 40
1.0
176
     0
 90
        2
176
     0
  1
strokes_ogs.tif
176
     0
290
     0
176
     0
 40
1.0
176
     0
 40
1.0
176
     0
  0
VISUALSTYLE
  5
15EA1
102
{ACAD_REACTORS
330
15E98
102
}
330
15E98
100
AcDbVisualStyle
  2
Realistic
 70
     8
177
     3
291
     0
 70
    58
 90
        2
176
     1
 90
        3
176
     1
 90
        0
176
     1
 90
        2
176
     1
 40
0.6
176
     1
 40
30.0
176
     1
 62
     7
420
 16777215
176
     1
 90
        0
176
     1
 90
        0
176
     1
 62
     7
176
     1
 62
   257
176
     1
 90
        1
176
     1
 90
        1
176
     1
 40
1.0
176
     1
 90
        8
176
     1
 62
   257
176
     1
 40
1.0
176
     1
 90
        1
176
     1
 90
        6
176
     1
 90
        2
176
     1
 62
     7
176
     1
 90
        3
176
     1
 90
        0
176
     1
 90
        0
176
     1
290
     0
176
     1
 90
       13
176
     1
 40
0.0
176
     1
 90
        0
176
     1
290
     0
176
     1
290
     1
176
     1
290
     1
176
     1
290
     0
176
     1
290
     0
176
     1
290
     0
176
     1
290
     0
176
     1
290
     0
176
     1
290
     0
176
     1
 90
       50
176
     1
 40
0.0
176
     1
 40
1.0
176
     1
 90
        0
176
     1
 62
   178
420
        0
176
     1
 90
       50
176
     1
 90
        3
176
     1
 62
     5
420
      255
176
     1
290
     0
176
     1
 90
       50
176
     1
 90
       50
176
     1
 90
       50
176
     1
290
     0
176
     1
 90
       50
176
     1
 62
   256
176
     0
 40
1.0
176
     0
 90
        2
176
     1
  1
strokes_ogs.tif
176
     1
290
     0
176
     1
 40
1.0
176
     1
 40
1.0
176
     1
  0
VISUALSTYLE
  5
15EB0
102
{ACAD_REACTORS
330
15E98
102
}
330
15E98
100
AcDbVisualStyle
  2
Shaded
 70
    27
177
     3
291
     0
 70
    58
 90
        2
176
     1
 90
        2
176
     1
 90
        1
176
     1
 90
        2
176
     1
 40
0.6
176
     1
 40
30.0
176
     1
 62
     7
420
 16777215
176
     1
 90
        0
176
     1
 90
        4
176
     1
 62
     7
176
     1
 62
   257
176
     1
 90
        1
176
     1
 90
        1
176
     1
 40
1.0
176
     1
 90
        8
176
     1
 62
   257
176
     1
 40
1.0
176
     1
 90
        1
176
     1
 90
        6
176
     1
 90
        2
176
     1
 62
     8
420
  7895160
176
     1
 90
        3
176
     1
 90
        0
176
     1
 90
        0
176
     1
290
     0
176
     1
 90
        5
176
     1
 40
0.0
176
     1
 90
        0
176
     1
290
     0
176
     1
290
     1
176
     1
290
     1
176
     1
290
     0
176
     1
290
     0
176
     1
290
     0
176
     1
290
     0
176
     1
290
     0
176
     1
290
     0
176
     1
 90
       50
176
     1
 40
0.0
176
     1
 40
1.0
176
     1
 90
        0
176
     1
 62
   178
420
        0
176
     1
 90
       50
176
     1
 90
        3
176
     1
 62
     5
420
      255
176
     1
290
     0
176
     1
 90
       50
176
     1
 90
       50
176
     1
 90
       50
176
     1
290
     0
176
     1
 90
       50
176
     1
 62
   256
176
     0
 40
1.0
176
     0
 90
        2
176
     1
  1
strokes_ogs.tif
176
     1
290
     0
176
     1
 40
1.0
176
     1
 40
1.0
176
     1
  0
VISUALSTYLE
  5
15EAF
102
{ACAD_REACTORS
330
15E98
102
}
330
15E98
100
AcDbVisualStyle
  2
Shaded with edges
 70
    26
177
     3
291
     0
 70
    58
 90
        2
176
     1
 90
        2
176
     1
 90
        1
176
     1
 90
        2
176
     1
 40
0.6
176
     1
 40
30.0
176
     1
 62
     7
420
 16777215
176
     1
 90
        1
176
     1
 90
       10
176
     1
 62
     7
176
     1
 62
   257
176
     1
 90
        2
176
     1
 90
        1
176
     1
 40
1.0
176
     1
 90
        8
176
     1
 62
   257
176
     1
 40
1.0
176
     1
 90
        1
176
     1
 90
        6
176
     1
 90
        2
176
     1
 62
     7
176
     1
 90
        3
176
     1
 90
        0
176
     1
 90
        0
176
     1
290
     0
176
     1
 90
        5
176
     1
 40
0.0
176
     1
 90
        0
176
     1
290
     0
176
     1
290
     1
176
     1
290
     1
176
     1
290
     0
176
     1
290
     0
176
     1
290
     0
176
     1
290
     0
176
     1
290
     0
176
     1
290
     0
176
     1
 90
       50
176
     1
 40
0.0
176
     1
 40
1.0
176
     1
 90
        0
176
     1
 62
   178
420
        0
176
     1
 90
       50
176
     1
 90
        3
176
     1
 62
     5
420
      255
176
     1
290
     0
176
     1
 90
       50
176
     1
 90
       50
176
     1
 90
       50
176
     1
290
     0
176
     1
 90
       50
176
     1
 62
   256
176
     0
 40
1.0
176
     0
 90
        2
176
     1
  1
strokes_ogs.tif
176
     1
290
     0
176
     1
 40
1.0
176
     1
 40
1.0
176
     1
  0
VISUALSTYLE
  5
15EAC
102
{ACAD_REACTORS
330
15E98
102
}
330
15E98
100
AcDbVisualStyle
  2
Shades of Gray
 70
    23
177
     3
291
     0
 70
    58
 90
        2
176
     1
 90
        2
176
     1
 90
        3
176
     1
 90
        0
176
     1
 40
0.6
176
     1
 40
30.0
176
     1
 62
     7
420
 16777215
176
     1
 90
        2
176
     1
 90
        2
176
     1
 62
     7
176
     1
 62
     7
176
     1
 90
        1
176
     1
 90
        1
176
     1
 40
40.0
176
     1
 90
        8
176
     1
 62
     7
176
     1
 40
1.0
176
     1
 90
        1
176
     1
 90
        6
176
     1
 90
        2
176
     1
 62
     7
176
     1
 90
        3
176
     1
 90
        0
176
     1
 90
        0
176
     1
290
     0
176
     1
 90
        1
176
     1
 40
0.0
176
     1
 90
        0
176
     1
290
     0
176
     1
290
     1
176
     1
290
     1
176
     1
290
     0
176
     1
290
     0
176
     1
290
     0
176
     1
290
     0
176
     1
290
     0
176
     1
290
     0
176
     1
 90
       50
176
     1
 40
0.0
176
     1
 40
1.0
176
     1
 90
        0
176
     1
 62
   178
420
        0
176
     1
 90
       50
176
     1
 90
        3
176
     1
 62
     5
420
      255
176
     1
290
     0
176
     1
 90
       50
176
     1
 90
       50
176
     1
 90
       50
176
     1
290
     0
176
     1
 90
       50
176
     1
 62
   256
176
     0
 40
1.0
176
     0
 90
        2
176
     1
  1
strokes_ogs.tif
176
     1
290
     0
176
     1
 40
1.0
176
     1
 40
1.0
176
     1
  0
VISUALSTYLE
  5
15EAD
102
{ACAD_REACTORS
330
15E98
102
}
330
15E98
100
AcDbVisualStyle
  2
Sketchy
 70
    24
177
     3
291
     0
 70
    58
 90
        1
176
     1
 90
        2
176
     1
 90
        2
176
     1
 90
        0
176
     1
 40
0.6
176
     1
 40
30.0
176
     1
 62
     7
420
 16777215
176
     1
 90
        2
176
     1
 90
        2
176
     1
 62
     7
176
     1
 62
     7
176
     1
 90
        1
176
     1
 90
        1
176
     1
 40
40.0
176
     1
 90
       11
176
     1
 62
     7
176
     1
 40
1.0
176
     1
 90
        1
176
     1
 90
        6
176
     1
 90
        2
176
     1
 62
     7
176
     1
 90
        6
176
     1
 90
        0
176
     1
 90
        0
176
     1
290
     0
176
     1
 90
        1
176
     1
 40
0.0
176
     1
 90
        0
176
     1
290
     0
176
     1
290
     1
176
     1
290
     1
176
     1
290
     0
176
     1
290
     0
176
     1
290
     0
176
     1
290
     0
176
     1
290
     0
176
     1
290
     0
176
     1
 90
       50
176
     1
 40
0.0
176
     1
 40
1.0
176
     1
 90
        0
176
     1
 62
   178
420
        0
176
     1
 90
       50
176
     1
 90
        3
176
     1
 62
     5
420
      255
176
     1
290
     0
176
     1
 90
       50
176
     1
 90
       50
176
     1
 90
       50
176
     1
290
     0
176
     1
 90
       50
176
     1
 62
   256
176
     0
 40
1.0
176
     0
 90
        2
176
     1
  1
strokes_ogs.tif
176
     1
290
     0
176
     1
 40
1.0
176
     1
 40
1.0
176
     1
  0
VISUALSTYLE
  5
15EA5
102
{ACAD_REACTORS
330
15E98
102
}
330
15E98
100
AcDbVisualStyle
  2
Thicken
 70
    13
177
     3
291
     1
 70
    58
 90
        2
176
     1
 90
        2
176
     1
 90
        0
176
     1
 90
        0
176
     1
 40
0.6
176
     1
 40
30.0
176
     1
 62
     7
420
 16777215
176
     1
 90
        1
176
     1
 90
        4
176
     1
 62
     7
176
     1
 62
   257
176
     1
 90
        1
176
     1
 90
        1
176
     1
 40
1.0
176
     1
 90
       12
176
     1
 62
     7
176
     1
 40
1.0
176
     1
 90
        1
176
     1
 90
        6
176
     1
 90
        2
176
     1
 62
     7
176
     1
 90
        5
176
     1
 90
        0
176
     1
 90
        0
176
     1
290
     0
176
     1
 90
        1
176
     1
 40
0.0
176
     1
 90
        0
176
     1
290
     0
176
     1
290
     1
176
     1
290
     1
176
     1
290
     0
176
     1
290
     0
176
     1
290
     0
176
     1
290
     0
176
     1
290
     0
176
     1
290
     0
176
     1
 90
       50
176
     1
 40
0.0
176
     1
 40
1.0
176
     1
 90
        0
176
     1
 62
   178
420
        0
176
     1
 90
       50
176
     1
 90
        3
176
     1
 62
     5
420
      255
176
     1
290
     0
176
     1
 90
       50
176
     1
 90
       50
176
     1
 90
       50
176
     1
290
     0
176
     1
 90
       50
176
     1
 62
   256
176
     0
 40
1.0
176
     0
 90
        2
176
     1
  1
strokes_ogs.tif
176
     1
290
     0
176
     1
 40
1.0
176
     1
 40
1.0
176
     1
  0
VISUALSTYLE
  5
15E9E
102
{ACAD_REACTORS
330
15E98
102
}
330
15E98
100
AcDbVisualStyle
  2
Wireframe
 70
     5
177
     3
291
     0
 70
    58
 90
        0
176
     1
 90
        2
176
     1
 90
        0
176
     1
 90
        0
176
     1
 40
0.6
176
     1
 40
30.0
176
     1
 62
     7
420
 16777215
176
     1
 90
        1
176
     1
 90
        4
176
     1
 62
     7
176
     1
 62
   257
176
     1
 90
        1
176
     1
 90
        1
176
     1
 40
1.0
176
     1
 90
        0
176
     1
 62
   257
176
     1
 40
1.0
176
     1
 90
        1
176
     1
 90
        6
176
     1
 90
        2
176
     1
 62
     7
176
     1
 90
        3
176
     1
 90
        0
176
     1
 90
        0
176
     1
290
     0
176
     1
 90
        1
176
     1
 40
0.0
176
     1
 90
        0
176
     1
290
     0
176
     1
290
     1
176
     1
290
     1
176
     1
290
     0
176
     1
290
     0
176
     1
290
     0
176
     1
290
     0
176
     1
290
     0
176
     1
290
     0
176
     1
 90
       50
176
     1
 40
0.0
176
     1
 40
1.0
176
     1
 90
        0
176
     1
 62
   178
420
        0
176
     1
 90
       50
176
     1
 90
        3
176
     1
 62
     5
420
      255
176
     1
290
     0
176
     1
 90
       50
176
     1
 90
       50
176
     1
 90
       50
176
     1
290
     0
176
     1
 90
       50
176
     1
 62
   256
176
     0
 40
1.0
176
     0
 90
        2
176
     1
  1
strokes_ogs.tif
176
     1
290
     0
176
     1
 40
1.0
176
     1
 40
1.0
176
     1
  0
VISUALSTYLE
  5
15EAE
102
{ACAD_REACTORS
330
15E98
102
}
330
15E98
100
AcDbVisualStyle
  2
X-Ray
 70
    25
177
     3
291
     0
 70
    58
 90
        2
176
     1
 90
        2
176
     1
 90
        1
176
     1
 90
        1
176
     1
 40
0.5
176
     1
 40
30.0
176
     1
 62
     7
420
 16777215
176
     1
 90
        1
176
     1
 90
        0
176
     1
 62
     7
176
     1
 62
   257
176
     1
 90
        1
176
     1
 90
        1
176
     1
 40
1.0
176
     1
 90
        8
176
     1
 62
     7
176
     1
 40
1.0
176
     1
 90
        1
176
     1
 90
        6
176
     1
 90
        2
176
     1
 62
     7
176
     1
 90
        3
176
     1
 90
        0
176
     1
 90
        0
176
     1
290
     0
176
     1
 90
       13
176
     1
 40
0.0
176
     1
 90
        0
176
     1
290
     0
176
     1
290
     1
176
     1
290
     1
176
     1
290
     0
176
     1
290
     0
176
     1
290
     0
176
     1
290
     0
176
     1
290
     0
176
     1
290
     0
176
     1
 90
       50
176
     1
 40
0.0
176
     1
 40
1.0
176
     1
 90
        0
176
     1
 62
   178
420
        0
176
     1
 90
       50
176
     1
 90
        3
176
     1
 62
     5
420
      255
176
     1
290
     0
176
     1
 90
       50
176
     1
 90
       50
176
     1
 90
       50
176
     1
290
     0
176
     1
 90
       50
176
     1
 62
   256
176
     0
 40
1.0
176
     0
 90
        2
176
     1
  1
strokes_ogs.tif
176
     1
290
     0
176
     1
 40
1.0
176
     1
 40
1.0
176
     1
  0
DICTIONARYVAR
  5
15ECE
102
{ACAD_REACTORS
330
15ECD
102
}
330
15ECD
100
DictionaryVariables
280
     0
  1
1:1
  0
DICTIONARYVAR
  5
15ED3
102
{ACAD_REACTORS
330
15ECD
102
}
330
15ECD
100
DictionaryVariables
280
     0
  1
Standard
  0
DICTIONARYVAR
  5
15ED2
102
{ACAD_REACTORS
330
15ECD
102
}
330
15ECD
100
DictionaryVariables
280
     0
  1
Standard
  0
DICTIONARYVAR
  5
2FCC5
102
{ACAD_REACTORS
330
15ECD
102
}
330
15ECD
100
DictionaryVariables
280
     0
  1
.
  0
DICTIONARYVAR
  5
15ED4
102
{ACAD_REACTORS
330
15ECD
102
}
330
15ECD
100
DictionaryVariables
280
     0
  1
0
  0
DICTIONARYVAR
  5
2FD97
102
{ACAD_REACTORS
330
15EC6
102
}
330
15EC6
100
DictionaryVariables
280
     0
  1
0.250000
  0
DICTIONARYVAR
  5
2FD95
102
{ACAD_REACTORS
330
15EC1
102
}
330
15EC1
100
DictionaryVariables
280
     0
  1
0.261799
  0
DICTIONARYVAR
  5
2FD93
102
{ACAD_REACTORS
330
15EC1
102
}
330
15EC1
100
DictionaryVariables
280
     0
  1
0.400000
  0
DICTIONARYVAR
  5
2FD94
102
{ACAD_REACTORS
330
15EC1
102
}
330
15EC1
100
DictionaryVariables
280
     0
  1
0.250000
  0
DICTIONARYVAR
  5
2FD96
102
{ACAD_REACTORS
330
15EC1
102
}
330
15EC1
100
DictionaryVariables
280
     0
  1
0
  0
DICTIONARY
  5
38ED8
330
15EB2
100
AcDbDictionary
280
     1
281
     1
  3
ACAD_ROUNDTRIP_2008_TABLESTYLE_CELLSTYLEMAP
360
38ED9
  0
CELLSTYLEMAP
  5
38ED9
102
{ACAD_REACTORS
330
38ED8
102
}
330
38ED8
100
AcDbCellStyleMap
 90
        3
300
CELLSTYLE
  1
TABLEFORMAT_BEGIN
 90
        5
170
     1
 91
        0
 92
    32768
 62
   257
 93
        1
300
CONTENTFORMAT
  1
CONTENTFORMAT_BEGIN
 90
        0
 91
        0
 92
        4
 93
        0
300

 40
0.0
140
1.0
 94
        5
 62
     0
340
11
144
0.25
309
CONTENTFORMAT_END
171
     1
301
MARGIN
  1
CELLMARGIN_BEGIN
 40
0.06
 40
0.06
 40
0.06
 40
0.06
 40
0.06
 40
0.06
309
CELLMARGIN_END
 94
        6
 95
        1
302
GRIDFORMAT
  1
GRIDFORMAT_BEGIN
 90
        0
 91
        1
 62
     0
 92
       -2
340
14
 93
        0
 40
0.045
309
GRIDFORMAT_END
 95
        2
302
GRIDFORMAT
  1
GRIDFORMAT_BEGIN
 90
        0
 91
        1
 62
     0
 92
       -2
340
14
 93
        0
 40
0.045
309
GRIDFORMAT_END
 95
        4
302
GRIDFORMAT
  1
GRIDFORMAT_BEGIN
 90
        0
 91
        1
 62
     0
 92
       -2
340
14
 93
        0
 40
0.045
309
GRIDFORMAT_END
 95
        8
302
GRIDFORMAT
  1
GRIDFORMAT_BEGIN
 90
        0
 91
        1
 62
     0
 92
       -2
340
14
 93
        0
 40
0.045
309
GRIDFORMAT_END
 95
       16
302
GRIDFORMAT
  1
GRIDFORMAT_BEGIN
 90
        0
 91
        1
 62
     0
 92
       -2
340
14
 93
        0
 40
0.045
309
GRIDFORMAT_END
 95
       32
302
GRIDFORMAT
  1
GRIDFORMAT_BEGIN
 90
        0
 91
        1
 62
     0
 92
       -2
340
14
 93
        0
 40
0.045
309
GRIDFORMAT_END
309
TABLEFORMAT_END
  1
CELLSTYLE_BEGIN
 90
        1
 91
        1
300
_TITLE
309
CELLSTYLE_END
300
CELLSTYLE
  1
TABLEFORMAT_BEGIN
 90
        5
170
     1
 91
        0
 92
        0
 62
   257
 93
        1
300
CONTENTFORMAT
  1
CONTENTFORMAT_BEGIN
 90
        0
 91
        0
 92
        4
 93
        0
300

 40
0.0
140
1.0
 94
        5
 62
     0
340
11
144
0.18
309
CONTENTFORMAT_END
171
     1
301
MARGIN
  1
CELLMARGIN_BEGIN
 40
0.06
 40
0.06
 40
0.06
 40
0.06
 40
0.06
 40
0.06
309
CELLMARGIN_END
 94
        6
 95
        1
302
GRIDFORMAT
  1
GRIDFORMAT_BEGIN
 90
        0
 91
        1
 62
     0
 92
       -2
340
14
 93
        0
 40
0.045
309
GRIDFORMAT_END
 95
        2
302
GRIDFORMAT
  1
GRIDFORMAT_BEGIN
 90
        0
 91
        1
 62
     0
 92
       -2
340
14
 93
        0
 40
0.045
309
GRIDFORMAT_END
 95
        4
302
GRIDFORMAT
  1
GRIDFORMAT_BEGIN
 90
        0
 91
        1
 62
     0
 92
       -2
340
14
 93
        0
 40
0.045
309
GRIDFORMAT_END
 95
        8
302
GRIDFORMAT
  1
GRIDFORMAT_BEGIN
 90
        0
 91
        1
 62
     0
 92
       -2
340
14
 93
        0
 40
0.045
309
GRIDFORMAT_END
 95
       16
302
GRIDFORMAT
  1
GRIDFORMAT_BEGIN
 90
        0
 91
        1
 62
     0
 92
       -2
340
14
 93
        0
 40
0.045
309
GRIDFORMAT_END
 95
       32
302
GRIDFORMAT
  1
GRIDFORMAT_BEGIN
 90
        0
 91
        1
 62
     0
 92
       -2
340
14
 93
        0
 40
0.045
309
GRIDFORMAT_END
309
TABLEFORMAT_END
  1
CELLSTYLE_BEGIN
 90
        2
 91
        1
300
_HEADER
309
CELLSTYLE_END
300
CELLSTYLE
  1
TABLEFORMAT_BEGIN
 90
        5
170
     1
 91
        0
 92
        0
 62
   257
 93
        1
300
CONTENTFORMAT
  1
CONTENTFORMAT_BEGIN
 90
        0
 91
        0
 92
        4
 93
        0
300

 40
0.0
140
1.0
 94
        2
 62
     0
340
11
144
0.18
309
CONTENTFORMAT_END
171
     1
301
MARGIN
  1
CELLMARGIN_BEGIN
 40
0.06
 40
0.06
 40
0.06
 40
0.06
 40
0.06
 40
0.06
309
CELLMARGIN_END
 94
        6
 95
        1
302
GRIDFORMAT
  1
GRIDFORMAT_BEGIN
 90
        0
 91
        1
 62
     0
 92
       -2
340
14
 93
        0
 40
0.045
309
GRIDFORMAT_END
 95
        2
302
GRIDFORMAT
  1
GRIDFORMAT_BEGIN
 90
        0
 91
        1
 62
     0
 92
       -2
340
14
 93
        0
 40
0.045
309
GRIDFORMAT_END
 95
        4
302
GRIDFORMAT
  1
GRIDFORMAT_BEGIN
 90
        0
 91
        1
 62
     0
 92
       -2
340
14
 93
        0
 40
0.045
309
GRIDFORMAT_END
 95
        8
302
GRIDFORMAT
  1
GRIDFORMAT_BEGIN
 90
        0
 91
        1
 62
     0
 92
       -2
340
14
 93
        0
 40
0.045
309
GRIDFORMAT_END
 95
       16
302
GRIDFORMAT
  1
GRIDFORMAT_BEGIN
 90
        0
 91
        1
 62
     0
 92
       -2
340
14
 93
        0
 40
0.045
309
GRIDFORMAT_END
 95
       32
302
GRIDFORMAT
  1
GRIDFORMAT_BEGIN
 90
        0
 91
        1
 62
     0
 92
       -2
340
14
 93
        0
 40
0.045
309
GRIDFORMAT_END
309
TABLEFORMAT_END
  1
CELLSTYLE_BEGIN
 90
        3
 91
        2
300
_DATA
309
CELLSTYLE_END
  0
ENDSEC
  0
SECTION
  2
ACDSDATA
 70
     2
 71
     2
  0
ACDSSCHEMA
 90
        0
  1
AcDb_Thumbnail_Schema
  2
AcDbDs::ID
280
    10
 91
        8
  2
Thumbnail_Data
280
    15
 91
        0
101
ACDSRECORD
 95
        0
 90
        2
  2
AcDbDs::TreatedAsObjectData
280
     1
291
     1
101
ACDSRECORD
 95
        0
 90
        3
  2
AcDbDs::Legacy
280
     1
291
     1
101
ACDSRECORD
  1
AcDbDs::ID
 90
        4
  2
AcDs:Indexable
280
     1
291
     1
101
ACDSRECORD
  1
AcDbDs::ID
 90
        5
  2
AcDbDs::HandleAttribute
280
     7
282
     1
  0
ACDSSCHEMA
 90
        1
  1
AcDb3DSolid_ASM_Data
  2
AcDbDs::ID
280
    10
 91
        8
  2
ASM_Data
280
    15
 91
        0
101
ACDSRECORD
 95
        1
 90
        2
  2
AcDbDs::TreatedAsObjectData
280
     1
291
     1
101
ACDSRECORD
 95
        1
 90
        3
  2
AcDbDs::Legacy
280
     1
291
     1
101
ACDSRECORD
  1
AcDbDs::ID
 90
        4
  2
AcDs:Indexable
280
     1
291
     1
101
ACDSRECORD
  1
AcDbDs::ID
 90
        5
  2
AcDbDs::HandleAttribute
280
     7
282
     1
  0
ACDSSCHEMA
 90
        2
  1
AcDbDs::TreatedAsObjectDataSchema
  2
AcDbDs::TreatedAsObjectData
280
     1
 91
        0
  0
ACDSSCHEMA
 90
        3
  1
AcDbDs::LegacySchema
  2
AcDbDs::Legacy
280
     1
 91
        0
  0
ACDSSCHEMA
 90
        4
  1
AcDbDs::IndexedPropertySchema
  2
AcDs:Indexable
280
     1
 91
        0
  0
ACDSSCHEMA
 90
        5
  1
AcDbDs::HandleAttributeSchema
  2
AcDbDs::HandleAttribute
280
     7
 91
        1
284
     1
  0
ACDSRECORD
 90
        0
  2
AcDbDs::ID
280
    10
320
1E
  2
Thumbnail_Data
280
    15
 94
    15424
310
89504E470D0A1A0A0000000D49484452000001000000008508020000003B1AB1EE000000097048597300000EC400000EC401952B0E1B0000200049444154789CEDBD77BC1D55BDF7FF993E7BF69EDDF73EFBF496931CD2434C8018207445C50282572CA8C815F5E2FDBDD48BE8E3CFC78B28571F7D508A8A6041BCFA5CC487
310
72E92D9040FA494E72524FEF67F7DEA63E7FCC3E35FB94840408CCFB8F64F6CC5A6BD6CC59DF35AB7C0B019377132C3FEB15875B0A8F4CFCF47ABD9148E42DA9D3DB09EBAF9648668E04F45B561593B7025F2D12A1B25724E2BDF8B796541DD9F81C09DE8B2FE5DD4C3E8D6CB2FC25CEF2D656E59D81AECDFA420000E45B56
310
1313937720E617E0BD82CD41676A2E200A590F8A001C76916AA9DC746EEEFF3C219EC2BB042A91CF03004D836190CFC36281A60100C70140340ABB1DF93CEC76E472100484C328E44F6115000004C05A30DACB92B23467425300CE300882B8FCF2CB6D365BF9CB36273289592F011357398E13C5D1B3EAE3CAEAE65358BD1F
310
FD08478EC0E743228155ABF0CA2BF07870C105686F87DD8E63C7108F63C306E83A1405F138BC5EDC730F4ECB6CDCE644A66ADE54C469B8B3C969C4ED76EFDBB76F5601988B22C0699A168BC500689AE6F7BB8014E039E595343131393330BF00EF7E962F87CB858E0E6CDA541A84381C0804100CC2E582DD8EAD5B71E9A5C8
310
66A169C8E5D0D98970F8EDAEF45B05F57657C0E4B4F395AF008020E0CA2BE17663D3265C7105A2515C7B2DD6AEC5C0006C36582CF8D297401060592C5D8AB6B6B7BBD26F15E617E0DD4F5515AAAA00C062417737681AF1383EFA513CF71C48127575D8B3072E170401C1201A1A303A8A74FAEDAEB489898989898989898989
310
89898989898989898989C929C1DC0730990BAFD7DBD414D9B91324891FFD08763B5816DBB661E3468442A8AE463E0F86812481E3A0EBB05870D75DD8B1E3EDAEF7823177824DE6421004BF3F3738088A024982E33034845C0EFBF62191C0C000DADBB1752B008C8C6078186FBC014DC3C5172393412CF676D77E0198EAD026
310
F340D300A0EB1004C8328241E4F3E03824936059389D48A54AFA14636358B60C8A82580CA288CA4A8C8D41D7DFEE07981353004E3DA228721CF7C94F4656AC80C30145C1D1A34826E17442D7C130A028701C2A2B2149C8E590C9E0B9E7F0EAAB6F77BD67A1BA1A001806175F8C5C0EAB56211C86DF8F2D5BB0742972392C5A
310
048F07B5B578FE792C590282C0CE9DB8E516148BF8D39FF0C61B6FF703CC89390738F5180E170C93288629197F00A069C832380E9A0645290D2A2409240959862CBFDDF52EC7BBDE7984F9050000BFDFA969344DD324494A9224CB72323969495D5787D656A82A52295014BC5E8C8E82E3208A9065300C1405478E60781800
310
5A5B5B6FB8F9A6179E78EAA5975E5294927DE0540A85B7EEB99C4EAB208892A4489254E05849E7415100A0A92029A80A581EAA523A900AA068A80A281A00A422580E0E11E00002D041D1A593AA0200040110A0692832480A4029AFAE43D7415150555034140900480A8A0C862D25D63500A068C845301C540504511A2D4DD4
310
0480AA82A226AB3451CF098EAF92AE4F160B40D3101E9CE31599936000B0586C9148445114499292C964B1589C7AB5BA1A4E67A9E7AEA98128425160B381E72149703A411088C7098AF2B6B4B4FCF237BF7BE8AF7FFFDD3DBFDABC797330187CBB9EC880E384643295C9648AC5A2EAA99D6C76C6979F244192D0B5D2810149
310
82A2A16BA0681084601373850248120C3B71121403820049812441100059FA491020C68F8DA2408020C673D10040B3A564340300A47192299D9C5A138A9E59A589ABC641D92AD1534E92140471363F3106E6100818FFD0F33C4F5154369B3DB9422EBAE8A2733F7A9D9E49066C5C2C2F4564A4BA0E3EFCD09F4E6D554F0887
310
C391CBE5646374E50E2036767C9A2F7C010F3D04552D5FC2193F049AE5A927308740A7008AA2BE7ACB371467055F48EDDEB1F5C99E1EAFD7BBE9D2CB3281FAEFDD7EC75D77FEF8A485EA2D607070D6D6FF2EE3139FF05E7041C4ED463289540A9D9D686931BF0000DEDC17C0ED767FE7DFEFD871A47B65C0F5C2B3CF148BC5
310
70386CB1580441B8EEBAEBDA8742AB962F7BE07FFDE4D8B1633332F23C5F5B2B7776AA002EBF1C2C0B9B0DB91C5A5A70F428EAEB118D62CD1AF4F7C3EF473088781C478F62EFDE6985B4B4802461B56268084E272C1684421045381CA028643256BBBDB073A7AA28B8E4AA8F5F7CEEBA42B1C850AAAA52B22C2B8A924C263F
310
F00161FB76C56AF5298A52281458962DCA8A43B4653219411052A914CFF3AAAA721C674C90AC566B329924080280C56291248965594DD3344D03A0280ACFF313275555356EE47038D2E9B4CD66D3348DA49954222E0802499200288A2A168BC69B1704415114ABD55A2C16699A36B2D3349DCBE544515455D538D60096A625
310
49B2DBEDB22C531495CFE7398E33EE6BD4D3A85246C53D3FBBD37857575EE9ADA88818D30A4180A68165CD3900004010845C2E674C82E513598E59BF7EFD676FF9D6FE8387D7D6791EFBC7DFAD56B1BABAFACA6BAFAE0B54F5F7F73FF3CC33CD957E86B72C59FF7E9FD572F4C891193775B9B470580560B361E54A148B0806
310
21CBE8EB4365254812AFBD068F07FDFDA8A9415717380E8A029A9E9C5B5F7C312EBF1C9A86F3CEC3D967A3AA0A7E3F366E84CD860B2E4043035D5FAFF6F65A18C621B8FD07BBFBFA25EAE39BD6F7F60E48922449522A953A7C380730B95C4ED77555557D3EDFEAD56B76EFDEA5695A2A9512453197CB6532194992128944B1
310
58F4FBFD4EA7339D4E6732194366D2E9B42CCB92249124994824962E5DAA284A28142A140AB95C8EE3B87C3E6FA489C7E38AA2AC5FBF3E1289C4E3F1542AA5284A24129165D9B8BBA669B95C6EC3860D1D1D1DD96C96A6E942A120CB72B158344A4BA55214457DE4C31F696FDF2749522C16332AA6AAAAA228E974DA78AEF7
310
BDEF7DAF0D445F7EFAC93D473A7391D24CECECB305972B17084096E174C2E74377B72900004E4A004892FCD28D377EF43337D86962A4F3F0FEFD1D34CD5EF9E10FF728DC7DBF7D90A96AFCE0C67333A9E4D0D0503C34B6AAB5E5A20F5CD9D0D8B8E38DD78D9E1200C771EBD72B870FAB00366CC0AA55A59E3B1CC6FBDE07AB
310
15B20C8A822CA3AA0A7D7D58B408F5F558B102850206064AD5387408AFBC828E0E6CDF8ED75EC3F6ED387000AFBD86B6363CFF3CDADBADAFBEAAC4E3C55C2E3722F86EBCE1F3C150D8E5096C7DE1D9542AD5D1D151515171FEF9C4DEBD636363A1A1A121007BF7EEADAEAEDABF7F7F341AA569BAA7A72793C9F4F5F559AD56
310
922443A1506767A7D56AEDEEEE4EA552BAAE7777777777775BADD66030383636363030C0715C369BEDEBEB1B1E1E1E1C1C4CA7D3C16090E3B8CECECEA1A121BBDD6EDCA5A3A3C3EBF55214353232D2DBDB3B3030208A6228144A24128AA2ECDBB7CF6EB7C762B14824D2DBDB6BB158344D3B78F0E0E8E8A8D1D9B7B5B52512
310
898181814422E1F17892C9647B7B7B2A9592659965D96834BA61694B3FE33AD83B84C8B0F1AE2A2A844221373686741A850282414422A60000000441C8E773975E4A0F0C2C48006C36DBFFBCF367FD390DC9F0D38F3F76ECD8B16834FAD99B6E7EE0B92D5BFFF62052B1FE037B3B92D267AEFBE4706F772C161B1E1A2CE6B3
310
6199F8F4673F7FA47D6F2A9502C071DCEAD5CABE7D2A80EF7F1FB28CB131389DA8A941A1800B2E2819F2721CEAEB914CA2B616562B8E1EC5E73E874F7F1A14850307E6A927CFF3B22C97444E55CE69AC1A1E1B73381CC9B16149921886E9EDED5DBD7AEFD0504D389C28140A994C269D4EFB7CBEB6B63645518E1E3D5A5F5F
310
1F0E871545397CF87022916059B6AFAF6FE3C68D3B77EE2C168B9D9D9D9224711C373636562C161986210842D7F5582C964AA5128984D3E98CC562AAAAA6D3E9743ACD304C32990C0402FDFDFD46DF1F0A852449CA64320E87231289F4F4F40058B468514F4F4F575797F114BAAE777676168B459BCD562C1673B95C5555D5
310
F0F0B0A228BAAE330C130A858C21134110B95C6E6060E0ECB3CFAEA8A8D8FDEC13BDDD5DC8678C72D26981201887A368B3A158842822123127C153B8E4126CD9327FB255AB565D7FF3BF7474F5B6DA99279E7882A6E9D5AB572FBFE0D21FDDFDEBE8C1DDA544AA12DEB5F987E1B1CF5D7F3D1D1B79F2C927A3D1E825975C72
310
E8C8911BBF75DBE6C71E79E59557003CF24829F997BF5C9A899224340D9A86DFFE16BA0E4D83AE83242108C8E5401090653CF14429E5DC58ADF8E21771CF3DD34EEA9A2E0842676727C771D5D5D5D5D5D5B158666C2C64B5DA63B198318470B95CF5F5F5E974BAB6B6767474D418FDB7B4B464B3D94C26535D5D1D89444892
310
2C168B0E87C3E170140A0592248787871986B1DBED82204422916432E9F7FB8DA6E9F178388E03904EA72D160B4110A954CA66B39124994C265555ADABABCB64322449FAFD7E4DD3745D2749D262B1A4522997CB65CC16229188CBE5F27ABD478F1E25084292A47C3EAF691A455104412412099BCD66B55A070606B2D96C34
310
1A6D686838FE9DD034B37A35FC7E44A388C5B06285390906303E09BEE8227EE7CE7926C1D75F7FBD67C57AA4A285C85867676732995CB57A35D3B8ECE1FB7EA52742F9E3F7BD44F7073E7DC379B59EFF7EFC3192247D3EDFBA8D170EE6354736FCC0EF7E97CFE725696EDF95278FC5825B6E71FCE21793CBA0377CF4CA6BAF
310
FDE403CF3C2FC4C2344D5B2C96783CAEEBBA288A2E972B9148140A058220EC816AE4D2C6983E140A89A2E8F3F98AC562369B2549D2E572A5145D4EC65455B55AAD00B2D9AC311B5655D5E170480495CFA435A918080432990C8062B168B47B63925D20192D9314455196E54C26E372B9789E4FA7D3E170D8E7F311044158ED
310
A9B1614110344D9365D9E974E672B96C364B10445555552A952A922CAB168DA69F4AA52C160B4551AAAA1A43D97C3E4FDB5DBFFBE5FF5E7FCEFABD7D2313CBA05EAFB7BA1A975F1EE9E880CF07A713D9ACF90598C2B66DA57DD2B2088270D75D77EDEC0F8A85C41BDBB6241289542AF56FDFFF9FF73FF5D2BE9F7CEF935791
310
8F3F5E2E5B3AF6ECEFEF3DBCE1927FBDF12B8FFEF90FF97CFE8947FEF6E1AB3EDAA5B1BFBAEF37DFFEFFBE110ACDB54DF3669065ECDE3DE5B7DDFBC8BE2EFB9263FF78F6351CDB3335E5CCC5FEF9D6CEA726B0D96C1FF948AEBA5A932478BDC8E5C038444295BA0F1719068B16219D46348A4D9B904A211E473289B464F9C5
310
3D73BAC35D70051A1BF1C10F82A2D0D00092C4AE5DE4D34FDB138904DC01BAA66598F7796B59908A9129994C028E9FFD6C5A49A6002C889696969BBE755B86A4C45CECD9D75ECB66B3959595D77CF19F6FFBDFF7C5DAB75394EEF108B366968BFDAF3E7DDB60FF2D37FFF3B1D75F8E46A32FBFF8C2F9E79F0F5DFBE60F7FFC
310
E81FEEDFB973E7DC77BFF8E2D21F381E47380C514422015DC7CA95F07A71F428BABAE823479819DF1F45992E008A04A900553DB5FA99344D2793447B3BEAEB1189201A0593503A0F6BCB5B110E43519048C0EDC6EF7E07BB1D8B17231A4591178093F7077DDB6DE88C8249A3AE0E3C5F1A19E67248A51089C0589F0510C9E6
310
43C383908B73B8DE2508530016C0C73EFE89D6F32F1D1D1A403675E0C0019AA62FBEF8626EF19AEFFDFBBF1B7A26BA8EDE5E232D034CCCA1A71EA3D073F0A7B7FFF09A1B6FFEC0D2A52F3CF7DC33CF3CB365CB96F75F7AF9DA0F7F72DD39E7DE77CFDDFA2CED72DD3A9C7F3E62310402B05860B7C3ED86AEA3BE1EC3C3B058
310
505F8F7098A4E9F9FE94B914081572A1A4100171223A84A6D9A756159A7D9E063A2D81FDE8512A1653B259E83A380E89822D1E91139122008A42B188CA4A8442387204FDFD501448BC0350165CFE4C9E7A0A49D25E2DE4B76D434D0DB259CD6A4D2712B05A9198EA189BA211199E3B2CC8673E630AC09CB02CFBAD5B6F0BEA
310
8C1E1BDBF6D20B9148846198ABAFFBD4B691E48BAFEC85D50EEB32001AB0B987439D8EF85A08DB4A9973E74D1E8FF3F7D7DB5A162FBEF6EA6B77BEF2224551BB5EDB7CE9E557ECA7ADFFFED39FFFE2C7B7C7E3D382F9300C6A6A70E9A5181E465D5D6949B4B919E93418065D5DB05A110CC26281D77B120FB708185F4C0535
310
7D2C40CD3734989A80EAEBA354159B378F9F1058288034B9BD3CB15AD5D7070070722752FE4CF6EF079C547F821E2FB00E28ED0E92241C8E52B2B3AAFD4F92E4DC7BDCA3A3A600CC4E4D4DCDBF7EEF071DBD832D4EF289C79F03B07CF9F235175E72EF7F3E1ADCB9191B3E826C6A32B5C643D75120A09F5B3A53B4424FCD2C
310
74ACAF333A72D736E53BDFFAE681979F8946A35B5EDD5C5B5BDB35ACFDDB9DBFF8CBDD3FEFE8E898485B51811FFF187BF660F162B4B480A6A1AA0885E074C2E984DB0D97AB1469627050773A9DC64ACB546C369BC562510C6D6C8793E72D13537C966524C9691CEBBA03D026B3E9764072BB5324A95314150A09BA3E7DC949
310
B703A5B97BA1602108765A8FAE8BD02560D6707D53B39F8A040DC00830A97778E38D3756D7D42803477EF4DD7F63392E97CD4622114110088260180680A228B95C8EE77987C3660A40792EBEF8923BFFE33FEEFF3FFFB04B99679FD95B2814162F5E5CB5F6FD3FFAF92FA5C14E00204828324417D271882E287900A09E9C6C
310
094E17D2D3B7144497F17FB6ABE3FBB77EFBEA2FDDBC3490DCFCCA2BB1586CF9F2E5D1A1FE7BEF7FE0C1FB7FFBD01FFF60241B1AC23FFDD302EB2B0365947E65599E5486AB586CF5565803B5A01800923439F1A0282F3065A04C658131C3A0D1EBF5EA7AEFCC72A92C509AA496D1EE261D208AC0EC6ADF53B29F8A04DDC032
310
60039005485D179E79996B6D0CD4D5E9994C7F5353D3DEBD9DE9749A65330C43E7F3798EB3AD5DBBEEC081368288334CC6148049288AF2783C168BA5A2C277C357BFB277DFDE68F7E1AD870FD334FDA9EB3FD316C9FDF2F61F4C465C930B888F8140E9DF420ABA3E4DFDDFB83415637AE60E004032F2E8AFEE5C7FED17BEF8
310
D57FF9CB83F71F3C7890EBEAF2D8C5D6F51B56EFDBBB6FDFBE53FF7852A1A4493F7B28D533962E20090C691AB25926417A865FFAED55577DBDAFEF659F6FE3F3CFFF7A46EAF676CFC45CD914804954558D46A3D96C361289F41D3A4C387DBDBDBDCDCDCDEFBFE4C2FB760E0EB56D43A07132F5F81B74381C8CCBC917E9A446
310
819F62486075945FCB7305D0BCDA38DCB963674F56FBDAF537BCF6C4A32CCBCABA6E757A0F1D3A747CA6E6667CEE73181C444D0D76ED02492210403C8E254BE0F3A1AF0F679D8583072108B05870FFFD25EB1C001445195B4B5A36595FE3AFB2B1A53A4CC5E1843AA52538BCD067B9747C82E311442812A4E2AC09E6CE7E32
310
0928A015A887319717EC881D93E590B1337D7CEE68343A716C0A4079F2F97C1E4943FFA469C3C543BBB7CE5C3DCC9536D893C924288B5048E9C77F01CA173DCDF578A463F78B64B6B9B676F7EEDD996C5ECB661D0EC78C15A162B1383C9C7EFAE992279242015E2FF6ED432A8563C75051816814478FA25844340AAB15E3DA
310
466059D662B1140A05455132856CAD48553A6CC8A7677E9A2805F12943A0A9DFAE19978E4F703C521E72719ADDD609653FC904C353AE0680318A3A0B405901988A2900B362EC3BDA6C369513D0B31FDAF41585F51F38C9720B59744F1FE12C6D9665343434701C6B685397CD6738DBE93D6E403E0792244D3188B16DDD7B64
310
C9D95D2759ED7729A600C0E3C18A1578E59599E70982181C1C240882E74FEFA09920C96C361B0E8733992C6FF77A3C9EFAFAA811A3E5D65B515585781C82008F07BB7661F972140A48A7E1F703402E87D656FCE77FE2AF7F3DAD753CF3D0757DC24A610E4C0180CD56F2DA300359969B9B9B1389C40959089C048A2C3BBDCE
310
A1A121922400100431F157DBB1034B96A0B111870E95BCAF6DDB069E4777372C16AC5F8F741AFFFDDFA8ABC317BF88B6369C8EC9F369811760B197BF6498295B9DB34ED6B53937D12652691A4992E610687E321954569639CF71DCE0E0A0AAAA52F174E9AB19187624C562511B1FFA8B62C9A982C50286C19E3D2814E072A1
310
5080C5024902C394D422F6EF476B2B58167BF742145157874804B9DC09DCFD539F5A900EEC2946B0CFAAED63AC9271FC3C09E6C358F2A7E6D0EE02600A008068142FBF5CE6BCA669869639459F5EAB095DD7DD6EF7E8E8A8CD6A333A37713C78FBE2C5703A91CFA3A606160B0607B1766D69A61B08C0E5422A05A7139595D8
310
B50BD75F0F92C4238F9419CECD81CF87F97AC93312555527FE9D035300CAE3F57A97AE5CF5F4C3BF57559565D9D37A2F9224F3F9BCDBEDB6B194C232009E7EBA74E997BF9C99F8CF7F9EB59C5DBBE6BC8DCB0F9717165BC967C938CF3DF776F8E422C889B5E099703CC6FA60B1CD9A40D7E6F674524AA5EB865DC11C6938CE
310
1480598844224F6DD9EEF178745DCF9DD090E2A430BC71257245F0A7AD31C64390B2C867662C671D3B36AB2A5173333EF529DC71C769A88CAECD5C0A9BC018E1E433189E65C16A6143205DD7098250CA4EEFC6F9E007319F59D17B18C3D882E7798A9C67084451B8FAEA93BF11499224498E8C8CE4F3A752D2280A81053595
310
59C9E5DEA10E1B1782E196626E25D943874C01188720B06EDD8C33044992E9745A9F675B12BA7E62F3CE19148B45ABD5DAD8D868B3F0AC2A9DAA55578EC3BFFCCB9B2A21129934DA3CE328168BC64AE81C698E1D3305600A5FFEF2B49F0441D034ED743A179237759CDEE7C26118C6F046216B9028D6F0CEF0E6D1B4F96605
310
F321CB6770C46C8EE3288A9A7715C814804966F4762449DAEDF6603038EF4BD434BCFEFAC9DFD750D3956559D7E7D9B539210A053CF6D8292CEF0CC370F03AF71C00A6004CA0EB78E18569670C73F5CACACA793753DE249AA60583415114C9F924CD64E1D0346DCC83E749F6D6D4E68C83A6699FDBCD715C381C6E9E6F3BFD
310
4DA2699A55B48E8E8E920039E71FECFCF361B1A0B61689046419D92C2C16F8FD4826E1F3A1BF1FE1300E1EB494714EF1DE4355D585F45CA6009487E779BFCFA3AA6A6D6D2D499CC077D26E87DD8E64120B1F3C330C634C7C3D4E47969EEB5E7D7D686941308842014E27E271100482415454E0D8B1D28A8DD56A2D2F004E3F
310
5C9EE3F7014E3714059F0F9A8669EE2F0812CDABCA67E02CE3FB00B324D0F585EC0318BB37E64EF04992C96462FD836363639AA6359C7FB9D7EB9DA90D6AB5C0EB85C3095281C3C91769008542A1A505175D84575FC5D131E784438E120E2700D8C5190BEF3C43689A9CCD66238924DC7319710F0E627010006EBA09959558
310
B91204014902CF636808E79C83747ADCEEF6781221C859E4332E2B4F4DAF80CBE59A59CFF19ACFBC745C823258442812E4923D80D78B4F7C020C837BEF9D921D4072B87C768717AE052498A3020E27484510685DD7E79D039802302BBAAEDB6C369AA6E3E95C2412992900D93C22116834621168B4610F90CFE723116C334C
310
E1DD3462D335E9351A00087E86A38E782ADFE07278BD5E8AA617E8A8FCFEFBCB9C7CFE7900F31BC853D9E4F12EFFA79DD1A6D5BC4C7C00EDB8479B8A559E6A0F1089E0C73F3E2E3B306B09DA789B9C3BC11C15D068C4220C63250862EE51D08A15E6247876288AD6753D1E8F9F6E550800A3A3A3C160F09D1C46602EDEDA31
310
D56CDC79270862D202C65082985B009C4EF30B303BF97CDE66B30982A0490534AFC28CA930C5C015802042070411C6EE153FC50CCAB834154104C5C0EE99A1E542DBEC5646B1582C56C17A5A43552C69A85DBEA831AF9FEA5E4F7B4704D84824C0B24C4D4D6552A614B6DA5E5DF5C19A9A402070EBADB75214954AA51886D1
310
755D10845028E4743A4992743A1553006685248960304810C4FAC2D80F3EFD1141105896DDB76F9FCFE7733A9DA0B5CC85CB52A994C3E1884623CB97EBB158CDF0F0704D4D8DA1D9B66FDF3EAFD75B5B5B1B8D4633990C4DD3B5B5B5A158DCCAB11CC7757575555757BB5CAE7C3E3F38D8BB7B77DBD858A8582C9CC4DF8365
310
D9EA6A6F3A2DA9AA9A15ACE06D1356BC844DF00A822CCB924E145CCE4D175C104B246FFCFCA7C8E8250CA3F3BC3D9148B4B444E2F145FDFDC34B972E05303434647538F3E994D56AEDEFEFAFAAF24A120C379DD96CD6ED76F7F5F56DBAF4B2A1BEDE6030A8691ACFF38D8D8D7BF6ECA9ABAB33426058ACB6643221F07C5F5F
310
5F5353532814220882655996650381405B5BDBA64B2EEDEBEB578A794DD30607079B9B9B7B7B7BD7AC59130A8552A994203ADC1E374592FBF7B63537371B5102745D8F44224D4D4DDDDDDDCB56AD2EE4F3C958549665C3B1EE810307BC5EAFD7CBDD7C734A51947C3EBF6849AB464B724A1E1D1D05401084C3E1303C57731C
310
E7F3F98CE9412231AF3BB1F7300441F87C3E9224DBDB0F47A3514DD3128984D7EB6D6F6F2F168B4EA793A66997CBB579F366BFDFB57163F01FFFA88944225EAF57108470382CCBB2DFEFDFBF7F7F2E97D334ADAAAA6ADBB66D46F8138BC5C271DCA1438718869124C966B359AD624383A08FDF77362F71659124299D964A23
310
7582D3F221C44B31DA13714CFA4AD3292D9B7ABA2DB17E51DDCBAFBE1A08040C97E5975D96DBBE3D9D4CEA7BF6ECD1759DA2A8ABAEBA6AD7AE5DD168B4B2B2F2C891234697C9B2ACDFEF1F1A1AAAA9A969DBB963F7EEDD3D3D3D8140C06AB56EDDBA35954AF5F4F4300C138D46038180CBE51A1919B15AADEDEDED4EA77374
310
74D46AB5D2349D4C262B2B2BF7EF6D7BFCF1C7398E33F4C00F1F3EEC76BB0F1C38108D46555575B95CD75C73CD5D77DDD5D0D0D0D5D5A569DAD8D81845517EBFBFADAD8DA2A89D3B775E7DF5D58F3CF288A2282E978B200851143B3A3A64598EC5622CCB3A9DCE4020F0F0D32FF6EFDD51F68D793CA65788F970381C2BCF5A
310
5E2F722323FD4343C1A6A6A6AEAEAEA54B97D2342D0842369BF5F97CE9743A1E8F6FDAB4C9E1B0F2FC51AF975DBC7871757575341A75BBDDB22CF33C2F8A22CFF3E17038954A9D77DE791CC70D0C0CA4D3E9868686EAEAEA62B1A8AA6A2291686C6CACABABB307AA8753798FC7D3D010F9FCE7A1AA0887D1DC8CDDBB515181
310
6C165E2FF27954574396F1A73F61FB76F03CBEFB5DFCEA5700505353F3D55BBE111E1DB1D96C0032998CC5628946A33CCF932459D3D074EC5087CAB99C16B2AAAACA6AB5B6B6B6160A85DEDE03168BC7E3B15756561AEECBEBEAEAD6AE5D4B10443C1E377CFC6FDCB89161983D7BF6AC5AB5CAE572AD58B1221E8FFB7CBE65
310
CB9645A3519BCD36343494CFE7ED76FBAA55AB3C1E4F4F4F4F7D7D3DC3308D8D8DC160B0A2A2C2E3F1643219966533998CD7EBDDB0618320085EAFF7E0C1833CCFD3345D5353934824689A6E6A6AF2F97CD75E7B6D2C162B140AA2282E5DBA3410081C3A74C8F002CD308CCFE75BBA74696D6D6D381C76381CF97C3E994C79
310
E8713400001BE6494441547ABD5E8EE30C43D6C6C646E3259465C22BC4F9E79B02300E49E2873FC4BDF77A2C168B2CCB5DBD47FFFCF0C35FFBEA57DD6EFF0B2F6D214842D7F5B170D888984B80D04537D231D85CDAC18324A9F33CD7D747747676120461B3D9D2E934C63572276ED113CF1004A925C2D0F5C1E111822474AD
310
D4D3B72C5EEC743AEFF9F94F979FB391A2A8DDBBA7FBB59D1D969D3467B1582CE1D191071F7C90A228ABD55A2814288A32A265F13CFFD9CF7EF62FCFBC24ADB974F0D9BFB99C6E5DD70F1F3DA669DAE225DAE070CFD85886200963D2B277FF7E5DD327AB47F4B7B5EF2708A88A4A5194AEEBAF6FDF0E1D9AA6F50E0C9452EA
310
D0759D00888E8320A02A2A4951D0758220AC562193C91AA519FFB677741004095D27484255358A22754D371E43D7B4C3C78E4D96A9690449023A414C4D893D7BF769BAD63F3464A4840E5DD7078686F5F132EFF9F56FC2D52B16F2024D0128411088C560F80502F0C06FFFB061C386A1A1218FD7D7DE33502E473F00702184
310
06691A575C211C3CA81B3B50B38616AD598C74ACECDDBFD4D0D8D1D16117C587EE3BCE04664E5229DC7DF7E4CFB1B131A3434D2412C6404B966523C0044DD3D95C4EDFFCF70160209699C8922DA60FF5D70D0EC7CB947E2AF0BA5D91D8E92ABC3C4E1F12618C947FD553696B7B0F07C8F8EE77BF7BC5155718C78944425515
310
8F471D1BD3699A6618C670CEB363C79673CE594F10B3EB27336C32125655F9ACB342FDFD4DC6866E2E97138472DED219167279F36251141F7EF8E1CF7DEE735323D497E537BFF9CD5FFFFA5700F7DD77DFB265CB4A05338C2CCB168B4514C5783C6E68011851130DDB7045512A2B2BC722315D9EE9AF6ADD3A1C3AC464B3A7
310
4BF17FD6B771FA30DEF3EC6F7B2AEFDD2FC08E1D3B0CBB6900BAAE3B1C11A0E7D0A1732612783C9E60307EEC58FFF0F02C5B92002C362304D5BE7D98C79DE594C4C7D3D2D2924C268F1E3D1A0A85689A96E531000E07340DC522741D345D8A8E2ECB078CA8133B763C2308C168F44434B1CB55A0AC3DF4998DF198B3BFED09
310
9A9ADEC35F8019381CF8CC67F83FFE713244D2ADB7DEBA74E9529BCD76E7DDF7ED6A3F583E9BD53ECD473400C0EB76466289052606B0A8A1EEEE1FFF30180C767676DE71C71D5EAFF7A31F8DD4D48020A0692814C071257D079685CF87030720CB88C7B17831346D61268B161B78DB6C1538ADCCFA364E0F957EEF4D377C96
310
28E6558657B329BBDDFE1FBF79309E2CAF9975CE3A731F609C64120F3D54743A2B8C49703299ECEC3C383030C0304C24129D35DB09B5A75912A7D3E93FFFF9CF0012E3011E0401ADAD387408679D0545413C0E970BA3A320490483181CC479E761F56A300C7EF29385DD5A55FC7EE4F2298870B9A0EBA5A82A9A66EC9E223A
310
BB62C199453E9FEB3B72C87089656C061B860165D9BB9F36BF00B332EB5CF6B4659CC8BE664DE4C20BA12858B4084F3F8DABAEC20B2FA0A1016E37781EF93C0A053CFCF009B8C15ABD1A8D8D703A71F9E5F0FBF1FCF3A8AFC78B2FA2B5154B96802070C30D3377BA4F156FF26D9C6E4C0198958B2EF2AE5B174926118DC26E
310
0749229F87C502009A065104C7E117BF28E3556ED122EFC73E16C9E7C1B2E8E8406525B25934342014024D83E340D308852008C864108960DD3A681AFEF18F92DF4F92240541D375300C723908021806B20C9284A24051E070209180AA62E101266D365C7D35FAFAE074221442B1088B059A068681D3098AC2638F9DDAD061
310
93545478FFE99F22C924BC5EF4F5C1EF473C8EA6268C8E82613032028F075D5D58B102C120F279B4B682E7F1D043384596A1F3600E8166E5E0C144280445014D979A4B26539A9232CC3427CC33C8E771F83018A694329B054160E74EB02CDC6E64B32049D034321924122814303C0C5986C381EA6A00A0286D646452AE8E6F
310
E52761809FC9E04F7F3AE15CA7045D475F1FB259A452C8664BBB7B4664279605C7211A05CF43924A91FF868741D3A8AC2C85F363598442E5C2709C224C019895745A696D2D79A2154588220A050C0E2299442402A7132323E5335294E270A0B919070EE0ECB3D1D888FE7E90242EBA081D1D70BB2149204964B31004D4D662
310
70102D2D78FFFBD1D7576AEE4F3E59D2FB7F17A0694A20808A0AE4F390243434E0D8B15288CBBD7BE17482E3A02848A7515181356B904880A6C1F3B8EC32100412093CF5D4EC460E6F1A7308342BD75E8B540AF5F538FF7CF4F763D72ED4D561F3667CFEF36059A452F8DEF7DEEE2A9ABC694C019815AB15D5D55014681AB2
310
59280A9CCE9225AEC3816412F1B7767FD3C4C4C4C4C4C4C4C4C4C4C4C4C4C4C4C4C4C4C4C4C4C4C4C4C4C4C46481BC237C7A99BCEB59BB16F5F57038409290A4D3A57A7D12980260F256F0B5AFE1ECB3E1F5421491CF9B5A2426EF555A5BDFEE1A4CC75487367947C071DCC73F5E3CEB2CD0340E1D42430318069D9DB05AD1
310
D00082406F2F1A1BB1670F3C1E9C7B2E9E7A0A4E279A9AF0FAEB78EAA993BFAF2900260B82A228B79B0C876500ADADF0F9904C229783CF87D15134364296110CC26A85CD86A12108023C1E7477A3B616B28C6412DDDD73952F8AA2AE179349040225BB8BAA2AAC5E8DFE7EC4624824303A8A9A1A6CDC089E477F3F6A6A4A16
310
456D6D6FEAB94C01305910344D7B3C4C342A6B1ACE3A0B3C8FE666140A2008389D686D453E0F9F0F361B7C3EF8FD90242C59827018EBD681A2D0D1318F000048A51089E0B5D7D0DA0A55C5C808C261A82ABABA4A93E6FDFB118B95821FC7E3A8AAC2F6EDC8CCE3FA64BEE77A53B94DDE4B7CE8431818402E87C6463435E1A2
310
8BF0E28B6059C8320C3F9C1D1DE8EFC7A64DE8EA423E8F458BB064098E1EC5CF7FBEA0F2ED762C5D0A51445B1B56AD424505BABBE1F7E39557B07429E27178BD204900E0381C3B068F070F3EF8661FCA14009385D2D707550580741A9284FFFA2FF4F763FD7AF4F4A0AE0E890456AE2CD9FE2793F078F0FCF3F8FDEF4FC0D6
310
9EA25055058E434303280A990C6EBFBD94FDD1474FD743991661EF151886993B6CFADC701CE77030E17046D74151686E462683741A0E07E271701C3C1E8C8CC06281A2A0A202C3C3D0B432F6FB1C07C34FCFD7BF0EB71B8280EF7C0728E73D85E74FA32DFC04A600BC57A8ABAB4BBD8978F61CC7310C93799323EED971BBDD
310
B1D8FCEE6C4F39E610E8BDC29225B9DADAC4D8189E7EFA64B29FB4007CE633F078B07F3F5E7965AE648647EB93A9D90942D3F8CA57108FE32F7F01CC2FC07B87C6C62A8A124EBA91B12C4BD374EEC47D12090254150C33CF728DCBE58A9FD2FD619AA6699A2E941B45399D2814DE8AF195C93B08AFD7EB9D3784EAEC701C37
310
47CC9537CF1C75BBE4127CF39B10C5132B906559710179CC219049896F7C03BF3CB1E81CA791A9F2904AA1BD1D763B380E00AC56A6BF7FF454DDC81480F70AF37AA8355CB2CD1759FDAD63A2C2C7557C41DF314992A405384F3505E0CC66D1A2DA44220F20168B4DAC725654B854950290C9642606C19FFCEC47D79F77A554
310
941AAB03239138CBB2E9745A14C5743ACD722C80E6662DD038ACAA744DC09595485114255962682693C9701C47E85A3E9FE70401AA6AB7DB23B138C7F304015996698A26488265B94C3ACD72ACC0D08AA6A773398EE300140B45DEC2170B459B68CB6432369B48C9C5ACAA69AA4633B4AEE9C562D16AB3E6B3599A65354DA7
310
29CA6DB58C46635651942559872E152550345485E558020474CD6EE1C2C98CDDE1C8E5B216DE92C9660441C866B21CC7112421CB8ACF29866249DEC2771F6ABBE7AE7BE77881A6009CC15C7E39F6EFCFCFE8DA972D03C7516D6DD3BB4DD1F5E80B7B3457D36838FDEDCF2C3AF8CAE686FA064555F29934C77143A323FE0AFF
310
BEDDFDAA2CEABAD2D4D8B073CFC1642C1A0804DAF7EE695DD29A88465445D6753D9D4A2D6A6EA229922189543C4AD3B42CC9B22C7B7DDE03870EFA7C3E9AA259B75307918AC73C1E4F5767576363E3707FBFCD662B6433F97CDEC23001BF578B276FFBE95D46284103AFD31E49A4007CF8D24D375D77F55068E81BDFBFABEC
310
537FED866BAFBAF8D2A35DAF864647DC6E7721931104E1607BBBC7EB211D8E742ACDF3BCABBE4651D53B7E7CFB4057EFDCEFD014803398254B70E0C0CC93465481992A620CA78D0D3555D54607B6EFDEB56BFFCEEDFBB6BFA1EB7A3A9DA628CA98DDDE77DFB16F7D6B756F6F2F29171F7BEC31A7D379E4C89155AB56EDDAF2
310
2A4551F97C9E6559ABD5FA7CB178E595573EFEF8E3AAAA2A8AA2AAAAC3E148A7D3D5D5D5AF4722168BA5B1B1515194A1A1214551EC76FBE6E79E36629601501485E3B8EBAEBB2E1A8D3A72D1F4E8A407745A0F606C0C40B3FB23AF6F798DE3388CF6947D6AAE28BDBEE5B5CDCF3D5D2C16755D3782C03A1C8E6D63632E972B
310
9D4E330C93DEB4C9E3F1D4F90303C7BA4AB9384E148BB20C9E87AA82E3C0B248A74D0138333182693FFB2C0072C625962DE73F9D20607580A56D2E3763B1A6522997CBE570386A6B6B755D0F06830E87E3F1C71D6EB79B6118BFDFDFDADA1A8944962F5F9E48246C361BCFF3B5B5B5008CA0BFB22C5BAD5641102449E2382E
310
93C9343535F5F6F6FAFD7E9EE7DD6E77341AD5757D6273B7A6A6C68893178BC5EC763B00E3DFA94C7CC78CD2E698B11861EB4551F4F97C9224E9BAEEF178868686AAABAB799EF7783CC562511084A9D1B00188A2F8852F149D4EF87C48A7D1DF8F8A0A0C0D99027066E2F53A288A8BC7559FCF23CB1A80582C46391D32C11F
310
18D2A38ADFBB3800630E9037E600044437998DFCFF5FFBF26D3FFAE1AA55AB8C88BF2CCBB2ACC6F36A3E4FB6B52DAFAC74F33CBFBFBB5F14459BCDC6B26C2E9733020D196BEACDCDCD2CCBF684620D0D0D00366C601806998C64B158F279ABC3C14622B0BA149EE169A249512CF1B83B9D464B8B1E89B0369B1E8D3A699A61
310
C4EE6C2C59B75AAD5B1D902450140606303AEE6B7EEB9EF61CC184077AE10A947DF6275F7879C9D2653E9F8F65595DD78DF0989595952CCB1204A128B962114706FB2EF9E065A1E9B1AD6C36C4626059783C088560B7C3E13005E01D86CB856F7E138280580CEDED58B3067BF742D7B1660DAAAB71E0005E7CD175F4685C96
310
118F471545C194BED309221E1BD3755DA294B23DE8D3FFF57F379C7D2E99CDFFFD8527264EFA7CD03418B1D34B7DB63B80D89C112FC713241270B95028C066433A0D41404F0F3CD5024729725E6259C46270BB313282D1D1D21293AAA2F56C5BB83F536B0541A05804C3209805C637C18EC6C78E0E0CCD5181F61D63ED9D3D
310
B32598780447F5E2A303D3C27B2E5E8CEDDB61846CBDEC3204833878D014807718A9147EF94B0802340D14556A3A3535F8DBDF008024914C125EAF5714458EE3545575B95C13791D0E87D1AF1B277D3EB8DD4824100C9612140A852FFFEBB7BF71C3A7B3D9EC1B6FBC619CF47870E4C849D6F6B9E7CA9DB53290358CAF40DA
310
6CF07A4BE65D062FB6D9103B41950A8683CD098643A86CD0F212EF7BDF64280D4693BD1E372CA548B88AA27CE31B902410041806A248E6F31A459902F00EC388203481F1E79C1E8A26064051944C2633E30B600C792FBC506E69293CF0001806679F8D7DFB2605806559ADA0FEE52FBFBFF9E67FA528EAF0E1C3005C2EC5EB
310
2D35839238399C20E7DC0E983B81458422613C227745052EBCB014F66B41D9A726E0AD2049F05648056493F0F9A0E7A1EBB39570CD35B9071F2C3D026BB746A23164CB071EBFE20AF739E74464D9148033998F7C64DA6A4F5826900C0F0EEA0E071389442211ECDF5FBA74CD3570389020E9838F2202DC72CB2D3FFDE94F49
310
92ECEE7EF5C081695A3A9148041A8DD89CBB667327B0CA908B900AE305E2E08C20CB0B299F60A16988442015E0F0020440A1F3202C2292B3D6B0BD1DF178DC7884DED45CBADFFDFDA8AF475393290067324B974E36F1097A7ACAA879FDFDEF000077E9A7AEEBB7DE7AEBA38F3E78EFBDD1175FEC38BDB53C390802D06111C1
310
59100F01E36635AE0A94EFD301E0AF7FC502D59D0E1DC26BAF01E63EC019CD0B2F603CACFD240B8CC9DBD8A87DFDEB370E0FAB6FAA06EECA498B2F82406C8A8A4EED1264C69BAA949B1624DCEA9868CFC8675028371F48846011913ECE42409E35EA35808686C9AF99D76E83CB0FD6523EA9C3099586290067346D6DE53B3C
310
96650D65B2A9AA1000BEFAE98F362E753CF8A7DFEB0974774351DE5CEB07001DF1F1D518F794554B9A41328254140008120ECFB44CD9E4B45C65054091219413806404764F99F400807FFE67FCFEF7AE0F7DE8B2FAA6B302A2FE832F7D5292749224555505A0699A611647922449924634795300DE85489254761974FFE1DE
310
35E77CFE48278DD36D7A25BA27976B08629A5D30412CD431A254AEB35715D0CC8C73340D4D23354DDBB103F1781C60776E7BA35028A45229AFD7ABAA2A4551860C1004411084B18F66EC829B02F01E62EFB1EEB3BBFBDFA29B4DB479D185CC142B1CAB63B6959999E4D3B0D8903FEEFB40D2D0940F7F18575D85781C7E3F2C
310
16FCF6B7EE575E892C5B86FDFBED3B766C597CF6C656BF7BCB962D1FFAD0875E7AE9A5952BA94040AFAB230F1D52AD56A2AE8EC864723E9F3832429A027066E3743A8D83582C46518AEC0E40D38D01AEC02B7989D6277A5B9280D5312DB3C5067EDCC68566105E706C6E5745A97DF3D6D27EAD20C262850E7016E81A581ECD
310
AB00A09085AEC1686676375231B01C786BC9BD044581A2E10A8061CB2CF017B27007260460CD1ADC74131E7F8258B729D35C571CE8C4F03000902476ED8261ED4CD3A0282A12894776EC14D62DDDB871636F6FEF134F3CD1D656725534117DBE50404505C261730E7086934AA526463B9A4A2339065D07A5201EF9DAB7B175
310
2BB66D1B4FEA0ECCEC7A2DB6C9FD547779BD0300705540914BC7850C640904511AC44FD8304E1DD3CFB689EB094C269BC11C7737B0B9BA62DC1DF7AA442E79E47082F6FAA550DE70302108281490CF5700DCCB2F2312E1E3710E327FE4C880C753F9FEF7BFDFE5720D0DC587C6F5EE162D2A6DFC1D3B069893E07714D5D568
310
6D85DD8E540A5E2F4647B1681176EF0680C6463436E2C8117474884343935AC473783A696B2BFD8DE74710C15AE00A94D6468C5ED980E54033088E0F9CECDE694B3D80D34989A22A8A50142493A0FD2810B05A914CC2E180A280A2A069E079C8D54A2105970B0303C8E71756314D85B70AAA864C2CDD1F9F7CEC14397D1AC3
310
55548840D7962DF07800444032FBF691FBF6DDDBD1D1F1C0030FDC78E38D1306C7F4F4266F0AC03B0586C18A1558BC1814059685A22097C38A15A069343642D7313A8A356B70EC1807A4E72F0E181E2E69F8CC8A221B86262069444720178D4FC7B434BC004FF5E4170033DD5CAD5EEDAAAF8F381C0040D388140B16054E27
310
366FC6BA75A8AA42220182C0A2451895636C0AC1209E7966C1CA1789F0FC690000C1E01050BCFE7A3CF75C11288228021600AFBEFAAAAAAA0F3EF8E08D37DE58D6EDCA4C655A93B78B0D1BB07225681A6E377239D86C252D1A4501CBE28D3710088020C0F3A7EE969A0AA71FAE009CBE932E4314E174A2B212E79E8BBA3AAC
310
58522049D4D7E3CA2B71C10558BFBEE42A74F76E1CE99057AEC48A1525C7582703CD809C2BA285DF5FE6E4D6AD5BEFBCF3CE9FFDEC676EB7BBAE0E03D3E71AE617E01DC1CD378365515909634EBB762D1E7D146BD7E2E8512C59029F0F9FFB1C9249C333263B9B321CEC2E303AC695E1ECF6E9BB040E27CFF353B605962253
310
84C4432AA26885DE74F6D9526FAF0B983E51D62C6017C1E587AA209380EA04AC2097C05B4AB6ED88F0E4B629F607362732093C52EE21030DFFF95F7DA5E319DB17820DB1291F05D50B58CB9460F5013A481A148DC0328C19A57140C9EFEEF1E641063B77EE6459F64F7FBAFBA69BAECFE500B8313E843205E01DC1AF7FBDF0
310
B4239845190E0A8964C458748F44225EEFF45D618D16048165D9F1DF45A01BBE16E452B09208F67FF7BBC5AF7CC50B4C1F029102C6FA914F83A2213A91E90614D03EC8254B2B42F5409E32D2D27C906719B7903AE443E52F69EE89460C005416189F2EFB6A2797A7A8ECF459BB71DC3C91EFC517675585181CDC7AFBED7DA3
310
A30078A016208D273505E03D04411086750B00C0027619A2340A1A8A56347EEC9BBF56D46A0B1CD3E7A70C8BBE8340162A9044E9FB90F122596AE5E1A432FDA3614772165F0C093B928EF297E09ADA8E4B5F00C10E92425A82AD0299F8E4F9A9698C0729C7BA75EB162F3EAFBBFB99442206A0BF1FFDFDC64A5001E8024A3A
310
24A600BC73B9E30E7CEF7BA7AFF80E087E24C3800ED285DE43FDC78ADE995F0D8017E0AE443E0B969B5C0B62C5691DF654A676DE3358782E410399476E04B93C0038FD20C2D075D079904168EA7159B889AC25634B87D3EF77124476DDBAEBEFBEFBEEA9B772B9E0F767A3D1D2839A02F0CEE5B2CB4E46002EBC101E0FFEF1
310
8F32975886A6A7AE021A734A753E4F40F110F2E9F997EA4F099C00A70FC908725356BA12A1D2F6423609D1059286E84222747C6E4118DF18D1188A22070707DD6EABD7EB9D70490DC06EC7B9E74E6E8F9802F06E439266F52278CECAE555EE29839078105607280656FB64EFFE3652D50C5DC3585F999802AA0A9244218B42
310
1600089434EDA6F3C73FE2AB5F2D1D6B1A93C9642EBD5452D50849E2EE3FB860B5432E467AC67AA6B89B3005E09DCB6DB79589A958284C5AFD95A5AD0DA1329D23006CD9B36FF1EAB593BF55A5D48CE6D4312E83A6CD66B10E8647453D34B58C8B39A930AE3761436EBA860FC500403E837810AE0AC48333F326C3E5CF4FA7
310
778A13205DD7354DFBFBDFD5871E021C3E302482FD6079542FC270D744325300DEB9D4D6E2A5974E3857B188E4C294CD168ACB0FDE5A6AA306895049A981A2E1AA2829F6005024C4C76075402E42B083189F70F3168CF54FEA41585B408C6FA9114032521A8625C370F8A0EB2048E8C7ED702B1268164AD919B60C0840F3AD
310
B71A569D0EA85E4D1B26499237F64D2C368CF582A22115204B20C9098D545300DEB9FCF18F6FE1CD9A564291E1B0C131BD6F6639F41D427E96BD675581AA4C76CC53E70924396DC9726A83E6AC181AB7901744D06C4900340D048164044EFF4CAD21868360872CCD22001A700CC039E7201269F6F9B4DAA5B58D55FEB1B1DE
310
458BEAAFB8E232766575BE78FDD71E79E8FF2E5F3BB06C3575E80D4D960CBD685300CE3C2C167CEC6378F8E15351564503A402AC76F4EC875C44D95520D602F7A2C9414B767A8401E2C4434CA4A6DC82B74E539E4B84E00A4CEBEC291A762FE4C24266296BD7E29147521FF8C015E974A6B3B353D7F5975E7AD56A255DB1DE
310
6472776B317A0D71B4B3363644107575181CD424893105E0CC43D7B164C9A928882050CC21119A670E607362A4A7D4857316D0EC5C8917C2DCEB4E8A847C1A760F921178AB91CFCCAA437A1C5555703A9DB95CB265E9CA45F575C3F15426972320BBDC03D94CA3654788B4548CA5379122311C57AB1783E3145300CE3C741D
310
1DA7C4905DF494B1393C9EA92372C181F8187861F2EA844900A64FA6E5E2E4F9190A3C0C3779C9725CD08D740CBE5AB01C14F944D7A6FEC7FF80D71B7FF4D127E1DEF593FFF58BDB7FFA033D33391FFA905C787E64EB33CF6C07E0723AE28924CC39C09948B188A79E3A1505D1F4FC9B0000C8291A93C78F774666D9DB4ACF
310
1EEF482E4E76EAE553E953176A4E8E543AAD17F390A66D6C1F56E54E550670E5FBACD75D92F7784C01782FA32AA59E98616177239F2DD903302CE4F1B926C322159DECB0DFFCF8A72C1611FC14ED374E987599D540B01FA7970DA8F2F7BF115DA0565522A18D8C20103005E04CE6CDC6EC4A8E4F466916BC159978C91EC03D
310
BBE9D669C2327D2A3CEFDDCB2670078687CB9C9EA01FF81EF01D0000B32B66390059C1FF0374CCFEF0B4B9E7F70000000049454E44AE426082
  0
ENDSEC
  0
EOF
